<?xml version="1.0" encoding="utf-8" standalone="no"?>
<!DOCTYPE svg PUBLIC "-//W3C//DTD SVG 1.1//EN"
  "http://www.w3.org/Graphics/SVG/1.1/DTD/svg11.dtd">
<!-- Created with matplotlib (https://matplotlib.org/) -->
<svg height="325.385437pt" version="1.1" viewBox="0 0 425.730937 325.385437" width="425.730937pt" xmlns="http://www.w3.org/2000/svg" xmlns:xlink="http://www.w3.org/1999/xlink">
 <defs>
  <style type="text/css">*{stroke-linecap:butt;stroke-linejoin:round;}</style>
 </defs>
 <g id="figure_1">
  <g id="patch_1">
   <path d="M 0 325.385437 
L 425.730937 325.385437 
L 425.730937 0 
L 0 0 
z
" style="fill:none;"/>
  </g>
  <g id="axes_1">
   <g id="patch_2">
    <path d="M 61.410938 273.312 
L 418.530938 273.312 
L 418.530938 7.2 
L 61.410938 7.2 
z
" style="fill:none;"/>
   </g>
   <g id="matplotlib.axis_1">
    <g id="xtick_1">
     <g id="line2d_1">
      <path clip-path="url(#pee92595c7c)" d="M 119.7014 273.312 
L 119.7014 7.2 
" style="fill:none;stroke:#b0b0b0;stroke-linecap:square;stroke-width:0.8;"/>
     </g>
     <g id="line2d_2">
      <defs>
       <path d="M 0 0 
L 0 3.5 
" id="m005f0a59be" style="stroke:#000000;stroke-width:0.8;"/>
      </defs>
      <g>
       <use style="stroke:#000000;stroke-width:0.8;" x="119.7014" xlink:href="#m005f0a59be" y="273.312"/>
      </g>
     </g>
     <g id="text_1">
      <!-- −10 -->
      <g transform="translate(103.872884 291.709656)scale(0.15 -0.15)">
       <defs>
        <path d="M 10.59375 35.5 
L 73.1875 35.5 
L 73.1875 27.203125 
L 10.59375 27.203125 
z
" id="DejaVuSans-8722"/>
        <path d="M 12.40625 8.296875 
L 28.515625 8.296875 
L 28.515625 63.921875 
L 10.984375 60.40625 
L 10.984375 69.390625 
L 28.421875 72.90625 
L 38.28125 72.90625 
L 38.28125 8.296875 
L 54.390625 8.296875 
L 54.390625 0 
L 12.40625 0 
z
" id="DejaVuSans-49"/>
        <path d="M 31.78125 66.40625 
Q 24.171875 66.40625 20.328125 58.90625 
Q 16.5 51.421875 16.5 36.375 
Q 16.5 21.390625 20.328125 13.890625 
Q 24.171875 6.390625 31.78125 6.390625 
Q 39.453125 6.390625 43.28125 13.890625 
Q 47.125 21.390625 47.125 36.375 
Q 47.125 51.421875 43.28125 58.90625 
Q 39.453125 66.40625 31.78125 66.40625 
z
M 31.78125 74.21875 
Q 44.046875 74.21875 50.515625 64.515625 
Q 56.984375 54.828125 56.984375 36.375 
Q 56.984375 17.96875 50.515625 8.265625 
Q 44.046875 -1.421875 31.78125 -1.421875 
Q 19.53125 -1.421875 13.0625 8.265625 
Q 6.59375 17.96875 6.59375 36.375 
Q 6.59375 54.828125 13.0625 64.515625 
Q 19.53125 74.21875 31.78125 74.21875 
z
" id="DejaVuSans-48"/>
       </defs>
       <use xlink:href="#DejaVuSans-8722"/>
       <use x="83.789062" xlink:href="#DejaVuSans-49"/>
       <use x="147.412109" xlink:href="#DejaVuSans-48"/>
      </g>
     </g>
    </g>
    <g id="xtick_2">
     <g id="line2d_3">
      <path clip-path="url(#pee92595c7c)" d="M 187.337764 273.312 
L 187.337764 7.2 
" style="fill:none;stroke:#b0b0b0;stroke-linecap:square;stroke-width:0.8;"/>
     </g>
     <g id="line2d_4">
      <g>
       <use style="stroke:#000000;stroke-width:0.8;" x="187.337764" xlink:href="#m005f0a59be" y="273.312"/>
      </g>
     </g>
     <g id="text_2">
      <!-- −5 -->
      <g transform="translate(176.281123 291.709656)scale(0.15 -0.15)">
       <defs>
        <path d="M 10.796875 72.90625 
L 49.515625 72.90625 
L 49.515625 64.59375 
L 19.828125 64.59375 
L 19.828125 46.734375 
Q 21.96875 47.46875 24.109375 47.828125 
Q 26.265625 48.1875 28.421875 48.1875 
Q 40.625 48.1875 47.75 41.5 
Q 54.890625 34.8125 54.890625 23.390625 
Q 54.890625 11.625 47.5625 5.09375 
Q 40.234375 -1.421875 26.90625 -1.421875 
Q 22.3125 -1.421875 17.546875 -0.640625 
Q 12.796875 0.140625 7.71875 1.703125 
L 7.71875 11.625 
Q 12.109375 9.234375 16.796875 8.0625 
Q 21.484375 6.890625 26.703125 6.890625 
Q 35.15625 6.890625 40.078125 11.328125 
Q 45.015625 15.765625 45.015625 23.390625 
Q 45.015625 31 40.078125 35.4375 
Q 35.15625 39.890625 26.703125 39.890625 
Q 22.75 39.890625 18.8125 39.015625 
Q 14.890625 38.140625 10.796875 36.28125 
z
" id="DejaVuSans-53"/>
       </defs>
       <use xlink:href="#DejaVuSans-8722"/>
       <use x="83.789062" xlink:href="#DejaVuSans-53"/>
      </g>
     </g>
    </g>
    <g id="xtick_3">
     <g id="line2d_5">
      <path clip-path="url(#pee92595c7c)" d="M 254.974127 273.312 
L 254.974127 7.2 
" style="fill:none;stroke:#b0b0b0;stroke-linecap:square;stroke-width:0.8;"/>
     </g>
     <g id="line2d_6">
      <g>
       <use style="stroke:#000000;stroke-width:0.8;" x="254.974127" xlink:href="#m005f0a59be" y="273.312"/>
      </g>
     </g>
     <g id="text_3">
      <!-- 0 -->
      <g transform="translate(250.202252 291.709656)scale(0.15 -0.15)">
       <use xlink:href="#DejaVuSans-48"/>
      </g>
     </g>
    </g>
    <g id="xtick_4">
     <g id="line2d_7">
      <path clip-path="url(#pee92595c7c)" d="M 322.610491 273.312 
L 322.610491 7.2 
" style="fill:none;stroke:#b0b0b0;stroke-linecap:square;stroke-width:0.8;"/>
     </g>
     <g id="line2d_8">
      <g>
       <use style="stroke:#000000;stroke-width:0.8;" x="322.610491" xlink:href="#m005f0a59be" y="273.312"/>
      </g>
     </g>
     <g id="text_4">
      <!-- 5 -->
      <g transform="translate(317.838616 291.709656)scale(0.15 -0.15)">
       <use xlink:href="#DejaVuSans-53"/>
      </g>
     </g>
    </g>
    <g id="xtick_5">
     <g id="line2d_9">
      <path clip-path="url(#pee92595c7c)" d="M 390.246855 273.312 
L 390.246855 7.2 
" style="fill:none;stroke:#b0b0b0;stroke-linecap:square;stroke-width:0.8;"/>
     </g>
     <g id="line2d_10">
      <g>
       <use style="stroke:#000000;stroke-width:0.8;" x="390.246855" xlink:href="#m005f0a59be" y="273.312"/>
      </g>
     </g>
     <g id="text_5">
      <!-- 10 -->
      <g transform="translate(380.703105 291.709656)scale(0.15 -0.15)">
       <use xlink:href="#DejaVuSans-49"/>
       <use x="63.623047" xlink:href="#DejaVuSans-48"/>
      </g>
     </g>
    </g>
    <g id="text_6">
     <!-- Detuning from resonance (kHz) -->
     <g transform="translate(83.074063 314.026062)scale(0.2 -0.2)">
      <defs>
       <path d="M 19.671875 64.796875 
L 19.671875 8.109375 
L 31.59375 8.109375 
Q 46.6875 8.109375 53.6875 14.9375 
Q 60.6875 21.78125 60.6875 36.53125 
Q 60.6875 51.171875 53.6875 57.984375 
Q 46.6875 64.796875 31.59375 64.796875 
z
M 9.8125 72.90625 
L 30.078125 72.90625 
Q 51.265625 72.90625 61.171875 64.09375 
Q 71.09375 55.28125 71.09375 36.53125 
Q 71.09375 17.671875 61.125 8.828125 
Q 51.171875 0 30.078125 0 
L 9.8125 0 
z
" id="DejaVuSans-68"/>
       <path d="M 56.203125 29.59375 
L 56.203125 25.203125 
L 14.890625 25.203125 
Q 15.484375 15.921875 20.484375 11.0625 
Q 25.484375 6.203125 34.421875 6.203125 
Q 39.59375 6.203125 44.453125 7.46875 
Q 49.3125 8.734375 54.109375 11.28125 
L 54.109375 2.78125 
Q 49.265625 0.734375 44.1875 -0.34375 
Q 39.109375 -1.421875 33.890625 -1.421875 
Q 20.796875 -1.421875 13.15625 6.1875 
Q 5.515625 13.8125 5.515625 26.8125 
Q 5.515625 40.234375 12.765625 48.109375 
Q 20.015625 56 32.328125 56 
Q 43.359375 56 49.78125 48.890625 
Q 56.203125 41.796875 56.203125 29.59375 
z
M 47.21875 32.234375 
Q 47.125 39.59375 43.09375 43.984375 
Q 39.0625 48.390625 32.421875 48.390625 
Q 24.90625 48.390625 20.390625 44.140625 
Q 15.875 39.890625 15.1875 32.171875 
z
" id="DejaVuSans-101"/>
       <path d="M 18.3125 70.21875 
L 18.3125 54.6875 
L 36.8125 54.6875 
L 36.8125 47.703125 
L 18.3125 47.703125 
L 18.3125 18.015625 
Q 18.3125 11.328125 20.140625 9.421875 
Q 21.96875 7.515625 27.59375 7.515625 
L 36.8125 7.515625 
L 36.8125 0 
L 27.59375 0 
Q 17.1875 0 13.234375 3.875 
Q 9.28125 7.765625 9.28125 18.015625 
L 9.28125 47.703125 
L 2.6875 47.703125 
L 2.6875 54.6875 
L 9.28125 54.6875 
L 9.28125 70.21875 
z
" id="DejaVuSans-116"/>
       <path d="M 8.5 21.578125 
L 8.5 54.6875 
L 17.484375 54.6875 
L 17.484375 21.921875 
Q 17.484375 14.15625 20.5 10.265625 
Q 23.53125 6.390625 29.59375 6.390625 
Q 36.859375 6.390625 41.078125 11.03125 
Q 45.3125 15.671875 45.3125 23.6875 
L 45.3125 54.6875 
L 54.296875 54.6875 
L 54.296875 0 
L 45.3125 0 
L 45.3125 8.40625 
Q 42.046875 3.421875 37.71875 1 
Q 33.40625 -1.421875 27.6875 -1.421875 
Q 18.265625 -1.421875 13.375 4.4375 
Q 8.5 10.296875 8.5 21.578125 
z
M 31.109375 56 
z
" id="DejaVuSans-117"/>
       <path d="M 54.890625 33.015625 
L 54.890625 0 
L 45.90625 0 
L 45.90625 32.71875 
Q 45.90625 40.484375 42.875 44.328125 
Q 39.84375 48.1875 33.796875 48.1875 
Q 26.515625 48.1875 22.3125 43.546875 
Q 18.109375 38.921875 18.109375 30.90625 
L 18.109375 0 
L 9.078125 0 
L 9.078125 54.6875 
L 18.109375 54.6875 
L 18.109375 46.1875 
Q 21.34375 51.125 25.703125 53.5625 
Q 30.078125 56 35.796875 56 
Q 45.21875 56 50.046875 50.171875 
Q 54.890625 44.34375 54.890625 33.015625 
z
" id="DejaVuSans-110"/>
       <path d="M 9.421875 54.6875 
L 18.40625 54.6875 
L 18.40625 0 
L 9.421875 0 
z
M 9.421875 75.984375 
L 18.40625 75.984375 
L 18.40625 64.59375 
L 9.421875 64.59375 
z
" id="DejaVuSans-105"/>
       <path d="M 45.40625 27.984375 
Q 45.40625 37.75 41.375 43.109375 
Q 37.359375 48.484375 30.078125 48.484375 
Q 22.859375 48.484375 18.828125 43.109375 
Q 14.796875 37.75 14.796875 27.984375 
Q 14.796875 18.265625 18.828125 12.890625 
Q 22.859375 7.515625 30.078125 7.515625 
Q 37.359375 7.515625 41.375 12.890625 
Q 45.40625 18.265625 45.40625 27.984375 
z
M 54.390625 6.78125 
Q 54.390625 -7.171875 48.1875 -13.984375 
Q 42 -20.796875 29.203125 -20.796875 
Q 24.46875 -20.796875 20.265625 -20.09375 
Q 16.0625 -19.390625 12.109375 -17.921875 
L 12.109375 -9.1875 
Q 16.0625 -11.328125 19.921875 -12.34375 
Q 23.78125 -13.375 27.78125 -13.375 
Q 36.625 -13.375 41.015625 -8.765625 
Q 45.40625 -4.15625 45.40625 5.171875 
L 45.40625 9.625 
Q 42.625 4.78125 38.28125 2.390625 
Q 33.9375 0 27.875 0 
Q 17.828125 0 11.671875 7.65625 
Q 5.515625 15.328125 5.515625 27.984375 
Q 5.515625 40.671875 11.671875 48.328125 
Q 17.828125 56 27.875 56 
Q 33.9375 56 38.28125 53.609375 
Q 42.625 51.21875 45.40625 46.390625 
L 45.40625 54.6875 
L 54.390625 54.6875 
z
" id="DejaVuSans-103"/>
       <path id="DejaVuSans-32"/>
       <path d="M 37.109375 75.984375 
L 37.109375 68.5 
L 28.515625 68.5 
Q 23.6875 68.5 21.796875 66.546875 
Q 19.921875 64.59375 19.921875 59.515625 
L 19.921875 54.6875 
L 34.71875 54.6875 
L 34.71875 47.703125 
L 19.921875 47.703125 
L 19.921875 0 
L 10.890625 0 
L 10.890625 47.703125 
L 2.296875 47.703125 
L 2.296875 54.6875 
L 10.890625 54.6875 
L 10.890625 58.5 
Q 10.890625 67.625 15.140625 71.796875 
Q 19.390625 75.984375 28.609375 75.984375 
z
" id="DejaVuSans-102"/>
       <path d="M 41.109375 46.296875 
Q 39.59375 47.171875 37.8125 47.578125 
Q 36.03125 48 33.890625 48 
Q 26.265625 48 22.1875 43.046875 
Q 18.109375 38.09375 18.109375 28.8125 
L 18.109375 0 
L 9.078125 0 
L 9.078125 54.6875 
L 18.109375 54.6875 
L 18.109375 46.1875 
Q 20.953125 51.171875 25.484375 53.578125 
Q 30.03125 56 36.53125 56 
Q 37.453125 56 38.578125 55.875 
Q 39.703125 55.765625 41.0625 55.515625 
z
" id="DejaVuSans-114"/>
       <path d="M 30.609375 48.390625 
Q 23.390625 48.390625 19.1875 42.75 
Q 14.984375 37.109375 14.984375 27.296875 
Q 14.984375 17.484375 19.15625 11.84375 
Q 23.34375 6.203125 30.609375 6.203125 
Q 37.796875 6.203125 41.984375 11.859375 
Q 46.1875 17.53125 46.1875 27.296875 
Q 46.1875 37.015625 41.984375 42.703125 
Q 37.796875 48.390625 30.609375 48.390625 
z
M 30.609375 56 
Q 42.328125 56 49.015625 48.375 
Q 55.71875 40.765625 55.71875 27.296875 
Q 55.71875 13.875 49.015625 6.21875 
Q 42.328125 -1.421875 30.609375 -1.421875 
Q 18.84375 -1.421875 12.171875 6.21875 
Q 5.515625 13.875 5.515625 27.296875 
Q 5.515625 40.765625 12.171875 48.375 
Q 18.84375 56 30.609375 56 
z
" id="DejaVuSans-111"/>
       <path d="M 52 44.1875 
Q 55.375 50.25 60.0625 53.125 
Q 64.75 56 71.09375 56 
Q 79.640625 56 84.28125 50.015625 
Q 88.921875 44.046875 88.921875 33.015625 
L 88.921875 0 
L 79.890625 0 
L 79.890625 32.71875 
Q 79.890625 40.578125 77.09375 44.375 
Q 74.3125 48.1875 68.609375 48.1875 
Q 61.625 48.1875 57.5625 43.546875 
Q 53.515625 38.921875 53.515625 30.90625 
L 53.515625 0 
L 44.484375 0 
L 44.484375 32.71875 
Q 44.484375 40.625 41.703125 44.40625 
Q 38.921875 48.1875 33.109375 48.1875 
Q 26.21875 48.1875 22.15625 43.53125 
Q 18.109375 38.875 18.109375 30.90625 
L 18.109375 0 
L 9.078125 0 
L 9.078125 54.6875 
L 18.109375 54.6875 
L 18.109375 46.1875 
Q 21.1875 51.21875 25.484375 53.609375 
Q 29.78125 56 35.6875 56 
Q 41.65625 56 45.828125 52.96875 
Q 50 49.953125 52 44.1875 
z
" id="DejaVuSans-109"/>
       <path d="M 44.28125 53.078125 
L 44.28125 44.578125 
Q 40.484375 46.53125 36.375 47.5 
Q 32.28125 48.484375 27.875 48.484375 
Q 21.1875 48.484375 17.84375 46.4375 
Q 14.5 44.390625 14.5 40.28125 
Q 14.5 37.15625 16.890625 35.375 
Q 19.28125 33.59375 26.515625 31.984375 
L 29.59375 31.296875 
Q 39.15625 29.25 43.1875 25.515625 
Q 47.21875 21.78125 47.21875 15.09375 
Q 47.21875 7.46875 41.1875 3.015625 
Q 35.15625 -1.421875 24.609375 -1.421875 
Q 20.21875 -1.421875 15.453125 -0.5625 
Q 10.6875 0.296875 5.421875 2 
L 5.421875 11.28125 
Q 10.40625 8.6875 15.234375 7.390625 
Q 20.0625 6.109375 24.8125 6.109375 
Q 31.15625 6.109375 34.5625 8.28125 
Q 37.984375 10.453125 37.984375 14.40625 
Q 37.984375 18.0625 35.515625 20.015625 
Q 33.0625 21.96875 24.703125 23.78125 
L 21.578125 24.515625 
Q 13.234375 26.265625 9.515625 29.90625 
Q 5.8125 33.546875 5.8125 39.890625 
Q 5.8125 47.609375 11.28125 51.796875 
Q 16.75 56 26.8125 56 
Q 31.78125 56 36.171875 55.265625 
Q 40.578125 54.546875 44.28125 53.078125 
z
" id="DejaVuSans-115"/>
       <path d="M 34.28125 27.484375 
Q 23.390625 27.484375 19.1875 25 
Q 14.984375 22.515625 14.984375 16.5 
Q 14.984375 11.71875 18.140625 8.90625 
Q 21.296875 6.109375 26.703125 6.109375 
Q 34.1875 6.109375 38.703125 11.40625 
Q 43.21875 16.703125 43.21875 25.484375 
L 43.21875 27.484375 
z
M 52.203125 31.203125 
L 52.203125 0 
L 43.21875 0 
L 43.21875 8.296875 
Q 40.140625 3.328125 35.546875 0.953125 
Q 30.953125 -1.421875 24.3125 -1.421875 
Q 15.921875 -1.421875 10.953125 3.296875 
Q 6 8.015625 6 15.921875 
Q 6 25.140625 12.171875 29.828125 
Q 18.359375 34.515625 30.609375 34.515625 
L 43.21875 34.515625 
L 43.21875 35.40625 
Q 43.21875 41.609375 39.140625 45 
Q 35.0625 48.390625 27.6875 48.390625 
Q 23 48.390625 18.546875 47.265625 
Q 14.109375 46.140625 10.015625 43.890625 
L 10.015625 52.203125 
Q 14.9375 54.109375 19.578125 55.046875 
Q 24.21875 56 28.609375 56 
Q 40.484375 56 46.34375 49.84375 
Q 52.203125 43.703125 52.203125 31.203125 
z
" id="DejaVuSans-97"/>
       <path d="M 48.78125 52.59375 
L 48.78125 44.1875 
Q 44.96875 46.296875 41.140625 47.34375 
Q 37.3125 48.390625 33.40625 48.390625 
Q 24.65625 48.390625 19.8125 42.84375 
Q 14.984375 37.3125 14.984375 27.296875 
Q 14.984375 17.28125 19.8125 11.734375 
Q 24.65625 6.203125 33.40625 6.203125 
Q 37.3125 6.203125 41.140625 7.25 
Q 44.96875 8.296875 48.78125 10.40625 
L 48.78125 2.09375 
Q 45.015625 0.34375 40.984375 -0.53125 
Q 36.96875 -1.421875 32.421875 -1.421875 
Q 20.0625 -1.421875 12.78125 6.34375 
Q 5.515625 14.109375 5.515625 27.296875 
Q 5.515625 40.671875 12.859375 48.328125 
Q 20.21875 56 33.015625 56 
Q 37.15625 56 41.109375 55.140625 
Q 45.0625 54.296875 48.78125 52.59375 
z
" id="DejaVuSans-99"/>
       <path d="M 31 75.875 
Q 24.46875 64.65625 21.28125 53.65625 
Q 18.109375 42.671875 18.109375 31.390625 
Q 18.109375 20.125 21.3125 9.0625 
Q 24.515625 -2 31 -13.1875 
L 23.1875 -13.1875 
Q 15.875 -1.703125 12.234375 9.375 
Q 8.59375 20.453125 8.59375 31.390625 
Q 8.59375 42.28125 12.203125 53.3125 
Q 15.828125 64.359375 23.1875 75.875 
z
" id="DejaVuSans-40"/>
       <path d="M 9.078125 75.984375 
L 18.109375 75.984375 
L 18.109375 31.109375 
L 44.921875 54.6875 
L 56.390625 54.6875 
L 27.390625 29.109375 
L 57.625 0 
L 45.90625 0 
L 18.109375 26.703125 
L 18.109375 0 
L 9.078125 0 
z
" id="DejaVuSans-107"/>
       <path d="M 9.8125 72.90625 
L 19.671875 72.90625 
L 19.671875 43.015625 
L 55.515625 43.015625 
L 55.515625 72.90625 
L 65.375 72.90625 
L 65.375 0 
L 55.515625 0 
L 55.515625 34.71875 
L 19.671875 34.71875 
L 19.671875 0 
L 9.8125 0 
z
" id="DejaVuSans-72"/>
       <path d="M 5.515625 54.6875 
L 48.1875 54.6875 
L 48.1875 46.484375 
L 14.40625 7.171875 
L 48.1875 7.171875 
L 48.1875 0 
L 4.296875 0 
L 4.296875 8.203125 
L 38.09375 47.515625 
L 5.515625 47.515625 
z
" id="DejaVuSans-122"/>
       <path d="M 8.015625 75.875 
L 15.828125 75.875 
Q 23.140625 64.359375 26.78125 53.3125 
Q 30.421875 42.28125 30.421875 31.390625 
Q 30.421875 20.453125 26.78125 9.375 
Q 23.140625 -1.703125 15.828125 -13.1875 
L 8.015625 -13.1875 
Q 14.5 -2 17.703125 9.0625 
Q 20.90625 20.125 20.90625 31.390625 
Q 20.90625 42.671875 17.703125 53.65625 
Q 14.5 64.65625 8.015625 75.875 
z
" id="DejaVuSans-41"/>
      </defs>
      <use xlink:href="#DejaVuSans-68"/>
      <use x="77.001953" xlink:href="#DejaVuSans-101"/>
      <use x="138.525391" xlink:href="#DejaVuSans-116"/>
      <use x="177.734375" xlink:href="#DejaVuSans-117"/>
      <use x="241.113281" xlink:href="#DejaVuSans-110"/>
      <use x="304.492188" xlink:href="#DejaVuSans-105"/>
      <use x="332.275391" xlink:href="#DejaVuSans-110"/>
      <use x="395.654297" xlink:href="#DejaVuSans-103"/>
      <use x="459.130859" xlink:href="#DejaVuSans-32"/>
      <use x="490.917969" xlink:href="#DejaVuSans-102"/>
      <use x="526.123047" xlink:href="#DejaVuSans-114"/>
      <use x="564.986328" xlink:href="#DejaVuSans-111"/>
      <use x="626.167969" xlink:href="#DejaVuSans-109"/>
      <use x="723.580078" xlink:href="#DejaVuSans-32"/>
      <use x="755.367188" xlink:href="#DejaVuSans-114"/>
      <use x="794.230469" xlink:href="#DejaVuSans-101"/>
      <use x="855.753906" xlink:href="#DejaVuSans-115"/>
      <use x="907.853516" xlink:href="#DejaVuSans-111"/>
      <use x="969.035156" xlink:href="#DejaVuSans-110"/>
      <use x="1032.414062" xlink:href="#DejaVuSans-97"/>
      <use x="1093.693359" xlink:href="#DejaVuSans-110"/>
      <use x="1157.072266" xlink:href="#DejaVuSans-99"/>
      <use x="1212.052734" xlink:href="#DejaVuSans-101"/>
      <use x="1273.576172" xlink:href="#DejaVuSans-32"/>
      <use x="1305.363281" xlink:href="#DejaVuSans-40"/>
      <use x="1344.376953" xlink:href="#DejaVuSans-107"/>
      <use x="1402.287109" xlink:href="#DejaVuSans-72"/>
      <use x="1477.482422" xlink:href="#DejaVuSans-122"/>
      <use x="1529.972656" xlink:href="#DejaVuSans-41"/>
     </g>
    </g>
   </g>
   <g id="matplotlib.axis_2">
    <g id="ytick_1">
     <g id="line2d_11">
      <path clip-path="url(#pee92595c7c)" d="M 61.410938 236.99072 
L 418.530938 236.99072 
" style="fill:none;stroke:#b0b0b0;stroke-linecap:square;stroke-width:0.8;"/>
     </g>
     <g id="line2d_12">
      <defs>
       <path d="M 0 0 
L -3.5 0 
" id="mc3ce260a5b" style="stroke:#000000;stroke-width:0.8;"/>
      </defs>
      <g>
       <use style="stroke:#000000;stroke-width:0.8;" x="61.410938" xlink:href="#mc3ce260a5b" y="236.99072"/>
      </g>
     </g>
     <g id="text_7">
      <!-- 0.2 -->
      <g transform="translate(30.55625 242.689548)scale(0.15 -0.15)">
       <defs>
        <path d="M 10.6875 12.40625 
L 21 12.40625 
L 21 0 
L 10.6875 0 
z
" id="DejaVuSans-46"/>
        <path d="M 19.1875 8.296875 
L 53.609375 8.296875 
L 53.609375 0 
L 7.328125 0 
L 7.328125 8.296875 
Q 12.9375 14.109375 22.625 23.890625 
Q 32.328125 33.6875 34.8125 36.53125 
Q 39.546875 41.84375 41.421875 45.53125 
Q 43.3125 49.21875 43.3125 52.78125 
Q 43.3125 58.59375 39.234375 62.25 
Q 35.15625 65.921875 28.609375 65.921875 
Q 23.96875 65.921875 18.8125 64.3125 
Q 13.671875 62.703125 7.8125 59.421875 
L 7.8125 69.390625 
Q 13.765625 71.78125 18.9375 73 
Q 24.125 74.21875 28.421875 74.21875 
Q 39.75 74.21875 46.484375 68.546875 
Q 53.21875 62.890625 53.21875 53.421875 
Q 53.21875 48.921875 51.53125 44.890625 
Q 49.859375 40.875 45.40625 35.40625 
Q 44.1875 33.984375 37.640625 27.21875 
Q 31.109375 20.453125 19.1875 8.296875 
z
" id="DejaVuSans-50"/>
       </defs>
       <use xlink:href="#DejaVuSans-48"/>
       <use x="63.623047" xlink:href="#DejaVuSans-46"/>
       <use x="95.410156" xlink:href="#DejaVuSans-50"/>
      </g>
     </g>
    </g>
    <g id="ytick_2">
     <g id="line2d_13">
      <path clip-path="url(#pee92595c7c)" d="M 61.410938 185.641564 
L 418.530938 185.641564 
" style="fill:none;stroke:#b0b0b0;stroke-linecap:square;stroke-width:0.8;"/>
     </g>
     <g id="line2d_14">
      <g>
       <use style="stroke:#000000;stroke-width:0.8;" x="61.410938" xlink:href="#mc3ce260a5b" y="185.641564"/>
      </g>
     </g>
     <g id="text_8">
      <!-- 0.4 -->
      <g transform="translate(30.55625 191.340393)scale(0.15 -0.15)">
       <defs>
        <path d="M 37.796875 64.3125 
L 12.890625 25.390625 
L 37.796875 25.390625 
z
M 35.203125 72.90625 
L 47.609375 72.90625 
L 47.609375 25.390625 
L 58.015625 25.390625 
L 58.015625 17.1875 
L 47.609375 17.1875 
L 47.609375 0 
L 37.796875 0 
L 37.796875 17.1875 
L 4.890625 17.1875 
L 4.890625 26.703125 
z
" id="DejaVuSans-52"/>
       </defs>
       <use xlink:href="#DejaVuSans-48"/>
       <use x="63.623047" xlink:href="#DejaVuSans-46"/>
       <use x="95.410156" xlink:href="#DejaVuSans-52"/>
      </g>
     </g>
    </g>
    <g id="ytick_3">
     <g id="line2d_15">
      <path clip-path="url(#pee92595c7c)" d="M 61.410938 134.292409 
L 418.530938 134.292409 
" style="fill:none;stroke:#b0b0b0;stroke-linecap:square;stroke-width:0.8;"/>
     </g>
     <g id="line2d_16">
      <g>
       <use style="stroke:#000000;stroke-width:0.8;" x="61.410938" xlink:href="#mc3ce260a5b" y="134.292409"/>
      </g>
     </g>
     <g id="text_9">
      <!-- 0.6 -->
      <g transform="translate(30.55625 139.991237)scale(0.15 -0.15)">
       <defs>
        <path d="M 33.015625 40.375 
Q 26.375 40.375 22.484375 35.828125 
Q 18.609375 31.296875 18.609375 23.390625 
Q 18.609375 15.53125 22.484375 10.953125 
Q 26.375 6.390625 33.015625 6.390625 
Q 39.65625 6.390625 43.53125 10.953125 
Q 47.40625 15.53125 47.40625 23.390625 
Q 47.40625 31.296875 43.53125 35.828125 
Q 39.65625 40.375 33.015625 40.375 
z
M 52.59375 71.296875 
L 52.59375 62.3125 
Q 48.875 64.0625 45.09375 64.984375 
Q 41.3125 65.921875 37.59375 65.921875 
Q 27.828125 65.921875 22.671875 59.328125 
Q 17.53125 52.734375 16.796875 39.40625 
Q 19.671875 43.65625 24.015625 45.921875 
Q 28.375 48.1875 33.59375 48.1875 
Q 44.578125 48.1875 50.953125 41.515625 
Q 57.328125 34.859375 57.328125 23.390625 
Q 57.328125 12.15625 50.6875 5.359375 
Q 44.046875 -1.421875 33.015625 -1.421875 
Q 20.359375 -1.421875 13.671875 8.265625 
Q 6.984375 17.96875 6.984375 36.375 
Q 6.984375 53.65625 15.1875 63.9375 
Q 23.390625 74.21875 37.203125 74.21875 
Q 40.921875 74.21875 44.703125 73.484375 
Q 48.484375 72.75 52.59375 71.296875 
z
" id="DejaVuSans-54"/>
       </defs>
       <use xlink:href="#DejaVuSans-48"/>
       <use x="63.623047" xlink:href="#DejaVuSans-46"/>
       <use x="95.410156" xlink:href="#DejaVuSans-54"/>
      </g>
     </g>
    </g>
    <g id="ytick_4">
     <g id="line2d_17">
      <path clip-path="url(#pee92595c7c)" d="M 61.410938 82.943253 
L 418.530938 82.943253 
" style="fill:none;stroke:#b0b0b0;stroke-linecap:square;stroke-width:0.8;"/>
     </g>
     <g id="line2d_18">
      <g>
       <use style="stroke:#000000;stroke-width:0.8;" x="61.410938" xlink:href="#mc3ce260a5b" y="82.943253"/>
      </g>
     </g>
     <g id="text_10">
      <!-- 0.8 -->
      <g transform="translate(30.55625 88.642081)scale(0.15 -0.15)">
       <defs>
        <path d="M 31.78125 34.625 
Q 24.75 34.625 20.71875 30.859375 
Q 16.703125 27.09375 16.703125 20.515625 
Q 16.703125 13.921875 20.71875 10.15625 
Q 24.75 6.390625 31.78125 6.390625 
Q 38.8125 6.390625 42.859375 10.171875 
Q 46.921875 13.96875 46.921875 20.515625 
Q 46.921875 27.09375 42.890625 30.859375 
Q 38.875 34.625 31.78125 34.625 
z
M 21.921875 38.8125 
Q 15.578125 40.375 12.03125 44.71875 
Q 8.5 49.078125 8.5 55.328125 
Q 8.5 64.0625 14.71875 69.140625 
Q 20.953125 74.21875 31.78125 74.21875 
Q 42.671875 74.21875 48.875 69.140625 
Q 55.078125 64.0625 55.078125 55.328125 
Q 55.078125 49.078125 51.53125 44.71875 
Q 48 40.375 41.703125 38.8125 
Q 48.828125 37.15625 52.796875 32.3125 
Q 56.78125 27.484375 56.78125 20.515625 
Q 56.78125 9.90625 50.3125 4.234375 
Q 43.84375 -1.421875 31.78125 -1.421875 
Q 19.734375 -1.421875 13.25 4.234375 
Q 6.78125 9.90625 6.78125 20.515625 
Q 6.78125 27.484375 10.78125 32.3125 
Q 14.796875 37.15625 21.921875 38.8125 
z
M 18.3125 54.390625 
Q 18.3125 48.734375 21.84375 45.5625 
Q 25.390625 42.390625 31.78125 42.390625 
Q 38.140625 42.390625 41.71875 45.5625 
Q 45.3125 48.734375 45.3125 54.390625 
Q 45.3125 60.0625 41.71875 63.234375 
Q 38.140625 66.40625 31.78125 66.40625 
Q 25.390625 66.40625 21.84375 63.234375 
Q 18.3125 60.0625 18.3125 54.390625 
z
" id="DejaVuSans-56"/>
       </defs>
       <use xlink:href="#DejaVuSans-48"/>
       <use x="63.623047" xlink:href="#DejaVuSans-46"/>
       <use x="95.410156" xlink:href="#DejaVuSans-56"/>
      </g>
     </g>
    </g>
    <g id="ytick_5">
     <g id="line2d_19">
      <path clip-path="url(#pee92595c7c)" d="M 61.410938 31.594097 
L 418.530938 31.594097 
" style="fill:none;stroke:#b0b0b0;stroke-linecap:square;stroke-width:0.8;"/>
     </g>
     <g id="line2d_20">
      <g>
       <use style="stroke:#000000;stroke-width:0.8;" x="61.410938" xlink:href="#mc3ce260a5b" y="31.594097"/>
      </g>
     </g>
     <g id="text_11">
      <!-- 1.0 -->
      <g transform="translate(30.55625 37.292925)scale(0.15 -0.15)">
       <use xlink:href="#DejaVuSans-49"/>
       <use x="63.623047" xlink:href="#DejaVuSans-46"/>
       <use x="95.410156" xlink:href="#DejaVuSans-48"/>
      </g>
     </g>
    </g>
    <g id="text_12">
     <!-- % Atomic Ground State -->
     <g transform="translate(22.396875 257.260687)rotate(-90)scale(0.2 -0.2)">
      <defs>
       <path d="M 72.703125 32.078125 
Q 68.453125 32.078125 66.03125 28.46875 
Q 63.625 24.859375 63.625 18.40625 
Q 63.625 12.0625 66.03125 8.421875 
Q 68.453125 4.78125 72.703125 4.78125 
Q 76.859375 4.78125 79.265625 8.421875 
Q 81.6875 12.0625 81.6875 18.40625 
Q 81.6875 24.8125 79.265625 28.4375 
Q 76.859375 32.078125 72.703125 32.078125 
z
M 72.703125 38.28125 
Q 80.421875 38.28125 84.953125 32.90625 
Q 89.5 27.546875 89.5 18.40625 
Q 89.5 9.28125 84.9375 3.921875 
Q 80.375 -1.421875 72.703125 -1.421875 
Q 64.890625 -1.421875 60.34375 3.921875 
Q 55.8125 9.28125 55.8125 18.40625 
Q 55.8125 27.59375 60.375 32.9375 
Q 64.9375 38.28125 72.703125 38.28125 
z
M 22.3125 68.015625 
Q 18.109375 68.015625 15.6875 64.375 
Q 13.28125 60.75 13.28125 54.390625 
Q 13.28125 47.953125 15.671875 44.328125 
Q 18.0625 40.71875 22.3125 40.71875 
Q 26.5625 40.71875 28.96875 44.328125 
Q 31.390625 47.953125 31.390625 54.390625 
Q 31.390625 60.6875 28.953125 64.34375 
Q 26.515625 68.015625 22.3125 68.015625 
z
M 66.40625 74.21875 
L 74.21875 74.21875 
L 28.609375 -1.421875 
L 20.796875 -1.421875 
z
M 22.3125 74.21875 
Q 30.03125 74.21875 34.609375 68.875 
Q 39.203125 63.53125 39.203125 54.390625 
Q 39.203125 45.171875 34.640625 39.84375 
Q 30.078125 34.515625 22.3125 34.515625 
Q 14.546875 34.515625 10.03125 39.859375 
Q 5.515625 45.21875 5.515625 54.390625 
Q 5.515625 63.484375 10.046875 68.84375 
Q 14.59375 74.21875 22.3125 74.21875 
z
" id="DejaVuSans-37"/>
       <path d="M 34.1875 63.1875 
L 20.796875 26.90625 
L 47.609375 26.90625 
z
M 28.609375 72.90625 
L 39.796875 72.90625 
L 67.578125 0 
L 57.328125 0 
L 50.6875 18.703125 
L 17.828125 18.703125 
L 11.1875 0 
L 0.78125 0 
z
" id="DejaVuSans-65"/>
       <path d="M 59.515625 10.40625 
L 59.515625 29.984375 
L 43.40625 29.984375 
L 43.40625 38.09375 
L 69.28125 38.09375 
L 69.28125 6.78125 
Q 63.578125 2.734375 56.6875 0.65625 
Q 49.8125 -1.421875 42 -1.421875 
Q 24.90625 -1.421875 15.25 8.5625 
Q 5.609375 18.5625 5.609375 36.375 
Q 5.609375 54.25 15.25 64.234375 
Q 24.90625 74.21875 42 74.21875 
Q 49.125 74.21875 55.546875 72.453125 
Q 61.96875 70.703125 67.390625 67.28125 
L 67.390625 56.78125 
Q 61.921875 61.421875 55.765625 63.765625 
Q 49.609375 66.109375 42.828125 66.109375 
Q 29.4375 66.109375 22.71875 58.640625 
Q 16.015625 51.171875 16.015625 36.375 
Q 16.015625 21.625 22.71875 14.15625 
Q 29.4375 6.6875 42.828125 6.6875 
Q 48.046875 6.6875 52.140625 7.59375 
Q 56.25 8.5 59.515625 10.40625 
z
" id="DejaVuSans-71"/>
       <path d="M 45.40625 46.390625 
L 45.40625 75.984375 
L 54.390625 75.984375 
L 54.390625 0 
L 45.40625 0 
L 45.40625 8.203125 
Q 42.578125 3.328125 38.25 0.953125 
Q 33.9375 -1.421875 27.875 -1.421875 
Q 17.96875 -1.421875 11.734375 6.484375 
Q 5.515625 14.40625 5.515625 27.296875 
Q 5.515625 40.1875 11.734375 48.09375 
Q 17.96875 56 27.875 56 
Q 33.9375 56 38.25 53.625 
Q 42.578125 51.265625 45.40625 46.390625 
z
M 14.796875 27.296875 
Q 14.796875 17.390625 18.875 11.75 
Q 22.953125 6.109375 30.078125 6.109375 
Q 37.203125 6.109375 41.296875 11.75 
Q 45.40625 17.390625 45.40625 27.296875 
Q 45.40625 37.203125 41.296875 42.84375 
Q 37.203125 48.484375 30.078125 48.484375 
Q 22.953125 48.484375 18.875 42.84375 
Q 14.796875 37.203125 14.796875 27.296875 
z
" id="DejaVuSans-100"/>
       <path d="M 53.515625 70.515625 
L 53.515625 60.890625 
Q 47.90625 63.578125 42.921875 64.890625 
Q 37.9375 66.21875 33.296875 66.21875 
Q 25.25 66.21875 20.875 63.09375 
Q 16.5 59.96875 16.5 54.203125 
Q 16.5 49.359375 19.40625 46.890625 
Q 22.3125 44.4375 30.421875 42.921875 
L 36.375 41.703125 
Q 47.40625 39.59375 52.65625 34.296875 
Q 57.90625 29 57.90625 20.125 
Q 57.90625 9.515625 50.796875 4.046875 
Q 43.703125 -1.421875 29.984375 -1.421875 
Q 24.8125 -1.421875 18.96875 -0.25 
Q 13.140625 0.921875 6.890625 3.21875 
L 6.890625 13.375 
Q 12.890625 10.015625 18.65625 8.296875 
Q 24.421875 6.59375 29.984375 6.59375 
Q 38.421875 6.59375 43.015625 9.90625 
Q 47.609375 13.234375 47.609375 19.390625 
Q 47.609375 24.75 44.3125 27.78125 
Q 41.015625 30.8125 33.5 32.328125 
L 27.484375 33.5 
Q 16.453125 35.6875 11.515625 40.375 
Q 6.59375 45.0625 6.59375 53.421875 
Q 6.59375 63.09375 13.40625 68.65625 
Q 20.21875 74.21875 32.171875 74.21875 
Q 37.3125 74.21875 42.625 73.28125 
Q 47.953125 72.359375 53.515625 70.515625 
z
" id="DejaVuSans-83"/>
      </defs>
      <use xlink:href="#DejaVuSans-37"/>
      <use x="95.019531" xlink:href="#DejaVuSans-32"/>
      <use x="126.806641" xlink:href="#DejaVuSans-65"/>
      <use x="193.464844" xlink:href="#DejaVuSans-116"/>
      <use x="232.673828" xlink:href="#DejaVuSans-111"/>
      <use x="293.855469" xlink:href="#DejaVuSans-109"/>
      <use x="391.267578" xlink:href="#DejaVuSans-105"/>
      <use x="419.050781" xlink:href="#DejaVuSans-99"/>
      <use x="474.03125" xlink:href="#DejaVuSans-32"/>
      <use x="505.818359" xlink:href="#DejaVuSans-71"/>
      <use x="583.308594" xlink:href="#DejaVuSans-114"/>
      <use x="622.171875" xlink:href="#DejaVuSans-111"/>
      <use x="683.353516" xlink:href="#DejaVuSans-117"/>
      <use x="746.732422" xlink:href="#DejaVuSans-110"/>
      <use x="810.111328" xlink:href="#DejaVuSans-100"/>
      <use x="873.587891" xlink:href="#DejaVuSans-32"/>
      <use x="905.375" xlink:href="#DejaVuSans-83"/>
      <use x="968.851562" xlink:href="#DejaVuSans-116"/>
      <use x="1008.060547" xlink:href="#DejaVuSans-97"/>
      <use x="1069.339844" xlink:href="#DejaVuSans-116"/>
      <use x="1108.548828" xlink:href="#DejaVuSans-101"/>
     </g>
    </g>
   </g>
   <g id="LineCollection_1">
    <path clip-path="url(#pee92595c7c)" d="M 254.974127 55.178082 
L 254.974127 22.741237 
" style="fill:none;stroke:#1f77b4;stroke-width:1.5;"/>
   </g>
   <g id="LineCollection_2">
    <path clip-path="url(#pee92595c7c)" d="M 131.752756 81.922509 
L 131.752756 50.917997 
" style="fill:none;stroke:#ff7f0e;stroke-width:1.5;"/>
    <path clip-path="url(#pee92595c7c)" d="M 153.396392 62.263547 
L 153.396392 30.308782 
" style="fill:none;stroke:#ff7f0e;stroke-width:1.5;"/>
    <path clip-path="url(#pee92595c7c)" d="M 175.040028 76.198788 
L 175.040028 44.713438 
" style="fill:none;stroke:#ff7f0e;stroke-width:1.5;"/>
    <path clip-path="url(#pee92595c7c)" d="M 196.683665 94.833287 
L 196.683665 65.336167 
" style="fill:none;stroke:#ff7f0e;stroke-width:1.5;"/>
    <path clip-path="url(#pee92595c7c)" d="M 218.327301 195.590137 
L 218.327301 171.915233 
" style="fill:none;stroke:#ff7f0e;stroke-width:1.5;"/>
    <path clip-path="url(#pee92595c7c)" d="M 239.970937 248.550118 
L 239.970937 232.256207 
" style="fill:none;stroke:#ff7f0e;stroke-width:1.5;"/>
    <path clip-path="url(#pee92595c7c)" d="M 261.614574 261.216 
L 261.614574 247.893471 
" style="fill:none;stroke:#ff7f0e;stroke-width:1.5;"/>
    <path clip-path="url(#pee92595c7c)" d="M 283.25821 221.209059 
L 283.25821 200.656925 
" style="fill:none;stroke:#ff7f0e;stroke-width:1.5;"/>
    <path clip-path="url(#pee92595c7c)" d="M 304.901847 151.901535 
L 304.901847 126.429213 
" style="fill:none;stroke:#ff7f0e;stroke-width:1.5;"/>
    <path clip-path="url(#pee92595c7c)" d="M 326.545483 112.806664 
L 326.545483 84.304115 
" style="fill:none;stroke:#ff7f0e;stroke-width:1.5;"/>
    <path clip-path="url(#pee92595c7c)" d="M 348.189119 79.089408 
L 348.189119 47.178354 
" style="fill:none;stroke:#ff7f0e;stroke-width:1.5;"/>
   </g>
   <g id="LineCollection_3">
    <path clip-path="url(#pee92595c7c)" d="M 91.170937 50.606645 
L 91.170937 19.296 
" style="fill:none;stroke:#2ca02c;stroke-width:1.5;"/>
    <path clip-path="url(#pee92595c7c)" d="M 120.930938 84.845683 
L 120.930938 53.766252 
" style="fill:none;stroke:#2ca02c;stroke-width:1.5;"/>
    <path clip-path="url(#pee92595c7c)" d="M 150.690937 95.251226 
L 150.690937 64.717859 
" style="fill:none;stroke:#2ca02c;stroke-width:1.5;"/>
    <path clip-path="url(#pee92595c7c)" d="M 180.450938 124.596653 
L 180.450938 94.994604 
" style="fill:none;stroke:#2ca02c;stroke-width:1.5;"/>
    <path clip-path="url(#pee92595c7c)" d="M 210.210937 148.131786 
L 210.210937 120.983336 
" style="fill:none;stroke:#2ca02c;stroke-width:1.5;"/>
    <path clip-path="url(#pee92595c7c)" d="M 239.970937 181.57548 
L 239.970937 157.107628 
" style="fill:none;stroke:#2ca02c;stroke-width:1.5;"/>
    <path clip-path="url(#pee92595c7c)" d="M 269.730938 169.614633 
L 269.730938 144.771537 
" style="fill:none;stroke:#2ca02c;stroke-width:1.5;"/>
    <path clip-path="url(#pee92595c7c)" d="M 299.490937 132.537923 
L 299.490937 104.443364 
" style="fill:none;stroke:#2ca02c;stroke-width:1.5;"/>
    <path clip-path="url(#pee92595c7c)" d="M 329.250938 119.08692 
L 329.250938 90.206443 
" style="fill:none;stroke:#2ca02c;stroke-width:1.5;"/>
    <path clip-path="url(#pee92595c7c)" d="M 359.010937 57.87338 
L 359.010937 26.224702 
" style="fill:none;stroke:#2ca02c;stroke-width:1.5;"/>
    <path clip-path="url(#pee92595c7c)" d="M 388.770937 83.824066 
L 388.770937 52.504445 
" style="fill:none;stroke:#2ca02c;stroke-width:1.5;"/>
   </g>
   <g id="line2d_21">
    <path clip-path="url(#pee92595c7c)" d="M 77.643665 31.594097 
L 402.29821 31.594097 
" style="fill:none;stroke:#1f77b4;stroke-linecap:square;stroke-width:1.5;"/>
   </g>
   <g id="line2d_22">
    <path clip-path="url(#pee92595c7c)" d="M 77.643665 51.117605 
L 83.168317 52.878324 
L 87.71803 54.094416 
L 91.617784 54.913923 
L 95.192559 55.45288 
L 98.767334 55.768072 
L 102.342109 55.847104 
L 105.916883 55.686243 
L 109.491658 55.291295 
L 113.066433 54.678246 
L 116.966187 53.792184 
L 121.84088 52.44011 
L 136.789938 48.068432 
L 140.039734 47.434416 
L 142.964549 47.075846 
L 145.564385 46.966013 
L 148.164222 47.087742 
L 150.439078 47.410114 
L 152.713935 47.956375 
L 154.988792 48.746996 
L 157.263648 49.801299 
L 159.538505 51.137207 
L 161.813362 52.771008 
L 164.088218 54.717125 
L 166.363075 56.9879 
L 168.637932 59.593392 
L 170.912788 62.541192 
L 173.187645 65.836259 
L 175.787481 70.029946 
L 178.387318 74.678584 
L 180.987154 79.775685 
L 183.911969 86.031181 
L 186.836785 92.81461 
L 190.08658 100.930401 
L 193.661355 110.494361 
L 197.561109 121.581336 
L 202.110823 135.190695 
L 208.935393 156.406886 
L 217.70984 183.623074 
L 222.259553 197.009315 
L 225.834328 206.895914 
L 229.084123 215.261217 
L 232.008939 222.190213 
L 234.608775 227.810208 
L 237.208612 232.872983 
L 239.483468 236.811634 
L 241.433345 239.801818 
L 243.383223 242.420419 
L 245.3331 244.654629 
L 246.957997 246.214868 
L 248.582895 247.495185 
L 250.207793 248.491196 
L 251.83269 249.199485 
L 253.457588 249.61762 
L 254.757506 249.742218 
L 256.057424 249.679905 
L 257.357342 249.430817 
L 258.65726 248.995503 
L 260.282158 248.190976 
L 261.907055 247.099758 
L 263.531953 245.725588 
L 265.156851 244.07317 
L 267.106728 241.730992 
L 269.056605 239.007799 
L 271.006482 235.9169 
L 273.281339 231.866275 
L 275.556195 227.362396 
L 278.156032 221.69805 
L 281.080847 214.724144 
L 284.330643 206.315608 
L 287.905417 196.390072 
L 292.130151 183.949849 
L 297.654803 166.935312 
L 310.329005 127.66128 
L 314.878718 114.425746 
L 318.778472 103.761657 
L 322.353247 94.655422 
L 325.603042 87.003384 
L 328.527858 80.667926 
L 331.452674 74.881954 
L 334.05251 70.214475 
L 336.652346 66.001781 
L 339.252182 62.24546 
L 341.527039 59.330526 
L 343.801896 56.757289 
L 346.076752 54.517913 
L 348.351609 52.602115 
L 350.626466 50.997346 
L 352.901322 49.688994 
L 355.176179 48.660608 
L 357.451036 47.894118 
L 359.725892 47.370085 
L 362.000749 47.067939 
L 364.600585 46.966782 
L 367.200422 47.094408 
L 370.125237 47.469635 
L 373.375033 48.118012 
L 377.274787 49.129496 
L 383.449398 51.004762 
L 391.248906 53.337518 
L 395.79862 54.453168 
L 399.698374 55.178754 
L 402.29821 55.52325 
L 402.29821 55.52325 
" style="fill:none;stroke:#ff7f0e;stroke-linecap:square;stroke-width:1.5;"/>
   </g>
   <g id="line2d_23">
    <path clip-path="url(#pee92595c7c)" d="M 77.643665 57.804952 
L 80.243501 57.214136 
L 83.493296 56.207788 
L 91.292805 53.639807 
L 93.567661 53.160698 
L 95.517539 52.942028 
L 97.467416 52.935981 
L 99.417293 53.167503 
L 101.36717 53.651737 
L 103.317047 54.392929 
L 105.266924 55.383807 
L 107.541781 56.829559 
L 109.816638 58.539834 
L 112.741453 61.016817 
L 120.540962 67.77993 
L 122.815819 69.392104 
L 124.765696 70.522131 
L 126.715573 71.376166 
L 128.340471 71.855672 
L 129.965368 72.113468 
L 131.590266 72.147094 
L 133.215164 71.961625 
L 134.840061 71.569815 
L 136.789938 70.856425 
L 139.064795 69.752039 
L 142.31459 67.863129 
L 146.539324 65.414227 
L 148.489201 64.511782 
L 150.114099 63.960531 
L 151.738996 63.643678 
L 153.038915 63.588888 
L 154.338833 63.732668 
L 155.638751 64.092378 
L 156.938669 64.682218 
L 158.238587 65.512885 
L 159.538505 66.591279 
L 160.838423 67.920278 
L 162.463321 69.93155 
L 164.088218 72.32013 
L 166.038096 75.652375 
L 167.987973 79.437783 
L 170.262829 84.323488 
L 173.512625 91.887462 
L 179.687236 106.393826 
L 181.962092 111.17409 
L 183.911969 114.814083 
L 185.536867 117.453964 
L 187.161765 119.689786 
L 188.461683 121.165369 
L 189.761601 122.350208 
L 191.061519 123.238247 
L 192.361437 123.828775 
L 193.661355 124.126543 
L 194.961273 124.14179 
L 196.261191 123.890168 
L 197.561109 123.392566 
L 198.861028 122.674847 
L 200.485925 121.514984 
L 202.435802 119.829491 
L 206.010577 116.343902 
L 208.610413 113.928664 
L 210.235311 112.657103 
L 211.860209 111.673574 
L 213.160127 111.149361 
L 214.460045 110.900523 
L 215.434983 110.915641 
L 216.409922 111.118264 
L 217.384861 111.51982 
L 218.359799 112.130033 
L 219.334738 112.956803 
L 220.634656 114.406062 
L 221.934574 116.259258 
L 223.234492 118.518335 
L 224.53441 121.178453 
L 226.159308 125.049142 
L 227.784205 129.490109 
L 229.734082 135.495595 
L 232.008939 143.279027 
L 234.933755 154.142624 
L 241.758325 179.911226 
L 244.033182 187.5196 
L 245.983059 193.258125 
L 247.607956 197.359899 
L 248.907874 200.135074 
L 250.207793 202.420482 
L 251.507711 204.186054 
L 252.482649 205.154805 
L 253.457588 205.810677 
L 254.432526 206.148779 
L 255.407465 206.166588 
L 256.382404 205.863973 
L 257.357342 205.24319 
L 258.332281 204.308869 
L 259.307219 203.06797 
L 260.607137 200.952799 
L 261.907055 198.337117 
L 263.206974 195.255238 
L 264.831871 190.809094 
L 266.781748 184.723091 
L 269.056605 176.81117 
L 272.3064 164.575734 
L 277.831052 143.666688 
L 280.430888 134.794908 
L 282.380766 128.866618 
L 284.330643 123.693202 
L 285.95554 120.021796 
L 287.580438 116.967178 
L 288.880356 114.978591 
L 290.180274 113.395335 
L 291.480192 112.211028 
L 292.455131 111.577123 
L 293.430069 111.152843 
L 294.405008 110.928664 
L 295.379947 110.893338 
L 296.354885 111.034034 
L 297.654803 111.470573 
L 298.954721 112.15719 
L 300.579619 113.304918 
L 302.529496 114.993989 
L 306.42925 118.800605 
L 309.029087 121.164275 
L 310.653984 122.391878 
L 312.278882 123.340803 
L 313.5788 123.857791 
L 314.878718 124.130768 
L 316.178636 124.138417 
L 317.478554 123.864645 
L 318.778472 123.298757 
L 320.07839 122.435544 
L 321.378309 121.275265 
L 322.678227 119.823539 
L 324.303124 117.615914 
L 325.928022 115.001727 
L 327.877899 111.388334 
L 330.152756 106.632088 
L 333.077571 99.925189 
L 340.87708 81.708933 
L 343.151937 77.074327 
L 345.101814 73.557929 
L 347.051691 70.532259 
L 348.676589 68.41879 
L 350.301486 66.692388 
L 351.601404 65.593175 
L 352.901322 64.742086 
L 354.201241 64.132546 
L 355.501159 63.754166 
L 356.801077 63.593023 
L 358.100995 63.632009 
L 359.725892 63.931616 
L 361.35079 64.468719 
L 363.300667 65.358595 
L 365.900503 66.815671 
L 371.750135 70.20191 
L 374.024992 71.203737 
L 375.974869 71.80341 
L 377.599766 72.087217 
L 379.224664 72.156925 
L 380.849562 72.00388 
L 382.474459 71.627056 
L 384.099357 71.032798 
L 386.049234 70.051755 
L 387.999111 68.811542 
L 390.273968 67.098029 
L 393.198784 64.607132 
L 400.348333 58.367229 
L 402.29821 56.905427 
L 402.29821 56.905427 
" style="fill:none;stroke:#2ca02c;stroke-linecap:square;stroke-width:1.5;"/>
   </g>
   <g id="line2d_24">
    <defs>
     <path d="M 0 3 
C 0.795609 3 1.55874 2.683901 2.12132 2.12132 
C 2.683901 1.55874 3 0.795609 3 0 
C 3 -0.795609 2.683901 -1.55874 2.12132 -2.12132 
C 1.55874 -2.683901 0.795609 -3 0 -3 
C -0.795609 -3 -1.55874 -2.683901 -2.12132 -2.12132 
C -2.683901 -1.55874 -3 -0.795609 -3 0 
C -3 0.795609 -2.683901 1.55874 -2.12132 2.12132 
C -1.55874 2.683901 -0.795609 3 0 3 
z
" id="mcb2457e3ba" style="stroke:#1f77b4;"/>
    </defs>
    <g clip-path="url(#pee92595c7c)">
     <use style="fill:#1f77b4;stroke:#1f77b4;" x="254.974127" xlink:href="#mcb2457e3ba" y="38.959659"/>
    </g>
   </g>
   <g id="line2d_25">
    <defs>
     <path d="M 0 3 
C 0.795609 3 1.55874 2.683901 2.12132 2.12132 
C 2.683901 1.55874 3 0.795609 3 0 
C 3 -0.795609 2.683901 -1.55874 2.12132 -2.12132 
C 1.55874 -2.683901 0.795609 -3 0 -3 
C -0.795609 -3 -1.55874 -2.683901 -2.12132 -2.12132 
C -2.683901 -1.55874 -3 -0.795609 -3 0 
C -3 0.795609 -2.683901 1.55874 -2.12132 2.12132 
C -1.55874 2.683901 -0.795609 3 0 3 
z
" id="mbbb2a9d153" style="stroke:#ff7f0e;"/>
    </defs>
    <g clip-path="url(#pee92595c7c)">
     <use style="fill:#ff7f0e;stroke:#ff7f0e;" x="131.752756" xlink:href="#mbbb2a9d153" y="66.420253"/>
     <use style="fill:#ff7f0e;stroke:#ff7f0e;" x="153.396392" xlink:href="#mbbb2a9d153" y="46.286164"/>
     <use style="fill:#ff7f0e;stroke:#ff7f0e;" x="175.040028" xlink:href="#mbbb2a9d153" y="60.456113"/>
     <use style="fill:#ff7f0e;stroke:#ff7f0e;" x="196.683665" xlink:href="#mbbb2a9d153" y="80.084727"/>
     <use style="fill:#ff7f0e;stroke:#ff7f0e;" x="218.327301" xlink:href="#mbbb2a9d153" y="183.752685"/>
     <use style="fill:#ff7f0e;stroke:#ff7f0e;" x="239.970937" xlink:href="#mbbb2a9d153" y="240.403162"/>
     <use style="fill:#ff7f0e;stroke:#ff7f0e;" x="261.614574" xlink:href="#mbbb2a9d153" y="254.554736"/>
     <use style="fill:#ff7f0e;stroke:#ff7f0e;" x="283.25821" xlink:href="#mbbb2a9d153" y="210.932992"/>
     <use style="fill:#ff7f0e;stroke:#ff7f0e;" x="304.901847" xlink:href="#mbbb2a9d153" y="139.165374"/>
     <use style="fill:#ff7f0e;stroke:#ff7f0e;" x="326.545483" xlink:href="#mbbb2a9d153" y="98.555389"/>
     <use style="fill:#ff7f0e;stroke:#ff7f0e;" x="348.189119" xlink:href="#mbbb2a9d153" y="63.133881"/>
    </g>
   </g>
   <g id="line2d_26">
    <defs>
     <path d="M 0 3 
C 0.795609 3 1.55874 2.683901 2.12132 2.12132 
C 2.683901 1.55874 3 0.795609 3 0 
C 3 -0.795609 2.683901 -1.55874 2.12132 -2.12132 
C 1.55874 -2.683901 0.795609 -3 0 -3 
C -0.795609 -3 -1.55874 -2.683901 -2.12132 -2.12132 
C -2.683901 -1.55874 -3 -0.795609 -3 0 
C -3 0.795609 -2.683901 1.55874 -2.12132 2.12132 
C -1.55874 2.683901 -0.795609 3 0 3 
z
" id="mbab2358add" style="stroke:#2ca02c;"/>
    </defs>
    <g clip-path="url(#pee92595c7c)">
     <use style="fill:#2ca02c;stroke:#2ca02c;" x="91.170937" xlink:href="#mbab2358add" y="34.951323"/>
     <use style="fill:#2ca02c;stroke:#2ca02c;" x="120.930938" xlink:href="#mbab2358add" y="69.305968"/>
     <use style="fill:#2ca02c;stroke:#2ca02c;" x="150.690937" xlink:href="#mbab2358add" y="79.984543"/>
     <use style="fill:#2ca02c;stroke:#2ca02c;" x="180.450938" xlink:href="#mbab2358add" y="109.795628"/>
     <use style="fill:#2ca02c;stroke:#2ca02c;" x="210.210937" xlink:href="#mbab2358add" y="134.557561"/>
     <use style="fill:#2ca02c;stroke:#2ca02c;" x="239.970937" xlink:href="#mbab2358add" y="169.341554"/>
     <use style="fill:#2ca02c;stroke:#2ca02c;" x="269.730938" xlink:href="#mbab2358add" y="157.193085"/>
     <use style="fill:#2ca02c;stroke:#2ca02c;" x="299.490937" xlink:href="#mbab2358add" y="118.490644"/>
     <use style="fill:#2ca02c;stroke:#2ca02c;" x="329.250938" xlink:href="#mbab2358add" y="104.646682"/>
     <use style="fill:#2ca02c;stroke:#2ca02c;" x="359.010937" xlink:href="#mbab2358add" y="42.049041"/>
     <use style="fill:#2ca02c;stroke:#2ca02c;" x="388.770937" xlink:href="#mbab2358add" y="68.164255"/>
    </g>
   </g>
   <g id="patch_3">
    <path d="M 61.410938 273.312 
L 61.410938 7.2 
" style="fill:none;stroke:#000000;stroke-linecap:square;stroke-linejoin:miter;stroke-width:0.8;"/>
   </g>
   <g id="patch_4">
    <path d="M 418.530938 273.312 
L 418.530938 7.2 
" style="fill:none;stroke:#000000;stroke-linecap:square;stroke-linejoin:miter;stroke-width:0.8;"/>
   </g>
   <g id="patch_5">
    <path d="M 61.410937 273.312 
L 418.530937 273.312 
" style="fill:none;stroke:#000000;stroke-linecap:square;stroke-linejoin:miter;stroke-width:0.8;"/>
   </g>
   <g id="patch_6">
    <path d="M 61.410937 7.2 
L 418.530937 7.2 
" style="fill:none;stroke:#000000;stroke-linecap:square;stroke-linejoin:miter;stroke-width:0.8;"/>
   </g>
   <g id="legend_1">
    <g id="patch_7">
     <path d="M 308.332412 266.372 
L 408.814937 266.372 
Q 411.590937 266.372 411.590937 263.596 
L 411.590937 203.864287 
Q 411.590937 201.088287 408.814937 201.088287 
L 308.332412 201.088287 
Q 305.556412 201.088287 305.556412 203.864287 
L 305.556412 263.596 
Q 305.556412 266.372 308.332412 266.372 
z
" style="fill:#ffffff;opacity:0.8;stroke:#cccccc;stroke-linejoin:miter;"/>
    </g>
    <g id="LineCollection_4">
     <path d="M 324.988412 219.268919 
L 324.988412 205.388919 
" style="fill:none;stroke:#1f77b4;stroke-width:1.5;"/>
    </g>
    <g id="line2d_27"/>
    <g id="line2d_28">
     <g>
      <use style="fill:#1f77b4;stroke:#1f77b4;" x="324.988412" xlink:href="#mcb2457e3ba" y="212.328919"/>
     </g>
    </g>
    <g id="text_13">
     <!-- 0.00 ms -->
     <g transform="translate(349.972412 217.186919)scale(0.1388 -0.1388)">
      <use xlink:href="#DejaVuSans-48"/>
      <use x="63.623047" xlink:href="#DejaVuSans-46"/>
      <use x="95.410156" xlink:href="#DejaVuSans-48"/>
      <use x="159.033203" xlink:href="#DejaVuSans-48"/>
      <use x="222.65625" xlink:href="#DejaVuSans-32"/>
      <use x="254.443359" xlink:href="#DejaVuSans-109"/>
      <use x="351.855469" xlink:href="#DejaVuSans-115"/>
     </g>
    </g>
    <g id="LineCollection_5">
     <path d="M 324.988412 239.642156 
L 324.988412 225.762156 
" style="fill:none;stroke:#ff7f0e;stroke-width:1.5;"/>
    </g>
    <g id="line2d_29"/>
    <g id="line2d_30">
     <g>
      <use style="fill:#ff7f0e;stroke:#ff7f0e;" x="324.988412" xlink:href="#mbbb2a9d153" y="232.702156"/>
     </g>
    </g>
    <g id="text_14">
     <!-- 0.12 ms -->
     <g transform="translate(349.972412 237.560156)scale(0.1388 -0.1388)">
      <use xlink:href="#DejaVuSans-48"/>
      <use x="63.623047" xlink:href="#DejaVuSans-46"/>
      <use x="95.410156" xlink:href="#DejaVuSans-49"/>
      <use x="159.033203" xlink:href="#DejaVuSans-50"/>
      <use x="222.65625" xlink:href="#DejaVuSans-32"/>
      <use x="254.443359" xlink:href="#DejaVuSans-109"/>
      <use x="351.855469" xlink:href="#DejaVuSans-115"/>
     </g>
    </g>
    <g id="LineCollection_6">
     <path d="M 324.988412 260.015394 
L 324.988412 246.135394 
" style="fill:none;stroke:#2ca02c;stroke-width:1.5;"/>
    </g>
    <g id="line2d_31"/>
    <g id="line2d_32">
     <g>
      <use style="fill:#2ca02c;stroke:#2ca02c;" x="324.988412" xlink:href="#mbab2358add" y="253.075394"/>
     </g>
    </g>
    <g id="text_15">
     <!-- 0.25 ms -->
     <g transform="translate(349.972412 257.933394)scale(0.1388 -0.1388)">
      <use xlink:href="#DejaVuSans-48"/>
      <use x="63.623047" xlink:href="#DejaVuSans-46"/>
      <use x="95.410156" xlink:href="#DejaVuSans-50"/>
      <use x="159.033203" xlink:href="#DejaVuSans-53"/>
      <use x="222.65625" xlink:href="#DejaVuSans-32"/>
      <use x="254.443359" xlink:href="#DejaVuSans-109"/>
      <use x="351.855469" xlink:href="#DejaVuSans-115"/>
     </g>
    </g>
   </g>
  </g>
 </g>
 <defs>
  <clipPath id="pee92595c7c">
   <rect height="266.112" width="357.12" x="61.410938" y="7.2"/>
  </clipPath>
 </defs>
</svg>
