<?xml version="1.0" encoding="utf-8" standalone="no"?>
<!DOCTYPE svg PUBLIC "-//W3C//DTD SVG 1.1//EN"
  "http://www.w3.org/Graphics/SVG/1.1/DTD/svg11.dtd">
<!-- Created with matplotlib (https://matplotlib.org/) -->
<svg height="325.385437pt" version="1.1" viewBox="0 0 435.274687 325.385437" width="435.274687pt" xmlns="http://www.w3.org/2000/svg" xmlns:xlink="http://www.w3.org/1999/xlink">
 <defs>
  <style type="text/css">*{stroke-linecap:butt;stroke-linejoin:round;}</style>
 </defs>
 <g id="figure_1">
  <g id="patch_1">
   <path d="M 0 325.385437 
L 435.274687 325.385437 
L 435.274687 0 
L 0 0 
z
" style="fill:none;"/>
  </g>
  <g id="axes_1">
   <g id="patch_2">
    <path d="M 70.954688 273.312 
L 428.074687 273.312 
L 428.074687 7.2 
L 70.954688 7.2 
z
" style="fill:none;"/>
   </g>
   <g id="matplotlib.axis_1">
    <g id="xtick_1">
     <g id="line2d_1">
      <path clip-path="url(#p11323d8459)" d="M 129.24515 273.312 
L 129.24515 7.2 
" style="fill:none;stroke:#b0b0b0;stroke-linecap:square;stroke-width:0.8;"/>
     </g>
     <g id="line2d_2">
      <defs>
       <path d="M 0 0 
L 0 3.5 
" id="m005f0a59be" style="stroke:#000000;stroke-width:0.8;"/>
      </defs>
      <g>
       <use style="stroke:#000000;stroke-width:0.8;" x="129.24515" xlink:href="#m005f0a59be" y="273.312"/>
      </g>
     </g>
     <g id="text_1">
      <!-- −10 -->
      <g transform="translate(113.416634 291.709656)scale(0.15 -0.15)">
       <defs>
        <path d="M 10.59375 35.5 
L 73.1875 35.5 
L 73.1875 27.203125 
L 10.59375 27.203125 
z
" id="DejaVuSans-8722"/>
        <path d="M 12.40625 8.296875 
L 28.515625 8.296875 
L 28.515625 63.921875 
L 10.984375 60.40625 
L 10.984375 69.390625 
L 28.421875 72.90625 
L 38.28125 72.90625 
L 38.28125 8.296875 
L 54.390625 8.296875 
L 54.390625 0 
L 12.40625 0 
z
" id="DejaVuSans-49"/>
        <path d="M 31.78125 66.40625 
Q 24.171875 66.40625 20.328125 58.90625 
Q 16.5 51.421875 16.5 36.375 
Q 16.5 21.390625 20.328125 13.890625 
Q 24.171875 6.390625 31.78125 6.390625 
Q 39.453125 6.390625 43.28125 13.890625 
Q 47.125 21.390625 47.125 36.375 
Q 47.125 51.421875 43.28125 58.90625 
Q 39.453125 66.40625 31.78125 66.40625 
z
M 31.78125 74.21875 
Q 44.046875 74.21875 50.515625 64.515625 
Q 56.984375 54.828125 56.984375 36.375 
Q 56.984375 17.96875 50.515625 8.265625 
Q 44.046875 -1.421875 31.78125 -1.421875 
Q 19.53125 -1.421875 13.0625 8.265625 
Q 6.59375 17.96875 6.59375 36.375 
Q 6.59375 54.828125 13.0625 64.515625 
Q 19.53125 74.21875 31.78125 74.21875 
z
" id="DejaVuSans-48"/>
       </defs>
       <use xlink:href="#DejaVuSans-8722"/>
       <use x="83.789062" xlink:href="#DejaVuSans-49"/>
       <use x="147.412109" xlink:href="#DejaVuSans-48"/>
      </g>
     </g>
    </g>
    <g id="xtick_2">
     <g id="line2d_3">
      <path clip-path="url(#p11323d8459)" d="M 196.881514 273.312 
L 196.881514 7.2 
" style="fill:none;stroke:#b0b0b0;stroke-linecap:square;stroke-width:0.8;"/>
     </g>
     <g id="line2d_4">
      <g>
       <use style="stroke:#000000;stroke-width:0.8;" x="196.881514" xlink:href="#m005f0a59be" y="273.312"/>
      </g>
     </g>
     <g id="text_2">
      <!-- −5 -->
      <g transform="translate(185.824873 291.709656)scale(0.15 -0.15)">
       <defs>
        <path d="M 10.796875 72.90625 
L 49.515625 72.90625 
L 49.515625 64.59375 
L 19.828125 64.59375 
L 19.828125 46.734375 
Q 21.96875 47.46875 24.109375 47.828125 
Q 26.265625 48.1875 28.421875 48.1875 
Q 40.625 48.1875 47.75 41.5 
Q 54.890625 34.8125 54.890625 23.390625 
Q 54.890625 11.625 47.5625 5.09375 
Q 40.234375 -1.421875 26.90625 -1.421875 
Q 22.3125 -1.421875 17.546875 -0.640625 
Q 12.796875 0.140625 7.71875 1.703125 
L 7.71875 11.625 
Q 12.109375 9.234375 16.796875 8.0625 
Q 21.484375 6.890625 26.703125 6.890625 
Q 35.15625 6.890625 40.078125 11.328125 
Q 45.015625 15.765625 45.015625 23.390625 
Q 45.015625 31 40.078125 35.4375 
Q 35.15625 39.890625 26.703125 39.890625 
Q 22.75 39.890625 18.8125 39.015625 
Q 14.890625 38.140625 10.796875 36.28125 
z
" id="DejaVuSans-53"/>
       </defs>
       <use xlink:href="#DejaVuSans-8722"/>
       <use x="83.789062" xlink:href="#DejaVuSans-53"/>
      </g>
     </g>
    </g>
    <g id="xtick_3">
     <g id="line2d_5">
      <path clip-path="url(#p11323d8459)" d="M 264.517877 273.312 
L 264.517877 7.2 
" style="fill:none;stroke:#b0b0b0;stroke-linecap:square;stroke-width:0.8;"/>
     </g>
     <g id="line2d_6">
      <g>
       <use style="stroke:#000000;stroke-width:0.8;" x="264.517877" xlink:href="#m005f0a59be" y="273.312"/>
      </g>
     </g>
     <g id="text_3">
      <!-- 0 -->
      <g transform="translate(259.746002 291.709656)scale(0.15 -0.15)">
       <use xlink:href="#DejaVuSans-48"/>
      </g>
     </g>
    </g>
    <g id="xtick_4">
     <g id="line2d_7">
      <path clip-path="url(#p11323d8459)" d="M 332.154241 273.312 
L 332.154241 7.2 
" style="fill:none;stroke:#b0b0b0;stroke-linecap:square;stroke-width:0.8;"/>
     </g>
     <g id="line2d_8">
      <g>
       <use style="stroke:#000000;stroke-width:0.8;" x="332.154241" xlink:href="#m005f0a59be" y="273.312"/>
      </g>
     </g>
     <g id="text_4">
      <!-- 5 -->
      <g transform="translate(327.382366 291.709656)scale(0.15 -0.15)">
       <use xlink:href="#DejaVuSans-53"/>
      </g>
     </g>
    </g>
    <g id="xtick_5">
     <g id="line2d_9">
      <path clip-path="url(#p11323d8459)" d="M 399.790605 273.312 
L 399.790605 7.2 
" style="fill:none;stroke:#b0b0b0;stroke-linecap:square;stroke-width:0.8;"/>
     </g>
     <g id="line2d_10">
      <g>
       <use style="stroke:#000000;stroke-width:0.8;" x="399.790605" xlink:href="#m005f0a59be" y="273.312"/>
      </g>
     </g>
     <g id="text_5">
      <!-- 10 -->
      <g transform="translate(390.246855 291.709656)scale(0.15 -0.15)">
       <use xlink:href="#DejaVuSans-49"/>
       <use x="63.623047" xlink:href="#DejaVuSans-48"/>
      </g>
     </g>
    </g>
    <g id="text_6">
     <!-- Detuning from resonance (kHz) -->
     <g transform="translate(92.617812 314.026062)scale(0.2 -0.2)">
      <defs>
       <path d="M 19.671875 64.796875 
L 19.671875 8.109375 
L 31.59375 8.109375 
Q 46.6875 8.109375 53.6875 14.9375 
Q 60.6875 21.78125 60.6875 36.53125 
Q 60.6875 51.171875 53.6875 57.984375 
Q 46.6875 64.796875 31.59375 64.796875 
z
M 9.8125 72.90625 
L 30.078125 72.90625 
Q 51.265625 72.90625 61.171875 64.09375 
Q 71.09375 55.28125 71.09375 36.53125 
Q 71.09375 17.671875 61.125 8.828125 
Q 51.171875 0 30.078125 0 
L 9.8125 0 
z
" id="DejaVuSans-68"/>
       <path d="M 56.203125 29.59375 
L 56.203125 25.203125 
L 14.890625 25.203125 
Q 15.484375 15.921875 20.484375 11.0625 
Q 25.484375 6.203125 34.421875 6.203125 
Q 39.59375 6.203125 44.453125 7.46875 
Q 49.3125 8.734375 54.109375 11.28125 
L 54.109375 2.78125 
Q 49.265625 0.734375 44.1875 -0.34375 
Q 39.109375 -1.421875 33.890625 -1.421875 
Q 20.796875 -1.421875 13.15625 6.1875 
Q 5.515625 13.8125 5.515625 26.8125 
Q 5.515625 40.234375 12.765625 48.109375 
Q 20.015625 56 32.328125 56 
Q 43.359375 56 49.78125 48.890625 
Q 56.203125 41.796875 56.203125 29.59375 
z
M 47.21875 32.234375 
Q 47.125 39.59375 43.09375 43.984375 
Q 39.0625 48.390625 32.421875 48.390625 
Q 24.90625 48.390625 20.390625 44.140625 
Q 15.875 39.890625 15.1875 32.171875 
z
" id="DejaVuSans-101"/>
       <path d="M 18.3125 70.21875 
L 18.3125 54.6875 
L 36.8125 54.6875 
L 36.8125 47.703125 
L 18.3125 47.703125 
L 18.3125 18.015625 
Q 18.3125 11.328125 20.140625 9.421875 
Q 21.96875 7.515625 27.59375 7.515625 
L 36.8125 7.515625 
L 36.8125 0 
L 27.59375 0 
Q 17.1875 0 13.234375 3.875 
Q 9.28125 7.765625 9.28125 18.015625 
L 9.28125 47.703125 
L 2.6875 47.703125 
L 2.6875 54.6875 
L 9.28125 54.6875 
L 9.28125 70.21875 
z
" id="DejaVuSans-116"/>
       <path d="M 8.5 21.578125 
L 8.5 54.6875 
L 17.484375 54.6875 
L 17.484375 21.921875 
Q 17.484375 14.15625 20.5 10.265625 
Q 23.53125 6.390625 29.59375 6.390625 
Q 36.859375 6.390625 41.078125 11.03125 
Q 45.3125 15.671875 45.3125 23.6875 
L 45.3125 54.6875 
L 54.296875 54.6875 
L 54.296875 0 
L 45.3125 0 
L 45.3125 8.40625 
Q 42.046875 3.421875 37.71875 1 
Q 33.40625 -1.421875 27.6875 -1.421875 
Q 18.265625 -1.421875 13.375 4.4375 
Q 8.5 10.296875 8.5 21.578125 
z
M 31.109375 56 
z
" id="DejaVuSans-117"/>
       <path d="M 54.890625 33.015625 
L 54.890625 0 
L 45.90625 0 
L 45.90625 32.71875 
Q 45.90625 40.484375 42.875 44.328125 
Q 39.84375 48.1875 33.796875 48.1875 
Q 26.515625 48.1875 22.3125 43.546875 
Q 18.109375 38.921875 18.109375 30.90625 
L 18.109375 0 
L 9.078125 0 
L 9.078125 54.6875 
L 18.109375 54.6875 
L 18.109375 46.1875 
Q 21.34375 51.125 25.703125 53.5625 
Q 30.078125 56 35.796875 56 
Q 45.21875 56 50.046875 50.171875 
Q 54.890625 44.34375 54.890625 33.015625 
z
" id="DejaVuSans-110"/>
       <path d="M 9.421875 54.6875 
L 18.40625 54.6875 
L 18.40625 0 
L 9.421875 0 
z
M 9.421875 75.984375 
L 18.40625 75.984375 
L 18.40625 64.59375 
L 9.421875 64.59375 
z
" id="DejaVuSans-105"/>
       <path d="M 45.40625 27.984375 
Q 45.40625 37.75 41.375 43.109375 
Q 37.359375 48.484375 30.078125 48.484375 
Q 22.859375 48.484375 18.828125 43.109375 
Q 14.796875 37.75 14.796875 27.984375 
Q 14.796875 18.265625 18.828125 12.890625 
Q 22.859375 7.515625 30.078125 7.515625 
Q 37.359375 7.515625 41.375 12.890625 
Q 45.40625 18.265625 45.40625 27.984375 
z
M 54.390625 6.78125 
Q 54.390625 -7.171875 48.1875 -13.984375 
Q 42 -20.796875 29.203125 -20.796875 
Q 24.46875 -20.796875 20.265625 -20.09375 
Q 16.0625 -19.390625 12.109375 -17.921875 
L 12.109375 -9.1875 
Q 16.0625 -11.328125 19.921875 -12.34375 
Q 23.78125 -13.375 27.78125 -13.375 
Q 36.625 -13.375 41.015625 -8.765625 
Q 45.40625 -4.15625 45.40625 5.171875 
L 45.40625 9.625 
Q 42.625 4.78125 38.28125 2.390625 
Q 33.9375 0 27.875 0 
Q 17.828125 0 11.671875 7.65625 
Q 5.515625 15.328125 5.515625 27.984375 
Q 5.515625 40.671875 11.671875 48.328125 
Q 17.828125 56 27.875 56 
Q 33.9375 56 38.28125 53.609375 
Q 42.625 51.21875 45.40625 46.390625 
L 45.40625 54.6875 
L 54.390625 54.6875 
z
" id="DejaVuSans-103"/>
       <path id="DejaVuSans-32"/>
       <path d="M 37.109375 75.984375 
L 37.109375 68.5 
L 28.515625 68.5 
Q 23.6875 68.5 21.796875 66.546875 
Q 19.921875 64.59375 19.921875 59.515625 
L 19.921875 54.6875 
L 34.71875 54.6875 
L 34.71875 47.703125 
L 19.921875 47.703125 
L 19.921875 0 
L 10.890625 0 
L 10.890625 47.703125 
L 2.296875 47.703125 
L 2.296875 54.6875 
L 10.890625 54.6875 
L 10.890625 58.5 
Q 10.890625 67.625 15.140625 71.796875 
Q 19.390625 75.984375 28.609375 75.984375 
z
" id="DejaVuSans-102"/>
       <path d="M 41.109375 46.296875 
Q 39.59375 47.171875 37.8125 47.578125 
Q 36.03125 48 33.890625 48 
Q 26.265625 48 22.1875 43.046875 
Q 18.109375 38.09375 18.109375 28.8125 
L 18.109375 0 
L 9.078125 0 
L 9.078125 54.6875 
L 18.109375 54.6875 
L 18.109375 46.1875 
Q 20.953125 51.171875 25.484375 53.578125 
Q 30.03125 56 36.53125 56 
Q 37.453125 56 38.578125 55.875 
Q 39.703125 55.765625 41.0625 55.515625 
z
" id="DejaVuSans-114"/>
       <path d="M 30.609375 48.390625 
Q 23.390625 48.390625 19.1875 42.75 
Q 14.984375 37.109375 14.984375 27.296875 
Q 14.984375 17.484375 19.15625 11.84375 
Q 23.34375 6.203125 30.609375 6.203125 
Q 37.796875 6.203125 41.984375 11.859375 
Q 46.1875 17.53125 46.1875 27.296875 
Q 46.1875 37.015625 41.984375 42.703125 
Q 37.796875 48.390625 30.609375 48.390625 
z
M 30.609375 56 
Q 42.328125 56 49.015625 48.375 
Q 55.71875 40.765625 55.71875 27.296875 
Q 55.71875 13.875 49.015625 6.21875 
Q 42.328125 -1.421875 30.609375 -1.421875 
Q 18.84375 -1.421875 12.171875 6.21875 
Q 5.515625 13.875 5.515625 27.296875 
Q 5.515625 40.765625 12.171875 48.375 
Q 18.84375 56 30.609375 56 
z
" id="DejaVuSans-111"/>
       <path d="M 52 44.1875 
Q 55.375 50.25 60.0625 53.125 
Q 64.75 56 71.09375 56 
Q 79.640625 56 84.28125 50.015625 
Q 88.921875 44.046875 88.921875 33.015625 
L 88.921875 0 
L 79.890625 0 
L 79.890625 32.71875 
Q 79.890625 40.578125 77.09375 44.375 
Q 74.3125 48.1875 68.609375 48.1875 
Q 61.625 48.1875 57.5625 43.546875 
Q 53.515625 38.921875 53.515625 30.90625 
L 53.515625 0 
L 44.484375 0 
L 44.484375 32.71875 
Q 44.484375 40.625 41.703125 44.40625 
Q 38.921875 48.1875 33.109375 48.1875 
Q 26.21875 48.1875 22.15625 43.53125 
Q 18.109375 38.875 18.109375 30.90625 
L 18.109375 0 
L 9.078125 0 
L 9.078125 54.6875 
L 18.109375 54.6875 
L 18.109375 46.1875 
Q 21.1875 51.21875 25.484375 53.609375 
Q 29.78125 56 35.6875 56 
Q 41.65625 56 45.828125 52.96875 
Q 50 49.953125 52 44.1875 
z
" id="DejaVuSans-109"/>
       <path d="M 44.28125 53.078125 
L 44.28125 44.578125 
Q 40.484375 46.53125 36.375 47.5 
Q 32.28125 48.484375 27.875 48.484375 
Q 21.1875 48.484375 17.84375 46.4375 
Q 14.5 44.390625 14.5 40.28125 
Q 14.5 37.15625 16.890625 35.375 
Q 19.28125 33.59375 26.515625 31.984375 
L 29.59375 31.296875 
Q 39.15625 29.25 43.1875 25.515625 
Q 47.21875 21.78125 47.21875 15.09375 
Q 47.21875 7.46875 41.1875 3.015625 
Q 35.15625 -1.421875 24.609375 -1.421875 
Q 20.21875 -1.421875 15.453125 -0.5625 
Q 10.6875 0.296875 5.421875 2 
L 5.421875 11.28125 
Q 10.40625 8.6875 15.234375 7.390625 
Q 20.0625 6.109375 24.8125 6.109375 
Q 31.15625 6.109375 34.5625 8.28125 
Q 37.984375 10.453125 37.984375 14.40625 
Q 37.984375 18.0625 35.515625 20.015625 
Q 33.0625 21.96875 24.703125 23.78125 
L 21.578125 24.515625 
Q 13.234375 26.265625 9.515625 29.90625 
Q 5.8125 33.546875 5.8125 39.890625 
Q 5.8125 47.609375 11.28125 51.796875 
Q 16.75 56 26.8125 56 
Q 31.78125 56 36.171875 55.265625 
Q 40.578125 54.546875 44.28125 53.078125 
z
" id="DejaVuSans-115"/>
       <path d="M 34.28125 27.484375 
Q 23.390625 27.484375 19.1875 25 
Q 14.984375 22.515625 14.984375 16.5 
Q 14.984375 11.71875 18.140625 8.90625 
Q 21.296875 6.109375 26.703125 6.109375 
Q 34.1875 6.109375 38.703125 11.40625 
Q 43.21875 16.703125 43.21875 25.484375 
L 43.21875 27.484375 
z
M 52.203125 31.203125 
L 52.203125 0 
L 43.21875 0 
L 43.21875 8.296875 
Q 40.140625 3.328125 35.546875 0.953125 
Q 30.953125 -1.421875 24.3125 -1.421875 
Q 15.921875 -1.421875 10.953125 3.296875 
Q 6 8.015625 6 15.921875 
Q 6 25.140625 12.171875 29.828125 
Q 18.359375 34.515625 30.609375 34.515625 
L 43.21875 34.515625 
L 43.21875 35.40625 
Q 43.21875 41.609375 39.140625 45 
Q 35.0625 48.390625 27.6875 48.390625 
Q 23 48.390625 18.546875 47.265625 
Q 14.109375 46.140625 10.015625 43.890625 
L 10.015625 52.203125 
Q 14.9375 54.109375 19.578125 55.046875 
Q 24.21875 56 28.609375 56 
Q 40.484375 56 46.34375 49.84375 
Q 52.203125 43.703125 52.203125 31.203125 
z
" id="DejaVuSans-97"/>
       <path d="M 48.78125 52.59375 
L 48.78125 44.1875 
Q 44.96875 46.296875 41.140625 47.34375 
Q 37.3125 48.390625 33.40625 48.390625 
Q 24.65625 48.390625 19.8125 42.84375 
Q 14.984375 37.3125 14.984375 27.296875 
Q 14.984375 17.28125 19.8125 11.734375 
Q 24.65625 6.203125 33.40625 6.203125 
Q 37.3125 6.203125 41.140625 7.25 
Q 44.96875 8.296875 48.78125 10.40625 
L 48.78125 2.09375 
Q 45.015625 0.34375 40.984375 -0.53125 
Q 36.96875 -1.421875 32.421875 -1.421875 
Q 20.0625 -1.421875 12.78125 6.34375 
Q 5.515625 14.109375 5.515625 27.296875 
Q 5.515625 40.671875 12.859375 48.328125 
Q 20.21875 56 33.015625 56 
Q 37.15625 56 41.109375 55.140625 
Q 45.0625 54.296875 48.78125 52.59375 
z
" id="DejaVuSans-99"/>
       <path d="M 31 75.875 
Q 24.46875 64.65625 21.28125 53.65625 
Q 18.109375 42.671875 18.109375 31.390625 
Q 18.109375 20.125 21.3125 9.0625 
Q 24.515625 -2 31 -13.1875 
L 23.1875 -13.1875 
Q 15.875 -1.703125 12.234375 9.375 
Q 8.59375 20.453125 8.59375 31.390625 
Q 8.59375 42.28125 12.203125 53.3125 
Q 15.828125 64.359375 23.1875 75.875 
z
" id="DejaVuSans-40"/>
       <path d="M 9.078125 75.984375 
L 18.109375 75.984375 
L 18.109375 31.109375 
L 44.921875 54.6875 
L 56.390625 54.6875 
L 27.390625 29.109375 
L 57.625 0 
L 45.90625 0 
L 18.109375 26.703125 
L 18.109375 0 
L 9.078125 0 
z
" id="DejaVuSans-107"/>
       <path d="M 9.8125 72.90625 
L 19.671875 72.90625 
L 19.671875 43.015625 
L 55.515625 43.015625 
L 55.515625 72.90625 
L 65.375 72.90625 
L 65.375 0 
L 55.515625 0 
L 55.515625 34.71875 
L 19.671875 34.71875 
L 19.671875 0 
L 9.8125 0 
z
" id="DejaVuSans-72"/>
       <path d="M 5.515625 54.6875 
L 48.1875 54.6875 
L 48.1875 46.484375 
L 14.40625 7.171875 
L 48.1875 7.171875 
L 48.1875 0 
L 4.296875 0 
L 4.296875 8.203125 
L 38.09375 47.515625 
L 5.515625 47.515625 
z
" id="DejaVuSans-122"/>
       <path d="M 8.015625 75.875 
L 15.828125 75.875 
Q 23.140625 64.359375 26.78125 53.3125 
Q 30.421875 42.28125 30.421875 31.390625 
Q 30.421875 20.453125 26.78125 9.375 
Q 23.140625 -1.703125 15.828125 -13.1875 
L 8.015625 -13.1875 
Q 14.5 -2 17.703125 9.0625 
Q 20.90625 20.125 20.90625 31.390625 
Q 20.90625 42.671875 17.703125 53.65625 
Q 14.5 64.65625 8.015625 75.875 
z
" id="DejaVuSans-41"/>
      </defs>
      <use xlink:href="#DejaVuSans-68"/>
      <use x="77.001953" xlink:href="#DejaVuSans-101"/>
      <use x="138.525391" xlink:href="#DejaVuSans-116"/>
      <use x="177.734375" xlink:href="#DejaVuSans-117"/>
      <use x="241.113281" xlink:href="#DejaVuSans-110"/>
      <use x="304.492188" xlink:href="#DejaVuSans-105"/>
      <use x="332.275391" xlink:href="#DejaVuSans-110"/>
      <use x="395.654297" xlink:href="#DejaVuSans-103"/>
      <use x="459.130859" xlink:href="#DejaVuSans-32"/>
      <use x="490.917969" xlink:href="#DejaVuSans-102"/>
      <use x="526.123047" xlink:href="#DejaVuSans-114"/>
      <use x="564.986328" xlink:href="#DejaVuSans-111"/>
      <use x="626.167969" xlink:href="#DejaVuSans-109"/>
      <use x="723.580078" xlink:href="#DejaVuSans-32"/>
      <use x="755.367188" xlink:href="#DejaVuSans-114"/>
      <use x="794.230469" xlink:href="#DejaVuSans-101"/>
      <use x="855.753906" xlink:href="#DejaVuSans-115"/>
      <use x="907.853516" xlink:href="#DejaVuSans-111"/>
      <use x="969.035156" xlink:href="#DejaVuSans-110"/>
      <use x="1032.414062" xlink:href="#DejaVuSans-97"/>
      <use x="1093.693359" xlink:href="#DejaVuSans-110"/>
      <use x="1157.072266" xlink:href="#DejaVuSans-99"/>
      <use x="1212.052734" xlink:href="#DejaVuSans-101"/>
      <use x="1273.576172" xlink:href="#DejaVuSans-32"/>
      <use x="1305.363281" xlink:href="#DejaVuSans-40"/>
      <use x="1344.376953" xlink:href="#DejaVuSans-107"/>
      <use x="1402.287109" xlink:href="#DejaVuSans-72"/>
      <use x="1477.482422" xlink:href="#DejaVuSans-122"/>
      <use x="1529.972656" xlink:href="#DejaVuSans-41"/>
     </g>
    </g>
   </g>
   <g id="matplotlib.axis_2">
    <g id="ytick_1">
     <g id="line2d_11">
      <path clip-path="url(#p11323d8459)" d="M 70.954688 244.901838 
L 428.074687 244.901838 
" style="fill:none;stroke:#b0b0b0;stroke-linecap:square;stroke-width:0.8;"/>
     </g>
     <g id="line2d_12">
      <defs>
       <path d="M 0 0 
L -3.5 0 
" id="mc3ce260a5b" style="stroke:#000000;stroke-width:0.8;"/>
      </defs>
      <g>
       <use style="stroke:#000000;stroke-width:0.8;" x="70.954688" xlink:href="#mc3ce260a5b" y="244.901838"/>
      </g>
     </g>
     <g id="text_7">
      <!-- 0.05 -->
      <g transform="translate(30.55625 250.600667)scale(0.15 -0.15)">
       <defs>
        <path d="M 10.6875 12.40625 
L 21 12.40625 
L 21 0 
L 10.6875 0 
z
" id="DejaVuSans-46"/>
       </defs>
       <use xlink:href="#DejaVuSans-48"/>
       <use x="63.623047" xlink:href="#DejaVuSans-46"/>
       <use x="95.410156" xlink:href="#DejaVuSans-48"/>
       <use x="159.033203" xlink:href="#DejaVuSans-53"/>
      </g>
     </g>
    </g>
    <g id="ytick_2">
     <g id="line2d_13">
      <path clip-path="url(#p11323d8459)" d="M 70.954688 201.463801 
L 428.074687 201.463801 
" style="fill:none;stroke:#b0b0b0;stroke-linecap:square;stroke-width:0.8;"/>
     </g>
     <g id="line2d_14">
      <g>
       <use style="stroke:#000000;stroke-width:0.8;" x="70.954688" xlink:href="#mc3ce260a5b" y="201.463801"/>
      </g>
     </g>
     <g id="text_8">
      <!-- 0.10 -->
      <g transform="translate(30.55625 207.162629)scale(0.15 -0.15)">
       <use xlink:href="#DejaVuSans-48"/>
       <use x="63.623047" xlink:href="#DejaVuSans-46"/>
       <use x="95.410156" xlink:href="#DejaVuSans-49"/>
       <use x="159.033203" xlink:href="#DejaVuSans-48"/>
      </g>
     </g>
    </g>
    <g id="ytick_3">
     <g id="line2d_15">
      <path clip-path="url(#p11323d8459)" d="M 70.954688 158.025763 
L 428.074687 158.025763 
" style="fill:none;stroke:#b0b0b0;stroke-linecap:square;stroke-width:0.8;"/>
     </g>
     <g id="line2d_16">
      <g>
       <use style="stroke:#000000;stroke-width:0.8;" x="70.954688" xlink:href="#mc3ce260a5b" y="158.025763"/>
      </g>
     </g>
     <g id="text_9">
      <!-- 0.15 -->
      <g transform="translate(30.55625 163.724591)scale(0.15 -0.15)">
       <use xlink:href="#DejaVuSans-48"/>
       <use x="63.623047" xlink:href="#DejaVuSans-46"/>
       <use x="95.410156" xlink:href="#DejaVuSans-49"/>
       <use x="159.033203" xlink:href="#DejaVuSans-53"/>
      </g>
     </g>
    </g>
    <g id="ytick_4">
     <g id="line2d_17">
      <path clip-path="url(#p11323d8459)" d="M 70.954688 114.587725 
L 428.074687 114.587725 
" style="fill:none;stroke:#b0b0b0;stroke-linecap:square;stroke-width:0.8;"/>
     </g>
     <g id="line2d_18">
      <g>
       <use style="stroke:#000000;stroke-width:0.8;" x="70.954688" xlink:href="#mc3ce260a5b" y="114.587725"/>
      </g>
     </g>
     <g id="text_10">
      <!-- 0.20 -->
      <g transform="translate(30.55625 120.286553)scale(0.15 -0.15)">
       <defs>
        <path d="M 19.1875 8.296875 
L 53.609375 8.296875 
L 53.609375 0 
L 7.328125 0 
L 7.328125 8.296875 
Q 12.9375 14.109375 22.625 23.890625 
Q 32.328125 33.6875 34.8125 36.53125 
Q 39.546875 41.84375 41.421875 45.53125 
Q 43.3125 49.21875 43.3125 52.78125 
Q 43.3125 58.59375 39.234375 62.25 
Q 35.15625 65.921875 28.609375 65.921875 
Q 23.96875 65.921875 18.8125 64.3125 
Q 13.671875 62.703125 7.8125 59.421875 
L 7.8125 69.390625 
Q 13.765625 71.78125 18.9375 73 
Q 24.125 74.21875 28.421875 74.21875 
Q 39.75 74.21875 46.484375 68.546875 
Q 53.21875 62.890625 53.21875 53.421875 
Q 53.21875 48.921875 51.53125 44.890625 
Q 49.859375 40.875 45.40625 35.40625 
Q 44.1875 33.984375 37.640625 27.21875 
Q 31.109375 20.453125 19.1875 8.296875 
z
" id="DejaVuSans-50"/>
       </defs>
       <use xlink:href="#DejaVuSans-48"/>
       <use x="63.623047" xlink:href="#DejaVuSans-46"/>
       <use x="95.410156" xlink:href="#DejaVuSans-50"/>
       <use x="159.033203" xlink:href="#DejaVuSans-48"/>
      </g>
     </g>
    </g>
    <g id="ytick_5">
     <g id="line2d_19">
      <path clip-path="url(#p11323d8459)" d="M 70.954688 71.149687 
L 428.074687 71.149687 
" style="fill:none;stroke:#b0b0b0;stroke-linecap:square;stroke-width:0.8;"/>
     </g>
     <g id="line2d_20">
      <g>
       <use style="stroke:#000000;stroke-width:0.8;" x="70.954688" xlink:href="#mc3ce260a5b" y="71.149687"/>
      </g>
     </g>
     <g id="text_11">
      <!-- 0.25 -->
      <g transform="translate(30.55625 76.848516)scale(0.15 -0.15)">
       <use xlink:href="#DejaVuSans-48"/>
       <use x="63.623047" xlink:href="#DejaVuSans-46"/>
       <use x="95.410156" xlink:href="#DejaVuSans-50"/>
       <use x="159.033203" xlink:href="#DejaVuSans-53"/>
      </g>
     </g>
    </g>
    <g id="ytick_6">
     <g id="line2d_21">
      <path clip-path="url(#p11323d8459)" d="M 70.954688 27.71165 
L 428.074687 27.71165 
" style="fill:none;stroke:#b0b0b0;stroke-linecap:square;stroke-width:0.8;"/>
     </g>
     <g id="line2d_22">
      <g>
       <use style="stroke:#000000;stroke-width:0.8;" x="70.954688" xlink:href="#mc3ce260a5b" y="27.71165"/>
      </g>
     </g>
     <g id="text_12">
      <!-- 0.30 -->
      <g transform="translate(30.55625 33.410478)scale(0.15 -0.15)">
       <defs>
        <path d="M 40.578125 39.3125 
Q 47.65625 37.796875 51.625 33 
Q 55.609375 28.21875 55.609375 21.1875 
Q 55.609375 10.40625 48.1875 4.484375 
Q 40.765625 -1.421875 27.09375 -1.421875 
Q 22.515625 -1.421875 17.65625 -0.515625 
Q 12.796875 0.390625 7.625 2.203125 
L 7.625 11.71875 
Q 11.71875 9.328125 16.59375 8.109375 
Q 21.484375 6.890625 26.8125 6.890625 
Q 36.078125 6.890625 40.9375 10.546875 
Q 45.796875 14.203125 45.796875 21.1875 
Q 45.796875 27.640625 41.28125 31.265625 
Q 36.765625 34.90625 28.71875 34.90625 
L 20.21875 34.90625 
L 20.21875 43.015625 
L 29.109375 43.015625 
Q 36.375 43.015625 40.234375 45.921875 
Q 44.09375 48.828125 44.09375 54.296875 
Q 44.09375 59.90625 40.109375 62.90625 
Q 36.140625 65.921875 28.71875 65.921875 
Q 24.65625 65.921875 20.015625 65.03125 
Q 15.375 64.15625 9.8125 62.3125 
L 9.8125 71.09375 
Q 15.4375 72.65625 20.34375 73.4375 
Q 25.25 74.21875 29.59375 74.21875 
Q 40.828125 74.21875 47.359375 69.109375 
Q 53.90625 64.015625 53.90625 55.328125 
Q 53.90625 49.265625 50.4375 45.09375 
Q 46.96875 40.921875 40.578125 39.3125 
z
" id="DejaVuSans-51"/>
       </defs>
       <use xlink:href="#DejaVuSans-48"/>
       <use x="63.623047" xlink:href="#DejaVuSans-46"/>
       <use x="95.410156" xlink:href="#DejaVuSans-51"/>
       <use x="159.033203" xlink:href="#DejaVuSans-48"/>
      </g>
     </g>
    </g>
    <g id="text_13">
     <!-- Two-body survival -->
     <g transform="translate(22.396875 229.898187)rotate(-90)scale(0.2 -0.2)">
      <defs>
       <path d="M -0.296875 72.90625 
L 61.375 72.90625 
L 61.375 64.59375 
L 35.5 64.59375 
L 35.5 0 
L 25.59375 0 
L 25.59375 64.59375 
L -0.296875 64.59375 
z
" id="DejaVuSans-84"/>
       <path d="M 4.203125 54.6875 
L 13.1875 54.6875 
L 24.421875 12.015625 
L 35.59375 54.6875 
L 46.1875 54.6875 
L 57.421875 12.015625 
L 68.609375 54.6875 
L 77.59375 54.6875 
L 63.28125 0 
L 52.6875 0 
L 40.921875 44.828125 
L 29.109375 0 
L 18.5 0 
z
" id="DejaVuSans-119"/>
       <path d="M 4.890625 31.390625 
L 31.203125 31.390625 
L 31.203125 23.390625 
L 4.890625 23.390625 
z
" id="DejaVuSans-45"/>
       <path d="M 48.6875 27.296875 
Q 48.6875 37.203125 44.609375 42.84375 
Q 40.53125 48.484375 33.40625 48.484375 
Q 26.265625 48.484375 22.1875 42.84375 
Q 18.109375 37.203125 18.109375 27.296875 
Q 18.109375 17.390625 22.1875 11.75 
Q 26.265625 6.109375 33.40625 6.109375 
Q 40.53125 6.109375 44.609375 11.75 
Q 48.6875 17.390625 48.6875 27.296875 
z
M 18.109375 46.390625 
Q 20.953125 51.265625 25.265625 53.625 
Q 29.59375 56 35.59375 56 
Q 45.5625 56 51.78125 48.09375 
Q 58.015625 40.1875 58.015625 27.296875 
Q 58.015625 14.40625 51.78125 6.484375 
Q 45.5625 -1.421875 35.59375 -1.421875 
Q 29.59375 -1.421875 25.265625 0.953125 
Q 20.953125 3.328125 18.109375 8.203125 
L 18.109375 0 
L 9.078125 0 
L 9.078125 75.984375 
L 18.109375 75.984375 
z
" id="DejaVuSans-98"/>
       <path d="M 45.40625 46.390625 
L 45.40625 75.984375 
L 54.390625 75.984375 
L 54.390625 0 
L 45.40625 0 
L 45.40625 8.203125 
Q 42.578125 3.328125 38.25 0.953125 
Q 33.9375 -1.421875 27.875 -1.421875 
Q 17.96875 -1.421875 11.734375 6.484375 
Q 5.515625 14.40625 5.515625 27.296875 
Q 5.515625 40.1875 11.734375 48.09375 
Q 17.96875 56 27.875 56 
Q 33.9375 56 38.25 53.625 
Q 42.578125 51.265625 45.40625 46.390625 
z
M 14.796875 27.296875 
Q 14.796875 17.390625 18.875 11.75 
Q 22.953125 6.109375 30.078125 6.109375 
Q 37.203125 6.109375 41.296875 11.75 
Q 45.40625 17.390625 45.40625 27.296875 
Q 45.40625 37.203125 41.296875 42.84375 
Q 37.203125 48.484375 30.078125 48.484375 
Q 22.953125 48.484375 18.875 42.84375 
Q 14.796875 37.203125 14.796875 27.296875 
z
" id="DejaVuSans-100"/>
       <path d="M 32.171875 -5.078125 
Q 28.375 -14.84375 24.75 -17.8125 
Q 21.140625 -20.796875 15.09375 -20.796875 
L 7.90625 -20.796875 
L 7.90625 -13.28125 
L 13.1875 -13.28125 
Q 16.890625 -13.28125 18.9375 -11.515625 
Q 21 -9.765625 23.484375 -3.21875 
L 25.09375 0.875 
L 2.984375 54.6875 
L 12.5 54.6875 
L 29.59375 11.921875 
L 46.6875 54.6875 
L 56.203125 54.6875 
z
" id="DejaVuSans-121"/>
       <path d="M 2.984375 54.6875 
L 12.5 54.6875 
L 29.59375 8.796875 
L 46.6875 54.6875 
L 56.203125 54.6875 
L 35.6875 0 
L 23.484375 0 
z
" id="DejaVuSans-118"/>
       <path d="M 9.421875 75.984375 
L 18.40625 75.984375 
L 18.40625 0 
L 9.421875 0 
z
" id="DejaVuSans-108"/>
      </defs>
      <use xlink:href="#DejaVuSans-84"/>
      <use x="44.583984" xlink:href="#DejaVuSans-119"/>
      <use x="126.371094" xlink:href="#DejaVuSans-111"/>
      <use x="189.427734" xlink:href="#DejaVuSans-45"/>
      <use x="225.511719" xlink:href="#DejaVuSans-98"/>
      <use x="288.988281" xlink:href="#DejaVuSans-111"/>
      <use x="350.169922" xlink:href="#DejaVuSans-100"/>
      <use x="413.646484" xlink:href="#DejaVuSans-121"/>
      <use x="472.826172" xlink:href="#DejaVuSans-32"/>
      <use x="504.613281" xlink:href="#DejaVuSans-115"/>
      <use x="556.712891" xlink:href="#DejaVuSans-117"/>
      <use x="620.091797" xlink:href="#DejaVuSans-114"/>
      <use x="661.205078" xlink:href="#DejaVuSans-118"/>
      <use x="720.384766" xlink:href="#DejaVuSans-105"/>
      <use x="748.167969" xlink:href="#DejaVuSans-118"/>
      <use x="807.347656" xlink:href="#DejaVuSans-97"/>
      <use x="868.626953" xlink:href="#DejaVuSans-108"/>
     </g>
    </g>
   </g>
   <g id="LineCollection_1">
    <path clip-path="url(#p11323d8459)" d="M 264.517877 55.178082 
L 264.517877 22.741237 
" style="fill:none;stroke:#1f77b4;stroke-width:1.5;"/>
   </g>
   <g id="LineCollection_2">
    <path clip-path="url(#p11323d8459)" d="M 141.296506 81.922509 
L 141.296506 50.917997 
" style="fill:none;stroke:#ff7f0e;stroke-width:1.5;"/>
    <path clip-path="url(#p11323d8459)" d="M 162.940142 62.263547 
L 162.940142 30.308782 
" style="fill:none;stroke:#ff7f0e;stroke-width:1.5;"/>
    <path clip-path="url(#p11323d8459)" d="M 184.583778 76.198788 
L 184.583778 44.713438 
" style="fill:none;stroke:#ff7f0e;stroke-width:1.5;"/>
    <path clip-path="url(#p11323d8459)" d="M 206.227415 94.833287 
L 206.227415 65.336167 
" style="fill:none;stroke:#ff7f0e;stroke-width:1.5;"/>
    <path clip-path="url(#p11323d8459)" d="M 227.871051 195.590137 
L 227.871051 171.915233 
" style="fill:none;stroke:#ff7f0e;stroke-width:1.5;"/>
    <path clip-path="url(#p11323d8459)" d="M 249.514687 248.550118 
L 249.514687 232.256207 
" style="fill:none;stroke:#ff7f0e;stroke-width:1.5;"/>
    <path clip-path="url(#p11323d8459)" d="M 271.158324 261.216 
L 271.158324 247.893471 
" style="fill:none;stroke:#ff7f0e;stroke-width:1.5;"/>
    <path clip-path="url(#p11323d8459)" d="M 292.80196 221.209059 
L 292.80196 200.656925 
" style="fill:none;stroke:#ff7f0e;stroke-width:1.5;"/>
    <path clip-path="url(#p11323d8459)" d="M 314.445597 151.901535 
L 314.445597 126.429213 
" style="fill:none;stroke:#ff7f0e;stroke-width:1.5;"/>
    <path clip-path="url(#p11323d8459)" d="M 336.089233 112.806664 
L 336.089233 84.304115 
" style="fill:none;stroke:#ff7f0e;stroke-width:1.5;"/>
    <path clip-path="url(#p11323d8459)" d="M 357.732869 79.089408 
L 357.732869 47.178354 
" style="fill:none;stroke:#ff7f0e;stroke-width:1.5;"/>
   </g>
   <g id="LineCollection_3">
    <path clip-path="url(#p11323d8459)" d="M 100.714687 50.606645 
L 100.714687 19.296 
" style="fill:none;stroke:#2ca02c;stroke-width:1.5;"/>
    <path clip-path="url(#p11323d8459)" d="M 130.474688 84.845683 
L 130.474688 53.766252 
" style="fill:none;stroke:#2ca02c;stroke-width:1.5;"/>
    <path clip-path="url(#p11323d8459)" d="M 160.234687 95.251226 
L 160.234687 64.717859 
" style="fill:none;stroke:#2ca02c;stroke-width:1.5;"/>
    <path clip-path="url(#p11323d8459)" d="M 189.994688 124.596653 
L 189.994688 94.994604 
" style="fill:none;stroke:#2ca02c;stroke-width:1.5;"/>
    <path clip-path="url(#p11323d8459)" d="M 219.754687 148.131786 
L 219.754687 120.983336 
" style="fill:none;stroke:#2ca02c;stroke-width:1.5;"/>
    <path clip-path="url(#p11323d8459)" d="M 249.514687 181.57548 
L 249.514687 157.107628 
" style="fill:none;stroke:#2ca02c;stroke-width:1.5;"/>
    <path clip-path="url(#p11323d8459)" d="M 279.274688 169.614633 
L 279.274688 144.771537 
" style="fill:none;stroke:#2ca02c;stroke-width:1.5;"/>
    <path clip-path="url(#p11323d8459)" d="M 309.034687 132.537923 
L 309.034687 104.443364 
" style="fill:none;stroke:#2ca02c;stroke-width:1.5;"/>
    <path clip-path="url(#p11323d8459)" d="M 338.794688 119.08692 
L 338.794688 90.206443 
" style="fill:none;stroke:#2ca02c;stroke-width:1.5;"/>
    <path clip-path="url(#p11323d8459)" d="M 368.554687 57.87338 
L 368.554687 26.224702 
" style="fill:none;stroke:#2ca02c;stroke-width:1.5;"/>
    <path clip-path="url(#p11323d8459)" d="M 398.314687 83.824066 
L 398.314687 52.504445 
" style="fill:none;stroke:#2ca02c;stroke-width:1.5;"/>
   </g>
   <g id="line2d_23">
    <path clip-path="url(#p11323d8459)" d="M 87.187415 54.319953 
L 411.84196 54.319953 
" style="fill:none;stroke:#1f77b4;stroke-linecap:square;stroke-width:1.5;"/>
   </g>
   <g id="line2d_24">
    <path clip-path="url(#p11323d8459)" d="M 87.187415 72.115337 
L 93.037046 73.806694 
L 97.58676 74.898623 
L 101.811493 75.679377 
L 105.711248 76.166065 
L 109.286022 76.395456 
L 112.860797 76.407843 
L 116.435572 76.202123 
L 120.010347 75.786072 
L 123.910101 75.112748 
L 128.459814 74.084888 
L 134.309446 72.506482 
L 144.058832 69.844543 
L 147.958586 69.022337 
L 151.208381 68.550995 
L 154.133197 68.345666 
L 156.733033 68.373914 
L 159.332869 68.632077 
L 161.607726 69.069735 
L 163.882583 69.724889 
L 166.157439 70.615475 
L 168.432296 71.758214 
L 170.707153 73.168401 
L 172.982009 74.859688 
L 175.256866 76.843887 
L 177.531723 79.130778 
L 179.806579 81.727939 
L 182.081436 84.640591 
L 184.681272 88.359027 
L 187.281108 92.492891 
L 189.880945 97.037445 
L 192.80576 102.628975 
L 195.730576 108.707373 
L 198.980371 115.997283 
L 202.555146 124.609616 
L 206.4549 134.619595 
L 211.004614 146.942132 
L 217.179225 164.367724 
L 227.57857 193.785213 
L 232.128283 205.936251 
L 235.703058 214.89356 
L 238.952853 222.458495 
L 241.877669 228.712094 
L 244.477505 233.773449 
L 247.077341 238.321741 
L 249.352198 241.849884 
L 251.627054 244.932013 
L 253.576932 247.203256 
L 255.526809 249.120608 
L 257.151706 250.44122 
L 258.776604 251.504985 
L 260.401502 252.308256 
L 262.026399 252.848277 
L 263.651297 253.123195 
L 265.276194 253.132063 
L 266.901092 252.874853 
L 268.52599 252.352447 
L 270.150887 251.56664 
L 271.775785 250.520128 
L 273.400683 249.216499 
L 275.02558 247.660211 
L 276.975457 245.466696 
L 278.925335 242.927801 
L 281.200191 239.545864 
L 283.475048 235.733144 
L 286.074884 230.880547 
L 288.67472 225.539517 
L 291.599536 219.00337 
L 294.849331 211.167328 
L 298.424106 201.967039 
L 302.973819 189.594159 
L 309.47341 171.184436 
L 318.897816 144.550987 
L 323.447529 132.345472 
L 327.347284 122.468488 
L 330.922059 114.000468 
L 334.171854 106.857015 
L 337.096669 100.920262 
L 340.021485 95.477336 
L 342.621321 91.068872 
L 345.221158 87.073199 
L 347.820994 83.493497 
L 350.42083 80.328377 
L 352.695687 77.894551 
L 354.970543 75.76731 
L 357.2454 73.937901 
L 359.520257 72.395459 
L 361.795113 71.127182 
L 364.06997 70.118534 
L 366.344827 69.353443 
L 368.619683 68.814526 
L 370.89454 68.483304 
L 373.494376 68.334238 
L 376.094212 68.40129 
L 379.019028 68.697047 
L 382.268823 69.247987 
L 386.168578 70.137264 
L 392.018209 71.734078 
L 401.117636 74.218716 
L 405.667349 75.218845 
L 409.567104 75.862068 
L 411.84196 76.131017 
L 411.84196 76.131017 
" style="fill:none;stroke:#ff7f0e;stroke-linecap:square;stroke-width:1.5;"/>
   </g>
   <g id="line2d_25">
    <path clip-path="url(#p11323d8459)" d="M 87.187415 78.210754 
L 89.787251 77.672234 
L 93.037046 76.754963 
L 100.836555 74.414287 
L 103.436391 73.932112 
L 105.711248 73.753607 
L 107.661125 73.818166 
L 109.611002 74.104916 
L 111.560879 74.624441 
L 113.510756 75.37715 
L 115.460633 76.35287 
L 117.73549 77.744895 
L 120.335326 79.607744 
L 124.235081 82.728302 
L 129.109773 86.601607 
L 131.70961 88.379194 
L 133.984466 89.647192 
L 135.934344 90.469711 
L 137.559241 90.946339 
L 139.184139 91.222128 
L 140.809036 91.293496 
L 142.433934 91.163678 
L 144.383811 90.757219 
L 146.333688 90.106976 
L 148.608545 89.100345 
L 151.85834 87.378631 
L 156.083074 85.146494 
L 158.357931 84.208422 
L 159.982828 83.745263 
L 161.607726 83.504175 
L 163.232624 83.524575 
L 164.532542 83.752231 
L 165.83246 84.183556 
L 167.132378 84.829933 
L 168.432296 85.699412 
L 169.732214 86.796471 
L 171.357112 88.488577 
L 172.982009 90.53008 
L 174.606907 92.904426 
L 176.556784 96.155936 
L 178.831641 100.424567 
L 181.756457 106.467074 
L 190.530904 125.044955 
L 192.80576 129.116599 
L 194.755638 132.127031 
L 196.380535 134.241297 
L 198.005433 135.962823 
L 199.305351 137.042786 
L 200.605269 137.85222 
L 201.905187 138.390477 
L 203.205105 138.661888 
L 204.505023 138.675786 
L 205.804941 138.446436 
L 207.104859 137.99288 
L 208.729757 137.146961 
L 210.354655 136.043023 
L 212.629511 134.18758 
L 218.804122 128.876563 
L 220.42902 127.813266 
L 221.728938 127.170076 
L 223.028856 126.751848 
L 224.328774 126.592877 
L 225.303713 126.662377 
L 226.278651 126.906423 
L 227.25359 127.334927 
L 228.228529 127.956208 
L 229.528447 129.095653 
L 230.828365 130.600119 
L 232.128283 132.474419 
L 233.428201 134.717246 
L 235.053099 138.026965 
L 236.677996 141.871979 
L 238.627873 147.130929 
L 240.90273 154.025228 
L 243.502566 162.65094 
L 252.601993 193.567745 
L 254.55187 199.152419 
L 256.176768 203.242616 
L 257.801665 206.731618 
L 259.101583 209.041735 
L 260.401502 210.890989 
L 261.37644 211.960589 
L 262.351379 212.749156 
L 263.326317 213.250815 
L 264.301256 213.461825 
L 265.276194 213.380609 
L 266.251133 213.007775 
L 267.226072 212.346105 
L 268.20101 211.40053 
L 269.175949 210.17809 
L 270.475867 208.133474 
L 271.775785 205.639934 
L 273.400683 201.941997 
L 275.02558 197.669243 
L 276.975457 191.905087 
L 279.575294 183.41292 
L 284.125007 167.533303 
L 287.699782 155.415602 
L 289.974638 148.385943 
L 291.924516 142.982396 
L 293.874393 138.266904 
L 295.49929 134.920473 
L 297.124188 132.136235 
L 298.424106 130.323668 
L 299.724024 128.880554 
L 301.023942 127.801076 
L 302.32386 127.073537 
L 303.298799 126.748653 
L 304.273737 126.602909 
L 305.573656 126.668467 
L 306.873574 127.003932 
L 308.173492 127.576154 
L 309.798389 128.568716 
L 311.748267 130.064948 
L 314.998062 132.935405 
L 318.247857 135.713108 
L 320.197734 137.080767 
L 321.822632 137.945698 
L 323.12255 138.416925 
L 324.422468 138.665739 
L 325.722386 138.672712 
L 327.022304 138.423172 
L 328.322222 137.907374 
L 329.62214 137.120568 
L 330.922059 136.062992 
L 332.221977 134.739765 
L 333.846874 132.727547 
L 335.471772 130.344756 
L 337.421649 127.051202 
L 339.696506 122.715955 
L 342.621321 116.602717 
L 350.42083 99.998874 
L 352.695687 95.7745 
L 354.645564 92.569356 
L 356.595441 89.811503 
L 358.220339 87.885108 
L 359.845236 86.311519 
L 361.470134 85.094634 
L 362.770052 84.374622 
L 364.06997 83.872729 
L 365.369888 83.578652 
L 366.669806 83.478945 
L 368.294704 83.60262 
L 369.919602 83.967353 
L 371.869479 84.664151 
L 374.144335 85.734778 
L 382.918783 90.190016 
L 384.86866 90.815123 
L 386.818537 91.192323 
L 388.443434 91.295746 
L 390.068332 91.197149 
L 391.69323 90.894222 
L 393.318127 90.39143 
L 395.268004 89.539953 
L 397.217882 88.446259 
L 399.492738 86.91775 
L 402.417554 84.672657 
L 410.542042 78.261835 
L 411.84196 77.39085 
L 411.84196 77.39085 
" style="fill:none;stroke:#2ca02c;stroke-linecap:square;stroke-width:1.5;"/>
   </g>
   <g id="line2d_26">
    <defs>
     <path d="M 0 1.5 
C 0.397805 1.5 0.77937 1.341951 1.06066 1.06066 
C 1.341951 0.77937 1.5 0.397805 1.5 0 
C 1.5 -0.397805 1.341951 -0.77937 1.06066 -1.06066 
C 0.77937 -1.341951 0.397805 -1.5 0 -1.5 
C -0.397805 -1.5 -0.77937 -1.341951 -1.06066 -1.06066 
C -1.341951 -0.77937 -1.5 -0.397805 -1.5 0 
C -1.5 0.397805 -1.341951 0.77937 -1.06066 1.06066 
C -0.77937 1.341951 -0.397805 1.5 0 1.5 
z
" id="mb8bc26594a" style="stroke:#1f77b4;"/>
    </defs>
    <g clip-path="url(#p11323d8459)">
     <use style="fill:#1f77b4;stroke:#1f77b4;" x="264.517877" xlink:href="#mb8bc26594a" y="38.959659"/>
    </g>
   </g>
   <g id="line2d_27">
    <defs>
     <path d="M 0 3 
C 0.795609 3 1.55874 2.683901 2.12132 2.12132 
C 2.683901 1.55874 3 0.795609 3 0 
C 3 -0.795609 2.683901 -1.55874 2.12132 -2.12132 
C 1.55874 -2.683901 0.795609 -3 0 -3 
C -0.795609 -3 -1.55874 -2.683901 -2.12132 -2.12132 
C -2.683901 -1.55874 -3 -0.795609 -3 0 
C -3 0.795609 -2.683901 1.55874 -2.12132 2.12132 
C -1.55874 2.683901 -0.795609 3 0 3 
z
" id="mbbb2a9d153" style="stroke:#ff7f0e;"/>
    </defs>
    <g clip-path="url(#p11323d8459)">
     <use style="fill:#ff7f0e;stroke:#ff7f0e;" x="141.296506" xlink:href="#mbbb2a9d153" y="66.420253"/>
     <use style="fill:#ff7f0e;stroke:#ff7f0e;" x="162.940142" xlink:href="#mbbb2a9d153" y="46.286164"/>
     <use style="fill:#ff7f0e;stroke:#ff7f0e;" x="184.583778" xlink:href="#mbbb2a9d153" y="60.456113"/>
     <use style="fill:#ff7f0e;stroke:#ff7f0e;" x="206.227415" xlink:href="#mbbb2a9d153" y="80.084727"/>
     <use style="fill:#ff7f0e;stroke:#ff7f0e;" x="227.871051" xlink:href="#mbbb2a9d153" y="183.752685"/>
     <use style="fill:#ff7f0e;stroke:#ff7f0e;" x="249.514687" xlink:href="#mbbb2a9d153" y="240.403162"/>
     <use style="fill:#ff7f0e;stroke:#ff7f0e;" x="271.158324" xlink:href="#mbbb2a9d153" y="254.554736"/>
     <use style="fill:#ff7f0e;stroke:#ff7f0e;" x="292.80196" xlink:href="#mbbb2a9d153" y="210.932992"/>
     <use style="fill:#ff7f0e;stroke:#ff7f0e;" x="314.445597" xlink:href="#mbbb2a9d153" y="139.165374"/>
     <use style="fill:#ff7f0e;stroke:#ff7f0e;" x="336.089233" xlink:href="#mbbb2a9d153" y="98.555389"/>
     <use style="fill:#ff7f0e;stroke:#ff7f0e;" x="357.732869" xlink:href="#mbbb2a9d153" y="63.133881"/>
    </g>
   </g>
   <g id="line2d_28">
    <defs>
     <path d="M 0 3 
C 0.795609 3 1.55874 2.683901 2.12132 2.12132 
C 2.683901 1.55874 3 0.795609 3 0 
C 3 -0.795609 2.683901 -1.55874 2.12132 -2.12132 
C 1.55874 -2.683901 0.795609 -3 0 -3 
C -0.795609 -3 -1.55874 -2.683901 -2.12132 -2.12132 
C -2.683901 -1.55874 -3 -0.795609 -3 0 
C -3 0.795609 -2.683901 1.55874 -2.12132 2.12132 
C -1.55874 2.683901 -0.795609 3 0 3 
z
" id="mbab2358add" style="stroke:#2ca02c;"/>
    </defs>
    <g clip-path="url(#p11323d8459)">
     <use style="fill:#2ca02c;stroke:#2ca02c;" x="100.714687" xlink:href="#mbab2358add" y="34.951323"/>
     <use style="fill:#2ca02c;stroke:#2ca02c;" x="130.474688" xlink:href="#mbab2358add" y="69.305968"/>
     <use style="fill:#2ca02c;stroke:#2ca02c;" x="160.234687" xlink:href="#mbab2358add" y="79.984543"/>
     <use style="fill:#2ca02c;stroke:#2ca02c;" x="189.994688" xlink:href="#mbab2358add" y="109.795628"/>
     <use style="fill:#2ca02c;stroke:#2ca02c;" x="219.754687" xlink:href="#mbab2358add" y="134.557561"/>
     <use style="fill:#2ca02c;stroke:#2ca02c;" x="249.514687" xlink:href="#mbab2358add" y="169.341554"/>
     <use style="fill:#2ca02c;stroke:#2ca02c;" x="279.274688" xlink:href="#mbab2358add" y="157.193085"/>
     <use style="fill:#2ca02c;stroke:#2ca02c;" x="309.034687" xlink:href="#mbab2358add" y="118.490644"/>
     <use style="fill:#2ca02c;stroke:#2ca02c;" x="338.794688" xlink:href="#mbab2358add" y="104.646682"/>
     <use style="fill:#2ca02c;stroke:#2ca02c;" x="368.554687" xlink:href="#mbab2358add" y="42.049041"/>
     <use style="fill:#2ca02c;stroke:#2ca02c;" x="398.314687" xlink:href="#mbab2358add" y="68.164255"/>
    </g>
   </g>
   <g id="patch_3">
    <path d="M 70.954688 273.312 
L 70.954688 7.2 
" style="fill:none;stroke:#000000;stroke-linecap:square;stroke-linejoin:miter;stroke-width:0.8;"/>
   </g>
   <g id="patch_4">
    <path d="M 428.074687 273.312 
L 428.074687 7.2 
" style="fill:none;stroke:#000000;stroke-linecap:square;stroke-linejoin:miter;stroke-width:0.8;"/>
   </g>
   <g id="patch_5">
    <path d="M 70.954688 273.312 
L 428.074687 273.312 
" style="fill:none;stroke:#000000;stroke-linecap:square;stroke-linejoin:miter;stroke-width:0.8;"/>
   </g>
   <g id="patch_6">
    <path d="M 70.954688 7.2 
L 428.074687 7.2 
" style="fill:none;stroke:#000000;stroke-linecap:square;stroke-linejoin:miter;stroke-width:0.8;"/>
   </g>
   <g id="legend_1">
    <g id="patch_7">
     <path d="M 317.876163 266.372 
L 418.358688 266.372 
Q 421.134688 266.372 421.134688 263.596 
L 421.134688 203.864287 
Q 421.134688 201.088287 418.358688 201.088287 
L 317.876163 201.088287 
Q 315.100163 201.088287 315.100163 203.864287 
L 315.100163 263.596 
Q 315.100163 266.372 317.876163 266.372 
z
" style="fill:#ffffff;opacity:0.8;stroke:#cccccc;stroke-linejoin:miter;"/>
    </g>
    <g id="LineCollection_4">
     <path d="M 334.532163 219.268919 
L 334.532163 205.388919 
" style="fill:none;stroke:#1f77b4;stroke-width:1.5;"/>
    </g>
    <g id="line2d_29"/>
    <g id="line2d_30">
     <g>
      <use style="fill:#1f77b4;stroke:#1f77b4;" x="334.532163" xlink:href="#mb8bc26594a" y="212.328919"/>
     </g>
    </g>
    <g id="text_14">
     <!-- 0.00 ms -->
     <g transform="translate(359.516163 217.186919)scale(0.1388 -0.1388)">
      <use xlink:href="#DejaVuSans-48"/>
      <use x="63.623047" xlink:href="#DejaVuSans-46"/>
      <use x="95.410156" xlink:href="#DejaVuSans-48"/>
      <use x="159.033203" xlink:href="#DejaVuSans-48"/>
      <use x="222.65625" xlink:href="#DejaVuSans-32"/>
      <use x="254.443359" xlink:href="#DejaVuSans-109"/>
      <use x="351.855469" xlink:href="#DejaVuSans-115"/>
     </g>
    </g>
    <g id="LineCollection_5">
     <path d="M 334.532163 239.642156 
L 334.532163 225.762156 
" style="fill:none;stroke:#ff7f0e;stroke-width:1.5;"/>
    </g>
    <g id="line2d_31"/>
    <g id="line2d_32">
     <g>
      <use style="fill:#ff7f0e;stroke:#ff7f0e;" x="334.532163" xlink:href="#mbbb2a9d153" y="232.702156"/>
     </g>
    </g>
    <g id="text_15">
     <!-- 0.12 ms -->
     <g transform="translate(359.516163 237.560156)scale(0.1388 -0.1388)">
      <use xlink:href="#DejaVuSans-48"/>
      <use x="63.623047" xlink:href="#DejaVuSans-46"/>
      <use x="95.410156" xlink:href="#DejaVuSans-49"/>
      <use x="159.033203" xlink:href="#DejaVuSans-50"/>
      <use x="222.65625" xlink:href="#DejaVuSans-32"/>
      <use x="254.443359" xlink:href="#DejaVuSans-109"/>
      <use x="351.855469" xlink:href="#DejaVuSans-115"/>
     </g>
    </g>
    <g id="LineCollection_6">
     <path d="M 334.532163 260.015394 
L 334.532163 246.135394 
" style="fill:none;stroke:#2ca02c;stroke-width:1.5;"/>
    </g>
    <g id="line2d_33"/>
    <g id="line2d_34">
     <g>
      <use style="fill:#2ca02c;stroke:#2ca02c;" x="334.532163" xlink:href="#mbab2358add" y="253.075394"/>
     </g>
    </g>
    <g id="text_16">
     <!-- 0.25 ms -->
     <g transform="translate(359.516163 257.933394)scale(0.1388 -0.1388)">
      <use xlink:href="#DejaVuSans-48"/>
      <use x="63.623047" xlink:href="#DejaVuSans-46"/>
      <use x="95.410156" xlink:href="#DejaVuSans-50"/>
      <use x="159.033203" xlink:href="#DejaVuSans-53"/>
      <use x="222.65625" xlink:href="#DejaVuSans-32"/>
      <use x="254.443359" xlink:href="#DejaVuSans-109"/>
      <use x="351.855469" xlink:href="#DejaVuSans-115"/>
     </g>
    </g>
   </g>
  </g>
 </g>
 <defs>
  <clipPath id="p11323d8459">
   <rect height="266.112" width="357.12" x="70.954688" y="7.2"/>
  </clipPath>
 </defs>
</svg>
