<?xml version="1.0" encoding="utf-8" standalone="no"?>
<!DOCTYPE svg PUBLIC "-//W3C//DTD SVG 1.1//EN"
  "http://www.w3.org/Graphics/SVG/1.1/DTD/svg11.dtd">
<!-- Created with matplotlib (https://matplotlib.org/) -->
<svg height="202.237188pt" version="1.1" viewBox="0 0 247.308437 202.237188" width="247.308437pt" xmlns="http://www.w3.org/2000/svg" xmlns:xlink="http://www.w3.org/1999/xlink">
 <defs>
  <style type="text/css">*{stroke-linecap:butt;stroke-linejoin:round;}</style>
 </defs>
 <g id="figure_1">
  <g id="patch_1">
   <path d="M 0 202.237188 
L 247.308437 202.237188 
L 247.308437 0 
L 0 0 
z
" style="fill:none;"/>
  </g>
  <g id="axes_1">
   <g id="patch_2">
    <path d="M 38.054688 173.52 
L 238.934687 173.52 
L 238.934687 7.2 
L 38.054688 7.2 
z
" style="fill:none;"/>
   </g>
   <g id="patch_3">
    <path clip-path="url(#p5c0b9c0237)" d="M 38.054688 173.52 
L 238.934687 173.52 
L 238.934687 7.2 
L 38.054688 7.2 
z
" style="fill:#ffffff;opacity:0.9;"/>
   </g>
   <g id="matplotlib.axis_1">
    <g id="xtick_1">
     <g id="line2d_1">
      <path clip-path="url(#p5c0b9c0237)" d="M 63.164688 173.52 
L 63.164688 7.2 
" style="fill:none;stroke:#b0b0b0;stroke-linecap:square;stroke-width:0.8;"/>
     </g>
     <g id="line2d_2">
      <defs>
       <path d="M 0 0 
L 0 3.5 
" id="m005f0a59be" style="stroke:#000000;stroke-width:0.8;"/>
      </defs>
      <g>
       <use style="stroke:#000000;stroke-width:0.8;" x="63.164688" xlink:href="#m005f0a59be" y="173.52"/>
      </g>
     </g>
     <g id="text_1">
      <!-- −10 -->
      <g transform="translate(47.336172 191.917656)scale(0.15 -0.15)">
       <defs>
        <path d="M 10.59375 35.5 
L 73.1875 35.5 
L 73.1875 27.203125 
L 10.59375 27.203125 
z
" id="DejaVuSans-8722"/>
        <path d="M 12.40625 8.296875 
L 28.515625 8.296875 
L 28.515625 63.921875 
L 10.984375 60.40625 
L 10.984375 69.390625 
L 28.421875 72.90625 
L 38.28125 72.90625 
L 38.28125 8.296875 
L 54.390625 8.296875 
L 54.390625 0 
L 12.40625 0 
z
" id="DejaVuSans-49"/>
        <path d="M 31.78125 66.40625 
Q 24.171875 66.40625 20.328125 58.90625 
Q 16.5 51.421875 16.5 36.375 
Q 16.5 21.390625 20.328125 13.890625 
Q 24.171875 6.390625 31.78125 6.390625 
Q 39.453125 6.390625 43.28125 13.890625 
Q 47.125 21.390625 47.125 36.375 
Q 47.125 51.421875 43.28125 58.90625 
Q 39.453125 66.40625 31.78125 66.40625 
z
M 31.78125 74.21875 
Q 44.046875 74.21875 50.515625 64.515625 
Q 56.984375 54.828125 56.984375 36.375 
Q 56.984375 17.96875 50.515625 8.265625 
Q 44.046875 -1.421875 31.78125 -1.421875 
Q 19.53125 -1.421875 13.0625 8.265625 
Q 6.59375 17.96875 6.59375 36.375 
Q 6.59375 54.828125 13.0625 64.515625 
Q 19.53125 74.21875 31.78125 74.21875 
z
" id="DejaVuSans-48"/>
       </defs>
       <use xlink:href="#DejaVuSans-8722"/>
       <use x="83.789062" xlink:href="#DejaVuSans-49"/>
       <use x="147.412109" xlink:href="#DejaVuSans-48"/>
      </g>
     </g>
    </g>
    <g id="xtick_2">
     <g id="line2d_3">
      <path clip-path="url(#p5c0b9c0237)" d="M 146.864688 173.52 
L 146.864688 7.2 
" style="fill:none;stroke:#b0b0b0;stroke-linecap:square;stroke-width:0.8;"/>
     </g>
     <g id="line2d_4">
      <g>
       <use style="stroke:#000000;stroke-width:0.8;" x="146.864688" xlink:href="#m005f0a59be" y="173.52"/>
      </g>
     </g>
     <g id="text_2">
      <!-- 0 -->
      <g transform="translate(142.092813 191.917656)scale(0.15 -0.15)">
       <use xlink:href="#DejaVuSans-48"/>
      </g>
     </g>
    </g>
    <g id="xtick_3">
     <g id="line2d_5">
      <path clip-path="url(#p5c0b9c0237)" d="M 230.564687 173.52 
L 230.564687 7.2 
" style="fill:none;stroke:#b0b0b0;stroke-linecap:square;stroke-width:0.8;"/>
     </g>
     <g id="line2d_6">
      <g>
       <use style="stroke:#000000;stroke-width:0.8;" x="230.564687" xlink:href="#m005f0a59be" y="173.52"/>
      </g>
     </g>
     <g id="text_3">
      <!-- 10 -->
      <g transform="translate(221.020938 191.917656)scale(0.15 -0.15)">
       <use xlink:href="#DejaVuSans-49"/>
       <use x="63.623047" xlink:href="#DejaVuSans-48"/>
      </g>
     </g>
    </g>
   </g>
   <g id="matplotlib.axis_2">
    <g id="ytick_1">
     <g id="line2d_7">
      <path clip-path="url(#p5c0b9c0237)" d="M 38.054688 153.154286 
L 238.934687 153.154286 
" style="fill:none;stroke:#b0b0b0;stroke-linecap:square;stroke-width:0.8;"/>
     </g>
     <g id="line2d_8">
      <defs>
       <path d="M 0 0 
L -3.5 0 
" id="mc3ce260a5b" style="stroke:#000000;stroke-width:0.8;"/>
      </defs>
      <g>
       <use style="stroke:#000000;stroke-width:0.8;" x="38.054688" xlink:href="#mc3ce260a5b" y="153.154286"/>
      </g>
     </g>
     <g id="text_4">
      <!-- 0.2 -->
      <g transform="translate(7.2 158.853114)scale(0.15 -0.15)">
       <defs>
        <path d="M 10.6875 12.40625 
L 21 12.40625 
L 21 0 
L 10.6875 0 
z
" id="DejaVuSans-46"/>
        <path d="M 19.1875 8.296875 
L 53.609375 8.296875 
L 53.609375 0 
L 7.328125 0 
L 7.328125 8.296875 
Q 12.9375 14.109375 22.625 23.890625 
Q 32.328125 33.6875 34.8125 36.53125 
Q 39.546875 41.84375 41.421875 45.53125 
Q 43.3125 49.21875 43.3125 52.78125 
Q 43.3125 58.59375 39.234375 62.25 
Q 35.15625 65.921875 28.609375 65.921875 
Q 23.96875 65.921875 18.8125 64.3125 
Q 13.671875 62.703125 7.8125 59.421875 
L 7.8125 69.390625 
Q 13.765625 71.78125 18.9375 73 
Q 24.125 74.21875 28.421875 74.21875 
Q 39.75 74.21875 46.484375 68.546875 
Q 53.21875 62.890625 53.21875 53.421875 
Q 53.21875 48.921875 51.53125 44.890625 
Q 49.859375 40.875 45.40625 35.40625 
Q 44.1875 33.984375 37.640625 27.21875 
Q 31.109375 20.453125 19.1875 8.296875 
z
" id="DejaVuSans-50"/>
       </defs>
       <use xlink:href="#DejaVuSans-48"/>
       <use x="63.623047" xlink:href="#DejaVuSans-46"/>
       <use x="95.410156" xlink:href="#DejaVuSans-50"/>
      </g>
     </g>
    </g>
    <g id="ytick_2">
     <g id="line2d_9">
      <path clip-path="url(#p5c0b9c0237)" d="M 38.054688 85.268571 
L 238.934687 85.268571 
" style="fill:none;stroke:#b0b0b0;stroke-linecap:square;stroke-width:0.8;"/>
     </g>
     <g id="line2d_10">
      <g>
       <use style="stroke:#000000;stroke-width:0.8;" x="38.054688" xlink:href="#mc3ce260a5b" y="85.268571"/>
      </g>
     </g>
     <g id="text_5">
      <!-- 0.6 -->
      <g transform="translate(7.2 90.9674)scale(0.15 -0.15)">
       <defs>
        <path d="M 33.015625 40.375 
Q 26.375 40.375 22.484375 35.828125 
Q 18.609375 31.296875 18.609375 23.390625 
Q 18.609375 15.53125 22.484375 10.953125 
Q 26.375 6.390625 33.015625 6.390625 
Q 39.65625 6.390625 43.53125 10.953125 
Q 47.40625 15.53125 47.40625 23.390625 
Q 47.40625 31.296875 43.53125 35.828125 
Q 39.65625 40.375 33.015625 40.375 
z
M 52.59375 71.296875 
L 52.59375 62.3125 
Q 48.875 64.0625 45.09375 64.984375 
Q 41.3125 65.921875 37.59375 65.921875 
Q 27.828125 65.921875 22.671875 59.328125 
Q 17.53125 52.734375 16.796875 39.40625 
Q 19.671875 43.65625 24.015625 45.921875 
Q 28.375 48.1875 33.59375 48.1875 
Q 44.578125 48.1875 50.953125 41.515625 
Q 57.328125 34.859375 57.328125 23.390625 
Q 57.328125 12.15625 50.6875 5.359375 
Q 44.046875 -1.421875 33.015625 -1.421875 
Q 20.359375 -1.421875 13.671875 8.265625 
Q 6.984375 17.96875 6.984375 36.375 
Q 6.984375 53.65625 15.1875 63.9375 
Q 23.390625 74.21875 37.203125 74.21875 
Q 40.921875 74.21875 44.703125 73.484375 
Q 48.484375 72.75 52.59375 71.296875 
z
" id="DejaVuSans-54"/>
       </defs>
       <use xlink:href="#DejaVuSans-48"/>
       <use x="63.623047" xlink:href="#DejaVuSans-46"/>
       <use x="95.410156" xlink:href="#DejaVuSans-54"/>
      </g>
     </g>
    </g>
    <g id="ytick_3">
     <g id="line2d_11">
      <path clip-path="url(#p5c0b9c0237)" d="M 38.054688 17.382857 
L 238.934687 17.382857 
" style="fill:none;stroke:#b0b0b0;stroke-linecap:square;stroke-width:0.8;"/>
     </g>
     <g id="line2d_12">
      <g>
       <use style="stroke:#000000;stroke-width:0.8;" x="38.054688" xlink:href="#mc3ce260a5b" y="17.382857"/>
      </g>
     </g>
     <g id="text_6">
      <!-- 1.0 -->
      <g transform="translate(7.2 23.081685)scale(0.15 -0.15)">
       <use xlink:href="#DejaVuSans-49"/>
       <use x="63.623047" xlink:href="#DejaVuSans-46"/>
       <use x="95.410156" xlink:href="#DejaVuSans-48"/>
      </g>
     </g>
    </g>
   </g>
   <g id="LineCollection_1">
    <path clip-path="url(#p5c0b9c0237)" d="M 70.664113 50.790287 
L 70.664113 30.316586 
" style="fill:none;stroke:#ff7f0e;stroke-width:1.5;"/>
    <path clip-path="url(#p5c0b9c0237)" d="M 84.056113 37.808572 
L 84.056113 16.707375 
" style="fill:none;stroke:#ff7f0e;stroke-width:1.5;"/>
    <path clip-path="url(#p5c0b9c0237)" d="M 97.448113 47.010651 
L 97.448113 26.21943 
" style="fill:none;stroke:#ff7f0e;stroke-width:1.5;"/>
    <path clip-path="url(#p5c0b9c0237)" d="M 110.840113 59.315866 
L 110.840113 39.837564 
" style="fill:none;stroke:#ff7f0e;stroke-width:1.5;"/>
    <path clip-path="url(#p5c0b9c0237)" d="M 124.232113 125.850236 
L 124.232113 110.216611 
" style="fill:none;stroke:#ff7f0e;stroke-width:1.5;"/>
    <path clip-path="url(#p5c0b9c0237)" d="M 137.624113 160.82214 
L 137.624113 150.062523 
" style="fill:none;stroke:#ff7f0e;stroke-width:1.5;"/>
    <path clip-path="url(#p5c0b9c0237)" d="M 151.016113 169.186003 
L 151.016113 160.388526 
" style="fill:none;stroke:#ff7f0e;stroke-width:1.5;"/>
    <path clip-path="url(#p5c0b9c0237)" d="M 164.408113 142.767585 
L 164.408113 129.196068 
" style="fill:none;stroke:#ff7f0e;stroke-width:1.5;"/>
    <path clip-path="url(#p5c0b9c0237)" d="M 177.800113 97.000648 
L 177.800113 80.180105 
" style="fill:none;stroke:#ff7f0e;stroke-width:1.5;"/>
    <path clip-path="url(#p5c0b9c0237)" d="M 191.192113 71.184511 
L 191.192113 52.362971 
" style="fill:none;stroke:#ff7f0e;stroke-width:1.5;"/>
    <path clip-path="url(#p5c0b9c0237)" d="M 204.584113 48.91946 
L 204.584113 27.847128 
" style="fill:none;stroke:#ff7f0e;stroke-width:1.5;"/>
   </g>
   <g id="LineCollection_2">
    <path clip-path="url(#p5c0b9c0237)" d="M 45.554113 30.110986 
L 45.554113 9.43513 
" style="fill:none;stroke:#2ca02c;stroke-width:1.5;"/>
    <path clip-path="url(#p5c0b9c0237)" d="M 63.968113 52.720593 
L 63.968113 32.197419 
" style="fill:none;stroke:#2ca02c;stroke-width:1.5;"/>
    <path clip-path="url(#p5c0b9c0237)" d="M 82.382113 59.59185 
L 82.382113 39.429268 
" style="fill:none;stroke:#2ca02c;stroke-width:1.5;"/>
    <path clip-path="url(#p5c0b9c0237)" d="M 100.796113 78.969981 
L 100.796113 59.422391 
" style="fill:none;stroke:#2ca02c;stroke-width:1.5;"/>
    <path clip-path="url(#p5c0b9c0237)" d="M 119.210113 94.51131 
L 119.210113 76.583943 
" style="fill:none;stroke:#2ca02c;stroke-width:1.5;"/>
    <path clip-path="url(#p5c0b9c0237)" d="M 137.624113 116.595715 
L 137.624113 100.43847 
" style="fill:none;stroke:#2ca02c;stroke-width:1.5;"/>
    <path clip-path="url(#p5c0b9c0237)" d="M 156.038113 108.697419 
L 156.038113 92.292383 
" style="fill:none;stroke:#2ca02c;stroke-width:1.5;"/>
    <path clip-path="url(#p5c0b9c0237)" d="M 174.452113 84.213967 
L 174.452113 65.661841 
" style="fill:none;stroke:#2ca02c;stroke-width:1.5;"/>
    <path clip-path="url(#p5c0b9c0237)" d="M 192.866113 75.331653 
L 192.866113 56.260549 
" style="fill:none;stroke:#2ca02c;stroke-width:1.5;"/>
    <path clip-path="url(#p5c0b9c0237)" d="M 211.280113 34.909544 
L 211.280113 14.01047 
" style="fill:none;stroke:#2ca02c;stroke-width:1.5;"/>
    <path clip-path="url(#p5c0b9c0237)" d="M 229.694113 52.045972 
L 229.694113 31.36419 
" style="fill:none;stroke:#2ca02c;stroke-width:1.5;"/>
   </g>
   <g id="line2d_13">
    <path clip-path="url(#p5c0b9c0237)" d="M 37.184113 30.294657 
L 41.406816 31.700385 
L 44.624113 32.54461 
L 47.439248 33.06833 
L 50.254383 33.35911 
L 52.868437 33.404655 
L 55.482492 33.230894 
L 58.297627 32.809753 
L 61.313843 32.122306 
L 64.933302 31.058532 
L 73.78087 28.34406 
L 76.394924 27.846579 
L 78.606816 27.658034 
L 80.617627 27.72293 
L 82.427356 28.010127 
L 84.036005 28.472473 
L 85.644654 29.150394 
L 87.253302 30.062341 
L 88.861951 31.225071 
L 90.4706 32.653348 
L 92.079248 34.359659 
L 93.888978 36.62388 
L 95.698708 39.262449 
L 97.508437 42.280498 
L 99.519248 46.078787 
L 101.530059 50.337708 
L 103.741951 55.535036 
L 106.154924 61.778551 
L 108.768978 69.149534 
L 111.785194 78.312516 
L 115.806816 91.312569 
L 126.061951 124.913447 
L 129.078167 133.831815 
L 131.49114 140.327346 
L 133.703032 145.669285 
L 135.713843 149.943112 
L 137.523573 153.266219 
L 139.132221 155.773224 
L 140.539789 157.603835 
L 141.947356 159.08276 
L 143.153843 160.062932 
L 144.360329 160.772584 
L 145.566816 161.208212 
L 146.572221 161.360319 
L 147.577627 161.32009 
L 148.583032 161.087663 
L 149.789519 160.556221 
L 150.996005 159.751824 
L 152.202492 158.678441 
L 153.610059 157.093316 
L 155.017627 155.159914 
L 156.626275 152.540465 
L 158.234924 149.505681 
L 160.044654 145.627717 
L 162.055464 140.79228 
L 164.267356 134.907079 
L 166.88141 127.310677 
L 170.098708 117.239346 
L 174.924654 101.301288 
L 181.359248 80.156819 
L 184.777627 69.686198 
L 187.592762 61.729053 
L 190.206816 54.996354 
L 192.619789 49.409721 
L 194.831681 44.855001 
L 196.842492 41.20105 
L 198.853302 38.016205 
L 200.663032 35.548734 
L 202.472762 33.451666 
L 204.282492 31.712985 
L 205.89114 30.455292 
L 207.499789 29.453996 
L 209.108437 28.693031 
L 210.717086 28.154528 
L 212.526816 27.790458 
L 214.336546 27.654067 
L 216.347356 27.732253 
L 218.559248 28.047802 
L 221.173302 28.654476 
L 224.792762 29.749241 
L 232.433843 32.127113 
L 235.65114 32.850749 
L 238.064113 33.21071 
L 238.064113 33.21071 
" style="fill:none;stroke:#ff7f0e;stroke-linecap:square;stroke-width:1.5;"/>
   </g>
   <g id="line2d_14">
    <path clip-path="url(#p5c0b9c0237)" d="M 37.184113 34.681754 
L 39.194924 34.179734 
L 42.010059 33.203787 
L 45.428437 32.042671 
L 47.238167 31.653326 
L 48.846816 31.534212 
L 50.254383 31.644483 
L 51.661951 31.976058 
L 53.069519 32.535884 
L 54.678167 33.445715 
L 56.286816 34.611629 
L 58.297627 36.343574 
L 64.732221 42.114112 
L 66.34087 43.137402 
L 67.748437 43.772041 
L 68.954924 44.098748 
L 70.16141 44.215861 
L 71.367897 44.125128 
L 72.775464 43.773269 
L 74.183032 43.192175 
L 75.992762 42.19798 
L 80.818708 39.392299 
L 82.226275 38.911589 
L 83.432762 38.746146 
L 84.438167 38.819194 
L 85.443573 39.109093 
L 86.448978 39.634279 
L 87.454383 40.407595 
L 88.459789 41.435737 
L 89.666275 43.00562 
L 90.872762 44.929733 
L 92.280329 47.58603 
L 94.090059 51.548363 
L 96.503032 57.469254 
L 100.725735 67.929793 
L 102.535464 71.771975 
L 103.943032 74.273453 
L 105.149519 76.010105 
L 106.356005 77.333336 
L 107.36141 78.106351 
L 108.366816 78.57762 
L 109.17114 78.741914 
L 110.176546 78.693993 
L 111.181951 78.386197 
L 112.187356 77.849299 
L 113.393843 76.95689 
L 115.002492 75.476946 
L 118.621951 72.016974 
L 119.828437 71.178539 
L 120.833843 70.719883 
L 121.638167 70.546607 
L 122.442492 70.570642 
L 123.246816 70.812227 
L 124.05114 71.288349 
L 124.855464 72.012385 
L 125.86087 73.280096 
L 126.866275 74.959003 
L 127.871681 77.047838 
L 129.078167 80.077746 
L 130.485735 84.279609 
L 132.094383 89.832765 
L 134.306275 98.394815 
L 139.333302 118.238016 
L 140.941951 123.54923 
L 142.148437 126.896999 
L 143.354924 129.590281 
L 144.360329 131.277076 
L 145.164654 132.235843 
L 145.968978 132.833342 
L 146.572221 133.039451 
L 147.175464 133.036271 
L 147.778708 132.823825 
L 148.381951 132.403695 
L 149.186275 131.526078 
L 149.9906 130.296555 
L 150.996005 128.289852 
L 152.202492 125.24829 
L 153.610059 120.940584 
L 155.218708 115.225925 
L 157.631681 105.686043 
L 161.452221 90.506037 
L 163.261951 84.220708 
L 164.669519 80.027662 
L 165.876005 77.006186 
L 167.082492 74.557468 
L 168.087897 72.968554 
L 169.093302 71.78969 
L 169.897627 71.134385 
L 170.701951 70.723722 
L 171.506275 70.543305 
L 172.3106 70.575224 
L 173.316005 70.881374 
L 174.32141 71.439194 
L 175.527897 72.366927 
L 177.337627 74.08302 
L 180.353843 76.972113 
L 181.76141 77.98417 
L 182.766816 78.47409 
L 183.772221 78.727531 
L 184.777627 78.71544 
L 185.581951 78.500293 
L 186.587356 77.96349 
L 187.592762 77.124529 
L 188.598167 75.986769 
L 189.804654 74.244072 
L 191.212221 71.736367 
L 192.82087 68.344482 
L 194.831681 63.543277 
L 200.663032 49.239961 
L 202.271681 45.982691 
L 203.679248 43.580356 
L 204.885735 41.895735 
L 206.092221 40.575453 
L 207.097627 39.756124 
L 208.103032 39.186613 
L 209.108437 38.855157 
L 210.113843 38.74429 
L 211.119248 38.831515 
L 212.325735 39.159789 
L 213.733302 39.784339 
L 215.744113 40.954726 
L 219.363573 43.102563 
L 220.972221 43.779417 
L 222.379789 44.128012 
L 223.586275 44.215654 
L 224.792762 44.095348 
L 225.999248 43.765498 
L 227.406816 43.127452 
L 228.814383 42.244608 
L 230.624113 40.820244 
L 233.238167 38.415603 
L 236.857627 35.088965 
L 238.064113 34.133823 
L 238.064113 34.133823 
" style="fill:none;stroke:#2ca02c;stroke-linecap:square;stroke-width:1.5;"/>
   </g>
   <g id="line2d_15">
    <defs>
     <path d="M 0 3 
C 0.795609 3 1.55874 2.683901 2.12132 2.12132 
C 2.683901 1.55874 3 0.795609 3 0 
C 3 -0.795609 2.683901 -1.55874 2.12132 -2.12132 
C 1.55874 -2.683901 0.795609 -3 0 -3 
C -0.795609 -3 -1.55874 -2.683901 -2.12132 -2.12132 
C -2.683901 -1.55874 -3 -0.795609 -3 0 
C -3 0.795609 -2.683901 1.55874 -2.12132 2.12132 
C -1.55874 2.683901 -0.795609 3 0 3 
z
" id="mbbb2a9d153" style="stroke:#ff7f0e;"/>
    </defs>
    <g clip-path="url(#p5c0b9c0237)">
     <use style="fill:#ff7f0e;stroke:#ff7f0e;" x="70.664113" xlink:href="#mbbb2a9d153" y="40.553436"/>
     <use style="fill:#ff7f0e;stroke:#ff7f0e;" x="84.056113" xlink:href="#mbbb2a9d153" y="27.257974"/>
     <use style="fill:#ff7f0e;stroke:#ff7f0e;" x="97.448113" xlink:href="#mbbb2a9d153" y="36.615041"/>
     <use style="fill:#ff7f0e;stroke:#ff7f0e;" x="110.840113" xlink:href="#mbbb2a9d153" y="49.576715"/>
     <use style="fill:#ff7f0e;stroke:#ff7f0e;" x="124.232113" xlink:href="#mbbb2a9d153" y="118.033423"/>
     <use style="fill:#ff7f0e;stroke:#ff7f0e;" x="137.624113" xlink:href="#mbbb2a9d153" y="155.442332"/>
     <use style="fill:#ff7f0e;stroke:#ff7f0e;" x="151.016113" xlink:href="#mbbb2a9d153" y="164.787265"/>
     <use style="fill:#ff7f0e;stroke:#ff7f0e;" x="164.408113" xlink:href="#mbbb2a9d153" y="135.981827"/>
     <use style="fill:#ff7f0e;stroke:#ff7f0e;" x="177.800113" xlink:href="#mbbb2a9d153" y="88.590377"/>
     <use style="fill:#ff7f0e;stroke:#ff7f0e;" x="191.192113" xlink:href="#mbbb2a9d153" y="61.773741"/>
     <use style="fill:#ff7f0e;stroke:#ff7f0e;" x="204.584113" xlink:href="#mbbb2a9d153" y="38.383294"/>
    </g>
   </g>
   <g id="line2d_16">
    <defs>
     <path d="M 0 3 
C 0.795609 3 1.55874 2.683901 2.12132 2.12132 
C 2.683901 1.55874 3 0.795609 3 0 
C 3 -0.795609 2.683901 -1.55874 2.12132 -2.12132 
C 1.55874 -2.683901 0.795609 -3 0 -3 
C -0.795609 -3 -1.55874 -2.683901 -2.12132 -2.12132 
C -2.683901 -1.55874 -3 -0.795609 -3 0 
C -3 0.795609 -2.683901 1.55874 -2.12132 2.12132 
C -1.55874 2.683901 -0.795609 3 0 3 
z
" id="mbab2358add" style="stroke:#2ca02c;"/>
    </defs>
    <g clip-path="url(#p5c0b9c0237)">
     <use style="fill:#2ca02c;stroke:#2ca02c;" x="45.554113" xlink:href="#mbab2358add" y="19.773058"/>
     <use style="fill:#2ca02c;stroke:#2ca02c;" x="63.968113" xlink:href="#mbab2358add" y="42.459006"/>
     <use style="fill:#2ca02c;stroke:#2ca02c;" x="82.382113" xlink:href="#mbab2358add" y="49.510559"/>
     <use style="fill:#2ca02c;stroke:#2ca02c;" x="100.796113" xlink:href="#mbab2358add" y="69.196186"/>
     <use style="fill:#2ca02c;stroke:#2ca02c;" x="119.210113" xlink:href="#mbab2358add" y="85.547626"/>
     <use style="fill:#2ca02c;stroke:#2ca02c;" x="137.624113" xlink:href="#mbab2358add" y="108.517092"/>
     <use style="fill:#2ca02c;stroke:#2ca02c;" x="156.038113" xlink:href="#mbab2358add" y="100.494901"/>
     <use style="fill:#2ca02c;stroke:#2ca02c;" x="174.452113" xlink:href="#mbab2358add" y="74.937904"/>
     <use style="fill:#2ca02c;stroke:#2ca02c;" x="192.866113" xlink:href="#mbab2358add" y="65.796101"/>
     <use style="fill:#2ca02c;stroke:#2ca02c;" x="211.280113" xlink:href="#mbab2358add" y="24.460007"/>
     <use style="fill:#2ca02c;stroke:#2ca02c;" x="229.694113" xlink:href="#mbab2358add" y="41.705081"/>
    </g>
   </g>
   <g id="patch_4">
    <path d="M 38.054688 173.52 
L 38.054688 7.2 
" style="fill:none;stroke:#000000;stroke-linecap:square;stroke-linejoin:miter;stroke-width:0.8;"/>
   </g>
   <g id="patch_5">
    <path d="M 238.934687 173.52 
L 238.934687 7.2 
" style="fill:none;stroke:#000000;stroke-linecap:square;stroke-linejoin:miter;stroke-width:0.8;"/>
   </g>
   <g id="patch_6">
    <path d="M 38.054688 173.52 
L 238.934687 173.52 
" style="fill:none;stroke:#000000;stroke-linecap:square;stroke-linejoin:miter;stroke-width:0.8;"/>
   </g>
   <g id="patch_7">
    <path d="M 38.054688 7.2 
L 238.934687 7.2 
" style="fill:none;stroke:#000000;stroke-linecap:square;stroke-linejoin:miter;stroke-width:0.8;"/>
   </g>
  </g>
 </g>
 <defs>
  <clipPath id="p5c0b9c0237">
   <rect height="166.32" width="200.88" x="38.054688" y="7.2"/>
  </clipPath>
 </defs>
</svg>
