<?xml version="1.0" encoding="utf-8" standalone="no"?>
<!DOCTYPE svg PUBLIC "-//W3C//DTD SVG 1.1//EN"
  "http://www.w3.org/Graphics/SVG/1.1/DTD/svg11.dtd">
<!-- Created with matplotlib (https://matplotlib.org/) -->
<svg height="330.768297pt" version="1.1" viewBox="0 0 425.730937 330.768297" width="425.730937pt" xmlns="http://www.w3.org/2000/svg" xmlns:xlink="http://www.w3.org/1999/xlink">
 <defs>
  <style type="text/css">*{stroke-linecap:butt;stroke-linejoin:round;}</style>
 </defs>
 <g id="figure_1">
  <g id="patch_1">
   <path d="M 0 330.768297 
L 425.730937 330.768297 
L 425.730937 0 
L 0 0 
z
" style="fill:none;"/>
  </g>
  <g id="axes_1">
   <g id="patch_2">
    <path d="M 61.410938 278.69486 
L 418.530938 278.69486 
L 418.530938 12.58286 
L 61.410938 12.58286 
z
" style="fill:none;"/>
   </g>
   <g id="matplotlib.axis_1">
    <g id="xtick_1">
     <g id="line2d_1">
      <path clip-path="url(#pd7eae6a590)" d="M 119.7014 278.69486 
L 119.7014 12.58286 
" style="fill:none;stroke:#b0b0b0;stroke-linecap:square;stroke-width:0.8;"/>
     </g>
     <g id="line2d_2">
      <defs>
       <path d="M 0 0 
L 0 3.5 
" id="m005f0a59be" style="stroke:#000000;stroke-width:0.8;"/>
      </defs>
      <g>
       <use style="stroke:#000000;stroke-width:0.8;" x="119.7014" xlink:href="#m005f0a59be" y="278.69486"/>
      </g>
     </g>
     <g id="text_1">
      <!-- −10 -->
      <g transform="translate(103.872884 297.092516)scale(0.15 -0.15)">
       <defs>
        <path d="M 10.59375 35.5 
L 73.1875 35.5 
L 73.1875 27.203125 
L 10.59375 27.203125 
z
" id="DejaVuSans-8722"/>
        <path d="M 12.40625 8.296875 
L 28.515625 8.296875 
L 28.515625 63.921875 
L 10.984375 60.40625 
L 10.984375 69.390625 
L 28.421875 72.90625 
L 38.28125 72.90625 
L 38.28125 8.296875 
L 54.390625 8.296875 
L 54.390625 0 
L 12.40625 0 
z
" id="DejaVuSans-49"/>
        <path d="M 31.78125 66.40625 
Q 24.171875 66.40625 20.328125 58.90625 
Q 16.5 51.421875 16.5 36.375 
Q 16.5 21.390625 20.328125 13.890625 
Q 24.171875 6.390625 31.78125 6.390625 
Q 39.453125 6.390625 43.28125 13.890625 
Q 47.125 21.390625 47.125 36.375 
Q 47.125 51.421875 43.28125 58.90625 
Q 39.453125 66.40625 31.78125 66.40625 
z
M 31.78125 74.21875 
Q 44.046875 74.21875 50.515625 64.515625 
Q 56.984375 54.828125 56.984375 36.375 
Q 56.984375 17.96875 50.515625 8.265625 
Q 44.046875 -1.421875 31.78125 -1.421875 
Q 19.53125 -1.421875 13.0625 8.265625 
Q 6.59375 17.96875 6.59375 36.375 
Q 6.59375 54.828125 13.0625 64.515625 
Q 19.53125 74.21875 31.78125 74.21875 
z
" id="DejaVuSans-48"/>
       </defs>
       <use xlink:href="#DejaVuSans-8722"/>
       <use x="83.789062" xlink:href="#DejaVuSans-49"/>
       <use x="147.412109" xlink:href="#DejaVuSans-48"/>
      </g>
     </g>
    </g>
    <g id="xtick_2">
     <g id="line2d_3">
      <path clip-path="url(#pd7eae6a590)" d="M 187.337764 278.69486 
L 187.337764 12.58286 
" style="fill:none;stroke:#b0b0b0;stroke-linecap:square;stroke-width:0.8;"/>
     </g>
     <g id="line2d_4">
      <g>
       <use style="stroke:#000000;stroke-width:0.8;" x="187.337764" xlink:href="#m005f0a59be" y="278.69486"/>
      </g>
     </g>
     <g id="text_2">
      <!-- −5 -->
      <g transform="translate(176.281123 297.092516)scale(0.15 -0.15)">
       <defs>
        <path d="M 10.796875 72.90625 
L 49.515625 72.90625 
L 49.515625 64.59375 
L 19.828125 64.59375 
L 19.828125 46.734375 
Q 21.96875 47.46875 24.109375 47.828125 
Q 26.265625 48.1875 28.421875 48.1875 
Q 40.625 48.1875 47.75 41.5 
Q 54.890625 34.8125 54.890625 23.390625 
Q 54.890625 11.625 47.5625 5.09375 
Q 40.234375 -1.421875 26.90625 -1.421875 
Q 22.3125 -1.421875 17.546875 -0.640625 
Q 12.796875 0.140625 7.71875 1.703125 
L 7.71875 11.625 
Q 12.109375 9.234375 16.796875 8.0625 
Q 21.484375 6.890625 26.703125 6.890625 
Q 35.15625 6.890625 40.078125 11.328125 
Q 45.015625 15.765625 45.015625 23.390625 
Q 45.015625 31 40.078125 35.4375 
Q 35.15625 39.890625 26.703125 39.890625 
Q 22.75 39.890625 18.8125 39.015625 
Q 14.890625 38.140625 10.796875 36.28125 
z
" id="DejaVuSans-53"/>
       </defs>
       <use xlink:href="#DejaVuSans-8722"/>
       <use x="83.789062" xlink:href="#DejaVuSans-53"/>
      </g>
     </g>
    </g>
    <g id="xtick_3">
     <g id="line2d_5">
      <path clip-path="url(#pd7eae6a590)" d="M 254.974127 278.69486 
L 254.974127 12.58286 
" style="fill:none;stroke:#b0b0b0;stroke-linecap:square;stroke-width:0.8;"/>
     </g>
     <g id="line2d_6">
      <g>
       <use style="stroke:#000000;stroke-width:0.8;" x="254.974127" xlink:href="#m005f0a59be" y="278.69486"/>
      </g>
     </g>
     <g id="text_3">
      <!-- 0 -->
      <g transform="translate(250.202252 297.092516)scale(0.15 -0.15)">
       <use xlink:href="#DejaVuSans-48"/>
      </g>
     </g>
    </g>
    <g id="xtick_4">
     <g id="line2d_7">
      <path clip-path="url(#pd7eae6a590)" d="M 322.610491 278.69486 
L 322.610491 12.58286 
" style="fill:none;stroke:#b0b0b0;stroke-linecap:square;stroke-width:0.8;"/>
     </g>
     <g id="line2d_8">
      <g>
       <use style="stroke:#000000;stroke-width:0.8;" x="322.610491" xlink:href="#m005f0a59be" y="278.69486"/>
      </g>
     </g>
     <g id="text_4">
      <!-- 5 -->
      <g transform="translate(317.838616 297.092516)scale(0.15 -0.15)">
       <use xlink:href="#DejaVuSans-53"/>
      </g>
     </g>
    </g>
    <g id="xtick_5">
     <g id="line2d_9">
      <path clip-path="url(#pd7eae6a590)" d="M 390.246855 278.69486 
L 390.246855 12.58286 
" style="fill:none;stroke:#b0b0b0;stroke-linecap:square;stroke-width:0.8;"/>
     </g>
     <g id="line2d_10">
      <g>
       <use style="stroke:#000000;stroke-width:0.8;" x="390.246855" xlink:href="#m005f0a59be" y="278.69486"/>
      </g>
     </g>
     <g id="text_5">
      <!-- 10 -->
      <g transform="translate(380.703105 297.092516)scale(0.15 -0.15)">
       <use xlink:href="#DejaVuSans-49"/>
       <use x="63.623047" xlink:href="#DejaVuSans-48"/>
      </g>
     </g>
    </g>
    <g id="text_6">
     <!-- Detuning from resonance (kHz) -->
     <g transform="translate(83.074063 319.408922)scale(0.2 -0.2)">
      <defs>
       <path d="M 19.671875 64.796875 
L 19.671875 8.109375 
L 31.59375 8.109375 
Q 46.6875 8.109375 53.6875 14.9375 
Q 60.6875 21.78125 60.6875 36.53125 
Q 60.6875 51.171875 53.6875 57.984375 
Q 46.6875 64.796875 31.59375 64.796875 
z
M 9.8125 72.90625 
L 30.078125 72.90625 
Q 51.265625 72.90625 61.171875 64.09375 
Q 71.09375 55.28125 71.09375 36.53125 
Q 71.09375 17.671875 61.125 8.828125 
Q 51.171875 0 30.078125 0 
L 9.8125 0 
z
" id="DejaVuSans-68"/>
       <path d="M 56.203125 29.59375 
L 56.203125 25.203125 
L 14.890625 25.203125 
Q 15.484375 15.921875 20.484375 11.0625 
Q 25.484375 6.203125 34.421875 6.203125 
Q 39.59375 6.203125 44.453125 7.46875 
Q 49.3125 8.734375 54.109375 11.28125 
L 54.109375 2.78125 
Q 49.265625 0.734375 44.1875 -0.34375 
Q 39.109375 -1.421875 33.890625 -1.421875 
Q 20.796875 -1.421875 13.15625 6.1875 
Q 5.515625 13.8125 5.515625 26.8125 
Q 5.515625 40.234375 12.765625 48.109375 
Q 20.015625 56 32.328125 56 
Q 43.359375 56 49.78125 48.890625 
Q 56.203125 41.796875 56.203125 29.59375 
z
M 47.21875 32.234375 
Q 47.125 39.59375 43.09375 43.984375 
Q 39.0625 48.390625 32.421875 48.390625 
Q 24.90625 48.390625 20.390625 44.140625 
Q 15.875 39.890625 15.1875 32.171875 
z
" id="DejaVuSans-101"/>
       <path d="M 18.3125 70.21875 
L 18.3125 54.6875 
L 36.8125 54.6875 
L 36.8125 47.703125 
L 18.3125 47.703125 
L 18.3125 18.015625 
Q 18.3125 11.328125 20.140625 9.421875 
Q 21.96875 7.515625 27.59375 7.515625 
L 36.8125 7.515625 
L 36.8125 0 
L 27.59375 0 
Q 17.1875 0 13.234375 3.875 
Q 9.28125 7.765625 9.28125 18.015625 
L 9.28125 47.703125 
L 2.6875 47.703125 
L 2.6875 54.6875 
L 9.28125 54.6875 
L 9.28125 70.21875 
z
" id="DejaVuSans-116"/>
       <path d="M 8.5 21.578125 
L 8.5 54.6875 
L 17.484375 54.6875 
L 17.484375 21.921875 
Q 17.484375 14.15625 20.5 10.265625 
Q 23.53125 6.390625 29.59375 6.390625 
Q 36.859375 6.390625 41.078125 11.03125 
Q 45.3125 15.671875 45.3125 23.6875 
L 45.3125 54.6875 
L 54.296875 54.6875 
L 54.296875 0 
L 45.3125 0 
L 45.3125 8.40625 
Q 42.046875 3.421875 37.71875 1 
Q 33.40625 -1.421875 27.6875 -1.421875 
Q 18.265625 -1.421875 13.375 4.4375 
Q 8.5 10.296875 8.5 21.578125 
z
M 31.109375 56 
z
" id="DejaVuSans-117"/>
       <path d="M 54.890625 33.015625 
L 54.890625 0 
L 45.90625 0 
L 45.90625 32.71875 
Q 45.90625 40.484375 42.875 44.328125 
Q 39.84375 48.1875 33.796875 48.1875 
Q 26.515625 48.1875 22.3125 43.546875 
Q 18.109375 38.921875 18.109375 30.90625 
L 18.109375 0 
L 9.078125 0 
L 9.078125 54.6875 
L 18.109375 54.6875 
L 18.109375 46.1875 
Q 21.34375 51.125 25.703125 53.5625 
Q 30.078125 56 35.796875 56 
Q 45.21875 56 50.046875 50.171875 
Q 54.890625 44.34375 54.890625 33.015625 
z
" id="DejaVuSans-110"/>
       <path d="M 9.421875 54.6875 
L 18.40625 54.6875 
L 18.40625 0 
L 9.421875 0 
z
M 9.421875 75.984375 
L 18.40625 75.984375 
L 18.40625 64.59375 
L 9.421875 64.59375 
z
" id="DejaVuSans-105"/>
       <path d="M 45.40625 27.984375 
Q 45.40625 37.75 41.375 43.109375 
Q 37.359375 48.484375 30.078125 48.484375 
Q 22.859375 48.484375 18.828125 43.109375 
Q 14.796875 37.75 14.796875 27.984375 
Q 14.796875 18.265625 18.828125 12.890625 
Q 22.859375 7.515625 30.078125 7.515625 
Q 37.359375 7.515625 41.375 12.890625 
Q 45.40625 18.265625 45.40625 27.984375 
z
M 54.390625 6.78125 
Q 54.390625 -7.171875 48.1875 -13.984375 
Q 42 -20.796875 29.203125 -20.796875 
Q 24.46875 -20.796875 20.265625 -20.09375 
Q 16.0625 -19.390625 12.109375 -17.921875 
L 12.109375 -9.1875 
Q 16.0625 -11.328125 19.921875 -12.34375 
Q 23.78125 -13.375 27.78125 -13.375 
Q 36.625 -13.375 41.015625 -8.765625 
Q 45.40625 -4.15625 45.40625 5.171875 
L 45.40625 9.625 
Q 42.625 4.78125 38.28125 2.390625 
Q 33.9375 0 27.875 0 
Q 17.828125 0 11.671875 7.65625 
Q 5.515625 15.328125 5.515625 27.984375 
Q 5.515625 40.671875 11.671875 48.328125 
Q 17.828125 56 27.875 56 
Q 33.9375 56 38.28125 53.609375 
Q 42.625 51.21875 45.40625 46.390625 
L 45.40625 54.6875 
L 54.390625 54.6875 
z
" id="DejaVuSans-103"/>
       <path id="DejaVuSans-32"/>
       <path d="M 37.109375 75.984375 
L 37.109375 68.5 
L 28.515625 68.5 
Q 23.6875 68.5 21.796875 66.546875 
Q 19.921875 64.59375 19.921875 59.515625 
L 19.921875 54.6875 
L 34.71875 54.6875 
L 34.71875 47.703125 
L 19.921875 47.703125 
L 19.921875 0 
L 10.890625 0 
L 10.890625 47.703125 
L 2.296875 47.703125 
L 2.296875 54.6875 
L 10.890625 54.6875 
L 10.890625 58.5 
Q 10.890625 67.625 15.140625 71.796875 
Q 19.390625 75.984375 28.609375 75.984375 
z
" id="DejaVuSans-102"/>
       <path d="M 41.109375 46.296875 
Q 39.59375 47.171875 37.8125 47.578125 
Q 36.03125 48 33.890625 48 
Q 26.265625 48 22.1875 43.046875 
Q 18.109375 38.09375 18.109375 28.8125 
L 18.109375 0 
L 9.078125 0 
L 9.078125 54.6875 
L 18.109375 54.6875 
L 18.109375 46.1875 
Q 20.953125 51.171875 25.484375 53.578125 
Q 30.03125 56 36.53125 56 
Q 37.453125 56 38.578125 55.875 
Q 39.703125 55.765625 41.0625 55.515625 
z
" id="DejaVuSans-114"/>
       <path d="M 30.609375 48.390625 
Q 23.390625 48.390625 19.1875 42.75 
Q 14.984375 37.109375 14.984375 27.296875 
Q 14.984375 17.484375 19.15625 11.84375 
Q 23.34375 6.203125 30.609375 6.203125 
Q 37.796875 6.203125 41.984375 11.859375 
Q 46.1875 17.53125 46.1875 27.296875 
Q 46.1875 37.015625 41.984375 42.703125 
Q 37.796875 48.390625 30.609375 48.390625 
z
M 30.609375 56 
Q 42.328125 56 49.015625 48.375 
Q 55.71875 40.765625 55.71875 27.296875 
Q 55.71875 13.875 49.015625 6.21875 
Q 42.328125 -1.421875 30.609375 -1.421875 
Q 18.84375 -1.421875 12.171875 6.21875 
Q 5.515625 13.875 5.515625 27.296875 
Q 5.515625 40.765625 12.171875 48.375 
Q 18.84375 56 30.609375 56 
z
" id="DejaVuSans-111"/>
       <path d="M 52 44.1875 
Q 55.375 50.25 60.0625 53.125 
Q 64.75 56 71.09375 56 
Q 79.640625 56 84.28125 50.015625 
Q 88.921875 44.046875 88.921875 33.015625 
L 88.921875 0 
L 79.890625 0 
L 79.890625 32.71875 
Q 79.890625 40.578125 77.09375 44.375 
Q 74.3125 48.1875 68.609375 48.1875 
Q 61.625 48.1875 57.5625 43.546875 
Q 53.515625 38.921875 53.515625 30.90625 
L 53.515625 0 
L 44.484375 0 
L 44.484375 32.71875 
Q 44.484375 40.625 41.703125 44.40625 
Q 38.921875 48.1875 33.109375 48.1875 
Q 26.21875 48.1875 22.15625 43.53125 
Q 18.109375 38.875 18.109375 30.90625 
L 18.109375 0 
L 9.078125 0 
L 9.078125 54.6875 
L 18.109375 54.6875 
L 18.109375 46.1875 
Q 21.1875 51.21875 25.484375 53.609375 
Q 29.78125 56 35.6875 56 
Q 41.65625 56 45.828125 52.96875 
Q 50 49.953125 52 44.1875 
z
" id="DejaVuSans-109"/>
       <path d="M 44.28125 53.078125 
L 44.28125 44.578125 
Q 40.484375 46.53125 36.375 47.5 
Q 32.28125 48.484375 27.875 48.484375 
Q 21.1875 48.484375 17.84375 46.4375 
Q 14.5 44.390625 14.5 40.28125 
Q 14.5 37.15625 16.890625 35.375 
Q 19.28125 33.59375 26.515625 31.984375 
L 29.59375 31.296875 
Q 39.15625 29.25 43.1875 25.515625 
Q 47.21875 21.78125 47.21875 15.09375 
Q 47.21875 7.46875 41.1875 3.015625 
Q 35.15625 -1.421875 24.609375 -1.421875 
Q 20.21875 -1.421875 15.453125 -0.5625 
Q 10.6875 0.296875 5.421875 2 
L 5.421875 11.28125 
Q 10.40625 8.6875 15.234375 7.390625 
Q 20.0625 6.109375 24.8125 6.109375 
Q 31.15625 6.109375 34.5625 8.28125 
Q 37.984375 10.453125 37.984375 14.40625 
Q 37.984375 18.0625 35.515625 20.015625 
Q 33.0625 21.96875 24.703125 23.78125 
L 21.578125 24.515625 
Q 13.234375 26.265625 9.515625 29.90625 
Q 5.8125 33.546875 5.8125 39.890625 
Q 5.8125 47.609375 11.28125 51.796875 
Q 16.75 56 26.8125 56 
Q 31.78125 56 36.171875 55.265625 
Q 40.578125 54.546875 44.28125 53.078125 
z
" id="DejaVuSans-115"/>
       <path d="M 34.28125 27.484375 
Q 23.390625 27.484375 19.1875 25 
Q 14.984375 22.515625 14.984375 16.5 
Q 14.984375 11.71875 18.140625 8.90625 
Q 21.296875 6.109375 26.703125 6.109375 
Q 34.1875 6.109375 38.703125 11.40625 
Q 43.21875 16.703125 43.21875 25.484375 
L 43.21875 27.484375 
z
M 52.203125 31.203125 
L 52.203125 0 
L 43.21875 0 
L 43.21875 8.296875 
Q 40.140625 3.328125 35.546875 0.953125 
Q 30.953125 -1.421875 24.3125 -1.421875 
Q 15.921875 -1.421875 10.953125 3.296875 
Q 6 8.015625 6 15.921875 
Q 6 25.140625 12.171875 29.828125 
Q 18.359375 34.515625 30.609375 34.515625 
L 43.21875 34.515625 
L 43.21875 35.40625 
Q 43.21875 41.609375 39.140625 45 
Q 35.0625 48.390625 27.6875 48.390625 
Q 23 48.390625 18.546875 47.265625 
Q 14.109375 46.140625 10.015625 43.890625 
L 10.015625 52.203125 
Q 14.9375 54.109375 19.578125 55.046875 
Q 24.21875 56 28.609375 56 
Q 40.484375 56 46.34375 49.84375 
Q 52.203125 43.703125 52.203125 31.203125 
z
" id="DejaVuSans-97"/>
       <path d="M 48.78125 52.59375 
L 48.78125 44.1875 
Q 44.96875 46.296875 41.140625 47.34375 
Q 37.3125 48.390625 33.40625 48.390625 
Q 24.65625 48.390625 19.8125 42.84375 
Q 14.984375 37.3125 14.984375 27.296875 
Q 14.984375 17.28125 19.8125 11.734375 
Q 24.65625 6.203125 33.40625 6.203125 
Q 37.3125 6.203125 41.140625 7.25 
Q 44.96875 8.296875 48.78125 10.40625 
L 48.78125 2.09375 
Q 45.015625 0.34375 40.984375 -0.53125 
Q 36.96875 -1.421875 32.421875 -1.421875 
Q 20.0625 -1.421875 12.78125 6.34375 
Q 5.515625 14.109375 5.515625 27.296875 
Q 5.515625 40.671875 12.859375 48.328125 
Q 20.21875 56 33.015625 56 
Q 37.15625 56 41.109375 55.140625 
Q 45.0625 54.296875 48.78125 52.59375 
z
" id="DejaVuSans-99"/>
       <path d="M 31 75.875 
Q 24.46875 64.65625 21.28125 53.65625 
Q 18.109375 42.671875 18.109375 31.390625 
Q 18.109375 20.125 21.3125 9.0625 
Q 24.515625 -2 31 -13.1875 
L 23.1875 -13.1875 
Q 15.875 -1.703125 12.234375 9.375 
Q 8.59375 20.453125 8.59375 31.390625 
Q 8.59375 42.28125 12.203125 53.3125 
Q 15.828125 64.359375 23.1875 75.875 
z
" id="DejaVuSans-40"/>
       <path d="M 9.078125 75.984375 
L 18.109375 75.984375 
L 18.109375 31.109375 
L 44.921875 54.6875 
L 56.390625 54.6875 
L 27.390625 29.109375 
L 57.625 0 
L 45.90625 0 
L 18.109375 26.703125 
L 18.109375 0 
L 9.078125 0 
z
" id="DejaVuSans-107"/>
       <path d="M 9.8125 72.90625 
L 19.671875 72.90625 
L 19.671875 43.015625 
L 55.515625 43.015625 
L 55.515625 72.90625 
L 65.375 72.90625 
L 65.375 0 
L 55.515625 0 
L 55.515625 34.71875 
L 19.671875 34.71875 
L 19.671875 0 
L 9.8125 0 
z
" id="DejaVuSans-72"/>
       <path d="M 5.515625 54.6875 
L 48.1875 54.6875 
L 48.1875 46.484375 
L 14.40625 7.171875 
L 48.1875 7.171875 
L 48.1875 0 
L 4.296875 0 
L 4.296875 8.203125 
L 38.09375 47.515625 
L 5.515625 47.515625 
z
" id="DejaVuSans-122"/>
       <path d="M 8.015625 75.875 
L 15.828125 75.875 
Q 23.140625 64.359375 26.78125 53.3125 
Q 30.421875 42.28125 30.421875 31.390625 
Q 30.421875 20.453125 26.78125 9.375 
Q 23.140625 -1.703125 15.828125 -13.1875 
L 8.015625 -13.1875 
Q 14.5 -2 17.703125 9.0625 
Q 20.90625 20.125 20.90625 31.390625 
Q 20.90625 42.671875 17.703125 53.65625 
Q 14.5 64.65625 8.015625 75.875 
z
" id="DejaVuSans-41"/>
      </defs>
      <use xlink:href="#DejaVuSans-68"/>
      <use x="77.001953" xlink:href="#DejaVuSans-101"/>
      <use x="138.525391" xlink:href="#DejaVuSans-116"/>
      <use x="177.734375" xlink:href="#DejaVuSans-117"/>
      <use x="241.113281" xlink:href="#DejaVuSans-110"/>
      <use x="304.492188" xlink:href="#DejaVuSans-105"/>
      <use x="332.275391" xlink:href="#DejaVuSans-110"/>
      <use x="395.654297" xlink:href="#DejaVuSans-103"/>
      <use x="459.130859" xlink:href="#DejaVuSans-32"/>
      <use x="490.917969" xlink:href="#DejaVuSans-102"/>
      <use x="526.123047" xlink:href="#DejaVuSans-114"/>
      <use x="564.986328" xlink:href="#DejaVuSans-111"/>
      <use x="626.167969" xlink:href="#DejaVuSans-109"/>
      <use x="723.580078" xlink:href="#DejaVuSans-32"/>
      <use x="755.367188" xlink:href="#DejaVuSans-114"/>
      <use x="794.230469" xlink:href="#DejaVuSans-101"/>
      <use x="855.753906" xlink:href="#DejaVuSans-115"/>
      <use x="907.853516" xlink:href="#DejaVuSans-111"/>
      <use x="969.035156" xlink:href="#DejaVuSans-110"/>
      <use x="1032.414062" xlink:href="#DejaVuSans-97"/>
      <use x="1093.693359" xlink:href="#DejaVuSans-110"/>
      <use x="1157.072266" xlink:href="#DejaVuSans-99"/>
      <use x="1212.052734" xlink:href="#DejaVuSans-101"/>
      <use x="1273.576172" xlink:href="#DejaVuSans-32"/>
      <use x="1305.363281" xlink:href="#DejaVuSans-40"/>
      <use x="1344.376953" xlink:href="#DejaVuSans-107"/>
      <use x="1402.287109" xlink:href="#DejaVuSans-72"/>
      <use x="1477.482422" xlink:href="#DejaVuSans-122"/>
      <use x="1529.972656" xlink:href="#DejaVuSans-41"/>
     </g>
    </g>
   </g>
   <g id="matplotlib.axis_2">
    <g id="ytick_1">
     <g id="line2d_11">
      <path clip-path="url(#pd7eae6a590)" d="M 61.410938 246.918751 
L 418.530938 246.918751 
" style="fill:none;stroke:#b0b0b0;stroke-linecap:square;stroke-width:0.8;"/>
     </g>
     <g id="line2d_12">
      <defs>
       <path d="M 0 0 
L -3.5 0 
" id="mc3ce260a5b" style="stroke:#000000;stroke-width:0.8;"/>
      </defs>
      <g>
       <use style="stroke:#000000;stroke-width:0.8;" x="61.410938" xlink:href="#mc3ce260a5b" y="246.918751"/>
      </g>
     </g>
     <g id="text_7">
      <!-- 0.2 -->
      <g transform="translate(30.55625 252.617579)scale(0.15 -0.15)">
       <defs>
        <path d="M 10.6875 12.40625 
L 21 12.40625 
L 21 0 
L 10.6875 0 
z
" id="DejaVuSans-46"/>
        <path d="M 19.1875 8.296875 
L 53.609375 8.296875 
L 53.609375 0 
L 7.328125 0 
L 7.328125 8.296875 
Q 12.9375 14.109375 22.625 23.890625 
Q 32.328125 33.6875 34.8125 36.53125 
Q 39.546875 41.84375 41.421875 45.53125 
Q 43.3125 49.21875 43.3125 52.78125 
Q 43.3125 58.59375 39.234375 62.25 
Q 35.15625 65.921875 28.609375 65.921875 
Q 23.96875 65.921875 18.8125 64.3125 
Q 13.671875 62.703125 7.8125 59.421875 
L 7.8125 69.390625 
Q 13.765625 71.78125 18.9375 73 
Q 24.125 74.21875 28.421875 74.21875 
Q 39.75 74.21875 46.484375 68.546875 
Q 53.21875 62.890625 53.21875 53.421875 
Q 53.21875 48.921875 51.53125 44.890625 
Q 49.859375 40.875 45.40625 35.40625 
Q 44.1875 33.984375 37.640625 27.21875 
Q 31.109375 20.453125 19.1875 8.296875 
z
" id="DejaVuSans-50"/>
       </defs>
       <use xlink:href="#DejaVuSans-48"/>
       <use x="63.623047" xlink:href="#DejaVuSans-46"/>
       <use x="95.410156" xlink:href="#DejaVuSans-50"/>
      </g>
     </g>
    </g>
    <g id="ytick_2">
     <g id="line2d_13">
      <path clip-path="url(#pd7eae6a590)" d="M 61.410938 200.114767 
L 418.530938 200.114767 
" style="fill:none;stroke:#b0b0b0;stroke-linecap:square;stroke-width:0.8;"/>
     </g>
     <g id="line2d_14">
      <g>
       <use style="stroke:#000000;stroke-width:0.8;" x="61.410938" xlink:href="#mc3ce260a5b" y="200.114767"/>
      </g>
     </g>
     <g id="text_8">
      <!-- 0.4 -->
      <g transform="translate(30.55625 205.813595)scale(0.15 -0.15)">
       <defs>
        <path d="M 37.796875 64.3125 
L 12.890625 25.390625 
L 37.796875 25.390625 
z
M 35.203125 72.90625 
L 47.609375 72.90625 
L 47.609375 25.390625 
L 58.015625 25.390625 
L 58.015625 17.1875 
L 47.609375 17.1875 
L 47.609375 0 
L 37.796875 0 
L 37.796875 17.1875 
L 4.890625 17.1875 
L 4.890625 26.703125 
z
" id="DejaVuSans-52"/>
       </defs>
       <use xlink:href="#DejaVuSans-48"/>
       <use x="63.623047" xlink:href="#DejaVuSans-46"/>
       <use x="95.410156" xlink:href="#DejaVuSans-52"/>
      </g>
     </g>
    </g>
    <g id="ytick_3">
     <g id="line2d_15">
      <path clip-path="url(#pd7eae6a590)" d="M 61.410938 153.310782 
L 418.530938 153.310782 
" style="fill:none;stroke:#b0b0b0;stroke-linecap:square;stroke-width:0.8;"/>
     </g>
     <g id="line2d_16">
      <g>
       <use style="stroke:#000000;stroke-width:0.8;" x="61.410938" xlink:href="#mc3ce260a5b" y="153.310782"/>
      </g>
     </g>
     <g id="text_9">
      <!-- 0.6 -->
      <g transform="translate(30.55625 159.00961)scale(0.15 -0.15)">
       <defs>
        <path d="M 33.015625 40.375 
Q 26.375 40.375 22.484375 35.828125 
Q 18.609375 31.296875 18.609375 23.390625 
Q 18.609375 15.53125 22.484375 10.953125 
Q 26.375 6.390625 33.015625 6.390625 
Q 39.65625 6.390625 43.53125 10.953125 
Q 47.40625 15.53125 47.40625 23.390625 
Q 47.40625 31.296875 43.53125 35.828125 
Q 39.65625 40.375 33.015625 40.375 
z
M 52.59375 71.296875 
L 52.59375 62.3125 
Q 48.875 64.0625 45.09375 64.984375 
Q 41.3125 65.921875 37.59375 65.921875 
Q 27.828125 65.921875 22.671875 59.328125 
Q 17.53125 52.734375 16.796875 39.40625 
Q 19.671875 43.65625 24.015625 45.921875 
Q 28.375 48.1875 33.59375 48.1875 
Q 44.578125 48.1875 50.953125 41.515625 
Q 57.328125 34.859375 57.328125 23.390625 
Q 57.328125 12.15625 50.6875 5.359375 
Q 44.046875 -1.421875 33.015625 -1.421875 
Q 20.359375 -1.421875 13.671875 8.265625 
Q 6.984375 17.96875 6.984375 36.375 
Q 6.984375 53.65625 15.1875 63.9375 
Q 23.390625 74.21875 37.203125 74.21875 
Q 40.921875 74.21875 44.703125 73.484375 
Q 48.484375 72.75 52.59375 71.296875 
z
" id="DejaVuSans-54"/>
       </defs>
       <use xlink:href="#DejaVuSans-48"/>
       <use x="63.623047" xlink:href="#DejaVuSans-46"/>
       <use x="95.410156" xlink:href="#DejaVuSans-54"/>
      </g>
     </g>
    </g>
    <g id="ytick_4">
     <g id="line2d_17">
      <path clip-path="url(#pd7eae6a590)" d="M 61.410938 106.506797 
L 418.530938 106.506797 
" style="fill:none;stroke:#b0b0b0;stroke-linecap:square;stroke-width:0.8;"/>
     </g>
     <g id="line2d_18">
      <g>
       <use style="stroke:#000000;stroke-width:0.8;" x="61.410938" xlink:href="#mc3ce260a5b" y="106.506797"/>
      </g>
     </g>
     <g id="text_10">
      <!-- 0.8 -->
      <g transform="translate(30.55625 112.205625)scale(0.15 -0.15)">
       <defs>
        <path d="M 31.78125 34.625 
Q 24.75 34.625 20.71875 30.859375 
Q 16.703125 27.09375 16.703125 20.515625 
Q 16.703125 13.921875 20.71875 10.15625 
Q 24.75 6.390625 31.78125 6.390625 
Q 38.8125 6.390625 42.859375 10.171875 
Q 46.921875 13.96875 46.921875 20.515625 
Q 46.921875 27.09375 42.890625 30.859375 
Q 38.875 34.625 31.78125 34.625 
z
M 21.921875 38.8125 
Q 15.578125 40.375 12.03125 44.71875 
Q 8.5 49.078125 8.5 55.328125 
Q 8.5 64.0625 14.71875 69.140625 
Q 20.953125 74.21875 31.78125 74.21875 
Q 42.671875 74.21875 48.875 69.140625 
Q 55.078125 64.0625 55.078125 55.328125 
Q 55.078125 49.078125 51.53125 44.71875 
Q 48 40.375 41.703125 38.8125 
Q 48.828125 37.15625 52.796875 32.3125 
Q 56.78125 27.484375 56.78125 20.515625 
Q 56.78125 9.90625 50.3125 4.234375 
Q 43.84375 -1.421875 31.78125 -1.421875 
Q 19.734375 -1.421875 13.25 4.234375 
Q 6.78125 9.90625 6.78125 20.515625 
Q 6.78125 27.484375 10.78125 32.3125 
Q 14.796875 37.15625 21.921875 38.8125 
z
M 18.3125 54.390625 
Q 18.3125 48.734375 21.84375 45.5625 
Q 25.390625 42.390625 31.78125 42.390625 
Q 38.140625 42.390625 41.71875 45.5625 
Q 45.3125 48.734375 45.3125 54.390625 
Q 45.3125 60.0625 41.71875 63.234375 
Q 38.140625 66.40625 31.78125 66.40625 
Q 25.390625 66.40625 21.84375 63.234375 
Q 18.3125 60.0625 18.3125 54.390625 
z
" id="DejaVuSans-56"/>
       </defs>
       <use xlink:href="#DejaVuSans-48"/>
       <use x="63.623047" xlink:href="#DejaVuSans-46"/>
       <use x="95.410156" xlink:href="#DejaVuSans-56"/>
      </g>
     </g>
    </g>
    <g id="ytick_5">
     <g id="line2d_19">
      <path clip-path="url(#pd7eae6a590)" d="M 61.410938 59.702813 
L 418.530938 59.702813 
" style="fill:none;stroke:#b0b0b0;stroke-linecap:square;stroke-width:0.8;"/>
     </g>
     <g id="line2d_20">
      <g>
       <use style="stroke:#000000;stroke-width:0.8;" x="61.410938" xlink:href="#mc3ce260a5b" y="59.702813"/>
      </g>
     </g>
     <g id="text_11">
      <!-- 1.0 -->
      <g transform="translate(30.55625 65.401641)scale(0.15 -0.15)">
       <use xlink:href="#DejaVuSans-49"/>
       <use x="63.623047" xlink:href="#DejaVuSans-46"/>
       <use x="95.410156" xlink:href="#DejaVuSans-48"/>
      </g>
     </g>
    </g>
    <g id="ytick_6">
     <g id="line2d_21">
      <path clip-path="url(#pd7eae6a590)" d="M 61.410938 12.898828 
L 418.530938 12.898828 
" style="fill:none;stroke:#b0b0b0;stroke-linecap:square;stroke-width:0.8;"/>
     </g>
     <g id="line2d_22">
      <g>
       <use style="stroke:#000000;stroke-width:0.8;" x="61.410938" xlink:href="#mc3ce260a5b" y="12.898828"/>
      </g>
     </g>
     <g id="text_12">
      <!-- 1.2 -->
      <g transform="translate(30.55625 18.597656)scale(0.15 -0.15)">
       <use xlink:href="#DejaVuSans-49"/>
       <use x="63.623047" xlink:href="#DejaVuSans-46"/>
       <use x="95.410156" xlink:href="#DejaVuSans-50"/>
      </g>
     </g>
    </g>
    <g id="text_13">
     <!-- % Atomic Ground State -->
     <g transform="translate(22.396875 262.643547)rotate(-90)scale(0.2 -0.2)">
      <defs>
       <path d="M 72.703125 32.078125 
Q 68.453125 32.078125 66.03125 28.46875 
Q 63.625 24.859375 63.625 18.40625 
Q 63.625 12.0625 66.03125 8.421875 
Q 68.453125 4.78125 72.703125 4.78125 
Q 76.859375 4.78125 79.265625 8.421875 
Q 81.6875 12.0625 81.6875 18.40625 
Q 81.6875 24.8125 79.265625 28.4375 
Q 76.859375 32.078125 72.703125 32.078125 
z
M 72.703125 38.28125 
Q 80.421875 38.28125 84.953125 32.90625 
Q 89.5 27.546875 89.5 18.40625 
Q 89.5 9.28125 84.9375 3.921875 
Q 80.375 -1.421875 72.703125 -1.421875 
Q 64.890625 -1.421875 60.34375 3.921875 
Q 55.8125 9.28125 55.8125 18.40625 
Q 55.8125 27.59375 60.375 32.9375 
Q 64.9375 38.28125 72.703125 38.28125 
z
M 22.3125 68.015625 
Q 18.109375 68.015625 15.6875 64.375 
Q 13.28125 60.75 13.28125 54.390625 
Q 13.28125 47.953125 15.671875 44.328125 
Q 18.0625 40.71875 22.3125 40.71875 
Q 26.5625 40.71875 28.96875 44.328125 
Q 31.390625 47.953125 31.390625 54.390625 
Q 31.390625 60.6875 28.953125 64.34375 
Q 26.515625 68.015625 22.3125 68.015625 
z
M 66.40625 74.21875 
L 74.21875 74.21875 
L 28.609375 -1.421875 
L 20.796875 -1.421875 
z
M 22.3125 74.21875 
Q 30.03125 74.21875 34.609375 68.875 
Q 39.203125 63.53125 39.203125 54.390625 
Q 39.203125 45.171875 34.640625 39.84375 
Q 30.078125 34.515625 22.3125 34.515625 
Q 14.546875 34.515625 10.03125 39.859375 
Q 5.515625 45.21875 5.515625 54.390625 
Q 5.515625 63.484375 10.046875 68.84375 
Q 14.59375 74.21875 22.3125 74.21875 
z
" id="DejaVuSans-37"/>
       <path d="M 34.1875 63.1875 
L 20.796875 26.90625 
L 47.609375 26.90625 
z
M 28.609375 72.90625 
L 39.796875 72.90625 
L 67.578125 0 
L 57.328125 0 
L 50.6875 18.703125 
L 17.828125 18.703125 
L 11.1875 0 
L 0.78125 0 
z
" id="DejaVuSans-65"/>
       <path d="M 59.515625 10.40625 
L 59.515625 29.984375 
L 43.40625 29.984375 
L 43.40625 38.09375 
L 69.28125 38.09375 
L 69.28125 6.78125 
Q 63.578125 2.734375 56.6875 0.65625 
Q 49.8125 -1.421875 42 -1.421875 
Q 24.90625 -1.421875 15.25 8.5625 
Q 5.609375 18.5625 5.609375 36.375 
Q 5.609375 54.25 15.25 64.234375 
Q 24.90625 74.21875 42 74.21875 
Q 49.125 74.21875 55.546875 72.453125 
Q 61.96875 70.703125 67.390625 67.28125 
L 67.390625 56.78125 
Q 61.921875 61.421875 55.765625 63.765625 
Q 49.609375 66.109375 42.828125 66.109375 
Q 29.4375 66.109375 22.71875 58.640625 
Q 16.015625 51.171875 16.015625 36.375 
Q 16.015625 21.625 22.71875 14.15625 
Q 29.4375 6.6875 42.828125 6.6875 
Q 48.046875 6.6875 52.140625 7.59375 
Q 56.25 8.5 59.515625 10.40625 
z
" id="DejaVuSans-71"/>
       <path d="M 45.40625 46.390625 
L 45.40625 75.984375 
L 54.390625 75.984375 
L 54.390625 0 
L 45.40625 0 
L 45.40625 8.203125 
Q 42.578125 3.328125 38.25 0.953125 
Q 33.9375 -1.421875 27.875 -1.421875 
Q 17.96875 -1.421875 11.734375 6.484375 
Q 5.515625 14.40625 5.515625 27.296875 
Q 5.515625 40.1875 11.734375 48.09375 
Q 17.96875 56 27.875 56 
Q 33.9375 56 38.25 53.625 
Q 42.578125 51.265625 45.40625 46.390625 
z
M 14.796875 27.296875 
Q 14.796875 17.390625 18.875 11.75 
Q 22.953125 6.109375 30.078125 6.109375 
Q 37.203125 6.109375 41.296875 11.75 
Q 45.40625 17.390625 45.40625 27.296875 
Q 45.40625 37.203125 41.296875 42.84375 
Q 37.203125 48.484375 30.078125 48.484375 
Q 22.953125 48.484375 18.875 42.84375 
Q 14.796875 37.203125 14.796875 27.296875 
z
" id="DejaVuSans-100"/>
       <path d="M 53.515625 70.515625 
L 53.515625 60.890625 
Q 47.90625 63.578125 42.921875 64.890625 
Q 37.9375 66.21875 33.296875 66.21875 
Q 25.25 66.21875 20.875 63.09375 
Q 16.5 59.96875 16.5 54.203125 
Q 16.5 49.359375 19.40625 46.890625 
Q 22.3125 44.4375 30.421875 42.921875 
L 36.375 41.703125 
Q 47.40625 39.59375 52.65625 34.296875 
Q 57.90625 29 57.90625 20.125 
Q 57.90625 9.515625 50.796875 4.046875 
Q 43.703125 -1.421875 29.984375 -1.421875 
Q 24.8125 -1.421875 18.96875 -0.25 
Q 13.140625 0.921875 6.890625 3.21875 
L 6.890625 13.375 
Q 12.890625 10.015625 18.65625 8.296875 
Q 24.421875 6.59375 29.984375 6.59375 
Q 38.421875 6.59375 43.015625 9.90625 
Q 47.609375 13.234375 47.609375 19.390625 
Q 47.609375 24.75 44.3125 27.78125 
Q 41.015625 30.8125 33.5 32.328125 
L 27.484375 33.5 
Q 16.453125 35.6875 11.515625 40.375 
Q 6.59375 45.0625 6.59375 53.421875 
Q 6.59375 63.09375 13.40625 68.65625 
Q 20.21875 74.21875 32.171875 74.21875 
Q 37.3125 74.21875 42.625 73.28125 
Q 47.953125 72.359375 53.515625 70.515625 
z
" id="DejaVuSans-83"/>
      </defs>
      <use xlink:href="#DejaVuSans-37"/>
      <use x="95.019531" xlink:href="#DejaVuSans-32"/>
      <use x="126.806641" xlink:href="#DejaVuSans-65"/>
      <use x="193.464844" xlink:href="#DejaVuSans-116"/>
      <use x="232.673828" xlink:href="#DejaVuSans-111"/>
      <use x="293.855469" xlink:href="#DejaVuSans-109"/>
      <use x="391.267578" xlink:href="#DejaVuSans-105"/>
      <use x="419.050781" xlink:href="#DejaVuSans-99"/>
      <use x="474.03125" xlink:href="#DejaVuSans-32"/>
      <use x="505.818359" xlink:href="#DejaVuSans-71"/>
      <use x="583.308594" xlink:href="#DejaVuSans-114"/>
      <use x="622.171875" xlink:href="#DejaVuSans-111"/>
      <use x="683.353516" xlink:href="#DejaVuSans-117"/>
      <use x="746.732422" xlink:href="#DejaVuSans-110"/>
      <use x="810.111328" xlink:href="#DejaVuSans-100"/>
      <use x="873.587891" xlink:href="#DejaVuSans-32"/>
      <use x="905.375" xlink:href="#DejaVuSans-83"/>
      <use x="968.851562" xlink:href="#DejaVuSans-116"/>
      <use x="1008.060547" xlink:href="#DejaVuSans-97"/>
      <use x="1069.339844" xlink:href="#DejaVuSans-116"/>
      <use x="1108.548828" xlink:href="#DejaVuSans-101"/>
     </g>
    </g>
   </g>
   <g id="LineCollection_1">
    <path clip-path="url(#pd7eae6a590)" d="M 254.974127 60.560941 
L 254.974127 28.124097 
" style="fill:none;stroke:#1f77b4;stroke-width:1.5;"/>
   </g>
   <g id="LineCollection_2">
    <path clip-path="url(#pd7eae6a590)" d="M 131.752756 87.305368 
L 131.752756 56.300857 
" style="fill:none;stroke:#ff7f0e;stroke-width:1.5;"/>
    <path clip-path="url(#pd7eae6a590)" d="M 153.396392 67.646406 
L 153.396392 35.691641 
" style="fill:none;stroke:#ff7f0e;stroke-width:1.5;"/>
    <path clip-path="url(#pd7eae6a590)" d="M 175.040028 81.581648 
L 175.040028 50.096297 
" style="fill:none;stroke:#ff7f0e;stroke-width:1.5;"/>
    <path clip-path="url(#pd7eae6a590)" d="M 196.683665 100.216147 
L 196.683665 70.719026 
" style="fill:none;stroke:#ff7f0e;stroke-width:1.5;"/>
    <path clip-path="url(#pd7eae6a590)" d="M 218.327301 200.972997 
L 218.327301 177.298093 
" style="fill:none;stroke:#ff7f0e;stroke-width:1.5;"/>
    <path clip-path="url(#pd7eae6a590)" d="M 239.970937 253.932977 
L 239.970937 237.639066 
" style="fill:none;stroke:#ff7f0e;stroke-width:1.5;"/>
    <path clip-path="url(#pd7eae6a590)" d="M 261.614574 266.59886 
L 261.614574 253.276331 
" style="fill:none;stroke:#ff7f0e;stroke-width:1.5;"/>
    <path clip-path="url(#pd7eae6a590)" d="M 283.25821 226.591919 
L 283.25821 206.039785 
" style="fill:none;stroke:#ff7f0e;stroke-width:1.5;"/>
    <path clip-path="url(#pd7eae6a590)" d="M 304.901847 157.284395 
L 304.901847 131.812073 
" style="fill:none;stroke:#ff7f0e;stroke-width:1.5;"/>
    <path clip-path="url(#pd7eae6a590)" d="M 326.545483 118.189523 
L 326.545483 89.686975 
" style="fill:none;stroke:#ff7f0e;stroke-width:1.5;"/>
    <path clip-path="url(#pd7eae6a590)" d="M 348.189119 84.472267 
L 348.189119 52.561214 
" style="fill:none;stroke:#ff7f0e;stroke-width:1.5;"/>
   </g>
   <g id="LineCollection_3">
    <path clip-path="url(#pd7eae6a590)" d="M 91.170938 55.989505 
L 91.170938 24.67886 
" style="fill:none;stroke:#2ca02c;stroke-width:1.5;"/>
    <path clip-path="url(#pd7eae6a590)" d="M 120.930938 90.228543 
L 120.930938 59.149112 
" style="fill:none;stroke:#2ca02c;stroke-width:1.5;"/>
    <path clip-path="url(#pd7eae6a590)" d="M 150.690937 100.634086 
L 150.690937 70.100719 
" style="fill:none;stroke:#2ca02c;stroke-width:1.5;"/>
    <path clip-path="url(#pd7eae6a590)" d="M 180.450938 129.979512 
L 180.450938 100.377464 
" style="fill:none;stroke:#2ca02c;stroke-width:1.5;"/>
    <path clip-path="url(#pd7eae6a590)" d="M 210.210937 153.514646 
L 210.210937 126.366196 
" style="fill:none;stroke:#2ca02c;stroke-width:1.5;"/>
    <path clip-path="url(#pd7eae6a590)" d="M 239.970937 186.95834 
L 239.970937 162.490488 
" style="fill:none;stroke:#2ca02c;stroke-width:1.5;"/>
    <path clip-path="url(#pd7eae6a590)" d="M 269.730938 174.997493 
L 269.730938 150.154396 
" style="fill:none;stroke:#2ca02c;stroke-width:1.5;"/>
    <path clip-path="url(#pd7eae6a590)" d="M 299.490937 137.920783 
L 299.490937 109.826224 
" style="fill:none;stroke:#2ca02c;stroke-width:1.5;"/>
    <path clip-path="url(#pd7eae6a590)" d="M 329.250938 124.46978 
L 329.250938 95.589303 
" style="fill:none;stroke:#2ca02c;stroke-width:1.5;"/>
    <path clip-path="url(#pd7eae6a590)" d="M 359.010937 63.25624 
L 359.010937 31.607562 
" style="fill:none;stroke:#2ca02c;stroke-width:1.5;"/>
    <path clip-path="url(#pd7eae6a590)" d="M 388.770937 89.206925 
L 388.770937 57.887305 
" style="fill:none;stroke:#2ca02c;stroke-width:1.5;"/>
   </g>
   <g id="line2d_23">
    <path clip-path="url(#pd7eae6a590)" d="M 77.643665 59.702813 
L 402.29821 59.702813 
" style="fill:none;stroke:#1f77b4;stroke-linecap:square;stroke-width:1.5;"/>
   </g>
   <g id="line2d_24">
    <path clip-path="url(#pd7eae6a590)" d="M 77.643665 77.498197 
L 83.493296 79.189553 
L 88.04301 80.281483 
L 92.267743 81.062236 
L 96.167498 81.548925 
L 99.742272 81.778316 
L 103.317047 81.790703 
L 106.891822 81.584983 
L 110.466597 81.168931 
L 114.366351 80.495608 
L 118.916064 79.467748 
L 124.765696 77.889342 
L 134.515082 75.227402 
L 138.414836 74.405197 
L 141.664631 73.933854 
L 144.589447 73.728526 
L 147.189283 73.756773 
L 149.789119 74.014937 
L 152.063976 74.452594 
L 154.338833 75.107749 
L 156.613689 75.998334 
L 158.888546 77.141074 
L 161.163403 78.551261 
L 163.438259 80.242548 
L 165.713116 82.226747 
L 167.987973 84.513638 
L 170.262829 87.110799 
L 172.537686 90.02345 
L 175.137522 93.741887 
L 177.737358 97.875751 
L 180.337195 102.420304 
L 183.26201 108.011835 
L 186.186826 114.090233 
L 189.436621 121.380143 
L 193.011396 129.992476 
L 196.91115 140.002454 
L 201.460864 152.324991 
L 207.635475 169.750583 
L 218.03482 199.168072 
L 222.584533 211.319111 
L 226.159308 220.27642 
L 229.409103 227.841354 
L 232.333919 234.094954 
L 234.933755 239.156308 
L 237.533591 243.704601 
L 239.808448 247.232744 
L 242.083304 250.314872 
L 244.033182 252.586115 
L 245.983059 254.503468 
L 247.607956 255.82408 
L 249.232854 256.887844 
L 250.857752 257.691115 
L 252.482649 258.231137 
L 254.107547 258.506054 
L 255.732444 258.514923 
L 257.357342 258.257713 
L 258.98224 257.735307 
L 260.607137 256.9495 
L 262.232035 255.902988 
L 263.856933 254.599358 
L 265.48183 253.04307 
L 267.431707 250.849556 
L 269.381585 248.31066 
L 271.656441 244.928724 
L 273.931298 241.116003 
L 276.531134 236.263407 
L 279.13097 230.922377 
L 282.055786 224.38623 
L 285.305581 216.550188 
L 288.880356 207.349899 
L 293.430069 194.977018 
L 299.92966 176.567295 
L 309.354066 149.933846 
L 313.903779 137.728332 
L 317.803534 127.851348 
L 321.378309 119.383327 
L 324.628104 112.239875 
L 327.552919 106.303121 
L 330.477735 100.860196 
L 333.077571 96.451732 
L 335.677408 92.456058 
L 338.277244 88.876357 
L 340.87708 85.711237 
L 343.151937 83.27741 
L 345.426793 81.150169 
L 347.70165 79.320761 
L 349.976507 77.778319 
L 352.251363 76.510042 
L 354.52622 75.501393 
L 356.801077 74.736303 
L 359.075933 74.197386 
L 361.35079 73.866163 
L 363.950626 73.717098 
L 366.550462 73.78415 
L 369.475278 74.079906 
L 372.725073 74.630847 
L 376.624828 75.520123 
L 382.474459 77.116938 
L 391.573886 79.601576 
L 396.123599 80.601704 
L 400.023354 81.244927 
L 402.29821 81.513876 
L 402.29821 81.513876 
" style="fill:none;stroke:#ff7f0e;stroke-linecap:square;stroke-width:1.5;"/>
   </g>
   <g id="line2d_25">
    <path clip-path="url(#pd7eae6a590)" d="M 77.643665 83.593614 
L 80.243501 83.055093 
L 83.493296 82.137822 
L 91.292805 79.797146 
L 93.892641 79.314971 
L 96.167498 79.136467 
L 98.117375 79.201025 
L 100.067252 79.487776 
L 102.017129 80.0073 
L 103.967006 80.76001 
L 105.916883 81.73573 
L 108.19174 83.127754 
L 110.791576 84.990603 
L 114.691331 88.111161 
L 119.566023 91.984466 
L 122.16586 93.762053 
L 124.440716 95.030051 
L 126.390594 95.852571 
L 128.015491 96.329199 
L 129.640389 96.604988 
L 131.265286 96.676356 
L 132.890184 96.546538 
L 134.840061 96.140079 
L 136.789938 95.489835 
L 139.064795 94.483204 
L 142.31459 92.761491 
L 146.539324 90.529354 
L 148.814181 89.591282 
L 150.439078 89.128123 
L 152.063976 88.887035 
L 153.688874 88.907434 
L 154.988792 89.13509 
L 156.28871 89.566415 
L 157.588628 90.212793 
L 158.888546 91.082272 
L 160.188464 92.179331 
L 161.813362 93.871437 
L 163.438259 95.912939 
L 165.063157 98.287285 
L 167.013034 101.538796 
L 169.287891 105.807427 
L 172.212707 111.849934 
L 180.987154 130.427815 
L 183.26201 134.499458 
L 185.211888 137.509891 
L 186.836785 139.624157 
L 188.461683 141.345683 
L 189.761601 142.425646 
L 191.061519 143.23508 
L 192.361437 143.773337 
L 193.661355 144.044748 
L 194.961273 144.058646 
L 196.261191 143.829296 
L 197.561109 143.375739 
L 199.186007 142.529821 
L 200.810905 141.425883 
L 203.085761 139.570439 
L 209.260372 134.259423 
L 210.88527 133.196125 
L 212.185188 132.552936 
L 213.485106 132.134707 
L 214.785024 131.975737 
L 215.759963 132.045237 
L 216.734901 132.289283 
L 217.70984 132.717787 
L 218.684779 133.339068 
L 219.984697 134.478512 
L 221.284615 135.982979 
L 222.584533 137.857279 
L 223.884451 140.100106 
L 225.509349 143.409825 
L 227.134246 147.254839 
L 229.084123 152.513789 
L 231.35898 159.408087 
L 233.958816 168.0338 
L 243.058243 198.950604 
L 245.00812 204.535279 
L 246.633018 208.625475 
L 248.257915 212.114477 
L 249.557833 214.424595 
L 250.857752 216.273849 
L 251.83269 217.343449 
L 252.807629 218.132016 
L 253.782567 218.633675 
L 254.757506 218.844684 
L 255.732444 218.763469 
L 256.707383 218.390635 
L 257.682322 217.728964 
L 258.65726 216.78339 
L 259.632199 215.56095 
L 260.932117 213.516333 
L 262.232035 211.022793 
L 263.856933 207.324857 
L 265.48183 203.052103 
L 267.431707 197.287946 
L 270.031544 188.795779 
L 274.581257 172.916163 
L 278.156032 160.798461 
L 280.430888 153.768803 
L 282.380766 148.365255 
L 284.330643 143.649764 
L 285.95554 140.303333 
L 287.580438 137.519094 
L 288.880356 135.706527 
L 290.180274 134.263413 
L 291.480192 133.183935 
L 292.78011 132.456397 
L 293.755049 132.131513 
L 294.729987 131.985769 
L 296.029906 132.051326 
L 297.329824 132.386791 
L 298.629742 132.959014 
L 300.254639 133.951576 
L 302.204517 135.447807 
L 305.454312 138.318265 
L 308.704107 141.095967 
L 310.653984 142.463627 
L 312.278882 143.328558 
L 313.5788 143.799784 
L 314.878718 144.048599 
L 316.178636 144.055571 
L 317.478554 143.806032 
L 318.778472 143.290234 
L 320.07839 142.503428 
L 321.378309 141.445851 
L 322.678227 140.122624 
L 324.303124 138.110407 
L 325.928022 135.727615 
L 327.877899 132.434061 
L 330.152756 128.098815 
L 333.077571 121.985577 
L 340.87708 105.381733 
L 343.151937 101.15736 
L 345.101814 97.952216 
L 347.051691 95.194362 
L 348.676589 93.267968 
L 350.301486 91.694378 
L 351.926384 90.477493 
L 353.226302 89.757482 
L 354.52622 89.255588 
L 355.826138 88.961512 
L 357.126056 88.861804 
L 358.750954 88.98548 
L 360.375852 89.350212 
L 362.325729 90.047011 
L 364.600585 91.117638 
L 373.375033 95.572875 
L 375.32491 96.197982 
L 377.274787 96.575183 
L 378.899684 96.678605 
L 380.524582 96.580009 
L 382.14948 96.277082 
L 383.774377 95.77429 
L 385.724254 94.922813 
L 387.674132 93.829119 
L 389.948988 92.30061 
L 392.873804 90.055517 
L 400.998292 83.644694 
L 402.29821 82.77371 
L 402.29821 82.77371 
" style="fill:none;stroke:#2ca02c;stroke-linecap:square;stroke-width:1.5;"/>
   </g>
   <g id="line2d_26">
    <defs>
     <path d="M 0 3 
C 0.795609 3 1.55874 2.683901 2.12132 2.12132 
C 2.683901 1.55874 3 0.795609 3 0 
C 3 -0.795609 2.683901 -1.55874 2.12132 -2.12132 
C 1.55874 -2.683901 0.795609 -3 0 -3 
C -0.795609 -3 -1.55874 -2.683901 -2.12132 -2.12132 
C -2.683901 -1.55874 -3 -0.795609 -3 0 
C -3 0.795609 -2.683901 1.55874 -2.12132 2.12132 
C -1.55874 2.683901 -0.795609 3 0 3 
z
" id="mcb2457e3ba" style="stroke:#1f77b4;"/>
    </defs>
    <g clip-path="url(#pd7eae6a590)">
     <use style="fill:#1f77b4;stroke:#1f77b4;" x="254.974127" xlink:href="#mcb2457e3ba" y="44.342519"/>
    </g>
   </g>
   <g id="line2d_27">
    <defs>
     <path d="M 0 3 
C 0.795609 3 1.55874 2.683901 2.12132 2.12132 
C 2.683901 1.55874 3 0.795609 3 0 
C 3 -0.795609 2.683901 -1.55874 2.12132 -2.12132 
C 1.55874 -2.683901 0.795609 -3 0 -3 
C -0.795609 -3 -1.55874 -2.683901 -2.12132 -2.12132 
C -2.683901 -1.55874 -3 -0.795609 -3 0 
C -3 0.795609 -2.683901 1.55874 -2.12132 2.12132 
C -1.55874 2.683901 -0.795609 3 0 3 
z
" id="mbbb2a9d153" style="stroke:#ff7f0e;"/>
    </defs>
    <g clip-path="url(#pd7eae6a590)">
     <use style="fill:#ff7f0e;stroke:#ff7f0e;" x="131.752756" xlink:href="#mbbb2a9d153" y="71.803112"/>
     <use style="fill:#ff7f0e;stroke:#ff7f0e;" x="153.396392" xlink:href="#mbbb2a9d153" y="51.669024"/>
     <use style="fill:#ff7f0e;stroke:#ff7f0e;" x="175.040028" xlink:href="#mbbb2a9d153" y="65.838972"/>
     <use style="fill:#ff7f0e;stroke:#ff7f0e;" x="196.683665" xlink:href="#mbbb2a9d153" y="85.467586"/>
     <use style="fill:#ff7f0e;stroke:#ff7f0e;" x="218.327301" xlink:href="#mbbb2a9d153" y="189.135545"/>
     <use style="fill:#ff7f0e;stroke:#ff7f0e;" x="239.970937" xlink:href="#mbbb2a9d153" y="245.786022"/>
     <use style="fill:#ff7f0e;stroke:#ff7f0e;" x="261.614574" xlink:href="#mbbb2a9d153" y="259.937595"/>
     <use style="fill:#ff7f0e;stroke:#ff7f0e;" x="283.25821" xlink:href="#mbbb2a9d153" y="216.315852"/>
     <use style="fill:#ff7f0e;stroke:#ff7f0e;" x="304.901847" xlink:href="#mbbb2a9d153" y="144.548234"/>
     <use style="fill:#ff7f0e;stroke:#ff7f0e;" x="326.545483" xlink:href="#mbbb2a9d153" y="103.938249"/>
     <use style="fill:#ff7f0e;stroke:#ff7f0e;" x="348.189119" xlink:href="#mbbb2a9d153" y="68.51674"/>
    </g>
   </g>
   <g id="line2d_28">
    <defs>
     <path d="M 0 3 
C 0.795609 3 1.55874 2.683901 2.12132 2.12132 
C 2.683901 1.55874 3 0.795609 3 0 
C 3 -0.795609 2.683901 -1.55874 2.12132 -2.12132 
C 1.55874 -2.683901 0.795609 -3 0 -3 
C -0.795609 -3 -1.55874 -2.683901 -2.12132 -2.12132 
C -2.683901 -1.55874 -3 -0.795609 -3 0 
C -3 0.795609 -2.683901 1.55874 -2.12132 2.12132 
C -1.55874 2.683901 -0.795609 3 0 3 
z
" id="mbab2358add" style="stroke:#2ca02c;"/>
    </defs>
    <g clip-path="url(#pd7eae6a590)">
     <use style="fill:#2ca02c;stroke:#2ca02c;" x="91.170938" xlink:href="#mbab2358add" y="40.334182"/>
     <use style="fill:#2ca02c;stroke:#2ca02c;" x="120.930938" xlink:href="#mbab2358add" y="74.688827"/>
     <use style="fill:#2ca02c;stroke:#2ca02c;" x="150.690937" xlink:href="#mbab2358add" y="85.367402"/>
     <use style="fill:#2ca02c;stroke:#2ca02c;" x="180.450938" xlink:href="#mbab2358add" y="115.178488"/>
     <use style="fill:#2ca02c;stroke:#2ca02c;" x="210.210937" xlink:href="#mbab2358add" y="139.940421"/>
     <use style="fill:#2ca02c;stroke:#2ca02c;" x="239.970937" xlink:href="#mbab2358add" y="174.724414"/>
     <use style="fill:#2ca02c;stroke:#2ca02c;" x="269.730938" xlink:href="#mbab2358add" y="162.575944"/>
     <use style="fill:#2ca02c;stroke:#2ca02c;" x="299.490937" xlink:href="#mbab2358add" y="123.873503"/>
     <use style="fill:#2ca02c;stroke:#2ca02c;" x="329.250938" xlink:href="#mbab2358add" y="110.029541"/>
     <use style="fill:#2ca02c;stroke:#2ca02c;" x="359.010937" xlink:href="#mbab2358add" y="47.431901"/>
     <use style="fill:#2ca02c;stroke:#2ca02c;" x="388.770937" xlink:href="#mbab2358add" y="73.547115"/>
    </g>
   </g>
   <g id="patch_3">
    <path d="M 61.410938 278.69486 
L 61.410938 12.58286 
" style="fill:none;stroke:#000000;stroke-linecap:square;stroke-linejoin:miter;stroke-width:0.8;"/>
   </g>
   <g id="patch_4">
    <path d="M 418.530938 278.69486 
L 418.530938 12.58286 
" style="fill:none;stroke:#000000;stroke-linecap:square;stroke-linejoin:miter;stroke-width:0.8;"/>
   </g>
   <g id="patch_5">
    <path d="M 61.410938 278.69486 
L 418.530938 278.69486 
" style="fill:none;stroke:#000000;stroke-linecap:square;stroke-linejoin:miter;stroke-width:0.8;"/>
   </g>
   <g id="patch_6">
    <path d="M 61.410938 12.58286 
L 418.530938 12.58286 
" style="fill:none;stroke:#000000;stroke-linecap:square;stroke-linejoin:miter;stroke-width:0.8;"/>
   </g>
   <g id="legend_1">
    <g id="patch_7">
     <path d="M 308.332412 271.75486 
L 408.814937 271.75486 
Q 411.590937 271.75486 411.590937 268.97886 
L 411.590937 209.247147 
Q 411.590937 206.471147 408.814937 206.471147 
L 308.332412 206.471147 
Q 305.556412 206.471147 305.556412 209.247147 
L 305.556412 268.97886 
Q 305.556412 271.75486 308.332412 271.75486 
z
" style="fill:#ffffff;opacity:0.8;stroke:#cccccc;stroke-linejoin:miter;"/>
    </g>
    <g id="LineCollection_4">
     <path d="M 324.988412 224.651778 
L 324.988412 210.771778 
" style="fill:none;stroke:#1f77b4;stroke-width:1.5;"/>
    </g>
    <g id="line2d_29"/>
    <g id="line2d_30">
     <g>
      <use style="fill:#1f77b4;stroke:#1f77b4;" x="324.988412" xlink:href="#mcb2457e3ba" y="217.711778"/>
     </g>
    </g>
    <g id="text_14">
     <!-- 0.00 ms -->
     <g transform="translate(349.972412 222.569778)scale(0.1388 -0.1388)">
      <use xlink:href="#DejaVuSans-48"/>
      <use x="63.623047" xlink:href="#DejaVuSans-46"/>
      <use x="95.410156" xlink:href="#DejaVuSans-48"/>
      <use x="159.033203" xlink:href="#DejaVuSans-48"/>
      <use x="222.65625" xlink:href="#DejaVuSans-32"/>
      <use x="254.443359" xlink:href="#DejaVuSans-109"/>
      <use x="351.855469" xlink:href="#DejaVuSans-115"/>
     </g>
    </g>
    <g id="LineCollection_5">
     <path d="M 324.988412 245.025016 
L 324.988412 231.145016 
" style="fill:none;stroke:#ff7f0e;stroke-width:1.5;"/>
    </g>
    <g id="line2d_31"/>
    <g id="line2d_32">
     <g>
      <use style="fill:#ff7f0e;stroke:#ff7f0e;" x="324.988412" xlink:href="#mbbb2a9d153" y="238.085016"/>
     </g>
    </g>
    <g id="text_15">
     <!-- 0.12 ms -->
     <g transform="translate(349.972412 242.943016)scale(0.1388 -0.1388)">
      <use xlink:href="#DejaVuSans-48"/>
      <use x="63.623047" xlink:href="#DejaVuSans-46"/>
      <use x="95.410156" xlink:href="#DejaVuSans-49"/>
      <use x="159.033203" xlink:href="#DejaVuSans-50"/>
      <use x="222.65625" xlink:href="#DejaVuSans-32"/>
      <use x="254.443359" xlink:href="#DejaVuSans-109"/>
      <use x="351.855469" xlink:href="#DejaVuSans-115"/>
     </g>
    </g>
    <g id="LineCollection_6">
     <path d="M 324.988412 265.398253 
L 324.988412 251.518253 
" style="fill:none;stroke:#2ca02c;stroke-width:1.5;"/>
    </g>
    <g id="line2d_33"/>
    <g id="line2d_34">
     <g>
      <use style="fill:#2ca02c;stroke:#2ca02c;" x="324.988412" xlink:href="#mbab2358add" y="258.458253"/>
     </g>
    </g>
    <g id="text_16">
     <!-- 0.25 ms -->
     <g transform="translate(349.972412 263.316253)scale(0.1388 -0.1388)">
      <use xlink:href="#DejaVuSans-48"/>
      <use x="63.623047" xlink:href="#DejaVuSans-46"/>
      <use x="95.410156" xlink:href="#DejaVuSans-50"/>
      <use x="159.033203" xlink:href="#DejaVuSans-53"/>
      <use x="222.65625" xlink:href="#DejaVuSans-32"/>
      <use x="254.443359" xlink:href="#DejaVuSans-109"/>
      <use x="351.855469" xlink:href="#DejaVuSans-115"/>
     </g>
    </g>
   </g>
  </g>
 </g>
 <defs>
  <clipPath id="pd7eae6a590">
   <rect height="266.112" width="357.12" x="61.410938" y="12.58286"/>
  </clipPath>
 </defs>
</svg>
