<?xml version="1.0" encoding="utf-8" standalone="no"?>
<!DOCTYPE svg PUBLIC "-//W3C//DTD SVG 1.1//EN"
  "http://www.w3.org/Graphics/SVG/1.1/DTD/svg11.dtd">
<!-- Created with matplotlib (https://matplotlib.org/) -->
<svg height="352.5685pt" version="1.1" viewBox="0 0 425.730937 352.5685" width="425.730937pt" xmlns="http://www.w3.org/2000/svg" xmlns:xlink="http://www.w3.org/1999/xlink">
 <defs>
  <style type="text/css">*{stroke-linecap:butt;stroke-linejoin:round;}</style>
 </defs>
 <g id="figure_1">
  <g id="patch_1">
   <path d="M 0 352.5685 
L 425.730937 352.5685 
L 425.730937 0 
L 0 0 
z
" style="fill:none;"/>
  </g>
  <g id="axes_1">
   <g id="patch_2">
    <path d="M 61.410938 300.495062 
L 418.530938 300.495062 
L 418.530938 34.383062 
L 61.410938 34.383062 
z
" style="fill:none;"/>
   </g>
   <g id="matplotlib.axis_1">
    <g id="xtick_1">
     <g id="line2d_1">
      <path clip-path="url(#pf902fcb692)" d="M 119.7014 300.495062 
L 119.7014 34.383062 
" style="fill:none;stroke:#b0b0b0;stroke-linecap:square;stroke-width:0.8;"/>
     </g>
     <g id="line2d_2">
      <defs>
       <path d="M 0 0 
L 0 3.5 
" id="m005f0a59be" style="stroke:#000000;stroke-width:0.8;"/>
      </defs>
      <g>
       <use style="stroke:#000000;stroke-width:0.8;" x="119.7014" xlink:href="#m005f0a59be" y="300.495062"/>
      </g>
     </g>
     <g id="text_1">
      <!-- −10 -->
      <g transform="translate(103.872884 318.892719)scale(0.15 -0.15)">
       <defs>
        <path d="M 10.59375 35.5 
L 73.1875 35.5 
L 73.1875 27.203125 
L 10.59375 27.203125 
z
" id="DejaVuSans-8722"/>
        <path d="M 12.40625 8.296875 
L 28.515625 8.296875 
L 28.515625 63.921875 
L 10.984375 60.40625 
L 10.984375 69.390625 
L 28.421875 72.90625 
L 38.28125 72.90625 
L 38.28125 8.296875 
L 54.390625 8.296875 
L 54.390625 0 
L 12.40625 0 
z
" id="DejaVuSans-49"/>
        <path d="M 31.78125 66.40625 
Q 24.171875 66.40625 20.328125 58.90625 
Q 16.5 51.421875 16.5 36.375 
Q 16.5 21.390625 20.328125 13.890625 
Q 24.171875 6.390625 31.78125 6.390625 
Q 39.453125 6.390625 43.28125 13.890625 
Q 47.125 21.390625 47.125 36.375 
Q 47.125 51.421875 43.28125 58.90625 
Q 39.453125 66.40625 31.78125 66.40625 
z
M 31.78125 74.21875 
Q 44.046875 74.21875 50.515625 64.515625 
Q 56.984375 54.828125 56.984375 36.375 
Q 56.984375 17.96875 50.515625 8.265625 
Q 44.046875 -1.421875 31.78125 -1.421875 
Q 19.53125 -1.421875 13.0625 8.265625 
Q 6.59375 17.96875 6.59375 36.375 
Q 6.59375 54.828125 13.0625 64.515625 
Q 19.53125 74.21875 31.78125 74.21875 
z
" id="DejaVuSans-48"/>
       </defs>
       <use xlink:href="#DejaVuSans-8722"/>
       <use x="83.789062" xlink:href="#DejaVuSans-49"/>
       <use x="147.412109" xlink:href="#DejaVuSans-48"/>
      </g>
     </g>
    </g>
    <g id="xtick_2">
     <g id="line2d_3">
      <path clip-path="url(#pf902fcb692)" d="M 187.337764 300.495062 
L 187.337764 34.383062 
" style="fill:none;stroke:#b0b0b0;stroke-linecap:square;stroke-width:0.8;"/>
     </g>
     <g id="line2d_4">
      <g>
       <use style="stroke:#000000;stroke-width:0.8;" x="187.337764" xlink:href="#m005f0a59be" y="300.495062"/>
      </g>
     </g>
     <g id="text_2">
      <!-- −5 -->
      <g transform="translate(176.281123 318.892719)scale(0.15 -0.15)">
       <defs>
        <path d="M 10.796875 72.90625 
L 49.515625 72.90625 
L 49.515625 64.59375 
L 19.828125 64.59375 
L 19.828125 46.734375 
Q 21.96875 47.46875 24.109375 47.828125 
Q 26.265625 48.1875 28.421875 48.1875 
Q 40.625 48.1875 47.75 41.5 
Q 54.890625 34.8125 54.890625 23.390625 
Q 54.890625 11.625 47.5625 5.09375 
Q 40.234375 -1.421875 26.90625 -1.421875 
Q 22.3125 -1.421875 17.546875 -0.640625 
Q 12.796875 0.140625 7.71875 1.703125 
L 7.71875 11.625 
Q 12.109375 9.234375 16.796875 8.0625 
Q 21.484375 6.890625 26.703125 6.890625 
Q 35.15625 6.890625 40.078125 11.328125 
Q 45.015625 15.765625 45.015625 23.390625 
Q 45.015625 31 40.078125 35.4375 
Q 35.15625 39.890625 26.703125 39.890625 
Q 22.75 39.890625 18.8125 39.015625 
Q 14.890625 38.140625 10.796875 36.28125 
z
" id="DejaVuSans-53"/>
       </defs>
       <use xlink:href="#DejaVuSans-8722"/>
       <use x="83.789062" xlink:href="#DejaVuSans-53"/>
      </g>
     </g>
    </g>
    <g id="xtick_3">
     <g id="line2d_5">
      <path clip-path="url(#pf902fcb692)" d="M 254.974127 300.495062 
L 254.974127 34.383062 
" style="fill:none;stroke:#b0b0b0;stroke-linecap:square;stroke-width:0.8;"/>
     </g>
     <g id="line2d_6">
      <g>
       <use style="stroke:#000000;stroke-width:0.8;" x="254.974127" xlink:href="#m005f0a59be" y="300.495062"/>
      </g>
     </g>
     <g id="text_3">
      <!-- 0 -->
      <g transform="translate(250.202252 318.892719)scale(0.15 -0.15)">
       <use xlink:href="#DejaVuSans-48"/>
      </g>
     </g>
    </g>
    <g id="xtick_4">
     <g id="line2d_7">
      <path clip-path="url(#pf902fcb692)" d="M 322.610491 300.495062 
L 322.610491 34.383062 
" style="fill:none;stroke:#b0b0b0;stroke-linecap:square;stroke-width:0.8;"/>
     </g>
     <g id="line2d_8">
      <g>
       <use style="stroke:#000000;stroke-width:0.8;" x="322.610491" xlink:href="#m005f0a59be" y="300.495062"/>
      </g>
     </g>
     <g id="text_4">
      <!-- 5 -->
      <g transform="translate(317.838616 318.892719)scale(0.15 -0.15)">
       <use xlink:href="#DejaVuSans-53"/>
      </g>
     </g>
    </g>
    <g id="xtick_5">
     <g id="line2d_9">
      <path clip-path="url(#pf902fcb692)" d="M 390.246855 300.495062 
L 390.246855 34.383062 
" style="fill:none;stroke:#b0b0b0;stroke-linecap:square;stroke-width:0.8;"/>
     </g>
     <g id="line2d_10">
      <g>
       <use style="stroke:#000000;stroke-width:0.8;" x="390.246855" xlink:href="#m005f0a59be" y="300.495062"/>
      </g>
     </g>
     <g id="text_5">
      <!-- 10 -->
      <g transform="translate(380.703105 318.892719)scale(0.15 -0.15)">
       <use xlink:href="#DejaVuSans-49"/>
       <use x="63.623047" xlink:href="#DejaVuSans-48"/>
      </g>
     </g>
    </g>
    <g id="text_6">
     <!-- Detuning from resonance (kHz) -->
     <g transform="translate(83.074062 341.209125)scale(0.2 -0.2)">
      <defs>
       <path d="M 19.671875 64.796875 
L 19.671875 8.109375 
L 31.59375 8.109375 
Q 46.6875 8.109375 53.6875 14.9375 
Q 60.6875 21.78125 60.6875 36.53125 
Q 60.6875 51.171875 53.6875 57.984375 
Q 46.6875 64.796875 31.59375 64.796875 
z
M 9.8125 72.90625 
L 30.078125 72.90625 
Q 51.265625 72.90625 61.171875 64.09375 
Q 71.09375 55.28125 71.09375 36.53125 
Q 71.09375 17.671875 61.125 8.828125 
Q 51.171875 0 30.078125 0 
L 9.8125 0 
z
" id="DejaVuSans-68"/>
       <path d="M 56.203125 29.59375 
L 56.203125 25.203125 
L 14.890625 25.203125 
Q 15.484375 15.921875 20.484375 11.0625 
Q 25.484375 6.203125 34.421875 6.203125 
Q 39.59375 6.203125 44.453125 7.46875 
Q 49.3125 8.734375 54.109375 11.28125 
L 54.109375 2.78125 
Q 49.265625 0.734375 44.1875 -0.34375 
Q 39.109375 -1.421875 33.890625 -1.421875 
Q 20.796875 -1.421875 13.15625 6.1875 
Q 5.515625 13.8125 5.515625 26.8125 
Q 5.515625 40.234375 12.765625 48.109375 
Q 20.015625 56 32.328125 56 
Q 43.359375 56 49.78125 48.890625 
Q 56.203125 41.796875 56.203125 29.59375 
z
M 47.21875 32.234375 
Q 47.125 39.59375 43.09375 43.984375 
Q 39.0625 48.390625 32.421875 48.390625 
Q 24.90625 48.390625 20.390625 44.140625 
Q 15.875 39.890625 15.1875 32.171875 
z
" id="DejaVuSans-101"/>
       <path d="M 18.3125 70.21875 
L 18.3125 54.6875 
L 36.8125 54.6875 
L 36.8125 47.703125 
L 18.3125 47.703125 
L 18.3125 18.015625 
Q 18.3125 11.328125 20.140625 9.421875 
Q 21.96875 7.515625 27.59375 7.515625 
L 36.8125 7.515625 
L 36.8125 0 
L 27.59375 0 
Q 17.1875 0 13.234375 3.875 
Q 9.28125 7.765625 9.28125 18.015625 
L 9.28125 47.703125 
L 2.6875 47.703125 
L 2.6875 54.6875 
L 9.28125 54.6875 
L 9.28125 70.21875 
z
" id="DejaVuSans-116"/>
       <path d="M 8.5 21.578125 
L 8.5 54.6875 
L 17.484375 54.6875 
L 17.484375 21.921875 
Q 17.484375 14.15625 20.5 10.265625 
Q 23.53125 6.390625 29.59375 6.390625 
Q 36.859375 6.390625 41.078125 11.03125 
Q 45.3125 15.671875 45.3125 23.6875 
L 45.3125 54.6875 
L 54.296875 54.6875 
L 54.296875 0 
L 45.3125 0 
L 45.3125 8.40625 
Q 42.046875 3.421875 37.71875 1 
Q 33.40625 -1.421875 27.6875 -1.421875 
Q 18.265625 -1.421875 13.375 4.4375 
Q 8.5 10.296875 8.5 21.578125 
z
M 31.109375 56 
z
" id="DejaVuSans-117"/>
       <path d="M 54.890625 33.015625 
L 54.890625 0 
L 45.90625 0 
L 45.90625 32.71875 
Q 45.90625 40.484375 42.875 44.328125 
Q 39.84375 48.1875 33.796875 48.1875 
Q 26.515625 48.1875 22.3125 43.546875 
Q 18.109375 38.921875 18.109375 30.90625 
L 18.109375 0 
L 9.078125 0 
L 9.078125 54.6875 
L 18.109375 54.6875 
L 18.109375 46.1875 
Q 21.34375 51.125 25.703125 53.5625 
Q 30.078125 56 35.796875 56 
Q 45.21875 56 50.046875 50.171875 
Q 54.890625 44.34375 54.890625 33.015625 
z
" id="DejaVuSans-110"/>
       <path d="M 9.421875 54.6875 
L 18.40625 54.6875 
L 18.40625 0 
L 9.421875 0 
z
M 9.421875 75.984375 
L 18.40625 75.984375 
L 18.40625 64.59375 
L 9.421875 64.59375 
z
" id="DejaVuSans-105"/>
       <path d="M 45.40625 27.984375 
Q 45.40625 37.75 41.375 43.109375 
Q 37.359375 48.484375 30.078125 48.484375 
Q 22.859375 48.484375 18.828125 43.109375 
Q 14.796875 37.75 14.796875 27.984375 
Q 14.796875 18.265625 18.828125 12.890625 
Q 22.859375 7.515625 30.078125 7.515625 
Q 37.359375 7.515625 41.375 12.890625 
Q 45.40625 18.265625 45.40625 27.984375 
z
M 54.390625 6.78125 
Q 54.390625 -7.171875 48.1875 -13.984375 
Q 42 -20.796875 29.203125 -20.796875 
Q 24.46875 -20.796875 20.265625 -20.09375 
Q 16.0625 -19.390625 12.109375 -17.921875 
L 12.109375 -9.1875 
Q 16.0625 -11.328125 19.921875 -12.34375 
Q 23.78125 -13.375 27.78125 -13.375 
Q 36.625 -13.375 41.015625 -8.765625 
Q 45.40625 -4.15625 45.40625 5.171875 
L 45.40625 9.625 
Q 42.625 4.78125 38.28125 2.390625 
Q 33.9375 0 27.875 0 
Q 17.828125 0 11.671875 7.65625 
Q 5.515625 15.328125 5.515625 27.984375 
Q 5.515625 40.671875 11.671875 48.328125 
Q 17.828125 56 27.875 56 
Q 33.9375 56 38.28125 53.609375 
Q 42.625 51.21875 45.40625 46.390625 
L 45.40625 54.6875 
L 54.390625 54.6875 
z
" id="DejaVuSans-103"/>
       <path id="DejaVuSans-32"/>
       <path d="M 37.109375 75.984375 
L 37.109375 68.5 
L 28.515625 68.5 
Q 23.6875 68.5 21.796875 66.546875 
Q 19.921875 64.59375 19.921875 59.515625 
L 19.921875 54.6875 
L 34.71875 54.6875 
L 34.71875 47.703125 
L 19.921875 47.703125 
L 19.921875 0 
L 10.890625 0 
L 10.890625 47.703125 
L 2.296875 47.703125 
L 2.296875 54.6875 
L 10.890625 54.6875 
L 10.890625 58.5 
Q 10.890625 67.625 15.140625 71.796875 
Q 19.390625 75.984375 28.609375 75.984375 
z
" id="DejaVuSans-102"/>
       <path d="M 41.109375 46.296875 
Q 39.59375 47.171875 37.8125 47.578125 
Q 36.03125 48 33.890625 48 
Q 26.265625 48 22.1875 43.046875 
Q 18.109375 38.09375 18.109375 28.8125 
L 18.109375 0 
L 9.078125 0 
L 9.078125 54.6875 
L 18.109375 54.6875 
L 18.109375 46.1875 
Q 20.953125 51.171875 25.484375 53.578125 
Q 30.03125 56 36.53125 56 
Q 37.453125 56 38.578125 55.875 
Q 39.703125 55.765625 41.0625 55.515625 
z
" id="DejaVuSans-114"/>
       <path d="M 30.609375 48.390625 
Q 23.390625 48.390625 19.1875 42.75 
Q 14.984375 37.109375 14.984375 27.296875 
Q 14.984375 17.484375 19.15625 11.84375 
Q 23.34375 6.203125 30.609375 6.203125 
Q 37.796875 6.203125 41.984375 11.859375 
Q 46.1875 17.53125 46.1875 27.296875 
Q 46.1875 37.015625 41.984375 42.703125 
Q 37.796875 48.390625 30.609375 48.390625 
z
M 30.609375 56 
Q 42.328125 56 49.015625 48.375 
Q 55.71875 40.765625 55.71875 27.296875 
Q 55.71875 13.875 49.015625 6.21875 
Q 42.328125 -1.421875 30.609375 -1.421875 
Q 18.84375 -1.421875 12.171875 6.21875 
Q 5.515625 13.875 5.515625 27.296875 
Q 5.515625 40.765625 12.171875 48.375 
Q 18.84375 56 30.609375 56 
z
" id="DejaVuSans-111"/>
       <path d="M 52 44.1875 
Q 55.375 50.25 60.0625 53.125 
Q 64.75 56 71.09375 56 
Q 79.640625 56 84.28125 50.015625 
Q 88.921875 44.046875 88.921875 33.015625 
L 88.921875 0 
L 79.890625 0 
L 79.890625 32.71875 
Q 79.890625 40.578125 77.09375 44.375 
Q 74.3125 48.1875 68.609375 48.1875 
Q 61.625 48.1875 57.5625 43.546875 
Q 53.515625 38.921875 53.515625 30.90625 
L 53.515625 0 
L 44.484375 0 
L 44.484375 32.71875 
Q 44.484375 40.625 41.703125 44.40625 
Q 38.921875 48.1875 33.109375 48.1875 
Q 26.21875 48.1875 22.15625 43.53125 
Q 18.109375 38.875 18.109375 30.90625 
L 18.109375 0 
L 9.078125 0 
L 9.078125 54.6875 
L 18.109375 54.6875 
L 18.109375 46.1875 
Q 21.1875 51.21875 25.484375 53.609375 
Q 29.78125 56 35.6875 56 
Q 41.65625 56 45.828125 52.96875 
Q 50 49.953125 52 44.1875 
z
" id="DejaVuSans-109"/>
       <path d="M 44.28125 53.078125 
L 44.28125 44.578125 
Q 40.484375 46.53125 36.375 47.5 
Q 32.28125 48.484375 27.875 48.484375 
Q 21.1875 48.484375 17.84375 46.4375 
Q 14.5 44.390625 14.5 40.28125 
Q 14.5 37.15625 16.890625 35.375 
Q 19.28125 33.59375 26.515625 31.984375 
L 29.59375 31.296875 
Q 39.15625 29.25 43.1875 25.515625 
Q 47.21875 21.78125 47.21875 15.09375 
Q 47.21875 7.46875 41.1875 3.015625 
Q 35.15625 -1.421875 24.609375 -1.421875 
Q 20.21875 -1.421875 15.453125 -0.5625 
Q 10.6875 0.296875 5.421875 2 
L 5.421875 11.28125 
Q 10.40625 8.6875 15.234375 7.390625 
Q 20.0625 6.109375 24.8125 6.109375 
Q 31.15625 6.109375 34.5625 8.28125 
Q 37.984375 10.453125 37.984375 14.40625 
Q 37.984375 18.0625 35.515625 20.015625 
Q 33.0625 21.96875 24.703125 23.78125 
L 21.578125 24.515625 
Q 13.234375 26.265625 9.515625 29.90625 
Q 5.8125 33.546875 5.8125 39.890625 
Q 5.8125 47.609375 11.28125 51.796875 
Q 16.75 56 26.8125 56 
Q 31.78125 56 36.171875 55.265625 
Q 40.578125 54.546875 44.28125 53.078125 
z
" id="DejaVuSans-115"/>
       <path d="M 34.28125 27.484375 
Q 23.390625 27.484375 19.1875 25 
Q 14.984375 22.515625 14.984375 16.5 
Q 14.984375 11.71875 18.140625 8.90625 
Q 21.296875 6.109375 26.703125 6.109375 
Q 34.1875 6.109375 38.703125 11.40625 
Q 43.21875 16.703125 43.21875 25.484375 
L 43.21875 27.484375 
z
M 52.203125 31.203125 
L 52.203125 0 
L 43.21875 0 
L 43.21875 8.296875 
Q 40.140625 3.328125 35.546875 0.953125 
Q 30.953125 -1.421875 24.3125 -1.421875 
Q 15.921875 -1.421875 10.953125 3.296875 
Q 6 8.015625 6 15.921875 
Q 6 25.140625 12.171875 29.828125 
Q 18.359375 34.515625 30.609375 34.515625 
L 43.21875 34.515625 
L 43.21875 35.40625 
Q 43.21875 41.609375 39.140625 45 
Q 35.0625 48.390625 27.6875 48.390625 
Q 23 48.390625 18.546875 47.265625 
Q 14.109375 46.140625 10.015625 43.890625 
L 10.015625 52.203125 
Q 14.9375 54.109375 19.578125 55.046875 
Q 24.21875 56 28.609375 56 
Q 40.484375 56 46.34375 49.84375 
Q 52.203125 43.703125 52.203125 31.203125 
z
" id="DejaVuSans-97"/>
       <path d="M 48.78125 52.59375 
L 48.78125 44.1875 
Q 44.96875 46.296875 41.140625 47.34375 
Q 37.3125 48.390625 33.40625 48.390625 
Q 24.65625 48.390625 19.8125 42.84375 
Q 14.984375 37.3125 14.984375 27.296875 
Q 14.984375 17.28125 19.8125 11.734375 
Q 24.65625 6.203125 33.40625 6.203125 
Q 37.3125 6.203125 41.140625 7.25 
Q 44.96875 8.296875 48.78125 10.40625 
L 48.78125 2.09375 
Q 45.015625 0.34375 40.984375 -0.53125 
Q 36.96875 -1.421875 32.421875 -1.421875 
Q 20.0625 -1.421875 12.78125 6.34375 
Q 5.515625 14.109375 5.515625 27.296875 
Q 5.515625 40.671875 12.859375 48.328125 
Q 20.21875 56 33.015625 56 
Q 37.15625 56 41.109375 55.140625 
Q 45.0625 54.296875 48.78125 52.59375 
z
" id="DejaVuSans-99"/>
       <path d="M 31 75.875 
Q 24.46875 64.65625 21.28125 53.65625 
Q 18.109375 42.671875 18.109375 31.390625 
Q 18.109375 20.125 21.3125 9.0625 
Q 24.515625 -2 31 -13.1875 
L 23.1875 -13.1875 
Q 15.875 -1.703125 12.234375 9.375 
Q 8.59375 20.453125 8.59375 31.390625 
Q 8.59375 42.28125 12.203125 53.3125 
Q 15.828125 64.359375 23.1875 75.875 
z
" id="DejaVuSans-40"/>
       <path d="M 9.078125 75.984375 
L 18.109375 75.984375 
L 18.109375 31.109375 
L 44.921875 54.6875 
L 56.390625 54.6875 
L 27.390625 29.109375 
L 57.625 0 
L 45.90625 0 
L 18.109375 26.703125 
L 18.109375 0 
L 9.078125 0 
z
" id="DejaVuSans-107"/>
       <path d="M 9.8125 72.90625 
L 19.671875 72.90625 
L 19.671875 43.015625 
L 55.515625 43.015625 
L 55.515625 72.90625 
L 65.375 72.90625 
L 65.375 0 
L 55.515625 0 
L 55.515625 34.71875 
L 19.671875 34.71875 
L 19.671875 0 
L 9.8125 0 
z
" id="DejaVuSans-72"/>
       <path d="M 5.515625 54.6875 
L 48.1875 54.6875 
L 48.1875 46.484375 
L 14.40625 7.171875 
L 48.1875 7.171875 
L 48.1875 0 
L 4.296875 0 
L 4.296875 8.203125 
L 38.09375 47.515625 
L 5.515625 47.515625 
z
" id="DejaVuSans-122"/>
       <path d="M 8.015625 75.875 
L 15.828125 75.875 
Q 23.140625 64.359375 26.78125 53.3125 
Q 30.421875 42.28125 30.421875 31.390625 
Q 30.421875 20.453125 26.78125 9.375 
Q 23.140625 -1.703125 15.828125 -13.1875 
L 8.015625 -13.1875 
Q 14.5 -2 17.703125 9.0625 
Q 20.90625 20.125 20.90625 31.390625 
Q 20.90625 42.671875 17.703125 53.65625 
Q 14.5 64.65625 8.015625 75.875 
z
" id="DejaVuSans-41"/>
      </defs>
      <use xlink:href="#DejaVuSans-68"/>
      <use x="77.001953" xlink:href="#DejaVuSans-101"/>
      <use x="138.525391" xlink:href="#DejaVuSans-116"/>
      <use x="177.734375" xlink:href="#DejaVuSans-117"/>
      <use x="241.113281" xlink:href="#DejaVuSans-110"/>
      <use x="304.492188" xlink:href="#DejaVuSans-105"/>
      <use x="332.275391" xlink:href="#DejaVuSans-110"/>
      <use x="395.654297" xlink:href="#DejaVuSans-103"/>
      <use x="459.130859" xlink:href="#DejaVuSans-32"/>
      <use x="490.917969" xlink:href="#DejaVuSans-102"/>
      <use x="526.123047" xlink:href="#DejaVuSans-114"/>
      <use x="564.986328" xlink:href="#DejaVuSans-111"/>
      <use x="626.167969" xlink:href="#DejaVuSans-109"/>
      <use x="723.580078" xlink:href="#DejaVuSans-32"/>
      <use x="755.367188" xlink:href="#DejaVuSans-114"/>
      <use x="794.230469" xlink:href="#DejaVuSans-101"/>
      <use x="855.753906" xlink:href="#DejaVuSans-115"/>
      <use x="907.853516" xlink:href="#DejaVuSans-111"/>
      <use x="969.035156" xlink:href="#DejaVuSans-110"/>
      <use x="1032.414062" xlink:href="#DejaVuSans-97"/>
      <use x="1093.693359" xlink:href="#DejaVuSans-110"/>
      <use x="1157.072266" xlink:href="#DejaVuSans-99"/>
      <use x="1212.052734" xlink:href="#DejaVuSans-101"/>
      <use x="1273.576172" xlink:href="#DejaVuSans-32"/>
      <use x="1305.363281" xlink:href="#DejaVuSans-40"/>
      <use x="1344.376953" xlink:href="#DejaVuSans-107"/>
      <use x="1402.287109" xlink:href="#DejaVuSans-72"/>
      <use x="1477.482422" xlink:href="#DejaVuSans-122"/>
      <use x="1529.972656" xlink:href="#DejaVuSans-41"/>
     </g>
    </g>
   </g>
   <g id="matplotlib.axis_2">
    <g id="ytick_1">
     <g id="line2d_11">
      <path clip-path="url(#pf902fcb692)" d="M 61.410938 264.173783 
L 418.530938 264.173783 
" style="fill:none;stroke:#b0b0b0;stroke-linecap:square;stroke-width:0.8;"/>
     </g>
     <g id="line2d_12">
      <defs>
       <path d="M 0 0 
L -3.5 0 
" id="mc3ce260a5b" style="stroke:#000000;stroke-width:0.8;"/>
      </defs>
      <g>
       <use style="stroke:#000000;stroke-width:0.8;" x="61.410938" xlink:href="#mc3ce260a5b" y="264.173783"/>
      </g>
     </g>
     <g id="text_7">
      <!-- 0.2 -->
      <g transform="translate(30.55625 269.872611)scale(0.15 -0.15)">
       <defs>
        <path d="M 10.6875 12.40625 
L 21 12.40625 
L 21 0 
L 10.6875 0 
z
" id="DejaVuSans-46"/>
        <path d="M 19.1875 8.296875 
L 53.609375 8.296875 
L 53.609375 0 
L 7.328125 0 
L 7.328125 8.296875 
Q 12.9375 14.109375 22.625 23.890625 
Q 32.328125 33.6875 34.8125 36.53125 
Q 39.546875 41.84375 41.421875 45.53125 
Q 43.3125 49.21875 43.3125 52.78125 
Q 43.3125 58.59375 39.234375 62.25 
Q 35.15625 65.921875 28.609375 65.921875 
Q 23.96875 65.921875 18.8125 64.3125 
Q 13.671875 62.703125 7.8125 59.421875 
L 7.8125 69.390625 
Q 13.765625 71.78125 18.9375 73 
Q 24.125 74.21875 28.421875 74.21875 
Q 39.75 74.21875 46.484375 68.546875 
Q 53.21875 62.890625 53.21875 53.421875 
Q 53.21875 48.921875 51.53125 44.890625 
Q 49.859375 40.875 45.40625 35.40625 
Q 44.1875 33.984375 37.640625 27.21875 
Q 31.109375 20.453125 19.1875 8.296875 
z
" id="DejaVuSans-50"/>
       </defs>
       <use xlink:href="#DejaVuSans-48"/>
       <use x="63.623047" xlink:href="#DejaVuSans-46"/>
       <use x="95.410156" xlink:href="#DejaVuSans-50"/>
      </g>
     </g>
    </g>
    <g id="ytick_2">
     <g id="line2d_13">
      <path clip-path="url(#pf902fcb692)" d="M 61.410938 212.824627 
L 418.530938 212.824627 
" style="fill:none;stroke:#b0b0b0;stroke-linecap:square;stroke-width:0.8;"/>
     </g>
     <g id="line2d_14">
      <g>
       <use style="stroke:#000000;stroke-width:0.8;" x="61.410938" xlink:href="#mc3ce260a5b" y="212.824627"/>
      </g>
     </g>
     <g id="text_8">
      <!-- 0.4 -->
      <g transform="translate(30.55625 218.523455)scale(0.15 -0.15)">
       <defs>
        <path d="M 37.796875 64.3125 
L 12.890625 25.390625 
L 37.796875 25.390625 
z
M 35.203125 72.90625 
L 47.609375 72.90625 
L 47.609375 25.390625 
L 58.015625 25.390625 
L 58.015625 17.1875 
L 47.609375 17.1875 
L 47.609375 0 
L 37.796875 0 
L 37.796875 17.1875 
L 4.890625 17.1875 
L 4.890625 26.703125 
z
" id="DejaVuSans-52"/>
       </defs>
       <use xlink:href="#DejaVuSans-48"/>
       <use x="63.623047" xlink:href="#DejaVuSans-46"/>
       <use x="95.410156" xlink:href="#DejaVuSans-52"/>
      </g>
     </g>
    </g>
    <g id="ytick_3">
     <g id="line2d_15">
      <path clip-path="url(#pf902fcb692)" d="M 61.410938 161.475471 
L 418.530938 161.475471 
" style="fill:none;stroke:#b0b0b0;stroke-linecap:square;stroke-width:0.8;"/>
     </g>
     <g id="line2d_16">
      <g>
       <use style="stroke:#000000;stroke-width:0.8;" x="61.410938" xlink:href="#mc3ce260a5b" y="161.475471"/>
      </g>
     </g>
     <g id="text_9">
      <!-- 0.6 -->
      <g transform="translate(30.55625 167.174299)scale(0.15 -0.15)">
       <defs>
        <path d="M 33.015625 40.375 
Q 26.375 40.375 22.484375 35.828125 
Q 18.609375 31.296875 18.609375 23.390625 
Q 18.609375 15.53125 22.484375 10.953125 
Q 26.375 6.390625 33.015625 6.390625 
Q 39.65625 6.390625 43.53125 10.953125 
Q 47.40625 15.53125 47.40625 23.390625 
Q 47.40625 31.296875 43.53125 35.828125 
Q 39.65625 40.375 33.015625 40.375 
z
M 52.59375 71.296875 
L 52.59375 62.3125 
Q 48.875 64.0625 45.09375 64.984375 
Q 41.3125 65.921875 37.59375 65.921875 
Q 27.828125 65.921875 22.671875 59.328125 
Q 17.53125 52.734375 16.796875 39.40625 
Q 19.671875 43.65625 24.015625 45.921875 
Q 28.375 48.1875 33.59375 48.1875 
Q 44.578125 48.1875 50.953125 41.515625 
Q 57.328125 34.859375 57.328125 23.390625 
Q 57.328125 12.15625 50.6875 5.359375 
Q 44.046875 -1.421875 33.015625 -1.421875 
Q 20.359375 -1.421875 13.671875 8.265625 
Q 6.984375 17.96875 6.984375 36.375 
Q 6.984375 53.65625 15.1875 63.9375 
Q 23.390625 74.21875 37.203125 74.21875 
Q 40.921875 74.21875 44.703125 73.484375 
Q 48.484375 72.75 52.59375 71.296875 
z
" id="DejaVuSans-54"/>
       </defs>
       <use xlink:href="#DejaVuSans-48"/>
       <use x="63.623047" xlink:href="#DejaVuSans-46"/>
       <use x="95.410156" xlink:href="#DejaVuSans-54"/>
      </g>
     </g>
    </g>
    <g id="ytick_4">
     <g id="line2d_17">
      <path clip-path="url(#pf902fcb692)" d="M 61.410938 110.126315 
L 418.530938 110.126315 
" style="fill:none;stroke:#b0b0b0;stroke-linecap:square;stroke-width:0.8;"/>
     </g>
     <g id="line2d_18">
      <g>
       <use style="stroke:#000000;stroke-width:0.8;" x="61.410938" xlink:href="#mc3ce260a5b" y="110.126315"/>
      </g>
     </g>
     <g id="text_10">
      <!-- 0.8 -->
      <g transform="translate(30.55625 115.825143)scale(0.15 -0.15)">
       <defs>
        <path d="M 31.78125 34.625 
Q 24.75 34.625 20.71875 30.859375 
Q 16.703125 27.09375 16.703125 20.515625 
Q 16.703125 13.921875 20.71875 10.15625 
Q 24.75 6.390625 31.78125 6.390625 
Q 38.8125 6.390625 42.859375 10.171875 
Q 46.921875 13.96875 46.921875 20.515625 
Q 46.921875 27.09375 42.890625 30.859375 
Q 38.875 34.625 31.78125 34.625 
z
M 21.921875 38.8125 
Q 15.578125 40.375 12.03125 44.71875 
Q 8.5 49.078125 8.5 55.328125 
Q 8.5 64.0625 14.71875 69.140625 
Q 20.953125 74.21875 31.78125 74.21875 
Q 42.671875 74.21875 48.875 69.140625 
Q 55.078125 64.0625 55.078125 55.328125 
Q 55.078125 49.078125 51.53125 44.71875 
Q 48 40.375 41.703125 38.8125 
Q 48.828125 37.15625 52.796875 32.3125 
Q 56.78125 27.484375 56.78125 20.515625 
Q 56.78125 9.90625 50.3125 4.234375 
Q 43.84375 -1.421875 31.78125 -1.421875 
Q 19.734375 -1.421875 13.25 4.234375 
Q 6.78125 9.90625 6.78125 20.515625 
Q 6.78125 27.484375 10.78125 32.3125 
Q 14.796875 37.15625 21.921875 38.8125 
z
M 18.3125 54.390625 
Q 18.3125 48.734375 21.84375 45.5625 
Q 25.390625 42.390625 31.78125 42.390625 
Q 38.140625 42.390625 41.71875 45.5625 
Q 45.3125 48.734375 45.3125 54.390625 
Q 45.3125 60.0625 41.71875 63.234375 
Q 38.140625 66.40625 31.78125 66.40625 
Q 25.390625 66.40625 21.84375 63.234375 
Q 18.3125 60.0625 18.3125 54.390625 
z
" id="DejaVuSans-56"/>
       </defs>
       <use xlink:href="#DejaVuSans-48"/>
       <use x="63.623047" xlink:href="#DejaVuSans-46"/>
       <use x="95.410156" xlink:href="#DejaVuSans-56"/>
      </g>
     </g>
    </g>
    <g id="ytick_5">
     <g id="line2d_19">
      <path clip-path="url(#pf902fcb692)" d="M 61.410938 58.77716 
L 418.530938 58.77716 
" style="fill:none;stroke:#b0b0b0;stroke-linecap:square;stroke-width:0.8;"/>
     </g>
     <g id="line2d_20">
      <g>
       <use style="stroke:#000000;stroke-width:0.8;" x="61.410938" xlink:href="#mc3ce260a5b" y="58.77716"/>
      </g>
     </g>
     <g id="text_11">
      <!-- 1.0 -->
      <g transform="translate(30.55625 64.475988)scale(0.15 -0.15)">
       <use xlink:href="#DejaVuSans-49"/>
       <use x="63.623047" xlink:href="#DejaVuSans-46"/>
       <use x="95.410156" xlink:href="#DejaVuSans-48"/>
      </g>
     </g>
    </g>
    <g id="text_12">
     <!-- Fraction of Atomic Ground State -->
     <g transform="translate(22.396875 327.678125)rotate(-90)scale(0.2 -0.2)">
      <defs>
       <path d="M 9.8125 72.90625 
L 51.703125 72.90625 
L 51.703125 64.59375 
L 19.671875 64.59375 
L 19.671875 43.109375 
L 48.578125 43.109375 
L 48.578125 34.8125 
L 19.671875 34.8125 
L 19.671875 0 
L 9.8125 0 
z
" id="DejaVuSans-70"/>
       <path d="M 34.1875 63.1875 
L 20.796875 26.90625 
L 47.609375 26.90625 
z
M 28.609375 72.90625 
L 39.796875 72.90625 
L 67.578125 0 
L 57.328125 0 
L 50.6875 18.703125 
L 17.828125 18.703125 
L 11.1875 0 
L 0.78125 0 
z
" id="DejaVuSans-65"/>
       <path d="M 59.515625 10.40625 
L 59.515625 29.984375 
L 43.40625 29.984375 
L 43.40625 38.09375 
L 69.28125 38.09375 
L 69.28125 6.78125 
Q 63.578125 2.734375 56.6875 0.65625 
Q 49.8125 -1.421875 42 -1.421875 
Q 24.90625 -1.421875 15.25 8.5625 
Q 5.609375 18.5625 5.609375 36.375 
Q 5.609375 54.25 15.25 64.234375 
Q 24.90625 74.21875 42 74.21875 
Q 49.125 74.21875 55.546875 72.453125 
Q 61.96875 70.703125 67.390625 67.28125 
L 67.390625 56.78125 
Q 61.921875 61.421875 55.765625 63.765625 
Q 49.609375 66.109375 42.828125 66.109375 
Q 29.4375 66.109375 22.71875 58.640625 
Q 16.015625 51.171875 16.015625 36.375 
Q 16.015625 21.625 22.71875 14.15625 
Q 29.4375 6.6875 42.828125 6.6875 
Q 48.046875 6.6875 52.140625 7.59375 
Q 56.25 8.5 59.515625 10.40625 
z
" id="DejaVuSans-71"/>
       <path d="M 45.40625 46.390625 
L 45.40625 75.984375 
L 54.390625 75.984375 
L 54.390625 0 
L 45.40625 0 
L 45.40625 8.203125 
Q 42.578125 3.328125 38.25 0.953125 
Q 33.9375 -1.421875 27.875 -1.421875 
Q 17.96875 -1.421875 11.734375 6.484375 
Q 5.515625 14.40625 5.515625 27.296875 
Q 5.515625 40.1875 11.734375 48.09375 
Q 17.96875 56 27.875 56 
Q 33.9375 56 38.25 53.625 
Q 42.578125 51.265625 45.40625 46.390625 
z
M 14.796875 27.296875 
Q 14.796875 17.390625 18.875 11.75 
Q 22.953125 6.109375 30.078125 6.109375 
Q 37.203125 6.109375 41.296875 11.75 
Q 45.40625 17.390625 45.40625 27.296875 
Q 45.40625 37.203125 41.296875 42.84375 
Q 37.203125 48.484375 30.078125 48.484375 
Q 22.953125 48.484375 18.875 42.84375 
Q 14.796875 37.203125 14.796875 27.296875 
z
" id="DejaVuSans-100"/>
       <path d="M 53.515625 70.515625 
L 53.515625 60.890625 
Q 47.90625 63.578125 42.921875 64.890625 
Q 37.9375 66.21875 33.296875 66.21875 
Q 25.25 66.21875 20.875 63.09375 
Q 16.5 59.96875 16.5 54.203125 
Q 16.5 49.359375 19.40625 46.890625 
Q 22.3125 44.4375 30.421875 42.921875 
L 36.375 41.703125 
Q 47.40625 39.59375 52.65625 34.296875 
Q 57.90625 29 57.90625 20.125 
Q 57.90625 9.515625 50.796875 4.046875 
Q 43.703125 -1.421875 29.984375 -1.421875 
Q 24.8125 -1.421875 18.96875 -0.25 
Q 13.140625 0.921875 6.890625 3.21875 
L 6.890625 13.375 
Q 12.890625 10.015625 18.65625 8.296875 
Q 24.421875 6.59375 29.984375 6.59375 
Q 38.421875 6.59375 43.015625 9.90625 
Q 47.609375 13.234375 47.609375 19.390625 
Q 47.609375 24.75 44.3125 27.78125 
Q 41.015625 30.8125 33.5 32.328125 
L 27.484375 33.5 
Q 16.453125 35.6875 11.515625 40.375 
Q 6.59375 45.0625 6.59375 53.421875 
Q 6.59375 63.09375 13.40625 68.65625 
Q 20.21875 74.21875 32.171875 74.21875 
Q 37.3125 74.21875 42.625 73.28125 
Q 47.953125 72.359375 53.515625 70.515625 
z
" id="DejaVuSans-83"/>
      </defs>
      <use xlink:href="#DejaVuSans-70"/>
      <use x="50.269531" xlink:href="#DejaVuSans-114"/>
      <use x="91.382812" xlink:href="#DejaVuSans-97"/>
      <use x="152.662109" xlink:href="#DejaVuSans-99"/>
      <use x="207.642578" xlink:href="#DejaVuSans-116"/>
      <use x="246.851562" xlink:href="#DejaVuSans-105"/>
      <use x="274.634766" xlink:href="#DejaVuSans-111"/>
      <use x="335.816406" xlink:href="#DejaVuSans-110"/>
      <use x="399.195312" xlink:href="#DejaVuSans-32"/>
      <use x="430.982422" xlink:href="#DejaVuSans-111"/>
      <use x="492.164062" xlink:href="#DejaVuSans-102"/>
      <use x="527.369141" xlink:href="#DejaVuSans-32"/>
      <use x="559.15625" xlink:href="#DejaVuSans-65"/>
      <use x="625.814453" xlink:href="#DejaVuSans-116"/>
      <use x="665.023438" xlink:href="#DejaVuSans-111"/>
      <use x="726.205078" xlink:href="#DejaVuSans-109"/>
      <use x="823.617188" xlink:href="#DejaVuSans-105"/>
      <use x="851.400391" xlink:href="#DejaVuSans-99"/>
      <use x="906.380859" xlink:href="#DejaVuSans-32"/>
      <use x="938.167969" xlink:href="#DejaVuSans-71"/>
      <use x="1015.658203" xlink:href="#DejaVuSans-114"/>
      <use x="1054.521484" xlink:href="#DejaVuSans-111"/>
      <use x="1115.703125" xlink:href="#DejaVuSans-117"/>
      <use x="1179.082031" xlink:href="#DejaVuSans-110"/>
      <use x="1242.460938" xlink:href="#DejaVuSans-100"/>
      <use x="1305.9375" xlink:href="#DejaVuSans-32"/>
      <use x="1337.724609" xlink:href="#DejaVuSans-83"/>
      <use x="1401.201172" xlink:href="#DejaVuSans-116"/>
      <use x="1440.410156" xlink:href="#DejaVuSans-97"/>
      <use x="1501.689453" xlink:href="#DejaVuSans-116"/>
      <use x="1540.898438" xlink:href="#DejaVuSans-101"/>
     </g>
    </g>
   </g>
   <g id="LineCollection_1">
    <path clip-path="url(#pf902fcb692)" d="M 254.974127 82.361144 
L 254.974127 49.9243 
" style="fill:none;stroke:#1f77b4;stroke-width:1.5;"/>
   </g>
   <g id="LineCollection_2">
    <path clip-path="url(#pf902fcb692)" d="M 131.752756 109.105571 
L 131.752756 78.101059 
" style="fill:none;stroke:#ff7f0e;stroke-width:1.5;"/>
    <path clip-path="url(#pf902fcb692)" d="M 153.396392 89.446609 
L 153.396392 57.491844 
" style="fill:none;stroke:#ff7f0e;stroke-width:1.5;"/>
    <path clip-path="url(#pf902fcb692)" d="M 175.040028 103.38185 
L 175.040028 71.8965 
" style="fill:none;stroke:#ff7f0e;stroke-width:1.5;"/>
    <path clip-path="url(#pf902fcb692)" d="M 196.683665 122.01635 
L 196.683665 92.519229 
" style="fill:none;stroke:#ff7f0e;stroke-width:1.5;"/>
    <path clip-path="url(#pf902fcb692)" d="M 218.327301 222.7732 
L 218.327301 199.098295 
" style="fill:none;stroke:#ff7f0e;stroke-width:1.5;"/>
    <path clip-path="url(#pf902fcb692)" d="M 239.970937 275.73318 
L 239.970937 259.439269 
" style="fill:none;stroke:#ff7f0e;stroke-width:1.5;"/>
    <path clip-path="url(#pf902fcb692)" d="M 261.614574 288.399062 
L 261.614574 275.076534 
" style="fill:none;stroke:#ff7f0e;stroke-width:1.5;"/>
    <path clip-path="url(#pf902fcb692)" d="M 283.25821 248.392122 
L 283.25821 227.839988 
" style="fill:none;stroke:#ff7f0e;stroke-width:1.5;"/>
    <path clip-path="url(#pf902fcb692)" d="M 304.901847 179.084598 
L 304.901847 153.612276 
" style="fill:none;stroke:#ff7f0e;stroke-width:1.5;"/>
    <path clip-path="url(#pf902fcb692)" d="M 326.545483 139.989726 
L 326.545483 111.487178 
" style="fill:none;stroke:#ff7f0e;stroke-width:1.5;"/>
    <path clip-path="url(#pf902fcb692)" d="M 348.189119 106.27247 
L 348.189119 74.361416 
" style="fill:none;stroke:#ff7f0e;stroke-width:1.5;"/>
   </g>
   <g id="LineCollection_3">
    <path clip-path="url(#pf902fcb692)" d="M 91.170937 77.789708 
L 91.170937 46.479062 
" style="fill:none;stroke:#2ca02c;stroke-width:1.5;"/>
    <path clip-path="url(#pf902fcb692)" d="M 120.930938 112.028746 
L 120.930938 80.949315 
" style="fill:none;stroke:#2ca02c;stroke-width:1.5;"/>
    <path clip-path="url(#pf902fcb692)" d="M 150.690937 122.434288 
L 150.690937 91.900922 
" style="fill:none;stroke:#2ca02c;stroke-width:1.5;"/>
    <path clip-path="url(#pf902fcb692)" d="M 180.450938 151.779715 
L 180.450938 122.177667 
" style="fill:none;stroke:#2ca02c;stroke-width:1.5;"/>
    <path clip-path="url(#pf902fcb692)" d="M 210.210937 175.314849 
L 210.210937 148.166399 
" style="fill:none;stroke:#2ca02c;stroke-width:1.5;"/>
    <path clip-path="url(#pf902fcb692)" d="M 239.970937 208.758543 
L 239.970937 184.290691 
" style="fill:none;stroke:#2ca02c;stroke-width:1.5;"/>
    <path clip-path="url(#pf902fcb692)" d="M 269.730938 196.797696 
L 269.730938 171.954599 
" style="fill:none;stroke:#2ca02c;stroke-width:1.5;"/>
    <path clip-path="url(#pf902fcb692)" d="M 299.490937 159.720985 
L 299.490937 131.626427 
" style="fill:none;stroke:#2ca02c;stroke-width:1.5;"/>
    <path clip-path="url(#pf902fcb692)" d="M 329.250938 146.269983 
L 329.250938 117.389506 
" style="fill:none;stroke:#2ca02c;stroke-width:1.5;"/>
    <path clip-path="url(#pf902fcb692)" d="M 359.010937 85.056442 
L 359.010937 53.407765 
" style="fill:none;stroke:#2ca02c;stroke-width:1.5;"/>
    <path clip-path="url(#pf902fcb692)" d="M 388.770937 111.007128 
L 388.770937 79.687507 
" style="fill:none;stroke:#2ca02c;stroke-width:1.5;"/>
   </g>
   <g id="line2d_21">
    <path clip-path="url(#pf902fcb692)" d="M 77.643665 58.77716 
L 402.29821 58.77716 
" style="fill:none;stroke:#1f77b4;stroke-linecap:square;stroke-width:1.5;"/>
   </g>
   <g id="line2d_22">
    <path clip-path="url(#pf902fcb692)" d="M 77.643665 78.300667 
L 83.168317 80.061387 
L 87.71803 81.277479 
L 91.617784 82.096986 
L 95.192559 82.635942 
L 98.767334 82.951134 
L 102.342109 83.030166 
L 105.916883 82.869306 
L 109.491658 82.474358 
L 113.066433 81.861309 
L 116.966187 80.975246 
L 121.84088 79.623173 
L 136.789938 75.251495 
L 140.039734 74.617478 
L 142.964549 74.258909 
L 145.564385 74.149076 
L 148.164222 74.270805 
L 150.439078 74.593177 
L 152.713935 75.139437 
L 154.988792 75.930058 
L 157.263648 76.984361 
L 159.538505 78.320269 
L 161.813362 79.95407 
L 164.088218 81.900188 
L 166.363075 84.170963 
L 168.637932 86.776455 
L 170.912788 89.724255 
L 173.187645 93.019322 
L 175.787481 97.213008 
L 178.387318 101.861647 
L 180.987154 106.958748 
L 183.911969 113.214243 
L 186.836785 119.997673 
L 190.08658 128.113464 
L 193.661355 137.677424 
L 197.561109 148.764398 
L 202.110823 162.373758 
L 208.935393 183.589948 
L 217.70984 210.806137 
L 222.259553 224.192377 
L 225.834328 234.078976 
L 229.084123 242.44428 
L 232.008939 249.373275 
L 234.608775 254.993271 
L 237.208612 260.056046 
L 239.483468 263.994697 
L 241.433345 266.98488 
L 243.383223 269.603482 
L 245.3331 271.837692 
L 246.957997 273.397931 
L 248.582895 274.678248 
L 250.207793 275.674259 
L 251.83269 276.382548 
L 253.457588 276.800683 
L 254.757506 276.925281 
L 256.057424 276.862967 
L 257.357342 276.613879 
L 258.65726 276.178565 
L 260.282158 275.374039 
L 261.907055 274.28282 
L 263.531953 272.908651 
L 265.156851 271.256232 
L 267.106728 268.914054 
L 269.056605 266.190861 
L 271.006482 263.099962 
L 273.281339 259.049337 
L 275.556195 254.545459 
L 278.156032 248.881113 
L 281.080847 241.907207 
L 284.330643 233.498671 
L 287.905417 223.573135 
L 292.130151 211.132912 
L 297.654803 194.118375 
L 310.329005 154.844342 
L 314.878718 141.608809 
L 318.778472 130.94472 
L 322.353247 121.838485 
L 325.603042 114.186446 
L 328.527858 107.850989 
L 331.452674 102.065017 
L 334.05251 97.397538 
L 336.652346 93.184844 
L 339.252182 89.428522 
L 341.527039 86.513589 
L 343.801896 83.940351 
L 346.076752 81.700976 
L 348.351609 79.785178 
L 350.626466 78.180408 
L 352.901322 76.872057 
L 355.176179 75.84367 
L 357.451036 75.077181 
L 359.725892 74.553148 
L 362.000749 74.251001 
L 364.600585 74.149844 
L 367.200422 74.27747 
L 370.125237 74.652698 
L 373.375033 75.301074 
L 377.274787 76.312559 
L 383.449398 78.187825 
L 391.248906 80.52058 
L 395.79862 81.63623 
L 399.698374 82.361817 
L 402.29821 82.706312 
L 402.29821 82.706312 
" style="fill:none;stroke:#ff7f0e;stroke-linecap:square;stroke-width:1.5;"/>
   </g>
   <g id="line2d_23">
    <path clip-path="url(#pf902fcb692)" d="M 77.643665 84.988015 
L 80.243501 84.397198 
L 83.493296 83.39085 
L 91.292805 80.82287 
L 93.567661 80.34376 
L 95.517539 80.12509 
L 97.467416 80.119043 
L 99.417293 80.350565 
L 101.36717 80.834799 
L 103.317047 81.575992 
L 105.266924 82.566869 
L 107.541781 84.012622 
L 109.816638 85.722896 
L 112.741453 88.19988 
L 120.540962 94.962993 
L 122.815819 96.575167 
L 124.765696 97.705194 
L 126.715573 98.559228 
L 128.340471 99.038735 
L 129.965368 99.296531 
L 131.590266 99.330157 
L 133.215164 99.144688 
L 134.840061 98.752877 
L 136.789938 98.039487 
L 139.064795 96.935102 
L 142.31459 95.046192 
L 146.539324 92.59729 
L 148.489201 91.694845 
L 150.114099 91.143593 
L 151.738996 90.826741 
L 153.038915 90.77195 
L 154.338833 90.91573 
L 155.638751 91.27544 
L 156.938669 91.86528 
L 158.238587 92.695948 
L 159.538505 93.774342 
L 160.838423 95.103341 
L 162.463321 97.114612 
L 164.088218 99.503192 
L 166.038096 102.835437 
L 167.987973 106.620845 
L 170.262829 111.50655 
L 173.512625 119.070524 
L 179.687236 133.576889 
L 181.962092 138.357152 
L 183.911969 141.997145 
L 185.536867 144.637026 
L 187.161765 146.872849 
L 188.461683 148.348432 
L 189.761601 149.533271 
L 191.061519 150.42131 
L 192.361437 151.011837 
L 193.661355 151.309605 
L 194.961273 151.324853 
L 196.261191 151.07323 
L 197.561109 150.575629 
L 198.861028 149.85791 
L 200.485925 148.698047 
L 202.435802 147.012553 
L 206.010577 143.526965 
L 208.610413 141.111726 
L 210.235311 139.840165 
L 211.860209 138.856636 
L 213.160127 138.332423 
L 214.460045 138.083586 
L 215.434983 138.098704 
L 216.409922 138.301326 
L 217.384861 138.702883 
L 218.359799 139.313096 
L 219.334738 140.139865 
L 220.634656 141.589124 
L 221.934574 143.442321 
L 223.234492 145.701397 
L 224.53441 148.361516 
L 226.159308 152.232205 
L 227.784205 156.673172 
L 229.734082 162.678658 
L 232.008939 170.46209 
L 234.933755 181.325687 
L 241.758325 207.094289 
L 244.033182 214.702663 
L 245.983059 220.441188 
L 247.607956 224.542961 
L 248.907874 227.318136 
L 250.207793 229.603544 
L 251.507711 231.369117 
L 252.482649 232.337867 
L 253.457588 232.993739 
L 254.432526 233.331841 
L 255.407465 233.349651 
L 256.382404 233.047035 
L 257.357342 232.426252 
L 258.332281 231.491932 
L 259.307219 230.251032 
L 260.607137 228.135862 
L 261.907055 225.520179 
L 263.206974 222.438301 
L 264.831871 217.992156 
L 266.781748 211.906153 
L 269.056605 203.994232 
L 272.3064 191.758797 
L 277.831052 170.84975 
L 280.430888 161.97797 
L 282.380766 156.049681 
L 284.330643 150.876264 
L 285.95554 147.204858 
L 287.580438 144.150241 
L 288.880356 142.161654 
L 290.180274 140.578398 
L 291.480192 139.394091 
L 292.455131 138.760185 
L 293.430069 138.335906 
L 294.405008 138.111726 
L 295.379947 138.076401 
L 296.354885 138.217096 
L 297.654803 138.653636 
L 298.954721 139.340252 
L 300.579619 140.48798 
L 302.529496 142.177052 
L 306.42925 145.983667 
L 309.029087 148.347337 
L 310.653984 149.57494 
L 312.278882 150.523866 
L 313.5788 151.040853 
L 314.878718 151.31383 
L 316.178636 151.32148 
L 317.478554 151.047708 
L 318.778472 150.48182 
L 320.07839 149.618607 
L 321.378309 148.458328 
L 322.678227 147.006601 
L 324.303124 144.798976 
L 325.928022 142.18479 
L 327.877899 138.571396 
L 330.152756 133.81515 
L 333.077571 127.108251 
L 340.87708 108.891995 
L 343.151937 104.25739 
L 345.101814 100.740992 
L 347.051691 97.715321 
L 348.676589 95.601853 
L 350.301486 93.875451 
L 351.601404 92.776238 
L 352.901322 91.925148 
L 354.201241 91.315608 
L 355.501159 90.937228 
L 356.801077 90.776086 
L 358.100995 90.815071 
L 359.725892 91.114678 
L 361.35079 91.651781 
L 363.300667 92.541658 
L 365.900503 93.998733 
L 371.750135 97.384972 
L 374.024992 98.386799 
L 375.974869 98.986473 
L 377.599766 99.27028 
L 379.224664 99.339988 
L 380.849562 99.186942 
L 382.474459 98.810119 
L 384.099357 98.21586 
L 386.049234 97.234817 
L 387.999111 95.994605 
L 390.273968 94.281092 
L 393.198784 91.790195 
L 400.348333 85.550291 
L 402.29821 84.088489 
L 402.29821 84.088489 
" style="fill:none;stroke:#2ca02c;stroke-linecap:square;stroke-width:1.5;"/>
   </g>
   <g id="line2d_24">
    <defs>
     <path d="M 0 3 
C 0.795609 3 1.55874 2.683901 2.12132 2.12132 
C 2.683901 1.55874 3 0.795609 3 0 
C 3 -0.795609 2.683901 -1.55874 2.12132 -2.12132 
C 1.55874 -2.683901 0.795609 -3 0 -3 
C -0.795609 -3 -1.55874 -2.683901 -2.12132 -2.12132 
C -2.683901 -1.55874 -3 -0.795609 -3 0 
C -3 0.795609 -2.683901 1.55874 -2.12132 2.12132 
C -1.55874 2.683901 -0.795609 3 0 3 
z
" id="mcb2457e3ba" style="stroke:#1f77b4;"/>
    </defs>
    <g clip-path="url(#pf902fcb692)">
     <use style="fill:#1f77b4;stroke:#1f77b4;" x="254.974127" xlink:href="#mcb2457e3ba" y="66.142722"/>
    </g>
   </g>
   <g id="line2d_25">
    <defs>
     <path d="M 0 3 
C 0.795609 3 1.55874 2.683901 2.12132 2.12132 
C 2.683901 1.55874 3 0.795609 3 0 
C 3 -0.795609 2.683901 -1.55874 2.12132 -2.12132 
C 1.55874 -2.683901 0.795609 -3 0 -3 
C -0.795609 -3 -1.55874 -2.683901 -2.12132 -2.12132 
C -2.683901 -1.55874 -3 -0.795609 -3 0 
C -3 0.795609 -2.683901 1.55874 -2.12132 2.12132 
C -1.55874 2.683901 -0.795609 3 0 3 
z
" id="mbbb2a9d153" style="stroke:#ff7f0e;"/>
    </defs>
    <g clip-path="url(#pf902fcb692)">
     <use style="fill:#ff7f0e;stroke:#ff7f0e;" x="131.752756" xlink:href="#mbbb2a9d153" y="93.603315"/>
     <use style="fill:#ff7f0e;stroke:#ff7f0e;" x="153.396392" xlink:href="#mbbb2a9d153" y="73.469227"/>
     <use style="fill:#ff7f0e;stroke:#ff7f0e;" x="175.040028" xlink:href="#mbbb2a9d153" y="87.639175"/>
     <use style="fill:#ff7f0e;stroke:#ff7f0e;" x="196.683665" xlink:href="#mbbb2a9d153" y="107.267789"/>
     <use style="fill:#ff7f0e;stroke:#ff7f0e;" x="218.327301" xlink:href="#mbbb2a9d153" y="210.935748"/>
     <use style="fill:#ff7f0e;stroke:#ff7f0e;" x="239.970937" xlink:href="#mbbb2a9d153" y="267.586225"/>
     <use style="fill:#ff7f0e;stroke:#ff7f0e;" x="261.614574" xlink:href="#mbbb2a9d153" y="281.737798"/>
     <use style="fill:#ff7f0e;stroke:#ff7f0e;" x="283.25821" xlink:href="#mbbb2a9d153" y="238.116055"/>
     <use style="fill:#ff7f0e;stroke:#ff7f0e;" x="304.901847" xlink:href="#mbbb2a9d153" y="166.348437"/>
     <use style="fill:#ff7f0e;stroke:#ff7f0e;" x="326.545483" xlink:href="#mbbb2a9d153" y="125.738452"/>
     <use style="fill:#ff7f0e;stroke:#ff7f0e;" x="348.189119" xlink:href="#mbbb2a9d153" y="90.316943"/>
    </g>
   </g>
   <g id="line2d_26">
    <defs>
     <path d="M 0 3 
C 0.795609 3 1.55874 2.683901 2.12132 2.12132 
C 2.683901 1.55874 3 0.795609 3 0 
C 3 -0.795609 2.683901 -1.55874 2.12132 -2.12132 
C 1.55874 -2.683901 0.795609 -3 0 -3 
C -0.795609 -3 -1.55874 -2.683901 -2.12132 -2.12132 
C -2.683901 -1.55874 -3 -0.795609 -3 0 
C -3 0.795609 -2.683901 1.55874 -2.12132 2.12132 
C -1.55874 2.683901 -0.795609 3 0 3 
z
" id="mbab2358add" style="stroke:#2ca02c;"/>
    </defs>
    <g clip-path="url(#pf902fcb692)">
     <use style="fill:#2ca02c;stroke:#2ca02c;" x="91.170937" xlink:href="#mbab2358add" y="62.134385"/>
     <use style="fill:#2ca02c;stroke:#2ca02c;" x="120.930938" xlink:href="#mbab2358add" y="96.48903"/>
     <use style="fill:#2ca02c;stroke:#2ca02c;" x="150.690937" xlink:href="#mbab2358add" y="107.167605"/>
     <use style="fill:#2ca02c;stroke:#2ca02c;" x="180.450938" xlink:href="#mbab2358add" y="136.978691"/>
     <use style="fill:#2ca02c;stroke:#2ca02c;" x="210.210937" xlink:href="#mbab2358add" y="161.740624"/>
     <use style="fill:#2ca02c;stroke:#2ca02c;" x="239.970937" xlink:href="#mbab2358add" y="196.524617"/>
     <use style="fill:#2ca02c;stroke:#2ca02c;" x="269.730938" xlink:href="#mbab2358add" y="184.376147"/>
     <use style="fill:#2ca02c;stroke:#2ca02c;" x="299.490937" xlink:href="#mbab2358add" y="145.673706"/>
     <use style="fill:#2ca02c;stroke:#2ca02c;" x="329.250938" xlink:href="#mbab2358add" y="131.829744"/>
     <use style="fill:#2ca02c;stroke:#2ca02c;" x="359.010937" xlink:href="#mbab2358add" y="69.232104"/>
     <use style="fill:#2ca02c;stroke:#2ca02c;" x="388.770937" xlink:href="#mbab2358add" y="95.347318"/>
    </g>
   </g>
   <g id="patch_3">
    <path d="M 61.410938 300.495062 
L 61.410938 34.383062 
" style="fill:none;stroke:#000000;stroke-linecap:square;stroke-linejoin:miter;stroke-width:0.8;"/>
   </g>
   <g id="patch_4">
    <path d="M 418.530938 300.495062 
L 418.530938 34.383062 
" style="fill:none;stroke:#000000;stroke-linecap:square;stroke-linejoin:miter;stroke-width:0.8;"/>
   </g>
   <g id="patch_5">
    <path d="M 61.410937 300.495062 
L 418.530937 300.495062 
" style="fill:none;stroke:#000000;stroke-linecap:square;stroke-linejoin:miter;stroke-width:0.8;"/>
   </g>
   <g id="patch_6">
    <path d="M 61.410937 34.383062 
L 418.530937 34.383062 
" style="fill:none;stroke:#000000;stroke-linecap:square;stroke-linejoin:miter;stroke-width:0.8;"/>
   </g>
   <g id="legend_1">
    <g id="patch_7">
     <path d="M 308.332412 293.555062 
L 408.814937 293.555062 
Q 411.590937 293.555062 411.590937 290.779062 
L 411.590937 231.04735 
Q 411.590937 228.27135 408.814937 228.27135 
L 308.332412 228.27135 
Q 305.556412 228.27135 305.556412 231.04735 
L 305.556412 290.779062 
Q 305.556412 293.555062 308.332412 293.555062 
z
" style="fill:#ffffff;opacity:0.8;stroke:#cccccc;stroke-linejoin:miter;"/>
    </g>
    <g id="LineCollection_4">
     <path d="M 324.988412 246.451981 
L 324.988412 232.571981 
" style="fill:none;stroke:#1f77b4;stroke-width:1.5;"/>
    </g>
    <g id="line2d_27"/>
    <g id="line2d_28">
     <g>
      <use style="fill:#1f77b4;stroke:#1f77b4;" x="324.988412" xlink:href="#mcb2457e3ba" y="239.511981"/>
     </g>
    </g>
    <g id="text_13">
     <!-- 0.00 ms -->
     <g transform="translate(349.972412 244.369981)scale(0.1388 -0.1388)">
      <use xlink:href="#DejaVuSans-48"/>
      <use x="63.623047" xlink:href="#DejaVuSans-46"/>
      <use x="95.410156" xlink:href="#DejaVuSans-48"/>
      <use x="159.033203" xlink:href="#DejaVuSans-48"/>
      <use x="222.65625" xlink:href="#DejaVuSans-32"/>
      <use x="254.443359" xlink:href="#DejaVuSans-109"/>
      <use x="351.855469" xlink:href="#DejaVuSans-115"/>
     </g>
    </g>
    <g id="LineCollection_5">
     <path d="M 324.988412 266.825219 
L 324.988412 252.945219 
" style="fill:none;stroke:#ff7f0e;stroke-width:1.5;"/>
    </g>
    <g id="line2d_29"/>
    <g id="line2d_30">
     <g>
      <use style="fill:#ff7f0e;stroke:#ff7f0e;" x="324.988412" xlink:href="#mbbb2a9d153" y="259.885219"/>
     </g>
    </g>
    <g id="text_14">
     <!-- 0.12 ms -->
     <g transform="translate(349.972412 264.743219)scale(0.1388 -0.1388)">
      <use xlink:href="#DejaVuSans-48"/>
      <use x="63.623047" xlink:href="#DejaVuSans-46"/>
      <use x="95.410156" xlink:href="#DejaVuSans-49"/>
      <use x="159.033203" xlink:href="#DejaVuSans-50"/>
      <use x="222.65625" xlink:href="#DejaVuSans-32"/>
      <use x="254.443359" xlink:href="#DejaVuSans-109"/>
      <use x="351.855469" xlink:href="#DejaVuSans-115"/>
     </g>
    </g>
    <g id="LineCollection_6">
     <path d="M 324.988412 287.198456 
L 324.988412 273.318456 
" style="fill:none;stroke:#2ca02c;stroke-width:1.5;"/>
    </g>
    <g id="line2d_31"/>
    <g id="line2d_32">
     <g>
      <use style="fill:#2ca02c;stroke:#2ca02c;" x="324.988412" xlink:href="#mbab2358add" y="280.258456"/>
     </g>
    </g>
    <g id="text_15">
     <!-- 0.25 ms -->
     <g transform="translate(349.972412 285.116456)scale(0.1388 -0.1388)">
      <use xlink:href="#DejaVuSans-48"/>
      <use x="63.623047" xlink:href="#DejaVuSans-46"/>
      <use x="95.410156" xlink:href="#DejaVuSans-50"/>
      <use x="159.033203" xlink:href="#DejaVuSans-53"/>
      <use x="222.65625" xlink:href="#DejaVuSans-32"/>
      <use x="254.443359" xlink:href="#DejaVuSans-109"/>
      <use x="351.855469" xlink:href="#DejaVuSans-115"/>
     </g>
    </g>
   </g>
  </g>
 </g>
 <defs>
  <clipPath id="pf902fcb692">
   <rect height="266.112" width="357.12" x="61.410938" y="34.383062"/>
  </clipPath>
 </defs>
</svg>
