<?xml version="1.0" encoding="utf-8" standalone="no"?>
<!DOCTYPE svg PUBLIC "-//W3C//DTD SVG 1.1//EN"
  "http://www.w3.org/Graphics/SVG/1.1/DTD/svg11.dtd">
<!-- Created with matplotlib (https://matplotlib.org/) -->
<svg height="437.385325pt" version="1.1" viewBox="0 0 576.033817 437.385325" width="576.033817pt" xmlns="http://www.w3.org/2000/svg" xmlns:xlink="http://www.w3.org/1999/xlink">
 <defs>
  <style type="text/css">*{stroke-linecap:butt;stroke-linejoin:round;}</style>
 </defs>
 <g id="figure_1">
  <g id="patch_1">
   <path d="M 0 437.385325 
L 576.033817 437.385325 
L 576.033817 0 
L 0 0 
z
" style="fill:none;"/>
  </g>
  <g id="axes_1">
   <g id="patch_2">
    <path d="M 61.410938 385.311888 
L 568.833818 385.311888 
L 568.833818 7.2 
L 61.410938 7.2 
z
" style="fill:none;"/>
   </g>
   <g id="matplotlib.axis_1">
    <g id="xtick_1">
     <g id="line2d_1">
      <path clip-path="url(#pc5beb2d100)" d="M 144.13646 385.311888 
L 144.13646 7.2 
" style="fill:none;stroke:#b0b0b0;stroke-linecap:square;stroke-width:0.8;"/>
     </g>
     <g id="line2d_2">
      <defs>
       <path d="M 0 0 
L 0 3.5 
" id="m005f0a59be" style="stroke:#000000;stroke-width:0.8;"/>
      </defs>
      <g>
       <use style="stroke:#000000;stroke-width:0.8;" x="144.13646" xlink:href="#m005f0a59be" y="385.311888"/>
      </g>
     </g>
     <g id="text_1">
      <!-- −10 -->
      <g transform="translate(128.307944 403.709544)scale(0.15 -0.15)">
       <defs>
        <path d="M 10.59375 35.5 
L 73.1875 35.5 
L 73.1875 27.203125 
L 10.59375 27.203125 
z
" id="DejaVuSans-8722"/>
        <path d="M 12.40625 8.296875 
L 28.515625 8.296875 
L 28.515625 63.921875 
L 10.984375 60.40625 
L 10.984375 69.390625 
L 28.421875 72.90625 
L 38.28125 72.90625 
L 38.28125 8.296875 
L 54.390625 8.296875 
L 54.390625 0 
L 12.40625 0 
z
" id="DejaVuSans-49"/>
        <path d="M 31.78125 66.40625 
Q 24.171875 66.40625 20.328125 58.90625 
Q 16.5 51.421875 16.5 36.375 
Q 16.5 21.390625 20.328125 13.890625 
Q 24.171875 6.390625 31.78125 6.390625 
Q 39.453125 6.390625 43.28125 13.890625 
Q 47.125 21.390625 47.125 36.375 
Q 47.125 51.421875 43.28125 58.90625 
Q 39.453125 66.40625 31.78125 66.40625 
z
M 31.78125 74.21875 
Q 44.046875 74.21875 50.515625 64.515625 
Q 56.984375 54.828125 56.984375 36.375 
Q 56.984375 17.96875 50.515625 8.265625 
Q 44.046875 -1.421875 31.78125 -1.421875 
Q 19.53125 -1.421875 13.0625 8.265625 
Q 6.59375 17.96875 6.59375 36.375 
Q 6.59375 54.828125 13.0625 64.515625 
Q 19.53125 74.21875 31.78125 74.21875 
z
" id="DejaVuSans-48"/>
       </defs>
       <use xlink:href="#DejaVuSans-8722"/>
       <use x="83.789062" xlink:href="#DejaVuSans-49"/>
       <use x="147.412109" xlink:href="#DejaVuSans-48"/>
      </g>
     </g>
    </g>
    <g id="xtick_2">
     <g id="line2d_3">
      <path clip-path="url(#pc5beb2d100)" d="M 240.239278 385.311888 
L 240.239278 7.2 
" style="fill:none;stroke:#b0b0b0;stroke-linecap:square;stroke-width:0.8;"/>
     </g>
     <g id="line2d_4">
      <g>
       <use style="stroke:#000000;stroke-width:0.8;" x="240.239278" xlink:href="#m005f0a59be" y="385.311888"/>
      </g>
     </g>
     <g id="text_2">
      <!-- −5 -->
      <g transform="translate(229.182638 403.709544)scale(0.15 -0.15)">
       <defs>
        <path d="M 10.796875 72.90625 
L 49.515625 72.90625 
L 49.515625 64.59375 
L 19.828125 64.59375 
L 19.828125 46.734375 
Q 21.96875 47.46875 24.109375 47.828125 
Q 26.265625 48.1875 28.421875 48.1875 
Q 40.625 48.1875 47.75 41.5 
Q 54.890625 34.8125 54.890625 23.390625 
Q 54.890625 11.625 47.5625 5.09375 
Q 40.234375 -1.421875 26.90625 -1.421875 
Q 22.3125 -1.421875 17.546875 -0.640625 
Q 12.796875 0.140625 7.71875 1.703125 
L 7.71875 11.625 
Q 12.109375 9.234375 16.796875 8.0625 
Q 21.484375 6.890625 26.703125 6.890625 
Q 35.15625 6.890625 40.078125 11.328125 
Q 45.015625 15.765625 45.015625 23.390625 
Q 45.015625 31 40.078125 35.4375 
Q 35.15625 39.890625 26.703125 39.890625 
Q 22.75 39.890625 18.8125 39.015625 
Q 14.890625 38.140625 10.796875 36.28125 
z
" id="DejaVuSans-53"/>
       </defs>
       <use xlink:href="#DejaVuSans-8722"/>
       <use x="83.789062" xlink:href="#DejaVuSans-53"/>
      </g>
     </g>
    </g>
    <g id="xtick_3">
     <g id="line2d_5">
      <path clip-path="url(#pc5beb2d100)" d="M 336.342096 385.311888 
L 336.342096 7.2 
" style="fill:none;stroke:#b0b0b0;stroke-linecap:square;stroke-width:0.8;"/>
     </g>
     <g id="line2d_6">
      <g>
       <use style="stroke:#000000;stroke-width:0.8;" x="336.342096" xlink:href="#m005f0a59be" y="385.311888"/>
      </g>
     </g>
     <g id="text_3">
      <!-- 0 -->
      <g transform="translate(331.570221 403.709544)scale(0.15 -0.15)">
       <use xlink:href="#DejaVuSans-48"/>
      </g>
     </g>
    </g>
    <g id="xtick_4">
     <g id="line2d_7">
      <path clip-path="url(#pc5beb2d100)" d="M 432.444915 385.311888 
L 432.444915 7.2 
" style="fill:none;stroke:#b0b0b0;stroke-linecap:square;stroke-width:0.8;"/>
     </g>
     <g id="line2d_8">
      <g>
       <use style="stroke:#000000;stroke-width:0.8;" x="432.444915" xlink:href="#m005f0a59be" y="385.311888"/>
      </g>
     </g>
     <g id="text_4">
      <!-- 5 -->
      <g transform="translate(427.67304 403.709544)scale(0.15 -0.15)">
       <use xlink:href="#DejaVuSans-53"/>
      </g>
     </g>
    </g>
    <g id="xtick_5">
     <g id="line2d_9">
      <path clip-path="url(#pc5beb2d100)" d="M 528.547733 385.311888 
L 528.547733 7.2 
" style="fill:none;stroke:#b0b0b0;stroke-linecap:square;stroke-width:0.8;"/>
     </g>
     <g id="line2d_10">
      <g>
       <use style="stroke:#000000;stroke-width:0.8;" x="528.547733" xlink:href="#m005f0a59be" y="385.311888"/>
      </g>
     </g>
     <g id="text_5">
      <!-- 10 -->
      <g transform="translate(519.003983 403.709544)scale(0.15 -0.15)">
       <use xlink:href="#DejaVuSans-49"/>
       <use x="63.623047" xlink:href="#DejaVuSans-48"/>
      </g>
     </g>
    </g>
    <g id="text_6">
     <!-- Raman Detuning (kHz) -->
     <g transform="translate(201.433315 426.02595)scale(0.2 -0.2)">
      <defs>
       <path d="M 44.390625 34.1875 
Q 47.5625 33.109375 50.5625 29.59375 
Q 53.5625 26.078125 56.59375 19.921875 
L 66.609375 0 
L 56 0 
L 46.6875 18.703125 
Q 43.0625 26.03125 39.671875 28.421875 
Q 36.28125 30.8125 30.421875 30.8125 
L 19.671875 30.8125 
L 19.671875 0 
L 9.8125 0 
L 9.8125 72.90625 
L 32.078125 72.90625 
Q 44.578125 72.90625 50.734375 67.671875 
Q 56.890625 62.453125 56.890625 51.90625 
Q 56.890625 45.015625 53.6875 40.46875 
Q 50.484375 35.9375 44.390625 34.1875 
z
M 19.671875 64.796875 
L 19.671875 38.921875 
L 32.078125 38.921875 
Q 39.203125 38.921875 42.84375 42.21875 
Q 46.484375 45.515625 46.484375 51.90625 
Q 46.484375 58.296875 42.84375 61.546875 
Q 39.203125 64.796875 32.078125 64.796875 
z
" id="DejaVuSans-82"/>
       <path d="M 34.28125 27.484375 
Q 23.390625 27.484375 19.1875 25 
Q 14.984375 22.515625 14.984375 16.5 
Q 14.984375 11.71875 18.140625 8.90625 
Q 21.296875 6.109375 26.703125 6.109375 
Q 34.1875 6.109375 38.703125 11.40625 
Q 43.21875 16.703125 43.21875 25.484375 
L 43.21875 27.484375 
z
M 52.203125 31.203125 
L 52.203125 0 
L 43.21875 0 
L 43.21875 8.296875 
Q 40.140625 3.328125 35.546875 0.953125 
Q 30.953125 -1.421875 24.3125 -1.421875 
Q 15.921875 -1.421875 10.953125 3.296875 
Q 6 8.015625 6 15.921875 
Q 6 25.140625 12.171875 29.828125 
Q 18.359375 34.515625 30.609375 34.515625 
L 43.21875 34.515625 
L 43.21875 35.40625 
Q 43.21875 41.609375 39.140625 45 
Q 35.0625 48.390625 27.6875 48.390625 
Q 23 48.390625 18.546875 47.265625 
Q 14.109375 46.140625 10.015625 43.890625 
L 10.015625 52.203125 
Q 14.9375 54.109375 19.578125 55.046875 
Q 24.21875 56 28.609375 56 
Q 40.484375 56 46.34375 49.84375 
Q 52.203125 43.703125 52.203125 31.203125 
z
" id="DejaVuSans-97"/>
       <path d="M 52 44.1875 
Q 55.375 50.25 60.0625 53.125 
Q 64.75 56 71.09375 56 
Q 79.640625 56 84.28125 50.015625 
Q 88.921875 44.046875 88.921875 33.015625 
L 88.921875 0 
L 79.890625 0 
L 79.890625 32.71875 
Q 79.890625 40.578125 77.09375 44.375 
Q 74.3125 48.1875 68.609375 48.1875 
Q 61.625 48.1875 57.5625 43.546875 
Q 53.515625 38.921875 53.515625 30.90625 
L 53.515625 0 
L 44.484375 0 
L 44.484375 32.71875 
Q 44.484375 40.625 41.703125 44.40625 
Q 38.921875 48.1875 33.109375 48.1875 
Q 26.21875 48.1875 22.15625 43.53125 
Q 18.109375 38.875 18.109375 30.90625 
L 18.109375 0 
L 9.078125 0 
L 9.078125 54.6875 
L 18.109375 54.6875 
L 18.109375 46.1875 
Q 21.1875 51.21875 25.484375 53.609375 
Q 29.78125 56 35.6875 56 
Q 41.65625 56 45.828125 52.96875 
Q 50 49.953125 52 44.1875 
z
" id="DejaVuSans-109"/>
       <path d="M 54.890625 33.015625 
L 54.890625 0 
L 45.90625 0 
L 45.90625 32.71875 
Q 45.90625 40.484375 42.875 44.328125 
Q 39.84375 48.1875 33.796875 48.1875 
Q 26.515625 48.1875 22.3125 43.546875 
Q 18.109375 38.921875 18.109375 30.90625 
L 18.109375 0 
L 9.078125 0 
L 9.078125 54.6875 
L 18.109375 54.6875 
L 18.109375 46.1875 
Q 21.34375 51.125 25.703125 53.5625 
Q 30.078125 56 35.796875 56 
Q 45.21875 56 50.046875 50.171875 
Q 54.890625 44.34375 54.890625 33.015625 
z
" id="DejaVuSans-110"/>
       <path id="DejaVuSans-32"/>
       <path d="M 19.671875 64.796875 
L 19.671875 8.109375 
L 31.59375 8.109375 
Q 46.6875 8.109375 53.6875 14.9375 
Q 60.6875 21.78125 60.6875 36.53125 
Q 60.6875 51.171875 53.6875 57.984375 
Q 46.6875 64.796875 31.59375 64.796875 
z
M 9.8125 72.90625 
L 30.078125 72.90625 
Q 51.265625 72.90625 61.171875 64.09375 
Q 71.09375 55.28125 71.09375 36.53125 
Q 71.09375 17.671875 61.125 8.828125 
Q 51.171875 0 30.078125 0 
L 9.8125 0 
z
" id="DejaVuSans-68"/>
       <path d="M 56.203125 29.59375 
L 56.203125 25.203125 
L 14.890625 25.203125 
Q 15.484375 15.921875 20.484375 11.0625 
Q 25.484375 6.203125 34.421875 6.203125 
Q 39.59375 6.203125 44.453125 7.46875 
Q 49.3125 8.734375 54.109375 11.28125 
L 54.109375 2.78125 
Q 49.265625 0.734375 44.1875 -0.34375 
Q 39.109375 -1.421875 33.890625 -1.421875 
Q 20.796875 -1.421875 13.15625 6.1875 
Q 5.515625 13.8125 5.515625 26.8125 
Q 5.515625 40.234375 12.765625 48.109375 
Q 20.015625 56 32.328125 56 
Q 43.359375 56 49.78125 48.890625 
Q 56.203125 41.796875 56.203125 29.59375 
z
M 47.21875 32.234375 
Q 47.125 39.59375 43.09375 43.984375 
Q 39.0625 48.390625 32.421875 48.390625 
Q 24.90625 48.390625 20.390625 44.140625 
Q 15.875 39.890625 15.1875 32.171875 
z
" id="DejaVuSans-101"/>
       <path d="M 18.3125 70.21875 
L 18.3125 54.6875 
L 36.8125 54.6875 
L 36.8125 47.703125 
L 18.3125 47.703125 
L 18.3125 18.015625 
Q 18.3125 11.328125 20.140625 9.421875 
Q 21.96875 7.515625 27.59375 7.515625 
L 36.8125 7.515625 
L 36.8125 0 
L 27.59375 0 
Q 17.1875 0 13.234375 3.875 
Q 9.28125 7.765625 9.28125 18.015625 
L 9.28125 47.703125 
L 2.6875 47.703125 
L 2.6875 54.6875 
L 9.28125 54.6875 
L 9.28125 70.21875 
z
" id="DejaVuSans-116"/>
       <path d="M 8.5 21.578125 
L 8.5 54.6875 
L 17.484375 54.6875 
L 17.484375 21.921875 
Q 17.484375 14.15625 20.5 10.265625 
Q 23.53125 6.390625 29.59375 6.390625 
Q 36.859375 6.390625 41.078125 11.03125 
Q 45.3125 15.671875 45.3125 23.6875 
L 45.3125 54.6875 
L 54.296875 54.6875 
L 54.296875 0 
L 45.3125 0 
L 45.3125 8.40625 
Q 42.046875 3.421875 37.71875 1 
Q 33.40625 -1.421875 27.6875 -1.421875 
Q 18.265625 -1.421875 13.375 4.4375 
Q 8.5 10.296875 8.5 21.578125 
z
M 31.109375 56 
z
" id="DejaVuSans-117"/>
       <path d="M 9.421875 54.6875 
L 18.40625 54.6875 
L 18.40625 0 
L 9.421875 0 
z
M 9.421875 75.984375 
L 18.40625 75.984375 
L 18.40625 64.59375 
L 9.421875 64.59375 
z
" id="DejaVuSans-105"/>
       <path d="M 45.40625 27.984375 
Q 45.40625 37.75 41.375 43.109375 
Q 37.359375 48.484375 30.078125 48.484375 
Q 22.859375 48.484375 18.828125 43.109375 
Q 14.796875 37.75 14.796875 27.984375 
Q 14.796875 18.265625 18.828125 12.890625 
Q 22.859375 7.515625 30.078125 7.515625 
Q 37.359375 7.515625 41.375 12.890625 
Q 45.40625 18.265625 45.40625 27.984375 
z
M 54.390625 6.78125 
Q 54.390625 -7.171875 48.1875 -13.984375 
Q 42 -20.796875 29.203125 -20.796875 
Q 24.46875 -20.796875 20.265625 -20.09375 
Q 16.0625 -19.390625 12.109375 -17.921875 
L 12.109375 -9.1875 
Q 16.0625 -11.328125 19.921875 -12.34375 
Q 23.78125 -13.375 27.78125 -13.375 
Q 36.625 -13.375 41.015625 -8.765625 
Q 45.40625 -4.15625 45.40625 5.171875 
L 45.40625 9.625 
Q 42.625 4.78125 38.28125 2.390625 
Q 33.9375 0 27.875 0 
Q 17.828125 0 11.671875 7.65625 
Q 5.515625 15.328125 5.515625 27.984375 
Q 5.515625 40.671875 11.671875 48.328125 
Q 17.828125 56 27.875 56 
Q 33.9375 56 38.28125 53.609375 
Q 42.625 51.21875 45.40625 46.390625 
L 45.40625 54.6875 
L 54.390625 54.6875 
z
" id="DejaVuSans-103"/>
       <path d="M 31 75.875 
Q 24.46875 64.65625 21.28125 53.65625 
Q 18.109375 42.671875 18.109375 31.390625 
Q 18.109375 20.125 21.3125 9.0625 
Q 24.515625 -2 31 -13.1875 
L 23.1875 -13.1875 
Q 15.875 -1.703125 12.234375 9.375 
Q 8.59375 20.453125 8.59375 31.390625 
Q 8.59375 42.28125 12.203125 53.3125 
Q 15.828125 64.359375 23.1875 75.875 
z
" id="DejaVuSans-40"/>
       <path d="M 9.078125 75.984375 
L 18.109375 75.984375 
L 18.109375 31.109375 
L 44.921875 54.6875 
L 56.390625 54.6875 
L 27.390625 29.109375 
L 57.625 0 
L 45.90625 0 
L 18.109375 26.703125 
L 18.109375 0 
L 9.078125 0 
z
" id="DejaVuSans-107"/>
       <path d="M 9.8125 72.90625 
L 19.671875 72.90625 
L 19.671875 43.015625 
L 55.515625 43.015625 
L 55.515625 72.90625 
L 65.375 72.90625 
L 65.375 0 
L 55.515625 0 
L 55.515625 34.71875 
L 19.671875 34.71875 
L 19.671875 0 
L 9.8125 0 
z
" id="DejaVuSans-72"/>
       <path d="M 5.515625 54.6875 
L 48.1875 54.6875 
L 48.1875 46.484375 
L 14.40625 7.171875 
L 48.1875 7.171875 
L 48.1875 0 
L 4.296875 0 
L 4.296875 8.203125 
L 38.09375 47.515625 
L 5.515625 47.515625 
z
" id="DejaVuSans-122"/>
       <path d="M 8.015625 75.875 
L 15.828125 75.875 
Q 23.140625 64.359375 26.78125 53.3125 
Q 30.421875 42.28125 30.421875 31.390625 
Q 30.421875 20.453125 26.78125 9.375 
Q 23.140625 -1.703125 15.828125 -13.1875 
L 8.015625 -13.1875 
Q 14.5 -2 17.703125 9.0625 
Q 20.90625 20.125 20.90625 31.390625 
Q 20.90625 42.671875 17.703125 53.65625 
Q 14.5 64.65625 8.015625 75.875 
z
" id="DejaVuSans-41"/>
      </defs>
      <use xlink:href="#DejaVuSans-82"/>
      <use x="67.232422" xlink:href="#DejaVuSans-97"/>
      <use x="128.511719" xlink:href="#DejaVuSans-109"/>
      <use x="225.923828" xlink:href="#DejaVuSans-97"/>
      <use x="287.203125" xlink:href="#DejaVuSans-110"/>
      <use x="350.582031" xlink:href="#DejaVuSans-32"/>
      <use x="382.369141" xlink:href="#DejaVuSans-68"/>
      <use x="459.371094" xlink:href="#DejaVuSans-101"/>
      <use x="520.894531" xlink:href="#DejaVuSans-116"/>
      <use x="560.103516" xlink:href="#DejaVuSans-117"/>
      <use x="623.482422" xlink:href="#DejaVuSans-110"/>
      <use x="686.861328" xlink:href="#DejaVuSans-105"/>
      <use x="714.644531" xlink:href="#DejaVuSans-110"/>
      <use x="778.023438" xlink:href="#DejaVuSans-103"/>
      <use x="841.5" xlink:href="#DejaVuSans-32"/>
      <use x="873.287109" xlink:href="#DejaVuSans-40"/>
      <use x="912.300781" xlink:href="#DejaVuSans-107"/>
      <use x="970.210938" xlink:href="#DejaVuSans-72"/>
      <use x="1045.40625" xlink:href="#DejaVuSans-122"/>
      <use x="1097.896484" xlink:href="#DejaVuSans-41"/>
     </g>
    </g>
   </g>
   <g id="matplotlib.axis_2">
    <g id="ytick_1">
     <g id="line2d_11">
      <path clip-path="url(#pc5beb2d100)" d="M 61.410938 333.629324 
L 568.833818 333.629324 
" style="fill:none;stroke:#b0b0b0;stroke-linecap:square;stroke-width:0.8;"/>
     </g>
     <g id="line2d_12">
      <defs>
       <path d="M 0 0 
L -3.5 0 
" id="mc3ce260a5b" style="stroke:#000000;stroke-width:0.8;"/>
      </defs>
      <g>
       <use style="stroke:#000000;stroke-width:0.8;" x="61.410938" xlink:href="#mc3ce260a5b" y="333.629324"/>
      </g>
     </g>
     <g id="text_7">
      <!-- 0.2 -->
      <g transform="translate(30.55625 339.328152)scale(0.15 -0.15)">
       <defs>
        <path d="M 10.6875 12.40625 
L 21 12.40625 
L 21 0 
L 10.6875 0 
z
" id="DejaVuSans-46"/>
        <path d="M 19.1875 8.296875 
L 53.609375 8.296875 
L 53.609375 0 
L 7.328125 0 
L 7.328125 8.296875 
Q 12.9375 14.109375 22.625 23.890625 
Q 32.328125 33.6875 34.8125 36.53125 
Q 39.546875 41.84375 41.421875 45.53125 
Q 43.3125 49.21875 43.3125 52.78125 
Q 43.3125 58.59375 39.234375 62.25 
Q 35.15625 65.921875 28.609375 65.921875 
Q 23.96875 65.921875 18.8125 64.3125 
Q 13.671875 62.703125 7.8125 59.421875 
L 7.8125 69.390625 
Q 13.765625 71.78125 18.9375 73 
Q 24.125 74.21875 28.421875 74.21875 
Q 39.75 74.21875 46.484375 68.546875 
Q 53.21875 62.890625 53.21875 53.421875 
Q 53.21875 48.921875 51.53125 44.890625 
Q 49.859375 40.875 45.40625 35.40625 
Q 44.1875 33.984375 37.640625 27.21875 
Q 31.109375 20.453125 19.1875 8.296875 
z
" id="DejaVuSans-50"/>
       </defs>
       <use xlink:href="#DejaVuSans-48"/>
       <use x="63.623047" xlink:href="#DejaVuSans-46"/>
       <use x="95.410156" xlink:href="#DejaVuSans-50"/>
      </g>
     </g>
    </g>
    <g id="ytick_2">
     <g id="line2d_13">
      <path clip-path="url(#pc5beb2d100)" d="M 61.410938 260.594026 
L 568.833818 260.594026 
" style="fill:none;stroke:#b0b0b0;stroke-linecap:square;stroke-width:0.8;"/>
     </g>
     <g id="line2d_14">
      <g>
       <use style="stroke:#000000;stroke-width:0.8;" x="61.410938" xlink:href="#mc3ce260a5b" y="260.594026"/>
      </g>
     </g>
     <g id="text_8">
      <!-- 0.4 -->
      <g transform="translate(30.55625 266.292854)scale(0.15 -0.15)">
       <defs>
        <path d="M 37.796875 64.3125 
L 12.890625 25.390625 
L 37.796875 25.390625 
z
M 35.203125 72.90625 
L 47.609375 72.90625 
L 47.609375 25.390625 
L 58.015625 25.390625 
L 58.015625 17.1875 
L 47.609375 17.1875 
L 47.609375 0 
L 37.796875 0 
L 37.796875 17.1875 
L 4.890625 17.1875 
L 4.890625 26.703125 
z
" id="DejaVuSans-52"/>
       </defs>
       <use xlink:href="#DejaVuSans-48"/>
       <use x="63.623047" xlink:href="#DejaVuSans-46"/>
       <use x="95.410156" xlink:href="#DejaVuSans-52"/>
      </g>
     </g>
    </g>
    <g id="ytick_3">
     <g id="line2d_15">
      <path clip-path="url(#pc5beb2d100)" d="M 61.410938 187.558729 
L 568.833818 187.558729 
" style="fill:none;stroke:#b0b0b0;stroke-linecap:square;stroke-width:0.8;"/>
     </g>
     <g id="line2d_16">
      <g>
       <use style="stroke:#000000;stroke-width:0.8;" x="61.410938" xlink:href="#mc3ce260a5b" y="187.558729"/>
      </g>
     </g>
     <g id="text_9">
      <!-- 0.6 -->
      <g transform="translate(30.55625 193.257557)scale(0.15 -0.15)">
       <defs>
        <path d="M 33.015625 40.375 
Q 26.375 40.375 22.484375 35.828125 
Q 18.609375 31.296875 18.609375 23.390625 
Q 18.609375 15.53125 22.484375 10.953125 
Q 26.375 6.390625 33.015625 6.390625 
Q 39.65625 6.390625 43.53125 10.953125 
Q 47.40625 15.53125 47.40625 23.390625 
Q 47.40625 31.296875 43.53125 35.828125 
Q 39.65625 40.375 33.015625 40.375 
z
M 52.59375 71.296875 
L 52.59375 62.3125 
Q 48.875 64.0625 45.09375 64.984375 
Q 41.3125 65.921875 37.59375 65.921875 
Q 27.828125 65.921875 22.671875 59.328125 
Q 17.53125 52.734375 16.796875 39.40625 
Q 19.671875 43.65625 24.015625 45.921875 
Q 28.375 48.1875 33.59375 48.1875 
Q 44.578125 48.1875 50.953125 41.515625 
Q 57.328125 34.859375 57.328125 23.390625 
Q 57.328125 12.15625 50.6875 5.359375 
Q 44.046875 -1.421875 33.015625 -1.421875 
Q 20.359375 -1.421875 13.671875 8.265625 
Q 6.984375 17.96875 6.984375 36.375 
Q 6.984375 53.65625 15.1875 63.9375 
Q 23.390625 74.21875 37.203125 74.21875 
Q 40.921875 74.21875 44.703125 73.484375 
Q 48.484375 72.75 52.59375 71.296875 
z
" id="DejaVuSans-54"/>
       </defs>
       <use xlink:href="#DejaVuSans-48"/>
       <use x="63.623047" xlink:href="#DejaVuSans-46"/>
       <use x="95.410156" xlink:href="#DejaVuSans-54"/>
      </g>
     </g>
    </g>
    <g id="ytick_4">
     <g id="line2d_17">
      <path clip-path="url(#pc5beb2d100)" d="M 61.410938 114.523431 
L 568.833818 114.523431 
" style="fill:none;stroke:#b0b0b0;stroke-linecap:square;stroke-width:0.8;"/>
     </g>
     <g id="line2d_18">
      <g>
       <use style="stroke:#000000;stroke-width:0.8;" x="61.410938" xlink:href="#mc3ce260a5b" y="114.523431"/>
      </g>
     </g>
     <g id="text_10">
      <!-- 0.8 -->
      <g transform="translate(30.55625 120.222259)scale(0.15 -0.15)">
       <defs>
        <path d="M 31.78125 34.625 
Q 24.75 34.625 20.71875 30.859375 
Q 16.703125 27.09375 16.703125 20.515625 
Q 16.703125 13.921875 20.71875 10.15625 
Q 24.75 6.390625 31.78125 6.390625 
Q 38.8125 6.390625 42.859375 10.171875 
Q 46.921875 13.96875 46.921875 20.515625 
Q 46.921875 27.09375 42.890625 30.859375 
Q 38.875 34.625 31.78125 34.625 
z
M 21.921875 38.8125 
Q 15.578125 40.375 12.03125 44.71875 
Q 8.5 49.078125 8.5 55.328125 
Q 8.5 64.0625 14.71875 69.140625 
Q 20.953125 74.21875 31.78125 74.21875 
Q 42.671875 74.21875 48.875 69.140625 
Q 55.078125 64.0625 55.078125 55.328125 
Q 55.078125 49.078125 51.53125 44.71875 
Q 48 40.375 41.703125 38.8125 
Q 48.828125 37.15625 52.796875 32.3125 
Q 56.78125 27.484375 56.78125 20.515625 
Q 56.78125 9.90625 50.3125 4.234375 
Q 43.84375 -1.421875 31.78125 -1.421875 
Q 19.734375 -1.421875 13.25 4.234375 
Q 6.78125 9.90625 6.78125 20.515625 
Q 6.78125 27.484375 10.78125 32.3125 
Q 14.796875 37.15625 21.921875 38.8125 
z
M 18.3125 54.390625 
Q 18.3125 48.734375 21.84375 45.5625 
Q 25.390625 42.390625 31.78125 42.390625 
Q 38.140625 42.390625 41.71875 45.5625 
Q 45.3125 48.734375 45.3125 54.390625 
Q 45.3125 60.0625 41.71875 63.234375 
Q 38.140625 66.40625 31.78125 66.40625 
Q 25.390625 66.40625 21.84375 63.234375 
Q 18.3125 60.0625 18.3125 54.390625 
z
" id="DejaVuSans-56"/>
       </defs>
       <use xlink:href="#DejaVuSans-48"/>
       <use x="63.623047" xlink:href="#DejaVuSans-46"/>
       <use x="95.410156" xlink:href="#DejaVuSans-56"/>
      </g>
     </g>
    </g>
    <g id="ytick_5">
     <g id="line2d_19">
      <path clip-path="url(#pc5beb2d100)" d="M 61.410938 41.488133 
L 568.833818 41.488133 
" style="fill:none;stroke:#b0b0b0;stroke-linecap:square;stroke-width:0.8;"/>
     </g>
     <g id="line2d_20">
      <g>
       <use style="stroke:#000000;stroke-width:0.8;" x="61.410938" xlink:href="#mc3ce260a5b" y="41.488133"/>
      </g>
     </g>
     <g id="text_11">
      <!-- 1.0 -->
      <g transform="translate(30.55625 47.186961)scale(0.15 -0.15)">
       <use xlink:href="#DejaVuSans-49"/>
       <use x="63.623047" xlink:href="#DejaVuSans-46"/>
       <use x="95.410156" xlink:href="#DejaVuSans-48"/>
      </g>
     </g>
    </g>
    <g id="text_12">
     <!-- Fraction of Atomic Ground State -->
     <g transform="translate(22.396875 356.495006)rotate(-90)scale(0.2 -0.2)">
      <defs>
       <path d="M 9.8125 72.90625 
L 51.703125 72.90625 
L 51.703125 64.59375 
L 19.671875 64.59375 
L 19.671875 43.109375 
L 48.578125 43.109375 
L 48.578125 34.8125 
L 19.671875 34.8125 
L 19.671875 0 
L 9.8125 0 
z
" id="DejaVuSans-70"/>
       <path d="M 41.109375 46.296875 
Q 39.59375 47.171875 37.8125 47.578125 
Q 36.03125 48 33.890625 48 
Q 26.265625 48 22.1875 43.046875 
Q 18.109375 38.09375 18.109375 28.8125 
L 18.109375 0 
L 9.078125 0 
L 9.078125 54.6875 
L 18.109375 54.6875 
L 18.109375 46.1875 
Q 20.953125 51.171875 25.484375 53.578125 
Q 30.03125 56 36.53125 56 
Q 37.453125 56 38.578125 55.875 
Q 39.703125 55.765625 41.0625 55.515625 
z
" id="DejaVuSans-114"/>
       <path d="M 48.78125 52.59375 
L 48.78125 44.1875 
Q 44.96875 46.296875 41.140625 47.34375 
Q 37.3125 48.390625 33.40625 48.390625 
Q 24.65625 48.390625 19.8125 42.84375 
Q 14.984375 37.3125 14.984375 27.296875 
Q 14.984375 17.28125 19.8125 11.734375 
Q 24.65625 6.203125 33.40625 6.203125 
Q 37.3125 6.203125 41.140625 7.25 
Q 44.96875 8.296875 48.78125 10.40625 
L 48.78125 2.09375 
Q 45.015625 0.34375 40.984375 -0.53125 
Q 36.96875 -1.421875 32.421875 -1.421875 
Q 20.0625 -1.421875 12.78125 6.34375 
Q 5.515625 14.109375 5.515625 27.296875 
Q 5.515625 40.671875 12.859375 48.328125 
Q 20.21875 56 33.015625 56 
Q 37.15625 56 41.109375 55.140625 
Q 45.0625 54.296875 48.78125 52.59375 
z
" id="DejaVuSans-99"/>
       <path d="M 30.609375 48.390625 
Q 23.390625 48.390625 19.1875 42.75 
Q 14.984375 37.109375 14.984375 27.296875 
Q 14.984375 17.484375 19.15625 11.84375 
Q 23.34375 6.203125 30.609375 6.203125 
Q 37.796875 6.203125 41.984375 11.859375 
Q 46.1875 17.53125 46.1875 27.296875 
Q 46.1875 37.015625 41.984375 42.703125 
Q 37.796875 48.390625 30.609375 48.390625 
z
M 30.609375 56 
Q 42.328125 56 49.015625 48.375 
Q 55.71875 40.765625 55.71875 27.296875 
Q 55.71875 13.875 49.015625 6.21875 
Q 42.328125 -1.421875 30.609375 -1.421875 
Q 18.84375 -1.421875 12.171875 6.21875 
Q 5.515625 13.875 5.515625 27.296875 
Q 5.515625 40.765625 12.171875 48.375 
Q 18.84375 56 30.609375 56 
z
" id="DejaVuSans-111"/>
       <path d="M 37.109375 75.984375 
L 37.109375 68.5 
L 28.515625 68.5 
Q 23.6875 68.5 21.796875 66.546875 
Q 19.921875 64.59375 19.921875 59.515625 
L 19.921875 54.6875 
L 34.71875 54.6875 
L 34.71875 47.703125 
L 19.921875 47.703125 
L 19.921875 0 
L 10.890625 0 
L 10.890625 47.703125 
L 2.296875 47.703125 
L 2.296875 54.6875 
L 10.890625 54.6875 
L 10.890625 58.5 
Q 10.890625 67.625 15.140625 71.796875 
Q 19.390625 75.984375 28.609375 75.984375 
z
" id="DejaVuSans-102"/>
       <path d="M 34.1875 63.1875 
L 20.796875 26.90625 
L 47.609375 26.90625 
z
M 28.609375 72.90625 
L 39.796875 72.90625 
L 67.578125 0 
L 57.328125 0 
L 50.6875 18.703125 
L 17.828125 18.703125 
L 11.1875 0 
L 0.78125 0 
z
" id="DejaVuSans-65"/>
       <path d="M 59.515625 10.40625 
L 59.515625 29.984375 
L 43.40625 29.984375 
L 43.40625 38.09375 
L 69.28125 38.09375 
L 69.28125 6.78125 
Q 63.578125 2.734375 56.6875 0.65625 
Q 49.8125 -1.421875 42 -1.421875 
Q 24.90625 -1.421875 15.25 8.5625 
Q 5.609375 18.5625 5.609375 36.375 
Q 5.609375 54.25 15.25 64.234375 
Q 24.90625 74.21875 42 74.21875 
Q 49.125 74.21875 55.546875 72.453125 
Q 61.96875 70.703125 67.390625 67.28125 
L 67.390625 56.78125 
Q 61.921875 61.421875 55.765625 63.765625 
Q 49.609375 66.109375 42.828125 66.109375 
Q 29.4375 66.109375 22.71875 58.640625 
Q 16.015625 51.171875 16.015625 36.375 
Q 16.015625 21.625 22.71875 14.15625 
Q 29.4375 6.6875 42.828125 6.6875 
Q 48.046875 6.6875 52.140625 7.59375 
Q 56.25 8.5 59.515625 10.40625 
z
" id="DejaVuSans-71"/>
       <path d="M 45.40625 46.390625 
L 45.40625 75.984375 
L 54.390625 75.984375 
L 54.390625 0 
L 45.40625 0 
L 45.40625 8.203125 
Q 42.578125 3.328125 38.25 0.953125 
Q 33.9375 -1.421875 27.875 -1.421875 
Q 17.96875 -1.421875 11.734375 6.484375 
Q 5.515625 14.40625 5.515625 27.296875 
Q 5.515625 40.1875 11.734375 48.09375 
Q 17.96875 56 27.875 56 
Q 33.9375 56 38.25 53.625 
Q 42.578125 51.265625 45.40625 46.390625 
z
M 14.796875 27.296875 
Q 14.796875 17.390625 18.875 11.75 
Q 22.953125 6.109375 30.078125 6.109375 
Q 37.203125 6.109375 41.296875 11.75 
Q 45.40625 17.390625 45.40625 27.296875 
Q 45.40625 37.203125 41.296875 42.84375 
Q 37.203125 48.484375 30.078125 48.484375 
Q 22.953125 48.484375 18.875 42.84375 
Q 14.796875 37.203125 14.796875 27.296875 
z
" id="DejaVuSans-100"/>
       <path d="M 53.515625 70.515625 
L 53.515625 60.890625 
Q 47.90625 63.578125 42.921875 64.890625 
Q 37.9375 66.21875 33.296875 66.21875 
Q 25.25 66.21875 20.875 63.09375 
Q 16.5 59.96875 16.5 54.203125 
Q 16.5 49.359375 19.40625 46.890625 
Q 22.3125 44.4375 30.421875 42.921875 
L 36.375 41.703125 
Q 47.40625 39.59375 52.65625 34.296875 
Q 57.90625 29 57.90625 20.125 
Q 57.90625 9.515625 50.796875 4.046875 
Q 43.703125 -1.421875 29.984375 -1.421875 
Q 24.8125 -1.421875 18.96875 -0.25 
Q 13.140625 0.921875 6.890625 3.21875 
L 6.890625 13.375 
Q 12.890625 10.015625 18.65625 8.296875 
Q 24.421875 6.59375 29.984375 6.59375 
Q 38.421875 6.59375 43.015625 9.90625 
Q 47.609375 13.234375 47.609375 19.390625 
Q 47.609375 24.75 44.3125 27.78125 
Q 41.015625 30.8125 33.5 32.328125 
L 27.484375 33.5 
Q 16.453125 35.6875 11.515625 40.375 
Q 6.59375 45.0625 6.59375 53.421875 
Q 6.59375 63.09375 13.40625 68.65625 
Q 20.21875 74.21875 32.171875 74.21875 
Q 37.3125 74.21875 42.625 73.28125 
Q 47.953125 72.359375 53.515625 70.515625 
z
" id="DejaVuSans-83"/>
      </defs>
      <use xlink:href="#DejaVuSans-70"/>
      <use x="50.269531" xlink:href="#DejaVuSans-114"/>
      <use x="91.382812" xlink:href="#DejaVuSans-97"/>
      <use x="152.662109" xlink:href="#DejaVuSans-99"/>
      <use x="207.642578" xlink:href="#DejaVuSans-116"/>
      <use x="246.851562" xlink:href="#DejaVuSans-105"/>
      <use x="274.634766" xlink:href="#DejaVuSans-111"/>
      <use x="335.816406" xlink:href="#DejaVuSans-110"/>
      <use x="399.195312" xlink:href="#DejaVuSans-32"/>
      <use x="430.982422" xlink:href="#DejaVuSans-111"/>
      <use x="492.164062" xlink:href="#DejaVuSans-102"/>
      <use x="527.369141" xlink:href="#DejaVuSans-32"/>
      <use x="559.15625" xlink:href="#DejaVuSans-65"/>
      <use x="625.814453" xlink:href="#DejaVuSans-116"/>
      <use x="665.023438" xlink:href="#DejaVuSans-111"/>
      <use x="726.205078" xlink:href="#DejaVuSans-109"/>
      <use x="823.617188" xlink:href="#DejaVuSans-105"/>
      <use x="851.400391" xlink:href="#DejaVuSans-99"/>
      <use x="906.380859" xlink:href="#DejaVuSans-32"/>
      <use x="938.167969" xlink:href="#DejaVuSans-71"/>
      <use x="1015.658203" xlink:href="#DejaVuSans-114"/>
      <use x="1054.521484" xlink:href="#DejaVuSans-111"/>
      <use x="1115.703125" xlink:href="#DejaVuSans-117"/>
      <use x="1179.082031" xlink:href="#DejaVuSans-110"/>
      <use x="1242.460938" xlink:href="#DejaVuSans-100"/>
      <use x="1305.9375" xlink:href="#DejaVuSans-32"/>
      <use x="1337.724609" xlink:href="#DejaVuSans-83"/>
      <use x="1401.201172" xlink:href="#DejaVuSans-116"/>
      <use x="1440.410156" xlink:href="#DejaVuSans-97"/>
      <use x="1501.689453" xlink:href="#DejaVuSans-116"/>
      <use x="1540.898438" xlink:href="#DejaVuSans-101"/>
     </g>
    </g>
   </g>
   <g id="LineCollection_1">
    <path clip-path="url(#pc5beb2d100)" d="M 336.342096 75.370857 
L 336.342096 29.282155 
" style="fill:none;stroke:#1f77b4;stroke-width:1.5;"/>
   </g>
   <g id="LineCollection_2">
    <path clip-path="url(#pc5beb2d100)" d="M 161.357868 113.371345 
L 161.357868 69.317809 
" style="fill:none;stroke:#ff7f0e;stroke-width:1.5;"/>
    <path clip-path="url(#pc5beb2d100)" d="M 192.11077 85.438417 
L 192.11077 40.03469 
" style="fill:none;stroke:#ff7f0e;stroke-width:1.5;"/>
    <path clip-path="url(#pc5beb2d100)" d="M 222.863672 105.238653 
L 222.863672 60.501906 
" style="fill:none;stroke:#ff7f0e;stroke-width:1.5;"/>
    <path clip-path="url(#pc5beb2d100)" d="M 253.616574 131.715947 
L 253.616574 89.804226 
" style="fill:none;stroke:#ff7f0e;stroke-width:1.5;"/>
    <path clip-path="url(#pc5beb2d100)" d="M 284.369476 274.878836 
L 284.369476 241.239757 
" style="fill:none;stroke:#ff7f0e;stroke-width:1.5;"/>
    <path clip-path="url(#pc5beb2d100)" d="M 315.122377 350.128349 
L 315.122377 326.976737 
" style="fill:none;stroke:#ff7f0e;stroke-width:1.5;"/>
    <path clip-path="url(#pc5beb2d100)" d="M 345.875279 368.124984 
L 345.875279 349.195336 
" style="fill:none;stroke:#ff7f0e;stroke-width:1.5;"/>
    <path clip-path="url(#pc5beb2d100)" d="M 376.628181 311.280122 
L 376.628181 282.078108 
" style="fill:none;stroke:#ff7f0e;stroke-width:1.5;"/>
    <path clip-path="url(#pc5beb2d100)" d="M 407.381083 212.802794 
L 407.381083 176.609809 
" style="fill:none;stroke:#ff7f0e;stroke-width:1.5;"/>
    <path clip-path="url(#pc5beb2d100)" d="M 438.133985 157.253868 
L 438.133985 116.75531 
" style="fill:none;stroke:#ff7f0e;stroke-width:1.5;"/>
    <path clip-path="url(#pc5beb2d100)" d="M 468.886887 109.345862 
L 468.886887 64.004244 
" style="fill:none;stroke:#ff7f0e;stroke-width:1.5;"/>
   </g>
   <g id="LineCollection_3">
    <path clip-path="url(#pc5beb2d100)" d="M 103.696177 68.875417 
L 103.696177 24.386904 
" style="fill:none;stroke:#2ca02c;stroke-width:1.5;"/>
    <path clip-path="url(#pc5beb2d100)" d="M 145.981418 117.52481 
L 145.981418 73.364824 
" style="fill:none;stroke:#2ca02c;stroke-width:1.5;"/>
    <path clip-path="url(#pc5beb2d100)" d="M 188.266657 132.309786 
L 188.266657 88.925688 
" style="fill:none;stroke:#2ca02c;stroke-width:1.5;"/>
    <path clip-path="url(#pc5beb2d100)" d="M 230.551898 174.005969 
L 230.551898 131.945158 
" style="fill:none;stroke:#2ca02c;stroke-width:1.5;"/>
    <path clip-path="url(#pc5beb2d100)" d="M 272.837137 207.446452 
L 272.837137 168.871898 
" style="fill:none;stroke:#2ca02c;stroke-width:1.5;"/>
    <path clip-path="url(#pc5beb2d100)" d="M 315.122377 254.96576 
L 315.122377 220.200001 
" style="fill:none;stroke:#2ca02c;stroke-width:1.5;"/>
    <path clip-path="url(#pc5beb2d100)" d="M 357.407618 237.970892 
L 357.407618 202.671957 
" style="fill:none;stroke:#2ca02c;stroke-width:1.5;"/>
    <path clip-path="url(#pc5beb2d100)" d="M 399.692857 185.289521 
L 399.692857 145.370666 
" style="fill:none;stroke:#2ca02c;stroke-width:1.5;"/>
    <path clip-path="url(#pc5beb2d100)" d="M 441.978098 166.177328 
L 441.978098 125.14178 
" style="fill:none;stroke:#2ca02c;stroke-width:1.5;"/>
    <path clip-path="url(#pc5beb2d100)" d="M 484.263337 79.200539 
L 484.263337 34.231724 
" style="fill:none;stroke:#2ca02c;stroke-width:1.5;"/>
    <path clip-path="url(#pc5beb2d100)" d="M 526.548577 116.073219 
L 526.548577 71.571953 
" style="fill:none;stroke:#2ca02c;stroke-width:1.5;"/>
   </g>
   <g id="line2d_21">
    <path clip-path="url(#pc5beb2d100)" d="M 84.475614 41.488133 
L 545.769141 41.488133 
" style="fill:none;stroke:#1f77b4;stroke-linecap:square;stroke-width:1.5;"/>
   </g>
   <g id="line2d_22">
    <path clip-path="url(#pc5beb2d100)" d="M 84.475614 69.270626 
L 90.940188 71.354285 
L 96.481251 72.916751 
L 101.560559 74.111879 
L 106.178112 74.965539 
L 110.33391 75.522401 
L 114.489707 75.864448 
L 118.645505 75.982773 
L 122.801302 75.873983 
L 126.9571 75.540662 
L 131.112897 74.991742 
L 135.73045 74.148084 
L 140.809758 72.972337 
L 146.812577 71.32348 
L 156.509438 68.366392 
L 163.897522 66.212446 
L 168.515075 65.0735 
L 172.670873 64.272608 
L 176.364915 63.795113 
L 179.597202 63.597368 
L 182.829489 63.638452 
L 185.600021 63.887671 
L 188.370552 64.354972 
L 191.141084 65.059233 
L 193.911616 66.018612 
L 196.682148 67.250377 
L 199.452679 68.770747 
L 202.223211 70.594738 
L 204.993743 72.736006 
L 207.764274 75.206705 
L 210.534806 78.017345 
L 213.305338 81.176666 
L 216.075869 84.691516 
L 218.846401 88.566743 
L 221.616933 92.8051 
L 224.387464 97.407159 
L 227.619751 103.233547 
L 230.852038 109.545974 
L 234.084325 116.333471 
L 237.778368 124.652432 
L 241.47241 133.541769 
L 245.628207 144.177327 
L 249.784005 155.423397 
L 254.401558 168.543557 
L 259.942621 184.993583 
L 266.86895 206.302907 
L 284.415651 260.642126 
L 289.494959 275.514794 
L 294.112512 288.353526 
L 298.26831 299.213665 
L 301.962352 308.219104 
L 305.194639 315.536571 
L 308.426926 322.279568 
L 311.197458 327.568648 
L 313.967989 332.377842 
L 316.276766 336.002046 
L 318.585542 339.264528 
L 320.894319 342.154224 
L 323.203095 344.661306 
L 325.050116 346.3857 
L 326.897137 347.855954 
L 328.744158 349.068846 
L 330.591179 350.021717 
L 332.438201 350.712475 
L 334.285222 351.139603 
L 336.132243 351.302161 
L 337.979264 351.199793 
L 339.826285 350.832723 
L 341.673306 350.201758 
L 343.520327 349.308285 
L 345.367349 348.154265 
L 347.21437 346.742231 
L 349.061391 345.075274 
L 351.370167 342.638703 
L 353.678944 339.817868 
L 355.98772 336.622367 
L 358.296496 333.063043 
L 361.067028 328.328635 
L 363.83756 323.110667 
L 366.608092 317.434305 
L 369.840378 310.268943 
L 373.072665 302.563201 
L 376.766708 293.158555 
L 380.922505 281.909353 
L 385.540058 268.716447 
L 391.081121 252.147409 
L 398.469206 229.284275 
L 412.78362 184.866367 
L 418.786438 167.083421 
L 423.865747 152.759805 
L 428.021544 141.64929 
L 432.177342 131.16515 
L 435.871384 122.421595 
L 439.565426 114.256956 
L 442.797713 107.609964 
L 446.03 101.441777 
L 449.262287 95.762062 
L 452.494574 90.57616 
L 455.265106 86.52509 
L 458.035637 82.835999 
L 460.806169 79.505043 
L 463.576701 76.526331 
L 466.347233 73.892027 
L 469.117764 71.592463 
L 471.888296 69.616265 
L 474.658828 67.950487 
L 477.429359 66.580754 
L 480.199891 65.491412 
L 482.970423 64.66568 
L 485.740954 64.085812 
L 488.511486 63.733259 
L 491.282018 63.588832 
L 494.514305 63.657128 
L 497.746592 63.950188 
L 501.440634 64.519321 
L 505.596432 65.401451 
L 510.67574 66.734132 
L 518.063824 68.948367 
L 528.684196 72.124793 
L 534.225259 73.545732 
L 538.842812 74.521307 
L 543.460365 75.267152 
L 545.769141 75.545135 
L 545.769141 75.545135 
" style="fill:none;stroke:#ff7f0e;stroke-linecap:square;stroke-width:1.5;"/>
   </g>
   <g id="line2d_23">
    <path clip-path="url(#pc5beb2d100)" d="M 84.475614 78.7104 
L 87.707901 78.004509 
L 91.401943 76.931852 
L 97.404762 74.891101 
L 102.022315 73.410127 
L 105.254602 72.59815 
L 108.025133 72.134226 
L 110.33391 71.952151 
L 112.642686 71.983304 
L 114.951463 72.247171 
L 117.260239 72.756559 
L 119.569015 73.516967 
L 121.877792 74.526167 
L 124.186568 75.774031 
L 126.9571 77.560692 
L 129.727632 79.619607 
L 133.421674 82.684324 
L 145.889066 93.38572 
L 148.659598 95.310809 
L 150.968375 96.664525 
L 153.277151 97.754185 
L 155.585927 98.553866 
L 157.432949 98.973072 
L 159.27997 99.191398 
L 161.126991 99.208856 
L 162.974012 99.029834 
L 164.821033 98.663138 
L 167.129809 97.961368 
L 169.438586 97.022387 
L 172.209118 95.646243 
L 176.364915 93.272928 
L 181.444223 90.369601 
L 184.214755 89.038382 
L 186.523531 88.18285 
L 188.370552 87.715033 
L 190.217574 87.476112 
L 192.064595 87.496715 
L 193.911616 87.80403 
L 195.296882 88.236765 
L 196.682148 88.851988 
L 198.067413 89.656234 
L 199.914435 91.030768 
L 201.761456 92.756493 
L 203.608477 94.834325 
L 205.455498 97.259241 
L 207.302519 100.020218 
L 209.611295 103.917622 
L 211.920072 108.267414 
L 214.690604 114.000398 
L 217.922891 121.237038 
L 223.002199 133.254245 
L 228.543262 146.200411 
L 231.775549 153.151008 
L 234.084325 157.667906 
L 236.393102 161.720492 
L 238.240123 164.582195 
L 240.087144 167.074538 
L 241.934165 169.175309 
L 243.781186 170.869092 
L 245.166452 171.867129 
L 246.551718 172.630766 
L 247.936984 173.16172 
L 249.32225 173.464142 
L 250.707516 173.544614 
L 252.092781 173.41212 
L 253.478047 173.077987 
L 254.863313 172.555807 
L 256.710334 171.594581 
L 258.557355 170.370216 
L 260.866132 168.544423 
L 264.098419 165.629791 
L 269.639482 160.529124 
L 271.948259 158.705194 
L 273.79528 157.499318 
L 275.642301 156.58444 
L 277.027567 156.123731 
L 278.412833 155.881282 
L 279.798098 155.877773 
L 281.183364 156.131939 
L 282.56863 156.660366 
L 283.953896 157.477298 
L 285.339162 158.594463 
L 286.724428 160.020927 
L 288.109693 161.762966 
L 289.494959 163.823964 
L 291.34198 167.068411 
L 293.189002 170.872947 
L 295.036023 175.220653 
L 296.883044 180.085131 
L 299.19182 186.837335 
L 301.500597 194.251936 
L 304.271128 203.869856 
L 307.965171 217.548647 
L 316.738521 250.531883 
L 319.509053 260.025286 
L 321.817829 267.248859 
L 324.126606 273.69323 
L 325.973627 278.199948 
L 327.820648 282.066029 
L 329.205914 284.514454 
L 330.591179 286.555839 
L 331.976445 288.17507 
L 333.361711 289.360129 
L 334.285222 289.904479 
L 335.208732 290.25008 
L 336.132243 290.395789 
L 337.055753 290.341124 
L 337.979264 290.086266 
L 338.902775 289.632057 
L 339.826285 288.980002 
L 341.211551 287.63585 
L 342.596817 285.861531 
L 343.982083 283.670203 
L 345.367349 281.078076 
L 347.21437 277.031886 
L 349.061391 272.360274 
L 350.908412 267.12385 
L 353.217188 259.887383 
L 355.98772 250.382127 
L 359.681762 236.758377 
L 369.378623 200.440522 
L 372.149155 191.077008 
L 374.457931 183.927321 
L 376.766708 177.479663 
L 378.613729 172.88147 
L 380.46075 168.815017 
L 382.307771 165.301771 
L 384.154792 162.353649 
L 385.540058 160.515195 
L 386.925324 158.99365 
L 388.31059 157.783605 
L 389.695856 156.876828 
L 391.081121 156.262381 
L 392.466387 155.926767 
L 393.851653 155.85409 
L 395.236919 156.026244 
L 396.622185 156.423115 
L 398.007451 157.022806 
L 399.854472 158.097177 
L 401.701493 159.431226 
L 404.010269 161.369186 
L 408.166067 165.23496 
L 411.860109 168.580057 
L 414.168886 170.400669 
L 416.015907 171.619565 
L 417.862928 172.574277 
L 419.248194 173.09097 
L 420.63346 173.419172 
L 422.018725 173.545357 
L 423.403991 173.458267 
L 424.789257 173.148993 
L 426.174523 172.611026 
L 427.559789 171.840287 
L 428.945055 170.835133 
L 430.33032 169.59634 
L 432.177342 167.586951 
L 434.024363 165.181873 
L 435.871384 162.401817 
L 438.18016 158.441304 
L 440.488937 154.00321 
L 443.259468 148.156966 
L 446.953511 139.730945 
L 458.035637 113.909747 
L 460.806169 108.184479 
L 463.114946 103.842438 
L 465.423722 99.953738 
L 467.732498 96.563904 
L 469.57952 94.23282 
L 471.426541 92.250783 
L 473.273562 90.621189 
L 475.120583 89.341524 
L 476.967604 88.403565 
L 478.35287 87.916325 
L 480.199891 87.540474 
L 482.046912 87.456972 
L 483.893933 87.639496 
L 485.740954 88.058144 
L 487.587976 88.680073 
L 489.896752 89.6897 
L 492.667284 91.146706 
L 503.287655 97.041358 
L 505.596432 97.976391 
L 507.905208 98.673485 
L 510.213984 99.09773 
L 512.061006 99.223846 
L 513.908027 99.151848 
L 515.755048 98.878549 
L 517.602069 98.405108 
L 519.44909 97.736866 
L 521.757866 96.64214 
L 524.066643 95.283906 
L 526.837175 93.354299 
L 530.069462 90.78 
L 534.687014 86.744574 
L 541.151588 81.079818 
L 544.383875 78.528253 
L 545.769141 77.531409 
L 545.769141 77.531409 
" style="fill:none;stroke:#2ca02c;stroke-linecap:square;stroke-width:1.5;"/>
   </g>
   <g id="line2d_24">
    <defs>
     <path d="M 0 3 
C 0.795609 3 1.55874 2.683901 2.12132 2.12132 
C 2.683901 1.55874 3 0.795609 3 0 
C 3 -0.795609 2.683901 -1.55874 2.12132 -2.12132 
C 1.55874 -2.683901 0.795609 -3 0 -3 
C -0.795609 -3 -1.55874 -2.683901 -2.12132 -2.12132 
C -2.683901 -1.55874 -3 -0.795609 -3 0 
C -3 0.795609 -2.683901 1.55874 -2.12132 2.12132 
C -1.55874 2.683901 -0.795609 3 0 3 
z
" id="mcb2457e3ba" style="stroke:#1f77b4;"/>
    </defs>
    <g clip-path="url(#pc5beb2d100)">
     <use style="fill:#1f77b4;stroke:#1f77b4;" x="336.342096" xlink:href="#mcb2457e3ba" y="52.326506"/>
    </g>
   </g>
   <g id="line2d_25">
    <defs>
     <path d="M 0 3 
C 0.795609 3 1.55874 2.683901 2.12132 2.12132 
C 2.683901 1.55874 3 0.795609 3 0 
C 3 -0.795609 2.683901 -1.55874 2.12132 -2.12132 
C 1.55874 -2.683901 0.795609 -3 0 -3 
C -0.795609 -3 -1.55874 -2.683901 -2.12132 -2.12132 
C -2.683901 -1.55874 -3 -0.795609 -3 0 
C -3 0.795609 -2.683901 1.55874 -2.12132 2.12132 
C -1.55874 2.683901 -0.795609 3 0 3 
z
" id="mbbb2a9d153" style="stroke:#ff7f0e;"/>
    </defs>
    <g clip-path="url(#pc5beb2d100)">
     <use style="fill:#ff7f0e;stroke:#ff7f0e;" x="161.357868" xlink:href="#mbbb2a9d153" y="91.344577"/>
     <use style="fill:#ff7f0e;stroke:#ff7f0e;" x="192.11077" xlink:href="#mbbb2a9d153" y="62.736553"/>
     <use style="fill:#ff7f0e;stroke:#ff7f0e;" x="222.863672" xlink:href="#mbbb2a9d153" y="82.870279"/>
     <use style="fill:#ff7f0e;stroke:#ff7f0e;" x="253.616574" xlink:href="#mbbb2a9d153" y="110.760086"/>
     <use style="fill:#ff7f0e;stroke:#ff7f0e;" x="284.369476" xlink:href="#mbbb2a9d153" y="258.059296"/>
     <use style="fill:#ff7f0e;stroke:#ff7f0e;" x="315.122377" xlink:href="#mbbb2a9d153" y="338.552543"/>
     <use style="fill:#ff7f0e;stroke:#ff7f0e;" x="345.875279" xlink:href="#mbbb2a9d153" y="358.66016"/>
     <use style="fill:#ff7f0e;stroke:#ff7f0e;" x="376.628181" xlink:href="#mbbb2a9d153" y="296.679115"/>
     <use style="fill:#ff7f0e;stroke:#ff7f0e;" x="407.381083" xlink:href="#mbbb2a9d153" y="194.706301"/>
     <use style="fill:#ff7f0e;stroke:#ff7f0e;" x="438.133985" xlink:href="#mbbb2a9d153" y="137.004589"/>
     <use style="fill:#ff7f0e;stroke:#ff7f0e;" x="468.886887" xlink:href="#mbbb2a9d153" y="86.675053"/>
    </g>
   </g>
   <g id="line2d_26">
    <defs>
     <path d="M 0 3 
C 0.795609 3 1.55874 2.683901 2.12132 2.12132 
C 2.683901 1.55874 3 0.795609 3 0 
C 3 -0.795609 2.683901 -1.55874 2.12132 -2.12132 
C 1.55874 -2.683901 0.795609 -3 0 -3 
C -0.795609 -3 -1.55874 -2.683901 -2.12132 -2.12132 
C -2.683901 -1.55874 -3 -0.795609 -3 0 
C -3 0.795609 -2.683901 1.55874 -2.12132 2.12132 
C -1.55874 2.683901 -0.795609 3 0 3 
z
" id="mbab2358add" style="stroke:#2ca02c;"/>
    </defs>
    <g clip-path="url(#pc5beb2d100)">
     <use style="fill:#2ca02c;stroke:#2ca02c;" x="103.696177" xlink:href="#mbab2358add" y="46.631161"/>
     <use style="fill:#2ca02c;stroke:#2ca02c;" x="145.981418" xlink:href="#mbab2358add" y="95.444817"/>
     <use style="fill:#2ca02c;stroke:#2ca02c;" x="188.266657" xlink:href="#mbab2358add" y="110.617737"/>
     <use style="fill:#2ca02c;stroke:#2ca02c;" x="230.551898" xlink:href="#mbab2358add" y="152.975564"/>
     <use style="fill:#2ca02c;stroke:#2ca02c;" x="272.837137" xlink:href="#mbab2358add" y="188.159175"/>
     <use style="fill:#2ca02c;stroke:#2ca02c;" x="315.122377" xlink:href="#mbab2358add" y="237.582881"/>
     <use style="fill:#2ca02c;stroke:#2ca02c;" x="357.407618" xlink:href="#mbab2358add" y="220.321424"/>
     <use style="fill:#2ca02c;stroke:#2ca02c;" x="399.692857" xlink:href="#mbab2358add" y="165.330093"/>
     <use style="fill:#2ca02c;stroke:#2ca02c;" x="441.978098" xlink:href="#mbab2358add" y="145.659554"/>
     <use style="fill:#2ca02c;stroke:#2ca02c;" x="484.263337" xlink:href="#mbab2358add" y="56.716131"/>
     <use style="fill:#2ca02c;stroke:#2ca02c;" x="526.548577" xlink:href="#mbab2358add" y="93.822586"/>
    </g>
   </g>
   <g id="patch_3">
    <path d="M 61.410938 385.311888 
L 61.410938 7.2 
" style="fill:none;stroke:#000000;stroke-linecap:square;stroke-linejoin:miter;stroke-width:0.8;"/>
   </g>
   <g id="patch_4">
    <path d="M 568.833818 385.311888 
L 568.833818 7.2 
" style="fill:none;stroke:#000000;stroke-linecap:square;stroke-linejoin:miter;stroke-width:0.8;"/>
   </g>
   <g id="patch_5">
    <path d="M 61.410937 385.311888 
L 568.833818 385.311888 
" style="fill:none;stroke:#000000;stroke-linecap:square;stroke-linejoin:miter;stroke-width:0.8;"/>
   </g>
   <g id="patch_6">
    <path d="M 61.410937 7.2 
L 568.833818 7.2 
" style="fill:none;stroke:#000000;stroke-linecap:square;stroke-linejoin:miter;stroke-width:0.8;"/>
   </g>
   <g id="legend_1">
    <g id="patch_7">
     <path d="M 458.635292 378.371888 
L 559.117818 378.371888 
Q 561.893817 378.371888 561.893817 375.595888 
L 561.893817 315.864175 
Q 561.893817 313.088175 559.117818 313.088175 
L 458.635292 313.088175 
Q 455.859292 313.088175 455.859292 315.864175 
L 455.859292 375.595888 
Q 455.859292 378.371888 458.635292 378.371888 
z
" style="fill:#ffffff;opacity:0.8;stroke:#cccccc;stroke-linejoin:miter;"/>
    </g>
    <g id="LineCollection_4">
     <path d="M 475.291292 331.268807 
L 475.291292 317.388807 
" style="fill:none;stroke:#1f77b4;stroke-width:1.5;"/>
    </g>
    <g id="line2d_27"/>
    <g id="line2d_28">
     <g>
      <use style="fill:#1f77b4;stroke:#1f77b4;" x="475.291292" xlink:href="#mcb2457e3ba" y="324.328807"/>
     </g>
    </g>
    <g id="text_13">
     <!-- 0.00 ms -->
     <g transform="translate(500.275292 329.186807)scale(0.1388 -0.1388)">
      <defs>
       <path d="M 44.28125 53.078125 
L 44.28125 44.578125 
Q 40.484375 46.53125 36.375 47.5 
Q 32.28125 48.484375 27.875 48.484375 
Q 21.1875 48.484375 17.84375 46.4375 
Q 14.5 44.390625 14.5 40.28125 
Q 14.5 37.15625 16.890625 35.375 
Q 19.28125 33.59375 26.515625 31.984375 
L 29.59375 31.296875 
Q 39.15625 29.25 43.1875 25.515625 
Q 47.21875 21.78125 47.21875 15.09375 
Q 47.21875 7.46875 41.1875 3.015625 
Q 35.15625 -1.421875 24.609375 -1.421875 
Q 20.21875 -1.421875 15.453125 -0.5625 
Q 10.6875 0.296875 5.421875 2 
L 5.421875 11.28125 
Q 10.40625 8.6875 15.234375 7.390625 
Q 20.0625 6.109375 24.8125 6.109375 
Q 31.15625 6.109375 34.5625 8.28125 
Q 37.984375 10.453125 37.984375 14.40625 
Q 37.984375 18.0625 35.515625 20.015625 
Q 33.0625 21.96875 24.703125 23.78125 
L 21.578125 24.515625 
Q 13.234375 26.265625 9.515625 29.90625 
Q 5.8125 33.546875 5.8125 39.890625 
Q 5.8125 47.609375 11.28125 51.796875 
Q 16.75 56 26.8125 56 
Q 31.78125 56 36.171875 55.265625 
Q 40.578125 54.546875 44.28125 53.078125 
z
" id="DejaVuSans-115"/>
      </defs>
      <use xlink:href="#DejaVuSans-48"/>
      <use x="63.623047" xlink:href="#DejaVuSans-46"/>
      <use x="95.410156" xlink:href="#DejaVuSans-48"/>
      <use x="159.033203" xlink:href="#DejaVuSans-48"/>
      <use x="222.65625" xlink:href="#DejaVuSans-32"/>
      <use x="254.443359" xlink:href="#DejaVuSans-109"/>
      <use x="351.855469" xlink:href="#DejaVuSans-115"/>
     </g>
    </g>
    <g id="LineCollection_5">
     <path d="M 475.291292 351.642044 
L 475.291292 337.762044 
" style="fill:none;stroke:#ff7f0e;stroke-width:1.5;"/>
    </g>
    <g id="line2d_29"/>
    <g id="line2d_30">
     <g>
      <use style="fill:#ff7f0e;stroke:#ff7f0e;" x="475.291292" xlink:href="#mbbb2a9d153" y="344.702044"/>
     </g>
    </g>
    <g id="text_14">
     <!-- 0.12 ms -->
     <g transform="translate(500.275292 349.560044)scale(0.1388 -0.1388)">
      <use xlink:href="#DejaVuSans-48"/>
      <use x="63.623047" xlink:href="#DejaVuSans-46"/>
      <use x="95.410156" xlink:href="#DejaVuSans-49"/>
      <use x="159.033203" xlink:href="#DejaVuSans-50"/>
      <use x="222.65625" xlink:href="#DejaVuSans-32"/>
      <use x="254.443359" xlink:href="#DejaVuSans-109"/>
      <use x="351.855469" xlink:href="#DejaVuSans-115"/>
     </g>
    </g>
    <g id="LineCollection_6">
     <path d="M 475.291292 372.015282 
L 475.291292 358.135282 
" style="fill:none;stroke:#2ca02c;stroke-width:1.5;"/>
    </g>
    <g id="line2d_31"/>
    <g id="line2d_32">
     <g>
      <use style="fill:#2ca02c;stroke:#2ca02c;" x="475.291292" xlink:href="#mbab2358add" y="365.075282"/>
     </g>
    </g>
    <g id="text_15">
     <!-- 0.25 ms -->
     <g transform="translate(500.275292 369.933282)scale(0.1388 -0.1388)">
      <use xlink:href="#DejaVuSans-48"/>
      <use x="63.623047" xlink:href="#DejaVuSans-46"/>
      <use x="95.410156" xlink:href="#DejaVuSans-50"/>
      <use x="159.033203" xlink:href="#DejaVuSans-53"/>
      <use x="222.65625" xlink:href="#DejaVuSans-32"/>
      <use x="254.443359" xlink:href="#DejaVuSans-109"/>
      <use x="351.855469" xlink:href="#DejaVuSans-115"/>
     </g>
    </g>
   </g>
  </g>
 </g>
 <defs>
  <clipPath id="pc5beb2d100">
   <rect height="378.111888" width="507.42288" x="61.410938" y="7.2"/>
  </clipPath>
 </defs>
</svg>
