<?xml version="1.0" encoding="utf-8" standalone="no"?>
<!DOCTYPE svg PUBLIC "-//W3C//DTD SVG 1.1//EN"
  "http://www.w3.org/Graphics/SVG/1.1/DTD/svg11.dtd">
<!-- Created with matplotlib (https://matplotlib.org/) -->
<svg height="325.385437pt" version="1.1" viewBox="0 0 435.274687 325.385437" width="435.274687pt" xmlns="http://www.w3.org/2000/svg" xmlns:xlink="http://www.w3.org/1999/xlink">
 <defs>
  <style type="text/css">*{stroke-linecap:butt;stroke-linejoin:round;}</style>
 </defs>
 <g id="figure_1">
  <g id="patch_1">
   <path d="M 0 325.385437 
L 435.274687 325.385437 
L 435.274687 0 
L 0 0 
z
" style="fill:none;"/>
  </g>
  <g id="axes_1">
   <g id="patch_2">
    <path d="M 70.954688 273.312 
L 428.074687 273.312 
L 428.074687 7.2 
L 70.954688 7.2 
z
" style="fill:none;"/>
   </g>
   <g id="matplotlib.axis_1">
    <g id="xtick_1">
     <g id="line2d_1">
      <path clip-path="url(#p11323d8459)" d="M 71.296345 273.312 
L 71.296345 7.2 
" style="fill:none;stroke:#b0b0b0;stroke-linecap:square;stroke-width:0.8;"/>
     </g>
     <g id="line2d_2">
      <defs>
       <path d="M 0 0 
L 0 3.5 
" id="m005f0a59be" style="stroke:#000000;stroke-width:0.8;"/>
      </defs>
      <g>
       <use style="stroke:#000000;stroke-width:0.8;" x="71.296345" xlink:href="#m005f0a59be" y="273.312"/>
      </g>
     </g>
     <g id="text_1">
      <!-- 560 -->
      <g transform="translate(56.98072 291.709656)scale(0.15 -0.15)">
       <defs>
        <path d="M 10.796875 72.90625 
L 49.515625 72.90625 
L 49.515625 64.59375 
L 19.828125 64.59375 
L 19.828125 46.734375 
Q 21.96875 47.46875 24.109375 47.828125 
Q 26.265625 48.1875 28.421875 48.1875 
Q 40.625 48.1875 47.75 41.5 
Q 54.890625 34.8125 54.890625 23.390625 
Q 54.890625 11.625 47.5625 5.09375 
Q 40.234375 -1.421875 26.90625 -1.421875 
Q 22.3125 -1.421875 17.546875 -0.640625 
Q 12.796875 0.140625 7.71875 1.703125 
L 7.71875 11.625 
Q 12.109375 9.234375 16.796875 8.0625 
Q 21.484375 6.890625 26.703125 6.890625 
Q 35.15625 6.890625 40.078125 11.328125 
Q 45.015625 15.765625 45.015625 23.390625 
Q 45.015625 31 40.078125 35.4375 
Q 35.15625 39.890625 26.703125 39.890625 
Q 22.75 39.890625 18.8125 39.015625 
Q 14.890625 38.140625 10.796875 36.28125 
z
" id="DejaVuSans-53"/>
        <path d="M 33.015625 40.375 
Q 26.375 40.375 22.484375 35.828125 
Q 18.609375 31.296875 18.609375 23.390625 
Q 18.609375 15.53125 22.484375 10.953125 
Q 26.375 6.390625 33.015625 6.390625 
Q 39.65625 6.390625 43.53125 10.953125 
Q 47.40625 15.53125 47.40625 23.390625 
Q 47.40625 31.296875 43.53125 35.828125 
Q 39.65625 40.375 33.015625 40.375 
z
M 52.59375 71.296875 
L 52.59375 62.3125 
Q 48.875 64.0625 45.09375 64.984375 
Q 41.3125 65.921875 37.59375 65.921875 
Q 27.828125 65.921875 22.671875 59.328125 
Q 17.53125 52.734375 16.796875 39.40625 
Q 19.671875 43.65625 24.015625 45.921875 
Q 28.375 48.1875 33.59375 48.1875 
Q 44.578125 48.1875 50.953125 41.515625 
Q 57.328125 34.859375 57.328125 23.390625 
Q 57.328125 12.15625 50.6875 5.359375 
Q 44.046875 -1.421875 33.015625 -1.421875 
Q 20.359375 -1.421875 13.671875 8.265625 
Q 6.984375 17.96875 6.984375 36.375 
Q 6.984375 53.65625 15.1875 63.9375 
Q 23.390625 74.21875 37.203125 74.21875 
Q 40.921875 74.21875 44.703125 73.484375 
Q 48.484375 72.75 52.59375 71.296875 
z
" id="DejaVuSans-54"/>
        <path d="M 31.78125 66.40625 
Q 24.171875 66.40625 20.328125 58.90625 
Q 16.5 51.421875 16.5 36.375 
Q 16.5 21.390625 20.328125 13.890625 
Q 24.171875 6.390625 31.78125 6.390625 
Q 39.453125 6.390625 43.28125 13.890625 
Q 47.125 21.390625 47.125 36.375 
Q 47.125 51.421875 43.28125 58.90625 
Q 39.453125 66.40625 31.78125 66.40625 
z
M 31.78125 74.21875 
Q 44.046875 74.21875 50.515625 64.515625 
Q 56.984375 54.828125 56.984375 36.375 
Q 56.984375 17.96875 50.515625 8.265625 
Q 44.046875 -1.421875 31.78125 -1.421875 
Q 19.53125 -1.421875 13.0625 8.265625 
Q 6.59375 17.96875 6.59375 36.375 
Q 6.59375 54.828125 13.0625 64.515625 
Q 19.53125 74.21875 31.78125 74.21875 
z
" id="DejaVuSans-48"/>
       </defs>
       <use xlink:href="#DejaVuSans-53"/>
       <use x="63.623047" xlink:href="#DejaVuSans-54"/>
       <use x="127.246094" xlink:href="#DejaVuSans-48"/>
      </g>
     </g>
    </g>
    <g id="xtick_2">
     <g id="line2d_3">
      <path clip-path="url(#p11323d8459)" d="M 124.266576 273.312 
L 124.266576 7.2 
" style="fill:none;stroke:#b0b0b0;stroke-linecap:square;stroke-width:0.8;"/>
     </g>
     <g id="line2d_4">
      <g>
       <use style="stroke:#000000;stroke-width:0.8;" x="124.266576" xlink:href="#m005f0a59be" y="273.312"/>
      </g>
     </g>
     <g id="text_2">
      <!-- 570 -->
      <g transform="translate(109.950951 291.709656)scale(0.15 -0.15)">
       <defs>
        <path d="M 8.203125 72.90625 
L 55.078125 72.90625 
L 55.078125 68.703125 
L 28.609375 0 
L 18.3125 0 
L 43.21875 64.59375 
L 8.203125 64.59375 
z
" id="DejaVuSans-55"/>
       </defs>
       <use xlink:href="#DejaVuSans-53"/>
       <use x="63.623047" xlink:href="#DejaVuSans-55"/>
       <use x="127.246094" xlink:href="#DejaVuSans-48"/>
      </g>
     </g>
    </g>
    <g id="xtick_3">
     <g id="line2d_5">
      <path clip-path="url(#p11323d8459)" d="M 177.236807 273.312 
L 177.236807 7.2 
" style="fill:none;stroke:#b0b0b0;stroke-linecap:square;stroke-width:0.8;"/>
     </g>
     <g id="line2d_6">
      <g>
       <use style="stroke:#000000;stroke-width:0.8;" x="177.236807" xlink:href="#m005f0a59be" y="273.312"/>
      </g>
     </g>
     <g id="text_3">
      <!-- 580 -->
      <g transform="translate(162.921182 291.709656)scale(0.15 -0.15)">
       <defs>
        <path d="M 31.78125 34.625 
Q 24.75 34.625 20.71875 30.859375 
Q 16.703125 27.09375 16.703125 20.515625 
Q 16.703125 13.921875 20.71875 10.15625 
Q 24.75 6.390625 31.78125 6.390625 
Q 38.8125 6.390625 42.859375 10.171875 
Q 46.921875 13.96875 46.921875 20.515625 
Q 46.921875 27.09375 42.890625 30.859375 
Q 38.875 34.625 31.78125 34.625 
z
M 21.921875 38.8125 
Q 15.578125 40.375 12.03125 44.71875 
Q 8.5 49.078125 8.5 55.328125 
Q 8.5 64.0625 14.71875 69.140625 
Q 20.953125 74.21875 31.78125 74.21875 
Q 42.671875 74.21875 48.875 69.140625 
Q 55.078125 64.0625 55.078125 55.328125 
Q 55.078125 49.078125 51.53125 44.71875 
Q 48 40.375 41.703125 38.8125 
Q 48.828125 37.15625 52.796875 32.3125 
Q 56.78125 27.484375 56.78125 20.515625 
Q 56.78125 9.90625 50.3125 4.234375 
Q 43.84375 -1.421875 31.78125 -1.421875 
Q 19.734375 -1.421875 13.25 4.234375 
Q 6.78125 9.90625 6.78125 20.515625 
Q 6.78125 27.484375 10.78125 32.3125 
Q 14.796875 37.15625 21.921875 38.8125 
z
M 18.3125 54.390625 
Q 18.3125 48.734375 21.84375 45.5625 
Q 25.390625 42.390625 31.78125 42.390625 
Q 38.140625 42.390625 41.71875 45.5625 
Q 45.3125 48.734375 45.3125 54.390625 
Q 45.3125 60.0625 41.71875 63.234375 
Q 38.140625 66.40625 31.78125 66.40625 
Q 25.390625 66.40625 21.84375 63.234375 
Q 18.3125 60.0625 18.3125 54.390625 
z
" id="DejaVuSans-56"/>
       </defs>
       <use xlink:href="#DejaVuSans-53"/>
       <use x="63.623047" xlink:href="#DejaVuSans-56"/>
       <use x="127.246094" xlink:href="#DejaVuSans-48"/>
      </g>
     </g>
    </g>
    <g id="xtick_4">
     <g id="line2d_7">
      <path clip-path="url(#p11323d8459)" d="M 230.207038 273.312 
L 230.207038 7.2 
" style="fill:none;stroke:#b0b0b0;stroke-linecap:square;stroke-width:0.8;"/>
     </g>
     <g id="line2d_8">
      <g>
       <use style="stroke:#000000;stroke-width:0.8;" x="230.207038" xlink:href="#m005f0a59be" y="273.312"/>
      </g>
     </g>
     <g id="text_4">
      <!-- 590 -->
      <g transform="translate(215.891413 291.709656)scale(0.15 -0.15)">
       <defs>
        <path d="M 10.984375 1.515625 
L 10.984375 10.5 
Q 14.703125 8.734375 18.5 7.8125 
Q 22.3125 6.890625 25.984375 6.890625 
Q 35.75 6.890625 40.890625 13.453125 
Q 46.046875 20.015625 46.78125 33.40625 
Q 43.953125 29.203125 39.59375 26.953125 
Q 35.25 24.703125 29.984375 24.703125 
Q 19.046875 24.703125 12.671875 31.3125 
Q 6.296875 37.9375 6.296875 49.421875 
Q 6.296875 60.640625 12.9375 67.421875 
Q 19.578125 74.21875 30.609375 74.21875 
Q 43.265625 74.21875 49.921875 64.515625 
Q 56.59375 54.828125 56.59375 36.375 
Q 56.59375 19.140625 48.40625 8.859375 
Q 40.234375 -1.421875 26.421875 -1.421875 
Q 22.703125 -1.421875 18.890625 -0.6875 
Q 15.09375 0.046875 10.984375 1.515625 
z
M 30.609375 32.421875 
Q 37.25 32.421875 41.125 36.953125 
Q 45.015625 41.5 45.015625 49.421875 
Q 45.015625 57.28125 41.125 61.84375 
Q 37.25 66.40625 30.609375 66.40625 
Q 23.96875 66.40625 20.09375 61.84375 
Q 16.21875 57.28125 16.21875 49.421875 
Q 16.21875 41.5 20.09375 36.953125 
Q 23.96875 32.421875 30.609375 32.421875 
z
" id="DejaVuSans-57"/>
       </defs>
       <use xlink:href="#DejaVuSans-53"/>
       <use x="63.623047" xlink:href="#DejaVuSans-57"/>
       <use x="127.246094" xlink:href="#DejaVuSans-48"/>
      </g>
     </g>
    </g>
    <g id="xtick_5">
     <g id="line2d_9">
      <path clip-path="url(#p11323d8459)" d="M 283.177269 273.312 
L 283.177269 7.2 
" style="fill:none;stroke:#b0b0b0;stroke-linecap:square;stroke-width:0.8;"/>
     </g>
     <g id="line2d_10">
      <g>
       <use style="stroke:#000000;stroke-width:0.8;" x="283.177269" xlink:href="#m005f0a59be" y="273.312"/>
      </g>
     </g>
     <g id="text_5">
      <!-- 600 -->
      <g transform="translate(268.861644 291.709656)scale(0.15 -0.15)">
       <use xlink:href="#DejaVuSans-54"/>
       <use x="63.623047" xlink:href="#DejaVuSans-48"/>
       <use x="127.246094" xlink:href="#DejaVuSans-48"/>
      </g>
     </g>
    </g>
    <g id="xtick_6">
     <g id="line2d_11">
      <path clip-path="url(#p11323d8459)" d="M 336.1475 273.312 
L 336.1475 7.2 
" style="fill:none;stroke:#b0b0b0;stroke-linecap:square;stroke-width:0.8;"/>
     </g>
     <g id="line2d_12">
      <g>
       <use style="stroke:#000000;stroke-width:0.8;" x="336.1475" xlink:href="#m005f0a59be" y="273.312"/>
      </g>
     </g>
     <g id="text_6">
      <!-- 610 -->
      <g transform="translate(321.831875 291.709656)scale(0.15 -0.15)">
       <defs>
        <path d="M 12.40625 8.296875 
L 28.515625 8.296875 
L 28.515625 63.921875 
L 10.984375 60.40625 
L 10.984375 69.390625 
L 28.421875 72.90625 
L 38.28125 72.90625 
L 38.28125 8.296875 
L 54.390625 8.296875 
L 54.390625 0 
L 12.40625 0 
z
" id="DejaVuSans-49"/>
       </defs>
       <use xlink:href="#DejaVuSans-54"/>
       <use x="63.623047" xlink:href="#DejaVuSans-49"/>
       <use x="127.246094" xlink:href="#DejaVuSans-48"/>
      </g>
     </g>
    </g>
    <g id="xtick_7">
     <g id="line2d_13">
      <path clip-path="url(#p11323d8459)" d="M 389.117731 273.312 
L 389.117731 7.2 
" style="fill:none;stroke:#b0b0b0;stroke-linecap:square;stroke-width:0.8;"/>
     </g>
     <g id="line2d_14">
      <g>
       <use style="stroke:#000000;stroke-width:0.8;" x="389.117731" xlink:href="#m005f0a59be" y="273.312"/>
      </g>
     </g>
     <g id="text_7">
      <!-- 620 -->
      <g transform="translate(374.802106 291.709656)scale(0.15 -0.15)">
       <defs>
        <path d="M 19.1875 8.296875 
L 53.609375 8.296875 
L 53.609375 0 
L 7.328125 0 
L 7.328125 8.296875 
Q 12.9375 14.109375 22.625 23.890625 
Q 32.328125 33.6875 34.8125 36.53125 
Q 39.546875 41.84375 41.421875 45.53125 
Q 43.3125 49.21875 43.3125 52.78125 
Q 43.3125 58.59375 39.234375 62.25 
Q 35.15625 65.921875 28.609375 65.921875 
Q 23.96875 65.921875 18.8125 64.3125 
Q 13.671875 62.703125 7.8125 59.421875 
L 7.8125 69.390625 
Q 13.765625 71.78125 18.9375 73 
Q 24.125 74.21875 28.421875 74.21875 
Q 39.75 74.21875 46.484375 68.546875 
Q 53.21875 62.890625 53.21875 53.421875 
Q 53.21875 48.921875 51.53125 44.890625 
Q 49.859375 40.875 45.40625 35.40625 
Q 44.1875 33.984375 37.640625 27.21875 
Q 31.109375 20.453125 19.1875 8.296875 
z
" id="DejaVuSans-50"/>
       </defs>
       <use xlink:href="#DejaVuSans-54"/>
       <use x="63.623047" xlink:href="#DejaVuSans-50"/>
       <use x="127.246094" xlink:href="#DejaVuSans-48"/>
      </g>
     </g>
    </g>
    <g id="text_8">
     <!-- 2-Photon Detuning (770XXX kHz) -->
     <g transform="translate(83.235 314.026062)scale(0.2 -0.2)">
      <defs>
       <path d="M 4.890625 31.390625 
L 31.203125 31.390625 
L 31.203125 23.390625 
L 4.890625 23.390625 
z
" id="DejaVuSans-45"/>
       <path d="M 19.671875 64.796875 
L 19.671875 37.40625 
L 32.078125 37.40625 
Q 38.96875 37.40625 42.71875 40.96875 
Q 46.484375 44.53125 46.484375 51.125 
Q 46.484375 57.671875 42.71875 61.234375 
Q 38.96875 64.796875 32.078125 64.796875 
z
M 9.8125 72.90625 
L 32.078125 72.90625 
Q 44.34375 72.90625 50.609375 67.359375 
Q 56.890625 61.8125 56.890625 51.125 
Q 56.890625 40.328125 50.609375 34.8125 
Q 44.34375 29.296875 32.078125 29.296875 
L 19.671875 29.296875 
L 19.671875 0 
L 9.8125 0 
z
" id="DejaVuSans-80"/>
       <path d="M 54.890625 33.015625 
L 54.890625 0 
L 45.90625 0 
L 45.90625 32.71875 
Q 45.90625 40.484375 42.875 44.328125 
Q 39.84375 48.1875 33.796875 48.1875 
Q 26.515625 48.1875 22.3125 43.546875 
Q 18.109375 38.921875 18.109375 30.90625 
L 18.109375 0 
L 9.078125 0 
L 9.078125 75.984375 
L 18.109375 75.984375 
L 18.109375 46.1875 
Q 21.34375 51.125 25.703125 53.5625 
Q 30.078125 56 35.796875 56 
Q 45.21875 56 50.046875 50.171875 
Q 54.890625 44.34375 54.890625 33.015625 
z
" id="DejaVuSans-104"/>
       <path d="M 30.609375 48.390625 
Q 23.390625 48.390625 19.1875 42.75 
Q 14.984375 37.109375 14.984375 27.296875 
Q 14.984375 17.484375 19.15625 11.84375 
Q 23.34375 6.203125 30.609375 6.203125 
Q 37.796875 6.203125 41.984375 11.859375 
Q 46.1875 17.53125 46.1875 27.296875 
Q 46.1875 37.015625 41.984375 42.703125 
Q 37.796875 48.390625 30.609375 48.390625 
z
M 30.609375 56 
Q 42.328125 56 49.015625 48.375 
Q 55.71875 40.765625 55.71875 27.296875 
Q 55.71875 13.875 49.015625 6.21875 
Q 42.328125 -1.421875 30.609375 -1.421875 
Q 18.84375 -1.421875 12.171875 6.21875 
Q 5.515625 13.875 5.515625 27.296875 
Q 5.515625 40.765625 12.171875 48.375 
Q 18.84375 56 30.609375 56 
z
" id="DejaVuSans-111"/>
       <path d="M 18.3125 70.21875 
L 18.3125 54.6875 
L 36.8125 54.6875 
L 36.8125 47.703125 
L 18.3125 47.703125 
L 18.3125 18.015625 
Q 18.3125 11.328125 20.140625 9.421875 
Q 21.96875 7.515625 27.59375 7.515625 
L 36.8125 7.515625 
L 36.8125 0 
L 27.59375 0 
Q 17.1875 0 13.234375 3.875 
Q 9.28125 7.765625 9.28125 18.015625 
L 9.28125 47.703125 
L 2.6875 47.703125 
L 2.6875 54.6875 
L 9.28125 54.6875 
L 9.28125 70.21875 
z
" id="DejaVuSans-116"/>
       <path d="M 54.890625 33.015625 
L 54.890625 0 
L 45.90625 0 
L 45.90625 32.71875 
Q 45.90625 40.484375 42.875 44.328125 
Q 39.84375 48.1875 33.796875 48.1875 
Q 26.515625 48.1875 22.3125 43.546875 
Q 18.109375 38.921875 18.109375 30.90625 
L 18.109375 0 
L 9.078125 0 
L 9.078125 54.6875 
L 18.109375 54.6875 
L 18.109375 46.1875 
Q 21.34375 51.125 25.703125 53.5625 
Q 30.078125 56 35.796875 56 
Q 45.21875 56 50.046875 50.171875 
Q 54.890625 44.34375 54.890625 33.015625 
z
" id="DejaVuSans-110"/>
       <path id="DejaVuSans-32"/>
       <path d="M 19.671875 64.796875 
L 19.671875 8.109375 
L 31.59375 8.109375 
Q 46.6875 8.109375 53.6875 14.9375 
Q 60.6875 21.78125 60.6875 36.53125 
Q 60.6875 51.171875 53.6875 57.984375 
Q 46.6875 64.796875 31.59375 64.796875 
z
M 9.8125 72.90625 
L 30.078125 72.90625 
Q 51.265625 72.90625 61.171875 64.09375 
Q 71.09375 55.28125 71.09375 36.53125 
Q 71.09375 17.671875 61.125 8.828125 
Q 51.171875 0 30.078125 0 
L 9.8125 0 
z
" id="DejaVuSans-68"/>
       <path d="M 56.203125 29.59375 
L 56.203125 25.203125 
L 14.890625 25.203125 
Q 15.484375 15.921875 20.484375 11.0625 
Q 25.484375 6.203125 34.421875 6.203125 
Q 39.59375 6.203125 44.453125 7.46875 
Q 49.3125 8.734375 54.109375 11.28125 
L 54.109375 2.78125 
Q 49.265625 0.734375 44.1875 -0.34375 
Q 39.109375 -1.421875 33.890625 -1.421875 
Q 20.796875 -1.421875 13.15625 6.1875 
Q 5.515625 13.8125 5.515625 26.8125 
Q 5.515625 40.234375 12.765625 48.109375 
Q 20.015625 56 32.328125 56 
Q 43.359375 56 49.78125 48.890625 
Q 56.203125 41.796875 56.203125 29.59375 
z
M 47.21875 32.234375 
Q 47.125 39.59375 43.09375 43.984375 
Q 39.0625 48.390625 32.421875 48.390625 
Q 24.90625 48.390625 20.390625 44.140625 
Q 15.875 39.890625 15.1875 32.171875 
z
" id="DejaVuSans-101"/>
       <path d="M 8.5 21.578125 
L 8.5 54.6875 
L 17.484375 54.6875 
L 17.484375 21.921875 
Q 17.484375 14.15625 20.5 10.265625 
Q 23.53125 6.390625 29.59375 6.390625 
Q 36.859375 6.390625 41.078125 11.03125 
Q 45.3125 15.671875 45.3125 23.6875 
L 45.3125 54.6875 
L 54.296875 54.6875 
L 54.296875 0 
L 45.3125 0 
L 45.3125 8.40625 
Q 42.046875 3.421875 37.71875 1 
Q 33.40625 -1.421875 27.6875 -1.421875 
Q 18.265625 -1.421875 13.375 4.4375 
Q 8.5 10.296875 8.5 21.578125 
z
M 31.109375 56 
z
" id="DejaVuSans-117"/>
       <path d="M 9.421875 54.6875 
L 18.40625 54.6875 
L 18.40625 0 
L 9.421875 0 
z
M 9.421875 75.984375 
L 18.40625 75.984375 
L 18.40625 64.59375 
L 9.421875 64.59375 
z
" id="DejaVuSans-105"/>
       <path d="M 45.40625 27.984375 
Q 45.40625 37.75 41.375 43.109375 
Q 37.359375 48.484375 30.078125 48.484375 
Q 22.859375 48.484375 18.828125 43.109375 
Q 14.796875 37.75 14.796875 27.984375 
Q 14.796875 18.265625 18.828125 12.890625 
Q 22.859375 7.515625 30.078125 7.515625 
Q 37.359375 7.515625 41.375 12.890625 
Q 45.40625 18.265625 45.40625 27.984375 
z
M 54.390625 6.78125 
Q 54.390625 -7.171875 48.1875 -13.984375 
Q 42 -20.796875 29.203125 -20.796875 
Q 24.46875 -20.796875 20.265625 -20.09375 
Q 16.0625 -19.390625 12.109375 -17.921875 
L 12.109375 -9.1875 
Q 16.0625 -11.328125 19.921875 -12.34375 
Q 23.78125 -13.375 27.78125 -13.375 
Q 36.625 -13.375 41.015625 -8.765625 
Q 45.40625 -4.15625 45.40625 5.171875 
L 45.40625 9.625 
Q 42.625 4.78125 38.28125 2.390625 
Q 33.9375 0 27.875 0 
Q 17.828125 0 11.671875 7.65625 
Q 5.515625 15.328125 5.515625 27.984375 
Q 5.515625 40.671875 11.671875 48.328125 
Q 17.828125 56 27.875 56 
Q 33.9375 56 38.28125 53.609375 
Q 42.625 51.21875 45.40625 46.390625 
L 45.40625 54.6875 
L 54.390625 54.6875 
z
" id="DejaVuSans-103"/>
       <path d="M 31 75.875 
Q 24.46875 64.65625 21.28125 53.65625 
Q 18.109375 42.671875 18.109375 31.390625 
Q 18.109375 20.125 21.3125 9.0625 
Q 24.515625 -2 31 -13.1875 
L 23.1875 -13.1875 
Q 15.875 -1.703125 12.234375 9.375 
Q 8.59375 20.453125 8.59375 31.390625 
Q 8.59375 42.28125 12.203125 53.3125 
Q 15.828125 64.359375 23.1875 75.875 
z
" id="DejaVuSans-40"/>
       <path d="M 6.296875 72.90625 
L 16.890625 72.90625 
L 35.015625 45.796875 
L 53.21875 72.90625 
L 63.8125 72.90625 
L 40.375 37.890625 
L 65.375 0 
L 54.78125 0 
L 34.28125 31 
L 13.625 0 
L 2.984375 0 
L 29 38.921875 
z
" id="DejaVuSans-88"/>
       <path d="M 9.078125 75.984375 
L 18.109375 75.984375 
L 18.109375 31.109375 
L 44.921875 54.6875 
L 56.390625 54.6875 
L 27.390625 29.109375 
L 57.625 0 
L 45.90625 0 
L 18.109375 26.703125 
L 18.109375 0 
L 9.078125 0 
z
" id="DejaVuSans-107"/>
       <path d="M 9.8125 72.90625 
L 19.671875 72.90625 
L 19.671875 43.015625 
L 55.515625 43.015625 
L 55.515625 72.90625 
L 65.375 72.90625 
L 65.375 0 
L 55.515625 0 
L 55.515625 34.71875 
L 19.671875 34.71875 
L 19.671875 0 
L 9.8125 0 
z
" id="DejaVuSans-72"/>
       <path d="M 5.515625 54.6875 
L 48.1875 54.6875 
L 48.1875 46.484375 
L 14.40625 7.171875 
L 48.1875 7.171875 
L 48.1875 0 
L 4.296875 0 
L 4.296875 8.203125 
L 38.09375 47.515625 
L 5.515625 47.515625 
z
" id="DejaVuSans-122"/>
       <path d="M 8.015625 75.875 
L 15.828125 75.875 
Q 23.140625 64.359375 26.78125 53.3125 
Q 30.421875 42.28125 30.421875 31.390625 
Q 30.421875 20.453125 26.78125 9.375 
Q 23.140625 -1.703125 15.828125 -13.1875 
L 8.015625 -13.1875 
Q 14.5 -2 17.703125 9.0625 
Q 20.90625 20.125 20.90625 31.390625 
Q 20.90625 42.671875 17.703125 53.65625 
Q 14.5 64.65625 8.015625 75.875 
z
" id="DejaVuSans-41"/>
      </defs>
      <use xlink:href="#DejaVuSans-50"/>
      <use x="63.623047" xlink:href="#DejaVuSans-45"/>
      <use x="99.707031" xlink:href="#DejaVuSans-80"/>
      <use x="160.009766" xlink:href="#DejaVuSans-104"/>
      <use x="223.388672" xlink:href="#DejaVuSans-111"/>
      <use x="284.570312" xlink:href="#DejaVuSans-116"/>
      <use x="323.779297" xlink:href="#DejaVuSans-111"/>
      <use x="384.960938" xlink:href="#DejaVuSans-110"/>
      <use x="448.339844" xlink:href="#DejaVuSans-32"/>
      <use x="480.126953" xlink:href="#DejaVuSans-68"/>
      <use x="557.128906" xlink:href="#DejaVuSans-101"/>
      <use x="618.652344" xlink:href="#DejaVuSans-116"/>
      <use x="657.861328" xlink:href="#DejaVuSans-117"/>
      <use x="721.240234" xlink:href="#DejaVuSans-110"/>
      <use x="784.619141" xlink:href="#DejaVuSans-105"/>
      <use x="812.402344" xlink:href="#DejaVuSans-110"/>
      <use x="875.78125" xlink:href="#DejaVuSans-103"/>
      <use x="939.257812" xlink:href="#DejaVuSans-32"/>
      <use x="971.044922" xlink:href="#DejaVuSans-40"/>
      <use x="1010.058594" xlink:href="#DejaVuSans-55"/>
      <use x="1073.681641" xlink:href="#DejaVuSans-55"/>
      <use x="1137.304688" xlink:href="#DejaVuSans-48"/>
      <use x="1200.927734" xlink:href="#DejaVuSans-88"/>
      <use x="1269.433594" xlink:href="#DejaVuSans-88"/>
      <use x="1337.939453" xlink:href="#DejaVuSans-88"/>
      <use x="1406.445312" xlink:href="#DejaVuSans-32"/>
      <use x="1438.232422" xlink:href="#DejaVuSans-107"/>
      <use x="1496.142578" xlink:href="#DejaVuSans-72"/>
      <use x="1571.337891" xlink:href="#DejaVuSans-122"/>
      <use x="1623.828125" xlink:href="#DejaVuSans-41"/>
     </g>
    </g>
   </g>
   <g id="matplotlib.axis_2">
    <g id="ytick_1">
     <g id="line2d_15">
      <path clip-path="url(#p11323d8459)" d="M 70.954688 234.241015 
L 428.074687 234.241015 
" style="fill:none;stroke:#b0b0b0;stroke-linecap:square;stroke-width:0.8;"/>
     </g>
     <g id="line2d_16">
      <defs>
       <path d="M 0 0 
L -3.5 0 
" id="mc3ce260a5b" style="stroke:#000000;stroke-width:0.8;"/>
      </defs>
      <g>
       <use style="stroke:#000000;stroke-width:0.8;" x="70.954688" xlink:href="#mc3ce260a5b" y="234.241015"/>
      </g>
     </g>
     <g id="text_9">
      <!-- 0.10 -->
      <g transform="translate(30.55625 239.939844)scale(0.15 -0.15)">
       <defs>
        <path d="M 10.6875 12.40625 
L 21 12.40625 
L 21 0 
L 10.6875 0 
z
" id="DejaVuSans-46"/>
       </defs>
       <use xlink:href="#DejaVuSans-48"/>
       <use x="63.623047" xlink:href="#DejaVuSans-46"/>
       <use x="95.410156" xlink:href="#DejaVuSans-49"/>
       <use x="159.033203" xlink:href="#DejaVuSans-48"/>
      </g>
     </g>
    </g>
    <g id="ytick_2">
     <g id="line2d_17">
      <path clip-path="url(#p11323d8459)" d="M 70.954688 194.457699 
L 428.074687 194.457699 
" style="fill:none;stroke:#b0b0b0;stroke-linecap:square;stroke-width:0.8;"/>
     </g>
     <g id="line2d_18">
      <g>
       <use style="stroke:#000000;stroke-width:0.8;" x="70.954688" xlink:href="#mc3ce260a5b" y="194.457699"/>
      </g>
     </g>
     <g id="text_10">
      <!-- 0.15 -->
      <g transform="translate(30.55625 200.156527)scale(0.15 -0.15)">
       <use xlink:href="#DejaVuSans-48"/>
       <use x="63.623047" xlink:href="#DejaVuSans-46"/>
       <use x="95.410156" xlink:href="#DejaVuSans-49"/>
       <use x="159.033203" xlink:href="#DejaVuSans-53"/>
      </g>
     </g>
    </g>
    <g id="ytick_3">
     <g id="line2d_19">
      <path clip-path="url(#p11323d8459)" d="M 70.954688 154.674382 
L 428.074687 154.674382 
" style="fill:none;stroke:#b0b0b0;stroke-linecap:square;stroke-width:0.8;"/>
     </g>
     <g id="line2d_20">
      <g>
       <use style="stroke:#000000;stroke-width:0.8;" x="70.954688" xlink:href="#mc3ce260a5b" y="154.674382"/>
      </g>
     </g>
     <g id="text_11">
      <!-- 0.20 -->
      <g transform="translate(30.55625 160.373211)scale(0.15 -0.15)">
       <use xlink:href="#DejaVuSans-48"/>
       <use x="63.623047" xlink:href="#DejaVuSans-46"/>
       <use x="95.410156" xlink:href="#DejaVuSans-50"/>
       <use x="159.033203" xlink:href="#DejaVuSans-48"/>
      </g>
     </g>
    </g>
    <g id="ytick_4">
     <g id="line2d_21">
      <path clip-path="url(#p11323d8459)" d="M 70.954688 114.891066 
L 428.074687 114.891066 
" style="fill:none;stroke:#b0b0b0;stroke-linecap:square;stroke-width:0.8;"/>
     </g>
     <g id="line2d_22">
      <g>
       <use style="stroke:#000000;stroke-width:0.8;" x="70.954688" xlink:href="#mc3ce260a5b" y="114.891066"/>
      </g>
     </g>
     <g id="text_12">
      <!-- 0.25 -->
      <g transform="translate(30.55625 120.589894)scale(0.15 -0.15)">
       <use xlink:href="#DejaVuSans-48"/>
       <use x="63.623047" xlink:href="#DejaVuSans-46"/>
       <use x="95.410156" xlink:href="#DejaVuSans-50"/>
       <use x="159.033203" xlink:href="#DejaVuSans-53"/>
      </g>
     </g>
    </g>
    <g id="ytick_5">
     <g id="line2d_23">
      <path clip-path="url(#p11323d8459)" d="M 70.954688 75.107749 
L 428.074687 75.107749 
" style="fill:none;stroke:#b0b0b0;stroke-linecap:square;stroke-width:0.8;"/>
     </g>
     <g id="line2d_24">
      <g>
       <use style="stroke:#000000;stroke-width:0.8;" x="70.954688" xlink:href="#mc3ce260a5b" y="75.107749"/>
      </g>
     </g>
     <g id="text_13">
      <!-- 0.30 -->
      <g transform="translate(30.55625 80.806578)scale(0.15 -0.15)">
       <defs>
        <path d="M 40.578125 39.3125 
Q 47.65625 37.796875 51.625 33 
Q 55.609375 28.21875 55.609375 21.1875 
Q 55.609375 10.40625 48.1875 4.484375 
Q 40.765625 -1.421875 27.09375 -1.421875 
Q 22.515625 -1.421875 17.65625 -0.515625 
Q 12.796875 0.390625 7.625 2.203125 
L 7.625 11.71875 
Q 11.71875 9.328125 16.59375 8.109375 
Q 21.484375 6.890625 26.8125 6.890625 
Q 36.078125 6.890625 40.9375 10.546875 
Q 45.796875 14.203125 45.796875 21.1875 
Q 45.796875 27.640625 41.28125 31.265625 
Q 36.765625 34.90625 28.71875 34.90625 
L 20.21875 34.90625 
L 20.21875 43.015625 
L 29.109375 43.015625 
Q 36.375 43.015625 40.234375 45.921875 
Q 44.09375 48.828125 44.09375 54.296875 
Q 44.09375 59.90625 40.109375 62.90625 
Q 36.140625 65.921875 28.71875 65.921875 
Q 24.65625 65.921875 20.015625 65.03125 
Q 15.375 64.15625 9.8125 62.3125 
L 9.8125 71.09375 
Q 15.4375 72.65625 20.34375 73.4375 
Q 25.25 74.21875 29.59375 74.21875 
Q 40.828125 74.21875 47.359375 69.109375 
Q 53.90625 64.015625 53.90625 55.328125 
Q 53.90625 49.265625 50.4375 45.09375 
Q 46.96875 40.921875 40.578125 39.3125 
z
" id="DejaVuSans-51"/>
       </defs>
       <use xlink:href="#DejaVuSans-48"/>
       <use x="63.623047" xlink:href="#DejaVuSans-46"/>
       <use x="95.410156" xlink:href="#DejaVuSans-51"/>
       <use x="159.033203" xlink:href="#DejaVuSans-48"/>
      </g>
     </g>
    </g>
    <g id="ytick_6">
     <g id="line2d_25">
      <path clip-path="url(#p11323d8459)" d="M 70.954688 35.324433 
L 428.074687 35.324433 
" style="fill:none;stroke:#b0b0b0;stroke-linecap:square;stroke-width:0.8;"/>
     </g>
     <g id="line2d_26">
      <g>
       <use style="stroke:#000000;stroke-width:0.8;" x="70.954688" xlink:href="#mc3ce260a5b" y="35.324433"/>
      </g>
     </g>
     <g id="text_14">
      <!-- 0.35 -->
      <g transform="translate(30.55625 41.023261)scale(0.15 -0.15)">
       <use xlink:href="#DejaVuSans-48"/>
       <use x="63.623047" xlink:href="#DejaVuSans-46"/>
       <use x="95.410156" xlink:href="#DejaVuSans-51"/>
       <use x="159.033203" xlink:href="#DejaVuSans-53"/>
      </g>
     </g>
    </g>
    <g id="text_15">
     <!-- Two-body survival -->
     <g transform="translate(22.396875 229.898187)rotate(-90)scale(0.2 -0.2)">
      <defs>
       <path d="M -0.296875 72.90625 
L 61.375 72.90625 
L 61.375 64.59375 
L 35.5 64.59375 
L 35.5 0 
L 25.59375 0 
L 25.59375 64.59375 
L -0.296875 64.59375 
z
" id="DejaVuSans-84"/>
       <path d="M 4.203125 54.6875 
L 13.1875 54.6875 
L 24.421875 12.015625 
L 35.59375 54.6875 
L 46.1875 54.6875 
L 57.421875 12.015625 
L 68.609375 54.6875 
L 77.59375 54.6875 
L 63.28125 0 
L 52.6875 0 
L 40.921875 44.828125 
L 29.109375 0 
L 18.5 0 
z
" id="DejaVuSans-119"/>
       <path d="M 48.6875 27.296875 
Q 48.6875 37.203125 44.609375 42.84375 
Q 40.53125 48.484375 33.40625 48.484375 
Q 26.265625 48.484375 22.1875 42.84375 
Q 18.109375 37.203125 18.109375 27.296875 
Q 18.109375 17.390625 22.1875 11.75 
Q 26.265625 6.109375 33.40625 6.109375 
Q 40.53125 6.109375 44.609375 11.75 
Q 48.6875 17.390625 48.6875 27.296875 
z
M 18.109375 46.390625 
Q 20.953125 51.265625 25.265625 53.625 
Q 29.59375 56 35.59375 56 
Q 45.5625 56 51.78125 48.09375 
Q 58.015625 40.1875 58.015625 27.296875 
Q 58.015625 14.40625 51.78125 6.484375 
Q 45.5625 -1.421875 35.59375 -1.421875 
Q 29.59375 -1.421875 25.265625 0.953125 
Q 20.953125 3.328125 18.109375 8.203125 
L 18.109375 0 
L 9.078125 0 
L 9.078125 75.984375 
L 18.109375 75.984375 
z
" id="DejaVuSans-98"/>
       <path d="M 45.40625 46.390625 
L 45.40625 75.984375 
L 54.390625 75.984375 
L 54.390625 0 
L 45.40625 0 
L 45.40625 8.203125 
Q 42.578125 3.328125 38.25 0.953125 
Q 33.9375 -1.421875 27.875 -1.421875 
Q 17.96875 -1.421875 11.734375 6.484375 
Q 5.515625 14.40625 5.515625 27.296875 
Q 5.515625 40.1875 11.734375 48.09375 
Q 17.96875 56 27.875 56 
Q 33.9375 56 38.25 53.625 
Q 42.578125 51.265625 45.40625 46.390625 
z
M 14.796875 27.296875 
Q 14.796875 17.390625 18.875 11.75 
Q 22.953125 6.109375 30.078125 6.109375 
Q 37.203125 6.109375 41.296875 11.75 
Q 45.40625 17.390625 45.40625 27.296875 
Q 45.40625 37.203125 41.296875 42.84375 
Q 37.203125 48.484375 30.078125 48.484375 
Q 22.953125 48.484375 18.875 42.84375 
Q 14.796875 37.203125 14.796875 27.296875 
z
" id="DejaVuSans-100"/>
       <path d="M 32.171875 -5.078125 
Q 28.375 -14.84375 24.75 -17.8125 
Q 21.140625 -20.796875 15.09375 -20.796875 
L 7.90625 -20.796875 
L 7.90625 -13.28125 
L 13.1875 -13.28125 
Q 16.890625 -13.28125 18.9375 -11.515625 
Q 21 -9.765625 23.484375 -3.21875 
L 25.09375 0.875 
L 2.984375 54.6875 
L 12.5 54.6875 
L 29.59375 11.921875 
L 46.6875 54.6875 
L 56.203125 54.6875 
z
" id="DejaVuSans-121"/>
       <path d="M 44.28125 53.078125 
L 44.28125 44.578125 
Q 40.484375 46.53125 36.375 47.5 
Q 32.28125 48.484375 27.875 48.484375 
Q 21.1875 48.484375 17.84375 46.4375 
Q 14.5 44.390625 14.5 40.28125 
Q 14.5 37.15625 16.890625 35.375 
Q 19.28125 33.59375 26.515625 31.984375 
L 29.59375 31.296875 
Q 39.15625 29.25 43.1875 25.515625 
Q 47.21875 21.78125 47.21875 15.09375 
Q 47.21875 7.46875 41.1875 3.015625 
Q 35.15625 -1.421875 24.609375 -1.421875 
Q 20.21875 -1.421875 15.453125 -0.5625 
Q 10.6875 0.296875 5.421875 2 
L 5.421875 11.28125 
Q 10.40625 8.6875 15.234375 7.390625 
Q 20.0625 6.109375 24.8125 6.109375 
Q 31.15625 6.109375 34.5625 8.28125 
Q 37.984375 10.453125 37.984375 14.40625 
Q 37.984375 18.0625 35.515625 20.015625 
Q 33.0625 21.96875 24.703125 23.78125 
L 21.578125 24.515625 
Q 13.234375 26.265625 9.515625 29.90625 
Q 5.8125 33.546875 5.8125 39.890625 
Q 5.8125 47.609375 11.28125 51.796875 
Q 16.75 56 26.8125 56 
Q 31.78125 56 36.171875 55.265625 
Q 40.578125 54.546875 44.28125 53.078125 
z
" id="DejaVuSans-115"/>
       <path d="M 41.109375 46.296875 
Q 39.59375 47.171875 37.8125 47.578125 
Q 36.03125 48 33.890625 48 
Q 26.265625 48 22.1875 43.046875 
Q 18.109375 38.09375 18.109375 28.8125 
L 18.109375 0 
L 9.078125 0 
L 9.078125 54.6875 
L 18.109375 54.6875 
L 18.109375 46.1875 
Q 20.953125 51.171875 25.484375 53.578125 
Q 30.03125 56 36.53125 56 
Q 37.453125 56 38.578125 55.875 
Q 39.703125 55.765625 41.0625 55.515625 
z
" id="DejaVuSans-114"/>
       <path d="M 2.984375 54.6875 
L 12.5 54.6875 
L 29.59375 8.796875 
L 46.6875 54.6875 
L 56.203125 54.6875 
L 35.6875 0 
L 23.484375 0 
z
" id="DejaVuSans-118"/>
       <path d="M 34.28125 27.484375 
Q 23.390625 27.484375 19.1875 25 
Q 14.984375 22.515625 14.984375 16.5 
Q 14.984375 11.71875 18.140625 8.90625 
Q 21.296875 6.109375 26.703125 6.109375 
Q 34.1875 6.109375 38.703125 11.40625 
Q 43.21875 16.703125 43.21875 25.484375 
L 43.21875 27.484375 
z
M 52.203125 31.203125 
L 52.203125 0 
L 43.21875 0 
L 43.21875 8.296875 
Q 40.140625 3.328125 35.546875 0.953125 
Q 30.953125 -1.421875 24.3125 -1.421875 
Q 15.921875 -1.421875 10.953125 3.296875 
Q 6 8.015625 6 15.921875 
Q 6 25.140625 12.171875 29.828125 
Q 18.359375 34.515625 30.609375 34.515625 
L 43.21875 34.515625 
L 43.21875 35.40625 
Q 43.21875 41.609375 39.140625 45 
Q 35.0625 48.390625 27.6875 48.390625 
Q 23 48.390625 18.546875 47.265625 
Q 14.109375 46.140625 10.015625 43.890625 
L 10.015625 52.203125 
Q 14.9375 54.109375 19.578125 55.046875 
Q 24.21875 56 28.609375 56 
Q 40.484375 56 46.34375 49.84375 
Q 52.203125 43.703125 52.203125 31.203125 
z
" id="DejaVuSans-97"/>
       <path d="M 9.421875 75.984375 
L 18.40625 75.984375 
L 18.40625 0 
L 9.421875 0 
z
" id="DejaVuSans-108"/>
      </defs>
      <use xlink:href="#DejaVuSans-84"/>
      <use x="44.583984" xlink:href="#DejaVuSans-119"/>
      <use x="126.371094" xlink:href="#DejaVuSans-111"/>
      <use x="189.427734" xlink:href="#DejaVuSans-45"/>
      <use x="225.511719" xlink:href="#DejaVuSans-98"/>
      <use x="288.988281" xlink:href="#DejaVuSans-111"/>
      <use x="350.169922" xlink:href="#DejaVuSans-100"/>
      <use x="413.646484" xlink:href="#DejaVuSans-121"/>
      <use x="472.826172" xlink:href="#DejaVuSans-32"/>
      <use x="504.613281" xlink:href="#DejaVuSans-115"/>
      <use x="556.712891" xlink:href="#DejaVuSans-117"/>
      <use x="620.091797" xlink:href="#DejaVuSans-114"/>
      <use x="661.205078" xlink:href="#DejaVuSans-118"/>
      <use x="720.384766" xlink:href="#DejaVuSans-105"/>
      <use x="748.167969" xlink:href="#DejaVuSans-118"/>
      <use x="807.347656" xlink:href="#DejaVuSans-97"/>
      <use x="868.626953" xlink:href="#DejaVuSans-108"/>
     </g>
    </g>
   </g>
   <g id="LineCollection_1">
    <path clip-path="url(#p11323d8459)" d="M 252.318697 67.555883 
L 252.318697 36.486232 
" style="fill:none;stroke:#1f77b4;stroke-width:1.5;"/>
   </g>
   <g id="LineCollection_2">
    <path clip-path="url(#p11323d8459)" d="M 140.157646 67.929248 
L 140.157646 19.296 
" style="fill:none;stroke:#ff7f0e;stroke-width:1.5;"/>
    <path clip-path="url(#p11323d8459)" d="M 214.315969 154.925684 
L 214.315969 114.036987 
" style="fill:none;stroke:#ff7f0e;stroke-width:1.5;"/>
    <path clip-path="url(#p11323d8459)" d="M 224.910015 140.209231 
L 224.910015 97.373552 
" style="fill:none;stroke:#ff7f0e;stroke-width:1.5;"/>
    <path clip-path="url(#p11323d8459)" d="M 235.504061 153.27331 
L 235.504061 111.240288 
" style="fill:none;stroke:#ff7f0e;stroke-width:1.5;"/>
    <path clip-path="url(#p11323d8459)" d="M 246.098108 174.019177 
L 246.098108 133.388938 
" style="fill:none;stroke:#ff7f0e;stroke-width:1.5;"/>
    <path clip-path="url(#p11323d8459)" d="M 256.692154 187.020327 
L 256.692154 145.772178 
" style="fill:none;stroke:#ff7f0e;stroke-width:1.5;"/>
    <path clip-path="url(#p11323d8459)" d="M 267.2862 166.713478 
L 267.2862 124.273756 
" style="fill:none;stroke:#ff7f0e;stroke-width:1.5;"/>
    <path clip-path="url(#p11323d8459)" d="M 277.880246 115.639477 
L 277.880246 69.93897 
" style="fill:none;stroke:#ff7f0e;stroke-width:1.5;"/>
    <path clip-path="url(#p11323d8459)" d="M 352.038569 101.238587 
L 352.038569 56.754102 
" style="fill:none;stroke:#ff7f0e;stroke-width:1.5;"/>
   </g>
   <g id="LineCollection_3">
    <path clip-path="url(#p11323d8459)" d="M 87.187415 70.171756 
L 87.187415 40.696238 
" style="fill:none;stroke:#2ca02c;stroke-width:1.5;"/>
    <path clip-path="url(#p11323d8459)" d="M 206.370434 99.760313 
L 206.370434 71.222577 
" style="fill:none;stroke:#2ca02c;stroke-width:1.5;"/>
    <path clip-path="url(#p11323d8459)" d="M 214.315969 129.985938 
L 214.315969 102.889764 
" style="fill:none;stroke:#2ca02c;stroke-width:1.5;"/>
    <path clip-path="url(#p11323d8459)" d="M 222.261504 141.977278 
L 222.261504 114.676616 
" style="fill:none;stroke:#2ca02c;stroke-width:1.5;"/>
    <path clip-path="url(#p11323d8459)" d="M 230.207038 149.023415 
L 230.207038 122.569209 
" style="fill:none;stroke:#2ca02c;stroke-width:1.5;"/>
    <path clip-path="url(#p11323d8459)" d="M 238.152573 183.000562 
L 238.152573 159.789252 
" style="fill:none;stroke:#2ca02c;stroke-width:1.5;"/>
    <path clip-path="url(#p11323d8459)" d="M 246.098108 166.329066 
L 246.098108 141.303316 
" style="fill:none;stroke:#2ca02c;stroke-width:1.5;"/>
    <path clip-path="url(#p11323d8459)" d="M 254.043642 186.125402 
L 254.043642 162.458364 
" style="fill:none;stroke:#2ca02c;stroke-width:1.5;"/>
    <path clip-path="url(#p11323d8459)" d="M 261.989177 178.085515 
L 261.989177 154.712072 
" style="fill:none;stroke:#2ca02c;stroke-width:1.5;"/>
    <path clip-path="url(#p11323d8459)" d="M 269.934712 155.96877 
L 269.934712 131.297124 
" style="fill:none;stroke:#2ca02c;stroke-width:1.5;"/>
    <path clip-path="url(#p11323d8459)" d="M 277.880246 138.638769 
L 277.880246 112.519473 
" style="fill:none;stroke:#2ca02c;stroke-width:1.5;"/>
    <path clip-path="url(#p11323d8459)" d="M 285.825781 120.048841 
L 285.825781 92.906511 
" style="fill:none;stroke:#2ca02c;stroke-width:1.5;"/>
    <path clip-path="url(#p11323d8459)" d="M 405.0088 50.76732 
L 405.0088 20.267167 
" style="fill:none;stroke:#2ca02c;stroke-width:1.5;"/>
   </g>
   <g id="LineCollection_4">
    <path clip-path="url(#p11323d8459)" d="M 87.187415 98.425099 
L 87.187415 70.15193 
" style="fill:none;stroke:#d62728;stroke-width:1.5;"/>
    <path clip-path="url(#p11323d8459)" d="M 206.370434 111.876268 
L 206.370434 85.315011 
" style="fill:none;stroke:#d62728;stroke-width:1.5;"/>
    <path clip-path="url(#p11323d8459)" d="M 214.315969 117.600974 
L 214.315969 90.010888 
" style="fill:none;stroke:#d62728;stroke-width:1.5;"/>
    <path clip-path="url(#p11323d8459)" d="M 222.261504 158.272741 
L 222.261504 132.992699 
" style="fill:none;stroke:#d62728;stroke-width:1.5;"/>
    <path clip-path="url(#p11323d8459)" d="M 230.207038 154.723337 
L 230.207038 128.649633 
" style="fill:none;stroke:#d62728;stroke-width:1.5;"/>
    <path clip-path="url(#p11323d8459)" d="M 238.152573 209.27951 
L 238.152573 186.799444 
" style="fill:none;stroke:#d62728;stroke-width:1.5;"/>
    <path clip-path="url(#p11323d8459)" d="M 246.098108 246.466489 
L 246.098108 228.409289 
" style="fill:none;stroke:#d62728;stroke-width:1.5;"/>
    <path clip-path="url(#p11323d8459)" d="M 254.043642 261.216 
L 254.043642 244.986509 
" style="fill:none;stroke:#d62728;stroke-width:1.5;"/>
    <path clip-path="url(#p11323d8459)" d="M 261.989177 229.949621 
L 261.989177 209.800015 
" style="fill:none;stroke:#d62728;stroke-width:1.5;"/>
    <path clip-path="url(#p11323d8459)" d="M 269.934712 204.74664 
L 269.934712 182.318371 
" style="fill:none;stroke:#d62728;stroke-width:1.5;"/>
    <path clip-path="url(#p11323d8459)" d="M 277.880246 166.646247 
L 277.880246 141.459289 
" style="fill:none;stroke:#d62728;stroke-width:1.5;"/>
    <path clip-path="url(#p11323d8459)" d="M 285.825781 124.220807 
L 285.825781 96.966163 
" style="fill:none;stroke:#d62728;stroke-width:1.5;"/>
    <path clip-path="url(#p11323d8459)" d="M 405.0088 70.763866 
L 405.0088 43.343949 
" style="fill:none;stroke:#d62728;stroke-width:1.5;"/>
   </g>
   <g id="LineCollection_5">
    <path clip-path="url(#p11323d8459)" d="M 87.187415 98.080381 
L 87.187415 66.293977 
" style="fill:none;stroke:#9467bd;stroke-width:1.5;"/>
    <path clip-path="url(#p11323d8459)" d="M 206.370434 145.316493 
L 206.370434 117.503687 
" style="fill:none;stroke:#9467bd;stroke-width:1.5;"/>
    <path clip-path="url(#p11323d8459)" d="M 214.315969 165.012755 
L 214.315969 138.69108 
" style="fill:none;stroke:#9467bd;stroke-width:1.5;"/>
    <path clip-path="url(#p11323d8459)" d="M 222.261504 173.874872 
L 222.261504 146.924442 
" style="fill:none;stroke:#9467bd;stroke-width:1.5;"/>
    <path clip-path="url(#p11323d8459)" d="M 230.207038 209.18024 
L 230.207038 185.020026 
" style="fill:none;stroke:#9467bd;stroke-width:1.5;"/>
    <path clip-path="url(#p11323d8459)" d="M 238.152573 222.136691 
L 238.152573 200.101485 
" style="fill:none;stroke:#9467bd;stroke-width:1.5;"/>
    <path clip-path="url(#p11323d8459)" d="M 246.098108 246.198868 
L 246.098108 226.47088 
" style="fill:none;stroke:#9467bd;stroke-width:1.5;"/>
    <path clip-path="url(#p11323d8459)" d="M 254.043642 254.600666 
L 254.043642 236.021646 
" style="fill:none;stroke:#9467bd;stroke-width:1.5;"/>
    <path clip-path="url(#p11323d8459)" d="M 261.989177 242.428494 
L 261.989177 222.082296 
" style="fill:none;stroke:#9467bd;stroke-width:1.5;"/>
    <path clip-path="url(#p11323d8459)" d="M 269.934712 235.514848 
L 269.934712 214.160524 
" style="fill:none;stroke:#9467bd;stroke-width:1.5;"/>
    <path clip-path="url(#p11323d8459)" d="M 277.880246 177.189162 
L 277.880246 150.796833 
" style="fill:none;stroke:#9467bd;stroke-width:1.5;"/>
    <path clip-path="url(#p11323d8459)" d="M 285.825781 172.191545 
L 285.825781 145.099176 
" style="fill:none;stroke:#9467bd;stroke-width:1.5;"/>
    <path clip-path="url(#p11323d8459)" d="M 405.0088 119.180568 
L 405.0088 90.303954 
" style="fill:none;stroke:#9467bd;stroke-width:1.5;"/>
   </g>
   <g id="line2d_27">
    <path clip-path="url(#p11323d8459)" d="M 94.020575 60.271326 
L 411.84196 60.271326 
" style="fill:none;stroke:#1f77b4;stroke-linecap:square;stroke-width:1.5;"/>
   </g>
   <g id="line2d_28">
    <path clip-path="url(#p11323d8459)" d="M 94.020575 65.97532 
L 101.019644 66.203728 
L 107.700574 66.191005 
L 114.381504 65.952819 
L 122.334992 65.436115 
L 138.560108 64.309132 
L 143.65034 64.213002 
L 148.104294 64.344856 
L 151.921968 64.664584 
L 155.739642 65.212288 
L 159.239177 65.942412 
L 162.738712 66.913558 
L 165.920107 68.02127 
L 169.101503 69.354448 
L 172.282898 70.92062 
L 175.464293 72.723601 
L 178.963828 74.980036 
L 182.463363 77.516509 
L 185.962897 80.320435 
L 189.780572 83.661733 
L 193.916385 87.576012 
L 198.688478 92.403732 
L 205.051269 99.189628 
L 218.094989 113.190952 
L 222.548943 117.613991 
L 226.366617 121.118839 
L 229.866152 124.039693 
L 233.047547 126.411729 
L 235.910803 128.288362 
L 238.774059 129.898801 
L 241.319175 131.092256 
L 243.864291 132.050588 
L 246.409407 132.765262 
L 248.954523 133.229893 
L 251.49964 133.440318 
L 253.726616 133.414372 
L 255.953593 133.192498 
L 258.498709 132.701033 
L 261.043825 131.960099 
L 263.588941 130.976316 
L 266.134058 129.758438 
L 268.997313 128.122016 
L 271.860569 126.221247 
L 275.041964 123.824859 
L 278.541499 120.880555 
L 282.359173 117.354471 
L 286.813127 112.912771 
L 292.539638 106.85385 
L 308.128475 90.162905 
L 312.900568 85.477903 
L 317.036382 81.719693 
L 320.854056 78.543582 
L 324.353591 75.904403 
L 327.853126 73.541273 
L 331.35266 71.46277 
L 334.534056 69.822253 
L 337.715451 68.416346 
L 340.896846 67.238657 
L 344.078241 66.279318 
L 347.577776 65.460708 
L 351.077311 64.869703 
L 354.894985 64.456331 
L 359.030799 64.24229 
L 363.484752 64.232239 
L 368.893124 64.44526 
L 376.846612 65.007847 
L 389.890333 65.933899 
L 396.889403 66.190085 
L 403.570333 66.204455 
L 410.251263 65.992885 
L 411.84196 65.912313 
L 411.84196 65.912313 
" style="fill:none;stroke:#ff7f0e;stroke-linecap:square;stroke-width:1.5;"/>
   </g>
   <g id="line2d_29">
    <path clip-path="url(#p11323d8459)" d="M 94.020575 74.459235 
L 101.655923 75.466895 
L 116.92662 77.542364 
L 122.653132 78.044848 
L 127.743364 78.260982 
L 132.515457 78.242024 
L 137.60569 77.991252 
L 143.332201 77.478929 
L 157.966619 76.045807 
L 161.784293 75.968559 
L 164.965689 76.108839 
L 167.828944 76.435506 
L 170.6922 76.986414 
L 173.237316 77.689632 
L 175.782433 78.614727 
L 178.327549 79.779395 
L 180.872665 81.198505 
L 183.417781 82.883635 
L 185.962897 84.842653 
L 188.508014 87.079351 
L 191.05313 89.593147 
L 193.916385 92.745753 
L 196.779641 96.227821 
L 199.961036 100.455892 
L 203.460571 105.494828 
L 207.596385 111.878923 
L 213.004757 120.697325 
L 223.821501 138.447508 
L 227.639175 144.236702 
L 230.82057 148.688071 
L 233.683826 152.329964 
L 236.228942 155.229667 
L 238.774059 157.773942 
L 241.001035 159.683326 
L 243.228012 161.277427 
L 245.136849 162.380953 
L 247.045686 163.233362 
L 248.954523 163.828476 
L 250.86336 164.161973 
L 252.772198 164.231426 
L 254.681035 164.036329 
L 256.589872 163.578103 
L 258.498709 162.860079 
L 260.407546 161.887468 
L 262.316383 160.667308 
L 264.225221 159.208395 
L 266.452197 157.21863 
L 268.679174 154.937519 
L 271.22429 152.002069 
L 274.087546 148.324829 
L 277.268941 143.840768 
L 280.768476 138.521842 
L 285.540569 130.824472 
L 299.220568 108.463933 
L 303.038243 102.767696 
L 306.537777 97.938166 
L 309.719173 93.927613 
L 312.582428 90.657682 
L 315.445684 87.727544 
L 317.9908 85.416165 
L 320.535916 83.382749 
L 323.081033 81.624654 
L 325.626149 80.135073 
L 328.171265 78.903386 
L 330.716381 77.915564 
L 333.261498 77.154623 
L 336.124753 76.545465 
L 338.988009 76.168206 
L 342.169404 75.981141 
L 345.668939 76.003716 
L 349.804753 76.256237 
L 355.849404 76.871727 
L 366.029869 77.916819 
L 371.438241 78.221661 
L 376.210333 78.271624 
L 380.982426 78.105883 
L 386.072659 77.710678 
L 392.11731 77.012046 
L 402.615914 75.519255 
L 411.523821 74.355013 
L 411.84196 74.319431 
L 411.84196 74.319431 
" style="fill:none;stroke:#2ca02c;stroke-linecap:square;stroke-width:1.5;"/>
   </g>
   <g id="line2d_30">
    <path clip-path="url(#p11323d8459)" d="M 94.020575 65.597273 
L 97.838249 65.792387 
L 101.655923 66.225559 
L 105.791737 66.925471 
L 119.789876 69.523509 
L 123.289411 69.795986 
L 126.470806 69.820167 
L 129.970341 69.610645 
L 134.106155 69.122147 
L 142.377782 68.074853 
L 145.241038 67.956085 
L 147.786154 68.054625 
L 150.331271 68.385062 
L 152.558247 68.882749 
L 155.103363 69.695046 
L 157.64848 70.753957 
L 160.511735 72.197383 
L 164.32941 74.403497 
L 171.01034 78.303497 
L 173.873595 79.673665 
L 176.100572 80.509757 
L 178.327549 81.104551 
L 180.236386 81.406231 
L 182.145223 81.513037 
L 184.3722 81.404156 
L 186.599176 81.078211 
L 189.780572 80.356645 
L 194.552665 79.243001 
L 196.461502 79.009398 
L 198.052199 79.001376 
L 199.642897 79.219329 
L 200.915455 79.592277 
L 202.188013 80.171086 
L 203.460571 80.982103 
L 204.733129 82.050533 
L 206.005687 83.400002 
L 207.278246 85.052139 
L 208.550804 87.026156 
L 210.141501 89.971009 
L 211.732199 93.469152 
L 213.322897 97.536775 
L 214.913594 102.180439 
L 216.822431 108.507159 
L 218.731268 115.630292 
L 220.958245 124.879058 
L 223.503361 136.537264 
L 226.366617 150.745718 
L 231.13871 175.802824 
L 235.592663 198.830842 
L 238.137779 210.962336 
L 240.364756 220.5603 
L 242.273593 227.82945 
L 243.864291 233.101274 
L 245.454989 237.580181 
L 246.727547 240.549837 
L 248.000105 242.944778 
L 248.954523 244.35054 
L 249.908942 245.413466 
L 250.86336 246.128093 
L 251.817779 246.490739 
L 252.454058 246.535962 
L 253.090337 246.423777 
L 254.044756 245.961022 
L 254.999174 245.147148 
L 255.953593 243.986344 
L 256.908011 242.484574 
L 258.18057 239.96537 
L 259.453128 236.876748 
L 260.725686 233.246592 
L 262.316383 227.997394 
L 264.225221 220.752313 
L 266.134058 212.610825 
L 268.679174 200.635363 
L 271.860569 184.434122 
L 280.768476 138.294342 
L 283.313592 126.486606 
L 285.540569 117.081505 
L 287.767545 108.674619 
L 289.676383 102.327693 
L 291.58522 96.803882 
L 293.175917 92.833917 
L 294.766615 89.431335 
L 296.357313 86.578389 
L 297.94801 84.248724 
L 299.220568 82.739187 
L 300.493126 81.522585 
L 301.765685 80.576312 
L 303.038243 79.875959 
L 304.310801 79.395738 
L 305.901498 79.064246 
L 307.492196 78.981676 
L 309.401033 79.136301 
L 311.62801 79.553836 
L 319.899637 81.364272 
L 322.126614 81.511817 
L 324.353591 81.41123 
L 326.262428 81.11441 
L 328.489405 80.525039 
L 330.716381 79.693757 
L 333.261498 78.493903 
L 336.442893 76.726395 
L 345.987079 71.23173 
L 348.850334 69.956306 
L 351.39545 69.07562 
L 353.940567 68.453122 
L 356.485683 68.087109 
L 359.030799 67.957276 
L 361.894055 68.048338 
L 365.39359 68.402959 
L 376.846612 69.768297 
L 380.028008 69.832201 
L 383.209403 69.682069 
L 386.708938 69.282898 
L 390.844752 68.566418 
L 403.888472 66.102023 
L 407.706146 65.724248 
L 411.523821 65.585333 
L 411.84196 65.584095 
L 411.84196 65.584095 
" style="fill:none;stroke:#d62728;stroke-linecap:square;stroke-width:1.5;"/>
   </g>
   <g id="line2d_31">
    <path clip-path="url(#p11323d8459)" d="M 94.020575 74.793053 
L 96.88383 74.710823 
L 101.337784 74.538654 
L 103.56476 74.704287 
L 106.109877 75.149553 
L 111.200109 76.160157 
L 113.427086 76.315076 
L 115.972202 76.233655 
L 120.108016 76.049429 
L 122.016853 76.20014 
L 123.92569 76.567505 
L 126.788946 77.399095 
L 129.652201 78.197696 
L 131.561039 78.510811 
L 133.469876 78.59451 
L 136.333131 78.431574 
L 138.878248 78.339497 
L 140.468945 78.47208 
L 142.059643 78.80951 
L 143.96848 79.470975 
L 150.013131 81.881475 
L 151.603829 82.159425 
L 153.194526 82.229018 
L 156.057782 82.070059 
L 157.966619 82.052961 
L 159.557317 82.272414 
L 160.829875 82.656446 
L 162.420572 83.406147 
L 164.32941 84.618977 
L 168.147084 87.194606 
L 169.737782 87.951951 
L 171.01034 88.335211 
L 172.601037 88.547949 
L 174.828014 88.536693 
L 176.736851 88.563755 
L 178.009409 88.776578 
L 179.281967 89.24127 
L 180.554525 90.00475 
L 181.827084 91.07165 
L 183.417781 92.766123 
L 188.826153 98.973379 
L 190.098711 99.9293 
L 191.371269 100.581435 
L 192.643827 100.967988 
L 194.552665 101.264671 
L 196.143362 101.562449 
L 197.097781 101.90593 
L 198.052199 102.452329 
L 199.006618 103.254154 
L 199.961036 104.347499 
L 200.915455 105.748252 
L 202.188013 108.079596 
L 203.778711 111.618195 
L 209.187083 124.561833 
L 210.459641 126.816122 
L 211.732199 128.578145 
L 213.004757 129.901435 
L 214.595455 131.162716 
L 216.504292 132.693224 
L 217.45871 133.735819 
L 218.413129 135.119722 
L 219.367547 136.948811 
L 220.321966 139.306347 
L 221.276385 142.248233 
L 222.230803 145.798192 
L 223.503361 151.453388 
L 225.094059 159.816101 
L 227.321036 173.100481 
L 230.502431 192.216842 
L 232.093128 200.56826 
L 233.365687 206.322499 
L 234.638245 211.183901 
L 235.910803 215.189317 
L 237.183361 218.454936 
L 238.455919 221.151059 
L 240.046617 224.013971 
L 247.681965 236.639203 
L 248.954523 238.347287 
L 249.908942 239.349046 
L 250.86336 240.052288 
L 251.817779 240.41863 
L 252.454058 240.464768 
L 253.090337 240.350497 
L 254.044756 239.88568 
L 254.999174 239.093168 
L 255.953593 238.015787 
L 257.226151 236.233154 
L 259.134988 233.118744 
L 266.770337 219.962093 
L 268.042895 217.025831 
L 269.315453 213.436452 
L 270.588011 209.04506 
L 271.860569 203.769581 
L 273.133127 197.615699 
L 274.723825 188.853708 
L 277.587081 171.433061 
L 279.814057 158.306502 
L 281.404755 150.166198 
L 282.677313 144.729445 
L 283.949871 140.362052 
L 284.90429 137.785636 
L 285.858708 135.762622 
L 286.813127 134.219524 
L 287.767545 133.059463 
L 289.040104 131.91271 
L 292.221499 129.336537 
L 293.494057 127.822714 
L 294.766615 125.833986 
L 296.039173 123.359039 
L 297.629871 119.702387 
L 302.401964 108.175951 
L 303.674522 105.825842 
L 304.94708 104.006424 
L 305.901498 102.998317 
L 306.855917 102.273408 
L 307.810335 101.790498 
L 309.082894 101.424249 
L 313.218707 100.600186 
L 314.491266 99.958987 
L 315.763824 99.014397 
L 317.036382 97.782708 
L 318.945219 95.553263 
L 322.126614 91.757733 
L 323.399172 90.541785 
L 324.67173 89.612968 
L 325.944288 88.991037 
L 327.216847 88.651003 
L 328.807544 88.522674 
L 332.943358 88.45965 
L 334.215916 88.183104 
L 335.488474 87.706055 
L 337.079172 86.845965 
L 339.306148 85.327692 
L 341.851265 83.616414 
L 343.441962 82.803039 
L 344.71452 82.362695 
L 345.987079 82.114796 
L 347.577776 82.033123 
L 350.441032 82.193363 
L 352.349869 82.212326 
L 353.940567 82.028256 
L 355.531264 81.625123 
L 357.440101 80.897143 
L 362.212194 78.916321 
L 363.802892 78.530901 
L 365.39359 78.35336 
L 367.302427 78.366199 
L 372.392659 78.566264 
L 374.301496 78.335791 
L 376.528473 77.799259 
L 381.936845 76.307682 
L 383.845682 76.078773 
L 386.072659 76.067487 
L 392.435449 76.260105 
L 394.662426 75.974932 
L 398.161961 75.228745 
L 401.025216 74.710302 
L 403.252193 74.539828 
L 405.797309 74.590529 
L 410.887542 74.787527 
L 411.84196 74.745402 
L 411.84196 74.745402 
" style="fill:none;stroke:#9467bd;stroke-linecap:square;stroke-width:1.5;"/>
   </g>
   <g id="line2d_32">
    <defs>
     <path d="M 0 1.5 
C 0.397805 1.5 0.77937 1.341951 1.06066 1.06066 
C 1.341951 0.77937 1.5 0.397805 1.5 0 
C 1.5 -0.397805 1.341951 -0.77937 1.06066 -1.06066 
C 0.77937 -1.341951 0.397805 -1.5 0 -1.5 
C -0.397805 -1.5 -0.77937 -1.341951 -1.06066 -1.06066 
C -1.341951 -0.77937 -1.5 -0.397805 -1.5 0 
C -1.5 0.397805 -1.341951 0.77937 -1.06066 1.06066 
C -0.77937 1.341951 -0.397805 1.5 0 1.5 
z
" id="mb8bc26594a" style="stroke:#1f77b4;"/>
    </defs>
    <g clip-path="url(#p11323d8459)">
     <use style="fill:#1f77b4;stroke:#1f77b4;" x="252.318697" xlink:href="#mb8bc26594a" y="52.021058"/>
    </g>
   </g>
   <g id="line2d_33">
    <defs>
     <path d="M 0 1.5 
C 0.397805 1.5 0.77937 1.341951 1.06066 1.06066 
C 1.341951 0.77937 1.5 0.397805 1.5 0 
C 1.5 -0.397805 1.341951 -0.77937 1.06066 -1.06066 
C 0.77937 -1.341951 0.397805 -1.5 0 -1.5 
C -0.397805 -1.5 -0.77937 -1.341951 -1.06066 -1.06066 
C -1.341951 -0.77937 -1.5 -0.397805 -1.5 0 
C -1.5 0.397805 -1.341951 0.77937 -1.06066 1.06066 
C -0.77937 1.341951 -0.397805 1.5 0 1.5 
z
" id="m3e2fb6b177" style="stroke:#ff7f0e;"/>
    </defs>
    <g clip-path="url(#p11323d8459)">
     <use style="fill:#ff7f0e;stroke:#ff7f0e;" x="140.157646" xlink:href="#m3e2fb6b177" y="43.612624"/>
     <use style="fill:#ff7f0e;stroke:#ff7f0e;" x="214.315969" xlink:href="#m3e2fb6b177" y="134.481335"/>
     <use style="fill:#ff7f0e;stroke:#ff7f0e;" x="224.910015" xlink:href="#m3e2fb6b177" y="118.791391"/>
     <use style="fill:#ff7f0e;stroke:#ff7f0e;" x="235.504061" xlink:href="#m3e2fb6b177" y="132.256799"/>
     <use style="fill:#ff7f0e;stroke:#ff7f0e;" x="246.098108" xlink:href="#m3e2fb6b177" y="153.704058"/>
     <use style="fill:#ff7f0e;stroke:#ff7f0e;" x="256.692154" xlink:href="#m3e2fb6b177" y="166.396252"/>
     <use style="fill:#ff7f0e;stroke:#ff7f0e;" x="267.2862" xlink:href="#m3e2fb6b177" y="145.493617"/>
     <use style="fill:#ff7f0e;stroke:#ff7f0e;" x="277.880246" xlink:href="#m3e2fb6b177" y="92.789223"/>
     <use style="fill:#ff7f0e;stroke:#ff7f0e;" x="352.038569" xlink:href="#m3e2fb6b177" y="78.996344"/>
    </g>
   </g>
   <g id="line2d_34">
    <defs>
     <path d="M 0 1.5 
C 0.397805 1.5 0.77937 1.341951 1.06066 1.06066 
C 1.341951 0.77937 1.5 0.397805 1.5 0 
C 1.5 -0.397805 1.341951 -0.77937 1.06066 -1.06066 
C 0.77937 -1.341951 0.397805 -1.5 0 -1.5 
C -0.397805 -1.5 -0.77937 -1.341951 -1.06066 -1.06066 
C -1.341951 -0.77937 -1.5 -0.397805 -1.5 0 
C -1.5 0.397805 -1.341951 0.77937 -1.06066 1.06066 
C -0.77937 1.341951 -0.397805 1.5 0 1.5 
z
" id="m92edfcde95" style="stroke:#2ca02c;"/>
    </defs>
    <g clip-path="url(#p11323d8459)">
     <use style="fill:#2ca02c;stroke:#2ca02c;" x="87.187415" xlink:href="#m92edfcde95" y="55.433997"/>
     <use style="fill:#2ca02c;stroke:#2ca02c;" x="206.370434" xlink:href="#m92edfcde95" y="85.491445"/>
     <use style="fill:#2ca02c;stroke:#2ca02c;" x="214.315969" xlink:href="#m92edfcde95" y="116.437851"/>
     <use style="fill:#2ca02c;stroke:#2ca02c;" x="222.261504" xlink:href="#m92edfcde95" y="128.326947"/>
     <use style="fill:#2ca02c;stroke:#2ca02c;" x="230.207038" xlink:href="#m92edfcde95" y="135.796312"/>
     <use style="fill:#2ca02c;stroke:#2ca02c;" x="238.152573" xlink:href="#m92edfcde95" y="171.394907"/>
     <use style="fill:#2ca02c;stroke:#2ca02c;" x="246.098108" xlink:href="#m92edfcde95" y="153.816191"/>
     <use style="fill:#2ca02c;stroke:#2ca02c;" x="254.043642" xlink:href="#m92edfcde95" y="174.291883"/>
     <use style="fill:#2ca02c;stroke:#2ca02c;" x="261.989177" xlink:href="#m92edfcde95" y="166.398793"/>
     <use style="fill:#2ca02c;stroke:#2ca02c;" x="269.934712" xlink:href="#m92edfcde95" y="143.632947"/>
     <use style="fill:#2ca02c;stroke:#2ca02c;" x="277.880246" xlink:href="#m92edfcde95" y="125.579121"/>
     <use style="fill:#2ca02c;stroke:#2ca02c;" x="285.825781" xlink:href="#m92edfcde95" y="106.477676"/>
     <use style="fill:#2ca02c;stroke:#2ca02c;" x="405.0088" xlink:href="#m92edfcde95" y="35.517244"/>
    </g>
   </g>
   <g id="line2d_35">
    <defs>
     <path d="M 0 1.5 
C 0.397805 1.5 0.77937 1.341951 1.06066 1.06066 
C 1.341951 0.77937 1.5 0.397805 1.5 0 
C 1.5 -0.397805 1.341951 -0.77937 1.06066 -1.06066 
C 0.77937 -1.341951 0.397805 -1.5 0 -1.5 
C -0.397805 -1.5 -0.77937 -1.341951 -1.06066 -1.06066 
C -1.341951 -0.77937 -1.5 -0.397805 -1.5 0 
C -1.5 0.397805 -1.341951 0.77937 -1.06066 1.06066 
C -0.77937 1.341951 -0.397805 1.5 0 1.5 
z
" id="m851f591001" style="stroke:#d62728;"/>
    </defs>
    <g clip-path="url(#p11323d8459)">
     <use style="fill:#d62728;stroke:#d62728;" x="87.187415" xlink:href="#m851f591001" y="84.288515"/>
     <use style="fill:#d62728;stroke:#d62728;" x="206.370434" xlink:href="#m851f591001" y="98.59564"/>
     <use style="fill:#d62728;stroke:#d62728;" x="214.315969" xlink:href="#m851f591001" y="103.805931"/>
     <use style="fill:#d62728;stroke:#d62728;" x="222.261504" xlink:href="#m851f591001" y="145.63272"/>
     <use style="fill:#d62728;stroke:#d62728;" x="230.207038" xlink:href="#m851f591001" y="141.686485"/>
     <use style="fill:#d62728;stroke:#d62728;" x="238.152573" xlink:href="#m851f591001" y="198.039477"/>
     <use style="fill:#d62728;stroke:#d62728;" x="246.098108" xlink:href="#m851f591001" y="237.437889"/>
     <use style="fill:#d62728;stroke:#d62728;" x="254.043642" xlink:href="#m851f591001" y="253.101254"/>
     <use style="fill:#d62728;stroke:#d62728;" x="261.989177" xlink:href="#m851f591001" y="219.874818"/>
     <use style="fill:#d62728;stroke:#d62728;" x="269.934712" xlink:href="#m851f591001" y="193.532505"/>
     <use style="fill:#d62728;stroke:#d62728;" x="277.880246" xlink:href="#m851f591001" y="154.052768"/>
     <use style="fill:#d62728;stroke:#d62728;" x="285.825781" xlink:href="#m851f591001" y="110.593485"/>
     <use style="fill:#d62728;stroke:#d62728;" x="405.0088" xlink:href="#m851f591001" y="57.053907"/>
    </g>
   </g>
   <g id="line2d_36">
    <defs>
     <path d="M 0 1.5 
C 0.397805 1.5 0.77937 1.341951 1.06066 1.06066 
C 1.341951 0.77937 1.5 0.397805 1.5 0 
C 1.5 -0.397805 1.341951 -0.77937 1.06066 -1.06066 
C 0.77937 -1.341951 0.397805 -1.5 0 -1.5 
C -0.397805 -1.5 -0.77937 -1.341951 -1.06066 -1.06066 
C -1.341951 -0.77937 -1.5 -0.397805 -1.5 0 
C -1.5 0.397805 -1.341951 0.77937 -1.06066 1.06066 
C -0.77937 1.341951 -0.397805 1.5 0 1.5 
z
" id="me6e501cf36" style="stroke:#9467bd;"/>
    </defs>
    <g clip-path="url(#p11323d8459)">
     <use style="fill:#9467bd;stroke:#9467bd;" x="87.187415" xlink:href="#me6e501cf36" y="82.187179"/>
     <use style="fill:#9467bd;stroke:#9467bd;" x="206.370434" xlink:href="#me6e501cf36" y="131.41009"/>
     <use style="fill:#9467bd;stroke:#9467bd;" x="214.315969" xlink:href="#me6e501cf36" y="151.851917"/>
     <use style="fill:#9467bd;stroke:#9467bd;" x="222.261504" xlink:href="#me6e501cf36" y="160.399657"/>
     <use style="fill:#9467bd;stroke:#9467bd;" x="230.207038" xlink:href="#me6e501cf36" y="197.100133"/>
     <use style="fill:#9467bd;stroke:#9467bd;" x="238.152573" xlink:href="#me6e501cf36" y="211.119088"/>
     <use style="fill:#9467bd;stroke:#9467bd;" x="246.098108" xlink:href="#me6e501cf36" y="236.334874"/>
     <use style="fill:#9467bd;stroke:#9467bd;" x="254.043642" xlink:href="#me6e501cf36" y="245.311156"/>
     <use style="fill:#9467bd;stroke:#9467bd;" x="261.989177" xlink:href="#me6e501cf36" y="232.255395"/>
     <use style="fill:#9467bd;stroke:#9467bd;" x="269.934712" xlink:href="#me6e501cf36" y="224.837686"/>
     <use style="fill:#9467bd;stroke:#9467bd;" x="277.880246" xlink:href="#me6e501cf36" y="163.992997"/>
     <use style="fill:#9467bd;stroke:#9467bd;" x="285.825781" xlink:href="#me6e501cf36" y="158.64536"/>
     <use style="fill:#9467bd;stroke:#9467bd;" x="405.0088" xlink:href="#me6e501cf36" y="104.742261"/>
    </g>
   </g>
   <g id="patch_3">
    <path d="M 70.954688 273.312 
L 70.954688 7.2 
" style="fill:none;stroke:#000000;stroke-linecap:square;stroke-linejoin:miter;stroke-width:0.8;"/>
   </g>
   <g id="patch_4">
    <path d="M 428.074687 273.312 
L 428.074687 7.2 
" style="fill:none;stroke:#000000;stroke-linecap:square;stroke-linejoin:miter;stroke-width:0.8;"/>
   </g>
   <g id="patch_5">
    <path d="M 70.954688 273.312 
L 428.074687 273.312 
" style="fill:none;stroke:#000000;stroke-linecap:square;stroke-linejoin:miter;stroke-width:0.8;"/>
   </g>
   <g id="patch_6">
    <path d="M 70.954688 7.2 
L 428.074687 7.2 
" style="fill:none;stroke:#000000;stroke-linecap:square;stroke-linejoin:miter;stroke-width:0.8;"/>
   </g>
   <g id="legend_1">
    <g id="patch_7">
     <path d="M 317.876163 266.372 
L 418.358688 266.372 
Q 421.134688 266.372 421.134688 263.596 
L 421.134688 163.117812 
Q 421.134688 160.341812 418.358688 160.341812 
L 317.876163 160.341812 
Q 315.100163 160.341812 315.100163 163.117812 
L 315.100163 263.596 
Q 315.100163 266.372 317.876163 266.372 
z
" style="fill:#ffffff;opacity:0.8;stroke:#cccccc;stroke-linejoin:miter;"/>
    </g>
    <g id="LineCollection_6">
     <path d="M 334.532163 178.522444 
L 334.532163 164.642444 
" style="fill:none;stroke:#1f77b4;stroke-width:1.5;"/>
    </g>
    <g id="line2d_37"/>
    <g id="line2d_38">
     <g>
      <use style="fill:#1f77b4;stroke:#1f77b4;" x="334.532163" xlink:href="#mb8bc26594a" y="171.582444"/>
     </g>
    </g>
    <g id="text_16">
     <!-- 0.00 ms -->
     <g transform="translate(359.516163 176.440444)scale(0.1388 -0.1388)">
      <defs>
       <path d="M 52 44.1875 
Q 55.375 50.25 60.0625 53.125 
Q 64.75 56 71.09375 56 
Q 79.640625 56 84.28125 50.015625 
Q 88.921875 44.046875 88.921875 33.015625 
L 88.921875 0 
L 79.890625 0 
L 79.890625 32.71875 
Q 79.890625 40.578125 77.09375 44.375 
Q 74.3125 48.1875 68.609375 48.1875 
Q 61.625 48.1875 57.5625 43.546875 
Q 53.515625 38.921875 53.515625 30.90625 
L 53.515625 0 
L 44.484375 0 
L 44.484375 32.71875 
Q 44.484375 40.625 41.703125 44.40625 
Q 38.921875 48.1875 33.109375 48.1875 
Q 26.21875 48.1875 22.15625 43.53125 
Q 18.109375 38.875 18.109375 30.90625 
L 18.109375 0 
L 9.078125 0 
L 9.078125 54.6875 
L 18.109375 54.6875 
L 18.109375 46.1875 
Q 21.1875 51.21875 25.484375 53.609375 
Q 29.78125 56 35.6875 56 
Q 41.65625 56 45.828125 52.96875 
Q 50 49.953125 52 44.1875 
z
" id="DejaVuSans-109"/>
      </defs>
      <use xlink:href="#DejaVuSans-48"/>
      <use x="63.623047" xlink:href="#DejaVuSans-46"/>
      <use x="95.410156" xlink:href="#DejaVuSans-48"/>
      <use x="159.033203" xlink:href="#DejaVuSans-48"/>
      <use x="222.65625" xlink:href="#DejaVuSans-32"/>
      <use x="254.443359" xlink:href="#DejaVuSans-109"/>
      <use x="351.855469" xlink:href="#DejaVuSans-115"/>
     </g>
    </g>
    <g id="LineCollection_7">
     <path d="M 334.532163 198.895681 
L 334.532163 185.015681 
" style="fill:none;stroke:#ff7f0e;stroke-width:1.5;"/>
    </g>
    <g id="line2d_39"/>
    <g id="line2d_40">
     <g>
      <use style="fill:#ff7f0e;stroke:#ff7f0e;" x="334.532163" xlink:href="#m3e2fb6b177" y="191.955681"/>
     </g>
    </g>
    <g id="text_17">
     <!-- 0.05 ms -->
     <g transform="translate(359.516163 196.813681)scale(0.1388 -0.1388)">
      <use xlink:href="#DejaVuSans-48"/>
      <use x="63.623047" xlink:href="#DejaVuSans-46"/>
      <use x="95.410156" xlink:href="#DejaVuSans-48"/>
      <use x="159.033203" xlink:href="#DejaVuSans-53"/>
      <use x="222.65625" xlink:href="#DejaVuSans-32"/>
      <use x="254.443359" xlink:href="#DejaVuSans-109"/>
      <use x="351.855469" xlink:href="#DejaVuSans-115"/>
     </g>
    </g>
    <g id="LineCollection_8">
     <path d="M 334.532163 219.268919 
L 334.532163 205.388919 
" style="fill:none;stroke:#2ca02c;stroke-width:1.5;"/>
    </g>
    <g id="line2d_41"/>
    <g id="line2d_42">
     <g>
      <use style="fill:#2ca02c;stroke:#2ca02c;" x="334.532163" xlink:href="#m92edfcde95" y="212.328919"/>
     </g>
    </g>
    <g id="text_18">
     <!-- 0.06 ms -->
     <g transform="translate(359.516163 217.186919)scale(0.1388 -0.1388)">
      <use xlink:href="#DejaVuSans-48"/>
      <use x="63.623047" xlink:href="#DejaVuSans-46"/>
      <use x="95.410156" xlink:href="#DejaVuSans-48"/>
      <use x="159.033203" xlink:href="#DejaVuSans-54"/>
      <use x="222.65625" xlink:href="#DejaVuSans-32"/>
      <use x="254.443359" xlink:href="#DejaVuSans-109"/>
      <use x="351.855469" xlink:href="#DejaVuSans-115"/>
     </g>
    </g>
    <g id="LineCollection_9">
     <path d="M 334.532163 239.642156 
L 334.532163 225.762156 
" style="fill:none;stroke:#d62728;stroke-width:1.5;"/>
    </g>
    <g id="line2d_43"/>
    <g id="line2d_44">
     <g>
      <use style="fill:#d62728;stroke:#d62728;" x="334.532163" xlink:href="#m851f591001" y="232.702156"/>
     </g>
    </g>
    <g id="text_19">
     <!-- 0.10 ms -->
     <g transform="translate(359.516163 237.560156)scale(0.1388 -0.1388)">
      <use xlink:href="#DejaVuSans-48"/>
      <use x="63.623047" xlink:href="#DejaVuSans-46"/>
      <use x="95.410156" xlink:href="#DejaVuSans-49"/>
      <use x="159.033203" xlink:href="#DejaVuSans-48"/>
      <use x="222.65625" xlink:href="#DejaVuSans-32"/>
      <use x="254.443359" xlink:href="#DejaVuSans-109"/>
      <use x="351.855469" xlink:href="#DejaVuSans-115"/>
     </g>
    </g>
    <g id="LineCollection_10">
     <path d="M 334.532163 260.015394 
L 334.532163 246.135394 
" style="fill:none;stroke:#9467bd;stroke-width:1.5;"/>
    </g>
    <g id="line2d_45"/>
    <g id="line2d_46">
     <g>
      <use style="fill:#9467bd;stroke:#9467bd;" x="334.532163" xlink:href="#me6e501cf36" y="253.075394"/>
     </g>
    </g>
    <g id="text_20">
     <!-- 0.28 ms -->
     <g transform="translate(359.516163 257.933394)scale(0.1388 -0.1388)">
      <use xlink:href="#DejaVuSans-48"/>
      <use x="63.623047" xlink:href="#DejaVuSans-46"/>
      <use x="95.410156" xlink:href="#DejaVuSans-50"/>
      <use x="159.033203" xlink:href="#DejaVuSans-56"/>
      <use x="222.65625" xlink:href="#DejaVuSans-32"/>
      <use x="254.443359" xlink:href="#DejaVuSans-109"/>
      <use x="351.855469" xlink:href="#DejaVuSans-115"/>
     </g>
    </g>
   </g>
  </g>
 </g>
 <defs>
  <clipPath id="p11323d8459">
   <rect height="266.112" width="357.12" x="70.954688" y="7.2"/>
  </clipPath>
 </defs>
</svg>
