<?xml version="1.0" encoding="utf-8" standalone="no"?>
<!DOCTYPE svg PUBLIC "-//W3C//DTD SVG 1.1//EN"
  "http://www.w3.org/Graphics/SVG/1.1/DTD/svg11.dtd">
<!-- Created with matplotlib (https://matplotlib.org/) -->
<svg height="226.298375pt" version="1.1" viewBox="0 0 247.643237 226.298375" width="247.643237pt" xmlns="http://www.w3.org/2000/svg" xmlns:xlink="http://www.w3.org/1999/xlink">
 <defs>
  <style type="text/css">*{stroke-linecap:butt;stroke-linejoin:round;}</style>
 </defs>
 <g id="figure_1">
  <g id="patch_1">
   <path d="M 0 226.298375 
L 247.643237 226.298375 
L 247.643237 -0 
L 0 -0 
z
" style="fill:none;"/>
  </g>
  <g id="axes_1">
   <g id="patch_2">
    <path d="M 38.054688 179.064 
L 238.934687 179.064 
L 238.934687 7.2 
L 38.054688 7.2 
z
" style="fill:none;"/>
   </g>
   <g id="patch_3">
    <path clip-path="url(#pe54a88358d)" d="M 46.089887 179.064 
L 238.934687 179.064 
L 238.934687 7.2 
L 46.089887 7.2 
z
" style="fill:#ffffff;opacity:0.9;"/>
   </g>
   <g id="matplotlib.axis_1">
    <g id="xtick_1">
     <g id="line2d_1">
      <path clip-path="url(#pe54a88358d)" d="M 70.195487 179.064 
L 70.195487 7.2 
" style="fill:none;stroke:#b0b0b0;stroke-linecap:square;stroke-width:0.8;"/>
     </g>
     <g id="line2d_2">
      <defs>
       <path d="M 0 0 
L 0 3.5 
" id="m005f0a59be" style="stroke:#000000;stroke-width:0.8;"/>
      </defs>
      <g>
       <use style="stroke:#000000;stroke-width:0.8;" x="70.195487" xlink:href="#m005f0a59be" y="179.064"/>
      </g>
     </g>
     <g id="text_1">
      <!-- −10 -->
      <g transform="translate(54.366972 197.461656)scale(0.15 -0.15)">
       <defs>
        <path d="M 10.59375 35.5 
L 73.1875 35.5 
L 73.1875 27.203125 
L 10.59375 27.203125 
z
" id="DejaVuSans-8722"/>
        <path d="M 12.40625 8.296875 
L 28.515625 8.296875 
L 28.515625 63.921875 
L 10.984375 60.40625 
L 10.984375 69.390625 
L 28.421875 72.90625 
L 38.28125 72.90625 
L 38.28125 8.296875 
L 54.390625 8.296875 
L 54.390625 0 
L 12.40625 0 
z
" id="DejaVuSans-49"/>
        <path d="M 31.78125 66.40625 
Q 24.171875 66.40625 20.328125 58.90625 
Q 16.5 51.421875 16.5 36.375 
Q 16.5 21.390625 20.328125 13.890625 
Q 24.171875 6.390625 31.78125 6.390625 
Q 39.453125 6.390625 43.28125 13.890625 
Q 47.125 21.390625 47.125 36.375 
Q 47.125 51.421875 43.28125 58.90625 
Q 39.453125 66.40625 31.78125 66.40625 
z
M 31.78125 74.21875 
Q 44.046875 74.21875 50.515625 64.515625 
Q 56.984375 54.828125 56.984375 36.375 
Q 56.984375 17.96875 50.515625 8.265625 
Q 44.046875 -1.421875 31.78125 -1.421875 
Q 19.53125 -1.421875 13.0625 8.265625 
Q 6.59375 17.96875 6.59375 36.375 
Q 6.59375 54.828125 13.0625 64.515625 
Q 19.53125 74.21875 31.78125 74.21875 
z
" id="DejaVuSans-48"/>
       </defs>
       <use xlink:href="#DejaVuSans-8722"/>
       <use x="83.789062" xlink:href="#DejaVuSans-49"/>
       <use x="147.412109" xlink:href="#DejaVuSans-48"/>
      </g>
     </g>
    </g>
    <g id="xtick_2">
     <g id="line2d_3">
      <path clip-path="url(#pe54a88358d)" d="M 150.547487 179.064 
L 150.547487 7.2 
" style="fill:none;stroke:#b0b0b0;stroke-linecap:square;stroke-width:0.8;"/>
     </g>
     <g id="line2d_4">
      <g>
       <use style="stroke:#000000;stroke-width:0.8;" x="150.547487" xlink:href="#m005f0a59be" y="179.064"/>
      </g>
     </g>
     <g id="text_2">
      <!-- 0 -->
      <g transform="translate(145.775612 197.461656)scale(0.15 -0.15)">
       <use xlink:href="#DejaVuSans-48"/>
      </g>
     </g>
    </g>
    <g id="xtick_3">
     <g id="line2d_5">
      <path clip-path="url(#pe54a88358d)" d="M 230.899487 179.064 
L 230.899487 7.2 
" style="fill:none;stroke:#b0b0b0;stroke-linecap:square;stroke-width:0.8;"/>
     </g>
     <g id="line2d_6">
      <g>
       <use style="stroke:#000000;stroke-width:0.8;" x="230.899487" xlink:href="#m005f0a59be" y="179.064"/>
      </g>
     </g>
     <g id="text_3">
      <!-- 10 -->
      <g transform="translate(221.355738 197.461656)scale(0.15 -0.15)">
       <use xlink:href="#DejaVuSans-49"/>
       <use x="63.623047" xlink:href="#DejaVuSans-48"/>
      </g>
     </g>
    </g>
    <g id="text_4">
     <!-- Raman Detuning (kHz) -->
     <g transform="translate(53.227891 215.978844)scale(0.15 -0.15)">
      <defs>
       <path d="M 44.390625 34.1875 
Q 47.5625 33.109375 50.5625 29.59375 
Q 53.5625 26.078125 56.59375 19.921875 
L 66.609375 0 
L 56 0 
L 46.6875 18.703125 
Q 43.0625 26.03125 39.671875 28.421875 
Q 36.28125 30.8125 30.421875 30.8125 
L 19.671875 30.8125 
L 19.671875 0 
L 9.8125 0 
L 9.8125 72.90625 
L 32.078125 72.90625 
Q 44.578125 72.90625 50.734375 67.671875 
Q 56.890625 62.453125 56.890625 51.90625 
Q 56.890625 45.015625 53.6875 40.46875 
Q 50.484375 35.9375 44.390625 34.1875 
z
M 19.671875 64.796875 
L 19.671875 38.921875 
L 32.078125 38.921875 
Q 39.203125 38.921875 42.84375 42.21875 
Q 46.484375 45.515625 46.484375 51.90625 
Q 46.484375 58.296875 42.84375 61.546875 
Q 39.203125 64.796875 32.078125 64.796875 
z
" id="DejaVuSans-82"/>
       <path d="M 34.28125 27.484375 
Q 23.390625 27.484375 19.1875 25 
Q 14.984375 22.515625 14.984375 16.5 
Q 14.984375 11.71875 18.140625 8.90625 
Q 21.296875 6.109375 26.703125 6.109375 
Q 34.1875 6.109375 38.703125 11.40625 
Q 43.21875 16.703125 43.21875 25.484375 
L 43.21875 27.484375 
z
M 52.203125 31.203125 
L 52.203125 0 
L 43.21875 0 
L 43.21875 8.296875 
Q 40.140625 3.328125 35.546875 0.953125 
Q 30.953125 -1.421875 24.3125 -1.421875 
Q 15.921875 -1.421875 10.953125 3.296875 
Q 6 8.015625 6 15.921875 
Q 6 25.140625 12.171875 29.828125 
Q 18.359375 34.515625 30.609375 34.515625 
L 43.21875 34.515625 
L 43.21875 35.40625 
Q 43.21875 41.609375 39.140625 45 
Q 35.0625 48.390625 27.6875 48.390625 
Q 23 48.390625 18.546875 47.265625 
Q 14.109375 46.140625 10.015625 43.890625 
L 10.015625 52.203125 
Q 14.9375 54.109375 19.578125 55.046875 
Q 24.21875 56 28.609375 56 
Q 40.484375 56 46.34375 49.84375 
Q 52.203125 43.703125 52.203125 31.203125 
z
" id="DejaVuSans-97"/>
       <path d="M 52 44.1875 
Q 55.375 50.25 60.0625 53.125 
Q 64.75 56 71.09375 56 
Q 79.640625 56 84.28125 50.015625 
Q 88.921875 44.046875 88.921875 33.015625 
L 88.921875 0 
L 79.890625 0 
L 79.890625 32.71875 
Q 79.890625 40.578125 77.09375 44.375 
Q 74.3125 48.1875 68.609375 48.1875 
Q 61.625 48.1875 57.5625 43.546875 
Q 53.515625 38.921875 53.515625 30.90625 
L 53.515625 0 
L 44.484375 0 
L 44.484375 32.71875 
Q 44.484375 40.625 41.703125 44.40625 
Q 38.921875 48.1875 33.109375 48.1875 
Q 26.21875 48.1875 22.15625 43.53125 
Q 18.109375 38.875 18.109375 30.90625 
L 18.109375 0 
L 9.078125 0 
L 9.078125 54.6875 
L 18.109375 54.6875 
L 18.109375 46.1875 
Q 21.1875 51.21875 25.484375 53.609375 
Q 29.78125 56 35.6875 56 
Q 41.65625 56 45.828125 52.96875 
Q 50 49.953125 52 44.1875 
z
" id="DejaVuSans-109"/>
       <path d="M 54.890625 33.015625 
L 54.890625 0 
L 45.90625 0 
L 45.90625 32.71875 
Q 45.90625 40.484375 42.875 44.328125 
Q 39.84375 48.1875 33.796875 48.1875 
Q 26.515625 48.1875 22.3125 43.546875 
Q 18.109375 38.921875 18.109375 30.90625 
L 18.109375 0 
L 9.078125 0 
L 9.078125 54.6875 
L 18.109375 54.6875 
L 18.109375 46.1875 
Q 21.34375 51.125 25.703125 53.5625 
Q 30.078125 56 35.796875 56 
Q 45.21875 56 50.046875 50.171875 
Q 54.890625 44.34375 54.890625 33.015625 
z
" id="DejaVuSans-110"/>
       <path id="DejaVuSans-32"/>
       <path d="M 19.671875 64.796875 
L 19.671875 8.109375 
L 31.59375 8.109375 
Q 46.6875 8.109375 53.6875 14.9375 
Q 60.6875 21.78125 60.6875 36.53125 
Q 60.6875 51.171875 53.6875 57.984375 
Q 46.6875 64.796875 31.59375 64.796875 
z
M 9.8125 72.90625 
L 30.078125 72.90625 
Q 51.265625 72.90625 61.171875 64.09375 
Q 71.09375 55.28125 71.09375 36.53125 
Q 71.09375 17.671875 61.125 8.828125 
Q 51.171875 0 30.078125 0 
L 9.8125 0 
z
" id="DejaVuSans-68"/>
       <path d="M 56.203125 29.59375 
L 56.203125 25.203125 
L 14.890625 25.203125 
Q 15.484375 15.921875 20.484375 11.0625 
Q 25.484375 6.203125 34.421875 6.203125 
Q 39.59375 6.203125 44.453125 7.46875 
Q 49.3125 8.734375 54.109375 11.28125 
L 54.109375 2.78125 
Q 49.265625 0.734375 44.1875 -0.34375 
Q 39.109375 -1.421875 33.890625 -1.421875 
Q 20.796875 -1.421875 13.15625 6.1875 
Q 5.515625 13.8125 5.515625 26.8125 
Q 5.515625 40.234375 12.765625 48.109375 
Q 20.015625 56 32.328125 56 
Q 43.359375 56 49.78125 48.890625 
Q 56.203125 41.796875 56.203125 29.59375 
z
M 47.21875 32.234375 
Q 47.125 39.59375 43.09375 43.984375 
Q 39.0625 48.390625 32.421875 48.390625 
Q 24.90625 48.390625 20.390625 44.140625 
Q 15.875 39.890625 15.1875 32.171875 
z
" id="DejaVuSans-101"/>
       <path d="M 18.3125 70.21875 
L 18.3125 54.6875 
L 36.8125 54.6875 
L 36.8125 47.703125 
L 18.3125 47.703125 
L 18.3125 18.015625 
Q 18.3125 11.328125 20.140625 9.421875 
Q 21.96875 7.515625 27.59375 7.515625 
L 36.8125 7.515625 
L 36.8125 0 
L 27.59375 0 
Q 17.1875 0 13.234375 3.875 
Q 9.28125 7.765625 9.28125 18.015625 
L 9.28125 47.703125 
L 2.6875 47.703125 
L 2.6875 54.6875 
L 9.28125 54.6875 
L 9.28125 70.21875 
z
" id="DejaVuSans-116"/>
       <path d="M 8.5 21.578125 
L 8.5 54.6875 
L 17.484375 54.6875 
L 17.484375 21.921875 
Q 17.484375 14.15625 20.5 10.265625 
Q 23.53125 6.390625 29.59375 6.390625 
Q 36.859375 6.390625 41.078125 11.03125 
Q 45.3125 15.671875 45.3125 23.6875 
L 45.3125 54.6875 
L 54.296875 54.6875 
L 54.296875 0 
L 45.3125 0 
L 45.3125 8.40625 
Q 42.046875 3.421875 37.71875 1 
Q 33.40625 -1.421875 27.6875 -1.421875 
Q 18.265625 -1.421875 13.375 4.4375 
Q 8.5 10.296875 8.5 21.578125 
z
M 31.109375 56 
z
" id="DejaVuSans-117"/>
       <path d="M 9.421875 54.6875 
L 18.40625 54.6875 
L 18.40625 0 
L 9.421875 0 
z
M 9.421875 75.984375 
L 18.40625 75.984375 
L 18.40625 64.59375 
L 9.421875 64.59375 
z
" id="DejaVuSans-105"/>
       <path d="M 45.40625 27.984375 
Q 45.40625 37.75 41.375 43.109375 
Q 37.359375 48.484375 30.078125 48.484375 
Q 22.859375 48.484375 18.828125 43.109375 
Q 14.796875 37.75 14.796875 27.984375 
Q 14.796875 18.265625 18.828125 12.890625 
Q 22.859375 7.515625 30.078125 7.515625 
Q 37.359375 7.515625 41.375 12.890625 
Q 45.40625 18.265625 45.40625 27.984375 
z
M 54.390625 6.78125 
Q 54.390625 -7.171875 48.1875 -13.984375 
Q 42 -20.796875 29.203125 -20.796875 
Q 24.46875 -20.796875 20.265625 -20.09375 
Q 16.0625 -19.390625 12.109375 -17.921875 
L 12.109375 -9.1875 
Q 16.0625 -11.328125 19.921875 -12.34375 
Q 23.78125 -13.375 27.78125 -13.375 
Q 36.625 -13.375 41.015625 -8.765625 
Q 45.40625 -4.15625 45.40625 5.171875 
L 45.40625 9.625 
Q 42.625 4.78125 38.28125 2.390625 
Q 33.9375 0 27.875 0 
Q 17.828125 0 11.671875 7.65625 
Q 5.515625 15.328125 5.515625 27.984375 
Q 5.515625 40.671875 11.671875 48.328125 
Q 17.828125 56 27.875 56 
Q 33.9375 56 38.28125 53.609375 
Q 42.625 51.21875 45.40625 46.390625 
L 45.40625 54.6875 
L 54.390625 54.6875 
z
" id="DejaVuSans-103"/>
       <path d="M 31 75.875 
Q 24.46875 64.65625 21.28125 53.65625 
Q 18.109375 42.671875 18.109375 31.390625 
Q 18.109375 20.125 21.3125 9.0625 
Q 24.515625 -2 31 -13.1875 
L 23.1875 -13.1875 
Q 15.875 -1.703125 12.234375 9.375 
Q 8.59375 20.453125 8.59375 31.390625 
Q 8.59375 42.28125 12.203125 53.3125 
Q 15.828125 64.359375 23.1875 75.875 
z
" id="DejaVuSans-40"/>
       <path d="M 9.078125 75.984375 
L 18.109375 75.984375 
L 18.109375 31.109375 
L 44.921875 54.6875 
L 56.390625 54.6875 
L 27.390625 29.109375 
L 57.625 0 
L 45.90625 0 
L 18.109375 26.703125 
L 18.109375 0 
L 9.078125 0 
z
" id="DejaVuSans-107"/>
       <path d="M 9.8125 72.90625 
L 19.671875 72.90625 
L 19.671875 43.015625 
L 55.515625 43.015625 
L 55.515625 72.90625 
L 65.375 72.90625 
L 65.375 0 
L 55.515625 0 
L 55.515625 34.71875 
L 19.671875 34.71875 
L 19.671875 0 
L 9.8125 0 
z
" id="DejaVuSans-72"/>
       <path d="M 5.515625 54.6875 
L 48.1875 54.6875 
L 48.1875 46.484375 
L 14.40625 7.171875 
L 48.1875 7.171875 
L 48.1875 0 
L 4.296875 0 
L 4.296875 8.203125 
L 38.09375 47.515625 
L 5.515625 47.515625 
z
" id="DejaVuSans-122"/>
       <path d="M 8.015625 75.875 
L 15.828125 75.875 
Q 23.140625 64.359375 26.78125 53.3125 
Q 30.421875 42.28125 30.421875 31.390625 
Q 30.421875 20.453125 26.78125 9.375 
Q 23.140625 -1.703125 15.828125 -13.1875 
L 8.015625 -13.1875 
Q 14.5 -2 17.703125 9.0625 
Q 20.90625 20.125 20.90625 31.390625 
Q 20.90625 42.671875 17.703125 53.65625 
Q 14.5 64.65625 8.015625 75.875 
z
" id="DejaVuSans-41"/>
      </defs>
      <use xlink:href="#DejaVuSans-82"/>
      <use x="67.232422" xlink:href="#DejaVuSans-97"/>
      <use x="128.511719" xlink:href="#DejaVuSans-109"/>
      <use x="225.923828" xlink:href="#DejaVuSans-97"/>
      <use x="287.203125" xlink:href="#DejaVuSans-110"/>
      <use x="350.582031" xlink:href="#DejaVuSans-32"/>
      <use x="382.369141" xlink:href="#DejaVuSans-68"/>
      <use x="459.371094" xlink:href="#DejaVuSans-101"/>
      <use x="520.894531" xlink:href="#DejaVuSans-116"/>
      <use x="560.103516" xlink:href="#DejaVuSans-117"/>
      <use x="623.482422" xlink:href="#DejaVuSans-110"/>
      <use x="686.861328" xlink:href="#DejaVuSans-105"/>
      <use x="714.644531" xlink:href="#DejaVuSans-110"/>
      <use x="778.023438" xlink:href="#DejaVuSans-103"/>
      <use x="841.5" xlink:href="#DejaVuSans-32"/>
      <use x="873.287109" xlink:href="#DejaVuSans-40"/>
      <use x="912.300781" xlink:href="#DejaVuSans-107"/>
      <use x="970.210938" xlink:href="#DejaVuSans-72"/>
      <use x="1045.40625" xlink:href="#DejaVuSans-122"/>
      <use x="1097.896484" xlink:href="#DejaVuSans-41"/>
     </g>
    </g>
   </g>
   <g id="matplotlib.axis_2">
    <g id="ytick_1">
     <g id="line2d_7">
      <path clip-path="url(#pe54a88358d)" d="M 38.054688 158.019429 
L 238.934687 158.019429 
" style="fill:none;stroke:#b0b0b0;stroke-linecap:square;stroke-width:0.8;"/>
     </g>
     <g id="line2d_8">
      <defs>
       <path d="M 0 0 
L -3.5 0 
" id="mc3ce260a5b" style="stroke:#000000;stroke-width:0.8;"/>
      </defs>
      <g>
       <use style="stroke:#000000;stroke-width:0.8;" x="38.054688" xlink:href="#mc3ce260a5b" y="158.019429"/>
      </g>
     </g>
     <g id="text_5">
      <!-- 0.2 -->
      <g transform="translate(7.2 163.718257)scale(0.15 -0.15)">
       <defs>
        <path d="M 10.6875 12.40625 
L 21 12.40625 
L 21 0 
L 10.6875 0 
z
" id="DejaVuSans-46"/>
        <path d="M 19.1875 8.296875 
L 53.609375 8.296875 
L 53.609375 0 
L 7.328125 0 
L 7.328125 8.296875 
Q 12.9375 14.109375 22.625 23.890625 
Q 32.328125 33.6875 34.8125 36.53125 
Q 39.546875 41.84375 41.421875 45.53125 
Q 43.3125 49.21875 43.3125 52.78125 
Q 43.3125 58.59375 39.234375 62.25 
Q 35.15625 65.921875 28.609375 65.921875 
Q 23.96875 65.921875 18.8125 64.3125 
Q 13.671875 62.703125 7.8125 59.421875 
L 7.8125 69.390625 
Q 13.765625 71.78125 18.9375 73 
Q 24.125 74.21875 28.421875 74.21875 
Q 39.75 74.21875 46.484375 68.546875 
Q 53.21875 62.890625 53.21875 53.421875 
Q 53.21875 48.921875 51.53125 44.890625 
Q 49.859375 40.875 45.40625 35.40625 
Q 44.1875 33.984375 37.640625 27.21875 
Q 31.109375 20.453125 19.1875 8.296875 
z
" id="DejaVuSans-50"/>
       </defs>
       <use xlink:href="#DejaVuSans-48"/>
       <use x="63.623047" xlink:href="#DejaVuSans-46"/>
       <use x="95.410156" xlink:href="#DejaVuSans-50"/>
      </g>
     </g>
    </g>
    <g id="ytick_2">
     <g id="line2d_9">
      <path clip-path="url(#pe54a88358d)" d="M 38.054688 87.870857 
L 238.934687 87.870857 
" style="fill:none;stroke:#b0b0b0;stroke-linecap:square;stroke-width:0.8;"/>
     </g>
     <g id="line2d_10">
      <g>
       <use style="stroke:#000000;stroke-width:0.8;" x="38.054688" xlink:href="#mc3ce260a5b" y="87.870857"/>
      </g>
     </g>
     <g id="text_6">
      <!-- 0.6 -->
      <g transform="translate(7.2 93.569685)scale(0.15 -0.15)">
       <defs>
        <path d="M 33.015625 40.375 
Q 26.375 40.375 22.484375 35.828125 
Q 18.609375 31.296875 18.609375 23.390625 
Q 18.609375 15.53125 22.484375 10.953125 
Q 26.375 6.390625 33.015625 6.390625 
Q 39.65625 6.390625 43.53125 10.953125 
Q 47.40625 15.53125 47.40625 23.390625 
Q 47.40625 31.296875 43.53125 35.828125 
Q 39.65625 40.375 33.015625 40.375 
z
M 52.59375 71.296875 
L 52.59375 62.3125 
Q 48.875 64.0625 45.09375 64.984375 
Q 41.3125 65.921875 37.59375 65.921875 
Q 27.828125 65.921875 22.671875 59.328125 
Q 17.53125 52.734375 16.796875 39.40625 
Q 19.671875 43.65625 24.015625 45.921875 
Q 28.375 48.1875 33.59375 48.1875 
Q 44.578125 48.1875 50.953125 41.515625 
Q 57.328125 34.859375 57.328125 23.390625 
Q 57.328125 12.15625 50.6875 5.359375 
Q 44.046875 -1.421875 33.015625 -1.421875 
Q 20.359375 -1.421875 13.671875 8.265625 
Q 6.984375 17.96875 6.984375 36.375 
Q 6.984375 53.65625 15.1875 63.9375 
Q 23.390625 74.21875 37.203125 74.21875 
Q 40.921875 74.21875 44.703125 73.484375 
Q 48.484375 72.75 52.59375 71.296875 
z
" id="DejaVuSans-54"/>
       </defs>
       <use xlink:href="#DejaVuSans-48"/>
       <use x="63.623047" xlink:href="#DejaVuSans-46"/>
       <use x="95.410156" xlink:href="#DejaVuSans-54"/>
      </g>
     </g>
    </g>
    <g id="ytick_3">
     <g id="line2d_11">
      <path clip-path="url(#pe54a88358d)" d="M 38.054688 17.722286 
L 238.934687 17.722286 
" style="fill:none;stroke:#b0b0b0;stroke-linecap:square;stroke-width:0.8;"/>
     </g>
     <g id="line2d_12">
      <g>
       <use style="stroke:#000000;stroke-width:0.8;" x="38.054688" xlink:href="#mc3ce260a5b" y="17.722286"/>
      </g>
     </g>
     <g id="text_7">
      <!-- 1.0 -->
      <g transform="translate(7.2 23.421114)scale(0.15 -0.15)">
       <use xlink:href="#DejaVuSans-49"/>
       <use x="63.623047" xlink:href="#DejaVuSans-46"/>
       <use x="95.410156" xlink:href="#DejaVuSans-48"/>
      </g>
     </g>
    </g>
   </g>
   <g id="LineCollection_1">
    <path clip-path="url(#pe54a88358d)" d="M 77.394936 52.243296 
L 77.394936 31.087138 
" style="fill:none;stroke:#ff7f0e;stroke-width:1.5;"/>
    <path clip-path="url(#pe54a88358d)" d="M 90.251256 38.828858 
L 90.251256 17.024288 
" style="fill:none;stroke:#ff7f0e;stroke-width:1.5;"/>
    <path clip-path="url(#pe54a88358d)" d="M 103.107576 48.337673 
L 103.107576 26.853411 
" style="fill:none;stroke:#ff7f0e;stroke-width:1.5;"/>
    <path clip-path="url(#pe54a88358d)" d="M 115.963896 61.053062 
L 115.963896 40.925483 
" style="fill:none;stroke:#ff7f0e;stroke-width:1.5;"/>
    <path clip-path="url(#pe54a88358d)" d="M 128.820216 129.805244 
L 128.820216 113.650498 
" style="fill:none;stroke:#ff7f0e;stroke-width:1.5;"/>
    <path clip-path="url(#pe54a88358d)" d="M 141.676536 165.942878 
L 141.676536 154.824607 
" style="fill:none;stroke:#ff7f0e;stroke-width:1.5;"/>
    <path clip-path="url(#pe54a88358d)" d="M 154.532856 174.585537 
L 154.532856 165.494811 
" style="fill:none;stroke:#ff7f0e;stroke-width:1.5;"/>
    <path clip-path="url(#pe54a88358d)" d="M 167.389176 147.286505 
L 167.389176 133.262604 
" style="fill:none;stroke:#ff7f0e;stroke-width:1.5;"/>
    <path clip-path="url(#pe54a88358d)" d="M 180.245496 99.994003 
L 180.245496 82.612776 
" style="fill:none;stroke:#ff7f0e;stroke-width:1.5;"/>
    <path clip-path="url(#pe54a88358d)" d="M 193.101816 73.317328 
L 193.101816 53.868403 
" style="fill:none;stroke:#ff7f0e;stroke-width:1.5;"/>
    <path clip-path="url(#pe54a88358d)" d="M 205.958136 50.310109 
L 205.958136 28.535365 
" style="fill:none;stroke:#ff7f0e;stroke-width:1.5;"/>
   </g>
   <g id="LineCollection_2">
    <path clip-path="url(#pe54a88358d)" d="M 53.289336 30.874685 
L 53.289336 9.509635 
" style="fill:none;stroke:#2ca02c;stroke-width:1.5;"/>
    <path clip-path="url(#pe54a88358d)" d="M 70.966776 54.237946 
L 70.966776 33.030666 
" style="fill:none;stroke:#2ca02c;stroke-width:1.5;"/>
    <path clip-path="url(#pe54a88358d)" d="M 88.644216 61.338245 
L 88.644216 40.503576 
" style="fill:none;stroke:#2ca02c;stroke-width:1.5;"/>
    <path clip-path="url(#pe54a88358d)" d="M 106.321656 81.362314 
L 106.321656 61.163138 
" style="fill:none;stroke:#2ca02c;stroke-width:1.5;"/>
    <path clip-path="url(#pe54a88358d)" d="M 123.999096 97.421687 
L 123.999096 78.896741 
" style="fill:none;stroke:#2ca02c;stroke-width:1.5;"/>
    <path clip-path="url(#pe54a88358d)" d="M 141.676536 120.242239 
L 141.676536 103.546419 
" style="fill:none;stroke:#2ca02c;stroke-width:1.5;"/>
    <path clip-path="url(#pe54a88358d)" d="M 159.353976 112.080666 
L 159.353976 95.128796 
" style="fill:none;stroke:#2ca02c;stroke-width:1.5;"/>
    <path clip-path="url(#pe54a88358d)" d="M 177.031416 86.781099 
L 177.031416 67.610569 
" style="fill:none;stroke:#2ca02c;stroke-width:1.5;"/>
    <path clip-path="url(#pe54a88358d)" d="M 194.708856 77.602708 
L 194.708856 57.8959 
" style="fill:none;stroke:#2ca02c;stroke-width:1.5;"/>
    <path clip-path="url(#pe54a88358d)" d="M 212.386296 35.833195 
L 212.386296 14.237486 
" style="fill:none;stroke:#2ca02c;stroke-width:1.5;"/>
    <path clip-path="url(#pe54a88358d)" d="M 230.063736 53.540838 
L 230.063736 32.169663 
" style="fill:none;stroke:#2ca02c;stroke-width:1.5;"/>
   </g>
   <g id="line2d_13">
    <path clip-path="url(#pe54a88358d)" d="M 45.254136 31.064479 
L 49.114893 32.454838 
L 52.203498 33.342327 
L 54.906028 33.899629 
L 57.41552 34.203751 
L 59.925012 34.285722 
L 62.434504 34.140724 
L 64.943996 33.776585 
L 67.646525 33.164255 
L 70.928169 32.178981 
L 81.352212 28.820409 
L 83.668666 28.434933 
L 85.599044 28.333491 
L 87.336385 28.452412 
L 89.073725 28.803453 
L 90.618028 29.335029 
L 92.162331 30.09428 
L 93.706633 31.099863 
L 95.250936 32.368607 
L 96.795239 33.915207 
L 98.339542 35.751936 
L 100.076882 38.176874 
L 101.814223 40.990258 
L 103.744601 44.576697 
L 105.674979 48.645623 
L 107.798396 53.66582 
L 110.11485 59.762191 
L 112.624342 67.037483 
L 115.519909 76.184108 
L 118.99459 87.984565 
L 124.592687 107.972166 
L 129.611671 125.602791 
L 132.700277 135.676138 
L 135.209769 143.150019 
L 137.333185 148.844971 
L 139.263563 153.440394 
L 141.000904 157.049987 
L 142.545206 159.806761 
L 144.089509 162.113405 
L 145.440774 163.746608 
L 146.792039 165.00885 
L 147.950266 165.789035 
L 149.108493 166.28657 
L 150.073682 166.483453 
L 151.038871 166.481643 
L 152.00406 166.281145 
L 152.96925 165.882649 
L 154.127477 165.145069 
L 155.285704 164.128017 
L 156.443931 162.836505 
L 157.795196 160.991399 
L 159.339498 158.451817 
L 160.883801 155.473839 
L 162.621142 151.631697 
L 164.55152 146.800899 
L 166.674936 140.878268 
L 169.184428 133.181561 
L 172.273033 122.907825 
L 176.519866 107.909027 
L 183.855304 81.931342 
L 187.136947 71.15911 
L 189.839477 62.987122 
L 192.348969 56.083931 
L 194.665423 50.365296 
L 196.788839 45.710866 
L 198.719217 41.983489 
L 200.649596 38.740928 
L 202.386936 36.234203 
L 204.124277 34.109078 
L 205.861617 32.352627 
L 207.40592 31.086966 
L 208.950223 30.084285 
L 210.494525 29.327735 
L 212.038828 28.798636 
L 213.776169 28.450099 
L 215.513509 28.333366 
L 217.443887 28.436856 
L 219.567304 28.782725 
L 222.076796 29.426125 
L 225.551477 30.56853 
L 232.500839 32.90308 
L 235.589444 33.666999 
L 238.098936 34.077734 
L 238.098936 34.077734 
" style="fill:none;stroke:#ff7f0e;stroke-linecap:square;stroke-width:1.5;"/>
   </g>
   <g id="line2d_14">
    <path clip-path="url(#pe54a88358d)" d="M 45.254136 35.597813 
L 47.184514 35.079058 
L 49.887044 34.07058 
L 53.168687 32.87076 
L 54.906028 32.468437 
L 56.450331 32.345353 
L 57.801596 32.459299 
L 59.15286 32.801926 
L 60.504125 33.380413 
L 61.85539 34.187658 
L 63.399693 35.362015 
L 65.330071 37.125549 
L 71.893358 43.426078 
L 73.43766 44.445378 
L 74.788925 45.062179 
L 75.947152 45.363998 
L 77.105379 45.448807 
L 78.263606 45.320178 
L 79.614871 44.919974 
L 81.159174 44.18432 
L 83.089552 42.982417 
L 86.564233 40.75565 
L 87.915498 40.146838 
L 89.073725 39.85011 
L 90.038914 39.802427 
L 91.004104 39.964914 
L 91.969293 40.359751 
L 92.934482 41.003755 
L 93.899671 41.907718 
L 95.057898 43.341125 
L 96.216125 45.148892 
L 97.56739 47.703265 
L 99.111693 51.138301 
L 101.042071 56.020697 
L 107.41232 72.673224 
L 108.956623 75.821872 
L 110.11485 77.751619 
L 111.273077 79.264343 
L 112.238266 80.187913 
L 113.203455 80.799227 
L 113.975606 81.06572 
L 114.747758 81.140755 
L 115.712947 80.980529 
L 116.678136 80.563513 
L 117.836363 79.773898 
L 119.187628 78.549215 
L 121.890158 75.675525 
L 123.627498 74.014309 
L 124.785725 73.196295 
L 125.750914 72.774594 
L 126.523066 72.644385 
L 127.295217 72.723585 
L 128.067369 73.032306 
L 128.83952 73.5872 
L 129.611671 74.401108 
L 130.57686 75.795629 
L 131.54205 77.61568 
L 132.700277 80.355666 
L 133.858504 83.675324 
L 135.209769 88.212659 
L 136.947109 94.911977 
L 139.456601 105.653299 
L 142.931282 120.439497 
L 144.668623 126.792047 
L 146.019887 130.886899 
L 147.178114 133.669957 
L 148.143304 135.412978 
L 148.915455 136.403705 
L 149.687606 137.02112 
L 150.26672 137.2341 
L 150.845833 137.230814 
L 151.424947 137.011286 
L 152.00406 136.577152 
L 152.776212 135.670281 
L 153.548363 134.399774 
L 154.513552 132.32618 
L 155.671779 129.183233 
L 157.023044 124.731937 
L 158.567347 118.826789 
L 160.883801 108.968911 
L 164.744558 92.517928 
L 166.481898 86.126919 
L 167.833163 81.895301 
L 168.99139 78.869425 
L 170.149617 76.440231 
L 171.114806 74.883539 
L 172.079996 73.749026 
L 172.852147 73.136259 
L 173.624298 72.77293 
L 174.39645 72.643222 
L 175.168601 72.727777 
L 176.13379 73.100224 
L 177.098979 73.722316 
L 178.450244 74.907416 
L 180.57366 77.150147 
L 182.697077 79.29785 
L 184.048342 80.343643 
L 185.013531 80.849892 
L 185.97872 81.111782 
L 186.750871 81.124897 
L 187.523023 80.950763 
L 188.295174 80.581515 
L 189.260363 79.83956 
L 190.225552 78.786401 
L 191.383779 77.124653 
L 192.542006 75.058449 
L 193.893271 72.199143 
L 195.630612 67.963748 
L 198.333142 60.683411 
L 201.421747 52.501857 
L 203.159087 48.476561 
L 204.70339 45.454326 
L 206.054655 43.31654 
L 207.212882 41.888895 
L 208.371109 40.841328 
L 209.336298 40.252833 
L 210.301487 39.910329 
L 211.266677 39.795766 
L 212.231866 39.885899 
L 213.390093 40.225116 
L 214.741358 40.870484 
L 216.671736 42.079884 
L 220.146417 44.299315 
L 221.69072 44.998731 
L 223.041985 45.358945 
L 224.200212 45.449509 
L 225.358439 45.325193 
L 226.516666 44.984348 
L 227.867931 44.325033 
L 229.219196 43.412761 
L 230.956536 41.940919 
L 233.466028 39.456124 
L 236.940709 36.018597 
L 238.098936 35.031617 
L 238.098936 35.031617 
" style="fill:none;stroke:#2ca02c;stroke-linecap:square;stroke-width:1.5;"/>
   </g>
   <g id="line2d_15">
    <defs>
     <path d="M 0 3 
C 0.795609 3 1.55874 2.683901 2.12132 2.12132 
C 2.683901 1.55874 3 0.795609 3 0 
C 3 -0.795609 2.683901 -1.55874 2.12132 -2.12132 
C 1.55874 -2.683901 0.795609 -3 0 -3 
C -0.795609 -3 -1.55874 -2.683901 -2.12132 -2.12132 
C -2.683901 -1.55874 -3 -0.795609 -3 0 
C -3 0.795609 -2.683901 1.55874 -2.12132 2.12132 
C -1.55874 2.683901 -0.795609 3 0 3 
z
" id="mbbb2a9d153" style="stroke:#ff7f0e;"/>
    </defs>
    <g clip-path="url(#pe54a88358d)">
     <use style="fill:#ff7f0e;stroke:#ff7f0e;" x="77.394936" xlink:href="#mbbb2a9d153" y="41.665217"/>
     <use style="fill:#ff7f0e;stroke:#ff7f0e;" x="90.251256" xlink:href="#mbbb2a9d153" y="27.926573"/>
     <use style="fill:#ff7f0e;stroke:#ff7f0e;" x="103.107576" xlink:href="#mbbb2a9d153" y="37.595542"/>
     <use style="fill:#ff7f0e;stroke:#ff7f0e;" x="115.963896" xlink:href="#mbbb2a9d153" y="50.989272"/>
     <use style="fill:#ff7f0e;stroke:#ff7f0e;" x="128.820216" xlink:href="#mbbb2a9d153" y="121.727871"/>
     <use style="fill:#ff7f0e;stroke:#ff7f0e;" x="141.676536" xlink:href="#mbbb2a9d153" y="160.383743"/>
     <use style="fill:#ff7f0e;stroke:#ff7f0e;" x="154.532856" xlink:href="#mbbb2a9d153" y="170.040174"/>
     <use style="fill:#ff7f0e;stroke:#ff7f0e;" x="167.389176" xlink:href="#mbbb2a9d153" y="140.274554"/>
     <use style="fill:#ff7f0e;stroke:#ff7f0e;" x="180.245496" xlink:href="#mbbb2a9d153" y="91.303389"/>
     <use style="fill:#ff7f0e;stroke:#ff7f0e;" x="193.101816" xlink:href="#mbbb2a9d153" y="63.592866"/>
     <use style="fill:#ff7f0e;stroke:#ff7f0e;" x="205.958136" xlink:href="#mbbb2a9d153" y="39.422737"/>
    </g>
   </g>
   <g id="line2d_16">
    <defs>
     <path d="M 0 3 
C 0.795609 3 1.55874 2.683901 2.12132 2.12132 
C 2.683901 1.55874 3 0.795609 3 0 
C 3 -0.795609 2.683901 -1.55874 2.12132 -2.12132 
C 1.55874 -2.683901 0.795609 -3 0 -3 
C -0.795609 -3 -1.55874 -2.683901 -2.12132 -2.12132 
C -2.683901 -1.55874 -3 -0.795609 -3 0 
C -3 0.795609 -2.683901 1.55874 -2.12132 2.12132 
C -1.55874 2.683901 -0.795609 3 0 3 
z
" id="mbab2358add" style="stroke:#2ca02c;"/>
    </defs>
    <g clip-path="url(#pe54a88358d)">
     <use style="fill:#2ca02c;stroke:#2ca02c;" x="53.289336" xlink:href="#mbab2358add" y="20.19216"/>
     <use style="fill:#2ca02c;stroke:#2ca02c;" x="70.966776" xlink:href="#mbab2358add" y="43.634306"/>
     <use style="fill:#2ca02c;stroke:#2ca02c;" x="88.644216" xlink:href="#mbab2358add" y="50.920911"/>
     <use style="fill:#2ca02c;stroke:#2ca02c;" x="106.321656" xlink:href="#mbab2358add" y="71.262726"/>
     <use style="fill:#2ca02c;stroke:#2ca02c;" x="123.999096" xlink:href="#mbab2358add" y="88.159214"/>
     <use style="fill:#2ca02c;stroke:#2ca02c;" x="141.676536" xlink:href="#mbab2358add" y="111.894329"/>
     <use style="fill:#2ca02c;stroke:#2ca02c;" x="159.353976" xlink:href="#mbab2358add" y="103.604731"/>
     <use style="fill:#2ca02c;stroke:#2ca02c;" x="177.031416" xlink:href="#mbab2358add" y="77.195834"/>
     <use style="fill:#2ca02c;stroke:#2ca02c;" x="194.708856" xlink:href="#mbab2358add" y="67.749304"/>
     <use style="fill:#2ca02c;stroke:#2ca02c;" x="212.386296" xlink:href="#mbab2358add" y="25.035341"/>
     <use style="fill:#2ca02c;stroke:#2ca02c;" x="230.063736" xlink:href="#mbab2358add" y="42.85525"/>
    </g>
   </g>
   <g id="patch_4">
    <path d="M 38.054688 179.064 
L 38.054688 7.2 
" style="fill:none;stroke:#000000;stroke-linecap:square;stroke-linejoin:miter;stroke-width:0.8;"/>
   </g>
   <g id="patch_5">
    <path d="M 238.934687 179.064 
L 238.934687 7.2 
" style="fill:none;stroke:#000000;stroke-linecap:square;stroke-linejoin:miter;stroke-width:0.8;"/>
   </g>
   <g id="patch_6">
    <path d="M 38.054688 179.064 
L 238.934687 179.064 
" style="fill:none;stroke:#000000;stroke-linecap:square;stroke-linejoin:miter;stroke-width:0.8;"/>
   </g>
   <g id="patch_7">
    <path d="M 38.054688 7.2 
L 238.934687 7.2 
" style="fill:none;stroke:#000000;stroke-linecap:square;stroke-linejoin:miter;stroke-width:0.8;"/>
   </g>
   <g id="legend_1">
    <g id="patch_8">
     <path d="M 47.154688 172.564 
L 116.566563 172.564 
Q 119.166562 172.564 119.166562 169.964 
L 119.166562 133.100875 
Q 119.166562 130.500875 116.566563 130.500875 
L 47.154688 130.500875 
Q 44.554688 130.500875 44.554688 133.100875 
L 44.554688 169.964 
Q 44.554688 172.564 47.154688 172.564 
z
" style="fill:#ffffff;opacity:0.8;stroke:#cccccc;stroke-linejoin:miter;"/>
    </g>
    <g id="LineCollection_3">
     <path d="M 53.654688 147.528844 
L 53.654688 134.528844 
" style="fill:none;stroke:#ff7f0e;stroke-width:1.5;"/>
    </g>
    <g id="line2d_17"/>
    <g id="line2d_18">
     <g>
      <use style="fill:#ff7f0e;stroke:#ff7f0e;" x="53.654688" xlink:href="#mbbb2a9d153" y="141.028844"/>
     </g>
    </g>
    <g id="text_8">
     <!-- 0.12 ms -->
     <g transform="translate(61.454688 145.578844)scale(0.13 -0.13)">
      <defs>
       <path d="M 44.28125 53.078125 
L 44.28125 44.578125 
Q 40.484375 46.53125 36.375 47.5 
Q 32.28125 48.484375 27.875 48.484375 
Q 21.1875 48.484375 17.84375 46.4375 
Q 14.5 44.390625 14.5 40.28125 
Q 14.5 37.15625 16.890625 35.375 
Q 19.28125 33.59375 26.515625 31.984375 
L 29.59375 31.296875 
Q 39.15625 29.25 43.1875 25.515625 
Q 47.21875 21.78125 47.21875 15.09375 
Q 47.21875 7.46875 41.1875 3.015625 
Q 35.15625 -1.421875 24.609375 -1.421875 
Q 20.21875 -1.421875 15.453125 -0.5625 
Q 10.6875 0.296875 5.421875 2 
L 5.421875 11.28125 
Q 10.40625 8.6875 15.234375 7.390625 
Q 20.0625 6.109375 24.8125 6.109375 
Q 31.15625 6.109375 34.5625 8.28125 
Q 37.984375 10.453125 37.984375 14.40625 
Q 37.984375 18.0625 35.515625 20.015625 
Q 33.0625 21.96875 24.703125 23.78125 
L 21.578125 24.515625 
Q 13.234375 26.265625 9.515625 29.90625 
Q 5.8125 33.546875 5.8125 39.890625 
Q 5.8125 47.609375 11.28125 51.796875 
Q 16.75 56 26.8125 56 
Q 31.78125 56 36.171875 55.265625 
Q 40.578125 54.546875 44.28125 53.078125 
z
" id="DejaVuSans-115"/>
      </defs>
      <use xlink:href="#DejaVuSans-48"/>
      <use x="63.623047" xlink:href="#DejaVuSans-46"/>
      <use x="95.410156" xlink:href="#DejaVuSans-49"/>
      <use x="159.033203" xlink:href="#DejaVuSans-50"/>
      <use x="222.65625" xlink:href="#DejaVuSans-32"/>
      <use x="254.443359" xlink:href="#DejaVuSans-109"/>
      <use x="351.855469" xlink:href="#DejaVuSans-115"/>
     </g>
    </g>
    <g id="LineCollection_4">
     <path d="M 53.654688 166.610406 
L 53.654688 153.610406 
" style="fill:none;stroke:#2ca02c;stroke-width:1.5;"/>
    </g>
    <g id="line2d_19"/>
    <g id="line2d_20">
     <g>
      <use style="fill:#2ca02c;stroke:#2ca02c;" x="53.654688" xlink:href="#mbab2358add" y="160.110406"/>
     </g>
    </g>
    <g id="text_9">
     <!-- 0.25 ms -->
     <g transform="translate(61.454688 164.660406)scale(0.13 -0.13)">
      <defs>
       <path d="M 10.796875 72.90625 
L 49.515625 72.90625 
L 49.515625 64.59375 
L 19.828125 64.59375 
L 19.828125 46.734375 
Q 21.96875 47.46875 24.109375 47.828125 
Q 26.265625 48.1875 28.421875 48.1875 
Q 40.625 48.1875 47.75 41.5 
Q 54.890625 34.8125 54.890625 23.390625 
Q 54.890625 11.625 47.5625 5.09375 
Q 40.234375 -1.421875 26.90625 -1.421875 
Q 22.3125 -1.421875 17.546875 -0.640625 
Q 12.796875 0.140625 7.71875 1.703125 
L 7.71875 11.625 
Q 12.109375 9.234375 16.796875 8.0625 
Q 21.484375 6.890625 26.703125 6.890625 
Q 35.15625 6.890625 40.078125 11.328125 
Q 45.015625 15.765625 45.015625 23.390625 
Q 45.015625 31 40.078125 35.4375 
Q 35.15625 39.890625 26.703125 39.890625 
Q 22.75 39.890625 18.8125 39.015625 
Q 14.890625 38.140625 10.796875 36.28125 
z
" id="DejaVuSans-53"/>
      </defs>
      <use xlink:href="#DejaVuSans-48"/>
      <use x="63.623047" xlink:href="#DejaVuSans-46"/>
      <use x="95.410156" xlink:href="#DejaVuSans-50"/>
      <use x="159.033203" xlink:href="#DejaVuSans-53"/>
      <use x="222.65625" xlink:href="#DejaVuSans-32"/>
      <use x="254.443359" xlink:href="#DejaVuSans-109"/>
      <use x="351.855469" xlink:href="#DejaVuSans-115"/>
     </g>
    </g>
   </g>
  </g>
 </g>
 <defs>
  <clipPath id="pe54a88358d">
   <rect height="171.864" width="200.88" x="38.054688" y="7.2"/>
  </clipPath>
 </defs>
</svg>
