<?xml version="1.0" encoding="utf-8" standalone="no"?>
<!DOCTYPE svg PUBLIC "-//W3C//DTD SVG 1.1//EN"
  "http://www.w3.org/Graphics/SVG/1.1/DTD/svg11.dtd">
<!-- Created with matplotlib (https://matplotlib.org/) -->
<svg height="226.298375pt" version="1.1" viewBox="0 0 247.308437 226.298375" width="247.308437pt" xmlns="http://www.w3.org/2000/svg" xmlns:xlink="http://www.w3.org/1999/xlink">
 <defs>
  <style type="text/css">*{stroke-linecap:butt;stroke-linejoin:round;}</style>
 </defs>
 <g id="figure_1">
  <g id="patch_1">
   <path d="M 0 226.298375 
L 247.308437 226.298375 
L 247.308437 -0 
L 0 -0 
z
" style="fill:none;"/>
  </g>
  <g id="axes_1">
   <g id="patch_2">
    <path d="M 38.054688 179.064 
L 238.934687 179.064 
L 238.934687 7.2 
L 38.054688 7.2 
z
" style="fill:none;"/>
   </g>
   <g id="patch_3">
    <path clip-path="url(#pe54a88358d)" d="M 38.054688 179.064 
L 238.934687 179.064 
L 238.934687 7.2 
L 38.054688 7.2 
z
" style="fill:#ffffff;opacity:0.9;"/>
   </g>
   <g id="matplotlib.axis_1">
    <g id="xtick_1">
     <g id="line2d_1">
      <path clip-path="url(#pe54a88358d)" d="M 63.164688 179.064 
L 63.164688 7.2 
" style="fill:none;stroke:#b0b0b0;stroke-linecap:square;stroke-width:0.8;"/>
     </g>
     <g id="line2d_2">
      <defs>
       <path d="M 0 0 
L 0 3.5 
" id="m005f0a59be" style="stroke:#000000;stroke-width:0.8;"/>
      </defs>
      <g>
       <use style="stroke:#000000;stroke-width:0.8;" x="63.164688" xlink:href="#m005f0a59be" y="179.064"/>
      </g>
     </g>
     <g id="text_1">
      <!-- −10 -->
      <g transform="translate(47.336172 197.461656)scale(0.15 -0.15)">
       <defs>
        <path d="M 10.59375 35.5 
L 73.1875 35.5 
L 73.1875 27.203125 
L 10.59375 27.203125 
z
" id="DejaVuSans-8722"/>
        <path d="M 12.40625 8.296875 
L 28.515625 8.296875 
L 28.515625 63.921875 
L 10.984375 60.40625 
L 10.984375 69.390625 
L 28.421875 72.90625 
L 38.28125 72.90625 
L 38.28125 8.296875 
L 54.390625 8.296875 
L 54.390625 0 
L 12.40625 0 
z
" id="DejaVuSans-49"/>
        <path d="M 31.78125 66.40625 
Q 24.171875 66.40625 20.328125 58.90625 
Q 16.5 51.421875 16.5 36.375 
Q 16.5 21.390625 20.328125 13.890625 
Q 24.171875 6.390625 31.78125 6.390625 
Q 39.453125 6.390625 43.28125 13.890625 
Q 47.125 21.390625 47.125 36.375 
Q 47.125 51.421875 43.28125 58.90625 
Q 39.453125 66.40625 31.78125 66.40625 
z
M 31.78125 74.21875 
Q 44.046875 74.21875 50.515625 64.515625 
Q 56.984375 54.828125 56.984375 36.375 
Q 56.984375 17.96875 50.515625 8.265625 
Q 44.046875 -1.421875 31.78125 -1.421875 
Q 19.53125 -1.421875 13.0625 8.265625 
Q 6.59375 17.96875 6.59375 36.375 
Q 6.59375 54.828125 13.0625 64.515625 
Q 19.53125 74.21875 31.78125 74.21875 
z
" id="DejaVuSans-48"/>
       </defs>
       <use xlink:href="#DejaVuSans-8722"/>
       <use x="83.789062" xlink:href="#DejaVuSans-49"/>
       <use x="147.412109" xlink:href="#DejaVuSans-48"/>
      </g>
     </g>
    </g>
    <g id="xtick_2">
     <g id="line2d_3">
      <path clip-path="url(#pe54a88358d)" d="M 146.864688 179.064 
L 146.864688 7.2 
" style="fill:none;stroke:#b0b0b0;stroke-linecap:square;stroke-width:0.8;"/>
     </g>
     <g id="line2d_4">
      <g>
       <use style="stroke:#000000;stroke-width:0.8;" x="146.864688" xlink:href="#m005f0a59be" y="179.064"/>
      </g>
     </g>
     <g id="text_2">
      <!-- 0 -->
      <g transform="translate(142.092813 197.461656)scale(0.15 -0.15)">
       <use xlink:href="#DejaVuSans-48"/>
      </g>
     </g>
    </g>
    <g id="xtick_3">
     <g id="line2d_5">
      <path clip-path="url(#pe54a88358d)" d="M 230.564687 179.064 
L 230.564687 7.2 
" style="fill:none;stroke:#b0b0b0;stroke-linecap:square;stroke-width:0.8;"/>
     </g>
     <g id="line2d_6">
      <g>
       <use style="stroke:#000000;stroke-width:0.8;" x="230.564687" xlink:href="#m005f0a59be" y="179.064"/>
      </g>
     </g>
     <g id="text_3">
      <!-- 10 -->
      <g transform="translate(221.020938 197.461656)scale(0.15 -0.15)">
       <use xlink:href="#DejaVuSans-49"/>
       <use x="63.623047" xlink:href="#DejaVuSans-48"/>
      </g>
     </g>
    </g>
    <g id="text_4">
     <!-- Raman Detuning (kHz) -->
     <g transform="translate(53.227891 215.978844)scale(0.15 -0.15)">
      <defs>
       <path d="M 44.390625 34.1875 
Q 47.5625 33.109375 50.5625 29.59375 
Q 53.5625 26.078125 56.59375 19.921875 
L 66.609375 0 
L 56 0 
L 46.6875 18.703125 
Q 43.0625 26.03125 39.671875 28.421875 
Q 36.28125 30.8125 30.421875 30.8125 
L 19.671875 30.8125 
L 19.671875 0 
L 9.8125 0 
L 9.8125 72.90625 
L 32.078125 72.90625 
Q 44.578125 72.90625 50.734375 67.671875 
Q 56.890625 62.453125 56.890625 51.90625 
Q 56.890625 45.015625 53.6875 40.46875 
Q 50.484375 35.9375 44.390625 34.1875 
z
M 19.671875 64.796875 
L 19.671875 38.921875 
L 32.078125 38.921875 
Q 39.203125 38.921875 42.84375 42.21875 
Q 46.484375 45.515625 46.484375 51.90625 
Q 46.484375 58.296875 42.84375 61.546875 
Q 39.203125 64.796875 32.078125 64.796875 
z
" id="DejaVuSans-82"/>
       <path d="M 34.28125 27.484375 
Q 23.390625 27.484375 19.1875 25 
Q 14.984375 22.515625 14.984375 16.5 
Q 14.984375 11.71875 18.140625 8.90625 
Q 21.296875 6.109375 26.703125 6.109375 
Q 34.1875 6.109375 38.703125 11.40625 
Q 43.21875 16.703125 43.21875 25.484375 
L 43.21875 27.484375 
z
M 52.203125 31.203125 
L 52.203125 0 
L 43.21875 0 
L 43.21875 8.296875 
Q 40.140625 3.328125 35.546875 0.953125 
Q 30.953125 -1.421875 24.3125 -1.421875 
Q 15.921875 -1.421875 10.953125 3.296875 
Q 6 8.015625 6 15.921875 
Q 6 25.140625 12.171875 29.828125 
Q 18.359375 34.515625 30.609375 34.515625 
L 43.21875 34.515625 
L 43.21875 35.40625 
Q 43.21875 41.609375 39.140625 45 
Q 35.0625 48.390625 27.6875 48.390625 
Q 23 48.390625 18.546875 47.265625 
Q 14.109375 46.140625 10.015625 43.890625 
L 10.015625 52.203125 
Q 14.9375 54.109375 19.578125 55.046875 
Q 24.21875 56 28.609375 56 
Q 40.484375 56 46.34375 49.84375 
Q 52.203125 43.703125 52.203125 31.203125 
z
" id="DejaVuSans-97"/>
       <path d="M 52 44.1875 
Q 55.375 50.25 60.0625 53.125 
Q 64.75 56 71.09375 56 
Q 79.640625 56 84.28125 50.015625 
Q 88.921875 44.046875 88.921875 33.015625 
L 88.921875 0 
L 79.890625 0 
L 79.890625 32.71875 
Q 79.890625 40.578125 77.09375 44.375 
Q 74.3125 48.1875 68.609375 48.1875 
Q 61.625 48.1875 57.5625 43.546875 
Q 53.515625 38.921875 53.515625 30.90625 
L 53.515625 0 
L 44.484375 0 
L 44.484375 32.71875 
Q 44.484375 40.625 41.703125 44.40625 
Q 38.921875 48.1875 33.109375 48.1875 
Q 26.21875 48.1875 22.15625 43.53125 
Q 18.109375 38.875 18.109375 30.90625 
L 18.109375 0 
L 9.078125 0 
L 9.078125 54.6875 
L 18.109375 54.6875 
L 18.109375 46.1875 
Q 21.1875 51.21875 25.484375 53.609375 
Q 29.78125 56 35.6875 56 
Q 41.65625 56 45.828125 52.96875 
Q 50 49.953125 52 44.1875 
z
" id="DejaVuSans-109"/>
       <path d="M 54.890625 33.015625 
L 54.890625 0 
L 45.90625 0 
L 45.90625 32.71875 
Q 45.90625 40.484375 42.875 44.328125 
Q 39.84375 48.1875 33.796875 48.1875 
Q 26.515625 48.1875 22.3125 43.546875 
Q 18.109375 38.921875 18.109375 30.90625 
L 18.109375 0 
L 9.078125 0 
L 9.078125 54.6875 
L 18.109375 54.6875 
L 18.109375 46.1875 
Q 21.34375 51.125 25.703125 53.5625 
Q 30.078125 56 35.796875 56 
Q 45.21875 56 50.046875 50.171875 
Q 54.890625 44.34375 54.890625 33.015625 
z
" id="DejaVuSans-110"/>
       <path id="DejaVuSans-32"/>
       <path d="M 19.671875 64.796875 
L 19.671875 8.109375 
L 31.59375 8.109375 
Q 46.6875 8.109375 53.6875 14.9375 
Q 60.6875 21.78125 60.6875 36.53125 
Q 60.6875 51.171875 53.6875 57.984375 
Q 46.6875 64.796875 31.59375 64.796875 
z
M 9.8125 72.90625 
L 30.078125 72.90625 
Q 51.265625 72.90625 61.171875 64.09375 
Q 71.09375 55.28125 71.09375 36.53125 
Q 71.09375 17.671875 61.125 8.828125 
Q 51.171875 0 30.078125 0 
L 9.8125 0 
z
" id="DejaVuSans-68"/>
       <path d="M 56.203125 29.59375 
L 56.203125 25.203125 
L 14.890625 25.203125 
Q 15.484375 15.921875 20.484375 11.0625 
Q 25.484375 6.203125 34.421875 6.203125 
Q 39.59375 6.203125 44.453125 7.46875 
Q 49.3125 8.734375 54.109375 11.28125 
L 54.109375 2.78125 
Q 49.265625 0.734375 44.1875 -0.34375 
Q 39.109375 -1.421875 33.890625 -1.421875 
Q 20.796875 -1.421875 13.15625 6.1875 
Q 5.515625 13.8125 5.515625 26.8125 
Q 5.515625 40.234375 12.765625 48.109375 
Q 20.015625 56 32.328125 56 
Q 43.359375 56 49.78125 48.890625 
Q 56.203125 41.796875 56.203125 29.59375 
z
M 47.21875 32.234375 
Q 47.125 39.59375 43.09375 43.984375 
Q 39.0625 48.390625 32.421875 48.390625 
Q 24.90625 48.390625 20.390625 44.140625 
Q 15.875 39.890625 15.1875 32.171875 
z
" id="DejaVuSans-101"/>
       <path d="M 18.3125 70.21875 
L 18.3125 54.6875 
L 36.8125 54.6875 
L 36.8125 47.703125 
L 18.3125 47.703125 
L 18.3125 18.015625 
Q 18.3125 11.328125 20.140625 9.421875 
Q 21.96875 7.515625 27.59375 7.515625 
L 36.8125 7.515625 
L 36.8125 0 
L 27.59375 0 
Q 17.1875 0 13.234375 3.875 
Q 9.28125 7.765625 9.28125 18.015625 
L 9.28125 47.703125 
L 2.6875 47.703125 
L 2.6875 54.6875 
L 9.28125 54.6875 
L 9.28125 70.21875 
z
" id="DejaVuSans-116"/>
       <path d="M 8.5 21.578125 
L 8.5 54.6875 
L 17.484375 54.6875 
L 17.484375 21.921875 
Q 17.484375 14.15625 20.5 10.265625 
Q 23.53125 6.390625 29.59375 6.390625 
Q 36.859375 6.390625 41.078125 11.03125 
Q 45.3125 15.671875 45.3125 23.6875 
L 45.3125 54.6875 
L 54.296875 54.6875 
L 54.296875 0 
L 45.3125 0 
L 45.3125 8.40625 
Q 42.046875 3.421875 37.71875 1 
Q 33.40625 -1.421875 27.6875 -1.421875 
Q 18.265625 -1.421875 13.375 4.4375 
Q 8.5 10.296875 8.5 21.578125 
z
M 31.109375 56 
z
" id="DejaVuSans-117"/>
       <path d="M 9.421875 54.6875 
L 18.40625 54.6875 
L 18.40625 0 
L 9.421875 0 
z
M 9.421875 75.984375 
L 18.40625 75.984375 
L 18.40625 64.59375 
L 9.421875 64.59375 
z
" id="DejaVuSans-105"/>
       <path d="M 45.40625 27.984375 
Q 45.40625 37.75 41.375 43.109375 
Q 37.359375 48.484375 30.078125 48.484375 
Q 22.859375 48.484375 18.828125 43.109375 
Q 14.796875 37.75 14.796875 27.984375 
Q 14.796875 18.265625 18.828125 12.890625 
Q 22.859375 7.515625 30.078125 7.515625 
Q 37.359375 7.515625 41.375 12.890625 
Q 45.40625 18.265625 45.40625 27.984375 
z
M 54.390625 6.78125 
Q 54.390625 -7.171875 48.1875 -13.984375 
Q 42 -20.796875 29.203125 -20.796875 
Q 24.46875 -20.796875 20.265625 -20.09375 
Q 16.0625 -19.390625 12.109375 -17.921875 
L 12.109375 -9.1875 
Q 16.0625 -11.328125 19.921875 -12.34375 
Q 23.78125 -13.375 27.78125 -13.375 
Q 36.625 -13.375 41.015625 -8.765625 
Q 45.40625 -4.15625 45.40625 5.171875 
L 45.40625 9.625 
Q 42.625 4.78125 38.28125 2.390625 
Q 33.9375 0 27.875 0 
Q 17.828125 0 11.671875 7.65625 
Q 5.515625 15.328125 5.515625 27.984375 
Q 5.515625 40.671875 11.671875 48.328125 
Q 17.828125 56 27.875 56 
Q 33.9375 56 38.28125 53.609375 
Q 42.625 51.21875 45.40625 46.390625 
L 45.40625 54.6875 
L 54.390625 54.6875 
z
" id="DejaVuSans-103"/>
       <path d="M 31 75.875 
Q 24.46875 64.65625 21.28125 53.65625 
Q 18.109375 42.671875 18.109375 31.390625 
Q 18.109375 20.125 21.3125 9.0625 
Q 24.515625 -2 31 -13.1875 
L 23.1875 -13.1875 
Q 15.875 -1.703125 12.234375 9.375 
Q 8.59375 20.453125 8.59375 31.390625 
Q 8.59375 42.28125 12.203125 53.3125 
Q 15.828125 64.359375 23.1875 75.875 
z
" id="DejaVuSans-40"/>
       <path d="M 9.078125 75.984375 
L 18.109375 75.984375 
L 18.109375 31.109375 
L 44.921875 54.6875 
L 56.390625 54.6875 
L 27.390625 29.109375 
L 57.625 0 
L 45.90625 0 
L 18.109375 26.703125 
L 18.109375 0 
L 9.078125 0 
z
" id="DejaVuSans-107"/>
       <path d="M 9.8125 72.90625 
L 19.671875 72.90625 
L 19.671875 43.015625 
L 55.515625 43.015625 
L 55.515625 72.90625 
L 65.375 72.90625 
L 65.375 0 
L 55.515625 0 
L 55.515625 34.71875 
L 19.671875 34.71875 
L 19.671875 0 
L 9.8125 0 
z
" id="DejaVuSans-72"/>
       <path d="M 5.515625 54.6875 
L 48.1875 54.6875 
L 48.1875 46.484375 
L 14.40625 7.171875 
L 48.1875 7.171875 
L 48.1875 0 
L 4.296875 0 
L 4.296875 8.203125 
L 38.09375 47.515625 
L 5.515625 47.515625 
z
" id="DejaVuSans-122"/>
       <path d="M 8.015625 75.875 
L 15.828125 75.875 
Q 23.140625 64.359375 26.78125 53.3125 
Q 30.421875 42.28125 30.421875 31.390625 
Q 30.421875 20.453125 26.78125 9.375 
Q 23.140625 -1.703125 15.828125 -13.1875 
L 8.015625 -13.1875 
Q 14.5 -2 17.703125 9.0625 
Q 20.90625 20.125 20.90625 31.390625 
Q 20.90625 42.671875 17.703125 53.65625 
Q 14.5 64.65625 8.015625 75.875 
z
" id="DejaVuSans-41"/>
      </defs>
      <use xlink:href="#DejaVuSans-82"/>
      <use x="67.232422" xlink:href="#DejaVuSans-97"/>
      <use x="128.511719" xlink:href="#DejaVuSans-109"/>
      <use x="225.923828" xlink:href="#DejaVuSans-97"/>
      <use x="287.203125" xlink:href="#DejaVuSans-110"/>
      <use x="350.582031" xlink:href="#DejaVuSans-32"/>
      <use x="382.369141" xlink:href="#DejaVuSans-68"/>
      <use x="459.371094" xlink:href="#DejaVuSans-101"/>
      <use x="520.894531" xlink:href="#DejaVuSans-116"/>
      <use x="560.103516" xlink:href="#DejaVuSans-117"/>
      <use x="623.482422" xlink:href="#DejaVuSans-110"/>
      <use x="686.861328" xlink:href="#DejaVuSans-105"/>
      <use x="714.644531" xlink:href="#DejaVuSans-110"/>
      <use x="778.023438" xlink:href="#DejaVuSans-103"/>
      <use x="841.5" xlink:href="#DejaVuSans-32"/>
      <use x="873.287109" xlink:href="#DejaVuSans-40"/>
      <use x="912.300781" xlink:href="#DejaVuSans-107"/>
      <use x="970.210938" xlink:href="#DejaVuSans-72"/>
      <use x="1045.40625" xlink:href="#DejaVuSans-122"/>
      <use x="1097.896484" xlink:href="#DejaVuSans-41"/>
     </g>
    </g>
   </g>
   <g id="matplotlib.axis_2">
    <g id="ytick_1">
     <g id="line2d_7">
      <path clip-path="url(#pe54a88358d)" d="M 38.054688 158.019429 
L 238.934687 158.019429 
" style="fill:none;stroke:#b0b0b0;stroke-linecap:square;stroke-width:0.8;"/>
     </g>
     <g id="line2d_8">
      <defs>
       <path d="M 0 0 
L -3.5 0 
" id="mc3ce260a5b" style="stroke:#000000;stroke-width:0.8;"/>
      </defs>
      <g>
       <use style="stroke:#000000;stroke-width:0.8;" x="38.054688" xlink:href="#mc3ce260a5b" y="158.019429"/>
      </g>
     </g>
     <g id="text_5">
      <!-- 0.2 -->
      <g transform="translate(7.2 163.718257)scale(0.15 -0.15)">
       <defs>
        <path d="M 10.6875 12.40625 
L 21 12.40625 
L 21 0 
L 10.6875 0 
z
" id="DejaVuSans-46"/>
        <path d="M 19.1875 8.296875 
L 53.609375 8.296875 
L 53.609375 0 
L 7.328125 0 
L 7.328125 8.296875 
Q 12.9375 14.109375 22.625 23.890625 
Q 32.328125 33.6875 34.8125 36.53125 
Q 39.546875 41.84375 41.421875 45.53125 
Q 43.3125 49.21875 43.3125 52.78125 
Q 43.3125 58.59375 39.234375 62.25 
Q 35.15625 65.921875 28.609375 65.921875 
Q 23.96875 65.921875 18.8125 64.3125 
Q 13.671875 62.703125 7.8125 59.421875 
L 7.8125 69.390625 
Q 13.765625 71.78125 18.9375 73 
Q 24.125 74.21875 28.421875 74.21875 
Q 39.75 74.21875 46.484375 68.546875 
Q 53.21875 62.890625 53.21875 53.421875 
Q 53.21875 48.921875 51.53125 44.890625 
Q 49.859375 40.875 45.40625 35.40625 
Q 44.1875 33.984375 37.640625 27.21875 
Q 31.109375 20.453125 19.1875 8.296875 
z
" id="DejaVuSans-50"/>
       </defs>
       <use xlink:href="#DejaVuSans-48"/>
       <use x="63.623047" xlink:href="#DejaVuSans-46"/>
       <use x="95.410156" xlink:href="#DejaVuSans-50"/>
      </g>
     </g>
    </g>
    <g id="ytick_2">
     <g id="line2d_9">
      <path clip-path="url(#pe54a88358d)" d="M 38.054688 87.870857 
L 238.934687 87.870857 
" style="fill:none;stroke:#b0b0b0;stroke-linecap:square;stroke-width:0.8;"/>
     </g>
     <g id="line2d_10">
      <g>
       <use style="stroke:#000000;stroke-width:0.8;" x="38.054688" xlink:href="#mc3ce260a5b" y="87.870857"/>
      </g>
     </g>
     <g id="text_6">
      <!-- 0.6 -->
      <g transform="translate(7.2 93.569685)scale(0.15 -0.15)">
       <defs>
        <path d="M 33.015625 40.375 
Q 26.375 40.375 22.484375 35.828125 
Q 18.609375 31.296875 18.609375 23.390625 
Q 18.609375 15.53125 22.484375 10.953125 
Q 26.375 6.390625 33.015625 6.390625 
Q 39.65625 6.390625 43.53125 10.953125 
Q 47.40625 15.53125 47.40625 23.390625 
Q 47.40625 31.296875 43.53125 35.828125 
Q 39.65625 40.375 33.015625 40.375 
z
M 52.59375 71.296875 
L 52.59375 62.3125 
Q 48.875 64.0625 45.09375 64.984375 
Q 41.3125 65.921875 37.59375 65.921875 
Q 27.828125 65.921875 22.671875 59.328125 
Q 17.53125 52.734375 16.796875 39.40625 
Q 19.671875 43.65625 24.015625 45.921875 
Q 28.375 48.1875 33.59375 48.1875 
Q 44.578125 48.1875 50.953125 41.515625 
Q 57.328125 34.859375 57.328125 23.390625 
Q 57.328125 12.15625 50.6875 5.359375 
Q 44.046875 -1.421875 33.015625 -1.421875 
Q 20.359375 -1.421875 13.671875 8.265625 
Q 6.984375 17.96875 6.984375 36.375 
Q 6.984375 53.65625 15.1875 63.9375 
Q 23.390625 74.21875 37.203125 74.21875 
Q 40.921875 74.21875 44.703125 73.484375 
Q 48.484375 72.75 52.59375 71.296875 
z
" id="DejaVuSans-54"/>
       </defs>
       <use xlink:href="#DejaVuSans-48"/>
       <use x="63.623047" xlink:href="#DejaVuSans-46"/>
       <use x="95.410156" xlink:href="#DejaVuSans-54"/>
      </g>
     </g>
    </g>
    <g id="ytick_3">
     <g id="line2d_11">
      <path clip-path="url(#pe54a88358d)" d="M 38.054688 17.722286 
L 238.934687 17.722286 
" style="fill:none;stroke:#b0b0b0;stroke-linecap:square;stroke-width:0.8;"/>
     </g>
     <g id="line2d_12">
      <g>
       <use style="stroke:#000000;stroke-width:0.8;" x="38.054688" xlink:href="#mc3ce260a5b" y="17.722286"/>
      </g>
     </g>
     <g id="text_7">
      <!-- 1.0 -->
      <g transform="translate(7.2 23.421114)scale(0.15 -0.15)">
       <use xlink:href="#DejaVuSans-49"/>
       <use x="63.623047" xlink:href="#DejaVuSans-46"/>
       <use x="95.410156" xlink:href="#DejaVuSans-48"/>
      </g>
     </g>
    </g>
   </g>
   <g id="LineCollection_1">
    <path clip-path="url(#pe54a88358d)" d="M 70.664113 52.243296 
L 70.664113 31.087138 
" style="fill:none;stroke:#ff7f0e;stroke-width:1.5;"/>
    <path clip-path="url(#pe54a88358d)" d="M 84.056113 38.828858 
L 84.056113 17.024288 
" style="fill:none;stroke:#ff7f0e;stroke-width:1.5;"/>
    <path clip-path="url(#pe54a88358d)" d="M 97.448113 48.337673 
L 97.448113 26.853411 
" style="fill:none;stroke:#ff7f0e;stroke-width:1.5;"/>
    <path clip-path="url(#pe54a88358d)" d="M 110.840113 61.053062 
L 110.840113 40.925483 
" style="fill:none;stroke:#ff7f0e;stroke-width:1.5;"/>
    <path clip-path="url(#pe54a88358d)" d="M 124.232113 129.805244 
L 124.232113 113.650498 
" style="fill:none;stroke:#ff7f0e;stroke-width:1.5;"/>
    <path clip-path="url(#pe54a88358d)" d="M 137.624113 165.942878 
L 137.624113 154.824607 
" style="fill:none;stroke:#ff7f0e;stroke-width:1.5;"/>
    <path clip-path="url(#pe54a88358d)" d="M 151.016113 174.585537 
L 151.016113 165.494811 
" style="fill:none;stroke:#ff7f0e;stroke-width:1.5;"/>
    <path clip-path="url(#pe54a88358d)" d="M 164.408113 147.286505 
L 164.408113 133.262604 
" style="fill:none;stroke:#ff7f0e;stroke-width:1.5;"/>
    <path clip-path="url(#pe54a88358d)" d="M 177.800113 99.994003 
L 177.800113 82.612776 
" style="fill:none;stroke:#ff7f0e;stroke-width:1.5;"/>
    <path clip-path="url(#pe54a88358d)" d="M 191.192113 73.317328 
L 191.192113 53.868403 
" style="fill:none;stroke:#ff7f0e;stroke-width:1.5;"/>
    <path clip-path="url(#pe54a88358d)" d="M 204.584113 50.310109 
L 204.584113 28.535365 
" style="fill:none;stroke:#ff7f0e;stroke-width:1.5;"/>
   </g>
   <g id="LineCollection_2">
    <path clip-path="url(#pe54a88358d)" d="M 45.554113 30.874685 
L 45.554113 9.509635 
" style="fill:none;stroke:#2ca02c;stroke-width:1.5;"/>
    <path clip-path="url(#pe54a88358d)" d="M 63.968113 54.237946 
L 63.968113 33.030666 
" style="fill:none;stroke:#2ca02c;stroke-width:1.5;"/>
    <path clip-path="url(#pe54a88358d)" d="M 82.382113 61.338245 
L 82.382113 40.503576 
" style="fill:none;stroke:#2ca02c;stroke-width:1.5;"/>
    <path clip-path="url(#pe54a88358d)" d="M 100.796113 81.362314 
L 100.796113 61.163138 
" style="fill:none;stroke:#2ca02c;stroke-width:1.5;"/>
    <path clip-path="url(#pe54a88358d)" d="M 119.210113 97.421687 
L 119.210113 78.896741 
" style="fill:none;stroke:#2ca02c;stroke-width:1.5;"/>
    <path clip-path="url(#pe54a88358d)" d="M 137.624113 120.242239 
L 137.624113 103.546419 
" style="fill:none;stroke:#2ca02c;stroke-width:1.5;"/>
    <path clip-path="url(#pe54a88358d)" d="M 156.038113 112.080666 
L 156.038113 95.128796 
" style="fill:none;stroke:#2ca02c;stroke-width:1.5;"/>
    <path clip-path="url(#pe54a88358d)" d="M 174.452113 86.781099 
L 174.452113 67.610569 
" style="fill:none;stroke:#2ca02c;stroke-width:1.5;"/>
    <path clip-path="url(#pe54a88358d)" d="M 192.866113 77.602708 
L 192.866113 57.8959 
" style="fill:none;stroke:#2ca02c;stroke-width:1.5;"/>
    <path clip-path="url(#pe54a88358d)" d="M 211.280113 35.833195 
L 211.280113 14.237486 
" style="fill:none;stroke:#2ca02c;stroke-width:1.5;"/>
    <path clip-path="url(#pe54a88358d)" d="M 229.694113 53.540838 
L 229.694113 32.169663 
" style="fill:none;stroke:#2ca02c;stroke-width:1.5;"/>
   </g>
   <g id="line2d_13">
    <path clip-path="url(#pe54a88358d)" d="M 37.184113 31.064479 
L 41.205735 32.454838 
L 44.423032 33.342327 
L 47.238167 33.899629 
L 49.852221 34.203751 
L 52.466275 34.285722 
L 55.080329 34.140724 
L 57.694383 33.776585 
L 60.509519 33.164255 
L 63.927897 32.178981 
L 74.786275 28.820409 
L 77.199248 28.434933 
L 79.210059 28.333491 
L 81.019789 28.452412 
L 82.829519 28.803453 
L 84.438167 29.335029 
L 86.046816 30.09428 
L 87.655464 31.099863 
L 89.264113 32.368607 
L 90.872762 33.915207 
L 92.48141 35.751936 
L 94.29114 38.176874 
L 96.10087 40.990258 
L 97.9106 44.196241 
L 99.92141 48.217252 
L 102.133302 53.18645 
L 104.345194 58.703105 
L 106.758167 65.300747 
L 109.573302 73.674736 
L 112.7906 83.970507 
L 117.214383 98.948049 
L 125.056546 125.602791 
L 128.273843 135.676138 
L 130.887897 143.150019 
L 133.099789 148.844971 
L 135.1106 153.440394 
L 136.920329 157.049987 
L 138.528978 159.806761 
L 140.137627 162.113405 
L 141.545194 163.746608 
L 142.751681 164.851589 
L 143.958167 165.678546 
L 145.164654 166.223398 
L 146.170059 166.45996 
L 147.175464 166.49791 
L 148.18087 166.337116 
L 149.186275 165.978132 
L 150.392762 165.287522 
L 151.599248 164.316738 
L 152.805735 163.070564 
L 154.213302 161.276884 
L 155.62087 159.128737 
L 157.229519 156.258089 
L 159.039248 152.528588 
L 161.050059 147.811548 
L 163.261951 141.998629 
L 165.674924 135.016937 
L 168.69114 125.543255 
L 172.511681 112.746757 
L 182.565735 78.680415 
L 185.783032 68.752665 
L 188.598167 60.788548 
L 191.01114 54.593407 
L 193.223032 49.476466 
L 195.434924 44.9267 
L 197.445735 41.296195 
L 199.255464 38.443262 
L 201.065194 35.97943 
L 202.874924 33.895991 
L 204.483573 32.352627 
L 206.092221 31.086966 
L 207.70087 30.084285 
L 209.309519 29.327735 
L 210.918167 28.798636 
L 212.727897 28.450099 
L 214.537627 28.333366 
L 216.548437 28.436856 
L 218.760329 28.782725 
L 221.374383 29.426125 
L 224.993843 30.56853 
L 232.232762 32.90308 
L 235.450059 33.666999 
L 238.064113 34.077734 
L 238.064113 34.077734 
" style="fill:none;stroke:#ff7f0e;stroke-linecap:square;stroke-width:1.5;"/>
   </g>
   <g id="line2d_14">
    <path clip-path="url(#pe54a88358d)" d="M 37.184113 35.597813 
L 39.194924 35.079058 
L 42.010059 34.07058 
L 45.428437 32.87076 
L 47.238167 32.468437 
L 48.846816 32.345353 
L 50.254383 32.459299 
L 51.661951 32.801926 
L 53.069519 33.380413 
L 54.477086 34.187658 
L 56.085735 35.362015 
L 58.096546 37.125549 
L 64.933302 43.426078 
L 66.541951 44.445378 
L 67.949519 45.062179 
L 69.156005 45.363998 
L 70.362492 45.448807 
L 71.568978 45.320178 
L 72.976546 44.919974 
L 74.585194 44.18432 
L 76.596005 42.982417 
L 80.215464 40.75565 
L 81.623032 40.146838 
L 82.829519 39.85011 
L 83.834924 39.802427 
L 84.840329 39.964914 
L 85.845735 40.359751 
L 86.85114 41.003755 
L 87.856546 41.907718 
L 89.063032 43.341125 
L 90.269519 45.148892 
L 91.677086 47.703265 
L 93.285735 51.138301 
L 95.296546 56.020697 
L 101.932221 72.673224 
L 103.54087 75.821872 
L 104.747356 77.751619 
L 105.953843 79.264343 
L 106.959248 80.187913 
L 107.964654 80.799227 
L 108.768978 81.06572 
L 109.573302 81.140755 
L 110.578708 80.980529 
L 111.584113 80.563513 
L 112.7906 79.773898 
L 114.198167 78.549215 
L 117.013302 75.675525 
L 118.823032 74.014309 
L 120.029519 73.196295 
L 121.034924 72.774594 
L 121.839248 72.644385 
L 122.643573 72.723585 
L 123.447897 73.032306 
L 124.252221 73.5872 
L 125.056546 74.401108 
L 126.061951 75.795629 
L 127.067356 77.61568 
L 128.273843 80.355666 
L 129.480329 83.675324 
L 130.887897 88.212659 
L 132.697627 94.911977 
L 135.311681 105.653299 
L 138.730059 119.673623 
L 140.539789 126.141043 
L 141.947356 130.354804 
L 143.153843 133.256803 
L 144.159248 135.108392 
L 144.963573 136.190593 
L 145.767897 136.902296 
L 146.37114 137.187091 
L 146.974383 137.25597 
L 147.577627 137.108421 
L 148.18087 136.745542 
L 148.985194 135.93164 
L 149.789519 134.750656 
L 150.794924 132.782351 
L 151.800329 130.30543 
L 153.006816 126.7334 
L 154.414383 121.871973 
L 156.425194 113.995873 
L 162.457627 89.560467 
L 164.066275 84.22593 
L 165.473843 80.309651 
L 166.680329 77.578732 
L 167.685735 75.766434 
L 168.69114 74.379626 
L 169.696546 73.410622 
L 170.50087 72.924316 
L 171.305194 72.680005 
L 172.109519 72.660054 
L 172.913843 72.84348 
L 173.919248 73.32208 
L 175.125735 74.192731 
L 176.734383 75.694004 
L 180.756005 79.630914 
L 181.962492 80.46273 
L 182.967897 80.922898 
L 183.973302 81.132048 
L 184.777627 81.099288 
L 185.581951 80.876969 
L 186.386275 80.458145 
L 187.391681 79.653671 
L 188.397086 78.53904 
L 189.603573 76.807305 
L 190.810059 74.677799 
L 192.217627 71.75624 
L 194.027356 67.463692 
L 197.244654 59.096886 
L 200.059789 52.027073 
L 201.869519 48.067598 
L 203.277086 45.454326 
L 204.684654 43.31654 
L 205.89114 41.888895 
L 206.896546 40.989726 
L 207.901951 40.350375 
L 208.907356 39.959938 
L 209.912762 39.801491 
L 210.918167 39.852767 
L 212.124654 40.153108 
L 213.532221 40.765058 
L 215.341951 41.822221 
L 219.564654 44.401025 
L 221.173302 45.06582 
L 222.58087 45.388572 
L 223.787356 45.443887 
L 224.993843 45.283313 
L 226.200329 44.906949 
L 227.607897 44.209306 
L 229.015464 43.264216 
L 230.825194 41.761172 
L 233.640329 39.058849 
L 236.857627 36.018597 
L 238.064113 35.031617 
L 238.064113 35.031617 
" style="fill:none;stroke:#2ca02c;stroke-linecap:square;stroke-width:1.5;"/>
   </g>
   <g id="line2d_15">
    <defs>
     <path d="M 0 3 
C 0.795609 3 1.55874 2.683901 2.12132 2.12132 
C 2.683901 1.55874 3 0.795609 3 0 
C 3 -0.795609 2.683901 -1.55874 2.12132 -2.12132 
C 1.55874 -2.683901 0.795609 -3 0 -3 
C -0.795609 -3 -1.55874 -2.683901 -2.12132 -2.12132 
C -2.683901 -1.55874 -3 -0.795609 -3 0 
C -3 0.795609 -2.683901 1.55874 -2.12132 2.12132 
C -1.55874 2.683901 -0.795609 3 0 3 
z
" id="mbbb2a9d153" style="stroke:#ff7f0e;"/>
    </defs>
    <g clip-path="url(#pe54a88358d)">
     <use style="fill:#ff7f0e;stroke:#ff7f0e;" x="70.664113" xlink:href="#mbbb2a9d153" y="41.665217"/>
     <use style="fill:#ff7f0e;stroke:#ff7f0e;" x="84.056113" xlink:href="#mbbb2a9d153" y="27.926573"/>
     <use style="fill:#ff7f0e;stroke:#ff7f0e;" x="97.448113" xlink:href="#mbbb2a9d153" y="37.595542"/>
     <use style="fill:#ff7f0e;stroke:#ff7f0e;" x="110.840113" xlink:href="#mbbb2a9d153" y="50.989272"/>
     <use style="fill:#ff7f0e;stroke:#ff7f0e;" x="124.232113" xlink:href="#mbbb2a9d153" y="121.727871"/>
     <use style="fill:#ff7f0e;stroke:#ff7f0e;" x="137.624113" xlink:href="#mbbb2a9d153" y="160.383743"/>
     <use style="fill:#ff7f0e;stroke:#ff7f0e;" x="151.016113" xlink:href="#mbbb2a9d153" y="170.040174"/>
     <use style="fill:#ff7f0e;stroke:#ff7f0e;" x="164.408113" xlink:href="#mbbb2a9d153" y="140.274554"/>
     <use style="fill:#ff7f0e;stroke:#ff7f0e;" x="177.800113" xlink:href="#mbbb2a9d153" y="91.303389"/>
     <use style="fill:#ff7f0e;stroke:#ff7f0e;" x="191.192113" xlink:href="#mbbb2a9d153" y="63.592866"/>
     <use style="fill:#ff7f0e;stroke:#ff7f0e;" x="204.584113" xlink:href="#mbbb2a9d153" y="39.422737"/>
    </g>
   </g>
   <g id="line2d_16">
    <defs>
     <path d="M 0 3 
C 0.795609 3 1.55874 2.683901 2.12132 2.12132 
C 2.683901 1.55874 3 0.795609 3 0 
C 3 -0.795609 2.683901 -1.55874 2.12132 -2.12132 
C 1.55874 -2.683901 0.795609 -3 0 -3 
C -0.795609 -3 -1.55874 -2.683901 -2.12132 -2.12132 
C -2.683901 -1.55874 -3 -0.795609 -3 0 
C -3 0.795609 -2.683901 1.55874 -2.12132 2.12132 
C -1.55874 2.683901 -0.795609 3 0 3 
z
" id="mbab2358add" style="stroke:#2ca02c;"/>
    </defs>
    <g clip-path="url(#pe54a88358d)">
     <use style="fill:#2ca02c;stroke:#2ca02c;" x="45.554113" xlink:href="#mbab2358add" y="20.19216"/>
     <use style="fill:#2ca02c;stroke:#2ca02c;" x="63.968113" xlink:href="#mbab2358add" y="43.634306"/>
     <use style="fill:#2ca02c;stroke:#2ca02c;" x="82.382113" xlink:href="#mbab2358add" y="50.920911"/>
     <use style="fill:#2ca02c;stroke:#2ca02c;" x="100.796113" xlink:href="#mbab2358add" y="71.262726"/>
     <use style="fill:#2ca02c;stroke:#2ca02c;" x="119.210113" xlink:href="#mbab2358add" y="88.159214"/>
     <use style="fill:#2ca02c;stroke:#2ca02c;" x="137.624113" xlink:href="#mbab2358add" y="111.894329"/>
     <use style="fill:#2ca02c;stroke:#2ca02c;" x="156.038113" xlink:href="#mbab2358add" y="103.604731"/>
     <use style="fill:#2ca02c;stroke:#2ca02c;" x="174.452113" xlink:href="#mbab2358add" y="77.195834"/>
     <use style="fill:#2ca02c;stroke:#2ca02c;" x="192.866113" xlink:href="#mbab2358add" y="67.749304"/>
     <use style="fill:#2ca02c;stroke:#2ca02c;" x="211.280113" xlink:href="#mbab2358add" y="25.035341"/>
     <use style="fill:#2ca02c;stroke:#2ca02c;" x="229.694113" xlink:href="#mbab2358add" y="42.85525"/>
    </g>
   </g>
   <g id="patch_4">
    <path d="M 38.054688 179.064 
L 38.054688 7.2 
" style="fill:none;stroke:#000000;stroke-linecap:square;stroke-linejoin:miter;stroke-width:0.8;"/>
   </g>
   <g id="patch_5">
    <path d="M 238.934687 179.064 
L 238.934687 7.2 
" style="fill:none;stroke:#000000;stroke-linecap:square;stroke-linejoin:miter;stroke-width:0.8;"/>
   </g>
   <g id="patch_6">
    <path d="M 38.054688 179.064 
L 238.934687 179.064 
" style="fill:none;stroke:#000000;stroke-linecap:square;stroke-linejoin:miter;stroke-width:0.8;"/>
   </g>
   <g id="patch_7">
    <path d="M 38.054688 7.2 
L 238.934687 7.2 
" style="fill:none;stroke:#000000;stroke-linecap:square;stroke-linejoin:miter;stroke-width:0.8;"/>
   </g>
  </g>
 </g>
 <defs>
  <clipPath id="pe54a88358d">
   <rect height="171.864" width="200.88" x="38.054688" y="7.2"/>
  </clipPath>
 </defs>
</svg>
