<?xml version="1.0" encoding="utf-8" standalone="no"?>
<!DOCTYPE svg PUBLIC "-//W3C//DTD SVG 1.1//EN"
  "http://www.w3.org/Graphics/SVG/1.1/DTD/svg11.dtd">
<!-- Created with matplotlib (https://matplotlib.org/) -->
<svg height="437.385325pt" version="1.1" viewBox="0 0 576.033817 437.385325" width="576.033817pt" xmlns="http://www.w3.org/2000/svg" xmlns:xlink="http://www.w3.org/1999/xlink">
 <defs>
  <style type="text/css">*{stroke-linecap:butt;stroke-linejoin:round;}</style>
 </defs>
 <g id="figure_1">
  <g id="patch_1">
   <path d="M 0 437.385325 
L 576.033817 437.385325 
L 576.033817 0 
L 0 0 
z
" style="fill:none;"/>
  </g>
  <g id="axes_1">
   <g id="patch_2">
    <path d="M 61.410938 385.311888 
L 568.833818 385.311888 
L 568.833818 7.2 
L 61.410938 7.2 
z
" style="fill:none;"/>
   </g>
   <g id="matplotlib.axis_1">
    <g id="xtick_1">
     <g id="line2d_1">
      <path clip-path="url(#pc5beb2d100)" d="M 61.410938 385.311888 
L 61.410938 7.2 
" style="fill:none;stroke:#b0b0b0;stroke-linecap:square;stroke-width:0.8;"/>
     </g>
     <g id="line2d_2">
      <defs>
       <path d="M 0 0 
L 0 3.5 
" id="m005f0a59be" style="stroke:#000000;stroke-width:0.8;"/>
      </defs>
      <g>
       <use style="stroke:#000000;stroke-width:0.8;" x="61.410938" xlink:href="#m005f0a59be" y="385.311888"/>
      </g>
     </g>
     <g id="text_1">
      <!-- 0.0 -->
      <g transform="translate(49.483594 403.709544)scale(0.15 -0.15)">
       <defs>
        <path d="M 31.78125 66.40625 
Q 24.171875 66.40625 20.328125 58.90625 
Q 16.5 51.421875 16.5 36.375 
Q 16.5 21.390625 20.328125 13.890625 
Q 24.171875 6.390625 31.78125 6.390625 
Q 39.453125 6.390625 43.28125 13.890625 
Q 47.125 21.390625 47.125 36.375 
Q 47.125 51.421875 43.28125 58.90625 
Q 39.453125 66.40625 31.78125 66.40625 
z
M 31.78125 74.21875 
Q 44.046875 74.21875 50.515625 64.515625 
Q 56.984375 54.828125 56.984375 36.375 
Q 56.984375 17.96875 50.515625 8.265625 
Q 44.046875 -1.421875 31.78125 -1.421875 
Q 19.53125 -1.421875 13.0625 8.265625 
Q 6.59375 17.96875 6.59375 36.375 
Q 6.59375 54.828125 13.0625 64.515625 
Q 19.53125 74.21875 31.78125 74.21875 
z
" id="DejaVuSans-48"/>
        <path d="M 10.6875 12.40625 
L 21 12.40625 
L 21 0 
L 10.6875 0 
z
" id="DejaVuSans-46"/>
       </defs>
       <use xlink:href="#DejaVuSans-48"/>
       <use x="63.623047" xlink:href="#DejaVuSans-46"/>
       <use x="95.410156" xlink:href="#DejaVuSans-48"/>
      </g>
     </g>
    </g>
    <g id="xtick_2">
     <g id="line2d_3">
      <path clip-path="url(#pc5beb2d100)" d="M 120.413598 385.311888 
L 120.413598 7.2 
" style="fill:none;stroke:#b0b0b0;stroke-linecap:square;stroke-width:0.8;"/>
     </g>
     <g id="line2d_4">
      <g>
       <use style="stroke:#000000;stroke-width:0.8;" x="120.413598" xlink:href="#m005f0a59be" y="385.311888"/>
      </g>
     </g>
     <g id="text_2">
      <!-- 0.1 -->
      <g transform="translate(108.486254 403.709544)scale(0.15 -0.15)">
       <defs>
        <path d="M 12.40625 8.296875 
L 28.515625 8.296875 
L 28.515625 63.921875 
L 10.984375 60.40625 
L 10.984375 69.390625 
L 28.421875 72.90625 
L 38.28125 72.90625 
L 38.28125 8.296875 
L 54.390625 8.296875 
L 54.390625 0 
L 12.40625 0 
z
" id="DejaVuSans-49"/>
       </defs>
       <use xlink:href="#DejaVuSans-48"/>
       <use x="63.623047" xlink:href="#DejaVuSans-46"/>
       <use x="95.410156" xlink:href="#DejaVuSans-49"/>
      </g>
     </g>
    </g>
    <g id="xtick_3">
     <g id="line2d_5">
      <path clip-path="url(#pc5beb2d100)" d="M 179.416258 385.311888 
L 179.416258 7.2 
" style="fill:none;stroke:#b0b0b0;stroke-linecap:square;stroke-width:0.8;"/>
     </g>
     <g id="line2d_6">
      <g>
       <use style="stroke:#000000;stroke-width:0.8;" x="179.416258" xlink:href="#m005f0a59be" y="385.311888"/>
      </g>
     </g>
     <g id="text_3">
      <!-- 0.2 -->
      <g transform="translate(167.488915 403.709544)scale(0.15 -0.15)">
       <defs>
        <path d="M 19.1875 8.296875 
L 53.609375 8.296875 
L 53.609375 0 
L 7.328125 0 
L 7.328125 8.296875 
Q 12.9375 14.109375 22.625 23.890625 
Q 32.328125 33.6875 34.8125 36.53125 
Q 39.546875 41.84375 41.421875 45.53125 
Q 43.3125 49.21875 43.3125 52.78125 
Q 43.3125 58.59375 39.234375 62.25 
Q 35.15625 65.921875 28.609375 65.921875 
Q 23.96875 65.921875 18.8125 64.3125 
Q 13.671875 62.703125 7.8125 59.421875 
L 7.8125 69.390625 
Q 13.765625 71.78125 18.9375 73 
Q 24.125 74.21875 28.421875 74.21875 
Q 39.75 74.21875 46.484375 68.546875 
Q 53.21875 62.890625 53.21875 53.421875 
Q 53.21875 48.921875 51.53125 44.890625 
Q 49.859375 40.875 45.40625 35.40625 
Q 44.1875 33.984375 37.640625 27.21875 
Q 31.109375 20.453125 19.1875 8.296875 
z
" id="DejaVuSans-50"/>
       </defs>
       <use xlink:href="#DejaVuSans-48"/>
       <use x="63.623047" xlink:href="#DejaVuSans-46"/>
       <use x="95.410156" xlink:href="#DejaVuSans-50"/>
      </g>
     </g>
    </g>
    <g id="xtick_4">
     <g id="line2d_7">
      <path clip-path="url(#pc5beb2d100)" d="M 238.418919 385.311888 
L 238.418919 7.2 
" style="fill:none;stroke:#b0b0b0;stroke-linecap:square;stroke-width:0.8;"/>
     </g>
     <g id="line2d_8">
      <g>
       <use style="stroke:#000000;stroke-width:0.8;" x="238.418919" xlink:href="#m005f0a59be" y="385.311888"/>
      </g>
     </g>
     <g id="text_4">
      <!-- 0.3 -->
      <g transform="translate(226.491575 403.709544)scale(0.15 -0.15)">
       <defs>
        <path d="M 40.578125 39.3125 
Q 47.65625 37.796875 51.625 33 
Q 55.609375 28.21875 55.609375 21.1875 
Q 55.609375 10.40625 48.1875 4.484375 
Q 40.765625 -1.421875 27.09375 -1.421875 
Q 22.515625 -1.421875 17.65625 -0.515625 
Q 12.796875 0.390625 7.625 2.203125 
L 7.625 11.71875 
Q 11.71875 9.328125 16.59375 8.109375 
Q 21.484375 6.890625 26.8125 6.890625 
Q 36.078125 6.890625 40.9375 10.546875 
Q 45.796875 14.203125 45.796875 21.1875 
Q 45.796875 27.640625 41.28125 31.265625 
Q 36.765625 34.90625 28.71875 34.90625 
L 20.21875 34.90625 
L 20.21875 43.015625 
L 29.109375 43.015625 
Q 36.375 43.015625 40.234375 45.921875 
Q 44.09375 48.828125 44.09375 54.296875 
Q 44.09375 59.90625 40.109375 62.90625 
Q 36.140625 65.921875 28.71875 65.921875 
Q 24.65625 65.921875 20.015625 65.03125 
Q 15.375 64.15625 9.8125 62.3125 
L 9.8125 71.09375 
Q 15.4375 72.65625 20.34375 73.4375 
Q 25.25 74.21875 29.59375 74.21875 
Q 40.828125 74.21875 47.359375 69.109375 
Q 53.90625 64.015625 53.90625 55.328125 
Q 53.90625 49.265625 50.4375 45.09375 
Q 46.96875 40.921875 40.578125 39.3125 
z
" id="DejaVuSans-51"/>
       </defs>
       <use xlink:href="#DejaVuSans-48"/>
       <use x="63.623047" xlink:href="#DejaVuSans-46"/>
       <use x="95.410156" xlink:href="#DejaVuSans-51"/>
      </g>
     </g>
    </g>
    <g id="xtick_5">
     <g id="line2d_9">
      <path clip-path="url(#pc5beb2d100)" d="M 297.421579 385.311888 
L 297.421579 7.2 
" style="fill:none;stroke:#b0b0b0;stroke-linecap:square;stroke-width:0.8;"/>
     </g>
     <g id="line2d_10">
      <g>
       <use style="stroke:#000000;stroke-width:0.8;" x="297.421579" xlink:href="#m005f0a59be" y="385.311888"/>
      </g>
     </g>
     <g id="text_5">
      <!-- 0.4 -->
      <g transform="translate(285.494236 403.709544)scale(0.15 -0.15)">
       <defs>
        <path d="M 37.796875 64.3125 
L 12.890625 25.390625 
L 37.796875 25.390625 
z
M 35.203125 72.90625 
L 47.609375 72.90625 
L 47.609375 25.390625 
L 58.015625 25.390625 
L 58.015625 17.1875 
L 47.609375 17.1875 
L 47.609375 0 
L 37.796875 0 
L 37.796875 17.1875 
L 4.890625 17.1875 
L 4.890625 26.703125 
z
" id="DejaVuSans-52"/>
       </defs>
       <use xlink:href="#DejaVuSans-48"/>
       <use x="63.623047" xlink:href="#DejaVuSans-46"/>
       <use x="95.410156" xlink:href="#DejaVuSans-52"/>
      </g>
     </g>
    </g>
    <g id="xtick_6">
     <g id="line2d_11">
      <path clip-path="url(#pc5beb2d100)" d="M 356.42424 385.311888 
L 356.42424 7.2 
" style="fill:none;stroke:#b0b0b0;stroke-linecap:square;stroke-width:0.8;"/>
     </g>
     <g id="line2d_12">
      <g>
       <use style="stroke:#000000;stroke-width:0.8;" x="356.42424" xlink:href="#m005f0a59be" y="385.311888"/>
      </g>
     </g>
     <g id="text_6">
      <!-- 0.5 -->
      <g transform="translate(344.496896 403.709544)scale(0.15 -0.15)">
       <defs>
        <path d="M 10.796875 72.90625 
L 49.515625 72.90625 
L 49.515625 64.59375 
L 19.828125 64.59375 
L 19.828125 46.734375 
Q 21.96875 47.46875 24.109375 47.828125 
Q 26.265625 48.1875 28.421875 48.1875 
Q 40.625 48.1875 47.75 41.5 
Q 54.890625 34.8125 54.890625 23.390625 
Q 54.890625 11.625 47.5625 5.09375 
Q 40.234375 -1.421875 26.90625 -1.421875 
Q 22.3125 -1.421875 17.546875 -0.640625 
Q 12.796875 0.140625 7.71875 1.703125 
L 7.71875 11.625 
Q 12.109375 9.234375 16.796875 8.0625 
Q 21.484375 6.890625 26.703125 6.890625 
Q 35.15625 6.890625 40.078125 11.328125 
Q 45.015625 15.765625 45.015625 23.390625 
Q 45.015625 31 40.078125 35.4375 
Q 35.15625 39.890625 26.703125 39.890625 
Q 22.75 39.890625 18.8125 39.015625 
Q 14.890625 38.140625 10.796875 36.28125 
z
" id="DejaVuSans-53"/>
       </defs>
       <use xlink:href="#DejaVuSans-48"/>
       <use x="63.623047" xlink:href="#DejaVuSans-46"/>
       <use x="95.410156" xlink:href="#DejaVuSans-53"/>
      </g>
     </g>
    </g>
    <g id="xtick_7">
     <g id="line2d_13">
      <path clip-path="url(#pc5beb2d100)" d="M 415.4269 385.311888 
L 415.4269 7.2 
" style="fill:none;stroke:#b0b0b0;stroke-linecap:square;stroke-width:0.8;"/>
     </g>
     <g id="line2d_14">
      <g>
       <use style="stroke:#000000;stroke-width:0.8;" x="415.4269" xlink:href="#m005f0a59be" y="385.311888"/>
      </g>
     </g>
     <g id="text_7">
      <!-- 0.6 -->
      <g transform="translate(403.499557 403.709544)scale(0.15 -0.15)">
       <defs>
        <path d="M 33.015625 40.375 
Q 26.375 40.375 22.484375 35.828125 
Q 18.609375 31.296875 18.609375 23.390625 
Q 18.609375 15.53125 22.484375 10.953125 
Q 26.375 6.390625 33.015625 6.390625 
Q 39.65625 6.390625 43.53125 10.953125 
Q 47.40625 15.53125 47.40625 23.390625 
Q 47.40625 31.296875 43.53125 35.828125 
Q 39.65625 40.375 33.015625 40.375 
z
M 52.59375 71.296875 
L 52.59375 62.3125 
Q 48.875 64.0625 45.09375 64.984375 
Q 41.3125 65.921875 37.59375 65.921875 
Q 27.828125 65.921875 22.671875 59.328125 
Q 17.53125 52.734375 16.796875 39.40625 
Q 19.671875 43.65625 24.015625 45.921875 
Q 28.375 48.1875 33.59375 48.1875 
Q 44.578125 48.1875 50.953125 41.515625 
Q 57.328125 34.859375 57.328125 23.390625 
Q 57.328125 12.15625 50.6875 5.359375 
Q 44.046875 -1.421875 33.015625 -1.421875 
Q 20.359375 -1.421875 13.671875 8.265625 
Q 6.984375 17.96875 6.984375 36.375 
Q 6.984375 53.65625 15.1875 63.9375 
Q 23.390625 74.21875 37.203125 74.21875 
Q 40.921875 74.21875 44.703125 73.484375 
Q 48.484375 72.75 52.59375 71.296875 
z
" id="DejaVuSans-54"/>
       </defs>
       <use xlink:href="#DejaVuSans-48"/>
       <use x="63.623047" xlink:href="#DejaVuSans-46"/>
       <use x="95.410156" xlink:href="#DejaVuSans-54"/>
      </g>
     </g>
    </g>
    <g id="xtick_8">
     <g id="line2d_15">
      <path clip-path="url(#pc5beb2d100)" d="M 474.429561 385.311888 
L 474.429561 7.2 
" style="fill:none;stroke:#b0b0b0;stroke-linecap:square;stroke-width:0.8;"/>
     </g>
     <g id="line2d_16">
      <g>
       <use style="stroke:#000000;stroke-width:0.8;" x="474.429561" xlink:href="#m005f0a59be" y="385.311888"/>
      </g>
     </g>
     <g id="text_8">
      <!-- 0.7 -->
      <g transform="translate(462.502217 403.709544)scale(0.15 -0.15)">
       <defs>
        <path d="M 8.203125 72.90625 
L 55.078125 72.90625 
L 55.078125 68.703125 
L 28.609375 0 
L 18.3125 0 
L 43.21875 64.59375 
L 8.203125 64.59375 
z
" id="DejaVuSans-55"/>
       </defs>
       <use xlink:href="#DejaVuSans-48"/>
       <use x="63.623047" xlink:href="#DejaVuSans-46"/>
       <use x="95.410156" xlink:href="#DejaVuSans-55"/>
      </g>
     </g>
    </g>
    <g id="xtick_9">
     <g id="line2d_17">
      <path clip-path="url(#pc5beb2d100)" d="M 533.432221 385.311888 
L 533.432221 7.2 
" style="fill:none;stroke:#b0b0b0;stroke-linecap:square;stroke-width:0.8;"/>
     </g>
     <g id="line2d_18">
      <g>
       <use style="stroke:#000000;stroke-width:0.8;" x="533.432221" xlink:href="#m005f0a59be" y="385.311888"/>
      </g>
     </g>
     <g id="text_9">
      <!-- 0.8 -->
      <g transform="translate(521.504877 403.709544)scale(0.15 -0.15)">
       <defs>
        <path d="M 31.78125 34.625 
Q 24.75 34.625 20.71875 30.859375 
Q 16.703125 27.09375 16.703125 20.515625 
Q 16.703125 13.921875 20.71875 10.15625 
Q 24.75 6.390625 31.78125 6.390625 
Q 38.8125 6.390625 42.859375 10.171875 
Q 46.921875 13.96875 46.921875 20.515625 
Q 46.921875 27.09375 42.890625 30.859375 
Q 38.875 34.625 31.78125 34.625 
z
M 21.921875 38.8125 
Q 15.578125 40.375 12.03125 44.71875 
Q 8.5 49.078125 8.5 55.328125 
Q 8.5 64.0625 14.71875 69.140625 
Q 20.953125 74.21875 31.78125 74.21875 
Q 42.671875 74.21875 48.875 69.140625 
Q 55.078125 64.0625 55.078125 55.328125 
Q 55.078125 49.078125 51.53125 44.71875 
Q 48 40.375 41.703125 38.8125 
Q 48.828125 37.15625 52.796875 32.3125 
Q 56.78125 27.484375 56.78125 20.515625 
Q 56.78125 9.90625 50.3125 4.234375 
Q 43.84375 -1.421875 31.78125 -1.421875 
Q 19.734375 -1.421875 13.25 4.234375 
Q 6.78125 9.90625 6.78125 20.515625 
Q 6.78125 27.484375 10.78125 32.3125 
Q 14.796875 37.15625 21.921875 38.8125 
z
M 18.3125 54.390625 
Q 18.3125 48.734375 21.84375 45.5625 
Q 25.390625 42.390625 31.78125 42.390625 
Q 38.140625 42.390625 41.71875 45.5625 
Q 45.3125 48.734375 45.3125 54.390625 
Q 45.3125 60.0625 41.71875 63.234375 
Q 38.140625 66.40625 31.78125 66.40625 
Q 25.390625 66.40625 21.84375 63.234375 
Q 18.3125 60.0625 18.3125 54.390625 
z
" id="DejaVuSans-56"/>
       </defs>
       <use xlink:href="#DejaVuSans-48"/>
       <use x="63.623047" xlink:href="#DejaVuSans-46"/>
       <use x="95.410156" xlink:href="#DejaVuSans-56"/>
      </g>
     </g>
    </g>
    <g id="text_10">
     <!-- Raman Time (ms) -->
     <g transform="translate(226.488003 426.02595)scale(0.2 -0.2)">
      <defs>
       <path d="M 44.390625 34.1875 
Q 47.5625 33.109375 50.5625 29.59375 
Q 53.5625 26.078125 56.59375 19.921875 
L 66.609375 0 
L 56 0 
L 46.6875 18.703125 
Q 43.0625 26.03125 39.671875 28.421875 
Q 36.28125 30.8125 30.421875 30.8125 
L 19.671875 30.8125 
L 19.671875 0 
L 9.8125 0 
L 9.8125 72.90625 
L 32.078125 72.90625 
Q 44.578125 72.90625 50.734375 67.671875 
Q 56.890625 62.453125 56.890625 51.90625 
Q 56.890625 45.015625 53.6875 40.46875 
Q 50.484375 35.9375 44.390625 34.1875 
z
M 19.671875 64.796875 
L 19.671875 38.921875 
L 32.078125 38.921875 
Q 39.203125 38.921875 42.84375 42.21875 
Q 46.484375 45.515625 46.484375 51.90625 
Q 46.484375 58.296875 42.84375 61.546875 
Q 39.203125 64.796875 32.078125 64.796875 
z
" id="DejaVuSans-82"/>
       <path d="M 34.28125 27.484375 
Q 23.390625 27.484375 19.1875 25 
Q 14.984375 22.515625 14.984375 16.5 
Q 14.984375 11.71875 18.140625 8.90625 
Q 21.296875 6.109375 26.703125 6.109375 
Q 34.1875 6.109375 38.703125 11.40625 
Q 43.21875 16.703125 43.21875 25.484375 
L 43.21875 27.484375 
z
M 52.203125 31.203125 
L 52.203125 0 
L 43.21875 0 
L 43.21875 8.296875 
Q 40.140625 3.328125 35.546875 0.953125 
Q 30.953125 -1.421875 24.3125 -1.421875 
Q 15.921875 -1.421875 10.953125 3.296875 
Q 6 8.015625 6 15.921875 
Q 6 25.140625 12.171875 29.828125 
Q 18.359375 34.515625 30.609375 34.515625 
L 43.21875 34.515625 
L 43.21875 35.40625 
Q 43.21875 41.609375 39.140625 45 
Q 35.0625 48.390625 27.6875 48.390625 
Q 23 48.390625 18.546875 47.265625 
Q 14.109375 46.140625 10.015625 43.890625 
L 10.015625 52.203125 
Q 14.9375 54.109375 19.578125 55.046875 
Q 24.21875 56 28.609375 56 
Q 40.484375 56 46.34375 49.84375 
Q 52.203125 43.703125 52.203125 31.203125 
z
" id="DejaVuSans-97"/>
       <path d="M 52 44.1875 
Q 55.375 50.25 60.0625 53.125 
Q 64.75 56 71.09375 56 
Q 79.640625 56 84.28125 50.015625 
Q 88.921875 44.046875 88.921875 33.015625 
L 88.921875 0 
L 79.890625 0 
L 79.890625 32.71875 
Q 79.890625 40.578125 77.09375 44.375 
Q 74.3125 48.1875 68.609375 48.1875 
Q 61.625 48.1875 57.5625 43.546875 
Q 53.515625 38.921875 53.515625 30.90625 
L 53.515625 0 
L 44.484375 0 
L 44.484375 32.71875 
Q 44.484375 40.625 41.703125 44.40625 
Q 38.921875 48.1875 33.109375 48.1875 
Q 26.21875 48.1875 22.15625 43.53125 
Q 18.109375 38.875 18.109375 30.90625 
L 18.109375 0 
L 9.078125 0 
L 9.078125 54.6875 
L 18.109375 54.6875 
L 18.109375 46.1875 
Q 21.1875 51.21875 25.484375 53.609375 
Q 29.78125 56 35.6875 56 
Q 41.65625 56 45.828125 52.96875 
Q 50 49.953125 52 44.1875 
z
" id="DejaVuSans-109"/>
       <path d="M 54.890625 33.015625 
L 54.890625 0 
L 45.90625 0 
L 45.90625 32.71875 
Q 45.90625 40.484375 42.875 44.328125 
Q 39.84375 48.1875 33.796875 48.1875 
Q 26.515625 48.1875 22.3125 43.546875 
Q 18.109375 38.921875 18.109375 30.90625 
L 18.109375 0 
L 9.078125 0 
L 9.078125 54.6875 
L 18.109375 54.6875 
L 18.109375 46.1875 
Q 21.34375 51.125 25.703125 53.5625 
Q 30.078125 56 35.796875 56 
Q 45.21875 56 50.046875 50.171875 
Q 54.890625 44.34375 54.890625 33.015625 
z
" id="DejaVuSans-110"/>
       <path id="DejaVuSans-32"/>
       <path d="M -0.296875 72.90625 
L 61.375 72.90625 
L 61.375 64.59375 
L 35.5 64.59375 
L 35.5 0 
L 25.59375 0 
L 25.59375 64.59375 
L -0.296875 64.59375 
z
" id="DejaVuSans-84"/>
       <path d="M 9.421875 54.6875 
L 18.40625 54.6875 
L 18.40625 0 
L 9.421875 0 
z
M 9.421875 75.984375 
L 18.40625 75.984375 
L 18.40625 64.59375 
L 9.421875 64.59375 
z
" id="DejaVuSans-105"/>
       <path d="M 56.203125 29.59375 
L 56.203125 25.203125 
L 14.890625 25.203125 
Q 15.484375 15.921875 20.484375 11.0625 
Q 25.484375 6.203125 34.421875 6.203125 
Q 39.59375 6.203125 44.453125 7.46875 
Q 49.3125 8.734375 54.109375 11.28125 
L 54.109375 2.78125 
Q 49.265625 0.734375 44.1875 -0.34375 
Q 39.109375 -1.421875 33.890625 -1.421875 
Q 20.796875 -1.421875 13.15625 6.1875 
Q 5.515625 13.8125 5.515625 26.8125 
Q 5.515625 40.234375 12.765625 48.109375 
Q 20.015625 56 32.328125 56 
Q 43.359375 56 49.78125 48.890625 
Q 56.203125 41.796875 56.203125 29.59375 
z
M 47.21875 32.234375 
Q 47.125 39.59375 43.09375 43.984375 
Q 39.0625 48.390625 32.421875 48.390625 
Q 24.90625 48.390625 20.390625 44.140625 
Q 15.875 39.890625 15.1875 32.171875 
z
" id="DejaVuSans-101"/>
       <path d="M 31 75.875 
Q 24.46875 64.65625 21.28125 53.65625 
Q 18.109375 42.671875 18.109375 31.390625 
Q 18.109375 20.125 21.3125 9.0625 
Q 24.515625 -2 31 -13.1875 
L 23.1875 -13.1875 
Q 15.875 -1.703125 12.234375 9.375 
Q 8.59375 20.453125 8.59375 31.390625 
Q 8.59375 42.28125 12.203125 53.3125 
Q 15.828125 64.359375 23.1875 75.875 
z
" id="DejaVuSans-40"/>
       <path d="M 44.28125 53.078125 
L 44.28125 44.578125 
Q 40.484375 46.53125 36.375 47.5 
Q 32.28125 48.484375 27.875 48.484375 
Q 21.1875 48.484375 17.84375 46.4375 
Q 14.5 44.390625 14.5 40.28125 
Q 14.5 37.15625 16.890625 35.375 
Q 19.28125 33.59375 26.515625 31.984375 
L 29.59375 31.296875 
Q 39.15625 29.25 43.1875 25.515625 
Q 47.21875 21.78125 47.21875 15.09375 
Q 47.21875 7.46875 41.1875 3.015625 
Q 35.15625 -1.421875 24.609375 -1.421875 
Q 20.21875 -1.421875 15.453125 -0.5625 
Q 10.6875 0.296875 5.421875 2 
L 5.421875 11.28125 
Q 10.40625 8.6875 15.234375 7.390625 
Q 20.0625 6.109375 24.8125 6.109375 
Q 31.15625 6.109375 34.5625 8.28125 
Q 37.984375 10.453125 37.984375 14.40625 
Q 37.984375 18.0625 35.515625 20.015625 
Q 33.0625 21.96875 24.703125 23.78125 
L 21.578125 24.515625 
Q 13.234375 26.265625 9.515625 29.90625 
Q 5.8125 33.546875 5.8125 39.890625 
Q 5.8125 47.609375 11.28125 51.796875 
Q 16.75 56 26.8125 56 
Q 31.78125 56 36.171875 55.265625 
Q 40.578125 54.546875 44.28125 53.078125 
z
" id="DejaVuSans-115"/>
       <path d="M 8.015625 75.875 
L 15.828125 75.875 
Q 23.140625 64.359375 26.78125 53.3125 
Q 30.421875 42.28125 30.421875 31.390625 
Q 30.421875 20.453125 26.78125 9.375 
Q 23.140625 -1.703125 15.828125 -13.1875 
L 8.015625 -13.1875 
Q 14.5 -2 17.703125 9.0625 
Q 20.90625 20.125 20.90625 31.390625 
Q 20.90625 42.671875 17.703125 53.65625 
Q 14.5 64.65625 8.015625 75.875 
z
" id="DejaVuSans-41"/>
      </defs>
      <use xlink:href="#DejaVuSans-82"/>
      <use x="67.232422" xlink:href="#DejaVuSans-97"/>
      <use x="128.511719" xlink:href="#DejaVuSans-109"/>
      <use x="225.923828" xlink:href="#DejaVuSans-97"/>
      <use x="287.203125" xlink:href="#DejaVuSans-110"/>
      <use x="350.582031" xlink:href="#DejaVuSans-32"/>
      <use x="382.369141" xlink:href="#DejaVuSans-84"/>
      <use x="440.328125" xlink:href="#DejaVuSans-105"/>
      <use x="468.111328" xlink:href="#DejaVuSans-109"/>
      <use x="565.523438" xlink:href="#DejaVuSans-101"/>
      <use x="627.046875" xlink:href="#DejaVuSans-32"/>
      <use x="658.833984" xlink:href="#DejaVuSans-40"/>
      <use x="697.847656" xlink:href="#DejaVuSans-109"/>
      <use x="795.259766" xlink:href="#DejaVuSans-115"/>
      <use x="847.359375" xlink:href="#DejaVuSans-41"/>
     </g>
    </g>
   </g>
   <g id="matplotlib.axis_2">
    <g id="ytick_1">
     <g id="line2d_19">
      <path clip-path="url(#pc5beb2d100)" d="M 61.410938 327.140828 
L 568.833818 327.140828 
" style="fill:none;stroke:#b0b0b0;stroke-linecap:square;stroke-width:0.8;"/>
     </g>
     <g id="line2d_20">
      <defs>
       <path d="M 0 0 
L -3.5 0 
" id="mc3ce260a5b" style="stroke:#000000;stroke-width:0.8;"/>
      </defs>
      <g>
       <use style="stroke:#000000;stroke-width:0.8;" x="61.410938" xlink:href="#mc3ce260a5b" y="327.140828"/>
      </g>
     </g>
     <g id="text_11">
      <!-- 0.2 -->
      <g transform="translate(30.55625 332.839656)scale(0.15 -0.15)">
       <use xlink:href="#DejaVuSans-48"/>
       <use x="63.623047" xlink:href="#DejaVuSans-46"/>
       <use x="95.410156" xlink:href="#DejaVuSans-50"/>
      </g>
     </g>
    </g>
    <g id="ytick_2">
     <g id="line2d_21">
      <path clip-path="url(#pc5beb2d100)" d="M 61.410938 181.713179 
L 568.833818 181.713179 
" style="fill:none;stroke:#b0b0b0;stroke-linecap:square;stroke-width:0.8;"/>
     </g>
     <g id="line2d_22">
      <g>
       <use style="stroke:#000000;stroke-width:0.8;" x="61.410938" xlink:href="#mc3ce260a5b" y="181.713179"/>
      </g>
     </g>
     <g id="text_12">
      <!-- 0.6 -->
      <g transform="translate(30.55625 187.412007)scale(0.15 -0.15)">
       <use xlink:href="#DejaVuSans-48"/>
       <use x="63.623047" xlink:href="#DejaVuSans-46"/>
       <use x="95.410156" xlink:href="#DejaVuSans-54"/>
      </g>
     </g>
    </g>
    <g id="ytick_3">
     <g id="line2d_23">
      <path clip-path="url(#pc5beb2d100)" d="M 61.410938 36.28553 
L 568.833818 36.28553 
" style="fill:none;stroke:#b0b0b0;stroke-linecap:square;stroke-width:0.8;"/>
     </g>
     <g id="line2d_24">
      <g>
       <use style="stroke:#000000;stroke-width:0.8;" x="61.410938" xlink:href="#mc3ce260a5b" y="36.28553"/>
      </g>
     </g>
     <g id="text_13">
      <!-- 1.0 -->
      <g transform="translate(30.55625 41.984358)scale(0.15 -0.15)">
       <use xlink:href="#DejaVuSans-49"/>
       <use x="63.623047" xlink:href="#DejaVuSans-46"/>
       <use x="95.410156" xlink:href="#DejaVuSans-48"/>
      </g>
     </g>
    </g>
    <g id="text_14">
     <!-- Fraction of Atomic Ground State -->
     <g transform="translate(22.396875 356.495006)rotate(-90)scale(0.2 -0.2)">
      <defs>
       <path d="M 9.8125 72.90625 
L 51.703125 72.90625 
L 51.703125 64.59375 
L 19.671875 64.59375 
L 19.671875 43.109375 
L 48.578125 43.109375 
L 48.578125 34.8125 
L 19.671875 34.8125 
L 19.671875 0 
L 9.8125 0 
z
" id="DejaVuSans-70"/>
       <path d="M 41.109375 46.296875 
Q 39.59375 47.171875 37.8125 47.578125 
Q 36.03125 48 33.890625 48 
Q 26.265625 48 22.1875 43.046875 
Q 18.109375 38.09375 18.109375 28.8125 
L 18.109375 0 
L 9.078125 0 
L 9.078125 54.6875 
L 18.109375 54.6875 
L 18.109375 46.1875 
Q 20.953125 51.171875 25.484375 53.578125 
Q 30.03125 56 36.53125 56 
Q 37.453125 56 38.578125 55.875 
Q 39.703125 55.765625 41.0625 55.515625 
z
" id="DejaVuSans-114"/>
       <path d="M 48.78125 52.59375 
L 48.78125 44.1875 
Q 44.96875 46.296875 41.140625 47.34375 
Q 37.3125 48.390625 33.40625 48.390625 
Q 24.65625 48.390625 19.8125 42.84375 
Q 14.984375 37.3125 14.984375 27.296875 
Q 14.984375 17.28125 19.8125 11.734375 
Q 24.65625 6.203125 33.40625 6.203125 
Q 37.3125 6.203125 41.140625 7.25 
Q 44.96875 8.296875 48.78125 10.40625 
L 48.78125 2.09375 
Q 45.015625 0.34375 40.984375 -0.53125 
Q 36.96875 -1.421875 32.421875 -1.421875 
Q 20.0625 -1.421875 12.78125 6.34375 
Q 5.515625 14.109375 5.515625 27.296875 
Q 5.515625 40.671875 12.859375 48.328125 
Q 20.21875 56 33.015625 56 
Q 37.15625 56 41.109375 55.140625 
Q 45.0625 54.296875 48.78125 52.59375 
z
" id="DejaVuSans-99"/>
       <path d="M 18.3125 70.21875 
L 18.3125 54.6875 
L 36.8125 54.6875 
L 36.8125 47.703125 
L 18.3125 47.703125 
L 18.3125 18.015625 
Q 18.3125 11.328125 20.140625 9.421875 
Q 21.96875 7.515625 27.59375 7.515625 
L 36.8125 7.515625 
L 36.8125 0 
L 27.59375 0 
Q 17.1875 0 13.234375 3.875 
Q 9.28125 7.765625 9.28125 18.015625 
L 9.28125 47.703125 
L 2.6875 47.703125 
L 2.6875 54.6875 
L 9.28125 54.6875 
L 9.28125 70.21875 
z
" id="DejaVuSans-116"/>
       <path d="M 30.609375 48.390625 
Q 23.390625 48.390625 19.1875 42.75 
Q 14.984375 37.109375 14.984375 27.296875 
Q 14.984375 17.484375 19.15625 11.84375 
Q 23.34375 6.203125 30.609375 6.203125 
Q 37.796875 6.203125 41.984375 11.859375 
Q 46.1875 17.53125 46.1875 27.296875 
Q 46.1875 37.015625 41.984375 42.703125 
Q 37.796875 48.390625 30.609375 48.390625 
z
M 30.609375 56 
Q 42.328125 56 49.015625 48.375 
Q 55.71875 40.765625 55.71875 27.296875 
Q 55.71875 13.875 49.015625 6.21875 
Q 42.328125 -1.421875 30.609375 -1.421875 
Q 18.84375 -1.421875 12.171875 6.21875 
Q 5.515625 13.875 5.515625 27.296875 
Q 5.515625 40.765625 12.171875 48.375 
Q 18.84375 56 30.609375 56 
z
" id="DejaVuSans-111"/>
       <path d="M 37.109375 75.984375 
L 37.109375 68.5 
L 28.515625 68.5 
Q 23.6875 68.5 21.796875 66.546875 
Q 19.921875 64.59375 19.921875 59.515625 
L 19.921875 54.6875 
L 34.71875 54.6875 
L 34.71875 47.703125 
L 19.921875 47.703125 
L 19.921875 0 
L 10.890625 0 
L 10.890625 47.703125 
L 2.296875 47.703125 
L 2.296875 54.6875 
L 10.890625 54.6875 
L 10.890625 58.5 
Q 10.890625 67.625 15.140625 71.796875 
Q 19.390625 75.984375 28.609375 75.984375 
z
" id="DejaVuSans-102"/>
       <path d="M 34.1875 63.1875 
L 20.796875 26.90625 
L 47.609375 26.90625 
z
M 28.609375 72.90625 
L 39.796875 72.90625 
L 67.578125 0 
L 57.328125 0 
L 50.6875 18.703125 
L 17.828125 18.703125 
L 11.1875 0 
L 0.78125 0 
z
" id="DejaVuSans-65"/>
       <path d="M 59.515625 10.40625 
L 59.515625 29.984375 
L 43.40625 29.984375 
L 43.40625 38.09375 
L 69.28125 38.09375 
L 69.28125 6.78125 
Q 63.578125 2.734375 56.6875 0.65625 
Q 49.8125 -1.421875 42 -1.421875 
Q 24.90625 -1.421875 15.25 8.5625 
Q 5.609375 18.5625 5.609375 36.375 
Q 5.609375 54.25 15.25 64.234375 
Q 24.90625 74.21875 42 74.21875 
Q 49.125 74.21875 55.546875 72.453125 
Q 61.96875 70.703125 67.390625 67.28125 
L 67.390625 56.78125 
Q 61.921875 61.421875 55.765625 63.765625 
Q 49.609375 66.109375 42.828125 66.109375 
Q 29.4375 66.109375 22.71875 58.640625 
Q 16.015625 51.171875 16.015625 36.375 
Q 16.015625 21.625 22.71875 14.15625 
Q 29.4375 6.6875 42.828125 6.6875 
Q 48.046875 6.6875 52.140625 7.59375 
Q 56.25 8.5 59.515625 10.40625 
z
" id="DejaVuSans-71"/>
       <path d="M 8.5 21.578125 
L 8.5 54.6875 
L 17.484375 54.6875 
L 17.484375 21.921875 
Q 17.484375 14.15625 20.5 10.265625 
Q 23.53125 6.390625 29.59375 6.390625 
Q 36.859375 6.390625 41.078125 11.03125 
Q 45.3125 15.671875 45.3125 23.6875 
L 45.3125 54.6875 
L 54.296875 54.6875 
L 54.296875 0 
L 45.3125 0 
L 45.3125 8.40625 
Q 42.046875 3.421875 37.71875 1 
Q 33.40625 -1.421875 27.6875 -1.421875 
Q 18.265625 -1.421875 13.375 4.4375 
Q 8.5 10.296875 8.5 21.578125 
z
M 31.109375 56 
z
" id="DejaVuSans-117"/>
       <path d="M 45.40625 46.390625 
L 45.40625 75.984375 
L 54.390625 75.984375 
L 54.390625 0 
L 45.40625 0 
L 45.40625 8.203125 
Q 42.578125 3.328125 38.25 0.953125 
Q 33.9375 -1.421875 27.875 -1.421875 
Q 17.96875 -1.421875 11.734375 6.484375 
Q 5.515625 14.40625 5.515625 27.296875 
Q 5.515625 40.1875 11.734375 48.09375 
Q 17.96875 56 27.875 56 
Q 33.9375 56 38.25 53.625 
Q 42.578125 51.265625 45.40625 46.390625 
z
M 14.796875 27.296875 
Q 14.796875 17.390625 18.875 11.75 
Q 22.953125 6.109375 30.078125 6.109375 
Q 37.203125 6.109375 41.296875 11.75 
Q 45.40625 17.390625 45.40625 27.296875 
Q 45.40625 37.203125 41.296875 42.84375 
Q 37.203125 48.484375 30.078125 48.484375 
Q 22.953125 48.484375 18.875 42.84375 
Q 14.796875 37.203125 14.796875 27.296875 
z
" id="DejaVuSans-100"/>
       <path d="M 53.515625 70.515625 
L 53.515625 60.890625 
Q 47.90625 63.578125 42.921875 64.890625 
Q 37.9375 66.21875 33.296875 66.21875 
Q 25.25 66.21875 20.875 63.09375 
Q 16.5 59.96875 16.5 54.203125 
Q 16.5 49.359375 19.40625 46.890625 
Q 22.3125 44.4375 30.421875 42.921875 
L 36.375 41.703125 
Q 47.40625 39.59375 52.65625 34.296875 
Q 57.90625 29 57.90625 20.125 
Q 57.90625 9.515625 50.796875 4.046875 
Q 43.703125 -1.421875 29.984375 -1.421875 
Q 24.8125 -1.421875 18.96875 -0.25 
Q 13.140625 0.921875 6.890625 3.21875 
L 6.890625 13.375 
Q 12.890625 10.015625 18.65625 8.296875 
Q 24.421875 6.59375 29.984375 6.59375 
Q 38.421875 6.59375 43.015625 9.90625 
Q 47.609375 13.234375 47.609375 19.390625 
Q 47.609375 24.75 44.3125 27.78125 
Q 41.015625 30.8125 33.5 32.328125 
L 27.484375 33.5 
Q 16.453125 35.6875 11.515625 40.375 
Q 6.59375 45.0625 6.59375 53.421875 
Q 6.59375 63.09375 13.40625 68.65625 
Q 20.21875 74.21875 32.171875 74.21875 
Q 37.3125 74.21875 42.625 73.28125 
Q 47.953125 72.359375 53.515625 70.515625 
z
" id="DejaVuSans-83"/>
      </defs>
      <use xlink:href="#DejaVuSans-70"/>
      <use x="50.269531" xlink:href="#DejaVuSans-114"/>
      <use x="91.382812" xlink:href="#DejaVuSans-97"/>
      <use x="152.662109" xlink:href="#DejaVuSans-99"/>
      <use x="207.642578" xlink:href="#DejaVuSans-116"/>
      <use x="246.851562" xlink:href="#DejaVuSans-105"/>
      <use x="274.634766" xlink:href="#DejaVuSans-111"/>
      <use x="335.816406" xlink:href="#DejaVuSans-110"/>
      <use x="399.195312" xlink:href="#DejaVuSans-32"/>
      <use x="430.982422" xlink:href="#DejaVuSans-111"/>
      <use x="492.164062" xlink:href="#DejaVuSans-102"/>
      <use x="527.369141" xlink:href="#DejaVuSans-32"/>
      <use x="559.15625" xlink:href="#DejaVuSans-65"/>
      <use x="625.814453" xlink:href="#DejaVuSans-116"/>
      <use x="665.023438" xlink:href="#DejaVuSans-111"/>
      <use x="726.205078" xlink:href="#DejaVuSans-109"/>
      <use x="823.617188" xlink:href="#DejaVuSans-105"/>
      <use x="851.400391" xlink:href="#DejaVuSans-99"/>
      <use x="906.380859" xlink:href="#DejaVuSans-32"/>
      <use x="938.167969" xlink:href="#DejaVuSans-71"/>
      <use x="1015.658203" xlink:href="#DejaVuSans-114"/>
      <use x="1054.521484" xlink:href="#DejaVuSans-111"/>
      <use x="1115.703125" xlink:href="#DejaVuSans-117"/>
      <use x="1179.082031" xlink:href="#DejaVuSans-110"/>
      <use x="1242.460938" xlink:href="#DejaVuSans-100"/>
      <use x="1305.9375" xlink:href="#DejaVuSans-32"/>
      <use x="1337.724609" xlink:href="#DejaVuSans-83"/>
      <use x="1401.201172" xlink:href="#DejaVuSans-116"/>
      <use x="1440.410156" xlink:href="#DejaVuSans-97"/>
      <use x="1501.689453" xlink:href="#DejaVuSans-116"/>
      <use x="1540.898438" xlink:href="#DejaVuSans-101"/>
     </g>
    </g>
   </g>
   <g id="LineCollection_1">
    <path clip-path="url(#pc5beb2d100)" d="M 61.410938 70.878129 
L 61.410938 27.195881 
" style="fill:none;stroke:#1f77b4;stroke-width:1.5;"/>
    <path clip-path="url(#pc5beb2d100)" d="M 74.391523 72.213105 
L 74.391523 28.43248 
" style="fill:none;stroke:#1f77b4;stroke-width:1.5;"/>
    <path clip-path="url(#pc5beb2d100)" d="M 93.272374 133.210901 
L 93.272374 91.687298 
" style="fill:none;stroke:#1f77b4;stroke-width:1.5;"/>
    <path clip-path="url(#pc5beb2d100)" d="M 121.593651 292.091955 
L 121.593651 263.357111 
" style="fill:none;stroke:#1f77b4;stroke-width:1.5;"/>
    <path clip-path="url(#pc5beb2d100)" d="M 135.75429 360.414268 
L 135.75429 341.484394 
" style="fill:none;stroke:#1f77b4;stroke-width:1.5;"/>
    <path clip-path="url(#pc5beb2d100)" d="M 149.914928 361.986686 
L 149.914928 343.343204 
" style="fill:none;stroke:#1f77b4;stroke-width:1.5;"/>
    <path clip-path="url(#pc5beb2d100)" d="M 178.236205 339.807388 
L 178.236205 316.832678 
" style="fill:none;stroke:#1f77b4;stroke-width:1.5;"/>
    <path clip-path="url(#pc5beb2d100)" d="M 192.396844 293.260836 
L 192.396844 264.573644 
" style="fill:none;stroke:#1f77b4;stroke-width:1.5;"/>
    <path clip-path="url(#pc5beb2d100)" d="M 206.557482 253.553611 
L 206.557482 219.922499 
" style="fill:none;stroke:#1f77b4;stroke-width:1.5;"/>
    <path clip-path="url(#pc5beb2d100)" d="M 220.718121 246.469712 
L 220.718121 213.482657 
" style="fill:none;stroke:#1f77b4;stroke-width:1.5;"/>
    <path clip-path="url(#pc5beb2d100)" d="M 234.878759 242.933625 
L 234.878759 208.203974 
" style="fill:none;stroke:#1f77b4;stroke-width:1.5;"/>
    <path clip-path="url(#pc5beb2d100)" d="M 263.200036 268.70457 
L 263.200036 236.061767 
" style="fill:none;stroke:#1f77b4;stroke-width:1.5;"/>
    <path clip-path="url(#pc5beb2d100)" d="M 291.521313 340.331513 
L 291.521313 317.550833 
" style="fill:none;stroke:#1f77b4;stroke-width:1.5;"/>
    <path clip-path="url(#pc5beb2d100)" d="M 319.84259 358.51617 
L 319.84259 338.696952 
" style="fill:none;stroke:#1f77b4;stroke-width:1.5;"/>
    <path clip-path="url(#pc5beb2d100)" d="M 348.163867 375.119265 
L 348.163867 359.958038 
" style="fill:none;stroke:#1f77b4;stroke-width:1.5;"/>
    <path clip-path="url(#pc5beb2d100)" d="M 376.485144 323.760384 
L 376.485144 299.854893 
" style="fill:none;stroke:#1f77b4;stroke-width:1.5;"/>
    <path clip-path="url(#pc5beb2d100)" d="M 404.806421 315.707083 
L 404.806421 288.766232 
" style="fill:none;stroke:#1f77b4;stroke-width:1.5;"/>
    <path clip-path="url(#pc5beb2d100)" d="M 433.127698 327.399829 
L 433.127698 302.545791 
" style="fill:none;stroke:#1f77b4;stroke-width:1.5;"/>
    <path clip-path="url(#pc5beb2d100)" d="M 461.448975 365.754286 
L 461.448975 348.019805 
" style="fill:none;stroke:#1f77b4;stroke-width:1.5;"/>
    <path clip-path="url(#pc5beb2d100)" d="M 489.770252 382.234211 
L 489.770252 368.692427 
" style="fill:none;stroke:#1f77b4;stroke-width:1.5;"/>
    <path clip-path="url(#pc5beb2d100)" d="M 518.09153 370.799052 
L 518.09153 354.220579 
" style="fill:none;stroke:#1f77b4;stroke-width:1.5;"/>
   </g>
   <g id="line2d_25">
    <path clip-path="url(#pc5beb2d100)" d="M 61.410938 36.28553 
L 62.344113 36.492435 
L 63.277288 36.890728 
L 64.210463 37.479161 
L 65.610226 38.715063 
L 67.009989 40.36959 
L 68.409752 42.435836 
L 69.809514 44.90587 
L 71.209277 47.770767 
L 73.075628 52.187643 
L 74.941978 57.26287 
L 76.808328 62.967764 
L 79.141267 70.936538 
L 81.474205 79.774042 
L 84.27373 91.425047 
L 87.073256 104.092403 
L 90.339369 119.969134 
L 94.07207 139.27756 
L 98.737946 164.633486 
L 114.135337 249.456574 
L 117.868038 268.430101 
L 121.134151 284.024204 
L 124.400264 298.498859 
L 127.19979 309.900813 
L 129.999315 320.288901 
L 132.332254 328.121222 
L 134.665192 335.168661 
L 136.99813 341.404707 
L 138.86448 345.795636 
L 140.73083 349.647003 
L 142.597181 352.954143 
L 144.463531 355.715008 
L 145.863294 357.42739 
L 147.263057 358.833906 
L 148.66282 359.936513 
L 150.062583 360.737941 
L 151.462345 361.241682 
L 152.862108 361.451966 
L 154.261871 361.373743 
L 155.661634 361.012662 
L 157.061397 360.375048 
L 158.461159 359.467871 
L 159.860922 358.298728 
L 161.260685 356.875808 
L 163.127035 354.59903 
L 164.993386 351.908945 
L 166.859736 348.829334 
L 169.192674 344.47057 
L 171.525612 339.594645 
L 174.325138 333.138028 
L 177.124664 326.114161 
L 180.390777 317.339006 
L 184.590065 305.393538 
L 200.920631 258.144349 
L 204.186745 249.673329 
L 207.452858 241.849092 
L 210.252384 235.743888 
L 212.585322 231.128957 
L 214.91826 226.978337 
L 217.251198 223.320073 
L 219.117548 220.764086 
L 220.983899 218.548687 
L 222.850249 216.682248 
L 224.716599 215.171331 
L 226.116362 214.274381 
L 227.516125 213.581457 
L 228.915888 213.093328 
L 230.315651 212.810201 
L 231.715413 212.731724 
L 233.115176 212.856998 
L 234.514939 213.184584 
L 235.914702 213.712514 
L 237.314465 214.438305 
L 239.180815 215.70857 
L 241.047166 217.316783 
L 242.913516 219.253028 
L 244.779866 221.505978 
L 246.646217 224.062974 
L 248.979155 227.665474 
L 251.312093 231.691508 
L 254.111618 237.0362 
L 256.911144 242.884129 
L 260.177257 250.257155 
L 263.909958 259.27783 
L 268.575834 271.200939 
L 276.974411 293.469563 
L 283.506638 310.484021 
L 287.705926 320.848017 
L 291.438627 329.490658 
L 294.70474 336.511312 
L 297.504266 342.068491 
L 300.303791 347.15853 
L 303.103317 351.747663 
L 305.436255 355.169116 
L 307.769193 358.210587 
L 310.102131 360.862331 
L 312.435069 363.117632 
L 314.30142 364.633848 
L 316.16777 365.893402 
L 318.03412 366.896984 
L 319.900471 367.646466 
L 321.766821 368.144875 
L 323.633172 368.396359 
L 325.499522 368.406151 
L 327.365873 368.180525 
L 329.232223 367.726746 
L 331.098573 367.053029 
L 332.964924 366.168474 
L 335.297862 364.781497 
L 337.6308 363.101747 
L 339.963738 361.151994 
L 342.763263 358.490137 
L 345.562789 355.518791 
L 348.828902 351.723098 
L 352.561603 347.044861 
L 357.694067 340.226198 
L 369.358757 324.559421 
L 373.558045 319.352544 
L 377.290746 315.099694 
L 380.55686 311.737527 
L 383.356385 309.161858 
L 386.155911 306.897263 
L 388.488849 305.264275 
L 390.821787 303.874169 
L 393.154725 302.735875 
L 395.487663 301.856256 
L 397.820601 301.240094 
L 400.153539 300.890106 
L 402.486477 300.80696 
L 404.819415 300.989313 
L 407.152353 301.433865 
L 409.485291 302.135422 
L 411.818229 303.086973 
L 414.151167 304.279778 
L 416.484105 305.70347 
L 419.283631 307.69984 
L 422.083156 309.988327 
L 424.882682 312.543177 
L 428.148795 315.823023 
L 431.881496 319.907308 
L 436.080785 324.839951 
L 441.679836 331.785743 
L 455.677464 349.337097 
L 460.34334 354.739789 
L 464.076041 358.751485 
L 467.808742 362.427607 
L 471.074855 365.332049 
L 474.340968 367.917793 
L 477.140494 369.864663 
L 479.940019 371.552223 
L 482.739545 372.973535 
L 485.539071 374.124609 
L 488.338596 375.004367 
L 491.138122 375.614588 
L 493.937648 375.95982 
L 496.737173 376.047263 
L 499.536699 375.886628 
L 502.336224 375.489974 
L 505.13575 374.871526 
L 507.935276 374.047465 
L 511.201389 372.850188 
L 514.467502 371.428533 
L 518.200203 369.571829 
L 522.866079 366.98008 
L 527.531955 364.186619 
L 527.531955 364.186619 
" style="fill:none;stroke:#1f77b4;stroke-linecap:square;stroke-width:1.5;"/>
   </g>
   <g id="line2d_26">
    <defs>
     <path d="M 0 3 
C 0.795609 3 1.55874 2.683901 2.12132 2.12132 
C 2.683901 1.55874 3 0.795609 3 0 
C 3 -0.795609 2.683901 -1.55874 2.12132 -2.12132 
C 1.55874 -2.683901 0.795609 -3 0 -3 
C -0.795609 -3 -1.55874 -2.683901 -2.12132 -2.12132 
C -2.683901 -1.55874 -3 -0.795609 -3 0 
C -3 0.795609 -2.683901 1.55874 -2.12132 2.12132 
C -1.55874 2.683901 -0.795609 3 0 3 
z
" id="mcb2457e3ba" style="stroke:#1f77b4;"/>
    </defs>
    <g clip-path="url(#pc5beb2d100)">
     <use style="fill:#1f77b4;stroke:#1f77b4;" x="61.410938" xlink:href="#mcb2457e3ba" y="49.037005"/>
     <use style="fill:#1f77b4;stroke:#1f77b4;" x="74.391523" xlink:href="#mcb2457e3ba" y="50.322792"/>
     <use style="fill:#1f77b4;stroke:#1f77b4;" x="93.272374" xlink:href="#mcb2457e3ba" y="112.4491"/>
     <use style="fill:#1f77b4;stroke:#1f77b4;" x="121.593651" xlink:href="#mcb2457e3ba" y="277.724533"/>
     <use style="fill:#1f77b4;stroke:#1f77b4;" x="135.75429" xlink:href="#mcb2457e3ba" y="350.949331"/>
     <use style="fill:#1f77b4;stroke:#1f77b4;" x="149.914928" xlink:href="#mcb2457e3ba" y="352.664945"/>
     <use style="fill:#1f77b4;stroke:#1f77b4;" x="178.236205" xlink:href="#mcb2457e3ba" y="328.320033"/>
     <use style="fill:#1f77b4;stroke:#1f77b4;" x="192.396844" xlink:href="#mcb2457e3ba" y="278.91724"/>
     <use style="fill:#1f77b4;stroke:#1f77b4;" x="206.557482" xlink:href="#mcb2457e3ba" y="236.738055"/>
     <use style="fill:#1f77b4;stroke:#1f77b4;" x="220.718121" xlink:href="#mcb2457e3ba" y="229.976185"/>
     <use style="fill:#1f77b4;stroke:#1f77b4;" x="234.878759" xlink:href="#mcb2457e3ba" y="225.5688"/>
     <use style="fill:#1f77b4;stroke:#1f77b4;" x="263.200036" xlink:href="#mcb2457e3ba" y="252.383169"/>
     <use style="fill:#1f77b4;stroke:#1f77b4;" x="291.521313" xlink:href="#mcb2457e3ba" y="328.941173"/>
     <use style="fill:#1f77b4;stroke:#1f77b4;" x="319.84259" xlink:href="#mcb2457e3ba" y="348.606561"/>
     <use style="fill:#1f77b4;stroke:#1f77b4;" x="348.163867" xlink:href="#mcb2457e3ba" y="367.538652"/>
     <use style="fill:#1f77b4;stroke:#1f77b4;" x="376.485144" xlink:href="#mcb2457e3ba" y="311.807639"/>
     <use style="fill:#1f77b4;stroke:#1f77b4;" x="404.806421" xlink:href="#mcb2457e3ba" y="302.236657"/>
     <use style="fill:#1f77b4;stroke:#1f77b4;" x="433.127698" xlink:href="#mcb2457e3ba" y="314.97281"/>
     <use style="fill:#1f77b4;stroke:#1f77b4;" x="461.448975" xlink:href="#mcb2457e3ba" y="356.887045"/>
     <use style="fill:#1f77b4;stroke:#1f77b4;" x="489.770252" xlink:href="#mcb2457e3ba" y="375.463319"/>
     <use style="fill:#1f77b4;stroke:#1f77b4;" x="518.09153" xlink:href="#mcb2457e3ba" y="362.509815"/>
    </g>
   </g>
   <g id="patch_3">
    <path d="M 61.410938 385.311888 
L 61.410938 7.2 
" style="fill:none;stroke:#000000;stroke-linecap:square;stroke-linejoin:miter;stroke-width:0.8;"/>
   </g>
   <g id="patch_4">
    <path d="M 568.833818 385.311888 
L 568.833818 7.2 
" style="fill:none;stroke:#000000;stroke-linecap:square;stroke-linejoin:miter;stroke-width:0.8;"/>
   </g>
   <g id="patch_5">
    <path d="M 61.410938 385.311888 
L 568.833818 385.311888 
" style="fill:none;stroke:#000000;stroke-linecap:square;stroke-linejoin:miter;stroke-width:0.8;"/>
   </g>
   <g id="patch_6">
    <path d="M 61.410938 7.2 
L 568.833818 7.2 
" style="fill:none;stroke:#000000;stroke-linecap:square;stroke-linejoin:miter;stroke-width:0.8;"/>
   </g>
  </g>
 </g>
 <defs>
  <clipPath id="pc5beb2d100">
   <rect height="378.111888" width="507.42288" x="61.410938" y="7.2"/>
  </clipPath>
 </defs>
</svg>
