<?xml version="1.0" encoding="utf-8" standalone="no"?>
<!DOCTYPE svg PUBLIC "-//W3C//DTD SVG 1.1//EN"
  "http://www.w3.org/Graphics/SVG/1.1/DTD/svg11.dtd">
<!-- Created with matplotlib (https://matplotlib.org/) -->
<svg height="202.237188pt" version="1.1" viewBox="0 0 247.308437 202.237188" width="247.308437pt" xmlns="http://www.w3.org/2000/svg" xmlns:xlink="http://www.w3.org/1999/xlink">
 <defs>
  <style type="text/css">*{stroke-linecap:butt;stroke-linejoin:round;}</style>
 </defs>
 <g id="figure_1">
  <g id="patch_1">
   <path d="M 0 202.237188 
L 247.308437 202.237188 
L 247.308437 0 
L 0 0 
z
" style="fill:none;"/>
  </g>
  <g id="axes_1">
   <g id="patch_2">
    <path d="M 38.054688 173.52 
L 238.934687 173.52 
L 238.934687 7.2 
L 38.054688 7.2 
z
" style="fill:none;"/>
   </g>
   <g id="patch_3">
    <path clip-path="url(#p5c0b9c0237)" d="M 38.054688 173.52 
L 238.934687 173.52 
L 238.934687 7.2 
L 38.054688 7.2 
z
" style="fill:#ffffff;opacity:0.9;"/>
   </g>
   <g id="matplotlib.axis_1">
    <g id="xtick_1">
     <g id="line2d_1">
      <path clip-path="url(#p5c0b9c0237)" d="M 63.164688 173.52 
L 63.164688 7.2 
" style="fill:none;stroke:#b0b0b0;stroke-linecap:square;stroke-width:0.8;"/>
     </g>
     <g id="line2d_2">
      <defs>
       <path d="M 0 0 
L 0 3.5 
" id="m005f0a59be" style="stroke:#000000;stroke-width:0.8;"/>
      </defs>
      <g>
       <use style="stroke:#000000;stroke-width:0.8;" x="63.164688" xlink:href="#m005f0a59be" y="173.52"/>
      </g>
     </g>
     <g id="text_1">
      <!-- −10 -->
      <g transform="translate(47.336172 191.917656)scale(0.15 -0.15)">
       <defs>
        <path d="M 10.59375 35.5 
L 73.1875 35.5 
L 73.1875 27.203125 
L 10.59375 27.203125 
z
" id="DejaVuSans-8722"/>
        <path d="M 12.40625 8.296875 
L 28.515625 8.296875 
L 28.515625 63.921875 
L 10.984375 60.40625 
L 10.984375 69.390625 
L 28.421875 72.90625 
L 38.28125 72.90625 
L 38.28125 8.296875 
L 54.390625 8.296875 
L 54.390625 0 
L 12.40625 0 
z
" id="DejaVuSans-49"/>
        <path d="M 31.78125 66.40625 
Q 24.171875 66.40625 20.328125 58.90625 
Q 16.5 51.421875 16.5 36.375 
Q 16.5 21.390625 20.328125 13.890625 
Q 24.171875 6.390625 31.78125 6.390625 
Q 39.453125 6.390625 43.28125 13.890625 
Q 47.125 21.390625 47.125 36.375 
Q 47.125 51.421875 43.28125 58.90625 
Q 39.453125 66.40625 31.78125 66.40625 
z
M 31.78125 74.21875 
Q 44.046875 74.21875 50.515625 64.515625 
Q 56.984375 54.828125 56.984375 36.375 
Q 56.984375 17.96875 50.515625 8.265625 
Q 44.046875 -1.421875 31.78125 -1.421875 
Q 19.53125 -1.421875 13.0625 8.265625 
Q 6.59375 17.96875 6.59375 36.375 
Q 6.59375 54.828125 13.0625 64.515625 
Q 19.53125 74.21875 31.78125 74.21875 
z
" id="DejaVuSans-48"/>
       </defs>
       <use xlink:href="#DejaVuSans-8722"/>
       <use x="83.789062" xlink:href="#DejaVuSans-49"/>
       <use x="147.412109" xlink:href="#DejaVuSans-48"/>
      </g>
     </g>
    </g>
    <g id="xtick_2">
     <g id="line2d_3">
      <path clip-path="url(#p5c0b9c0237)" d="M 146.864688 173.52 
L 146.864688 7.2 
" style="fill:none;stroke:#b0b0b0;stroke-linecap:square;stroke-width:0.8;"/>
     </g>
     <g id="line2d_4">
      <g>
       <use style="stroke:#000000;stroke-width:0.8;" x="146.864688" xlink:href="#m005f0a59be" y="173.52"/>
      </g>
     </g>
     <g id="text_2">
      <!-- 0 -->
      <g transform="translate(142.092813 191.917656)scale(0.15 -0.15)">
       <use xlink:href="#DejaVuSans-48"/>
      </g>
     </g>
    </g>
    <g id="xtick_3">
     <g id="line2d_5">
      <path clip-path="url(#p5c0b9c0237)" d="M 230.564687 173.52 
L 230.564687 7.2 
" style="fill:none;stroke:#b0b0b0;stroke-linecap:square;stroke-width:0.8;"/>
     </g>
     <g id="line2d_6">
      <g>
       <use style="stroke:#000000;stroke-width:0.8;" x="230.564687" xlink:href="#m005f0a59be" y="173.52"/>
      </g>
     </g>
     <g id="text_3">
      <!-- 10 -->
      <g transform="translate(221.020938 191.917656)scale(0.15 -0.15)">
       <use xlink:href="#DejaVuSans-49"/>
       <use x="63.623047" xlink:href="#DejaVuSans-48"/>
      </g>
     </g>
    </g>
   </g>
   <g id="matplotlib.axis_2">
    <g id="ytick_1">
     <g id="line2d_7">
      <path clip-path="url(#p5c0b9c0237)" d="M 38.054688 153.154286 
L 238.934687 153.154286 
" style="fill:none;stroke:#b0b0b0;stroke-linecap:square;stroke-width:0.8;"/>
     </g>
     <g id="line2d_8">
      <defs>
       <path d="M 0 0 
L -3.5 0 
" id="mc3ce260a5b" style="stroke:#000000;stroke-width:0.8;"/>
      </defs>
      <g>
       <use style="stroke:#000000;stroke-width:0.8;" x="38.054688" xlink:href="#mc3ce260a5b" y="153.154286"/>
      </g>
     </g>
     <g id="text_4">
      <!-- 0.2 -->
      <g transform="translate(7.2 158.853114)scale(0.15 -0.15)">
       <defs>
        <path d="M 10.6875 12.40625 
L 21 12.40625 
L 21 0 
L 10.6875 0 
z
" id="DejaVuSans-46"/>
        <path d="M 19.1875 8.296875 
L 53.609375 8.296875 
L 53.609375 0 
L 7.328125 0 
L 7.328125 8.296875 
Q 12.9375 14.109375 22.625 23.890625 
Q 32.328125 33.6875 34.8125 36.53125 
Q 39.546875 41.84375 41.421875 45.53125 
Q 43.3125 49.21875 43.3125 52.78125 
Q 43.3125 58.59375 39.234375 62.25 
Q 35.15625 65.921875 28.609375 65.921875 
Q 23.96875 65.921875 18.8125 64.3125 
Q 13.671875 62.703125 7.8125 59.421875 
L 7.8125 69.390625 
Q 13.765625 71.78125 18.9375 73 
Q 24.125 74.21875 28.421875 74.21875 
Q 39.75 74.21875 46.484375 68.546875 
Q 53.21875 62.890625 53.21875 53.421875 
Q 53.21875 48.921875 51.53125 44.890625 
Q 49.859375 40.875 45.40625 35.40625 
Q 44.1875 33.984375 37.640625 27.21875 
Q 31.109375 20.453125 19.1875 8.296875 
z
" id="DejaVuSans-50"/>
       </defs>
       <use xlink:href="#DejaVuSans-48"/>
       <use x="63.623047" xlink:href="#DejaVuSans-46"/>
       <use x="95.410156" xlink:href="#DejaVuSans-50"/>
      </g>
     </g>
    </g>
    <g id="ytick_2">
     <g id="line2d_9">
      <path clip-path="url(#p5c0b9c0237)" d="M 38.054688 85.268571 
L 238.934687 85.268571 
" style="fill:none;stroke:#b0b0b0;stroke-linecap:square;stroke-width:0.8;"/>
     </g>
     <g id="line2d_10">
      <g>
       <use style="stroke:#000000;stroke-width:0.8;" x="38.054688" xlink:href="#mc3ce260a5b" y="85.268571"/>
      </g>
     </g>
     <g id="text_5">
      <!-- 0.6 -->
      <g transform="translate(7.2 90.9674)scale(0.15 -0.15)">
       <defs>
        <path d="M 33.015625 40.375 
Q 26.375 40.375 22.484375 35.828125 
Q 18.609375 31.296875 18.609375 23.390625 
Q 18.609375 15.53125 22.484375 10.953125 
Q 26.375 6.390625 33.015625 6.390625 
Q 39.65625 6.390625 43.53125 10.953125 
Q 47.40625 15.53125 47.40625 23.390625 
Q 47.40625 31.296875 43.53125 35.828125 
Q 39.65625 40.375 33.015625 40.375 
z
M 52.59375 71.296875 
L 52.59375 62.3125 
Q 48.875 64.0625 45.09375 64.984375 
Q 41.3125 65.921875 37.59375 65.921875 
Q 27.828125 65.921875 22.671875 59.328125 
Q 17.53125 52.734375 16.796875 39.40625 
Q 19.671875 43.65625 24.015625 45.921875 
Q 28.375 48.1875 33.59375 48.1875 
Q 44.578125 48.1875 50.953125 41.515625 
Q 57.328125 34.859375 57.328125 23.390625 
Q 57.328125 12.15625 50.6875 5.359375 
Q 44.046875 -1.421875 33.015625 -1.421875 
Q 20.359375 -1.421875 13.671875 8.265625 
Q 6.984375 17.96875 6.984375 36.375 
Q 6.984375 53.65625 15.1875 63.9375 
Q 23.390625 74.21875 37.203125 74.21875 
Q 40.921875 74.21875 44.703125 73.484375 
Q 48.484375 72.75 52.59375 71.296875 
z
" id="DejaVuSans-54"/>
       </defs>
       <use xlink:href="#DejaVuSans-48"/>
       <use x="63.623047" xlink:href="#DejaVuSans-46"/>
       <use x="95.410156" xlink:href="#DejaVuSans-54"/>
      </g>
     </g>
    </g>
    <g id="ytick_3">
     <g id="line2d_11">
      <path clip-path="url(#p5c0b9c0237)" d="M 38.054688 17.382857 
L 238.934687 17.382857 
" style="fill:none;stroke:#b0b0b0;stroke-linecap:square;stroke-width:0.8;"/>
     </g>
     <g id="line2d_12">
      <g>
       <use style="stroke:#000000;stroke-width:0.8;" x="38.054688" xlink:href="#mc3ce260a5b" y="17.382857"/>
      </g>
     </g>
     <g id="text_6">
      <!-- 1.0 -->
      <g transform="translate(7.2 23.081685)scale(0.15 -0.15)">
       <use xlink:href="#DejaVuSans-49"/>
       <use x="63.623047" xlink:href="#DejaVuSans-46"/>
       <use x="95.410156" xlink:href="#DejaVuSans-48"/>
      </g>
     </g>
    </g>
   </g>
   <g id="LineCollection_1">
    <path clip-path="url(#p5c0b9c0237)" d="M 70.621464 50.650981 
L 70.621464 30.156356 
" style="fill:none;stroke:#ff7f0e;stroke-width:1.5;"/>
    <path clip-path="url(#p5c0b9c0237)" d="M 84.013464 37.655999 
L 84.013464 16.533237 
" style="fill:none;stroke:#ff7f0e;stroke-width:1.5;"/>
    <path clip-path="url(#p5c0b9c0237)" d="M 97.405464 46.867483 
L 97.405464 26.055013 
" style="fill:none;stroke:#ff7f0e;stroke-width:1.5;"/>
    <path clip-path="url(#p5c0b9c0237)" d="M 110.797464 59.185274 
L 110.797464 39.687065 
" style="fill:none;stroke:#ff7f0e;stroke-width:1.5;"/>
    <path clip-path="url(#p5c0b9c0237)" d="M 124.189464 125.787642 
L 124.189464 110.138039 
" style="fill:none;stroke:#ff7f0e;stroke-width:1.5;"/>
    <path clip-path="url(#p5c0b9c0237)" d="M 137.581464 160.795287 
L 137.581464 150.024674 
" style="fill:none;stroke:#ff7f0e;stroke-width:1.5;"/>
    <path clip-path="url(#p5c0b9c0237)" d="M 150.973464 169.167698 
L 150.973464 160.36123 
" style="fill:none;stroke:#ff7f0e;stroke-width:1.5;"/>
    <path clip-path="url(#p5c0b9c0237)" d="M 164.365464 142.722281 
L 164.365464 129.136893 
" style="fill:none;stroke:#ff7f0e;stroke-width:1.5;"/>
    <path clip-path="url(#p5c0b9c0237)" d="M 177.757464 96.908569 
L 177.757464 80.070836 
" style="fill:none;stroke:#ff7f0e;stroke-width:1.5;"/>
    <path clip-path="url(#p5c0b9c0237)" d="M 191.149464 71.066048 
L 191.149464 52.225273 
" style="fill:none;stroke:#ff7f0e;stroke-width:1.5;"/>
    <path clip-path="url(#p5c0b9c0237)" d="M 204.541464 48.778243 
L 204.541464 27.684374 
" style="fill:none;stroke:#ff7f0e;stroke-width:1.5;"/>
   </g>
   <g id="LineCollection_2">
    <path clip-path="url(#p5c0b9c0237)" d="M 45.511464 29.950546 
L 45.511464 9.25356 
" style="fill:none;stroke:#2ca02c;stroke-width:1.5;"/>
    <path clip-path="url(#p5c0b9c0237)" d="M 63.925464 52.58326 
L 63.925464 32.039112 
" style="fill:none;stroke:#2ca02c;stroke-width:1.5;"/>
    <path clip-path="url(#p5c0b9c0237)" d="M 82.339464 59.46154 
L 82.339464 39.278351 
" style="fill:none;stroke:#2ca02c;stroke-width:1.5;"/>
    <path clip-path="url(#p5c0b9c0237)" d="M 100.753464 78.859476 
L 100.753464 59.291908 
" style="fill:none;stroke:#2ca02c;stroke-width:1.5;"/>
    <path clip-path="url(#p5c0b9c0237)" d="M 119.167464 94.416687 
L 119.167464 76.470999 
" style="fill:none;stroke:#2ca02c;stroke-width:1.5;"/>
    <path clip-path="url(#p5c0b9c0237)" d="M 137.581464 116.523662 
L 137.581464 100.349905 
" style="fill:none;stroke:#2ca02c;stroke-width:1.5;"/>
    <path clip-path="url(#p5c0b9c0237)" d="M 155.995464 108.617295 
L 155.995464 92.195492 
" style="fill:none;stroke:#2ca02c;stroke-width:1.5;"/>
    <path clip-path="url(#p5c0b9c0237)" d="M 174.409464 84.10882 
L 174.409464 65.537734 
" style="fill:none;stroke:#2ca02c;stroke-width:1.5;"/>
    <path clip-path="url(#p5c0b9c0237)" d="M 192.823464 75.217428 
L 192.823464 56.126834 
" style="fill:none;stroke:#2ca02c;stroke-width:1.5;"/>
    <path clip-path="url(#p5c0b9c0237)" d="M 211.237464 34.754008 
L 211.237464 13.833576 
" style="fill:none;stroke:#2ca02c;stroke-width:1.5;"/>
    <path clip-path="url(#p5c0b9c0237)" d="M 229.651464 51.90795 
L 229.651464 31.205031 
" style="fill:none;stroke:#2ca02c;stroke-width:1.5;"/>
   </g>
   <g id="line2d_13">
    <path clip-path="url(#p5c0b9c0237)" d="M 37.141464 30.288301 
L 41.364166 31.698493 
L 44.581464 32.54562 
L 47.396599 33.071044 
L 50.010653 33.349782 
L 52.624707 33.411473 
L 55.238761 33.252091 
L 58.053896 32.843073 
L 61.070112 32.163078 
L 64.689572 31.098307 
L 74.140383 28.177758 
L 76.553356 27.729874 
L 78.765248 27.548675 
L 80.776058 27.624478 
L 82.585788 27.925035 
L 84.194437 28.402098 
L 85.803085 29.097391 
L 87.411734 30.02931 
L 89.020383 31.214521 
L 90.629031 32.667658 
L 92.23768 34.401047 
L 94.04741 36.698129 
L 95.857139 39.371777 
L 97.666869 42.426739 
L 99.67768 46.267672 
L 101.889572 51.025413 
L 104.101464 56.318685 
L 106.514437 62.661972 
L 109.329572 70.729925 
L 112.546869 80.6716 
L 116.769572 94.501608 
L 125.416058 122.995757 
L 128.432275 132.105373 
L 131.046329 139.31911 
L 133.258221 144.805165 
L 135.269031 149.222451 
L 137.078761 152.683257 
L 138.68741 155.318272 
L 140.296058 157.514103 
L 141.703626 159.060068 
L 142.910112 160.097955 
L 144.116599 160.865254 
L 145.323085 161.358175 
L 146.328491 161.557548 
L 147.333896 161.56398 
L 148.339302 161.377448 
L 149.545788 160.899845 
L 150.752275 160.147694 
L 151.958761 159.124708 
L 153.366329 157.595722 
L 154.773896 155.715249 
L 156.382545 153.151933 
L 157.991193 150.168203 
L 159.800923 146.341113 
L 161.811734 141.553508 
L 164.023626 135.709788 
L 166.63768 128.146825 
L 169.854977 118.09317 
L 174.479842 102.808674 
L 181.316599 80.244627 
L 184.734977 69.735314 
L 187.550112 61.747421 
L 190.164166 54.987894 
L 192.577139 49.378519 
L 194.789031 44.805018 
L 196.799842 41.135936 
L 198.810653 37.937967 
L 200.620383 35.460491 
L 202.430112 33.355183 
L 204.239842 31.610048 
L 205.848491 30.348113 
L 207.457139 29.34396 
L 209.065788 28.581485 
L 210.674437 28.042767 
L 212.484166 27.679922 
L 214.293896 27.546199 
L 216.304707 27.628884 
L 218.516599 27.951021 
L 221.130653 28.567309 
L 224.750112 29.677768 
L 232.391193 32.092248 
L 235.608491 32.830528 
L 238.021464 33.200524 
L 238.021464 33.200524 
" style="fill:none;stroke:#ff7f0e;stroke-linecap:square;stroke-width:1.5;"/>
   </g>
   <g id="line2d_14">
    <path clip-path="url(#p5c0b9c0237)" d="M 37.141464 34.708776 
L 39.152275 34.198191 
L 41.96741 33.202985 
L 45.385788 32.011555 
L 47.195518 31.605849 
L 48.804166 31.473543 
L 50.211734 31.574103 
L 51.619302 31.898254 
L 53.026869 32.453358 
L 54.434437 33.232794 
L 56.043085 34.370929 
L 58.053896 36.084781 
L 64.890653 42.227687 
L 66.499302 43.222476 
L 67.906869 43.823697 
L 69.113356 44.116639 
L 70.319842 44.19655 
L 71.526329 44.066631 
L 72.933896 43.668694 
L 74.542545 42.939036 
L 76.553356 41.746225 
L 80.373896 39.421891 
L 81.781464 38.839215 
L 82.98795 38.568295 
L 83.993356 38.543051 
L 84.998761 38.727527 
L 86.004166 39.142628 
L 87.009572 39.80388 
L 88.014977 40.7208 
L 89.221464 42.162387 
L 90.42795 43.968486 
L 91.835518 46.506293 
L 93.444166 49.900739 
L 95.454977 54.69763 
L 101.48741 69.556569 
L 103.096058 72.762094 
L 104.503626 75.058353 
L 105.710112 76.591326 
L 106.715518 77.539755 
L 107.720923 78.181188 
L 108.726329 78.51735 
L 109.530653 78.573285 
L 110.536058 78.392475 
L 111.541464 77.957847 
L 112.74795 77.149827 
L 114.155518 75.905351 
L 116.769572 73.194382 
L 118.579302 71.452279 
L 119.785788 70.550701 
L 120.791193 70.041055 
L 121.796599 69.80605 
L 122.600923 69.846522 
L 123.405248 70.111907 
L 124.209572 70.618782 
L 125.013896 71.379995 
L 126.019302 72.702224 
L 127.024707 74.443202 
L 128.030112 76.599975 
L 129.236599 79.716522 
L 130.644166 84.022137 
L 132.252815 89.690416 
L 134.464707 98.389976 
L 139.089572 116.91669 
L 140.698221 122.417241 
L 142.105788 126.451023 
L 143.312275 129.200816 
L 144.31768 130.930205 
L 145.122004 131.919406 
L 145.926329 132.54363 
L 146.529572 132.767123 
L 147.132815 132.778895 
L 147.736058 132.57886 
L 148.339302 132.168509 
L 149.143626 131.299731 
L 149.94795 130.074169 
L 150.953356 128.065553 
L 151.958761 125.566266 
L 153.165248 121.991808 
L 154.773896 116.423344 
L 156.784707 108.576772 
L 162.012815 87.723728 
L 163.621464 82.302329 
L 165.029031 78.262276 
L 166.235518 75.398462 
L 167.442004 73.125402 
L 168.44741 71.691851 
L 169.452815 70.672321 
L 170.257139 70.144701 
L 171.061464 69.859787 
L 171.865788 69.801301 
L 172.670112 69.949555 
L 173.675518 70.390769 
L 174.882004 71.229024 
L 176.289572 72.511916 
L 181.316599 77.402074 
L 182.523085 78.128994 
L 183.528491 78.482416 
L 184.533896 78.572393 
L 185.338221 78.438734 
L 186.142545 78.113409 
L 187.14795 77.430938 
L 188.153356 76.441904 
L 189.158761 75.15439 
L 190.365248 73.23885 
L 191.772815 70.548244 
L 193.381464 66.984525 
L 195.794437 61.016648 
L 200.017139 50.509803 
L 201.826869 46.637784 
L 203.234437 44.079075 
L 204.642004 41.983895 
L 205.848491 40.583556 
L 207.054977 39.555368 
L 208.060383 38.977541 
L 209.065788 38.64133 
L 210.071193 38.529336 
L 211.076599 38.619027 
L 212.283085 38.954799 
L 213.690653 39.5938 
L 215.701464 40.79359 
L 219.320923 43.00922 
L 220.929572 43.717149 
L 222.337139 44.0911 
L 223.543626 44.198182 
L 224.750112 44.094562 
L 225.956599 43.778192 
L 227.364166 43.151438 
L 228.771734 42.274944 
L 230.581464 40.851693 
L 232.994437 38.62969 
L 237.016058 34.911681 
L 238.021464 34.114171 
L 238.021464 34.114171 
" style="fill:none;stroke:#2ca02c;stroke-linecap:square;stroke-width:1.5;"/>
   </g>
   <g id="line2d_15">
    <defs>
     <path d="M 0 3 
C 0.795609 3 1.55874 2.683901 2.12132 2.12132 
C 2.683901 1.55874 3 0.795609 3 0 
C 3 -0.795609 2.683901 -1.55874 2.12132 -2.12132 
C 1.55874 -2.683901 0.795609 -3 0 -3 
C -0.795609 -3 -1.55874 -2.683901 -2.12132 -2.12132 
C -2.683901 -1.55874 -3 -0.795609 -3 0 
C -3 0.795609 -2.683901 1.55874 -2.12132 2.12132 
C -1.55874 2.683901 -0.795609 3 0 3 
z
" id="mbbb2a9d153" style="stroke:#ff7f0e;"/>
    </defs>
    <g clip-path="url(#p5c0b9c0237)">
     <use style="fill:#ff7f0e;stroke:#ff7f0e;" x="70.621464" xlink:href="#mbbb2a9d153" y="40.403669"/>
     <use style="fill:#ff7f0e;stroke:#ff7f0e;" x="84.013464" xlink:href="#mbbb2a9d153" y="27.094618"/>
     <use style="fill:#ff7f0e;stroke:#ff7f0e;" x="97.405464" xlink:href="#mbbb2a9d153" y="36.461248"/>
     <use style="fill:#ff7f0e;stroke:#ff7f0e;" x="110.797464" xlink:href="#mbbb2a9d153" y="49.436169"/>
     <use style="fill:#ff7f0e;stroke:#ff7f0e;" x="124.189464" xlink:href="#mbbb2a9d153" y="117.96284"/>
     <use style="fill:#ff7f0e;stroke:#ff7f0e;" x="137.581464" xlink:href="#mbbb2a9d153" y="155.409981"/>
     <use style="fill:#ff7f0e;stroke:#ff7f0e;" x="150.973464" xlink:href="#mbbb2a9d153" y="164.764464"/>
     <use style="fill:#ff7f0e;stroke:#ff7f0e;" x="164.365464" xlink:href="#mbbb2a9d153" y="135.929587"/>
     <use style="fill:#ff7f0e;stroke:#ff7f0e;" x="177.757464" xlink:href="#mbbb2a9d153" y="88.489703"/>
     <use style="fill:#ff7f0e;stroke:#ff7f0e;" x="191.149464" xlink:href="#mbbb2a9d153" y="61.64566"/>
     <use style="fill:#ff7f0e;stroke:#ff7f0e;" x="204.541464" xlink:href="#mbbb2a9d153" y="38.231308"/>
    </g>
   </g>
   <g id="line2d_16">
    <defs>
     <path d="M 0 3 
C 0.795609 3 1.55874 2.683901 2.12132 2.12132 
C 2.683901 1.55874 3 0.795609 3 0 
C 3 -0.795609 2.683901 -1.55874 2.12132 -2.12132 
C 1.55874 -2.683901 0.795609 -3 0 -3 
C -0.795609 -3 -1.55874 -2.683901 -2.12132 -2.12132 
C -2.683901 -1.55874 -3 -0.795609 -3 0 
C -3 0.795609 -2.683901 1.55874 -2.12132 2.12132 
C -1.55874 2.683901 -0.795609 3 0 3 
z
" id="mbab2358add" style="stroke:#2ca02c;"/>
    </defs>
    <g clip-path="url(#p5c0b9c0237)">
     <use style="fill:#2ca02c;stroke:#2ca02c;" x="45.511464" xlink:href="#mbab2358add" y="19.602053"/>
     <use style="fill:#2ca02c;stroke:#2ca02c;" x="63.925464" xlink:href="#mbab2358add" y="42.311186"/>
     <use style="fill:#2ca02c;stroke:#2ca02c;" x="82.339464" xlink:href="#mbab2358add" y="49.369945"/>
     <use style="fill:#2ca02c;stroke:#2ca02c;" x="100.753464" xlink:href="#mbab2358add" y="69.075692"/>
     <use style="fill:#2ca02c;stroke:#2ca02c;" x="119.167464" xlink:href="#mbab2358add" y="85.443843"/>
     <use style="fill:#2ca02c;stroke:#2ca02c;" x="137.581464" xlink:href="#mbab2358add" y="108.436784"/>
     <use style="fill:#2ca02c;stroke:#2ca02c;" x="155.995464" xlink:href="#mbab2358add" y="100.406393"/>
     <use style="fill:#2ca02c;stroke:#2ca02c;" x="174.409464" xlink:href="#mbab2358add" y="74.823277"/>
     <use style="fill:#2ca02c;stroke:#2ca02c;" x="192.823464" xlink:href="#mbab2358add" y="65.672131"/>
     <use style="fill:#2ca02c;stroke:#2ca02c;" x="211.237464" xlink:href="#mbab2358add" y="24.293792"/>
     <use style="fill:#2ca02c;stroke:#2ca02c;" x="229.651464" xlink:href="#mbab2358add" y="41.55649"/>
    </g>
   </g>
   <g id="patch_4">
    <path d="M 38.054688 173.52 
L 38.054688 7.2 
" style="fill:none;stroke:#000000;stroke-linecap:square;stroke-linejoin:miter;stroke-width:0.8;"/>
   </g>
   <g id="patch_5">
    <path d="M 238.934687 173.52 
L 238.934687 7.2 
" style="fill:none;stroke:#000000;stroke-linecap:square;stroke-linejoin:miter;stroke-width:0.8;"/>
   </g>
   <g id="patch_6">
    <path d="M 38.054688 173.52 
L 238.934687 173.52 
" style="fill:none;stroke:#000000;stroke-linecap:square;stroke-linejoin:miter;stroke-width:0.8;"/>
   </g>
   <g id="patch_7">
    <path d="M 38.054688 7.2 
L 238.934687 7.2 
" style="fill:none;stroke:#000000;stroke-linecap:square;stroke-linejoin:miter;stroke-width:0.8;"/>
   </g>
  </g>
 </g>
 <defs>
  <clipPath id="p5c0b9c0237">
   <rect height="166.32" width="200.88" x="38.054688" y="7.2"/>
  </clipPath>
 </defs>
</svg>
