<?xml version="1.0" encoding="utf-8" standalone="no"?>
<!DOCTYPE svg PUBLIC "-//W3C//DTD SVG 1.1//EN"
  "http://www.w3.org/Graphics/SVG/1.1/DTD/svg11.dtd">
<!-- Created with matplotlib (https://matplotlib.org/) -->
<svg height="325.385437pt" version="1.1" viewBox="0 0 850.04625 325.385437" width="850.04625pt" xmlns="http://www.w3.org/2000/svg" xmlns:xlink="http://www.w3.org/1999/xlink">
 <defs>
  <style type="text/css">*{stroke-linecap:butt;stroke-linejoin:round;}</style>
 </defs>
 <g id="figure_1">
  <g id="patch_1">
   <path d="M 0 325.385437 
L 850.04625 325.385437 
L 850.04625 0 
L 0 0 
z
" style="fill:none;"/>
  </g>
  <g id="axes_1">
   <g id="patch_2">
    <path d="M 72.80625 273.312 
L 842.84625 273.312 
L 842.84625 7.2 
L 72.80625 7.2 
z
" style="fill:none;"/>
   </g>
   <g id="matplotlib.axis_1">
    <g id="xtick_1">
     <g id="line2d_1">
      <path clip-path="url(#p88d253d519)" d="M 72.80625 273.312 
L 72.80625 7.2 
" style="fill:none;stroke:#b0b0b0;stroke-linecap:square;stroke-width:0.8;"/>
     </g>
     <g id="line2d_2">
      <defs>
       <path d="M 0 0 
L 0 3.5 
" id="m005f0a59be" style="stroke:#000000;stroke-width:0.8;"/>
      </defs>
      <g>
       <use style="stroke:#000000;stroke-width:0.8;" x="72.80625" xlink:href="#m005f0a59be" y="273.312"/>
      </g>
     </g>
     <g id="text_1">
      <!-- 0 -->
      <g transform="translate(68.034375 291.709656)scale(0.15 -0.15)">
       <defs>
        <path d="M 31.78125 66.40625 
Q 24.171875 66.40625 20.328125 58.90625 
Q 16.5 51.421875 16.5 36.375 
Q 16.5 21.390625 20.328125 13.890625 
Q 24.171875 6.390625 31.78125 6.390625 
Q 39.453125 6.390625 43.28125 13.890625 
Q 47.125 21.390625 47.125 36.375 
Q 47.125 51.421875 43.28125 58.90625 
Q 39.453125 66.40625 31.78125 66.40625 
z
M 31.78125 74.21875 
Q 44.046875 74.21875 50.515625 64.515625 
Q 56.984375 54.828125 56.984375 36.375 
Q 56.984375 17.96875 50.515625 8.265625 
Q 44.046875 -1.421875 31.78125 -1.421875 
Q 19.53125 -1.421875 13.0625 8.265625 
Q 6.59375 17.96875 6.59375 36.375 
Q 6.59375 54.828125 13.0625 64.515625 
Q 19.53125 74.21875 31.78125 74.21875 
z
" id="DejaVuSans-48"/>
       </defs>
       <use xlink:href="#DejaVuSans-48"/>
      </g>
     </g>
    </g>
    <g id="xtick_2">
     <g id="line2d_3">
      <path clip-path="url(#p88d253d519)" d="M 178.291182 273.312 
L 178.291182 7.2 
" style="fill:none;stroke:#b0b0b0;stroke-linecap:square;stroke-width:0.8;"/>
     </g>
     <g id="line2d_4">
      <g>
       <use style="stroke:#000000;stroke-width:0.8;" x="178.291182" xlink:href="#m005f0a59be" y="273.312"/>
      </g>
     </g>
     <g id="text_2">
      <!-- 10 -->
      <g transform="translate(168.747432 291.709656)scale(0.15 -0.15)">
       <defs>
        <path d="M 12.40625 8.296875 
L 28.515625 8.296875 
L 28.515625 63.921875 
L 10.984375 60.40625 
L 10.984375 69.390625 
L 28.421875 72.90625 
L 38.28125 72.90625 
L 38.28125 8.296875 
L 54.390625 8.296875 
L 54.390625 0 
L 12.40625 0 
z
" id="DejaVuSans-49"/>
       </defs>
       <use xlink:href="#DejaVuSans-49"/>
       <use x="63.623047" xlink:href="#DejaVuSans-48"/>
      </g>
     </g>
    </g>
    <g id="xtick_3">
     <g id="line2d_5">
      <path clip-path="url(#p88d253d519)" d="M 283.776113 273.312 
L 283.776113 7.2 
" style="fill:none;stroke:#b0b0b0;stroke-linecap:square;stroke-width:0.8;"/>
     </g>
     <g id="line2d_6">
      <g>
       <use style="stroke:#000000;stroke-width:0.8;" x="283.776113" xlink:href="#m005f0a59be" y="273.312"/>
      </g>
     </g>
     <g id="text_3">
      <!-- 20 -->
      <g transform="translate(274.232363 291.709656)scale(0.15 -0.15)">
       <defs>
        <path d="M 19.1875 8.296875 
L 53.609375 8.296875 
L 53.609375 0 
L 7.328125 0 
L 7.328125 8.296875 
Q 12.9375 14.109375 22.625 23.890625 
Q 32.328125 33.6875 34.8125 36.53125 
Q 39.546875 41.84375 41.421875 45.53125 
Q 43.3125 49.21875 43.3125 52.78125 
Q 43.3125 58.59375 39.234375 62.25 
Q 35.15625 65.921875 28.609375 65.921875 
Q 23.96875 65.921875 18.8125 64.3125 
Q 13.671875 62.703125 7.8125 59.421875 
L 7.8125 69.390625 
Q 13.765625 71.78125 18.9375 73 
Q 24.125 74.21875 28.421875 74.21875 
Q 39.75 74.21875 46.484375 68.546875 
Q 53.21875 62.890625 53.21875 53.421875 
Q 53.21875 48.921875 51.53125 44.890625 
Q 49.859375 40.875 45.40625 35.40625 
Q 44.1875 33.984375 37.640625 27.21875 
Q 31.109375 20.453125 19.1875 8.296875 
z
" id="DejaVuSans-50"/>
       </defs>
       <use xlink:href="#DejaVuSans-50"/>
       <use x="63.623047" xlink:href="#DejaVuSans-48"/>
      </g>
     </g>
    </g>
    <g id="xtick_4">
     <g id="line2d_7">
      <path clip-path="url(#p88d253d519)" d="M 389.261045 273.312 
L 389.261045 7.2 
" style="fill:none;stroke:#b0b0b0;stroke-linecap:square;stroke-width:0.8;"/>
     </g>
     <g id="line2d_8">
      <g>
       <use style="stroke:#000000;stroke-width:0.8;" x="389.261045" xlink:href="#m005f0a59be" y="273.312"/>
      </g>
     </g>
     <g id="text_4">
      <!-- 30 -->
      <g transform="translate(379.717295 291.709656)scale(0.15 -0.15)">
       <defs>
        <path d="M 40.578125 39.3125 
Q 47.65625 37.796875 51.625 33 
Q 55.609375 28.21875 55.609375 21.1875 
Q 55.609375 10.40625 48.1875 4.484375 
Q 40.765625 -1.421875 27.09375 -1.421875 
Q 22.515625 -1.421875 17.65625 -0.515625 
Q 12.796875 0.390625 7.625 2.203125 
L 7.625 11.71875 
Q 11.71875 9.328125 16.59375 8.109375 
Q 21.484375 6.890625 26.8125 6.890625 
Q 36.078125 6.890625 40.9375 10.546875 
Q 45.796875 14.203125 45.796875 21.1875 
Q 45.796875 27.640625 41.28125 31.265625 
Q 36.765625 34.90625 28.71875 34.90625 
L 20.21875 34.90625 
L 20.21875 43.015625 
L 29.109375 43.015625 
Q 36.375 43.015625 40.234375 45.921875 
Q 44.09375 48.828125 44.09375 54.296875 
Q 44.09375 59.90625 40.109375 62.90625 
Q 36.140625 65.921875 28.71875 65.921875 
Q 24.65625 65.921875 20.015625 65.03125 
Q 15.375 64.15625 9.8125 62.3125 
L 9.8125 71.09375 
Q 15.4375 72.65625 20.34375 73.4375 
Q 25.25 74.21875 29.59375 74.21875 
Q 40.828125 74.21875 47.359375 69.109375 
Q 53.90625 64.015625 53.90625 55.328125 
Q 53.90625 49.265625 50.4375 45.09375 
Q 46.96875 40.921875 40.578125 39.3125 
z
" id="DejaVuSans-51"/>
       </defs>
       <use xlink:href="#DejaVuSans-51"/>
       <use x="63.623047" xlink:href="#DejaVuSans-48"/>
      </g>
     </g>
    </g>
    <g id="xtick_5">
     <g id="line2d_9">
      <path clip-path="url(#p88d253d519)" d="M 494.745976 273.312 
L 494.745976 7.2 
" style="fill:none;stroke:#b0b0b0;stroke-linecap:square;stroke-width:0.8;"/>
     </g>
     <g id="line2d_10">
      <g>
       <use style="stroke:#000000;stroke-width:0.8;" x="494.745976" xlink:href="#m005f0a59be" y="273.312"/>
      </g>
     </g>
     <g id="text_5">
      <!-- 40 -->
      <g transform="translate(485.202226 291.709656)scale(0.15 -0.15)">
       <defs>
        <path d="M 37.796875 64.3125 
L 12.890625 25.390625 
L 37.796875 25.390625 
z
M 35.203125 72.90625 
L 47.609375 72.90625 
L 47.609375 25.390625 
L 58.015625 25.390625 
L 58.015625 17.1875 
L 47.609375 17.1875 
L 47.609375 0 
L 37.796875 0 
L 37.796875 17.1875 
L 4.890625 17.1875 
L 4.890625 26.703125 
z
" id="DejaVuSans-52"/>
       </defs>
       <use xlink:href="#DejaVuSans-52"/>
       <use x="63.623047" xlink:href="#DejaVuSans-48"/>
      </g>
     </g>
    </g>
    <g id="xtick_6">
     <g id="line2d_11">
      <path clip-path="url(#p88d253d519)" d="M 600.230908 273.312 
L 600.230908 7.2 
" style="fill:none;stroke:#b0b0b0;stroke-linecap:square;stroke-width:0.8;"/>
     </g>
     <g id="line2d_12">
      <g>
       <use style="stroke:#000000;stroke-width:0.8;" x="600.230908" xlink:href="#m005f0a59be" y="273.312"/>
      </g>
     </g>
     <g id="text_6">
      <!-- 50 -->
      <g transform="translate(590.687158 291.709656)scale(0.15 -0.15)">
       <defs>
        <path d="M 10.796875 72.90625 
L 49.515625 72.90625 
L 49.515625 64.59375 
L 19.828125 64.59375 
L 19.828125 46.734375 
Q 21.96875 47.46875 24.109375 47.828125 
Q 26.265625 48.1875 28.421875 48.1875 
Q 40.625 48.1875 47.75 41.5 
Q 54.890625 34.8125 54.890625 23.390625 
Q 54.890625 11.625 47.5625 5.09375 
Q 40.234375 -1.421875 26.90625 -1.421875 
Q 22.3125 -1.421875 17.546875 -0.640625 
Q 12.796875 0.140625 7.71875 1.703125 
L 7.71875 11.625 
Q 12.109375 9.234375 16.796875 8.0625 
Q 21.484375 6.890625 26.703125 6.890625 
Q 35.15625 6.890625 40.078125 11.328125 
Q 45.015625 15.765625 45.015625 23.390625 
Q 45.015625 31 40.078125 35.4375 
Q 35.15625 39.890625 26.703125 39.890625 
Q 22.75 39.890625 18.8125 39.015625 
Q 14.890625 38.140625 10.796875 36.28125 
z
" id="DejaVuSans-53"/>
       </defs>
       <use xlink:href="#DejaVuSans-53"/>
       <use x="63.623047" xlink:href="#DejaVuSans-48"/>
      </g>
     </g>
    </g>
    <g id="xtick_7">
     <g id="line2d_13">
      <path clip-path="url(#p88d253d519)" d="M 705.715839 273.312 
L 705.715839 7.2 
" style="fill:none;stroke:#b0b0b0;stroke-linecap:square;stroke-width:0.8;"/>
     </g>
     <g id="line2d_14">
      <g>
       <use style="stroke:#000000;stroke-width:0.8;" x="705.715839" xlink:href="#m005f0a59be" y="273.312"/>
      </g>
     </g>
     <g id="text_7">
      <!-- 60 -->
      <g transform="translate(696.172089 291.709656)scale(0.15 -0.15)">
       <defs>
        <path d="M 33.015625 40.375 
Q 26.375 40.375 22.484375 35.828125 
Q 18.609375 31.296875 18.609375 23.390625 
Q 18.609375 15.53125 22.484375 10.953125 
Q 26.375 6.390625 33.015625 6.390625 
Q 39.65625 6.390625 43.53125 10.953125 
Q 47.40625 15.53125 47.40625 23.390625 
Q 47.40625 31.296875 43.53125 35.828125 
Q 39.65625 40.375 33.015625 40.375 
z
M 52.59375 71.296875 
L 52.59375 62.3125 
Q 48.875 64.0625 45.09375 64.984375 
Q 41.3125 65.921875 37.59375 65.921875 
Q 27.828125 65.921875 22.671875 59.328125 
Q 17.53125 52.734375 16.796875 39.40625 
Q 19.671875 43.65625 24.015625 45.921875 
Q 28.375 48.1875 33.59375 48.1875 
Q 44.578125 48.1875 50.953125 41.515625 
Q 57.328125 34.859375 57.328125 23.390625 
Q 57.328125 12.15625 50.6875 5.359375 
Q 44.046875 -1.421875 33.015625 -1.421875 
Q 20.359375 -1.421875 13.671875 8.265625 
Q 6.984375 17.96875 6.984375 36.375 
Q 6.984375 53.65625 15.1875 63.9375 
Q 23.390625 74.21875 37.203125 74.21875 
Q 40.921875 74.21875 44.703125 73.484375 
Q 48.484375 72.75 52.59375 71.296875 
z
" id="DejaVuSans-54"/>
       </defs>
       <use xlink:href="#DejaVuSans-54"/>
       <use x="63.623047" xlink:href="#DejaVuSans-48"/>
      </g>
     </g>
    </g>
    <g id="xtick_8">
     <g id="line2d_15">
      <path clip-path="url(#p88d253d519)" d="M 811.200771 273.312 
L 811.200771 7.2 
" style="fill:none;stroke:#b0b0b0;stroke-linecap:square;stroke-width:0.8;"/>
     </g>
     <g id="line2d_16">
      <g>
       <use style="stroke:#000000;stroke-width:0.8;" x="811.200771" xlink:href="#m005f0a59be" y="273.312"/>
      </g>
     </g>
     <g id="text_8">
      <!-- 70 -->
      <g transform="translate(801.657021 291.709656)scale(0.15 -0.15)">
       <defs>
        <path d="M 8.203125 72.90625 
L 55.078125 72.90625 
L 55.078125 68.703125 
L 28.609375 0 
L 18.3125 0 
L 43.21875 64.59375 
L 8.203125 64.59375 
z
" id="DejaVuSans-55"/>
       </defs>
       <use xlink:href="#DejaVuSans-55"/>
       <use x="63.623047" xlink:href="#DejaVuSans-48"/>
      </g>
     </g>
    </g>
    <g id="text_9">
     <!-- $v'$ -->
     <g transform="translate(449.22625 314.026062)scale(0.2 -0.2)">
      <defs>
       <path d="M 7.171875 54.6875 
L 16.703125 54.6875 
L 24.703125 8.203125 
L 50.875 54.6875 
L 60.40625 54.6875 
L 29.296875 0 
L 17.1875 0 
z
" id="DejaVuSans-Oblique-118"/>
       <path d="M 3.515625 5.421875 
Q 2.875 5.609375 2.875 6.390625 
L 15.09375 51.8125 
Q 15.671875 53.65625 17.078125 54.78125 
Q 18.5 55.90625 20.3125 55.90625 
Q 22.65625 55.90625 24.4375 54.359375 
Q 26.21875 52.828125 26.21875 50.484375 
Q 26.21875 49.46875 25.6875 48.1875 
L 7.625 4.984375 
Q 7.28125 4.296875 6.6875 4.296875 
Q 6.15625 4.296875 5 4.78125 
Q 3.859375 5.28125 3.515625 5.421875 
z
" id="Cmsy10-48"/>
      </defs>
      <use transform="translate(0 0.584375)" xlink:href="#DejaVuSans-Oblique-118"/>
      <use transform="translate(63.645833 38.865625)scale(0.7)" xlink:href="#Cmsy10-48"/>
     </g>
    </g>
   </g>
   <g id="matplotlib.axis_2">
    <g id="ytick_1">
     <g id="line2d_17">
      <path clip-path="url(#p88d253d519)" d="M 72.80625 254.398287 
L 842.84625 254.398287 
" style="fill:none;stroke:#b0b0b0;stroke-linecap:square;stroke-width:0.8;"/>
     </g>
     <g id="line2d_18">
      <defs>
       <path d="M 0 0 
L -3.5 0 
" id="mc3ce260a5b" style="stroke:#000000;stroke-width:0.8;"/>
      </defs>
      <g>
       <use style="stroke:#000000;stroke-width:0.8;" x="72.80625" xlink:href="#mc3ce260a5b" y="254.398287"/>
      </g>
     </g>
     <g id="text_10">
      <!-- $\mathdefault{10^{-7}}$ -->
      <g transform="translate(30.55625 260.097116)scale(0.15 -0.15)">
       <defs>
        <path d="M 10.59375 35.5 
L 73.1875 35.5 
L 73.1875 27.203125 
L 10.59375 27.203125 
z
" id="DejaVuSans-8722"/>
       </defs>
       <use transform="translate(0 0.684375)" xlink:href="#DejaVuSans-49"/>
       <use transform="translate(63.623047 0.684375)" xlink:href="#DejaVuSans-48"/>
       <use transform="translate(128.203125 38.965625)scale(0.7)" xlink:href="#DejaVuSans-8722"/>
       <use transform="translate(186.855469 38.965625)scale(0.7)" xlink:href="#DejaVuSans-55"/>
      </g>
     </g>
    </g>
    <g id="ytick_2">
     <g id="line2d_19">
      <path clip-path="url(#p88d253d519)" d="M 72.80625 218.273818 
L 842.84625 218.273818 
" style="fill:none;stroke:#b0b0b0;stroke-linecap:square;stroke-width:0.8;"/>
     </g>
     <g id="line2d_20">
      <g>
       <use style="stroke:#000000;stroke-width:0.8;" x="72.80625" xlink:href="#mc3ce260a5b" y="218.273818"/>
      </g>
     </g>
     <g id="text_11">
      <!-- $\mathdefault{10^{-6}}$ -->
      <g transform="translate(30.55625 223.972646)scale(0.15 -0.15)">
       <use transform="translate(0 0.765625)" xlink:href="#DejaVuSans-49"/>
       <use transform="translate(63.623047 0.765625)" xlink:href="#DejaVuSans-48"/>
       <use transform="translate(128.203125 39.046875)scale(0.7)" xlink:href="#DejaVuSans-8722"/>
       <use transform="translate(186.855469 39.046875)scale(0.7)" xlink:href="#DejaVuSans-54"/>
      </g>
     </g>
    </g>
    <g id="ytick_3">
     <g id="line2d_21">
      <path clip-path="url(#p88d253d519)" d="M 72.80625 182.149348 
L 842.84625 182.149348 
" style="fill:none;stroke:#b0b0b0;stroke-linecap:square;stroke-width:0.8;"/>
     </g>
     <g id="line2d_22">
      <g>
       <use style="stroke:#000000;stroke-width:0.8;" x="72.80625" xlink:href="#mc3ce260a5b" y="182.149348"/>
      </g>
     </g>
     <g id="text_12">
      <!-- $\mathdefault{10^{-5}}$ -->
      <g transform="translate(30.55625 187.848176)scale(0.15 -0.15)">
       <use transform="translate(0 0.684375)" xlink:href="#DejaVuSans-49"/>
       <use transform="translate(63.623047 0.684375)" xlink:href="#DejaVuSans-48"/>
       <use transform="translate(128.203125 38.965625)scale(0.7)" xlink:href="#DejaVuSans-8722"/>
       <use transform="translate(186.855469 38.965625)scale(0.7)" xlink:href="#DejaVuSans-53"/>
      </g>
     </g>
    </g>
    <g id="ytick_4">
     <g id="line2d_23">
      <path clip-path="url(#p88d253d519)" d="M 72.80625 146.024878 
L 842.84625 146.024878 
" style="fill:none;stroke:#b0b0b0;stroke-linecap:square;stroke-width:0.8;"/>
     </g>
     <g id="line2d_24">
      <g>
       <use style="stroke:#000000;stroke-width:0.8;" x="72.80625" xlink:href="#mc3ce260a5b" y="146.024878"/>
      </g>
     </g>
     <g id="text_13">
      <!-- $\mathdefault{10^{-4}}$ -->
      <g transform="translate(30.55625 151.723706)scale(0.15 -0.15)">
       <use transform="translate(0 0.684375)" xlink:href="#DejaVuSans-49"/>
       <use transform="translate(63.623047 0.684375)" xlink:href="#DejaVuSans-48"/>
       <use transform="translate(128.203125 38.965625)scale(0.7)" xlink:href="#DejaVuSans-8722"/>
       <use transform="translate(186.855469 38.965625)scale(0.7)" xlink:href="#DejaVuSans-52"/>
      </g>
     </g>
    </g>
    <g id="ytick_5">
     <g id="line2d_25">
      <path clip-path="url(#p88d253d519)" d="M 72.80625 109.900409 
L 842.84625 109.900409 
" style="fill:none;stroke:#b0b0b0;stroke-linecap:square;stroke-width:0.8;"/>
     </g>
     <g id="line2d_26">
      <g>
       <use style="stroke:#000000;stroke-width:0.8;" x="72.80625" xlink:href="#mc3ce260a5b" y="109.900409"/>
      </g>
     </g>
     <g id="text_14">
      <!-- $\mathdefault{10^{-3}}$ -->
      <g transform="translate(30.55625 115.599237)scale(0.15 -0.15)">
       <use transform="translate(0 0.765625)" xlink:href="#DejaVuSans-49"/>
       <use transform="translate(63.623047 0.765625)" xlink:href="#DejaVuSans-48"/>
       <use transform="translate(128.203125 39.046875)scale(0.7)" xlink:href="#DejaVuSans-8722"/>
       <use transform="translate(186.855469 39.046875)scale(0.7)" xlink:href="#DejaVuSans-51"/>
      </g>
     </g>
    </g>
    <g id="ytick_6">
     <g id="line2d_27">
      <path clip-path="url(#p88d253d519)" d="M 72.80625 73.775939 
L 842.84625 73.775939 
" style="fill:none;stroke:#b0b0b0;stroke-linecap:square;stroke-width:0.8;"/>
     </g>
     <g id="line2d_28">
      <g>
       <use style="stroke:#000000;stroke-width:0.8;" x="72.80625" xlink:href="#mc3ce260a5b" y="73.775939"/>
      </g>
     </g>
     <g id="text_15">
      <!-- $\mathdefault{10^{-2}}$ -->
      <g transform="translate(30.55625 79.474767)scale(0.15 -0.15)">
       <use transform="translate(0 0.765625)" xlink:href="#DejaVuSans-49"/>
       <use transform="translate(63.623047 0.765625)" xlink:href="#DejaVuSans-48"/>
       <use transform="translate(128.203125 39.046875)scale(0.7)" xlink:href="#DejaVuSans-8722"/>
       <use transform="translate(186.855469 39.046875)scale(0.7)" xlink:href="#DejaVuSans-50"/>
      </g>
     </g>
    </g>
    <g id="ytick_7">
     <g id="line2d_29">
      <path clip-path="url(#p88d253d519)" d="M 72.80625 37.651469 
L 842.84625 37.651469 
" style="fill:none;stroke:#b0b0b0;stroke-linecap:square;stroke-width:0.8;"/>
     </g>
     <g id="line2d_30">
      <g>
       <use style="stroke:#000000;stroke-width:0.8;" x="72.80625" xlink:href="#mc3ce260a5b" y="37.651469"/>
      </g>
     </g>
     <g id="text_16">
      <!-- $\mathdefault{10^{-1}}$ -->
      <g transform="translate(30.55625 43.350297)scale(0.15 -0.15)">
       <use transform="translate(0 0.684375)" xlink:href="#DejaVuSans-49"/>
       <use transform="translate(63.623047 0.684375)" xlink:href="#DejaVuSans-48"/>
       <use transform="translate(128.203125 38.965625)scale(0.7)" xlink:href="#DejaVuSans-8722"/>
       <use transform="translate(186.855469 38.965625)scale(0.7)" xlink:href="#DejaVuSans-49"/>
      </g>
     </g>
    </g>
    <g id="ytick_8">
     <g id="line2d_31">
      <defs>
       <path d="M 0 0 
L -2 0 
" id="md0f4fded07" style="stroke:#000000;stroke-width:0.6;"/>
      </defs>
      <g>
       <use style="stroke:#000000;stroke-width:0.6;" x="72.80625" xlink:href="#md0f4fded07" y="273.287005"/>
      </g>
     </g>
    </g>
    <g id="ytick_9">
     <g id="line2d_32">
      <g>
       <use style="stroke:#000000;stroke-width:0.6;" x="72.80625" xlink:href="#md0f4fded07" y="268.773659"/>
      </g>
     </g>
    </g>
    <g id="ytick_10">
     <g id="line2d_33">
      <g>
       <use style="stroke:#000000;stroke-width:0.6;" x="72.80625" xlink:href="#md0f4fded07" y="265.272836"/>
      </g>
     </g>
    </g>
    <g id="ytick_11">
     <g id="line2d_34">
      <g>
       <use style="stroke:#000000;stroke-width:0.6;" x="72.80625" xlink:href="#md0f4fded07" y="262.412456"/>
      </g>
     </g>
    </g>
    <g id="ytick_12">
     <g id="line2d_35">
      <g>
       <use style="stroke:#000000;stroke-width:0.6;" x="72.80625" xlink:href="#md0f4fded07" y="259.994039"/>
      </g>
     </g>
    </g>
    <g id="ytick_13">
     <g id="line2d_36">
      <g>
       <use style="stroke:#000000;stroke-width:0.6;" x="72.80625" xlink:href="#md0f4fded07" y="257.89911"/>
      </g>
     </g>
    </g>
    <g id="ytick_14">
     <g id="line2d_37">
      <g>
       <use style="stroke:#000000;stroke-width:0.6;" x="72.80625" xlink:href="#md0f4fded07" y="256.051253"/>
      </g>
     </g>
    </g>
    <g id="ytick_15">
     <g id="line2d_38">
      <g>
       <use style="stroke:#000000;stroke-width:0.6;" x="72.80625" xlink:href="#md0f4fded07" y="243.523738"/>
      </g>
     </g>
    </g>
    <g id="ytick_16">
     <g id="line2d_39">
      <g>
       <use style="stroke:#000000;stroke-width:0.6;" x="72.80625" xlink:href="#md0f4fded07" y="237.162535"/>
      </g>
     </g>
    </g>
    <g id="ytick_17">
     <g id="line2d_40">
      <g>
       <use style="stroke:#000000;stroke-width:0.6;" x="72.80625" xlink:href="#md0f4fded07" y="232.64919"/>
      </g>
     </g>
    </g>
    <g id="ytick_18">
     <g id="line2d_41">
      <g>
       <use style="stroke:#000000;stroke-width:0.6;" x="72.80625" xlink:href="#md0f4fded07" y="229.148367"/>
      </g>
     </g>
    </g>
    <g id="ytick_19">
     <g id="line2d_42">
      <g>
       <use style="stroke:#000000;stroke-width:0.6;" x="72.80625" xlink:href="#md0f4fded07" y="226.287986"/>
      </g>
     </g>
    </g>
    <g id="ytick_20">
     <g id="line2d_43">
      <g>
       <use style="stroke:#000000;stroke-width:0.6;" x="72.80625" xlink:href="#md0f4fded07" y="223.869569"/>
      </g>
     </g>
    </g>
    <g id="ytick_21">
     <g id="line2d_44">
      <g>
       <use style="stroke:#000000;stroke-width:0.6;" x="72.80625" xlink:href="#md0f4fded07" y="221.774641"/>
      </g>
     </g>
    </g>
    <g id="ytick_22">
     <g id="line2d_45">
      <g>
       <use style="stroke:#000000;stroke-width:0.6;" x="72.80625" xlink:href="#md0f4fded07" y="219.926783"/>
      </g>
     </g>
    </g>
    <g id="ytick_23">
     <g id="line2d_46">
      <g>
       <use style="stroke:#000000;stroke-width:0.6;" x="72.80625" xlink:href="#md0f4fded07" y="207.399269"/>
      </g>
     </g>
    </g>
    <g id="ytick_24">
     <g id="line2d_47">
      <g>
       <use style="stroke:#000000;stroke-width:0.6;" x="72.80625" xlink:href="#md0f4fded07" y="201.038065"/>
      </g>
     </g>
    </g>
    <g id="ytick_25">
     <g id="line2d_48">
      <g>
       <use style="stroke:#000000;stroke-width:0.6;" x="72.80625" xlink:href="#md0f4fded07" y="196.52472"/>
      </g>
     </g>
    </g>
    <g id="ytick_26">
     <g id="line2d_49">
      <g>
       <use style="stroke:#000000;stroke-width:0.6;" x="72.80625" xlink:href="#md0f4fded07" y="193.023897"/>
      </g>
     </g>
    </g>
    <g id="ytick_27">
     <g id="line2d_50">
      <g>
       <use style="stroke:#000000;stroke-width:0.6;" x="72.80625" xlink:href="#md0f4fded07" y="190.163516"/>
      </g>
     </g>
    </g>
    <g id="ytick_28">
     <g id="line2d_51">
      <g>
       <use style="stroke:#000000;stroke-width:0.6;" x="72.80625" xlink:href="#md0f4fded07" y="187.745099"/>
      </g>
     </g>
    </g>
    <g id="ytick_29">
     <g id="line2d_52">
      <g>
       <use style="stroke:#000000;stroke-width:0.6;" x="72.80625" xlink:href="#md0f4fded07" y="185.650171"/>
      </g>
     </g>
    </g>
    <g id="ytick_30">
     <g id="line2d_53">
      <g>
       <use style="stroke:#000000;stroke-width:0.6;" x="72.80625" xlink:href="#md0f4fded07" y="183.802313"/>
      </g>
     </g>
    </g>
    <g id="ytick_31">
     <g id="line2d_54">
      <g>
       <use style="stroke:#000000;stroke-width:0.6;" x="72.80625" xlink:href="#md0f4fded07" y="171.274799"/>
      </g>
     </g>
    </g>
    <g id="ytick_32">
     <g id="line2d_55">
      <g>
       <use style="stroke:#000000;stroke-width:0.6;" x="72.80625" xlink:href="#md0f4fded07" y="164.913596"/>
      </g>
     </g>
    </g>
    <g id="ytick_33">
     <g id="line2d_56">
      <g>
       <use style="stroke:#000000;stroke-width:0.6;" x="72.80625" xlink:href="#md0f4fded07" y="160.40025"/>
      </g>
     </g>
    </g>
    <g id="ytick_34">
     <g id="line2d_57">
      <g>
       <use style="stroke:#000000;stroke-width:0.6;" x="72.80625" xlink:href="#md0f4fded07" y="156.899427"/>
      </g>
     </g>
    </g>
    <g id="ytick_35">
     <g id="line2d_58">
      <g>
       <use style="stroke:#000000;stroke-width:0.6;" x="72.80625" xlink:href="#md0f4fded07" y="154.039047"/>
      </g>
     </g>
    </g>
    <g id="ytick_36">
     <g id="line2d_59">
      <g>
       <use style="stroke:#000000;stroke-width:0.6;" x="72.80625" xlink:href="#md0f4fded07" y="151.620629"/>
      </g>
     </g>
    </g>
    <g id="ytick_37">
     <g id="line2d_60">
      <g>
       <use style="stroke:#000000;stroke-width:0.6;" x="72.80625" xlink:href="#md0f4fded07" y="149.525701"/>
      </g>
     </g>
    </g>
    <g id="ytick_38">
     <g id="line2d_61">
      <g>
       <use style="stroke:#000000;stroke-width:0.6;" x="72.80625" xlink:href="#md0f4fded07" y="147.677843"/>
      </g>
     </g>
    </g>
    <g id="ytick_39">
     <g id="line2d_62">
      <g>
       <use style="stroke:#000000;stroke-width:0.6;" x="72.80625" xlink:href="#md0f4fded07" y="135.150329"/>
      </g>
     </g>
    </g>
    <g id="ytick_40">
     <g id="line2d_63">
      <g>
       <use style="stroke:#000000;stroke-width:0.6;" x="72.80625" xlink:href="#md0f4fded07" y="128.789126"/>
      </g>
     </g>
    </g>
    <g id="ytick_41">
     <g id="line2d_64">
      <g>
       <use style="stroke:#000000;stroke-width:0.6;" x="72.80625" xlink:href="#md0f4fded07" y="124.27578"/>
      </g>
     </g>
    </g>
    <g id="ytick_42">
     <g id="line2d_65">
      <g>
       <use style="stroke:#000000;stroke-width:0.6;" x="72.80625" xlink:href="#md0f4fded07" y="120.774958"/>
      </g>
     </g>
    </g>
    <g id="ytick_43">
     <g id="line2d_66">
      <g>
       <use style="stroke:#000000;stroke-width:0.6;" x="72.80625" xlink:href="#md0f4fded07" y="117.914577"/>
      </g>
     </g>
    </g>
    <g id="ytick_44">
     <g id="line2d_67">
      <g>
       <use style="stroke:#000000;stroke-width:0.6;" x="72.80625" xlink:href="#md0f4fded07" y="115.49616"/>
      </g>
     </g>
    </g>
    <g id="ytick_45">
     <g id="line2d_68">
      <g>
       <use style="stroke:#000000;stroke-width:0.6;" x="72.80625" xlink:href="#md0f4fded07" y="113.401231"/>
      </g>
     </g>
    </g>
    <g id="ytick_46">
     <g id="line2d_69">
      <g>
       <use style="stroke:#000000;stroke-width:0.6;" x="72.80625" xlink:href="#md0f4fded07" y="111.553374"/>
      </g>
     </g>
    </g>
    <g id="ytick_47">
     <g id="line2d_70">
      <g>
       <use style="stroke:#000000;stroke-width:0.6;" x="72.80625" xlink:href="#md0f4fded07" y="99.02586"/>
      </g>
     </g>
    </g>
    <g id="ytick_48">
     <g id="line2d_71">
      <g>
       <use style="stroke:#000000;stroke-width:0.6;" x="72.80625" xlink:href="#md0f4fded07" y="92.664656"/>
      </g>
     </g>
    </g>
    <g id="ytick_49">
     <g id="line2d_72">
      <g>
       <use style="stroke:#000000;stroke-width:0.6;" x="72.80625" xlink:href="#md0f4fded07" y="88.151311"/>
      </g>
     </g>
    </g>
    <g id="ytick_50">
     <g id="line2d_73">
      <g>
       <use style="stroke:#000000;stroke-width:0.6;" x="72.80625" xlink:href="#md0f4fded07" y="84.650488"/>
      </g>
     </g>
    </g>
    <g id="ytick_51">
     <g id="line2d_74">
      <g>
       <use style="stroke:#000000;stroke-width:0.6;" x="72.80625" xlink:href="#md0f4fded07" y="81.790107"/>
      </g>
     </g>
    </g>
    <g id="ytick_52">
     <g id="line2d_75">
      <g>
       <use style="stroke:#000000;stroke-width:0.6;" x="72.80625" xlink:href="#md0f4fded07" y="79.37169"/>
      </g>
     </g>
    </g>
    <g id="ytick_53">
     <g id="line2d_76">
      <g>
       <use style="stroke:#000000;stroke-width:0.6;" x="72.80625" xlink:href="#md0f4fded07" y="77.276762"/>
      </g>
     </g>
    </g>
    <g id="ytick_54">
     <g id="line2d_77">
      <g>
       <use style="stroke:#000000;stroke-width:0.6;" x="72.80625" xlink:href="#md0f4fded07" y="75.428904"/>
      </g>
     </g>
    </g>
    <g id="ytick_55">
     <g id="line2d_78">
      <g>
       <use style="stroke:#000000;stroke-width:0.6;" x="72.80625" xlink:href="#md0f4fded07" y="62.90139"/>
      </g>
     </g>
    </g>
    <g id="ytick_56">
     <g id="line2d_79">
      <g>
       <use style="stroke:#000000;stroke-width:0.6;" x="72.80625" xlink:href="#md0f4fded07" y="56.540187"/>
      </g>
     </g>
    </g>
    <g id="ytick_57">
     <g id="line2d_80">
      <g>
       <use style="stroke:#000000;stroke-width:0.6;" x="72.80625" xlink:href="#md0f4fded07" y="52.026841"/>
      </g>
     </g>
    </g>
    <g id="ytick_58">
     <g id="line2d_81">
      <g>
       <use style="stroke:#000000;stroke-width:0.6;" x="72.80625" xlink:href="#md0f4fded07" y="48.526018"/>
      </g>
     </g>
    </g>
    <g id="ytick_59">
     <g id="line2d_82">
      <g>
       <use style="stroke:#000000;stroke-width:0.6;" x="72.80625" xlink:href="#md0f4fded07" y="45.665638"/>
      </g>
     </g>
    </g>
    <g id="ytick_60">
     <g id="line2d_83">
      <g>
       <use style="stroke:#000000;stroke-width:0.6;" x="72.80625" xlink:href="#md0f4fded07" y="43.24722"/>
      </g>
     </g>
    </g>
    <g id="ytick_61">
     <g id="line2d_84">
      <g>
       <use style="stroke:#000000;stroke-width:0.6;" x="72.80625" xlink:href="#md0f4fded07" y="41.152292"/>
      </g>
     </g>
    </g>
    <g id="ytick_62">
     <g id="line2d_85">
      <g>
       <use style="stroke:#000000;stroke-width:0.6;" x="72.80625" xlink:href="#md0f4fded07" y="39.304434"/>
      </g>
     </g>
    </g>
    <g id="ytick_63">
     <g id="line2d_86">
      <g>
       <use style="stroke:#000000;stroke-width:0.6;" x="72.80625" xlink:href="#md0f4fded07" y="26.77692"/>
      </g>
     </g>
    </g>
    <g id="ytick_64">
     <g id="line2d_87">
      <g>
       <use style="stroke:#000000;stroke-width:0.6;" x="72.80625" xlink:href="#md0f4fded07" y="20.415717"/>
      </g>
     </g>
    </g>
    <g id="ytick_65">
     <g id="line2d_88">
      <g>
       <use style="stroke:#000000;stroke-width:0.6;" x="72.80625" xlink:href="#md0f4fded07" y="15.902371"/>
      </g>
     </g>
    </g>
    <g id="ytick_66">
     <g id="line2d_89">
      <g>
       <use style="stroke:#000000;stroke-width:0.6;" x="72.80625" xlink:href="#md0f4fded07" y="12.401549"/>
      </g>
     </g>
    </g>
    <g id="ytick_67">
     <g id="line2d_90">
      <g>
       <use style="stroke:#000000;stroke-width:0.6;" x="72.80625" xlink:href="#md0f4fded07" y="9.541168"/>
      </g>
     </g>
    </g>
    <g id="text_17">
     <!-- FCF -->
     <g transform="translate(22.396875 158.741937)rotate(-90)scale(0.2 -0.2)">
      <defs>
       <path d="M 9.8125 72.90625 
L 51.703125 72.90625 
L 51.703125 64.59375 
L 19.671875 64.59375 
L 19.671875 43.109375 
L 48.578125 43.109375 
L 48.578125 34.8125 
L 19.671875 34.8125 
L 19.671875 0 
L 9.8125 0 
z
" id="DejaVuSans-70"/>
       <path d="M 64.40625 67.28125 
L 64.40625 56.890625 
Q 59.421875 61.53125 53.78125 63.8125 
Q 48.140625 66.109375 41.796875 66.109375 
Q 29.296875 66.109375 22.65625 58.46875 
Q 16.015625 50.828125 16.015625 36.375 
Q 16.015625 21.96875 22.65625 14.328125 
Q 29.296875 6.6875 41.796875 6.6875 
Q 48.140625 6.6875 53.78125 8.984375 
Q 59.421875 11.28125 64.40625 15.921875 
L 64.40625 5.609375 
Q 59.234375 2.09375 53.4375 0.328125 
Q 47.65625 -1.421875 41.21875 -1.421875 
Q 24.65625 -1.421875 15.125 8.703125 
Q 5.609375 18.84375 5.609375 36.375 
Q 5.609375 53.953125 15.125 64.078125 
Q 24.65625 74.21875 41.21875 74.21875 
Q 47.75 74.21875 53.53125 72.484375 
Q 59.328125 70.75 64.40625 67.28125 
z
" id="DejaVuSans-67"/>
      </defs>
      <use xlink:href="#DejaVuSans-70"/>
      <use x="57.519531" xlink:href="#DejaVuSans-67"/>
      <use x="127.34375" xlink:href="#DejaVuSans-70"/>
     </g>
    </g>
   </g>
   <g id="line2d_91">
    <path clip-path="url(#p88d253d519)" d="M 72.80625 150.228045 
L 83.354743 161.547285 
L 93.903236 193.682131 
L 104.451729 158.063138 
L 115.000223 195.229775 
L 125.548716 167.357064 
L 136.097209 165.22734 
L 146.645702 225.066204 
L 157.194195 163.139013 
L 167.742688 173.191967 
L 178.291182 202.109228 
L 188.839675 163.996824 
L 199.388168 173.819489 
L 209.936661 215.863406 
L 220.485154 166.529762 
L 231.033647 168.236431 
L 241.58214 224.565771 
L 252.130634 176.691461 
L 262.679127 164.359909 
L 273.22762 177.527125 
L 283.776113 243.151085 
L 294.324606 173.592308 
L 304.873099 165.312713 
L 315.421592 176.784064 
L 325.970086 261.216 
L 336.518579 181.159808 
L 347.067072 166.698568 
L 357.615565 169.550894 
L 368.164058 193.576875 
L 378.712551 209.657872 
L 389.261045 172.467274 
L 399.809538 165.896267 
L 410.358031 178.908979 
L 420.906524 236.900875 
L 431.455017 169.999114 
L 442.00351 162.725977 
L 452.552003 188.041103 
L 463.100497 181.038636 
L 473.64899 157.577501 
L 484.197483 172.390953 
L 494.745976 184.303079 
L 505.294469 153.213459 
L 515.842962 167.566755 
L 526.391455 179.239261 
L 536.939949 149.295018 
L 547.488442 163.660824 
L 558.036935 177.248028 
L 568.585428 145.936679 
L 579.133921 158.472076 
L 589.682414 180.763095 
L 600.230908 143.530242 
L 610.779401 151.286745 
L 621.327894 185.453007 
L 631.876387 139.220528 
L 642.42488 149.355966 
L 652.973373 160.894167 
L 663.521866 131.212947 
L 674.07036 163.489369 
L 684.618853 134.539835 
L 695.167346 128.556112 
L 705.715839 164.474776 
L 716.264332 117.772831 
L 726.812825 163.686637 
L 737.361318 113.336059 
L 747.909812 122.4063 
L 758.458305 116.636581 
L 769.006798 103.77503 
L 779.555291 135.095756 
L 790.103784 93.758102 
L 800.652277 118.126182 
L 811.200771 104.635757 
L 821.749264 38.708293 
L 832.297757 19.296 
L 842.84625 47.016916 
" style="fill:none;stroke:#1f77b4;stroke-linecap:square;stroke-width:1.5;"/>
    <defs>
     <path d="M 0 3 
C 0.795609 3 1.55874 2.683901 2.12132 2.12132 
C 2.683901 1.55874 3 0.795609 3 0 
C 3 -0.795609 2.683901 -1.55874 2.12132 -2.12132 
C 1.55874 -2.683901 0.795609 -3 0 -3 
C -0.795609 -3 -1.55874 -2.683901 -2.12132 -2.12132 
C -2.683901 -1.55874 -3 -0.795609 -3 0 
C -3 0.795609 -2.683901 1.55874 -2.12132 2.12132 
C -1.55874 2.683901 -0.795609 3 0 3 
z
" id="mcb2457e3ba" style="stroke:#1f77b4;"/>
    </defs>
    <g clip-path="url(#p88d253d519)">
     <use style="fill:#1f77b4;stroke:#1f77b4;" x="72.80625" xlink:href="#mcb2457e3ba" y="150.228045"/>
     <use style="fill:#1f77b4;stroke:#1f77b4;" x="83.354743" xlink:href="#mcb2457e3ba" y="161.547285"/>
     <use style="fill:#1f77b4;stroke:#1f77b4;" x="93.903236" xlink:href="#mcb2457e3ba" y="193.682131"/>
     <use style="fill:#1f77b4;stroke:#1f77b4;" x="104.451729" xlink:href="#mcb2457e3ba" y="158.063138"/>
     <use style="fill:#1f77b4;stroke:#1f77b4;" x="115.000223" xlink:href="#mcb2457e3ba" y="195.229775"/>
     <use style="fill:#1f77b4;stroke:#1f77b4;" x="125.548716" xlink:href="#mcb2457e3ba" y="167.357064"/>
     <use style="fill:#1f77b4;stroke:#1f77b4;" x="136.097209" xlink:href="#mcb2457e3ba" y="165.22734"/>
     <use style="fill:#1f77b4;stroke:#1f77b4;" x="146.645702" xlink:href="#mcb2457e3ba" y="225.066204"/>
     <use style="fill:#1f77b4;stroke:#1f77b4;" x="157.194195" xlink:href="#mcb2457e3ba" y="163.139013"/>
     <use style="fill:#1f77b4;stroke:#1f77b4;" x="167.742688" xlink:href="#mcb2457e3ba" y="173.191967"/>
     <use style="fill:#1f77b4;stroke:#1f77b4;" x="178.291182" xlink:href="#mcb2457e3ba" y="202.109228"/>
     <use style="fill:#1f77b4;stroke:#1f77b4;" x="188.839675" xlink:href="#mcb2457e3ba" y="163.996824"/>
     <use style="fill:#1f77b4;stroke:#1f77b4;" x="199.388168" xlink:href="#mcb2457e3ba" y="173.819489"/>
     <use style="fill:#1f77b4;stroke:#1f77b4;" x="209.936661" xlink:href="#mcb2457e3ba" y="215.863406"/>
     <use style="fill:#1f77b4;stroke:#1f77b4;" x="220.485154" xlink:href="#mcb2457e3ba" y="166.529762"/>
     <use style="fill:#1f77b4;stroke:#1f77b4;" x="231.033647" xlink:href="#mcb2457e3ba" y="168.236431"/>
     <use style="fill:#1f77b4;stroke:#1f77b4;" x="241.58214" xlink:href="#mcb2457e3ba" y="224.565771"/>
     <use style="fill:#1f77b4;stroke:#1f77b4;" x="252.130634" xlink:href="#mcb2457e3ba" y="176.691461"/>
     <use style="fill:#1f77b4;stroke:#1f77b4;" x="262.679127" xlink:href="#mcb2457e3ba" y="164.359909"/>
     <use style="fill:#1f77b4;stroke:#1f77b4;" x="273.22762" xlink:href="#mcb2457e3ba" y="177.527125"/>
     <use style="fill:#1f77b4;stroke:#1f77b4;" x="283.776113" xlink:href="#mcb2457e3ba" y="243.151085"/>
     <use style="fill:#1f77b4;stroke:#1f77b4;" x="294.324606" xlink:href="#mcb2457e3ba" y="173.592308"/>
     <use style="fill:#1f77b4;stroke:#1f77b4;" x="304.873099" xlink:href="#mcb2457e3ba" y="165.312713"/>
     <use style="fill:#1f77b4;stroke:#1f77b4;" x="315.421592" xlink:href="#mcb2457e3ba" y="176.784064"/>
     <use style="fill:#1f77b4;stroke:#1f77b4;" x="325.970086" xlink:href="#mcb2457e3ba" y="261.216"/>
     <use style="fill:#1f77b4;stroke:#1f77b4;" x="336.518579" xlink:href="#mcb2457e3ba" y="181.159808"/>
     <use style="fill:#1f77b4;stroke:#1f77b4;" x="347.067072" xlink:href="#mcb2457e3ba" y="166.698568"/>
     <use style="fill:#1f77b4;stroke:#1f77b4;" x="357.615565" xlink:href="#mcb2457e3ba" y="169.550894"/>
     <use style="fill:#1f77b4;stroke:#1f77b4;" x="368.164058" xlink:href="#mcb2457e3ba" y="193.576875"/>
     <use style="fill:#1f77b4;stroke:#1f77b4;" x="378.712551" xlink:href="#mcb2457e3ba" y="209.657872"/>
     <use style="fill:#1f77b4;stroke:#1f77b4;" x="389.261045" xlink:href="#mcb2457e3ba" y="172.467274"/>
     <use style="fill:#1f77b4;stroke:#1f77b4;" x="399.809538" xlink:href="#mcb2457e3ba" y="165.896267"/>
     <use style="fill:#1f77b4;stroke:#1f77b4;" x="410.358031" xlink:href="#mcb2457e3ba" y="178.908979"/>
     <use style="fill:#1f77b4;stroke:#1f77b4;" x="420.906524" xlink:href="#mcb2457e3ba" y="236.900875"/>
     <use style="fill:#1f77b4;stroke:#1f77b4;" x="431.455017" xlink:href="#mcb2457e3ba" y="169.999114"/>
     <use style="fill:#1f77b4;stroke:#1f77b4;" x="442.00351" xlink:href="#mcb2457e3ba" y="162.725977"/>
     <use style="fill:#1f77b4;stroke:#1f77b4;" x="452.552003" xlink:href="#mcb2457e3ba" y="188.041103"/>
     <use style="fill:#1f77b4;stroke:#1f77b4;" x="463.100497" xlink:href="#mcb2457e3ba" y="181.038636"/>
     <use style="fill:#1f77b4;stroke:#1f77b4;" x="473.64899" xlink:href="#mcb2457e3ba" y="157.577501"/>
     <use style="fill:#1f77b4;stroke:#1f77b4;" x="484.197483" xlink:href="#mcb2457e3ba" y="172.390953"/>
     <use style="fill:#1f77b4;stroke:#1f77b4;" x="494.745976" xlink:href="#mcb2457e3ba" y="184.303079"/>
     <use style="fill:#1f77b4;stroke:#1f77b4;" x="505.294469" xlink:href="#mcb2457e3ba" y="153.213459"/>
     <use style="fill:#1f77b4;stroke:#1f77b4;" x="515.842962" xlink:href="#mcb2457e3ba" y="167.566755"/>
     <use style="fill:#1f77b4;stroke:#1f77b4;" x="526.391455" xlink:href="#mcb2457e3ba" y="179.239261"/>
     <use style="fill:#1f77b4;stroke:#1f77b4;" x="536.939949" xlink:href="#mcb2457e3ba" y="149.295018"/>
     <use style="fill:#1f77b4;stroke:#1f77b4;" x="547.488442" xlink:href="#mcb2457e3ba" y="163.660824"/>
     <use style="fill:#1f77b4;stroke:#1f77b4;" x="558.036935" xlink:href="#mcb2457e3ba" y="177.248028"/>
     <use style="fill:#1f77b4;stroke:#1f77b4;" x="568.585428" xlink:href="#mcb2457e3ba" y="145.936679"/>
     <use style="fill:#1f77b4;stroke:#1f77b4;" x="579.133921" xlink:href="#mcb2457e3ba" y="158.472076"/>
     <use style="fill:#1f77b4;stroke:#1f77b4;" x="589.682414" xlink:href="#mcb2457e3ba" y="180.763095"/>
     <use style="fill:#1f77b4;stroke:#1f77b4;" x="600.230908" xlink:href="#mcb2457e3ba" y="143.530242"/>
     <use style="fill:#1f77b4;stroke:#1f77b4;" x="610.779401" xlink:href="#mcb2457e3ba" y="151.286745"/>
     <use style="fill:#1f77b4;stroke:#1f77b4;" x="621.327894" xlink:href="#mcb2457e3ba" y="185.453007"/>
     <use style="fill:#1f77b4;stroke:#1f77b4;" x="631.876387" xlink:href="#mcb2457e3ba" y="139.220528"/>
     <use style="fill:#1f77b4;stroke:#1f77b4;" x="642.42488" xlink:href="#mcb2457e3ba" y="149.355966"/>
     <use style="fill:#1f77b4;stroke:#1f77b4;" x="652.973373" xlink:href="#mcb2457e3ba" y="160.894167"/>
     <use style="fill:#1f77b4;stroke:#1f77b4;" x="663.521866" xlink:href="#mcb2457e3ba" y="131.212947"/>
     <use style="fill:#1f77b4;stroke:#1f77b4;" x="674.07036" xlink:href="#mcb2457e3ba" y="163.489369"/>
     <use style="fill:#1f77b4;stroke:#1f77b4;" x="684.618853" xlink:href="#mcb2457e3ba" y="134.539835"/>
     <use style="fill:#1f77b4;stroke:#1f77b4;" x="695.167346" xlink:href="#mcb2457e3ba" y="128.556112"/>
     <use style="fill:#1f77b4;stroke:#1f77b4;" x="705.715839" xlink:href="#mcb2457e3ba" y="164.474776"/>
     <use style="fill:#1f77b4;stroke:#1f77b4;" x="716.264332" xlink:href="#mcb2457e3ba" y="117.772831"/>
     <use style="fill:#1f77b4;stroke:#1f77b4;" x="726.812825" xlink:href="#mcb2457e3ba" y="163.686637"/>
     <use style="fill:#1f77b4;stroke:#1f77b4;" x="737.361318" xlink:href="#mcb2457e3ba" y="113.336059"/>
     <use style="fill:#1f77b4;stroke:#1f77b4;" x="747.909812" xlink:href="#mcb2457e3ba" y="122.4063"/>
     <use style="fill:#1f77b4;stroke:#1f77b4;" x="758.458305" xlink:href="#mcb2457e3ba" y="116.636581"/>
     <use style="fill:#1f77b4;stroke:#1f77b4;" x="769.006798" xlink:href="#mcb2457e3ba" y="103.77503"/>
     <use style="fill:#1f77b4;stroke:#1f77b4;" x="779.555291" xlink:href="#mcb2457e3ba" y="135.095756"/>
     <use style="fill:#1f77b4;stroke:#1f77b4;" x="790.103784" xlink:href="#mcb2457e3ba" y="93.758102"/>
     <use style="fill:#1f77b4;stroke:#1f77b4;" x="800.652277" xlink:href="#mcb2457e3ba" y="118.126182"/>
     <use style="fill:#1f77b4;stroke:#1f77b4;" x="811.200771" xlink:href="#mcb2457e3ba" y="104.635757"/>
     <use style="fill:#1f77b4;stroke:#1f77b4;" x="821.749264" xlink:href="#mcb2457e3ba" y="38.708293"/>
     <use style="fill:#1f77b4;stroke:#1f77b4;" x="832.297757" xlink:href="#mcb2457e3ba" y="19.296"/>
     <use style="fill:#1f77b4;stroke:#1f77b4;" x="842.84625" xlink:href="#mcb2457e3ba" y="47.016916"/>
    </g>
   </g>
   <g id="patch_3">
    <path d="M 72.80625 273.312 
L 72.80625 7.2 
" style="fill:none;stroke:#000000;stroke-linecap:square;stroke-linejoin:miter;stroke-width:0.8;"/>
   </g>
   <g id="patch_4">
    <path d="M 842.84625 273.312 
L 842.84625 7.2 
" style="fill:none;stroke:#000000;stroke-linecap:square;stroke-linejoin:miter;stroke-width:0.8;"/>
   </g>
   <g id="patch_5">
    <path d="M 72.80625 273.312 
L 842.84625 273.312 
" style="fill:none;stroke:#000000;stroke-linecap:square;stroke-linejoin:miter;stroke-width:0.8;"/>
   </g>
   <g id="patch_6">
    <path d="M 72.80625 7.2 
L 842.84625 7.2 
" style="fill:none;stroke:#000000;stroke-linecap:square;stroke-linejoin:miter;stroke-width:0.8;"/>
   </g>
  </g>
 </g>
 <defs>
  <clipPath id="p88d253d519">
   <rect height="266.112" width="770.04" x="72.80625" y="7.2"/>
  </clipPath>
 </defs>
</svg>
