<?xml version="1.0" encoding="utf-8" standalone="no"?>
<!DOCTYPE svg PUBLIC "-//W3C//DTD SVG 1.1//EN"
  "http://www.w3.org/Graphics/SVG/1.1/DTD/svg11.dtd">
<svg height="325.385437pt" version="1.1" viewBox="0 0 850.04625 325.385437" width="850.04625pt" xmlns="http://www.w3.org/2000/svg" xmlns:xlink="http://www.w3.org/1999/xlink">
 <defs>
  <style type="text/css">*{stroke-linecap:butt;stroke-linejoin:round;}</style>
 </defs>
 <g id="figure_1">
  <g id="patch_1">
   <path d="M 0 325.385437 
L 850.04625 325.385437 
L 850.04625 0 
L 0 0 
z
" style="fill:none;"/>
  </g>
  <g id="axes_1">
   <g id="patch_2">
    <path d="M 72.80625 273.312 
L 842.84625 273.312 
L 842.84625 7.2 
L 72.80625 7.2 
z
" style="fill:none;"/>
   </g>
   <g id="matplotlib.axis_1">
    <g id="xtick_1">
     <g id="line2d_1">
      <path clip-path="url(#pf0b77605d5)" d="M 72.80625 273.312 
L 72.80625 7.2 
" style="fill:none;stroke:#b0b0b0;stroke-linecap:square;stroke-width:0.8;"/>
     </g>
     <g id="line2d_2">
      <defs>
       <path d="M 0 0 
L 0 3.5 
" id="me0c20328c7" style="stroke:#000000;stroke-width:0.8;"/>
      </defs>
      <g>
       <use style="stroke:#000000;stroke-width:0.8;" x="72.80625" xlink:href="#me0c20328c7" y="273.312"/>
      </g>
     </g>
     <g id="text_1">
      <!-- 0 -->
      <g transform="translate(68.034375 291.709656)scale(0.15 -0.15)">
       <defs>
        <path d="M 2034 4250 
Q 1547 4250 1301 3770 
Q 1056 3291 1056 2328 
Q 1056 1369 1301 889 
Q 1547 409 2034 409 
Q 2525 409 2770 889 
Q 3016 1369 3016 2328 
Q 3016 3291 2770 3770 
Q 2525 4250 2034 4250 
z
M 2034 4750 
Q 2819 4750 3233 4129 
Q 3647 3509 3647 2328 
Q 3647 1150 3233 529 
Q 2819 -91 2034 -91 
Q 1250 -91 836 529 
Q 422 1150 422 2328 
Q 422 3509 836 4129 
Q 1250 4750 2034 4750 
z
" id="DejaVuSans-30" transform="scale(0.015625)"/>
       </defs>
       <use xlink:href="#DejaVuSans-30"/>
      </g>
     </g>
    </g>
    <g id="xtick_2">
     <g id="line2d_3">
      <path clip-path="url(#pf0b77605d5)" d="M 178.291182 273.312 
L 178.291182 7.2 
" style="fill:none;stroke:#b0b0b0;stroke-linecap:square;stroke-width:0.8;"/>
     </g>
     <g id="line2d_4">
      <g>
       <use style="stroke:#000000;stroke-width:0.8;" x="178.291182" xlink:href="#me0c20328c7" y="273.312"/>
      </g>
     </g>
     <g id="text_2">
      <!-- 10 -->
      <g transform="translate(168.747432 291.709656)scale(0.15 -0.15)">
       <defs>
        <path d="M 794 531 
L 1825 531 
L 1825 4091 
L 703 3866 
L 703 4441 
L 1819 4666 
L 2450 4666 
L 2450 531 
L 3481 531 
L 3481 0 
L 794 0 
L 794 531 
z
" id="DejaVuSans-31" transform="scale(0.015625)"/>
       </defs>
       <use xlink:href="#DejaVuSans-31"/>
       <use x="63.623047" xlink:href="#DejaVuSans-30"/>
      </g>
     </g>
    </g>
    <g id="xtick_3">
     <g id="line2d_5">
      <path clip-path="url(#pf0b77605d5)" d="M 283.776113 273.312 
L 283.776113 7.2 
" style="fill:none;stroke:#b0b0b0;stroke-linecap:square;stroke-width:0.8;"/>
     </g>
     <g id="line2d_6">
      <g>
       <use style="stroke:#000000;stroke-width:0.8;" x="283.776113" xlink:href="#me0c20328c7" y="273.312"/>
      </g>
     </g>
     <g id="text_3">
      <!-- 20 -->
      <g transform="translate(274.232363 291.709656)scale(0.15 -0.15)">
       <defs>
        <path d="M 1228 531 
L 3431 531 
L 3431 0 
L 469 0 
L 469 531 
Q 828 903 1448 1529 
Q 2069 2156 2228 2338 
Q 2531 2678 2651 2914 
Q 2772 3150 2772 3378 
Q 2772 3750 2511 3984 
Q 2250 4219 1831 4219 
Q 1534 4219 1204 4116 
Q 875 4013 500 3803 
L 500 4441 
Q 881 4594 1212 4672 
Q 1544 4750 1819 4750 
Q 2544 4750 2975 4387 
Q 3406 4025 3406 3419 
Q 3406 3131 3298 2873 
Q 3191 2616 2906 2266 
Q 2828 2175 2409 1742 
Q 1991 1309 1228 531 
z
" id="DejaVuSans-32" transform="scale(0.015625)"/>
       </defs>
       <use xlink:href="#DejaVuSans-32"/>
       <use x="63.623047" xlink:href="#DejaVuSans-30"/>
      </g>
     </g>
    </g>
    <g id="xtick_4">
     <g id="line2d_7">
      <path clip-path="url(#pf0b77605d5)" d="M 389.261045 273.312 
L 389.261045 7.2 
" style="fill:none;stroke:#b0b0b0;stroke-linecap:square;stroke-width:0.8;"/>
     </g>
     <g id="line2d_8">
      <g>
       <use style="stroke:#000000;stroke-width:0.8;" x="389.261045" xlink:href="#me0c20328c7" y="273.312"/>
      </g>
     </g>
     <g id="text_4">
      <!-- 30 -->
      <g transform="translate(379.717295 291.709656)scale(0.15 -0.15)">
       <defs>
        <path d="M 2597 2516 
Q 3050 2419 3304 2112 
Q 3559 1806 3559 1356 
Q 3559 666 3084 287 
Q 2609 -91 1734 -91 
Q 1441 -91 1130 -33 
Q 819 25 488 141 
L 488 750 
Q 750 597 1062 519 
Q 1375 441 1716 441 
Q 2309 441 2620 675 
Q 2931 909 2931 1356 
Q 2931 1769 2642 2001 
Q 2353 2234 1838 2234 
L 1294 2234 
L 1294 2753 
L 1863 2753 
Q 2328 2753 2575 2939 
Q 2822 3125 2822 3475 
Q 2822 3834 2567 4026 
Q 2313 4219 1838 4219 
Q 1578 4219 1281 4162 
Q 984 4106 628 3988 
L 628 4550 
Q 988 4650 1302 4700 
Q 1616 4750 1894 4750 
Q 2613 4750 3031 4423 
Q 3450 4097 3450 3541 
Q 3450 3153 3228 2886 
Q 3006 2619 2597 2516 
z
" id="DejaVuSans-33" transform="scale(0.015625)"/>
       </defs>
       <use xlink:href="#DejaVuSans-33"/>
       <use x="63.623047" xlink:href="#DejaVuSans-30"/>
      </g>
     </g>
    </g>
    <g id="xtick_5">
     <g id="line2d_9">
      <path clip-path="url(#pf0b77605d5)" d="M 494.745976 273.312 
L 494.745976 7.2 
" style="fill:none;stroke:#b0b0b0;stroke-linecap:square;stroke-width:0.8;"/>
     </g>
     <g id="line2d_10">
      <g>
       <use style="stroke:#000000;stroke-width:0.8;" x="494.745976" xlink:href="#me0c20328c7" y="273.312"/>
      </g>
     </g>
     <g id="text_5">
      <!-- 40 -->
      <g transform="translate(485.202226 291.709656)scale(0.15 -0.15)">
       <defs>
        <path d="M 2419 4116 
L 825 1625 
L 2419 1625 
L 2419 4116 
z
M 2253 4666 
L 3047 4666 
L 3047 1625 
L 3713 1625 
L 3713 1100 
L 3047 1100 
L 3047 0 
L 2419 0 
L 2419 1100 
L 313 1100 
L 313 1709 
L 2253 4666 
z
" id="DejaVuSans-34" transform="scale(0.015625)"/>
       </defs>
       <use xlink:href="#DejaVuSans-34"/>
       <use x="63.623047" xlink:href="#DejaVuSans-30"/>
      </g>
     </g>
    </g>
    <g id="xtick_6">
     <g id="line2d_11">
      <path clip-path="url(#pf0b77605d5)" d="M 600.230908 273.312 
L 600.230908 7.2 
" style="fill:none;stroke:#b0b0b0;stroke-linecap:square;stroke-width:0.8;"/>
     </g>
     <g id="line2d_12">
      <g>
       <use style="stroke:#000000;stroke-width:0.8;" x="600.230908" xlink:href="#me0c20328c7" y="273.312"/>
      </g>
     </g>
     <g id="text_6">
      <!-- 50 -->
      <g transform="translate(590.687158 291.709656)scale(0.15 -0.15)">
       <defs>
        <path d="M 691 4666 
L 3169 4666 
L 3169 4134 
L 1269 4134 
L 1269 2991 
Q 1406 3038 1543 3061 
Q 1681 3084 1819 3084 
Q 2600 3084 3056 2656 
Q 3513 2228 3513 1497 
Q 3513 744 3044 326 
Q 2575 -91 1722 -91 
Q 1428 -91 1123 -41 
Q 819 9 494 109 
L 494 744 
Q 775 591 1075 516 
Q 1375 441 1709 441 
Q 2250 441 2565 725 
Q 2881 1009 2881 1497 
Q 2881 1984 2565 2268 
Q 2250 2553 1709 2553 
Q 1456 2553 1204 2497 
Q 953 2441 691 2322 
L 691 4666 
z
" id="DejaVuSans-35" transform="scale(0.015625)"/>
       </defs>
       <use xlink:href="#DejaVuSans-35"/>
       <use x="63.623047" xlink:href="#DejaVuSans-30"/>
      </g>
     </g>
    </g>
    <g id="xtick_7">
     <g id="line2d_13">
      <path clip-path="url(#pf0b77605d5)" d="M 705.715839 273.312 
L 705.715839 7.2 
" style="fill:none;stroke:#b0b0b0;stroke-linecap:square;stroke-width:0.8;"/>
     </g>
     <g id="line2d_14">
      <g>
       <use style="stroke:#000000;stroke-width:0.8;" x="705.715839" xlink:href="#me0c20328c7" y="273.312"/>
      </g>
     </g>
     <g id="text_7">
      <!-- 60 -->
      <g transform="translate(696.172089 291.709656)scale(0.15 -0.15)">
       <defs>
        <path d="M 2113 2584 
Q 1688 2584 1439 2293 
Q 1191 2003 1191 1497 
Q 1191 994 1439 701 
Q 1688 409 2113 409 
Q 2538 409 2786 701 
Q 3034 994 3034 1497 
Q 3034 2003 2786 2293 
Q 2538 2584 2113 2584 
z
M 3366 4563 
L 3366 3988 
Q 3128 4100 2886 4159 
Q 2644 4219 2406 4219 
Q 1781 4219 1451 3797 
Q 1122 3375 1075 2522 
Q 1259 2794 1537 2939 
Q 1816 3084 2150 3084 
Q 2853 3084 3261 2657 
Q 3669 2231 3669 1497 
Q 3669 778 3244 343 
Q 2819 -91 2113 -91 
Q 1303 -91 875 529 
Q 447 1150 447 2328 
Q 447 3434 972 4092 
Q 1497 4750 2381 4750 
Q 2619 4750 2861 4703 
Q 3103 4656 3366 4563 
z
" id="DejaVuSans-36" transform="scale(0.015625)"/>
       </defs>
       <use xlink:href="#DejaVuSans-36"/>
       <use x="63.623047" xlink:href="#DejaVuSans-30"/>
      </g>
     </g>
    </g>
    <g id="xtick_8">
     <g id="line2d_15">
      <path clip-path="url(#pf0b77605d5)" d="M 811.200771 273.312 
L 811.200771 7.2 
" style="fill:none;stroke:#b0b0b0;stroke-linecap:square;stroke-width:0.8;"/>
     </g>
     <g id="line2d_16">
      <g>
       <use style="stroke:#000000;stroke-width:0.8;" x="811.200771" xlink:href="#me0c20328c7" y="273.312"/>
      </g>
     </g>
     <g id="text_8">
      <!-- 70 -->
      <g transform="translate(801.657021 291.709656)scale(0.15 -0.15)">
       <defs>
        <path d="M 525 4666 
L 3525 4666 
L 3525 4397 
L 1831 0 
L 1172 0 
L 2766 4134 
L 525 4134 
L 525 4666 
z
" id="DejaVuSans-37" transform="scale(0.015625)"/>
       </defs>
       <use xlink:href="#DejaVuSans-37"/>
       <use x="63.623047" xlink:href="#DejaVuSans-30"/>
      </g>
     </g>
    </g>
    <g id="text_9">
     <!-- $v'$ -->
     <g transform="translate(449.22625 314.026062)scale(0.2 -0.2)">
      <defs>
       <path d="M 459 3500 
L 1069 3500 
L 1581 525 
L 3256 3500 
L 3866 3500 
L 1875 0 
L 1100 0 
L 459 3500 
z
" id="DejaVuSans-Oblique-76" transform="scale(0.015625)"/>
       <path d="M 225 347 
Q 184 359 184 409 
L 966 3316 
Q 1003 3434 1093 3506 
Q 1184 3578 1300 3578 
Q 1450 3578 1564 3479 
Q 1678 3381 1678 3231 
Q 1678 3166 1644 3084 
L 488 319 
Q 466 275 428 275 
Q 394 275 320 306 
Q 247 338 225 347 
z
" id="Cmsy10-30" transform="scale(0.015625)"/>
      </defs>
      <use transform="translate(0 0.584375)" xlink:href="#DejaVuSans-Oblique-76"/>
      <use transform="translate(63.645833 38.865625)scale(0.7)" xlink:href="#Cmsy10-30"/>
     </g>
    </g>
   </g>
   <g id="matplotlib.axis_2">
    <g id="ytick_1">
     <g id="line2d_17">
      <path clip-path="url(#pf0b77605d5)" d="M 72.80625 254.398287 
L 842.84625 254.398287 
" style="fill:none;stroke:#b0b0b0;stroke-linecap:square;stroke-width:0.8;"/>
     </g>
     <g id="line2d_18">
      <defs>
       <path d="M 0 0 
L -3.5 0 
" id="m3dc9d66a62" style="stroke:#000000;stroke-width:0.8;"/>
      </defs>
      <g>
       <use style="stroke:#000000;stroke-width:0.8;" x="72.80625" xlink:href="#m3dc9d66a62" y="254.398287"/>
      </g>
     </g>
     <g id="text_10">
      <!-- $\mathdefault{10^{-7}}$ -->
      <g transform="translate(30.55625 260.097116)scale(0.15 -0.15)">
       <defs>
        <path d="M 678 2272 
L 4684 2272 
L 4684 1741 
L 678 1741 
L 678 2272 
z
" id="DejaVuSans-2212" transform="scale(0.015625)"/>
       </defs>
       <use transform="translate(0 0.684375)" xlink:href="#DejaVuSans-31"/>
       <use transform="translate(63.623047 0.684375)" xlink:href="#DejaVuSans-30"/>
       <use transform="translate(128.203125 38.965625)scale(0.7)" xlink:href="#DejaVuSans-2212"/>
       <use transform="translate(186.855469 38.965625)scale(0.7)" xlink:href="#DejaVuSans-37"/>
      </g>
     </g>
    </g>
    <g id="ytick_2">
     <g id="line2d_19">
      <path clip-path="url(#pf0b77605d5)" d="M 72.80625 218.273818 
L 842.84625 218.273818 
" style="fill:none;stroke:#b0b0b0;stroke-linecap:square;stroke-width:0.8;"/>
     </g>
     <g id="line2d_20">
      <g>
       <use style="stroke:#000000;stroke-width:0.8;" x="72.80625" xlink:href="#m3dc9d66a62" y="218.273818"/>
      </g>
     </g>
     <g id="text_11">
      <!-- $\mathdefault{10^{-6}}$ -->
      <g transform="translate(30.55625 223.972646)scale(0.15 -0.15)">
       <use transform="translate(0 0.765625)" xlink:href="#DejaVuSans-31"/>
       <use transform="translate(63.623047 0.765625)" xlink:href="#DejaVuSans-30"/>
       <use transform="translate(128.203125 39.046875)scale(0.7)" xlink:href="#DejaVuSans-2212"/>
       <use transform="translate(186.855469 39.046875)scale(0.7)" xlink:href="#DejaVuSans-36"/>
      </g>
     </g>
    </g>
    <g id="ytick_3">
     <g id="line2d_21">
      <path clip-path="url(#pf0b77605d5)" d="M 72.80625 182.149348 
L 842.84625 182.149348 
" style="fill:none;stroke:#b0b0b0;stroke-linecap:square;stroke-width:0.8;"/>
     </g>
     <g id="line2d_22">
      <g>
       <use style="stroke:#000000;stroke-width:0.8;" x="72.80625" xlink:href="#m3dc9d66a62" y="182.149348"/>
      </g>
     </g>
     <g id="text_12">
      <!-- $\mathdefault{10^{-5}}$ -->
      <g transform="translate(30.55625 187.848176)scale(0.15 -0.15)">
       <use transform="translate(0 0.684375)" xlink:href="#DejaVuSans-31"/>
       <use transform="translate(63.623047 0.684375)" xlink:href="#DejaVuSans-30"/>
       <use transform="translate(128.203125 38.965625)scale(0.7)" xlink:href="#DejaVuSans-2212"/>
       <use transform="translate(186.855469 38.965625)scale(0.7)" xlink:href="#DejaVuSans-35"/>
      </g>
     </g>
    </g>
    <g id="ytick_4">
     <g id="line2d_23">
      <path clip-path="url(#pf0b77605d5)" d="M 72.80625 146.024878 
L 842.84625 146.024878 
" style="fill:none;stroke:#b0b0b0;stroke-linecap:square;stroke-width:0.8;"/>
     </g>
     <g id="line2d_24">
      <g>
       <use style="stroke:#000000;stroke-width:0.8;" x="72.80625" xlink:href="#m3dc9d66a62" y="146.024878"/>
      </g>
     </g>
     <g id="text_13">
      <!-- $\mathdefault{10^{-4}}$ -->
      <g transform="translate(30.55625 151.723706)scale(0.15 -0.15)">
       <use transform="translate(0 0.684375)" xlink:href="#DejaVuSans-31"/>
       <use transform="translate(63.623047 0.684375)" xlink:href="#DejaVuSans-30"/>
       <use transform="translate(128.203125 38.965625)scale(0.7)" xlink:href="#DejaVuSans-2212"/>
       <use transform="translate(186.855469 38.965625)scale(0.7)" xlink:href="#DejaVuSans-34"/>
      </g>
     </g>
    </g>
    <g id="ytick_5">
     <g id="line2d_25">
      <path clip-path="url(#pf0b77605d5)" d="M 72.80625 109.900409 
L 842.84625 109.900409 
" style="fill:none;stroke:#b0b0b0;stroke-linecap:square;stroke-width:0.8;"/>
     </g>
     <g id="line2d_26">
      <g>
       <use style="stroke:#000000;stroke-width:0.8;" x="72.80625" xlink:href="#m3dc9d66a62" y="109.900409"/>
      </g>
     </g>
     <g id="text_14">
      <!-- $\mathdefault{10^{-3}}$ -->
      <g transform="translate(30.55625 115.599237)scale(0.15 -0.15)">
       <use transform="translate(0 0.765625)" xlink:href="#DejaVuSans-31"/>
       <use transform="translate(63.623047 0.765625)" xlink:href="#DejaVuSans-30"/>
       <use transform="translate(128.203125 39.046875)scale(0.7)" xlink:href="#DejaVuSans-2212"/>
       <use transform="translate(186.855469 39.046875)scale(0.7)" xlink:href="#DejaVuSans-33"/>
      </g>
     </g>
    </g>
    <g id="ytick_6">
     <g id="line2d_27">
      <path clip-path="url(#pf0b77605d5)" d="M 72.80625 73.775939 
L 842.84625 73.775939 
" style="fill:none;stroke:#b0b0b0;stroke-linecap:square;stroke-width:0.8;"/>
     </g>
     <g id="line2d_28">
      <g>
       <use style="stroke:#000000;stroke-width:0.8;" x="72.80625" xlink:href="#m3dc9d66a62" y="73.775939"/>
      </g>
     </g>
     <g id="text_15">
      <!-- $\mathdefault{10^{-2}}$ -->
      <g transform="translate(30.55625 79.474767)scale(0.15 -0.15)">
       <use transform="translate(0 0.765625)" xlink:href="#DejaVuSans-31"/>
       <use transform="translate(63.623047 0.765625)" xlink:href="#DejaVuSans-30"/>
       <use transform="translate(128.203125 39.046875)scale(0.7)" xlink:href="#DejaVuSans-2212"/>
       <use transform="translate(186.855469 39.046875)scale(0.7)" xlink:href="#DejaVuSans-32"/>
      </g>
     </g>
    </g>
    <g id="ytick_7">
     <g id="line2d_29">
      <path clip-path="url(#pf0b77605d5)" d="M 72.80625 37.651469 
L 842.84625 37.651469 
" style="fill:none;stroke:#b0b0b0;stroke-linecap:square;stroke-width:0.8;"/>
     </g>
     <g id="line2d_30">
      <g>
       <use style="stroke:#000000;stroke-width:0.8;" x="72.80625" xlink:href="#m3dc9d66a62" y="37.651469"/>
      </g>
     </g>
     <g id="text_16">
      <!-- $\mathdefault{10^{-1}}$ -->
      <g transform="translate(30.55625 43.350297)scale(0.15 -0.15)">
       <use transform="translate(0 0.684375)" xlink:href="#DejaVuSans-31"/>
       <use transform="translate(63.623047 0.684375)" xlink:href="#DejaVuSans-30"/>
       <use transform="translate(128.203125 38.965625)scale(0.7)" xlink:href="#DejaVuSans-2212"/>
       <use transform="translate(186.855469 38.965625)scale(0.7)" xlink:href="#DejaVuSans-31"/>
      </g>
     </g>
    </g>
    <g id="ytick_8">
     <g id="line2d_31">
      <defs>
       <path d="M 0 0 
L -2 0 
" id="m92b7a53411" style="stroke:#000000;stroke-width:0.6;"/>
      </defs>
      <g>
       <use style="stroke:#000000;stroke-width:0.6;" x="72.80625" xlink:href="#m92b7a53411" y="273.287005"/>
      </g>
     </g>
    </g>
    <g id="ytick_9">
     <g id="line2d_32">
      <g>
       <use style="stroke:#000000;stroke-width:0.6;" x="72.80625" xlink:href="#m92b7a53411" y="268.773659"/>
      </g>
     </g>
    </g>
    <g id="ytick_10">
     <g id="line2d_33">
      <g>
       <use style="stroke:#000000;stroke-width:0.6;" x="72.80625" xlink:href="#m92b7a53411" y="265.272836"/>
      </g>
     </g>
    </g>
    <g id="ytick_11">
     <g id="line2d_34">
      <g>
       <use style="stroke:#000000;stroke-width:0.6;" x="72.80625" xlink:href="#m92b7a53411" y="262.412456"/>
      </g>
     </g>
    </g>
    <g id="ytick_12">
     <g id="line2d_35">
      <g>
       <use style="stroke:#000000;stroke-width:0.6;" x="72.80625" xlink:href="#m92b7a53411" y="259.994039"/>
      </g>
     </g>
    </g>
    <g id="ytick_13">
     <g id="line2d_36">
      <g>
       <use style="stroke:#000000;stroke-width:0.6;" x="72.80625" xlink:href="#m92b7a53411" y="257.89911"/>
      </g>
     </g>
    </g>
    <g id="ytick_14">
     <g id="line2d_37">
      <g>
       <use style="stroke:#000000;stroke-width:0.6;" x="72.80625" xlink:href="#m92b7a53411" y="256.051253"/>
      </g>
     </g>
    </g>
    <g id="ytick_15">
     <g id="line2d_38">
      <g>
       <use style="stroke:#000000;stroke-width:0.6;" x="72.80625" xlink:href="#m92b7a53411" y="243.523738"/>
      </g>
     </g>
    </g>
    <g id="ytick_16">
     <g id="line2d_39">
      <g>
       <use style="stroke:#000000;stroke-width:0.6;" x="72.80625" xlink:href="#m92b7a53411" y="237.162535"/>
      </g>
     </g>
    </g>
    <g id="ytick_17">
     <g id="line2d_40">
      <g>
       <use style="stroke:#000000;stroke-width:0.6;" x="72.80625" xlink:href="#m92b7a53411" y="232.64919"/>
      </g>
     </g>
    </g>
    <g id="ytick_18">
     <g id="line2d_41">
      <g>
       <use style="stroke:#000000;stroke-width:0.6;" x="72.80625" xlink:href="#m92b7a53411" y="229.148367"/>
      </g>
     </g>
    </g>
    <g id="ytick_19">
     <g id="line2d_42">
      <g>
       <use style="stroke:#000000;stroke-width:0.6;" x="72.80625" xlink:href="#m92b7a53411" y="226.287986"/>
      </g>
     </g>
    </g>
    <g id="ytick_20">
     <g id="line2d_43">
      <g>
       <use style="stroke:#000000;stroke-width:0.6;" x="72.80625" xlink:href="#m92b7a53411" y="223.869569"/>
      </g>
     </g>
    </g>
    <g id="ytick_21">
     <g id="line2d_44">
      <g>
       <use style="stroke:#000000;stroke-width:0.6;" x="72.80625" xlink:href="#m92b7a53411" y="221.774641"/>
      </g>
     </g>
    </g>
    <g id="ytick_22">
     <g id="line2d_45">
      <g>
       <use style="stroke:#000000;stroke-width:0.6;" x="72.80625" xlink:href="#m92b7a53411" y="219.926783"/>
      </g>
     </g>
    </g>
    <g id="ytick_23">
     <g id="line2d_46">
      <g>
       <use style="stroke:#000000;stroke-width:0.6;" x="72.80625" xlink:href="#m92b7a53411" y="207.399269"/>
      </g>
     </g>
    </g>
    <g id="ytick_24">
     <g id="line2d_47">
      <g>
       <use style="stroke:#000000;stroke-width:0.6;" x="72.80625" xlink:href="#m92b7a53411" y="201.038065"/>
      </g>
     </g>
    </g>
    <g id="ytick_25">
     <g id="line2d_48">
      <g>
       <use style="stroke:#000000;stroke-width:0.6;" x="72.80625" xlink:href="#m92b7a53411" y="196.52472"/>
      </g>
     </g>
    </g>
    <g id="ytick_26">
     <g id="line2d_49">
      <g>
       <use style="stroke:#000000;stroke-width:0.6;" x="72.80625" xlink:href="#m92b7a53411" y="193.023897"/>
      </g>
     </g>
    </g>
    <g id="ytick_27">
     <g id="line2d_50">
      <g>
       <use style="stroke:#000000;stroke-width:0.6;" x="72.80625" xlink:href="#m92b7a53411" y="190.163516"/>
      </g>
     </g>
    </g>
    <g id="ytick_28">
     <g id="line2d_51">
      <g>
       <use style="stroke:#000000;stroke-width:0.6;" x="72.80625" xlink:href="#m92b7a53411" y="187.745099"/>
      </g>
     </g>
    </g>
    <g id="ytick_29">
     <g id="line2d_52">
      <g>
       <use style="stroke:#000000;stroke-width:0.6;" x="72.80625" xlink:href="#m92b7a53411" y="185.650171"/>
      </g>
     </g>
    </g>
    <g id="ytick_30">
     <g id="line2d_53">
      <g>
       <use style="stroke:#000000;stroke-width:0.6;" x="72.80625" xlink:href="#m92b7a53411" y="183.802313"/>
      </g>
     </g>
    </g>
    <g id="ytick_31">
     <g id="line2d_54">
      <g>
       <use style="stroke:#000000;stroke-width:0.6;" x="72.80625" xlink:href="#m92b7a53411" y="171.274799"/>
      </g>
     </g>
    </g>
    <g id="ytick_32">
     <g id="line2d_55">
      <g>
       <use style="stroke:#000000;stroke-width:0.6;" x="72.80625" xlink:href="#m92b7a53411" y="164.913596"/>
      </g>
     </g>
    </g>
    <g id="ytick_33">
     <g id="line2d_56">
      <g>
       <use style="stroke:#000000;stroke-width:0.6;" x="72.80625" xlink:href="#m92b7a53411" y="160.40025"/>
      </g>
     </g>
    </g>
    <g id="ytick_34">
     <g id="line2d_57">
      <g>
       <use style="stroke:#000000;stroke-width:0.6;" x="72.80625" xlink:href="#m92b7a53411" y="156.899427"/>
      </g>
     </g>
    </g>
    <g id="ytick_35">
     <g id="line2d_58">
      <g>
       <use style="stroke:#000000;stroke-width:0.6;" x="72.80625" xlink:href="#m92b7a53411" y="154.039047"/>
      </g>
     </g>
    </g>
    <g id="ytick_36">
     <g id="line2d_59">
      <g>
       <use style="stroke:#000000;stroke-width:0.6;" x="72.80625" xlink:href="#m92b7a53411" y="151.620629"/>
      </g>
     </g>
    </g>
    <g id="ytick_37">
     <g id="line2d_60">
      <g>
       <use style="stroke:#000000;stroke-width:0.6;" x="72.80625" xlink:href="#m92b7a53411" y="149.525701"/>
      </g>
     </g>
    </g>
    <g id="ytick_38">
     <g id="line2d_61">
      <g>
       <use style="stroke:#000000;stroke-width:0.6;" x="72.80625" xlink:href="#m92b7a53411" y="147.677843"/>
      </g>
     </g>
    </g>
    <g id="ytick_39">
     <g id="line2d_62">
      <g>
       <use style="stroke:#000000;stroke-width:0.6;" x="72.80625" xlink:href="#m92b7a53411" y="135.150329"/>
      </g>
     </g>
    </g>
    <g id="ytick_40">
     <g id="line2d_63">
      <g>
       <use style="stroke:#000000;stroke-width:0.6;" x="72.80625" xlink:href="#m92b7a53411" y="128.789126"/>
      </g>
     </g>
    </g>
    <g id="ytick_41">
     <g id="line2d_64">
      <g>
       <use style="stroke:#000000;stroke-width:0.6;" x="72.80625" xlink:href="#m92b7a53411" y="124.27578"/>
      </g>
     </g>
    </g>
    <g id="ytick_42">
     <g id="line2d_65">
      <g>
       <use style="stroke:#000000;stroke-width:0.6;" x="72.80625" xlink:href="#m92b7a53411" y="120.774958"/>
      </g>
     </g>
    </g>
    <g id="ytick_43">
     <g id="line2d_66">
      <g>
       <use style="stroke:#000000;stroke-width:0.6;" x="72.80625" xlink:href="#m92b7a53411" y="117.914577"/>
      </g>
     </g>
    </g>
    <g id="ytick_44">
     <g id="line2d_67">
      <g>
       <use style="stroke:#000000;stroke-width:0.6;" x="72.80625" xlink:href="#m92b7a53411" y="115.49616"/>
      </g>
     </g>
    </g>
    <g id="ytick_45">
     <g id="line2d_68">
      <g>
       <use style="stroke:#000000;stroke-width:0.6;" x="72.80625" xlink:href="#m92b7a53411" y="113.401231"/>
      </g>
     </g>
    </g>
    <g id="ytick_46">
     <g id="line2d_69">
      <g>
       <use style="stroke:#000000;stroke-width:0.6;" x="72.80625" xlink:href="#m92b7a53411" y="111.553374"/>
      </g>
     </g>
    </g>
    <g id="ytick_47">
     <g id="line2d_70">
      <g>
       <use style="stroke:#000000;stroke-width:0.6;" x="72.80625" xlink:href="#m92b7a53411" y="99.02586"/>
      </g>
     </g>
    </g>
    <g id="ytick_48">
     <g id="line2d_71">
      <g>
       <use style="stroke:#000000;stroke-width:0.6;" x="72.80625" xlink:href="#m92b7a53411" y="92.664656"/>
      </g>
     </g>
    </g>
    <g id="ytick_49">
     <g id="line2d_72">
      <g>
       <use style="stroke:#000000;stroke-width:0.6;" x="72.80625" xlink:href="#m92b7a53411" y="88.151311"/>
      </g>
     </g>
    </g>
    <g id="ytick_50">
     <g id="line2d_73">
      <g>
       <use style="stroke:#000000;stroke-width:0.6;" x="72.80625" xlink:href="#m92b7a53411" y="84.650488"/>
      </g>
     </g>
    </g>
    <g id="ytick_51">
     <g id="line2d_74">
      <g>
       <use style="stroke:#000000;stroke-width:0.6;" x="72.80625" xlink:href="#m92b7a53411" y="81.790107"/>
      </g>
     </g>
    </g>
    <g id="ytick_52">
     <g id="line2d_75">
      <g>
       <use style="stroke:#000000;stroke-width:0.6;" x="72.80625" xlink:href="#m92b7a53411" y="79.37169"/>
      </g>
     </g>
    </g>
    <g id="ytick_53">
     <g id="line2d_76">
      <g>
       <use style="stroke:#000000;stroke-width:0.6;" x="72.80625" xlink:href="#m92b7a53411" y="77.276762"/>
      </g>
     </g>
    </g>
    <g id="ytick_54">
     <g id="line2d_77">
      <g>
       <use style="stroke:#000000;stroke-width:0.6;" x="72.80625" xlink:href="#m92b7a53411" y="75.428904"/>
      </g>
     </g>
    </g>
    <g id="ytick_55">
     <g id="line2d_78">
      <g>
       <use style="stroke:#000000;stroke-width:0.6;" x="72.80625" xlink:href="#m92b7a53411" y="62.90139"/>
      </g>
     </g>
    </g>
    <g id="ytick_56">
     <g id="line2d_79">
      <g>
       <use style="stroke:#000000;stroke-width:0.6;" x="72.80625" xlink:href="#m92b7a53411" y="56.540187"/>
      </g>
     </g>
    </g>
    <g id="ytick_57">
     <g id="line2d_80">
      <g>
       <use style="stroke:#000000;stroke-width:0.6;" x="72.80625" xlink:href="#m92b7a53411" y="52.026841"/>
      </g>
     </g>
    </g>
    <g id="ytick_58">
     <g id="line2d_81">
      <g>
       <use style="stroke:#000000;stroke-width:0.6;" x="72.80625" xlink:href="#m92b7a53411" y="48.526018"/>
      </g>
     </g>
    </g>
    <g id="ytick_59">
     <g id="line2d_82">
      <g>
       <use style="stroke:#000000;stroke-width:0.6;" x="72.80625" xlink:href="#m92b7a53411" y="45.665638"/>
      </g>
     </g>
    </g>
    <g id="ytick_60">
     <g id="line2d_83">
      <g>
       <use style="stroke:#000000;stroke-width:0.6;" x="72.80625" xlink:href="#m92b7a53411" y="43.24722"/>
      </g>
     </g>
    </g>
    <g id="ytick_61">
     <g id="line2d_84">
      <g>
       <use style="stroke:#000000;stroke-width:0.6;" x="72.80625" xlink:href="#m92b7a53411" y="41.152292"/>
      </g>
     </g>
    </g>
    <g id="ytick_62">
     <g id="line2d_85">
      <g>
       <use style="stroke:#000000;stroke-width:0.6;" x="72.80625" xlink:href="#m92b7a53411" y="39.304434"/>
      </g>
     </g>
    </g>
    <g id="ytick_63">
     <g id="line2d_86">
      <g>
       <use style="stroke:#000000;stroke-width:0.6;" x="72.80625" xlink:href="#m92b7a53411" y="26.77692"/>
      </g>
     </g>
    </g>
    <g id="ytick_64">
     <g id="line2d_87">
      <g>
       <use style="stroke:#000000;stroke-width:0.6;" x="72.80625" xlink:href="#m92b7a53411" y="20.415717"/>
      </g>
     </g>
    </g>
    <g id="ytick_65">
     <g id="line2d_88">
      <g>
       <use style="stroke:#000000;stroke-width:0.6;" x="72.80625" xlink:href="#m92b7a53411" y="15.902371"/>
      </g>
     </g>
    </g>
    <g id="ytick_66">
     <g id="line2d_89">
      <g>
       <use style="stroke:#000000;stroke-width:0.6;" x="72.80625" xlink:href="#m92b7a53411" y="12.401549"/>
      </g>
     </g>
    </g>
    <g id="ytick_67">
     <g id="line2d_90">
      <g>
       <use style="stroke:#000000;stroke-width:0.6;" x="72.80625" xlink:href="#m92b7a53411" y="9.541168"/>
      </g>
     </g>
    </g>
    <g id="text_17">
     <!-- FCF -->
     <g transform="translate(22.396875 158.741937)rotate(-90)scale(0.2 -0.2)">
      <defs>
       <path d="M 628 4666 
L 3309 4666 
L 3309 4134 
L 1259 4134 
L 1259 2759 
L 3109 2759 
L 3109 2228 
L 1259 2228 
L 1259 0 
L 628 0 
L 628 4666 
z
" id="DejaVuSans-46" transform="scale(0.015625)"/>
       <path d="M 4122 4306 
L 4122 3641 
Q 3803 3938 3442 4084 
Q 3081 4231 2675 4231 
Q 1875 4231 1450 3742 
Q 1025 3253 1025 2328 
Q 1025 1406 1450 917 
Q 1875 428 2675 428 
Q 3081 428 3442 575 
Q 3803 722 4122 1019 
L 4122 359 
Q 3791 134 3420 21 
Q 3050 -91 2638 -91 
Q 1578 -91 968 557 
Q 359 1206 359 2328 
Q 359 3453 968 4101 
Q 1578 4750 2638 4750 
Q 3056 4750 3426 4639 
Q 3797 4528 4122 4306 
z
" id="DejaVuSans-43" transform="scale(0.015625)"/>
      </defs>
      <use xlink:href="#DejaVuSans-46"/>
      <use x="57.519531" xlink:href="#DejaVuSans-43"/>
      <use x="127.34375" xlink:href="#DejaVuSans-46"/>
     </g>
    </g>
   </g>
   <g id="line2d_91">
    <path clip-path="url(#pf0b77605d5)" d="M 72.80625 150.228045 
L 83.354743 161.547285 
L 93.903236 193.682131 
L 104.451729 158.063138 
L 115.000223 195.229775 
L 125.548716 167.357064 
L 136.097209 165.22734 
L 146.645702 225.066204 
L 157.194195 163.139013 
L 167.742688 173.191967 
L 178.291182 202.109228 
L 188.839675 163.996824 
L 199.388168 173.819489 
L 209.936661 215.863406 
L 220.485154 166.529762 
L 231.033647 168.236431 
L 241.58214 224.565771 
L 252.130634 176.691461 
L 262.679127 164.359909 
L 273.22762 177.527125 
L 283.776113 243.151085 
L 294.324606 173.592308 
L 304.873099 165.312713 
L 315.421592 176.784064 
L 325.970086 261.216 
L 336.518579 181.159808 
L 347.067072 166.698568 
L 357.615565 169.550894 
L 368.164058 193.576875 
L 378.712551 209.657872 
L 389.261045 172.467274 
L 399.809538 165.896267 
L 410.358031 178.908979 
L 420.906524 236.900875 
L 431.455017 169.999114 
L 442.00351 162.725977 
L 452.552003 188.041103 
L 463.100497 181.038636 
L 473.64899 157.577501 
L 484.197483 172.390953 
L 494.745976 184.303079 
L 505.294469 153.213459 
L 515.842962 167.566755 
L 526.391455 179.239261 
L 536.939949 149.295018 
L 547.488442 163.660824 
L 558.036935 177.248028 
L 568.585428 145.936679 
L 579.133921 158.472076 
L 589.682414 180.763095 
L 600.230908 143.530242 
L 610.779401 151.286745 
L 621.327894 185.453007 
L 631.876387 139.220528 
L 642.42488 149.355966 
L 652.973373 160.894167 
L 663.521866 131.212947 
L 674.07036 163.489369 
L 684.618853 134.539835 
L 695.167346 128.556112 
L 705.715839 164.474776 
L 716.264332 117.772831 
L 726.812825 163.686637 
L 737.361318 113.336059 
L 747.909812 122.4063 
L 758.458305 116.636581 
L 769.006798 103.77503 
L 779.555291 135.095756 
L 790.103784 93.758102 
L 800.652277 118.126182 
L 811.200771 104.635757 
L 821.749264 38.708293 
L 832.297757 19.296 
L 842.84625 47.016916 
" style="fill:none;stroke:#1f77b4;stroke-linecap:square;stroke-width:1.5;"/>
    <defs>
     <path d="M 0 3 
C 0.795609 3 1.55874 2.683901 2.12132 2.12132 
C 2.683901 1.55874 3 0.795609 3 0 
C 3 -0.795609 2.683901 -1.55874 2.12132 -2.12132 
C 1.55874 -2.683901 0.795609 -3 0 -3 
C -0.795609 -3 -1.55874 -2.683901 -2.12132 -2.12132 
C -2.683901 -1.55874 -3 -0.795609 -3 0 
C -3 0.795609 -2.683901 1.55874 -2.12132 2.12132 
C -1.55874 2.683901 -0.795609 3 0 3 
z
" id="mbba83eb1af" style="stroke:#1f77b4;"/>
    </defs>
    <g clip-path="url(#pf0b77605d5)">
     <use style="fill:#1f77b4;stroke:#1f77b4;" x="72.80625" xlink:href="#mbba83eb1af" y="150.228045"/>
     <use style="fill:#1f77b4;stroke:#1f77b4;" x="83.354743" xlink:href="#mbba83eb1af" y="161.547285"/>
     <use style="fill:#1f77b4;stroke:#1f77b4;" x="93.903236" xlink:href="#mbba83eb1af" y="193.682131"/>
     <use style="fill:#1f77b4;stroke:#1f77b4;" x="104.451729" xlink:href="#mbba83eb1af" y="158.063138"/>
     <use style="fill:#1f77b4;stroke:#1f77b4;" x="115.000223" xlink:href="#mbba83eb1af" y="195.229775"/>
     <use style="fill:#1f77b4;stroke:#1f77b4;" x="125.548716" xlink:href="#mbba83eb1af" y="167.357064"/>
     <use style="fill:#1f77b4;stroke:#1f77b4;" x="136.097209" xlink:href="#mbba83eb1af" y="165.22734"/>
     <use style="fill:#1f77b4;stroke:#1f77b4;" x="146.645702" xlink:href="#mbba83eb1af" y="225.066204"/>
     <use style="fill:#1f77b4;stroke:#1f77b4;" x="157.194195" xlink:href="#mbba83eb1af" y="163.139013"/>
     <use style="fill:#1f77b4;stroke:#1f77b4;" x="167.742688" xlink:href="#mbba83eb1af" y="173.191967"/>
     <use style="fill:#1f77b4;stroke:#1f77b4;" x="178.291182" xlink:href="#mbba83eb1af" y="202.109228"/>
     <use style="fill:#1f77b4;stroke:#1f77b4;" x="188.839675" xlink:href="#mbba83eb1af" y="163.996824"/>
     <use style="fill:#1f77b4;stroke:#1f77b4;" x="199.388168" xlink:href="#mbba83eb1af" y="173.819489"/>
     <use style="fill:#1f77b4;stroke:#1f77b4;" x="209.936661" xlink:href="#mbba83eb1af" y="215.863406"/>
     <use style="fill:#1f77b4;stroke:#1f77b4;" x="220.485154" xlink:href="#mbba83eb1af" y="166.529762"/>
     <use style="fill:#1f77b4;stroke:#1f77b4;" x="231.033647" xlink:href="#mbba83eb1af" y="168.236431"/>
     <use style="fill:#1f77b4;stroke:#1f77b4;" x="241.58214" xlink:href="#mbba83eb1af" y="224.565771"/>
     <use style="fill:#1f77b4;stroke:#1f77b4;" x="252.130634" xlink:href="#mbba83eb1af" y="176.691461"/>
     <use style="fill:#1f77b4;stroke:#1f77b4;" x="262.679127" xlink:href="#mbba83eb1af" y="164.359909"/>
     <use style="fill:#1f77b4;stroke:#1f77b4;" x="273.22762" xlink:href="#mbba83eb1af" y="177.527125"/>
     <use style="fill:#1f77b4;stroke:#1f77b4;" x="283.776113" xlink:href="#mbba83eb1af" y="243.151085"/>
     <use style="fill:#1f77b4;stroke:#1f77b4;" x="294.324606" xlink:href="#mbba83eb1af" y="173.592308"/>
     <use style="fill:#1f77b4;stroke:#1f77b4;" x="304.873099" xlink:href="#mbba83eb1af" y="165.312713"/>
     <use style="fill:#1f77b4;stroke:#1f77b4;" x="315.421592" xlink:href="#mbba83eb1af" y="176.784064"/>
     <use style="fill:#1f77b4;stroke:#1f77b4;" x="325.970086" xlink:href="#mbba83eb1af" y="261.216"/>
     <use style="fill:#1f77b4;stroke:#1f77b4;" x="336.518579" xlink:href="#mbba83eb1af" y="181.159808"/>
     <use style="fill:#1f77b4;stroke:#1f77b4;" x="347.067072" xlink:href="#mbba83eb1af" y="166.698568"/>
     <use style="fill:#1f77b4;stroke:#1f77b4;" x="357.615565" xlink:href="#mbba83eb1af" y="169.550894"/>
     <use style="fill:#1f77b4;stroke:#1f77b4;" x="368.164058" xlink:href="#mbba83eb1af" y="193.576875"/>
     <use style="fill:#1f77b4;stroke:#1f77b4;" x="378.712551" xlink:href="#mbba83eb1af" y="209.657872"/>
     <use style="fill:#1f77b4;stroke:#1f77b4;" x="389.261045" xlink:href="#mbba83eb1af" y="172.467274"/>
     <use style="fill:#1f77b4;stroke:#1f77b4;" x="399.809538" xlink:href="#mbba83eb1af" y="165.896267"/>
     <use style="fill:#1f77b4;stroke:#1f77b4;" x="410.358031" xlink:href="#mbba83eb1af" y="178.908979"/>
     <use style="fill:#1f77b4;stroke:#1f77b4;" x="420.906524" xlink:href="#mbba83eb1af" y="236.900875"/>
     <use style="fill:#1f77b4;stroke:#1f77b4;" x="431.455017" xlink:href="#mbba83eb1af" y="169.999114"/>
     <use style="fill:#1f77b4;stroke:#1f77b4;" x="442.00351" xlink:href="#mbba83eb1af" y="162.725977"/>
     <use style="fill:#1f77b4;stroke:#1f77b4;" x="452.552003" xlink:href="#mbba83eb1af" y="188.041103"/>
     <use style="fill:#1f77b4;stroke:#1f77b4;" x="463.100497" xlink:href="#mbba83eb1af" y="181.038636"/>
     <use style="fill:#1f77b4;stroke:#1f77b4;" x="473.64899" xlink:href="#mbba83eb1af" y="157.577501"/>
     <use style="fill:#1f77b4;stroke:#1f77b4;" x="484.197483" xlink:href="#mbba83eb1af" y="172.390953"/>
     <use style="fill:#1f77b4;stroke:#1f77b4;" x="494.745976" xlink:href="#mbba83eb1af" y="184.303079"/>
     <use style="fill:#1f77b4;stroke:#1f77b4;" x="505.294469" xlink:href="#mbba83eb1af" y="153.213459"/>
     <use style="fill:#1f77b4;stroke:#1f77b4;" x="515.842962" xlink:href="#mbba83eb1af" y="167.566755"/>
     <use style="fill:#1f77b4;stroke:#1f77b4;" x="526.391455" xlink:href="#mbba83eb1af" y="179.239261"/>
     <use style="fill:#1f77b4;stroke:#1f77b4;" x="536.939949" xlink:href="#mbba83eb1af" y="149.295018"/>
     <use style="fill:#1f77b4;stroke:#1f77b4;" x="547.488442" xlink:href="#mbba83eb1af" y="163.660824"/>
     <use style="fill:#1f77b4;stroke:#1f77b4;" x="558.036935" xlink:href="#mbba83eb1af" y="177.248028"/>
     <use style="fill:#1f77b4;stroke:#1f77b4;" x="568.585428" xlink:href="#mbba83eb1af" y="145.936679"/>
     <use style="fill:#1f77b4;stroke:#1f77b4;" x="579.133921" xlink:href="#mbba83eb1af" y="158.472076"/>
     <use style="fill:#1f77b4;stroke:#1f77b4;" x="589.682414" xlink:href="#mbba83eb1af" y="180.763095"/>
     <use style="fill:#1f77b4;stroke:#1f77b4;" x="600.230908" xlink:href="#mbba83eb1af" y="143.530242"/>
     <use style="fill:#1f77b4;stroke:#1f77b4;" x="610.779401" xlink:href="#mbba83eb1af" y="151.286745"/>
     <use style="fill:#1f77b4;stroke:#1f77b4;" x="621.327894" xlink:href="#mbba83eb1af" y="185.453007"/>
     <use style="fill:#1f77b4;stroke:#1f77b4;" x="631.876387" xlink:href="#mbba83eb1af" y="139.220528"/>
     <use style="fill:#1f77b4;stroke:#1f77b4;" x="642.42488" xlink:href="#mbba83eb1af" y="149.355966"/>
     <use style="fill:#1f77b4;stroke:#1f77b4;" x="652.973373" xlink:href="#mbba83eb1af" y="160.894167"/>
     <use style="fill:#1f77b4;stroke:#1f77b4;" x="663.521866" xlink:href="#mbba83eb1af" y="131.212947"/>
     <use style="fill:#1f77b4;stroke:#1f77b4;" x="674.07036" xlink:href="#mbba83eb1af" y="163.489369"/>
     <use style="fill:#1f77b4;stroke:#1f77b4;" x="684.618853" xlink:href="#mbba83eb1af" y="134.539835"/>
     <use style="fill:#1f77b4;stroke:#1f77b4;" x="695.167346" xlink:href="#mbba83eb1af" y="128.556112"/>
     <use style="fill:#1f77b4;stroke:#1f77b4;" x="705.715839" xlink:href="#mbba83eb1af" y="164.474776"/>
     <use style="fill:#1f77b4;stroke:#1f77b4;" x="716.264332" xlink:href="#mbba83eb1af" y="117.772831"/>
     <use style="fill:#1f77b4;stroke:#1f77b4;" x="726.812825" xlink:href="#mbba83eb1af" y="163.686637"/>
     <use style="fill:#1f77b4;stroke:#1f77b4;" x="737.361318" xlink:href="#mbba83eb1af" y="113.336059"/>
     <use style="fill:#1f77b4;stroke:#1f77b4;" x="747.909812" xlink:href="#mbba83eb1af" y="122.4063"/>
     <use style="fill:#1f77b4;stroke:#1f77b4;" x="758.458305" xlink:href="#mbba83eb1af" y="116.636581"/>
     <use style="fill:#1f77b4;stroke:#1f77b4;" x="769.006798" xlink:href="#mbba83eb1af" y="103.77503"/>
     <use style="fill:#1f77b4;stroke:#1f77b4;" x="779.555291" xlink:href="#mbba83eb1af" y="135.095756"/>
     <use style="fill:#1f77b4;stroke:#1f77b4;" x="790.103784" xlink:href="#mbba83eb1af" y="93.758102"/>
     <use style="fill:#1f77b4;stroke:#1f77b4;" x="800.652277" xlink:href="#mbba83eb1af" y="118.126182"/>
     <use style="fill:#1f77b4;stroke:#1f77b4;" x="811.200771" xlink:href="#mbba83eb1af" y="104.635757"/>
     <use style="fill:#1f77b4;stroke:#1f77b4;" x="821.749264" xlink:href="#mbba83eb1af" y="38.708293"/>
     <use style="fill:#1f77b4;stroke:#1f77b4;" x="832.297757" xlink:href="#mbba83eb1af" y="19.296"/>
     <use style="fill:#1f77b4;stroke:#1f77b4;" x="842.84625" xlink:href="#mbba83eb1af" y="47.016916"/>
    </g>
   </g>
   <g id="patch_3">
    <path d="M 72.80625 273.312 
L 72.80625 7.2 
" style="fill:none;stroke:#000000;stroke-linecap:square;stroke-linejoin:miter;stroke-width:0.8;"/>
   </g>
   <g id="patch_4">
    <path d="M 842.84625 273.312 
L 842.84625 7.2 
" style="fill:none;stroke:#000000;stroke-linecap:square;stroke-linejoin:miter;stroke-width:0.8;"/>
   </g>
   <g id="patch_5">
    <path d="M 72.80625 273.312 
L 842.84625 273.312 
" style="fill:none;stroke:#000000;stroke-linecap:square;stroke-linejoin:miter;stroke-width:0.8;"/>
   </g>
   <g id="patch_6">
    <path d="M 72.80625 7.2 
L 842.84625 7.2 
" style="fill:none;stroke:#000000;stroke-linecap:square;stroke-linejoin:miter;stroke-width:0.8;"/>
   </g>
  </g>
 </g>
 <defs>
  <clipPath id="pf0b77605d5">
   <rect height="266.112" width="770.04" x="72.80625" y="7.2"/>
  </clipPath>
 </defs>
</svg>
