<?xml version="1.0" encoding="utf-8" standalone="no"?>
<!DOCTYPE svg PUBLIC "-//W3C//DTD SVG 1.1//EN"
  "http://www.w3.org/Graphics/SVG/1.1/DTD/svg11.dtd">
<!-- Created with matplotlib (https://matplotlib.org/) -->
<svg height="182.894624pt" version="1.1" viewBox="0 0 231.82375 182.894624" width="231.82375pt" xmlns="http://www.w3.org/2000/svg" xmlns:xlink="http://www.w3.org/1999/xlink">
 <defs>
  <style type="text/css">*{stroke-linecap:butt;stroke-linejoin:round;}</style>
 </defs>
 <g id="figure_1">
  <g id="patch_1">
   <path d="M 0 182.894624 
L 231.82375 182.894624 
L 231.82375 0 
L 0 0 
z
" style="fill:none;"/>
  </g>
  <g id="axes_1">
   <g id="patch_2">
    <path d="M 23.74375 175.694624 
L 224.62375 175.694624 
L 224.62375 9.374624 
L 23.74375 9.374624 
z
" style="fill:none;"/>
   </g>
   <g id="patch_3">
    <path clip-path="url(#p51bb2e2e1c)" d="M 23.74375 175.694624 
L 194.745145 175.694624 
L 194.745145 9.374624 
L 23.74375 9.374624 
z
" style="fill:#ffffff;opacity:0.9;"/>
   </g>
   <g id="patch_4">
    <path clip-path="url(#p51bb2e2e1c)" d="M 194.745145 149.93133 
L 224.62375 149.93133 
L 224.62375 9.374624 
L 194.745145 9.374624 
z
" style="fill:#ffffff;opacity:0.9;"/>
   </g>
   <g id="matplotlib.axis_1"/>
   <g id="matplotlib.axis_2">
    <g id="ytick_1">
     <g id="line2d_1">
      <defs>
       <path d="M 0 0 
L -3.5 0 
" id="mc3ce260a5b" style="stroke:#000000;stroke-width:0.8;"/>
      </defs>
      <g>
       <use style="stroke:#000000;stroke-width:0.8;" x="23.74375" xlink:href="#mc3ce260a5b" y="113.033446"/>
      </g>
     </g>
     <g id="text_1">
      <!-- 1 -->
      <g transform="translate(7.2 118.732274)scale(0.15 -0.15)">
       <defs>
        <path d="M 12.40625 8.296875 
L 28.515625 8.296875 
L 28.515625 63.921875 
L 10.984375 60.40625 
L 10.984375 69.390625 
L 28.421875 72.90625 
L 38.28125 72.90625 
L 38.28125 8.296875 
L 54.390625 8.296875 
L 54.390625 0 
L 12.40625 0 
z
" id="DejaVuSans-49"/>
       </defs>
       <use xlink:href="#DejaVuSans-49"/>
      </g>
     </g>
    </g>
    <g id="ytick_2">
     <g id="line2d_2">
      <g>
       <use style="stroke:#000000;stroke-width:0.8;" x="23.74375" xlink:href="#mc3ce260a5b" y="12.898828"/>
      </g>
     </g>
     <g id="text_2">
      <!-- 4 -->
      <g transform="translate(7.2 18.597656)scale(0.15 -0.15)">
       <defs>
        <path d="M 37.796875 64.3125 
L 12.890625 25.390625 
L 37.796875 25.390625 
z
M 35.203125 72.90625 
L 47.609375 72.90625 
L 47.609375 25.390625 
L 58.015625 25.390625 
L 58.015625 17.1875 
L 47.609375 17.1875 
L 47.609375 0 
L 37.796875 0 
L 37.796875 17.1875 
L 4.890625 17.1875 
L 4.890625 26.703125 
z
" id="DejaVuSans-52"/>
       </defs>
       <use xlink:href="#DejaVuSans-52"/>
      </g>
     </g>
    </g>
   </g>
   <g id="LineCollection_1">
    <path clip-path="url(#p51bb2e2e1c)" d="M 210.683377 28.1196 
L 210.683377 26.270786 
" style="fill:none;stroke:#1f77b4;stroke-width:1.5;"/>
   </g>
   <g id="LineCollection_2">
    <path clip-path="url(#p51bb2e2e1c)" d="M 108.629096 103.001019 
L 108.629096 98.966719 
" style="fill:none;stroke:#ff7f0e;stroke-width:1.5;"/>
   </g>
   <g id="LineCollection_3">
    <path clip-path="url(#p51bb2e2e1c)" d="M 31.428012 167.110541 
L 31.428012 162.668659 
" style="fill:none;stroke:#2ca02c;stroke-width:1.5;"/>
   </g>
   <g id="line2d_3">
    <path clip-path="url(#p51bb2e2e1c)" d="M 23.74375 176.657712 
L 215.051687 16.608497 
L 215.051687 16.608497 
" style="fill:none;stroke:#000000;stroke-linecap:square;stroke-width:1.5;"/>
   </g>
   <g id="line2d_4">
    <defs>
     <path d="M 0 3 
C 0.795609 3 1.55874 2.683901 2.12132 2.12132 
C 2.683901 1.55874 3 0.795609 3 0 
C 3 -0.795609 2.683901 -1.55874 2.12132 -2.12132 
C 1.55874 -2.683901 0.795609 -3 0 -3 
C -0.795609 -3 -1.55874 -2.683901 -2.12132 -2.12132 
C -2.683901 -1.55874 -3 -0.795609 -3 0 
C -3 0.795609 -2.683901 1.55874 -2.12132 2.12132 
C -1.55874 2.683901 -0.795609 3 0 3 
z
" id="mcb2457e3ba" style="stroke:#1f77b4;"/>
    </defs>
    <g clip-path="url(#p51bb2e2e1c)">
     <use style="fill:#1f77b4;stroke:#1f77b4;" x="210.683377" xlink:href="#mcb2457e3ba" y="27.189278"/>
    </g>
   </g>
   <g id="line2d_5">
    <defs>
     <path d="M 0 3 
C 0.795609 3 1.55874 2.683901 2.12132 2.12132 
C 2.683901 1.55874 3 0.795609 3 0 
C 3 -0.795609 2.683901 -1.55874 2.12132 -2.12132 
C 1.55874 -2.683901 0.795609 -3 0 -3 
C -0.795609 -3 -1.55874 -2.683901 -2.12132 -2.12132 
C -2.683901 -1.55874 -3 -0.795609 -3 0 
C -3 0.795609 -2.683901 1.55874 -2.12132 2.12132 
C -1.55874 2.683901 -0.795609 3 0 3 
z
" id="mbbb2a9d153" style="stroke:#ff7f0e;"/>
    </defs>
    <g clip-path="url(#p51bb2e2e1c)">
     <use style="fill:#ff7f0e;stroke:#ff7f0e;" x="108.629096" xlink:href="#mbbb2a9d153" y="100.955707"/>
    </g>
   </g>
   <g id="line2d_6">
    <defs>
     <path d="M 0 3 
C 0.795609 3 1.55874 2.683901 2.12132 2.12132 
C 2.683901 1.55874 3 0.795609 3 0 
C 3 -0.795609 2.683901 -1.55874 2.12132 -2.12132 
C 1.55874 -2.683901 0.795609 -3 0 -3 
C -0.795609 -3 -1.55874 -2.683901 -2.12132 -2.12132 
C -2.683901 -1.55874 -3 -0.795609 -3 0 
C -3 0.795609 -2.683901 1.55874 -2.12132 2.12132 
C -1.55874 2.683901 -0.795609 3 0 3 
z
" id="mbab2358add" style="stroke:#2ca02c;"/>
    </defs>
    <g clip-path="url(#p51bb2e2e1c)">
     <use style="fill:#2ca02c;stroke:#2ca02c;" x="31.428012" xlink:href="#mbab2358add" y="164.855461"/>
    </g>
   </g>
   <g id="patch_5">
    <path d="M 23.74375 175.694624 
L 23.74375 9.374624 
" style="fill:none;stroke:#000000;stroke-linecap:square;stroke-linejoin:miter;stroke-width:0.8;"/>
   </g>
  </g>
 </g>
 <defs>
  <clipPath id="p51bb2e2e1c">
   <rect height="166.32" width="200.88" x="23.74375" y="9.374624"/>
  </clipPath>
 </defs>
</svg>
