<?xml version="1.0" encoding="utf-8" standalone="no"?>
<!DOCTYPE svg PUBLIC "-//W3C//DTD SVG 1.1//EN"
  "http://www.w3.org/Graphics/SVG/1.1/DTD/svg11.dtd">
<!-- Created with matplotlib (https://matplotlib.org/) -->
<svg height="358.649437pt" version="1.1" viewBox="0 0 456.06 358.649437" width="456.06pt" xmlns="http://www.w3.org/2000/svg" xmlns:xlink="http://www.w3.org/1999/xlink">
 <defs>
  <style type="text/css">*{stroke-linecap:butt;stroke-linejoin:round;}</style>
 </defs>
 <g id="figure_1">
  <g id="patch_1">
   <path d="M 0 358.649437 
L 456.06 358.649437 
L 456.06 0 
L 0 0 
z
" style="fill:none;"/>
  </g>
  <g id="axes_1">
   <g id="patch_2">
    <path d="M 47.1 306.576 
L 448.86 306.576 
L 448.86 7.2 
L 47.1 7.2 
z
" style="fill:none;"/>
   </g>
   <g id="matplotlib.axis_1">
    <g id="xtick_1">
     <g id="line2d_1">
      <path clip-path="url(#p265ccd7ad1)" d="M 83.596421 306.576 
L 83.596421 7.2 
" style="fill:none;stroke:#b0b0b0;stroke-linecap:square;stroke-width:0.8;"/>
     </g>
     <g id="line2d_2">
      <defs>
       <path d="M 0 0 
L 0 3.5 
" id="m005f0a59be" style="stroke:#000000;stroke-width:0.8;"/>
      </defs>
      <g>
       <use style="stroke:#000000;stroke-width:0.8;" x="83.596421" xlink:href="#m005f0a59be" y="306.576"/>
      </g>
     </g>
     <g id="text_1">
      <!-- −200 -->
      <g transform="translate(62.99603 324.973656)scale(0.15 -0.15)">
       <defs>
        <path d="M 10.59375 35.5 
L 73.1875 35.5 
L 73.1875 27.203125 
L 10.59375 27.203125 
z
" id="DejaVuSans-8722"/>
        <path d="M 19.1875 8.296875 
L 53.609375 8.296875 
L 53.609375 0 
L 7.328125 0 
L 7.328125 8.296875 
Q 12.9375 14.109375 22.625 23.890625 
Q 32.328125 33.6875 34.8125 36.53125 
Q 39.546875 41.84375 41.421875 45.53125 
Q 43.3125 49.21875 43.3125 52.78125 
Q 43.3125 58.59375 39.234375 62.25 
Q 35.15625 65.921875 28.609375 65.921875 
Q 23.96875 65.921875 18.8125 64.3125 
Q 13.671875 62.703125 7.8125 59.421875 
L 7.8125 69.390625 
Q 13.765625 71.78125 18.9375 73 
Q 24.125 74.21875 28.421875 74.21875 
Q 39.75 74.21875 46.484375 68.546875 
Q 53.21875 62.890625 53.21875 53.421875 
Q 53.21875 48.921875 51.53125 44.890625 
Q 49.859375 40.875 45.40625 35.40625 
Q 44.1875 33.984375 37.640625 27.21875 
Q 31.109375 20.453125 19.1875 8.296875 
z
" id="DejaVuSans-50"/>
        <path d="M 31.78125 66.40625 
Q 24.171875 66.40625 20.328125 58.90625 
Q 16.5 51.421875 16.5 36.375 
Q 16.5 21.390625 20.328125 13.890625 
Q 24.171875 6.390625 31.78125 6.390625 
Q 39.453125 6.390625 43.28125 13.890625 
Q 47.125 21.390625 47.125 36.375 
Q 47.125 51.421875 43.28125 58.90625 
Q 39.453125 66.40625 31.78125 66.40625 
z
M 31.78125 74.21875 
Q 44.046875 74.21875 50.515625 64.515625 
Q 56.984375 54.828125 56.984375 36.375 
Q 56.984375 17.96875 50.515625 8.265625 
Q 44.046875 -1.421875 31.78125 -1.421875 
Q 19.53125 -1.421875 13.0625 8.265625 
Q 6.59375 17.96875 6.59375 36.375 
Q 6.59375 54.828125 13.0625 64.515625 
Q 19.53125 74.21875 31.78125 74.21875 
z
" id="DejaVuSans-48"/>
       </defs>
       <use xlink:href="#DejaVuSans-8722"/>
       <use x="83.789062" xlink:href="#DejaVuSans-50"/>
       <use x="147.412109" xlink:href="#DejaVuSans-48"/>
       <use x="211.035156" xlink:href="#DejaVuSans-48"/>
      </g>
     </g>
    </g>
    <g id="xtick_2">
     <g id="line2d_3">
      <path clip-path="url(#p265ccd7ad1)" d="M 192.459718 306.576 
L 192.459718 7.2 
" style="fill:none;stroke:#b0b0b0;stroke-linecap:square;stroke-width:0.8;"/>
     </g>
     <g id="line2d_4">
      <g>
       <use style="stroke:#000000;stroke-width:0.8;" x="192.459718" xlink:href="#m005f0a59be" y="306.576"/>
      </g>
     </g>
     <g id="text_2">
      <!-- −160 -->
      <g transform="translate(171.859328 324.973656)scale(0.15 -0.15)">
       <defs>
        <path d="M 12.40625 8.296875 
L 28.515625 8.296875 
L 28.515625 63.921875 
L 10.984375 60.40625 
L 10.984375 69.390625 
L 28.421875 72.90625 
L 38.28125 72.90625 
L 38.28125 8.296875 
L 54.390625 8.296875 
L 54.390625 0 
L 12.40625 0 
z
" id="DejaVuSans-49"/>
        <path d="M 33.015625 40.375 
Q 26.375 40.375 22.484375 35.828125 
Q 18.609375 31.296875 18.609375 23.390625 
Q 18.609375 15.53125 22.484375 10.953125 
Q 26.375 6.390625 33.015625 6.390625 
Q 39.65625 6.390625 43.53125 10.953125 
Q 47.40625 15.53125 47.40625 23.390625 
Q 47.40625 31.296875 43.53125 35.828125 
Q 39.65625 40.375 33.015625 40.375 
z
M 52.59375 71.296875 
L 52.59375 62.3125 
Q 48.875 64.0625 45.09375 64.984375 
Q 41.3125 65.921875 37.59375 65.921875 
Q 27.828125 65.921875 22.671875 59.328125 
Q 17.53125 52.734375 16.796875 39.40625 
Q 19.671875 43.65625 24.015625 45.921875 
Q 28.375 48.1875 33.59375 48.1875 
Q 44.578125 48.1875 50.953125 41.515625 
Q 57.328125 34.859375 57.328125 23.390625 
Q 57.328125 12.15625 50.6875 5.359375 
Q 44.046875 -1.421875 33.015625 -1.421875 
Q 20.359375 -1.421875 13.671875 8.265625 
Q 6.984375 17.96875 6.984375 36.375 
Q 6.984375 53.65625 15.1875 63.9375 
Q 23.390625 74.21875 37.203125 74.21875 
Q 40.921875 74.21875 44.703125 73.484375 
Q 48.484375 72.75 52.59375 71.296875 
z
" id="DejaVuSans-54"/>
       </defs>
       <use xlink:href="#DejaVuSans-8722"/>
       <use x="83.789062" xlink:href="#DejaVuSans-49"/>
       <use x="147.412109" xlink:href="#DejaVuSans-54"/>
       <use x="211.035156" xlink:href="#DejaVuSans-48"/>
      </g>
     </g>
    </g>
    <g id="xtick_3">
     <g id="line2d_5">
      <path clip-path="url(#p265ccd7ad1)" d="M 301.323016 306.576 
L 301.323016 7.2 
" style="fill:none;stroke:#b0b0b0;stroke-linecap:square;stroke-width:0.8;"/>
     </g>
     <g id="line2d_6">
      <g>
       <use style="stroke:#000000;stroke-width:0.8;" x="301.323016" xlink:href="#m005f0a59be" y="306.576"/>
      </g>
     </g>
     <g id="text_3">
      <!-- −120 -->
      <g transform="translate(280.722625 324.973656)scale(0.15 -0.15)">
       <use xlink:href="#DejaVuSans-8722"/>
       <use x="83.789062" xlink:href="#DejaVuSans-49"/>
       <use x="147.412109" xlink:href="#DejaVuSans-50"/>
       <use x="211.035156" xlink:href="#DejaVuSans-48"/>
      </g>
     </g>
    </g>
    <g id="xtick_4">
     <g id="line2d_7">
      <path clip-path="url(#p265ccd7ad1)" d="M 410.186314 306.576 
L 410.186314 7.2 
" style="fill:none;stroke:#b0b0b0;stroke-linecap:square;stroke-width:0.8;"/>
     </g>
     <g id="line2d_8">
      <g>
       <use style="stroke:#000000;stroke-width:0.8;" x="410.186314" xlink:href="#m005f0a59be" y="306.576"/>
      </g>
     </g>
     <g id="text_4">
      <!-- −80 -->
      <g transform="translate(394.357798 324.973656)scale(0.15 -0.15)">
       <defs>
        <path d="M 31.78125 34.625 
Q 24.75 34.625 20.71875 30.859375 
Q 16.703125 27.09375 16.703125 20.515625 
Q 16.703125 13.921875 20.71875 10.15625 
Q 24.75 6.390625 31.78125 6.390625 
Q 38.8125 6.390625 42.859375 10.171875 
Q 46.921875 13.96875 46.921875 20.515625 
Q 46.921875 27.09375 42.890625 30.859375 
Q 38.875 34.625 31.78125 34.625 
z
M 21.921875 38.8125 
Q 15.578125 40.375 12.03125 44.71875 
Q 8.5 49.078125 8.5 55.328125 
Q 8.5 64.0625 14.71875 69.140625 
Q 20.953125 74.21875 31.78125 74.21875 
Q 42.671875 74.21875 48.875 69.140625 
Q 55.078125 64.0625 55.078125 55.328125 
Q 55.078125 49.078125 51.53125 44.71875 
Q 48 40.375 41.703125 38.8125 
Q 48.828125 37.15625 52.796875 32.3125 
Q 56.78125 27.484375 56.78125 20.515625 
Q 56.78125 9.90625 50.3125 4.234375 
Q 43.84375 -1.421875 31.78125 -1.421875 
Q 19.734375 -1.421875 13.25 4.234375 
Q 6.78125 9.90625 6.78125 20.515625 
Q 6.78125 27.484375 10.78125 32.3125 
Q 14.796875 37.15625 21.921875 38.8125 
z
M 18.3125 54.390625 
Q 18.3125 48.734375 21.84375 45.5625 
Q 25.390625 42.390625 31.78125 42.390625 
Q 38.140625 42.390625 41.71875 45.5625 
Q 45.3125 48.734375 45.3125 54.390625 
Q 45.3125 60.0625 41.71875 63.234375 
Q 38.140625 66.40625 31.78125 66.40625 
Q 25.390625 66.40625 21.84375 63.234375 
Q 18.3125 60.0625 18.3125 54.390625 
z
" id="DejaVuSans-56"/>
       </defs>
       <use xlink:href="#DejaVuSans-8722"/>
       <use x="83.789062" xlink:href="#DejaVuSans-56"/>
       <use x="147.412109" xlink:href="#DejaVuSans-48"/>
      </g>
     </g>
    </g>
    <g id="text_5">
     <!-- Detuning (GHz) -->
     <g transform="translate(170.569063 347.290062)scale(0.2 -0.2)">
      <defs>
       <path d="M 19.671875 64.796875 
L 19.671875 8.109375 
L 31.59375 8.109375 
Q 46.6875 8.109375 53.6875 14.9375 
Q 60.6875 21.78125 60.6875 36.53125 
Q 60.6875 51.171875 53.6875 57.984375 
Q 46.6875 64.796875 31.59375 64.796875 
z
M 9.8125 72.90625 
L 30.078125 72.90625 
Q 51.265625 72.90625 61.171875 64.09375 
Q 71.09375 55.28125 71.09375 36.53125 
Q 71.09375 17.671875 61.125 8.828125 
Q 51.171875 0 30.078125 0 
L 9.8125 0 
z
" id="DejaVuSans-68"/>
       <path d="M 56.203125 29.59375 
L 56.203125 25.203125 
L 14.890625 25.203125 
Q 15.484375 15.921875 20.484375 11.0625 
Q 25.484375 6.203125 34.421875 6.203125 
Q 39.59375 6.203125 44.453125 7.46875 
Q 49.3125 8.734375 54.109375 11.28125 
L 54.109375 2.78125 
Q 49.265625 0.734375 44.1875 -0.34375 
Q 39.109375 -1.421875 33.890625 -1.421875 
Q 20.796875 -1.421875 13.15625 6.1875 
Q 5.515625 13.8125 5.515625 26.8125 
Q 5.515625 40.234375 12.765625 48.109375 
Q 20.015625 56 32.328125 56 
Q 43.359375 56 49.78125 48.890625 
Q 56.203125 41.796875 56.203125 29.59375 
z
M 47.21875 32.234375 
Q 47.125 39.59375 43.09375 43.984375 
Q 39.0625 48.390625 32.421875 48.390625 
Q 24.90625 48.390625 20.390625 44.140625 
Q 15.875 39.890625 15.1875 32.171875 
z
" id="DejaVuSans-101"/>
       <path d="M 18.3125 70.21875 
L 18.3125 54.6875 
L 36.8125 54.6875 
L 36.8125 47.703125 
L 18.3125 47.703125 
L 18.3125 18.015625 
Q 18.3125 11.328125 20.140625 9.421875 
Q 21.96875 7.515625 27.59375 7.515625 
L 36.8125 7.515625 
L 36.8125 0 
L 27.59375 0 
Q 17.1875 0 13.234375 3.875 
Q 9.28125 7.765625 9.28125 18.015625 
L 9.28125 47.703125 
L 2.6875 47.703125 
L 2.6875 54.6875 
L 9.28125 54.6875 
L 9.28125 70.21875 
z
" id="DejaVuSans-116"/>
       <path d="M 8.5 21.578125 
L 8.5 54.6875 
L 17.484375 54.6875 
L 17.484375 21.921875 
Q 17.484375 14.15625 20.5 10.265625 
Q 23.53125 6.390625 29.59375 6.390625 
Q 36.859375 6.390625 41.078125 11.03125 
Q 45.3125 15.671875 45.3125 23.6875 
L 45.3125 54.6875 
L 54.296875 54.6875 
L 54.296875 0 
L 45.3125 0 
L 45.3125 8.40625 
Q 42.046875 3.421875 37.71875 1 
Q 33.40625 -1.421875 27.6875 -1.421875 
Q 18.265625 -1.421875 13.375 4.4375 
Q 8.5 10.296875 8.5 21.578125 
z
M 31.109375 56 
z
" id="DejaVuSans-117"/>
       <path d="M 54.890625 33.015625 
L 54.890625 0 
L 45.90625 0 
L 45.90625 32.71875 
Q 45.90625 40.484375 42.875 44.328125 
Q 39.84375 48.1875 33.796875 48.1875 
Q 26.515625 48.1875 22.3125 43.546875 
Q 18.109375 38.921875 18.109375 30.90625 
L 18.109375 0 
L 9.078125 0 
L 9.078125 54.6875 
L 18.109375 54.6875 
L 18.109375 46.1875 
Q 21.34375 51.125 25.703125 53.5625 
Q 30.078125 56 35.796875 56 
Q 45.21875 56 50.046875 50.171875 
Q 54.890625 44.34375 54.890625 33.015625 
z
" id="DejaVuSans-110"/>
       <path d="M 9.421875 54.6875 
L 18.40625 54.6875 
L 18.40625 0 
L 9.421875 0 
z
M 9.421875 75.984375 
L 18.40625 75.984375 
L 18.40625 64.59375 
L 9.421875 64.59375 
z
" id="DejaVuSans-105"/>
       <path d="M 45.40625 27.984375 
Q 45.40625 37.75 41.375 43.109375 
Q 37.359375 48.484375 30.078125 48.484375 
Q 22.859375 48.484375 18.828125 43.109375 
Q 14.796875 37.75 14.796875 27.984375 
Q 14.796875 18.265625 18.828125 12.890625 
Q 22.859375 7.515625 30.078125 7.515625 
Q 37.359375 7.515625 41.375 12.890625 
Q 45.40625 18.265625 45.40625 27.984375 
z
M 54.390625 6.78125 
Q 54.390625 -7.171875 48.1875 -13.984375 
Q 42 -20.796875 29.203125 -20.796875 
Q 24.46875 -20.796875 20.265625 -20.09375 
Q 16.0625 -19.390625 12.109375 -17.921875 
L 12.109375 -9.1875 
Q 16.0625 -11.328125 19.921875 -12.34375 
Q 23.78125 -13.375 27.78125 -13.375 
Q 36.625 -13.375 41.015625 -8.765625 
Q 45.40625 -4.15625 45.40625 5.171875 
L 45.40625 9.625 
Q 42.625 4.78125 38.28125 2.390625 
Q 33.9375 0 27.875 0 
Q 17.828125 0 11.671875 7.65625 
Q 5.515625 15.328125 5.515625 27.984375 
Q 5.515625 40.671875 11.671875 48.328125 
Q 17.828125 56 27.875 56 
Q 33.9375 56 38.28125 53.609375 
Q 42.625 51.21875 45.40625 46.390625 
L 45.40625 54.6875 
L 54.390625 54.6875 
z
" id="DejaVuSans-103"/>
       <path id="DejaVuSans-32"/>
       <path d="M 31 75.875 
Q 24.46875 64.65625 21.28125 53.65625 
Q 18.109375 42.671875 18.109375 31.390625 
Q 18.109375 20.125 21.3125 9.0625 
Q 24.515625 -2 31 -13.1875 
L 23.1875 -13.1875 
Q 15.875 -1.703125 12.234375 9.375 
Q 8.59375 20.453125 8.59375 31.390625 
Q 8.59375 42.28125 12.203125 53.3125 
Q 15.828125 64.359375 23.1875 75.875 
z
" id="DejaVuSans-40"/>
       <path d="M 59.515625 10.40625 
L 59.515625 29.984375 
L 43.40625 29.984375 
L 43.40625 38.09375 
L 69.28125 38.09375 
L 69.28125 6.78125 
Q 63.578125 2.734375 56.6875 0.65625 
Q 49.8125 -1.421875 42 -1.421875 
Q 24.90625 -1.421875 15.25 8.5625 
Q 5.609375 18.5625 5.609375 36.375 
Q 5.609375 54.25 15.25 64.234375 
Q 24.90625 74.21875 42 74.21875 
Q 49.125 74.21875 55.546875 72.453125 
Q 61.96875 70.703125 67.390625 67.28125 
L 67.390625 56.78125 
Q 61.921875 61.421875 55.765625 63.765625 
Q 49.609375 66.109375 42.828125 66.109375 
Q 29.4375 66.109375 22.71875 58.640625 
Q 16.015625 51.171875 16.015625 36.375 
Q 16.015625 21.625 22.71875 14.15625 
Q 29.4375 6.6875 42.828125 6.6875 
Q 48.046875 6.6875 52.140625 7.59375 
Q 56.25 8.5 59.515625 10.40625 
z
" id="DejaVuSans-71"/>
       <path d="M 9.8125 72.90625 
L 19.671875 72.90625 
L 19.671875 43.015625 
L 55.515625 43.015625 
L 55.515625 72.90625 
L 65.375 72.90625 
L 65.375 0 
L 55.515625 0 
L 55.515625 34.71875 
L 19.671875 34.71875 
L 19.671875 0 
L 9.8125 0 
z
" id="DejaVuSans-72"/>
       <path d="M 5.515625 54.6875 
L 48.1875 54.6875 
L 48.1875 46.484375 
L 14.40625 7.171875 
L 48.1875 7.171875 
L 48.1875 0 
L 4.296875 0 
L 4.296875 8.203125 
L 38.09375 47.515625 
L 5.515625 47.515625 
z
" id="DejaVuSans-122"/>
       <path d="M 8.015625 75.875 
L 15.828125 75.875 
Q 23.140625 64.359375 26.78125 53.3125 
Q 30.421875 42.28125 30.421875 31.390625 
Q 30.421875 20.453125 26.78125 9.375 
Q 23.140625 -1.703125 15.828125 -13.1875 
L 8.015625 -13.1875 
Q 14.5 -2 17.703125 9.0625 
Q 20.90625 20.125 20.90625 31.390625 
Q 20.90625 42.671875 17.703125 53.65625 
Q 14.5 64.65625 8.015625 75.875 
z
" id="DejaVuSans-41"/>
      </defs>
      <use xlink:href="#DejaVuSans-68"/>
      <use x="77.001953" xlink:href="#DejaVuSans-101"/>
      <use x="138.525391" xlink:href="#DejaVuSans-116"/>
      <use x="177.734375" xlink:href="#DejaVuSans-117"/>
      <use x="241.113281" xlink:href="#DejaVuSans-110"/>
      <use x="304.492188" xlink:href="#DejaVuSans-105"/>
      <use x="332.275391" xlink:href="#DejaVuSans-110"/>
      <use x="395.654297" xlink:href="#DejaVuSans-103"/>
      <use x="459.130859" xlink:href="#DejaVuSans-32"/>
      <use x="490.917969" xlink:href="#DejaVuSans-40"/>
      <use x="529.931641" xlink:href="#DejaVuSans-71"/>
      <use x="607.421875" xlink:href="#DejaVuSans-72"/>
      <use x="682.617188" xlink:href="#DejaVuSans-122"/>
      <use x="735.107422" xlink:href="#DejaVuSans-41"/>
     </g>
    </g>
   </g>
   <g id="matplotlib.axis_2">
    <g id="ytick_1">
     <g id="line2d_9">
      <path clip-path="url(#p265ccd7ad1)" d="M 47.1 306.576 
L 448.86 306.576 
" style="fill:none;stroke:#b0b0b0;stroke-linecap:square;stroke-width:0.8;"/>
     </g>
     <g id="line2d_10">
      <defs>
       <path d="M 0 0 
L -3.5 0 
" id="mc3ce260a5b" style="stroke:#000000;stroke-width:0.8;"/>
      </defs>
      <g>
       <use style="stroke:#000000;stroke-width:0.8;" x="47.1" xlink:href="#mc3ce260a5b" y="306.576"/>
      </g>
     </g>
     <g id="text_6">
      <!-- 0 -->
      <g transform="translate(30.55625 312.274828)scale(0.15 -0.15)">
       <use xlink:href="#DejaVuSans-48"/>
      </g>
     </g>
    </g>
    <g id="ytick_2">
     <g id="line2d_11">
      <path clip-path="url(#p265ccd7ad1)" d="M 47.1 183.121979 
L 448.86 183.121979 
" style="fill:none;stroke:#b0b0b0;stroke-linecap:square;stroke-width:0.8;"/>
     </g>
     <g id="line2d_12">
      <g>
       <use style="stroke:#000000;stroke-width:0.8;" x="47.1" xlink:href="#mc3ce260a5b" y="183.121979"/>
      </g>
     </g>
     <g id="text_7">
      <!-- 4 -->
      <g transform="translate(30.55625 188.820808)scale(0.15 -0.15)">
       <defs>
        <path d="M 37.796875 64.3125 
L 12.890625 25.390625 
L 37.796875 25.390625 
z
M 35.203125 72.90625 
L 47.609375 72.90625 
L 47.609375 25.390625 
L 58.015625 25.390625 
L 58.015625 17.1875 
L 47.609375 17.1875 
L 47.609375 0 
L 37.796875 0 
L 37.796875 17.1875 
L 4.890625 17.1875 
L 4.890625 26.703125 
z
" id="DejaVuSans-52"/>
       </defs>
       <use xlink:href="#DejaVuSans-52"/>
      </g>
     </g>
    </g>
    <g id="ytick_3">
     <g id="line2d_13">
      <path clip-path="url(#p265ccd7ad1)" d="M 47.1 59.667959 
L 448.86 59.667959 
" style="fill:none;stroke:#b0b0b0;stroke-linecap:square;stroke-width:0.8;"/>
     </g>
     <g id="line2d_14">
      <g>
       <use style="stroke:#000000;stroke-width:0.8;" x="47.1" xlink:href="#mc3ce260a5b" y="59.667959"/>
      </g>
     </g>
     <g id="text_8">
      <!-- 8 -->
      <g transform="translate(30.55625 65.366787)scale(0.15 -0.15)">
       <use xlink:href="#DejaVuSans-56"/>
      </g>
     </g>
    </g>
    <g id="text_9">
     <!-- $\Omega_{R} (2\pi\cdot \mathrm{kHz})$ -->
     <g transform="translate(22.396875 215.588)rotate(-90)scale(0.2 -0.2)">
      <defs>
       <path d="M 72.609375 8.6875 
L 72.609375 0 
L 43.3125 0 
L 43.3125 8.6875 
Q 51.953125 13.421875 56.78125 21.53125 
Q 61.625 29.640625 61.625 39.5 
Q 61.625 51.21875 55.171875 58.296875 
Q 48.734375 65.375 38.1875 65.375 
Q 27.640625 65.375 21.171875 58.265625 
Q 14.703125 51.171875 14.703125 39.5 
Q 14.703125 29.640625 19.53125 21.53125 
Q 24.421875 13.421875 33.109375 8.6875 
L 33.109375 0 
L 3.8125 0 
L 3.8125 8.6875 
L 19.390625 8.6875 
Q 11.671875 15.484375 8.109375 22.75 
Q 4.59375 30.03125 4.59375 39.015625 
Q 4.59375 54.546875 13.96875 64.15625 
Q 23.296875 73.78125 38.1875 73.78125 
Q 52.984375 73.78125 62.40625 64.15625 
Q 71.78125 54.59375 71.78125 39.5 
Q 71.78125 30.03125 68.3125 22.796875 
Q 64.84375 15.578125 56.984375 8.6875 
z
" id="DejaVuSans-937"/>
       <path d="M 25.203125 64.796875 
L 20.21875 38.921875 
L 32.90625 38.921875 
Q 40.375 38.921875 44.984375 43.046875 
Q 49.609375 47.171875 49.609375 53.8125 
Q 49.609375 59.125 46.5 61.953125 
Q 43.40625 64.796875 37.59375 64.796875 
z
M 43.3125 35.015625 
Q 46.4375 34.28125 48.515625 31.390625 
Q 50.59375 28.515625 53.328125 19.921875 
L 59.515625 0 
L 49.125 0 
L 43.40625 18.703125 
Q 41.21875 25.921875 38.328125 28.359375 
Q 35.453125 30.8125 29.5 30.8125 
L 18.609375 30.8125 
L 12.59375 0 
L 2.6875 0 
L 16.890625 72.90625 
L 39.109375 72.90625 
Q 49.21875 72.90625 54.609375 68.328125 
Q 60.015625 63.765625 60.015625 55.171875 
Q 60.015625 47.5625 55.421875 41.984375 
Q 50.828125 36.421875 43.3125 35.015625 
z
" id="DejaVuSans-Oblique-82"/>
       <path d="M 9.125 54.6875 
L 61.53125 54.6875 
L 59.765625 45.703125 
L 52.875 45.703125 
L 46.34375 12.109375 
Q 45.65625 8.59375 46.578125 7.03125 
Q 47.46875 5.515625 50.140625 5.515625 
Q 50.875 5.515625 51.953125 5.671875 
Q 53.078125 5.765625 53.421875 5.8125 
L 52.15625 -0.6875 
Q 50.34375 -1.3125 48.484375 -1.609375 
Q 46.578125 -1.90625 44.78125 -1.90625 
Q 38.921875 -1.90625 37.3125 1.265625 
Q 35.6875 4.5 37.359375 13.09375 
L 43.703125 45.703125 
L 23.53125 45.703125 
L 14.65625 0 
L 5.46875 0 
L 14.359375 45.703125 
L 7.375 45.703125 
z
" id="DejaVuSans-Oblique-960"/>
       <path d="M 10.6875 40.921875 
L 21 40.921875 
L 21 28.515625 
L 10.6875 28.515625 
z
" id="DejaVuSans-8901"/>
       <path d="M 9.078125 75.984375 
L 18.109375 75.984375 
L 18.109375 31.109375 
L 44.921875 54.6875 
L 56.390625 54.6875 
L 27.390625 29.109375 
L 57.625 0 
L 45.90625 0 
L 18.109375 26.703125 
L 18.109375 0 
L 9.078125 0 
z
" id="DejaVuSans-107"/>
      </defs>
      <use transform="translate(0 0.015625)" xlink:href="#DejaVuSans-937"/>
      <use transform="translate(77.373047 -16.390625)scale(0.7)" xlink:href="#DejaVuSans-Oblique-82"/>
      <use transform="translate(128.745117 0.015625)" xlink:href="#DejaVuSans-40"/>
      <use transform="translate(167.758789 0.015625)" xlink:href="#DejaVuSans-50"/>
      <use transform="translate(231.381836 0.015625)" xlink:href="#DejaVuSans-Oblique-960"/>
      <use transform="translate(311.069336 0.015625)" xlink:href="#DejaVuSans-8901"/>
      <use transform="translate(362.338867 0.015625)" xlink:href="#DejaVuSans-107"/>
      <use transform="translate(420.249023 0.015625)" xlink:href="#DejaVuSans-72"/>
      <use transform="translate(495.444336 0.015625)" xlink:href="#DejaVuSans-122"/>
      <use transform="translate(547.93457 0.015625)" xlink:href="#DejaVuSans-41"/>
     </g>
    </g>
   </g>
   <g id="LineCollection_1">
    <path clip-path="url(#p265ccd7ad1)" d="M 237.09367 206.578243 
L 237.09367 203.985709 
" style="fill:none;stroke:#1f77b4;stroke-width:1.5;"/>
    <path clip-path="url(#p265ccd7ad1)" d="M 81.963471 244.169993 
L 81.963471 241.021915 
" style="fill:none;stroke:#1f77b4;stroke-width:1.5;"/>
    <path clip-path="url(#p265ccd7ad1)" d="M 359.56488 113.987728 
L 359.56488 104.728676 
" style="fill:none;stroke:#1f77b4;stroke-width:1.5;"/>
    <path clip-path="url(#p265ccd7ad1)" d="M 413.996529 56.581608 
L 413.996529 41.149856 
" style="fill:none;stroke:#1f77b4;stroke-width:1.5;"/>
   </g>
   <g id="LineCollection_2">
    <path clip-path="url(#p265ccd7ad1)" d="M 237.09367 271.113833 
L 237.09367 269.076841 
" style="fill:none;stroke:#ff7f0e;stroke-width:1.5;"/>
    <path clip-path="url(#p265ccd7ad1)" d="M 81.963471 286.267814 
L 81.963471 284.909819 
" style="fill:none;stroke:#ff7f0e;stroke-width:1.5;"/>
    <path clip-path="url(#p265ccd7ad1)" d="M 359.56488 246.639073 
L 359.56488 243.984812 
" style="fill:none;stroke:#ff7f0e;stroke-width:1.5;"/>
    <path clip-path="url(#p265ccd7ad1)" d="M 413.996529 230.127098 
L 413.996529 227.904925 
" style="fill:none;stroke:#ff7f0e;stroke-width:1.5;"/>
   </g>
   <g id="LineCollection_3">
    <path clip-path="url(#p265ccd7ad1)" d="M 237.09367 291.977562 
L 237.09367 291.051657 
" style="fill:none;stroke:#2ca02c;stroke-width:1.5;"/>
    <path clip-path="url(#p265ccd7ad1)" d="M 81.963471 298.961973 
L 81.963471 298.486675 
" style="fill:none;stroke:#2ca02c;stroke-width:1.5;"/>
    <path clip-path="url(#p265ccd7ad1)" d="M 359.56488 281.792605 
L 359.56488 279.200071 
" style="fill:none;stroke:#2ca02c;stroke-width:1.5;"/>
    <path clip-path="url(#p265ccd7ad1)" d="M 413.996529 276.730991 
L 413.996529 274.940907 
" style="fill:none;stroke:#2ca02c;stroke-width:1.5;"/>
   </g>
   <g id="line2d_15">
    <path clip-path="url(#p265ccd7ad1)" d="M 65.361818 249.837867 
L 82.127844 245.999838 
L 98.199851 242.094232 
L 113.614367 238.120759 
L 128.371392 234.088755 
L 142.54398 229.987428 
L 156.168659 225.814194 
L 169.245428 221.577529 
L 181.810816 217.274524 
L 193.901348 212.900966 
L 205.553554 208.45114 
L 216.803959 203.917606 
L 227.652564 199.306895 
L 238.099368 194.626747 
L 248.1809 189.868502 
L 257.933686 185.021166 
L 267.357727 180.090703 
L 276.489549 175.063563 
L 285.329153 169.944822 
L 293.913066 164.717767 
L 302.241288 159.386101 
L 310.313819 153.954417 
L 318.130659 148.428278 
L 325.728335 142.786502 
L 333.143375 137.003495 
L 340.33925 131.110005 
L 347.35249 125.079092 
L 354.183093 118.912243 
L 360.83106 112.611647 
L 367.332917 106.143044 
L 373.652138 99.543808 
L 379.82525 92.777447 
L 385.88878 85.800376 
L 391.806201 78.651403 
L 397.577512 71.330876 
L 403.239242 63.789993 
L 408.79139 56.023083 
L 414.233956 48.024578 
L 419.566941 39.789046 
L 424.790343 31.311246 
L 429.904163 22.586176 
L 430.598182 21.367866 
L 430.598182 21.367866 
" style="fill:none;stroke:#1f77b4;stroke-linecap:square;stroke-width:1.5;"/>
   </g>
   <g id="line2d_16">
    <path clip-path="url(#p265ccd7ad1)" d="M 65.361818 289.176674 
L 94.98545 287.047286 
L 122.344389 284.860691 
L 147.657801 282.617439 
L 171.144847 280.315504 
L 192.951639 277.957623 
L 213.260812 275.540662 
L 232.181947 273.067792 
L 249.861155 270.535773 
L 266.408017 267.9439 
L 281.932115 265.289281 
L 296.469976 262.580393 
L 310.16771 259.803929 
L 323.061843 256.965185 
L 335.188903 254.070038 
L 346.658471 251.1052 
L 357.507076 248.072638 
L 367.771245 244.973947 
L 377.487503 241.81014 
L 386.69238 238.5814 
L 395.45893 235.272511 
L 403.787152 231.893313 
L 411.713573 228.439532 
L 419.274722 224.904732 
L 426.507125 221.279882 
L 430.598182 219.114022 
L 430.598182 219.114022 
" style="fill:none;stroke:#ff7f0e;stroke-linecap:square;stroke-width:1.5;"/>
   </g>
   <g id="line2d_17">
    <path clip-path="url(#p265ccd7ad1)" d="M 65.361818 299.460528 
L 110.947875 298.079407 
L 151.200948 296.642004 
L 186.961164 295.146793 
L 218.849487 293.595013 
L 247.413827 291.986333 
L 273.092511 290.321434 
L 296.28734 288.598464 
L 317.290531 286.81899 
L 336.394303 284.980636 
L 353.781293 283.087822 
L 369.707191 281.133636 
L 384.281579 279.124852 
L 397.687094 277.056275 
L 410.069845 274.923213 
L 421.502887 272.730628 
L 430.598182 270.808334 
L 430.598182 270.808334 
" style="fill:none;stroke:#2ca02c;stroke-linecap:square;stroke-width:1.5;"/>
   </g>
   <g id="line2d_18">
    <defs>
     <path d="M 0 3 
C 0.795609 3 1.55874 2.683901 2.12132 2.12132 
C 2.683901 1.55874 3 0.795609 3 0 
C 3 -0.795609 2.683901 -1.55874 2.12132 -2.12132 
C 1.55874 -2.683901 0.795609 -3 0 -3 
C -0.795609 -3 -1.55874 -2.683901 -2.12132 -2.12132 
C -2.683901 -1.55874 -3 -0.795609 -3 0 
C -3 0.795609 -2.683901 1.55874 -2.12132 2.12132 
C -1.55874 2.683901 -0.795609 3 0 3 
z
" id="mcb2457e3ba" style="stroke:#1f77b4;"/>
    </defs>
    <g clip-path="url(#p265ccd7ad1)">
     <use style="fill:#1f77b4;stroke:#1f77b4;" x="237.09367" xlink:href="#mcb2457e3ba" y="205.281976"/>
     <use style="fill:#1f77b4;stroke:#1f77b4;" x="81.963471" xlink:href="#mcb2457e3ba" y="242.595954"/>
     <use style="fill:#1f77b4;stroke:#1f77b4;" x="359.56488" xlink:href="#mcb2457e3ba" y="109.358202"/>
     <use style="fill:#1f77b4;stroke:#1f77b4;" x="413.996529" xlink:href="#mcb2457e3ba" y="48.865732"/>
    </g>
   </g>
   <g id="line2d_19">
    <defs>
     <path d="M 0 3 
C 0.795609 3 1.55874 2.683901 2.12132 2.12132 
C 2.683901 1.55874 3 0.795609 3 0 
C 3 -0.795609 2.683901 -1.55874 2.12132 -2.12132 
C 1.55874 -2.683901 0.795609 -3 0 -3 
C -0.795609 -3 -1.55874 -2.683901 -2.12132 -2.12132 
C -2.683901 -1.55874 -3 -0.795609 -3 0 
C -3 0.795609 -2.683901 1.55874 -2.12132 2.12132 
C -1.55874 2.683901 -0.795609 3 0 3 
z
" id="mbbb2a9d153" style="stroke:#ff7f0e;"/>
    </defs>
    <g clip-path="url(#p265ccd7ad1)">
     <use style="fill:#ff7f0e;stroke:#ff7f0e;" x="237.09367" xlink:href="#mbbb2a9d153" y="270.095337"/>
     <use style="fill:#ff7f0e;stroke:#ff7f0e;" x="81.963471" xlink:href="#mbbb2a9d153" y="285.588816"/>
     <use style="fill:#ff7f0e;stroke:#ff7f0e;" x="359.56488" xlink:href="#mbbb2a9d153" y="245.311942"/>
     <use style="fill:#ff7f0e;stroke:#ff7f0e;" x="413.996529" xlink:href="#mbbb2a9d153" y="229.016012"/>
    </g>
   </g>
   <g id="line2d_20">
    <defs>
     <path d="M 0 3 
C 0.795609 3 1.55874 2.683901 2.12132 2.12132 
C 2.683901 1.55874 3 0.795609 3 0 
C 3 -0.795609 2.683901 -1.55874 2.12132 -2.12132 
C 1.55874 -2.683901 0.795609 -3 0 -3 
C -0.795609 -3 -1.55874 -2.683901 -2.12132 -2.12132 
C -2.683901 -1.55874 -3 -0.795609 -3 0 
C -3 0.795609 -2.683901 1.55874 -2.12132 2.12132 
C -1.55874 2.683901 -0.795609 3 0 3 
z
" id="mbab2358add" style="stroke:#2ca02c;"/>
    </defs>
    <g clip-path="url(#p265ccd7ad1)">
     <use style="fill:#2ca02c;stroke:#2ca02c;" x="237.09367" xlink:href="#mbab2358add" y="291.514609"/>
     <use style="fill:#2ca02c;stroke:#2ca02c;" x="81.963471" xlink:href="#mbab2358add" y="298.724324"/>
     <use style="fill:#2ca02c;stroke:#2ca02c;" x="359.56488" xlink:href="#mbab2358add" y="280.496338"/>
     <use style="fill:#2ca02c;stroke:#2ca02c;" x="413.996529" xlink:href="#mbab2358add" y="275.835949"/>
    </g>
   </g>
   <g id="patch_3">
    <path d="M 47.1 306.576 
L 47.1 7.2 
" style="fill:none;stroke:#000000;stroke-linecap:square;stroke-linejoin:miter;stroke-width:0.8;"/>
   </g>
   <g id="patch_4">
    <path d="M 448.86 306.576 
L 448.86 7.2 
" style="fill:none;stroke:#000000;stroke-linecap:square;stroke-linejoin:miter;stroke-width:0.8;"/>
   </g>
   <g id="patch_5">
    <path d="M 47.1 306.576 
L 448.86 306.576 
" style="fill:none;stroke:#000000;stroke-linecap:square;stroke-linejoin:miter;stroke-width:0.8;"/>
   </g>
   <g id="patch_6">
    <path d="M 47.1 7.2 
L 448.86 7.2 
" style="fill:none;stroke:#000000;stroke-linecap:square;stroke-linejoin:miter;stroke-width:0.8;"/>
   </g>
   <g id="legend_1">
    <g id="patch_7">
     <path d="M 347.7344 210.77568 
L 428.587463 210.77568 
Q 431.919463 210.77568 431.919463 207.44368 
L 431.919463 135.748411 
Q 431.919463 132.416411 428.587463 132.416411 
L 347.7344 132.416411 
Q 344.4024 132.416411 344.4024 135.748411 
L 344.4024 207.44368 
Q 344.4024 210.77568 347.7344 210.77568 
z
" style="fill:#ffffff;opacity:0.8;stroke:#cccccc;stroke-linejoin:miter;"/>
    </g>
    <g id="LineCollection_4">
     <path d="M 356.0644 154.238408 
L 356.0644 137.578408 
" style="fill:none;stroke:#1f77b4;stroke-width:1.5;"/>
    </g>
    <g id="line2d_21"/>
    <g id="line2d_22">
     <g>
      <use style="fill:#1f77b4;stroke:#1f77b4;" x="356.0644" xlink:href="#mcb2457e3ba" y="145.908408"/>
     </g>
    </g>
    <g id="text_10">
     <!-- 15 mW -->
     <g transform="translate(366.0604 151.739408)scale(0.1666 -0.1666)">
      <defs>
       <path d="M 10.796875 72.90625 
L 49.515625 72.90625 
L 49.515625 64.59375 
L 19.828125 64.59375 
L 19.828125 46.734375 
Q 21.96875 47.46875 24.109375 47.828125 
Q 26.265625 48.1875 28.421875 48.1875 
Q 40.625 48.1875 47.75 41.5 
Q 54.890625 34.8125 54.890625 23.390625 
Q 54.890625 11.625 47.5625 5.09375 
Q 40.234375 -1.421875 26.90625 -1.421875 
Q 22.3125 -1.421875 17.546875 -0.640625 
Q 12.796875 0.140625 7.71875 1.703125 
L 7.71875 11.625 
Q 12.109375 9.234375 16.796875 8.0625 
Q 21.484375 6.890625 26.703125 6.890625 
Q 35.15625 6.890625 40.078125 11.328125 
Q 45.015625 15.765625 45.015625 23.390625 
Q 45.015625 31 40.078125 35.4375 
Q 35.15625 39.890625 26.703125 39.890625 
Q 22.75 39.890625 18.8125 39.015625 
Q 14.890625 38.140625 10.796875 36.28125 
z
" id="DejaVuSans-53"/>
       <path d="M 52 44.1875 
Q 55.375 50.25 60.0625 53.125 
Q 64.75 56 71.09375 56 
Q 79.640625 56 84.28125 50.015625 
Q 88.921875 44.046875 88.921875 33.015625 
L 88.921875 0 
L 79.890625 0 
L 79.890625 32.71875 
Q 79.890625 40.578125 77.09375 44.375 
Q 74.3125 48.1875 68.609375 48.1875 
Q 61.625 48.1875 57.5625 43.546875 
Q 53.515625 38.921875 53.515625 30.90625 
L 53.515625 0 
L 44.484375 0 
L 44.484375 32.71875 
Q 44.484375 40.625 41.703125 44.40625 
Q 38.921875 48.1875 33.109375 48.1875 
Q 26.21875 48.1875 22.15625 43.53125 
Q 18.109375 38.875 18.109375 30.90625 
L 18.109375 0 
L 9.078125 0 
L 9.078125 54.6875 
L 18.109375 54.6875 
L 18.109375 46.1875 
Q 21.1875 51.21875 25.484375 53.609375 
Q 29.78125 56 35.6875 56 
Q 41.65625 56 45.828125 52.96875 
Q 50 49.953125 52 44.1875 
z
" id="DejaVuSans-109"/>
       <path d="M 3.328125 72.90625 
L 13.28125 72.90625 
L 28.609375 11.28125 
L 43.890625 72.90625 
L 54.984375 72.90625 
L 70.3125 11.28125 
L 85.59375 72.90625 
L 95.609375 72.90625 
L 77.296875 0 
L 64.890625 0 
L 49.515625 63.28125 
L 33.984375 0 
L 21.578125 0 
z
" id="DejaVuSans-87"/>
      </defs>
      <use xlink:href="#DejaVuSans-49"/>
      <use x="63.623047" xlink:href="#DejaVuSans-53"/>
      <use x="127.246094" xlink:href="#DejaVuSans-32"/>
      <use x="159.033203" xlink:href="#DejaVuSans-109"/>
      <use x="256.445312" xlink:href="#DejaVuSans-87"/>
     </g>
    </g>
    <g id="LineCollection_5">
     <path d="M 356.0644 178.692164 
L 356.0644 162.032164 
" style="fill:none;stroke:#ff7f0e;stroke-width:1.5;"/>
    </g>
    <g id="line2d_23"/>
    <g id="line2d_24">
     <g>
      <use style="fill:#ff7f0e;stroke:#ff7f0e;" x="356.0644" xlink:href="#mbbb2a9d153" y="170.362164"/>
     </g>
    </g>
    <g id="text_11">
     <!-- 6 mW -->
     <g transform="translate(366.0604 176.193164)scale(0.1666 -0.1666)">
      <use xlink:href="#DejaVuSans-54"/>
      <use x="63.623047" xlink:href="#DejaVuSans-32"/>
      <use x="95.410156" xlink:href="#DejaVuSans-109"/>
      <use x="192.822266" xlink:href="#DejaVuSans-87"/>
     </g>
    </g>
    <g id="LineCollection_6">
     <path d="M 356.0644 203.145921 
L 356.0644 186.485921 
" style="fill:none;stroke:#2ca02c;stroke-width:1.5;"/>
    </g>
    <g id="line2d_25"/>
    <g id="line2d_26">
     <g>
      <use style="fill:#2ca02c;stroke:#2ca02c;" x="356.0644" xlink:href="#mbab2358add" y="194.815921"/>
     </g>
    </g>
    <g id="text_12">
     <!-- 3 mW -->
     <g transform="translate(366.0604 200.646921)scale(0.1666 -0.1666)">
      <defs>
       <path d="M 40.578125 39.3125 
Q 47.65625 37.796875 51.625 33 
Q 55.609375 28.21875 55.609375 21.1875 
Q 55.609375 10.40625 48.1875 4.484375 
Q 40.765625 -1.421875 27.09375 -1.421875 
Q 22.515625 -1.421875 17.65625 -0.515625 
Q 12.796875 0.390625 7.625 2.203125 
L 7.625 11.71875 
Q 11.71875 9.328125 16.59375 8.109375 
Q 21.484375 6.890625 26.8125 6.890625 
Q 36.078125 6.890625 40.9375 10.546875 
Q 45.796875 14.203125 45.796875 21.1875 
Q 45.796875 27.640625 41.28125 31.265625 
Q 36.765625 34.90625 28.71875 34.90625 
L 20.21875 34.90625 
L 20.21875 43.015625 
L 29.109375 43.015625 
Q 36.375 43.015625 40.234375 45.921875 
Q 44.09375 48.828125 44.09375 54.296875 
Q 44.09375 59.90625 40.109375 62.90625 
Q 36.140625 65.921875 28.71875 65.921875 
Q 24.65625 65.921875 20.015625 65.03125 
Q 15.375 64.15625 9.8125 62.3125 
L 9.8125 71.09375 
Q 15.4375 72.65625 20.34375 73.4375 
Q 25.25 74.21875 29.59375 74.21875 
Q 40.828125 74.21875 47.359375 69.109375 
Q 53.90625 64.015625 53.90625 55.328125 
Q 53.90625 49.265625 50.4375 45.09375 
Q 46.96875 40.921875 40.578125 39.3125 
z
" id="DejaVuSans-51"/>
      </defs>
      <use xlink:href="#DejaVuSans-51"/>
      <use x="63.623047" xlink:href="#DejaVuSans-32"/>
      <use x="95.410156" xlink:href="#DejaVuSans-109"/>
      <use x="192.822266" xlink:href="#DejaVuSans-87"/>
     </g>
    </g>
   </g>
  </g>
 </g>
 <defs>
  <clipPath id="p265ccd7ad1">
   <rect height="299.376" width="401.76" x="47.1" y="7.2"/>
  </clipPath>
 </defs>
</svg>
