<?xml version="1.0" encoding="utf-8" standalone="no"?>
<!DOCTYPE svg PUBLIC "-//W3C//DTD SVG 1.1//EN"
  "http://www.w3.org/Graphics/SVG/1.1/DTD/svg11.dtd">
<!-- Created with matplotlib (https://matplotlib.org/) -->
<svg height="203.417438pt" version="1.1" viewBox="0 0 848.913475 203.417438" width="848.913475pt" xmlns="http://www.w3.org/2000/svg" xmlns:xlink="http://www.w3.org/1999/xlink">
 <defs>
  <style type="text/css">*{stroke-linecap:butt;stroke-linejoin:round;}</style>
 </defs>
 <g id="figure_1">
  <g id="patch_1">
   <path d="M -0 203.417438 
L 848.913475 203.417438 
L 848.913475 0 
L -0 0 
z
" style="fill:none;"/>
  </g>
  <g id="axes_1">
   <g id="patch_2">
    <path d="M 57.35785 151.344 
L 827.39785 151.344 
L 827.39785 7.2 
L 57.35785 7.2 
z
" style="fill:none;"/>
   </g>
   <g id="matplotlib.axis_1">
    <g id="xtick_1">
     <g id="line2d_1">
      <path clip-path="url(#pc0e029f335)" d="M 100.94502 151.344 
L 100.94502 7.2 
" style="fill:none;stroke:#b0b0b0;stroke-linecap:square;stroke-width:0.8;"/>
     </g>
     <g id="line2d_2">
      <defs>
       <path d="M 0 0 
L 0 3.5 
" id="m005f0a59be" style="stroke:#000000;stroke-width:0.8;"/>
      </defs>
      <g>
       <use style="stroke:#000000;stroke-width:0.8;" x="100.94502" xlink:href="#m005f0a59be" y="151.344"/>
      </g>
     </g>
     <g id="text_1">
      <!-- 290 -->
      <g transform="translate(86.629395 169.741656)scale(0.15 -0.15)">
       <defs>
        <path d="M 19.1875 8.296875 
L 53.609375 8.296875 
L 53.609375 0 
L 7.328125 0 
L 7.328125 8.296875 
Q 12.9375 14.109375 22.625 23.890625 
Q 32.328125 33.6875 34.8125 36.53125 
Q 39.546875 41.84375 41.421875 45.53125 
Q 43.3125 49.21875 43.3125 52.78125 
Q 43.3125 58.59375 39.234375 62.25 
Q 35.15625 65.921875 28.609375 65.921875 
Q 23.96875 65.921875 18.8125 64.3125 
Q 13.671875 62.703125 7.8125 59.421875 
L 7.8125 69.390625 
Q 13.765625 71.78125 18.9375 73 
Q 24.125 74.21875 28.421875 74.21875 
Q 39.75 74.21875 46.484375 68.546875 
Q 53.21875 62.890625 53.21875 53.421875 
Q 53.21875 48.921875 51.53125 44.890625 
Q 49.859375 40.875 45.40625 35.40625 
Q 44.1875 33.984375 37.640625 27.21875 
Q 31.109375 20.453125 19.1875 8.296875 
z
" id="DejaVuSans-50"/>
        <path d="M 10.984375 1.515625 
L 10.984375 10.5 
Q 14.703125 8.734375 18.5 7.8125 
Q 22.3125 6.890625 25.984375 6.890625 
Q 35.75 6.890625 40.890625 13.453125 
Q 46.046875 20.015625 46.78125 33.40625 
Q 43.953125 29.203125 39.59375 26.953125 
Q 35.25 24.703125 29.984375 24.703125 
Q 19.046875 24.703125 12.671875 31.3125 
Q 6.296875 37.9375 6.296875 49.421875 
Q 6.296875 60.640625 12.9375 67.421875 
Q 19.578125 74.21875 30.609375 74.21875 
Q 43.265625 74.21875 49.921875 64.515625 
Q 56.59375 54.828125 56.59375 36.375 
Q 56.59375 19.140625 48.40625 8.859375 
Q 40.234375 -1.421875 26.421875 -1.421875 
Q 22.703125 -1.421875 18.890625 -0.6875 
Q 15.09375 0.046875 10.984375 1.515625 
z
M 30.609375 32.421875 
Q 37.25 32.421875 41.125 36.953125 
Q 45.015625 41.5 45.015625 49.421875 
Q 45.015625 57.28125 41.125 61.84375 
Q 37.25 66.40625 30.609375 66.40625 
Q 23.96875 66.40625 20.09375 61.84375 
Q 16.21875 57.28125 16.21875 49.421875 
Q 16.21875 41.5 20.09375 36.953125 
Q 23.96875 32.421875 30.609375 32.421875 
z
" id="DejaVuSans-57"/>
        <path d="M 31.78125 66.40625 
Q 24.171875 66.40625 20.328125 58.90625 
Q 16.5 51.421875 16.5 36.375 
Q 16.5 21.390625 20.328125 13.890625 
Q 24.171875 6.390625 31.78125 6.390625 
Q 39.453125 6.390625 43.28125 13.890625 
Q 47.125 21.390625 47.125 36.375 
Q 47.125 51.421875 43.28125 58.90625 
Q 39.453125 66.40625 31.78125 66.40625 
z
M 31.78125 74.21875 
Q 44.046875 74.21875 50.515625 64.515625 
Q 56.984375 54.828125 56.984375 36.375 
Q 56.984375 17.96875 50.515625 8.265625 
Q 44.046875 -1.421875 31.78125 -1.421875 
Q 19.53125 -1.421875 13.0625 8.265625 
Q 6.59375 17.96875 6.59375 36.375 
Q 6.59375 54.828125 13.0625 64.515625 
Q 19.53125 74.21875 31.78125 74.21875 
z
" id="DejaVuSans-48"/>
       </defs>
       <use xlink:href="#DejaVuSans-50"/>
       <use x="63.623047" xlink:href="#DejaVuSans-57"/>
       <use x="127.246094" xlink:href="#DejaVuSans-48"/>
      </g>
     </g>
    </g>
    <g id="xtick_2">
     <g id="line2d_3">
      <path clip-path="url(#pc0e029f335)" d="M 246.235586 151.344 
L 246.235586 7.2 
" style="fill:none;stroke:#b0b0b0;stroke-linecap:square;stroke-width:0.8;"/>
     </g>
     <g id="line2d_4">
      <g>
       <use style="stroke:#000000;stroke-width:0.8;" x="246.235586" xlink:href="#m005f0a59be" y="151.344"/>
      </g>
     </g>
     <g id="text_2">
      <!-- 300 -->
      <g transform="translate(231.919961 169.741656)scale(0.15 -0.15)">
       <defs>
        <path d="M 40.578125 39.3125 
Q 47.65625 37.796875 51.625 33 
Q 55.609375 28.21875 55.609375 21.1875 
Q 55.609375 10.40625 48.1875 4.484375 
Q 40.765625 -1.421875 27.09375 -1.421875 
Q 22.515625 -1.421875 17.65625 -0.515625 
Q 12.796875 0.390625 7.625 2.203125 
L 7.625 11.71875 
Q 11.71875 9.328125 16.59375 8.109375 
Q 21.484375 6.890625 26.8125 6.890625 
Q 36.078125 6.890625 40.9375 10.546875 
Q 45.796875 14.203125 45.796875 21.1875 
Q 45.796875 27.640625 41.28125 31.265625 
Q 36.765625 34.90625 28.71875 34.90625 
L 20.21875 34.90625 
L 20.21875 43.015625 
L 29.109375 43.015625 
Q 36.375 43.015625 40.234375 45.921875 
Q 44.09375 48.828125 44.09375 54.296875 
Q 44.09375 59.90625 40.109375 62.90625 
Q 36.140625 65.921875 28.71875 65.921875 
Q 24.65625 65.921875 20.015625 65.03125 
Q 15.375 64.15625 9.8125 62.3125 
L 9.8125 71.09375 
Q 15.4375 72.65625 20.34375 73.4375 
Q 25.25 74.21875 29.59375 74.21875 
Q 40.828125 74.21875 47.359375 69.109375 
Q 53.90625 64.015625 53.90625 55.328125 
Q 53.90625 49.265625 50.4375 45.09375 
Q 46.96875 40.921875 40.578125 39.3125 
z
" id="DejaVuSans-51"/>
       </defs>
       <use xlink:href="#DejaVuSans-51"/>
       <use x="63.623047" xlink:href="#DejaVuSans-48"/>
       <use x="127.246094" xlink:href="#DejaVuSans-48"/>
      </g>
     </g>
    </g>
    <g id="xtick_3">
     <g id="line2d_5">
      <path clip-path="url(#pc0e029f335)" d="M 391.526152 151.344 
L 391.526152 7.2 
" style="fill:none;stroke:#b0b0b0;stroke-linecap:square;stroke-width:0.8;"/>
     </g>
     <g id="line2d_6">
      <g>
       <use style="stroke:#000000;stroke-width:0.8;" x="391.526152" xlink:href="#m005f0a59be" y="151.344"/>
      </g>
     </g>
     <g id="text_3">
      <!-- 310 -->
      <g transform="translate(377.210527 169.741656)scale(0.15 -0.15)">
       <defs>
        <path d="M 12.40625 8.296875 
L 28.515625 8.296875 
L 28.515625 63.921875 
L 10.984375 60.40625 
L 10.984375 69.390625 
L 28.421875 72.90625 
L 38.28125 72.90625 
L 38.28125 8.296875 
L 54.390625 8.296875 
L 54.390625 0 
L 12.40625 0 
z
" id="DejaVuSans-49"/>
       </defs>
       <use xlink:href="#DejaVuSans-51"/>
       <use x="63.623047" xlink:href="#DejaVuSans-49"/>
       <use x="127.246094" xlink:href="#DejaVuSans-48"/>
      </g>
     </g>
    </g>
    <g id="xtick_4">
     <g id="line2d_7">
      <path clip-path="url(#pc0e029f335)" d="M 536.816718 151.344 
L 536.816718 7.2 
" style="fill:none;stroke:#b0b0b0;stroke-linecap:square;stroke-width:0.8;"/>
     </g>
     <g id="line2d_8">
      <g>
       <use style="stroke:#000000;stroke-width:0.8;" x="536.816718" xlink:href="#m005f0a59be" y="151.344"/>
      </g>
     </g>
     <g id="text_4">
      <!-- 320 -->
      <g transform="translate(522.501093 169.741656)scale(0.15 -0.15)">
       <use xlink:href="#DejaVuSans-51"/>
       <use x="63.623047" xlink:href="#DejaVuSans-50"/>
       <use x="127.246094" xlink:href="#DejaVuSans-48"/>
      </g>
     </g>
    </g>
    <g id="xtick_5">
     <g id="line2d_9">
      <path clip-path="url(#pc0e029f335)" d="M 682.107284 151.344 
L 682.107284 7.2 
" style="fill:none;stroke:#b0b0b0;stroke-linecap:square;stroke-width:0.8;"/>
     </g>
     <g id="line2d_10">
      <g>
       <use style="stroke:#000000;stroke-width:0.8;" x="682.107284" xlink:href="#m005f0a59be" y="151.344"/>
      </g>
     </g>
     <g id="text_5">
      <!-- 330 -->
      <g transform="translate(667.791659 169.741656)scale(0.15 -0.15)">
       <use xlink:href="#DejaVuSans-51"/>
       <use x="63.623047" xlink:href="#DejaVuSans-51"/>
       <use x="127.246094" xlink:href="#DejaVuSans-48"/>
      </g>
     </g>
    </g>
    <g id="xtick_6">
     <g id="line2d_11">
      <path clip-path="url(#pc0e029f335)" d="M 827.39785 151.344 
L 827.39785 7.2 
" style="fill:none;stroke:#b0b0b0;stroke-linecap:square;stroke-width:0.8;"/>
     </g>
     <g id="line2d_12">
      <g>
       <use style="stroke:#000000;stroke-width:0.8;" x="827.39785" xlink:href="#m005f0a59be" y="151.344"/>
      </g>
     </g>
     <g id="text_6">
      <!-- 340 -->
      <g transform="translate(813.082225 169.741656)scale(0.15 -0.15)">
       <defs>
        <path d="M 37.796875 64.3125 
L 12.890625 25.390625 
L 37.796875 25.390625 
z
M 35.203125 72.90625 
L 47.609375 72.90625 
L 47.609375 25.390625 
L 58.015625 25.390625 
L 58.015625 17.1875 
L 47.609375 17.1875 
L 47.609375 0 
L 37.796875 0 
L 37.796875 17.1875 
L 4.890625 17.1875 
L 4.890625 26.703125 
z
" id="DejaVuSans-52"/>
       </defs>
       <use xlink:href="#DejaVuSans-51"/>
       <use x="63.623047" xlink:href="#DejaVuSans-52"/>
       <use x="127.246094" xlink:href="#DejaVuSans-48"/>
      </g>
     </g>
    </g>
    <g id="text_7">
     <!-- Tweezer Frequency (THz) -->
     <g transform="translate(317.22785 192.058063)scale(0.2 -0.2)">
      <defs>
       <path d="M -0.296875 72.90625 
L 61.375 72.90625 
L 61.375 64.59375 
L 35.5 64.59375 
L 35.5 0 
L 25.59375 0 
L 25.59375 64.59375 
L -0.296875 64.59375 
z
" id="DejaVuSans-84"/>
       <path d="M 4.203125 54.6875 
L 13.1875 54.6875 
L 24.421875 12.015625 
L 35.59375 54.6875 
L 46.1875 54.6875 
L 57.421875 12.015625 
L 68.609375 54.6875 
L 77.59375 54.6875 
L 63.28125 0 
L 52.6875 0 
L 40.921875 44.828125 
L 29.109375 0 
L 18.5 0 
z
" id="DejaVuSans-119"/>
       <path d="M 56.203125 29.59375 
L 56.203125 25.203125 
L 14.890625 25.203125 
Q 15.484375 15.921875 20.484375 11.0625 
Q 25.484375 6.203125 34.421875 6.203125 
Q 39.59375 6.203125 44.453125 7.46875 
Q 49.3125 8.734375 54.109375 11.28125 
L 54.109375 2.78125 
Q 49.265625 0.734375 44.1875 -0.34375 
Q 39.109375 -1.421875 33.890625 -1.421875 
Q 20.796875 -1.421875 13.15625 6.1875 
Q 5.515625 13.8125 5.515625 26.8125 
Q 5.515625 40.234375 12.765625 48.109375 
Q 20.015625 56 32.328125 56 
Q 43.359375 56 49.78125 48.890625 
Q 56.203125 41.796875 56.203125 29.59375 
z
M 47.21875 32.234375 
Q 47.125 39.59375 43.09375 43.984375 
Q 39.0625 48.390625 32.421875 48.390625 
Q 24.90625 48.390625 20.390625 44.140625 
Q 15.875 39.890625 15.1875 32.171875 
z
" id="DejaVuSans-101"/>
       <path d="M 5.515625 54.6875 
L 48.1875 54.6875 
L 48.1875 46.484375 
L 14.40625 7.171875 
L 48.1875 7.171875 
L 48.1875 0 
L 4.296875 0 
L 4.296875 8.203125 
L 38.09375 47.515625 
L 5.515625 47.515625 
z
" id="DejaVuSans-122"/>
       <path d="M 41.109375 46.296875 
Q 39.59375 47.171875 37.8125 47.578125 
Q 36.03125 48 33.890625 48 
Q 26.265625 48 22.1875 43.046875 
Q 18.109375 38.09375 18.109375 28.8125 
L 18.109375 0 
L 9.078125 0 
L 9.078125 54.6875 
L 18.109375 54.6875 
L 18.109375 46.1875 
Q 20.953125 51.171875 25.484375 53.578125 
Q 30.03125 56 36.53125 56 
Q 37.453125 56 38.578125 55.875 
Q 39.703125 55.765625 41.0625 55.515625 
z
" id="DejaVuSans-114"/>
       <path id="DejaVuSans-32"/>
       <path d="M 9.8125 72.90625 
L 51.703125 72.90625 
L 51.703125 64.59375 
L 19.671875 64.59375 
L 19.671875 43.109375 
L 48.578125 43.109375 
L 48.578125 34.8125 
L 19.671875 34.8125 
L 19.671875 0 
L 9.8125 0 
z
" id="DejaVuSans-70"/>
       <path d="M 14.796875 27.296875 
Q 14.796875 17.390625 18.875 11.75 
Q 22.953125 6.109375 30.078125 6.109375 
Q 37.203125 6.109375 41.296875 11.75 
Q 45.40625 17.390625 45.40625 27.296875 
Q 45.40625 37.203125 41.296875 42.84375 
Q 37.203125 48.484375 30.078125 48.484375 
Q 22.953125 48.484375 18.875 42.84375 
Q 14.796875 37.203125 14.796875 27.296875 
z
M 45.40625 8.203125 
Q 42.578125 3.328125 38.25 0.953125 
Q 33.9375 -1.421875 27.875 -1.421875 
Q 17.96875 -1.421875 11.734375 6.484375 
Q 5.515625 14.40625 5.515625 27.296875 
Q 5.515625 40.1875 11.734375 48.09375 
Q 17.96875 56 27.875 56 
Q 33.9375 56 38.25 53.625 
Q 42.578125 51.265625 45.40625 46.390625 
L 45.40625 54.6875 
L 54.390625 54.6875 
L 54.390625 -20.796875 
L 45.40625 -20.796875 
z
" id="DejaVuSans-113"/>
       <path d="M 8.5 21.578125 
L 8.5 54.6875 
L 17.484375 54.6875 
L 17.484375 21.921875 
Q 17.484375 14.15625 20.5 10.265625 
Q 23.53125 6.390625 29.59375 6.390625 
Q 36.859375 6.390625 41.078125 11.03125 
Q 45.3125 15.671875 45.3125 23.6875 
L 45.3125 54.6875 
L 54.296875 54.6875 
L 54.296875 0 
L 45.3125 0 
L 45.3125 8.40625 
Q 42.046875 3.421875 37.71875 1 
Q 33.40625 -1.421875 27.6875 -1.421875 
Q 18.265625 -1.421875 13.375 4.4375 
Q 8.5 10.296875 8.5 21.578125 
z
M 31.109375 56 
z
" id="DejaVuSans-117"/>
       <path d="M 54.890625 33.015625 
L 54.890625 0 
L 45.90625 0 
L 45.90625 32.71875 
Q 45.90625 40.484375 42.875 44.328125 
Q 39.84375 48.1875 33.796875 48.1875 
Q 26.515625 48.1875 22.3125 43.546875 
Q 18.109375 38.921875 18.109375 30.90625 
L 18.109375 0 
L 9.078125 0 
L 9.078125 54.6875 
L 18.109375 54.6875 
L 18.109375 46.1875 
Q 21.34375 51.125 25.703125 53.5625 
Q 30.078125 56 35.796875 56 
Q 45.21875 56 50.046875 50.171875 
Q 54.890625 44.34375 54.890625 33.015625 
z
" id="DejaVuSans-110"/>
       <path d="M 48.78125 52.59375 
L 48.78125 44.1875 
Q 44.96875 46.296875 41.140625 47.34375 
Q 37.3125 48.390625 33.40625 48.390625 
Q 24.65625 48.390625 19.8125 42.84375 
Q 14.984375 37.3125 14.984375 27.296875 
Q 14.984375 17.28125 19.8125 11.734375 
Q 24.65625 6.203125 33.40625 6.203125 
Q 37.3125 6.203125 41.140625 7.25 
Q 44.96875 8.296875 48.78125 10.40625 
L 48.78125 2.09375 
Q 45.015625 0.34375 40.984375 -0.53125 
Q 36.96875 -1.421875 32.421875 -1.421875 
Q 20.0625 -1.421875 12.78125 6.34375 
Q 5.515625 14.109375 5.515625 27.296875 
Q 5.515625 40.671875 12.859375 48.328125 
Q 20.21875 56 33.015625 56 
Q 37.15625 56 41.109375 55.140625 
Q 45.0625 54.296875 48.78125 52.59375 
z
" id="DejaVuSans-99"/>
       <path d="M 32.171875 -5.078125 
Q 28.375 -14.84375 24.75 -17.8125 
Q 21.140625 -20.796875 15.09375 -20.796875 
L 7.90625 -20.796875 
L 7.90625 -13.28125 
L 13.1875 -13.28125 
Q 16.890625 -13.28125 18.9375 -11.515625 
Q 21 -9.765625 23.484375 -3.21875 
L 25.09375 0.875 
L 2.984375 54.6875 
L 12.5 54.6875 
L 29.59375 11.921875 
L 46.6875 54.6875 
L 56.203125 54.6875 
z
" id="DejaVuSans-121"/>
       <path d="M 31 75.875 
Q 24.46875 64.65625 21.28125 53.65625 
Q 18.109375 42.671875 18.109375 31.390625 
Q 18.109375 20.125 21.3125 9.0625 
Q 24.515625 -2 31 -13.1875 
L 23.1875 -13.1875 
Q 15.875 -1.703125 12.234375 9.375 
Q 8.59375 20.453125 8.59375 31.390625 
Q 8.59375 42.28125 12.203125 53.3125 
Q 15.828125 64.359375 23.1875 75.875 
z
" id="DejaVuSans-40"/>
       <path d="M 9.8125 72.90625 
L 19.671875 72.90625 
L 19.671875 43.015625 
L 55.515625 43.015625 
L 55.515625 72.90625 
L 65.375 72.90625 
L 65.375 0 
L 55.515625 0 
L 55.515625 34.71875 
L 19.671875 34.71875 
L 19.671875 0 
L 9.8125 0 
z
" id="DejaVuSans-72"/>
       <path d="M 8.015625 75.875 
L 15.828125 75.875 
Q 23.140625 64.359375 26.78125 53.3125 
Q 30.421875 42.28125 30.421875 31.390625 
Q 30.421875 20.453125 26.78125 9.375 
Q 23.140625 -1.703125 15.828125 -13.1875 
L 8.015625 -13.1875 
Q 14.5 -2 17.703125 9.0625 
Q 20.90625 20.125 20.90625 31.390625 
Q 20.90625 42.671875 17.703125 53.65625 
Q 14.5 64.65625 8.015625 75.875 
z
" id="DejaVuSans-41"/>
      </defs>
      <use xlink:href="#DejaVuSans-84"/>
      <use x="44.583984" xlink:href="#DejaVuSans-119"/>
      <use x="126.371094" xlink:href="#DejaVuSans-101"/>
      <use x="187.894531" xlink:href="#DejaVuSans-101"/>
      <use x="249.417969" xlink:href="#DejaVuSans-122"/>
      <use x="301.908203" xlink:href="#DejaVuSans-101"/>
      <use x="363.431641" xlink:href="#DejaVuSans-114"/>
      <use x="404.544922" xlink:href="#DejaVuSans-32"/>
      <use x="436.332031" xlink:href="#DejaVuSans-70"/>
      <use x="486.601562" xlink:href="#DejaVuSans-114"/>
      <use x="525.464844" xlink:href="#DejaVuSans-101"/>
      <use x="586.988281" xlink:href="#DejaVuSans-113"/>
      <use x="650.464844" xlink:href="#DejaVuSans-117"/>
      <use x="713.84375" xlink:href="#DejaVuSans-101"/>
      <use x="775.367188" xlink:href="#DejaVuSans-110"/>
      <use x="838.746094" xlink:href="#DejaVuSans-99"/>
      <use x="893.726562" xlink:href="#DejaVuSans-121"/>
      <use x="952.90625" xlink:href="#DejaVuSans-32"/>
      <use x="984.693359" xlink:href="#DejaVuSans-40"/>
      <use x="1023.707031" xlink:href="#DejaVuSans-84"/>
      <use x="1084.791016" xlink:href="#DejaVuSans-72"/>
      <use x="1159.986328" xlink:href="#DejaVuSans-122"/>
      <use x="1212.476562" xlink:href="#DejaVuSans-41"/>
     </g>
    </g>
   </g>
   <g id="matplotlib.axis_2">
    <g id="ytick_1">
     <g id="line2d_13">
      <path clip-path="url(#pc0e029f335)" d="M 57.35785 113.667285 
L 827.39785 113.667285 
" style="fill:none;stroke:#b0b0b0;stroke-linecap:square;stroke-width:0.8;"/>
     </g>
     <g id="line2d_14">
      <defs>
       <path d="M 0 0 
L -3.5 0 
" id="mc3ce260a5b" style="stroke:#000000;stroke-width:0.8;"/>
      </defs>
      <g>
       <use style="stroke:#000000;stroke-width:0.8;" x="57.35785" xlink:href="#mc3ce260a5b" y="113.667285"/>
      </g>
     </g>
     <g id="text_8">
      <!-- 1 -->
      <g transform="translate(40.8141 119.366113)scale(0.15 -0.15)">
       <use xlink:href="#DejaVuSans-49"/>
      </g>
     </g>
    </g>
    <g id="ytick_2">
     <g id="line2d_15">
      <path clip-path="url(#pc0e029f335)" d="M 57.35785 72.750748 
L 827.39785 72.750748 
" style="fill:none;stroke:#b0b0b0;stroke-linecap:square;stroke-width:0.8;"/>
     </g>
     <g id="line2d_16">
      <g>
       <use style="stroke:#000000;stroke-width:0.8;" x="57.35785" xlink:href="#mc3ce260a5b" y="72.750748"/>
      </g>
     </g>
     <g id="text_9">
      <!-- 10 -->
      <g transform="translate(31.27035 78.449576)scale(0.15 -0.15)">
       <use xlink:href="#DejaVuSans-49"/>
       <use x="63.623047" xlink:href="#DejaVuSans-48"/>
      </g>
     </g>
    </g>
    <g id="ytick_3">
     <g id="line2d_17">
      <path clip-path="url(#pc0e029f335)" d="M 57.35785 31.83421 
L 827.39785 31.83421 
" style="fill:none;stroke:#b0b0b0;stroke-linecap:square;stroke-width:0.8;"/>
     </g>
     <g id="line2d_18">
      <g>
       <use style="stroke:#000000;stroke-width:0.8;" x="57.35785" xlink:href="#mc3ce260a5b" y="31.83421"/>
      </g>
     </g>
     <g id="text_10">
      <!-- 100 -->
      <g transform="translate(21.7266 37.533038)scale(0.15 -0.15)">
       <use xlink:href="#DejaVuSans-49"/>
       <use x="63.623047" xlink:href="#DejaVuSans-48"/>
       <use x="127.246094" xlink:href="#DejaVuSans-48"/>
      </g>
     </g>
    </g>
    <g id="ytick_4">
     <g id="line2d_19">
      <defs>
       <path d="M 0 0 
L -2 0 
" id="md0f4fded07" style="stroke:#000000;stroke-width:0.6;"/>
      </defs>
      <g>
       <use style="stroke:#000000;stroke-width:0.6;" x="57.35785" xlink:href="#md0f4fded07" y="142.266717"/>
      </g>
     </g>
    </g>
    <g id="ytick_5">
     <g id="line2d_20">
      <g>
       <use style="stroke:#000000;stroke-width:0.6;" x="57.35785" xlink:href="#md0f4fded07" y="135.061673"/>
      </g>
     </g>
    </g>
    <g id="ytick_6">
     <g id="line2d_21">
      <g>
       <use style="stroke:#000000;stroke-width:0.6;" x="57.35785" xlink:href="#md0f4fded07" y="129.949612"/>
      </g>
     </g>
    </g>
    <g id="ytick_7">
     <g id="line2d_22">
      <g>
       <use style="stroke:#000000;stroke-width:0.6;" x="57.35785" xlink:href="#md0f4fded07" y="125.98439"/>
      </g>
     </g>
    </g>
    <g id="ytick_8">
     <g id="line2d_23">
      <g>
       <use style="stroke:#000000;stroke-width:0.6;" x="57.35785" xlink:href="#md0f4fded07" y="122.744568"/>
      </g>
     </g>
    </g>
    <g id="ytick_9">
     <g id="line2d_24">
      <g>
       <use style="stroke:#000000;stroke-width:0.6;" x="57.35785" xlink:href="#md0f4fded07" y="120.005337"/>
      </g>
     </g>
    </g>
    <g id="ytick_10">
     <g id="line2d_25">
      <g>
       <use style="stroke:#000000;stroke-width:0.6;" x="57.35785" xlink:href="#md0f4fded07" y="117.632507"/>
      </g>
     </g>
    </g>
    <g id="ytick_11">
     <g id="line2d_26">
      <g>
       <use style="stroke:#000000;stroke-width:0.6;" x="57.35785" xlink:href="#md0f4fded07" y="115.539523"/>
      </g>
     </g>
    </g>
    <g id="ytick_12">
     <g id="line2d_27">
      <g>
       <use style="stroke:#000000;stroke-width:0.6;" x="57.35785" xlink:href="#md0f4fded07" y="101.35018"/>
      </g>
     </g>
    </g>
    <g id="ytick_13">
     <g id="line2d_28">
      <g>
       <use style="stroke:#000000;stroke-width:0.6;" x="57.35785" xlink:href="#md0f4fded07" y="94.145135"/>
      </g>
     </g>
    </g>
    <g id="ytick_14">
     <g id="line2d_29">
      <g>
       <use style="stroke:#000000;stroke-width:0.6;" x="57.35785" xlink:href="#md0f4fded07" y="89.033075"/>
      </g>
     </g>
    </g>
    <g id="ytick_15">
     <g id="line2d_30">
      <g>
       <use style="stroke:#000000;stroke-width:0.6;" x="57.35785" xlink:href="#md0f4fded07" y="85.067853"/>
      </g>
     </g>
    </g>
    <g id="ytick_16">
     <g id="line2d_31">
      <g>
       <use style="stroke:#000000;stroke-width:0.6;" x="57.35785" xlink:href="#md0f4fded07" y="81.82803"/>
      </g>
     </g>
    </g>
    <g id="ytick_17">
     <g id="line2d_32">
      <g>
       <use style="stroke:#000000;stroke-width:0.6;" x="57.35785" xlink:href="#md0f4fded07" y="79.088799"/>
      </g>
     </g>
    </g>
    <g id="ytick_18">
     <g id="line2d_33">
      <g>
       <use style="stroke:#000000;stroke-width:0.6;" x="57.35785" xlink:href="#md0f4fded07" y="76.71597"/>
      </g>
     </g>
    </g>
    <g id="ytick_19">
     <g id="line2d_34">
      <g>
       <use style="stroke:#000000;stroke-width:0.6;" x="57.35785" xlink:href="#md0f4fded07" y="74.622986"/>
      </g>
     </g>
    </g>
    <g id="ytick_20">
     <g id="line2d_35">
      <g>
       <use style="stroke:#000000;stroke-width:0.6;" x="57.35785" xlink:href="#md0f4fded07" y="60.433642"/>
      </g>
     </g>
    </g>
    <g id="ytick_21">
     <g id="line2d_36">
      <g>
       <use style="stroke:#000000;stroke-width:0.6;" x="57.35785" xlink:href="#md0f4fded07" y="53.228598"/>
      </g>
     </g>
    </g>
    <g id="ytick_22">
     <g id="line2d_37">
      <g>
       <use style="stroke:#000000;stroke-width:0.6;" x="57.35785" xlink:href="#md0f4fded07" y="48.116537"/>
      </g>
     </g>
    </g>
    <g id="ytick_23">
     <g id="line2d_38">
      <g>
       <use style="stroke:#000000;stroke-width:0.6;" x="57.35785" xlink:href="#md0f4fded07" y="44.151315"/>
      </g>
     </g>
    </g>
    <g id="ytick_24">
     <g id="line2d_39">
      <g>
       <use style="stroke:#000000;stroke-width:0.6;" x="57.35785" xlink:href="#md0f4fded07" y="40.911493"/>
      </g>
     </g>
    </g>
    <g id="ytick_25">
     <g id="line2d_40">
      <g>
       <use style="stroke:#000000;stroke-width:0.6;" x="57.35785" xlink:href="#md0f4fded07" y="38.172262"/>
      </g>
     </g>
    </g>
    <g id="ytick_26">
     <g id="line2d_41">
      <g>
       <use style="stroke:#000000;stroke-width:0.6;" x="57.35785" xlink:href="#md0f4fded07" y="35.799432"/>
      </g>
     </g>
    </g>
    <g id="ytick_27">
     <g id="line2d_42">
      <g>
       <use style="stroke:#000000;stroke-width:0.6;" x="57.35785" xlink:href="#md0f4fded07" y="33.706448"/>
      </g>
     </g>
    </g>
    <g id="ytick_28">
     <g id="line2d_43">
      <g>
       <use style="stroke:#000000;stroke-width:0.6;" x="57.35785" xlink:href="#md0f4fded07" y="19.517105"/>
      </g>
     </g>
    </g>
    <g id="ytick_29">
     <g id="line2d_44">
      <g>
       <use style="stroke:#000000;stroke-width:0.6;" x="57.35785" xlink:href="#md0f4fded07" y="12.31206"/>
      </g>
     </g>
    </g>
    <g id="ytick_30">
     <g id="line2d_45">
      <g>
       <use style="stroke:#000000;stroke-width:0.6;" x="57.35785" xlink:href="#md0f4fded07" y="7.2"/>
      </g>
     </g>
    </g>
    <g id="text_11">
     <!-- $\Gamma_{s}~(2\pi\times \mathrm{kHz})$ -->
     <g transform="translate(22.396875 143.172)rotate(-90)scale(0.2 -0.2)">
      <defs>
       <path d="M 9.8125 0 
L 9.8125 72.90625 
L 55.171875 72.90625 
L 55.171875 64.59375 
L 19.671875 64.59375 
L 19.671875 0 
z
" id="DejaVuSans-915"/>
       <path d="M 50 53.078125 
L 48.296875 44.578125 
Q 44.734375 46.53125 40.765625 47.5 
Q 36.8125 48.484375 32.625 48.484375 
Q 25.53125 48.484375 21.453125 46.0625 
Q 17.390625 43.65625 17.390625 39.5 
Q 17.390625 34.671875 26.859375 32.078125 
Q 27.59375 31.890625 27.9375 31.78125 
L 30.8125 30.90625 
Q 39.796875 28.421875 42.796875 25.6875 
Q 45.796875 22.953125 45.796875 18.21875 
Q 45.796875 9.515625 38.890625 4.046875 
Q 31.984375 -1.421875 20.796875 -1.421875 
Q 16.453125 -1.421875 11.671875 -0.578125 
Q 6.890625 0.25 1.125 2 
L 2.875 11.28125 
Q 7.8125 8.734375 12.59375 7.421875 
Q 17.390625 6.109375 21.78125 6.109375 
Q 28.375 6.109375 32.5 8.9375 
Q 36.625 11.765625 36.625 16.109375 
Q 36.625 20.796875 25.78125 23.6875 
L 24.859375 23.921875 
L 21.78125 24.703125 
Q 14.9375 26.515625 11.765625 29.46875 
Q 8.59375 32.421875 8.59375 37.015625 
Q 8.59375 45.75 15.15625 50.875 
Q 21.734375 56 33.015625 56 
Q 37.453125 56 41.671875 55.265625 
Q 45.90625 54.546875 50 53.078125 
z
" id="DejaVuSans-Oblique-115"/>
       <path d="M 9.125 54.6875 
L 61.53125 54.6875 
L 59.765625 45.703125 
L 52.875 45.703125 
L 46.34375 12.109375 
Q 45.65625 8.59375 46.578125 7.03125 
Q 47.46875 5.515625 50.140625 5.515625 
Q 50.875 5.515625 51.953125 5.671875 
Q 53.078125 5.765625 53.421875 5.8125 
L 52.15625 -0.6875 
Q 50.34375 -1.3125 48.484375 -1.609375 
Q 46.578125 -1.90625 44.78125 -1.90625 
Q 38.921875 -1.90625 37.3125 1.265625 
Q 35.6875 4.5 37.359375 13.09375 
L 43.703125 45.703125 
L 23.53125 45.703125 
L 14.65625 0 
L 5.46875 0 
L 14.359375 45.703125 
L 7.375 45.703125 
z
" id="DejaVuSans-Oblique-960"/>
       <path d="M 70.125 53.71875 
L 47.796875 31.296875 
L 70.125 8.984375 
L 64.3125 3.078125 
L 41.890625 25.484375 
L 19.484375 3.078125 
L 13.71875 8.984375 
L 35.984375 31.296875 
L 13.71875 53.71875 
L 19.484375 59.625 
L 41.890625 37.203125 
L 64.3125 59.625 
z
" id="DejaVuSans-215"/>
       <path d="M 9.078125 75.984375 
L 18.109375 75.984375 
L 18.109375 31.109375 
L 44.921875 54.6875 
L 56.390625 54.6875 
L 27.390625 29.109375 
L 57.625 0 
L 45.90625 0 
L 18.109375 26.703125 
L 18.109375 0 
L 9.078125 0 
z
" id="DejaVuSans-107"/>
      </defs>
      <use transform="translate(0 0.015625)" xlink:href="#DejaVuSans-915"/>
      <use transform="translate(56.669922 -16.390625)scale(0.7)" xlink:href="#DejaVuSans-Oblique-115"/>
      <use transform="translate(128.344402 0.015625)" xlink:href="#DejaVuSans-40"/>
      <use transform="translate(167.358074 0.015625)" xlink:href="#DejaVuSans-50"/>
      <use transform="translate(230.981121 0.015625)" xlink:href="#DejaVuSans-Oblique-960"/>
      <use transform="translate(310.668621 0.015625)" xlink:href="#DejaVuSans-215"/>
      <use transform="translate(413.940105 0.015625)" xlink:href="#DejaVuSans-107"/>
      <use transform="translate(471.850261 0.015625)" xlink:href="#DejaVuSans-72"/>
      <use transform="translate(547.045574 0.015625)" xlink:href="#DejaVuSans-122"/>
      <use transform="translate(599.535808 0.015625)" xlink:href="#DejaVuSans-41"/>
     </g>
    </g>
   </g>
   <g id="line2d_46">
    <path clip-path="url(#pc0e029f335)" d="M 57.350949 150.132351 
L 123.02501 147.312905 
L 183.475486 144.49831 
L 239.08878 141.689523 
L 290.22267 138.887562 
L 337.220625 136.092753 
L 380.36887 133.30742 
L 419.967939 130.531684 
L 456.275434 127.767075 
L 489.534645 125.014875 
L 519.96024 122.277444 
L 547.766887 119.55591 
L 573.154942 116.851264 
L 596.310451 114.164474 
L 617.41946 111.494758 
L 636.62508 108.845166 
L 654.084734 106.215647 
L 669.955847 103.60408 
L 684.367217 101.010941 
L 697.447647 98.435032 
L 709.325937 95.872823 
L 720.116576 93.321138 
L 729.919742 90.777753 
L 738.821304 88.242227 
L 746.93575 85.702923 
L 754.320325 83.162466 
L 761.060897 80.611891 
L 767.229021 78.043222 
L 772.881942 75.450789 
L 778.062593 72.833087 
L 782.82822 70.178576 
L 787.221757 67.478974 
L 791.271824 64.73198 
L 795.021356 61.92251 
L 798.498976 59.040871 
L 801.733306 56.073183 
L 804.738656 53.01514 
L 807.54365 49.844344 
L 810.162598 46.548048 
L 812.609812 43.109566 
L 814.899602 39.506728 
L 817.03197 35.736572 
L 819.035537 31.738667 
L 820.895992 27.528043 
L 822.627646 23.058875 
L 824.244811 18.265905 
L 825.747486 13.10739 
L 827.135672 7.532762 
L 827.407585 6.326523 
L 827.407585 6.326523 
" style="fill:none;stroke:#ff0000;stroke-dasharray:4,6.6;stroke-dashoffset:0;stroke-opacity:0.7;stroke-width:4;"/>
   </g>
   <g id="line2d_47">
    <path clip-path="url(#pc0e029f335)" d="M 57.356833 144.443757 
L 58.046258 143.879244 
L 58.566918 143.166277 
L 58.961902 142.235122 
L 59.274298 140.882696 
L 59.529241 138.680822 
L 59.741096 134.6989 
L 59.924225 126.437943 
L 60.078627 107.784795 
L 60.189941 63.262164 
L 60.223537 -1 
M 60.237047 -1 
L 60.369479 105.048359 
L 60.588515 129.156986 
L 60.839868 136.143424 
L 61.105584 138.314302 
L 61.356937 138.889369 
L 61.554429 138.911465 
L 61.784237 138.666477 
L 62.121768 137.933903 
L 62.527524 136.486426 
L 62.897372 134.311551 
L 63.191814 131.178697 
L 63.425213 126.068513 
L 63.611933 116.505616 
L 63.766335 95.211763 
L 63.870467 43.909518 
L 63.891885 -1 
M 63.908905 -1 
L 64.039233 96.156123 
L 64.254678 119.029471 
L 64.480896 124.241202 
L 64.649662 124.89306 
L 64.664025 124.887353 
L 64.757385 124.687613 
L 64.947695 123.613545 
L 65.2565 120.431838 
L 65.59044 114.568577 
L 65.852566 105.785507 
L 66.046467 90.852535 
L 66.186506 59.9384 
L 66.254576 -1 
M 66.283594 -1 
L 66.430678 80.509781 
L 66.63176 95.498179 
L 66.714348 96.24659 
L 66.768209 96.002582 
L 66.901067 93.835357 
L 67.163192 85.319049 
L 67.479179 67.409622 
L 67.72335 40.230553 
L 67.867409 -1 
M 67.998689 -1 
L 68.200921 48.907237 
L 68.520499 76.503033 
L 68.947799 95.204691 
L 69.464868 108.558909 
L 70.046571 118.126346 
L 70.671362 124.940892 
L 71.32488 129.7667 
L 71.992761 133.133825 
L 72.660642 135.425452 
L 73.310569 136.910621 
L 73.917407 137.78219 
L 74.463203 138.205582 
L 74.947955 138.31573 
L 75.40039 138.191795 
L 75.860007 137.82546 
L 76.34835 137.133115 
L 76.861829 135.994447 
L 77.38967 134.252339 
L 77.921102 131.689125 
L 78.445353 128.003661 
L 78.95524 122.741372 
L 79.439993 115.282547 
L 79.885247 104.802176 
L 80.273049 90.183351 
L 80.585444 69.587119 
L 80.804481 39.730964 
L 80.916842 -1 
M 81.021465 -1 
L 81.210236 53.224661 
L 81.519041 82.108946 
L 81.928388 100.856592 
L 82.416731 113.6564 
L 82.955345 122.307416 
L 83.519093 128.026896 
L 84.082842 131.653023 
L 84.607093 133.718368 
L 85.041575 134.645383 
L 85.353971 134.879164 
L 85.580188 134.797893 
L 85.820769 134.439586 
L 86.104439 133.566224 
L 86.420426 131.800756 
L 86.750775 128.580857 
L 87.081125 122.97276 
L 87.397112 113.435259 
L 87.680782 97.482663 
L 87.903409 71.489517 
L 88.043448 26.330987 
L 88.072409 -1 
M 88.122436 -1 
L 88.276847 68.759504 
L 88.549745 100.190111 
L 88.901639 117.400494 
L 89.23558 124.814516 
L 89.246352 124.831492 
L 89.275078 124.605967 
L 89.325349 121.741762 
L 89.372029 102.015256 
L 89.395148 -1 
M 89.399026 -1 
L 89.512068 127.489541 
L 89.702378 132.024374 
L 90.068636 135.265249 
L 90.521071 137.45496 
L 90.969916 138.6361 
L 91.364899 139.127844 
L 91.677295 139.206991 
L 91.950193 139.044132 
L 92.244635 138.579995 
L 92.564212 137.619202 
L 92.894562 135.85259 
L 93.21773 132.793702 
L 93.522944 127.572379 
L 93.803024 118.579467 
L 94.047195 102.886068 
L 94.233914 75.31822 
L 94.341637 23.958028 
L 94.357773 -1 
M 94.389764 -1 
L 94.535538 75.967513 
L 94.567855 77.874308 
L 94.614535 73.3572 
L 94.682759 35.975795 
L 94.701197 -1 
M 94.721346 -1 
L 94.855116 89.418778 
L 95.092106 114.897691 
L 95.408092 127.106147 
L 95.774349 133.446056 
L 96.172924 136.823902 
L 96.593042 138.652171 
L 97.023933 139.619017 
L 97.447643 140.070291 
L 97.86417 140.206888 
L 98.298652 140.113776 
L 98.790586 139.768839 
L 99.343563 139.094291 
L 99.936038 138.003602 
L 100.539285 136.406308 
L 101.135351 134.167506 
L 101.709872 131.10381 
L 102.259258 126.906325 
L 102.779918 121.11156 
L 103.261079 113.133414 
L 103.695561 102.033832 
L 104.069 86.459658 
L 104.359851 64.582217 
L 104.560934 31.359947 
L 104.637896 -1 
M 104.741437 -1 
L 104.930782 53.550563 
L 105.235996 81.951932 
L 105.630979 99.477341 
L 106.047507 109.126903 
L 106.39222 112.84296 
L 106.593302 113.418876 
L 106.604075 113.415722 
L 106.693844 113.248953 
L 106.844655 112.373507 
L 107.063692 109.594217 
L 107.336589 102.934345 
L 107.62385 89.955276 
L 107.875203 67.809096 
L 108.047559 31.82127 
L 108.105856 -1 
M 108.182604 -1 
L 108.356364 59.567533 
L 108.647216 89.251826 
L 109.031427 107.281288 
L 109.483862 118.745105 
L 109.990159 126.260871 
L 110.543136 131.334706 
L 111.139202 134.857697 
L 111.781947 137.383256 
L 112.471373 139.22572 
L 113.211069 140.589259 
L 114.004626 141.598724 
L 114.844864 142.316851 
L 115.667147 142.740209 
L 116.324256 142.849931 
L 116.762328 142.715542 
L 117.071133 142.387553 
L 117.326077 141.760563 
L 117.545113 140.564339 
L 117.739014 138.081431 
L 117.904189 132.675416 
L 118.047819 119.300658 
L 118.159133 84.998042 
L 118.210026 -1 
M 118.220124 -1 
L 118.338671 110.687866 
L 118.543344 133.491053 
L 118.783925 139.457112 
L 119.053232 141.400006 
L 119.340492 142.084789 
L 119.616981 142.251028 
L 119.886287 142.155833 
L 120.187911 141.791542 
L 120.511079 141.020429 
L 120.823475 139.646892 
L 121.114327 137.260328 
L 121.380043 133.016673 
L 121.617033 125.290169 
L 121.828887 110.247637 
L 121.997653 80.522687 
L 122.091013 21.458185 
L 122.100999 -1 
M 122.124004 -1 
L 122.26696 90.639436 
L 122.511131 119.811309 
L 122.805573 131.738959 
L 123.12156 136.640505 
L 123.437547 138.582754 
L 123.699672 139.096376 
L 123.854075 139.056033 
L 124.02284 138.715127 
L 124.238286 137.699774 
L 124.468094 135.407196 
L 124.68354 130.772651 
L 124.877441 121.187301 
L 125.042615 100.539693 
L 125.15752 54.943091 
L 125.190108 -1 
M 125.207282 -1 
L 125.337058 96.611861 
L 125.563275 123.534119 
L 125.818219 131.684227 
L 126.051618 133.601973 
L 126.137797 133.689673 
L 126.184476 133.635579 
L 126.313744 133.156037 
L 126.525598 131.377053 
L 126.798496 126.975168 
L 127.082166 118.406347 
L 127.3407 103.230338 
L 127.545374 77.14669 
L 127.67105 30.343393 
L 127.697289 -1 
M 127.734534 -1 
L 127.882905 74.606598 
L 127.943948 80.18624 
L 127.990627 75.509215 
L 128.05167 33.039384 
L 128.063756 -1 
M 128.079254 -1 
L 128.206073 93.734154 
L 128.435881 116.176686 
L 128.76264 127.841259 
L 129.146851 134.305344 
L 129.570561 137.992167 
L 130.030178 140.189631 
L 130.529293 141.561324 
L 131.078679 142.453469 
L 131.703471 143.053844 
L 132.450349 143.460111 
L 133.391127 143.710057 
L 134.611985 143.794331 
L 136.120103 143.670138 
L 137.725172 143.316466 
L 139.175838 142.773987 
L 140.400286 142.082957 
L 141.434424 141.245284 
L 142.321341 140.239578 
L 143.100536 139.015526 
L 143.797143 137.497304 
L 144.421935 135.586071 
L 144.978502 133.139982 
L 145.456073 130.003001 
L 145.847465 125.880627 
L 146.141908 120.287058 
L 146.357353 111.577365 
L 146.518937 94.649155 
L 146.630251 56.570223 
L 146.669987 -1 
M 146.689512 -1 
L 146.824152 90.450641 
L 147.010871 104.58247 
L 147.057551 104.909324 
L 147.115003 104.504769 
L 147.247861 101.166532 
L 147.470488 89.187243 
L 147.682343 65.008016 
L 147.822382 20.575789 
L 147.8474 -1 
M 147.907249 -1 
L 148.070144 64.523995 
L 148.335861 91.552381 
L 148.612349 101.046891 
L 148.80625 102.544491 
L 148.813431 102.54194 
L 148.878065 102.357054 
L 149.014514 101.082089 
L 149.237141 96.568245 
L 149.405906 88.909592 
L 149.456177 72.449439 
L 149.476092 -1 
M 149.481183 -1 
L 149.560309 83.878638 
L 149.603398 82.858006 
L 149.80448 71.001092 
L 150.04147 44.65301 
L 150.188692 1.932481 
L 150.193657 -1 
M 150.309732 -1 
L 150.504678 51.206958 
L 150.817074 79.289235 
L 151.233602 97.806641 
L 151.732717 110.606711 
L 152.289285 119.505449 
L 152.888941 125.743669 
L 153.513733 130.064399 
L 154.109799 132.771605 
L 154.508373 133.75774 
L 154.659185 133.794225 
L 154.673548 133.779905 
L 154.792043 133.47413 
L 154.928492 132.387277 
L 155.06494 129.230577 
L 155.190617 120.003199 
L 155.294749 91.898928 
L 155.35096 -1 
M 155.359926 -1 
L 155.48865 115.205451 
L 155.686142 131.61304 
L 155.926722 135.816439 
L 156.231937 137.592669 
L 156.641283 138.707441 
L 157.208623 139.60886 
L 157.9555 140.377643 
L 158.860371 140.990305 
L 159.901691 141.426503 
L 161.03278 141.660852 
L 162.138733 141.668191 
L 163.079512 141.459857 
L 163.822798 141.073844 
L 164.418864 140.51481 
L 164.92157 139.730425 
L 165.363234 138.60881 
L 165.761808 136.949906 
L 166.124474 134.421935 
L 166.458415 130.400865 
L 166.76722 123.716267 
L 167.047299 112.283632 
L 167.284289 92.728767 
L 167.456645 58.739476 
L 167.540408 -1 
M 167.57865 -1 
L 167.725952 75.547797 
L 167.988077 106.912078 
L 168.318427 122.506351 
L 168.681094 130.237061 
L 169.065305 134.14697 
L 169.449516 136.028476 
L 169.794229 136.766103 
L 170.056354 136.901506 
L 170.271799 136.765365 
L 170.523152 136.305299 
L 170.817594 135.251828 
L 171.12999 133.228131 
L 171.438796 129.614342 
L 171.729647 123.300558 
L 171.995363 112.142566 
L 172.221581 92.447622 
L 172.386756 56.76021 
L 172.459887 -1 
M 172.495752 -1 
L 172.64529 78.019985 
L 172.903825 108.376101 
L 173.219811 122.421365 
L 173.539389 128.120402 
L 173.77997 129.412461 
L 173.833831 129.39757 
L 173.862557 129.341177 
L 173.977461 128.74209 
L 174.146227 126.473164 
L 174.340128 120.392858 
L 174.526847 106.631154 
L 174.68125 77.030369 
L 174.767428 13.446835 
L 174.772954 -1 
M 174.795735 -1 
L 174.929012 88.495165 
L 175.166002 117.238031 
L 175.4389 127.33934 
L 175.67948 129.847851 
L 175.722569 129.890706 
L 175.769249 129.797459 
L 175.873381 128.996704 
L 176.024193 125.798401 
L 176.189368 116.759817 
L 176.34018 94.082135 
L 176.440721 39.267926 
L 176.458223 -1 
M 176.475141 -1 
L 176.605896 97.261204 
L 176.832114 123.513009 
L 177.09783 132.229537 
L 177.399453 135.704844 
L 177.736985 137.290592 
L 178.103242 138.047519 
L 178.494634 138.385184 
L 178.929116 138.470984 
L 179.446185 138.336887 
L 180.067386 137.933759 
L 180.756812 137.211147 
L 181.464191 136.136754 
L 182.153616 134.672069 
L 182.814316 132.728013 
L 183.446289 130.145566 
L 184.042355 126.733821 
L 184.595332 122.225793 
L 184.972361 117.435642 
L 185.087266 112.90388 
L 185.141127 98.901844 
L 185.172251 -1 
M 185.175242 -1 
L 185.295529 112.026055 
L 185.324256 112.218177 
L 185.388889 111.7985 
L 185.625879 107.896003 
L 186.060361 97.112663 
L 186.448163 81.755322 
L 186.756968 60.157823 
L 186.968823 28.647175 
L 187.052225 -1 
M 187.180137 -1 
L 187.378169 49.026515 
L 187.697746 76.964781 
L 188.117865 95.311117 
L 188.61339 107.847981 
L 189.155594 116.299744 
L 189.708571 121.70737 
L 190.236412 124.889812 
L 190.696029 126.471221 
L 191.051514 127.026171 
L 191.295686 127.072037 
L 191.514722 126.86665 
L 191.784029 126.259877 
L 192.110788 124.903888 
L 192.477045 122.338269 
L 192.861256 117.946981 
L 193.245467 110.810023 
L 193.608134 99.645976 
L 193.92412 82.672684 
L 194.168292 56.862455 
L 194.322694 14.412169 
L 194.346111 -1 
M 194.43252 -1 
L 194.613546 57.372267 
L 194.911579 86.616417 
L 195.302971 104.633252 
L 195.755407 115.982155 
L 196.250931 123.221556 
L 196.775182 127.850531 
L 197.324568 130.850219 
L 197.884726 132.755063 
L 198.437703 133.902982 
L 198.951181 134.500048 
L 199.403616 134.71339 
L 199.7986 134.664693 
L 200.175629 134.386968 
L 200.55625 133.810893 
L 200.933279 132.806624 
L 201.292355 131.164527 
L 201.615523 128.56378 
L 201.895602 124.366988 
L 202.129002 117.197239 
L 202.31213 103.778762 
L 202.441397 75.921209 
L 202.513213 2.522419 
L 202.514004 -1 
M 202.532213 -1 
L 202.667615 89.935627 
L 202.743021 94.399299 
L 202.796882 92.589423 
L 202.911787 77.920788 
L 203.026691 32.674767 
L 203.052415 -1 
M 203.085069 -1 
L 203.234955 80.348146 
L 203.482717 107.613505 
L 203.769978 118.154299 
L 204.046466 121.567712 
L 204.25473 122.136199 
L 204.355271 122.010158 
L 204.524037 121.330424 
L 204.793344 119.17142 
L 205.141647 114.395349 
L 205.518677 105.941083 
L 205.874162 92.672516 
L 206.172195 72.779719 
L 206.38764 42.491661 
L 206.498792 -1 
M 206.591194 -1 
L 206.771851 55.413937 
L 207.073475 84.764431 
L 207.468458 102.948618 
L 207.928075 114.599857 
L 208.427191 122.027304 
L 208.951441 126.750543 
L 209.486464 129.705619 
L 210.014305 131.476663 
L 210.50983 132.433359 
L 210.944312 132.838487 
L 211.31416 132.903377 
L 211.662463 132.734614 
L 212.039493 132.284298 
L 212.456021 131.410504 
L 212.897684 129.927457 
L 213.339347 127.615745 
L 213.752284 124.20366 
L 214.089815 119.499286 
L 214.323215 112.973999 
L 214.477617 101.547886 
L 214.58534 73.627884 
L 214.640048 -1 
M 214.65491 -1 
L 214.786422 94.837737 
L 214.951597 102.822268 
L 214.983914 102.677344 
L 215.091637 100.777192 
L 215.335808 91.805746 
L 215.623069 72.70295 
L 215.838514 42.531309 
L 215.950177 -1 
M 216.042838 -1 
L 216.222725 55.207581 
L 216.520758 84.390831 
L 216.915742 102.731065 
L 217.378949 114.567764 
L 217.881656 122.126809 
L 218.413088 127.001844 
L 218.966064 130.154172 
L 219.526223 132.146333 
L 220.075608 133.338616 
L 220.585496 133.959196 
L 221.037932 134.188359 
L 221.443687 134.153076 
L 221.842261 133.886261 
L 222.26238 133.317844 
L 222.704043 132.317639 
L 223.152888 130.714507 
L 223.598142 128.247913 
L 224.032623 124.498423 
L 224.445561 118.870858 
L 224.833362 110.335272 
L 225.185257 97.307238 
L 225.479699 77.481975 
L 225.691553 46.955531 
L 225.804298 -1 
M 225.883097 -1 
L 226.061402 59.57931 
L 226.355844 89.03293 
L 226.736464 106.539543 
L 227.160173 116.74223 
L 227.573111 121.953317 
L 227.889097 123.672115 
L 228.014774 123.800536 
L 228.050681 123.771072 
L 228.169176 123.436351 
L 228.341533 122.154999 
L 228.553387 118.688275 
L 228.779605 110.883344 
L 228.995051 94.826381 
L 229.167407 63.344817 
L 229.260353 -1 
M 229.296374 -1 
L 229.440305 76.383286 
L 229.684476 104.336187 
L 229.741928 105.951572 
L 229.788608 104.071755 
L 229.84606 87.479064 
L 229.885916 -1 
M 229.892797 -1 
L 230.018417 112.809151 
L 230.219499 123.688633 
L 230.531895 129.191191 
L 230.926878 132.513435 
L 231.379314 134.560431 
L 231.889201 135.891433 
L 232.460132 136.78551 
L 233.102877 137.390076 
L 233.82462 137.767647 
L 234.578679 137.916406 
L 235.228606 137.828969 
L 235.698995 137.550463 
L 236.047299 137.081939 
L 236.330969 136.300721 
L 236.57514 134.897411 
L 236.783404 132.245746 
L 236.966533 126.61779 
L 237.124526 113.620065 
L 237.250202 81.822365 
L 237.31446 -1 
M 237.328283 -1 
L 237.454876 102.429516 
L 237.670321 126.233281 
L 237.918083 132.969702 
L 238.198163 135.327758 
L 238.499786 136.221089 
L 238.812182 136.533931 
L 239.149713 136.568831 
L 239.573423 136.372067 
L 240.097673 135.866953 
L 240.665013 134.997351 
L 241.21799 133.726536 
L 241.73865 131.948038 
L 242.219811 129.472611 
L 242.650702 126.031158 
L 243.016959 121.206131 
L 243.297038 114.386303 
L 243.501712 103.327331 
L 243.648933 81.340047 
L 243.742292 27.842132 
L 243.755746 -1 
M 243.777503 -1 
L 243.911058 86.102279 
L 244.094187 98.863757 
L 244.122913 98.980181 
L 244.173183 98.610514 
L 244.302451 95.338277 
L 244.543031 82.823596 
L 244.783612 58.003056 
L 244.938015 17.497628 
L 244.967224 -1 
M 245.052769 -1 
L 245.228866 56.842906 
L 245.523308 86.320687 
L 245.91111 104.456175 
L 246.363546 115.940621 
L 246.855479 123.181859 
L 247.376139 127.79987 
L 247.921934 130.792628 
L 248.489274 132.746972 
L 249.074568 134.016444 
L 249.674224 134.814139 
L 250.273881 135.260243 
L 250.869946 135.435779 
L 251.451649 135.37862 
L 252.011807 135.09923 
L 252.543239 134.578383 
L 253.027992 133.780349 
L 253.458883 132.623028 
L 253.832322 130.942127 
L 254.148308 128.416825 
L 254.414024 124.35615 
L 254.640242 117.162719 
L 254.834143 103.023695 
L 254.988545 73.081408 
L 255.071133 11.259214 
L 255.076023 -1 
M 255.100573 -1 
L 255.243489 87.73334 
L 255.476889 112.79537 
L 255.728242 120.108544 
L 255.950869 121.631629 
L 256.011911 121.653734 
L 256.055001 121.594353 
L 256.187859 121.069398 
L 256.399713 119.201198 
L 256.604386 115.332616 
L 256.733654 108.22082 
L 256.819832 88.393007 
L 256.870103 18.512144 
L 256.872921 -1 
M 256.881498 -1 
L 257.006551 104.067431 
L 257.121456 107.586953 
L 257.153772 107.445288 
L 257.272267 105.605586 
L 257.555937 97.218825 
L 257.882696 80.746765 
L 258.141231 55.654476 
L 258.306406 15.719291 
L 258.336058 -1 
M 258.434837 -1 
L 258.618802 54.055663 
L 258.920425 82.900231 
L 259.318999 101.174402 
L 259.785798 113.0799 
L 260.299276 120.857957 
L 260.841481 125.907639 
L 261.398048 129.1566 
L 261.940252 131.11873 
L 262.385506 132.013021 
L 262.669176 132.187792 
L 262.848714 132.060152 
L 263.039024 131.596983 
L 263.243697 130.426576 
L 263.448371 127.781234 
L 263.638681 122.039928 
L 263.811037 109.082556 
L 263.951077 79.612974 
L 264.030073 6.782355 
L 264.032152 -1 
M 264.050772 -1 
L 264.180885 94.014873 
L 264.407103 120.482936 
L 264.672819 129.34356 
L 264.978033 132.947839 
L 265.329928 134.697565 
L 265.739274 135.682098 
L 266.234799 136.313945 
L 266.85959 136.748437 
L 267.660329 137.028021 
L 268.597517 137.119885 
L 269.46289 136.991754 
L 270.112817 136.681017 
L 270.590388 136.207994 
L 270.971008 135.503797 
L 271.294176 134.398069 
L 271.574255 132.574939 
L 271.822018 129.353985 
L 272.044645 123.172103 
L 272.238545 110.842902 
L 272.40013 84.657315 
L 272.49708 30.448985 
L 272.512293 -1 
M 272.534049 -1 
L 272.673027 91.213294 
L 272.910017 118.543851 
L 273.186505 128.335919 
L 273.49172 132.230729 
L 273.818479 133.894184 
L 274.15601 134.593547 
L 274.482769 134.816382 
L 274.816709 134.779332 
L 275.204511 134.495724 
L 275.653356 133.873932 
L 276.130927 132.808458 
L 276.601316 131.181037 
L 277.050161 128.778539 
L 277.477461 125.19023 
L 277.876035 119.835206 
L 278.249474 111.593085 
L 278.587005 98.839371 
L 278.870675 79.052533 
L 279.075348 48.010826 
L 279.182361 -1 
M 279.254186 -1 
L 279.423652 60.775199 
L 279.710912 90.797648 
L 280.084351 108.3629 
L 280.407519 116.012465 
L 280.421882 115.917008 
L 280.454199 113.687567 
L 280.482925 85.529368 
L 280.490107 16.591347 
L 280.587057 119.349774 
L 280.831229 123.410111 
L 281.280073 127.503736 
L 281.714555 129.670633 
L 282.044905 130.399236 
L 282.220852 130.410214 
L 282.368073 130.125254 
L 282.540429 129.217017 
L 282.702013 127.041204 
L 282.816918 122.064663 
L 282.888733 106.507447 
L 282.931822 24.241133 
L 282.932663 -1 
M 282.938257 -1 
L 283.050317 116.793209 
L 283.068271 116.998531 
L 283.11495 115.935771 
L 283.240627 106.401438 
L 283.384257 77.31333 
L 283.463254 14.88253 
L 283.468909 -1 
M 283.489771 -1 
L 283.628429 92.342362 
L 283.861828 118.70328 
L 284.138316 128.091882 
L 284.450712 131.994304 
L 284.809788 133.932375 
L 285.222725 135.021405 
L 285.711068 135.707194 
L 286.317906 136.177348 
L 287.122236 136.509463 
L 288.23178 136.714114 
L 289.736308 136.755348 
L 291.513733 136.580851 
L 293.151118 136.20526 
L 294.443791 135.689754 
L 295.445612 135.056975 
L 296.249942 134.28652 
L 296.917823 133.334466 
L 297.492344 132.116159 
L 297.99146 130.515982 
L 298.425941 128.338408 
L 298.795789 125.281102 
L 299.104594 120.733921 
L 299.355948 113.474401 
L 299.564211 100.189645 
L 299.725796 73.603794 
L 299.822746 14.478955 
L 299.830408 -1 
M 299.858718 -1 
L 300.005875 83.213835 
L 300.224911 104.087311 
L 300.400858 107.078217 
L 300.41163 107.068357 
L 300.469082 106.716447 
L 300.591168 104.282081 
L 300.734798 96.52111 
L 300.83893 76.232851 
L 300.899973 4.68237 
L 300.90096 -1 
M 300.915154 -1 
L 301.043604 86.570572 
L 301.090283 87.875012 
L 301.151326 86.625114 
L 301.31291 76.471553 
L 301.521174 48.875088 
L 301.648501 -1 
M 301.731035 -1 
L 301.908976 58.125755 
L 302.203418 87.303259 
L 302.584039 104.64729 
L 303.01852 115.130766 
L 303.474547 121.252552 
L 303.909028 124.438759 
L 304.232196 125.484491 
L 304.372236 125.532554 
L 304.39019 125.516465 
L 304.519457 125.216393 
L 304.691813 124.133744 
L 304.885714 121.26844 
L 305.079615 114.573741 
L 305.255562 99.795637 
L 305.399193 66.191616 
L 305.467373 -1 
M 305.491397 -1 
L 305.629001 87.334534 
L 305.8624 114.18081 
L 306.14248 124.141446 
L 306.458466 128.31223 
L 306.80677 130.275647 
L 307.173027 131.213435 
L 307.514149 131.556289 
L 307.787047 131.552251 
L 308.0384 131.312659 
L 308.304116 130.719765 
L 308.573422 129.51957 
L 308.831957 127.234113 
L 309.068947 122.928502 
L 309.284393 114.430983 
L 309.474703 96.774979 
L 309.618333 59.429299 
L 309.676117 -1 
M 309.701866 -1 
L 309.844551 86.47855 
L 310.085131 113.937845 
L 310.368801 124.358904 
L 310.684788 128.712489 
L 311.029501 130.697818 
L 311.399349 131.648037 
L 311.787151 132.08341 
L 312.207269 132.234309 
L 312.699203 132.169064 
L 313.295269 131.854996 
L 313.970331 131.238039 
L 314.666938 130.289726 
L 315.345591 128.977065 
L 315.995519 127.215858 
L 316.613129 124.872324 
L 317.202013 121.723089 
L 317.762171 117.454174 
L 318.293604 111.594795 
L 318.789128 103.527737 
L 319.237973 92.404975 
L 319.625775 76.964006 
L 319.930989 55.414289 
L 320.139253 24.025162 
L 320.211181 -1 
M 320.364686 -1 
L 320.566553 46.570428 
L 320.889721 73.642187 
L 321.313431 91.604613 
L 321.816137 104.043761 
L 322.372704 112.636427 
L 322.965179 118.552314 
L 323.58638 122.650924 
L 324.229126 125.489574 
L 324.886235 127.440471 
L 325.543343 128.73481 
L 326.168135 129.507749 
L 326.717521 129.862053 
L 327.166366 129.907023 
L 327.546986 129.722797 
L 327.89888 129.288389 
L 328.236412 128.491217 
L 328.563171 127.095829 
L 328.825296 124.972051 
L 328.882748 122.703459 
L 328.904293 106.947433 
L 328.911474 13.270453 
L 328.976108 123.178964 
L 329.012015 122.941527 
L 329.209507 119.68326 
L 329.471632 111.693146 
L 329.708622 96.825407 
L 329.898932 69.220486 
L 330.010246 18.504657 
L 330.024821 -1 
M 330.064753 -1 
L 330.21851 75.228048 
L 330.477044 104.253682 
L 330.793031 117.615596 
L 331.141335 123.916106 
L 331.514773 127.042587 
L 331.909757 128.649166 
L 332.308331 129.431601 
L 332.688951 129.740026 
L 333.048027 129.761724 
L 333.410693 129.55427 
L 333.787723 129.06524 
L 334.15039 128.204769 
L 334.469967 126.833966 
L 334.742865 124.587934 
L 334.969082 120.69185 
L 335.162983 112.941966 
L 335.324567 96.189537 
L 335.446653 56.356008 
L 335.488482 -1 
M 335.509402 -1 
L 335.644145 90.513353 
L 335.863181 113.476942 
L 336.103762 119.55452 
L 336.322798 120.790224 
L 336.405385 120.810403 
L 336.441293 120.768334 
L 336.592105 120.321775 
L 336.85423 118.721341 
L 337.209715 115.044853 
L 337.593926 108.59189 
L 337.956593 98.488192 
L 338.272579 83.072313 
L 338.523932 59.015949 
L 338.685516 20.64922 
L 338.722857 -1 
M 338.811823 -1 
L 338.994322 56.489997 
L 339.281582 83.193493 
L 339.579615 93.683435 
L 339.719655 94.837952 
L 339.755562 94.751614 
L 339.848922 93.744211 
L 340.006915 89.101285 
L 340.207998 75.677822 
L 340.391126 47.190764 
L 340.492931 -1 
M 340.56287 -1 
L 340.732248 61.187308 
L 341.012327 89.644767 
L 341.371403 105.404248 
L 341.787931 114.670021 
L 342.251139 120.387657 
L 342.757436 124.074201 
L 343.306822 126.533662 
L 343.892115 128.190597 
L 344.516907 129.324773 
L 345.184788 130.094868 
L 345.90653 130.596521 
L 346.692906 130.875092 
L 347.540325 130.939626 
L 348.41647 130.782834 
L 349.263889 130.405378 
L 350.046674 129.811569 
L 350.750462 128.994269 
L 351.378845 127.91571 
L 351.935412 126.505306 
L 352.423755 124.634252 
L 352.840283 122.110526 
L 353.192178 118.511281 
L 353.48662 112.990478 
L 353.734382 103.653302 
L 353.939055 86.499671 
L 354.093458 52.184497 
L 354.160232 -1 
M 354.198452 -1 
L 354.351992 75.754715 
L 354.592573 99.95841 
L 354.843926 107.005128 
L 355.041418 108.094639 
L 355.113233 107.975516 
L 355.260454 107.132399 
L 355.518989 104.131341 
L 355.874474 97.169009 
L 356.229959 85.635872 
L 356.423859 72.39186 
L 356.492084 49.434328 
L 356.517607 -1 
M 356.531578 -1 
L 356.624942 62.743381 
L 356.650077 62.129246 
L 356.775754 51.910374 
L 356.962473 19.430851 
L 357.016109 -1 
M 357.153937 -1 
L 357.361047 48.159288 
L 357.684215 75.111625 
L 358.104334 92.68233 
L 358.596268 104.499403 
L 359.120518 112.133698 
L 359.598089 116.246361 
L 359.881759 117.262867 
L 359.953574 117.230519 
L 359.971528 117.194779 
L 360.082842 116.636428 
L 360.222881 114.566608 
L 360.370102 108.463167 
L 360.50296 92.25002 
L 360.603501 49.369241 
L 360.631923 -1 
M 360.650022 -1 
L 360.779449 90.295507 
L 360.811765 92.901897 
L 360.851264 86.636644 
L 360.894353 26.735954 
L 360.898115 -1 
M 360.905247 -1 
L 361.030802 108.924839 
L 361.231884 119.425421 
L 361.511963 123.512703 
L 361.87463 125.762304 
L 362.341428 127.314139 
L 362.923131 128.497424 
L 363.619738 129.420141 
L 364.431249 130.129757 
L 365.375618 130.659948 
L 366.477981 131.021273 
L 367.727565 131.195434 
L 369.009465 131.153167 
L 370.136963 130.901235 
L 371.031062 130.480549 
L 371.73485 129.905552 
L 372.309371 129.144141 
L 372.801305 128.10775 
L 373.235787 126.643649 
L 373.62718 124.487636 
L 373.982665 121.185352 
L 374.305833 115.939756 
L 374.600275 107.236076 
L 374.8624 92.273885 
L 375.070664 66.721803 
L 375.203522 19.903349 
L 375.224749 -1 
M 375.277804 -1 
L 375.436921 67.666663 
L 375.706228 96.970484 
L 376.036578 111.301754 
L 376.388472 118.019619 
L 376.722413 120.751261 
L 376.955812 121.310861 
L 377.056353 121.21034 
L 377.192802 120.639927 
L 377.361568 118.811555 
L 377.530333 114.150129 
L 377.681145 102.572984 
L 377.803231 72.505509 
L 377.865628 -1 
M 377.883497 -1 
L 378.018676 94.550865 
L 378.22694 113.607166 
L 378.449567 117.703987 
L 378.596788 118.1434 
L 378.621924 118.12957 
L 378.726055 117.872234 
L 378.927138 116.652158 
L 379.232352 113.248494 
L 379.580656 106.651871 
L 379.918187 95.736615 
L 380.21622 78.374758 
L 380.442438 51.472846 
L 380.582477 5.240422 
L 380.590826 -1 
M 380.678155 -1 
L 380.858966 56.942363 
L 381.153408 85.542973 
L 381.530437 102.335246 
L 381.954147 112.134334 
L 382.377856 117.328948 
L 382.711797 119.190354 
L 382.833882 119.327887 
L 382.86979 119.295803 
L 382.977513 118.947356 
L 383.128324 117.554272 
L 383.300681 113.528585 
L 383.469446 103.515987 
L 383.616667 79.733414 
L 383.713618 21.478396 
L 383.72404 -1 
M 383.747887 -1 
L 383.885974 87.221621 
L 384.115783 112.167948 
L 384.38868 120.787484 
L 384.693895 124.253396 
L 384.999109 125.586897 
L 385.164284 125.738094 
L 385.185829 125.72348 
L 385.297142 125.473419 
L 385.437182 124.488156 
L 385.580812 121.574202 
L 385.710079 113.378866 
L 385.817802 88.960081 
L 385.882436 10.518536 
L 385.884222 -1 
M 385.89565 -1 
L 386.018884 105.870382 
L 386.212785 122.600303 
L 386.446185 126.63407 
L 386.726264 128.072425 
L 387.063795 128.738076 
L 387.483913 129.089922 
L 388.011755 129.240579 
L 388.632956 129.185693 
L 389.261339 128.90743 
L 389.832269 128.409645 
L 390.342157 127.661655 
L 390.805364 126.565238 
L 391.229074 124.950473 
L 391.620466 122.510455 
L 391.979542 118.761992 
L 392.313483 112.744688 
L 392.618697 102.877997 
L 392.888004 86.310948 
L 393.096268 58.724689 
L 393.221944 9.150567 
L 393.232099 -1 
M 393.293679 -1 
L 393.455344 63.735819 
L 393.731832 93.419598 
L 394.080135 109.062751 
L 394.464346 117.277655 
L 394.873693 121.705418 
L 395.300993 124.12147 
L 395.728293 125.383975 
L 396.130458 125.956791 
L 396.485943 126.118748 
L 396.816293 126.029242 
L 397.171778 125.682579 
L 397.56317 124.964641 
L 397.979698 123.698905 
L 398.396226 121.671306 
L 398.801982 118.510668 
L 399.189784 113.601883 
L 399.55245 105.966548 
L 399.8828 93.981549 
L 400.16647 74.923681 
L 400.374734 44.578619 
L 400.482745 -1 
M 400.565209 -1 
L 400.748172 58.717355 
L 400.985162 79.135742 
L 400.992344 79.083925 
L 401.031842 76.505215 
L 401.089294 52.675524 
L 401.114817 -1 
M 401.128492 -1 
L 401.250878 88.456058 
L 401.466324 102.839933 
L 401.8254 112.307462 
L 402.263472 118.454929 
L 402.744634 122.293146 
L 403.258112 124.716097 
L 403.807498 126.296858 
L 404.396382 127.347657 
L 405.039128 128.054234 
L 405.742916 128.50351 
L 406.489794 128.722007 
L 407.197173 128.705828 
L 407.778876 128.47814 
L 408.245674 128.055081 
L 408.637067 127.386632 
L 408.98178 126.329102 
L 409.294176 124.591035 
L 409.577846 121.626628 
L 409.83638 116.298239 
L 410.066189 106.437781 
L 410.26368 87.246583 
L 410.396538 50.988985 
L 410.442738 -1 
M 410.46812 -1 
L 410.493489 27.764751 
L 410.522137 -1 
M 410.547334 -1 
L 410.680208 79.09329 
L 410.920789 105.390698 
L 410.992604 107.590473 
L 411.035693 105.905852 
L 411.085964 88.185463 
L 411.114292 -1 
M 411.119172 -1 
L 411.240366 114.456347 
L 411.441449 121.294096 
L 411.753845 124.82546 
L 412.127284 126.74999 
L 412.547402 127.833684 
L 413.024973 128.481045 
L 413.603085 128.891561 
L 414.364326 129.147888 
L 415.437962 129.260267 
L 416.838358 129.178833 
L 418.012535 128.906354 
L 418.694779 128.537198 
L 419.111307 128.061039 
L 419.40934 127.358411 
L 419.64633 126.16055 
L 419.843822 123.834152 
L 420.008997 118.801745 
L 420.149036 106.386094 
L 420.26035 72.491034 
L 420.308658 -1 
M 420.322814 -1 
L 420.454251 101.419666 
L 420.658924 120.137731 
L 420.895914 124.781131 
L 421.154448 126.151394 
L 421.39862 126.482721 
L 421.610475 126.445478 
L 421.865418 126.138955 
L 422.181405 125.373757 
L 422.508164 123.947593 
L 422.816969 121.502976 
L 423.097048 117.338887 
L 423.351992 109.879779 
L 423.57821 96.056376 
L 423.764929 69.367365 
L 423.876243 19.372423 
L 423.891585 -1 
M 423.93148 -1 
L 424.084507 74.987771 
L 424.33945 103.060609 
L 424.644665 115.154464 
L 424.975015 120.463385 
L 425.319727 122.848022 
L 425.653668 123.815703 
L 425.930156 124.061709 
L 426.156374 123.991065 
L 426.414908 123.639386 
L 426.727304 122.796468 
L 427.072017 121.165279 
L 427.41673 118.366799 
L 427.747079 113.711008 
L 428.055885 105.939599 
L 428.335964 92.789364 
L 428.569363 70.516977 
L 428.727356 32.876974 
L 428.777604 -1 
M 428.840498 -1 
L 429.007435 64.02173 
L 429.283924 92.907582 
L 429.628637 108.031214 
L 430.012848 116.046721 
L 430.425785 120.409419 
L 430.863857 122.862429 
L 431.316293 124.238433 
L 431.765137 124.959845 
L 432.174484 125.242401 
L 432.522787 125.232294 
L 432.831592 124.99403 
L 433.129625 124.458096 
L 433.416886 123.433429 
L 433.682602 121.5697 
L 433.923183 118.130158 
L 434.138628 111.490967 
L 434.328938 97.94074 
L 434.483341 69.340164 
L 434.57311 4.477747 
L 434.575421 -1 
M 434.604494 -1 
L 434.745466 81.96326 
L 434.982456 108.354839 
L 435.258945 117.812711 
L 435.553387 121.336686 
L 435.829875 122.456236 
L 435.980687 122.53843 
L 435.998641 122.524658 
L 436.127908 122.255256 
L 436.296674 121.284022 
L 436.472621 118.742734 
L 436.630614 112.690091 
L 436.767063 97.278631 
L 436.871195 54.806112 
L 436.901702 -1 
M 436.917847 -1 
L 437.043551 95.372836 
L 437.248224 115.400197 
L 437.481624 120.209553 
L 437.711432 121.315419 
L 437.851472 121.377876 
L 437.869425 121.364909 
L 438.027419 121.08551 
L 438.275181 120.118354 
L 438.587577 117.904633 
L 438.910745 113.867832 
L 439.21955 106.931064 
L 439.499629 95.190047 
L 439.74021 74.942717 
L 439.912567 39.988688 
L 439.980493 -1 
M 440.042893 -1 
L 440.210599 64.341067 
L 440.487088 92.943535 
L 440.82821 107.543087 
L 441.205239 115.05423 
L 441.603813 118.959797 
L 442.009569 120.970504 
L 442.404552 121.92796 
L 442.749265 122.258053 
L 443.036526 122.255863 
L 443.327377 122.01667 
L 443.664908 121.418933 
L 444.034756 120.271554 
L 444.415377 118.309831 
L 444.788815 115.123389 
L 445.1443 110.020877 
L 445.47465 101.834034 
L 445.772683 88.499881 
L 446.016855 66.696599 
L 446.167666 31.809485 
L 446.210537 -1 
M 446.26056 -1 
L 446.27898 8.51332 
L 446.302553 -1 
M 446.368713 -1 
L 446.530333 59.174692 
L 446.810412 87.434216 
L 447.169488 103.209879 
L 447.575243 112.08779 
L 448.009725 117.13532 
L 448.472933 120.131957 
L 448.968457 121.977928 
L 449.492708 123.12651 
L 450.056457 123.851678 
L 450.674067 124.293405 
L 451.370674 124.519572 
L 452.167823 124.541834 
L 453.036786 124.341753 
L 453.898568 123.914788 
L 454.681353 123.278913 
L 455.374369 122.425032 
L 455.984798 121.308581 
L 456.523412 119.839758 
L 456.993801 117.880196 
L 457.388784 115.242179 
L 457.697589 111.614816 
L 457.923807 106.088332 
L 458.085391 95.844109 
L 458.203886 71.561985 
L 458.272111 8.800198 
L 458.275203 -1 
M 458.295255 -1 
L 458.430104 86.806718 
L 458.606051 97.01651 
L 458.634777 97.112825 
L 458.685048 96.828016 
L 458.817906 94.200754 
L 459.058487 84.438671 
L 459.30984 64.658416 
L 459.492968 31.586687 
L 459.562359 -1 
M 459.654405 -1 
L 459.83409 55.05373 
L 460.124942 82.441654 
L 460.476836 96.659309 
L 460.832321 103.174535 
L 461.141126 105.479953 
L 461.352981 105.847609 
L 461.467885 105.705682 
L 461.651014 105.022861 
L 461.92032 103.017953 
L 462.261442 98.609289 
L 462.634881 90.63109 
L 462.843145 82.389842 
L 462.850327 59.783863 
L 462.86469 83.006687 
L 462.954459 79.622442 
L 463.266855 61.284522 
L 463.500254 33.754646 
L 463.622067 -1 
M 463.768298 -1 
L 463.974234 46.391803 
L 464.297402 72.91941 
L 464.710339 89.733583 
L 465.18791 100.694264 
L 465.701388 107.709049 
L 466.218457 111.986191 
L 466.670893 114.118907 
L 466.954563 114.641588 
L 467.08383 114.574788 
L 467.22746 114.149416 
L 467.403407 112.790521 
L 467.586536 109.396892 
L 467.762483 101.462666 
L 467.920477 82.901543 
L 468.035381 40.683807 
L 468.067287 -1 
M 468.095817 -1 
L 468.236463 81.765817 
L 468.466272 106.007578 
L 468.739169 114.487543 
L 469.055156 118.098474 
L 469.425004 119.97135 
L 469.863076 121.105045 
L 470.387327 121.864392 
L 471.01571 122.388634 
L 471.766178 122.724315 
L 472.624369 122.863108 
L 473.518468 122.784385 
L 474.355114 122.491428 
L 475.087629 122.001263 
L 475.723193 121.30429 
L 476.27976 120.353658 
L 476.778876 119.0384 
L 477.22772 117.188304 
L 477.629885 114.522614 
L 477.988961 110.537278 
L 478.304948 104.354526 
L 478.581436 94.170138 
L 478.814835 76.415121 
L 478.987192 44.508789 
L 479.066393 -1 
M 479.126637 -1 
L 479.288815 63.670406 
L 479.540168 87.68325 
L 479.777158 93.868899 
L 479.845383 94.121678 
L 479.899244 93.948014 
L 480.017739 92.512128 
L 480.218822 86.876229 
L 480.466584 73.060731 
L 480.68562 47.628822 
L 480.82566 3.215015 
L 480.831857 -1 
M 480.930607 -1 
L 481.120102 54.620554 
L 481.418135 81.788191 
L 481.507904 86.07495 
L 481.522267 84.074254 
L 481.533039 23.896463 
L 481.622808 91.644184 
L 482.017791 103.130574 
L 482.466636 110.237699 
L 482.947797 114.578782 
L 483.461276 117.325924 
L 484.007071 119.108801 
L 484.585183 120.281102 
L 485.199203 121.046654 
L 485.831176 121.494344 
L 486.409288 121.648223 
L 486.84377 121.550414 
L 487.163347 121.247838 
L 487.421882 120.670947 
L 487.648099 119.552055 
L 487.845591 117.271112 
L 488.014357 112.319331 
L 488.157987 100.520044 
L 488.276482 68.537245 
L 488.331364 -1 
M 488.349273 -1 
L 488.484746 94.267253 
L 488.69301 113.242872 
L 488.922818 117.78083 
L 489.034132 118.22804 
L 489.077221 118.150391 
L 489.163399 117.360881 
L 489.26394 113.991983 
L 489.353709 101.988839 
L 489.421934 56.042556 
L 489.43742 -1 
M 489.446145 -1 
L 489.565564 109.14553 
L 489.745102 118.821979 
L 489.964138 120.706543 
L 490.229854 121.309796 
L 490.553022 121.523539 
L 490.998276 121.535612 
L 491.63025 121.315403 
L 492.362764 120.820715 
L 493.066553 120.074559 
L 493.709298 119.060595 
L 494.298183 117.697858 
L 494.840387 115.855783 
L 495.346684 113.307455 
L 495.824255 109.688706 
L 496.273099 104.465962 
L 496.689627 96.856371 
L 497.070247 85.5756 
L 497.397006 68.927959 
L 497.65195 43.748463 
L 497.813534 3.733271 
L 497.823121 -1 
M 497.957889 -1 
L 498.161838 48.224347 
L 498.388056 66.976752 
L 498.4096 66.097419 
L 498.441917 51.326317 
L 498.457109 -1 
M 498.465493 -1 
L 498.581956 78.579494 
L 498.879989 91.038483 
L 499.332425 101.512426 
L 499.827949 108.203445 
L 500.3522 112.482889 
L 500.901586 115.262414 
L 501.472516 117.075323 
L 502.039856 118.191405 
L 502.546153 118.746059 
L 502.908819 118.857938 
L 503.156582 118.71403 
L 503.375618 118.302694 
L 503.587473 117.3669 
L 503.781374 115.379354 
L 503.957321 110.91889 
L 504.111723 100.219685 
L 504.2374 73.451403 
L 504.309215 7.886372 
L 504.311976 -1 
M 504.332348 -1 
L 504.467208 90.297366 
L 504.682654 110.89279 
L 504.930416 116.620301 
L 505.217677 118.731164 
L 505.544436 119.646076 
L 505.921465 120.082797 
L 506.37031 120.267049 
L 506.908924 120.244288 
L 507.469082 119.999271 
L 507.968197 119.538193 
L 508.395497 118.830618 
L 508.765345 117.762878 
L 509.092104 116.084738 
L 509.382956 113.307603 
L 509.64149 108.463067 
L 509.871299 99.497826 
L 510.072381 81.820832 
L 510.223193 46.592702 
L 510.283677 -1 
M 510.326326 -1 
L 510.478137 72.252845 
L 510.72949 98.711588 
L 511.020341 108.913406 
L 511.325555 112.862295 
L 511.616407 114.208497 
L 511.828262 114.419391 
L 511.979073 114.278682 
L 512.187337 113.706103 
L 512.445872 112.256094 
L 512.704406 109.410069 
L 512.927033 104.251917 
L 513.110162 94.095666 
L 513.253792 71.781294 
L 513.347152 16.339821 
L 513.355965 -1 
M 513.384452 -1 
L 513.52669 79.95884 
L 513.724182 94.989553 
L 513.806769 95.793039 
L 513.86063 95.531042 
L 513.986307 93.211726 
L 514.201752 84.512347 
L 514.435152 65.525715 
L 514.611099 31.944124 
L 514.676226 -1 
M 514.761124 -1 
L 514.937858 56.802072 
L 515.225118 84.212259 
L 515.569831 98.074334 
L 515.921725 104.418195 
L 516.212577 106.419042 
L 516.331072 106.563938 
L 516.366979 106.531797 
L 516.481884 106.178532 
L 516.661421 104.765665 
L 516.89123 100.91239 
L 517.135401 92.657044 
L 517.368801 76.404528 
L 517.551929 46.934782 
L 517.649549 -1 
M 517.717246 -1 
L 517.889461 62.457044 
L 518.165949 89.659032 
L 518.50348 103.133768 
L 518.88051 110.08269 
L 519.289856 113.878566 
L 519.738701 116.12275 
L 520.230635 117.516105 
L 520.769248 118.407532 
L 521.372495 118.989897 
L 522.065512 119.352084 
L 522.848297 119.511023 
L 523.631082 119.449348 
L 524.270237 119.18547 
L 524.751398 118.748799 
L 525.132019 118.090503 
L 525.451596 117.05792 
L 525.728085 115.339252 
L 525.972256 112.249393 
L 526.187702 106.292269 
L 526.374421 94.182179 
L 526.528824 68.074091 
L 526.622183 11.636466 
L 526.6291 -1 
M 526.661584 -1 
L 526.801721 77.739481 
L 527.03512 102.891584 
L 527.304427 111.522452 
L 527.598869 114.776136 
L 527.900493 115.985021 
L 528.166209 116.29817 
L 528.378064 116.246306 
L 528.622235 115.916986 
L 528.923859 115.090975 
L 529.247027 113.501155 
L 529.563014 110.726695 
L 529.853865 106.027354 
L 530.11599 97.858807 
L 530.345799 83.000068 
L 530.525337 55.519625 
L 530.629469 3.685375 
L 530.633262 -1 
M 530.687211 -1 
L 530.852096 66.540517 
L 531.045997 80.939722 
L 531.053178 80.924638 
L 531.096267 79.948936 
L 531.189627 71.441246 
L 531.300941 38.19378 
L 531.341359 -1 
M 531.381 -1 
L 531.53434 73.521729 
L 531.778511 97.198046 
L 532.076544 106.951441 
L 532.414075 111.505428 
L 532.780333 113.746441 
L 533.142999 114.754472 
L 533.462577 115.086055 
L 533.728293 115.075436 
L 534.004781 114.817977 
L 534.327949 114.179448 
L 534.687025 112.932373 
L 535.053282 110.791465 
L 535.408767 107.292427 
L 535.746299 101.578881 
L 536.058694 92.175156 
L 536.335183 76.569302 
L 536.554219 50.62221 
L 536.690668 5.668085 
L 536.699691 -1 
M 536.787393 -1 
L 536.963565 55.77805 
L 537.247235 82.551333 
L 537.523724 91.860216 
L 537.559631 92.013944 
L 537.606311 91.649734 
L 537.692489 88.453873 
L 537.800212 74.710441 
L 537.893572 29.641004 
L 537.911886 -1 
M 537.938627 -1 
L 538.080291 81.696864 
L 538.299327 101.177372 
L 538.579406 108.453842 
L 538.931301 112.235053 
L 539.351419 114.50522 
L 539.82899 115.941094 
L 540.367604 116.887641 
L 540.978032 117.522764 
L 541.699775 117.953363 
L 542.593873 118.221472 
L 543.685464 118.311901 
L 544.787826 118.187942 
L 545.602928 117.887345 
L 546.152314 117.454398 
L 546.550888 116.849663 
L 546.866875 115.934929 
L 547.12541 114.43788 
L 547.337264 111.767752 
L 547.509621 106.457262 
L 547.64966 94.246711 
L 547.757383 62.006194 
L 547.804032 -1 
M 547.822573 -1 
L 547.958465 89.890409 
L 548.102096 98.798249 
L 548.12364 98.653887 
L 548.199046 96.020666 
L 548.324723 82.631559 
L 548.439627 44.502997 
L 548.47757 -1 
M 548.506712 -1 
L 548.647891 80.80302 
L 548.874109 103.377858 
L 549.129052 110.253727 
L 549.376815 112.158263 
L 549.484537 112.296353 
L 549.527627 112.25616 
L 549.646122 111.854254 
L 549.818478 110.320286 
L 550.008788 106.348814 
L 550.191917 97.120752 
L 550.34991 76.2874 
L 550.461224 27.217298 
L 550.480339 -1 
M 550.512029 -1 
L 550.658715 79.628172 
L 550.892114 102.999462 
L 551.161421 110.845697 
L 551.463045 113.922257 
L 551.789804 115.24107 
L 552.130926 115.798273 
L 552.468457 115.962547 
L 552.809579 115.881841 
L 553.175836 115.551371 
L 553.549275 114.895983 
L 553.911942 113.775247 
L 554.249473 111.947211 
L 554.561869 108.904432 
L 554.845539 103.75236 
L 555.104073 94.611561 
L 555.333882 77.689701 
L 555.509829 46.65858 
L 555.596236 -1 
M 555.656783 -1 
L 555.818634 63.83134 
L 556.08435 91.060295 
L 556.403928 103.594684 
L 556.755822 109.557868 
L 557.136442 112.581543 
L 557.545788 114.20553 
L 557.983861 115.104146 
L 558.45425 115.59226 
L 558.967729 115.81469 
L 559.531477 115.816504 
L 560.098817 115.596472 
L 560.605114 115.16043 
L 561.01087 114.513045 
L 561.316084 113.592487 
L 561.538711 112.151093 
L 561.700295 109.458132 
L 561.822381 103.11428 
L 561.919331 83.704365 
L 561.980374 19.997219 
L 561.984936 -1 
M 561.997363 -1 
L 562.120414 97.864158 
L 562.299952 107.930358 
L 562.447173 108.798952 
L 562.468717 108.785984 
L 562.562077 108.502247 
L 562.759569 107.043008 
L 563.046829 103.086674 
L 563.341271 95.687176 
L 563.614169 82.650828 
L 563.840387 60.313368 
L 563.994789 21.28372 
L 564.029815 -1 
M 564.109972 -1 
L 564.289231 58.76412 
L 564.572901 85.608929 
L 564.917614 99.28386 
L 565.298234 106.381553 
L 565.707581 110.223951 
L 566.149244 112.427565 
L 566.623224 113.735244 
L 567.133111 114.525163 
L 567.671725 114.971276 
L 568.188794 115.129908 
L 568.576596 115.035186 
L 568.853084 114.736658 
L 569.079302 114.131467 
L 569.273203 112.902287 
L 569.441969 110.182428 
L 569.585599 103.557239 
L 569.704094 85.512061 
L 569.783091 31.87066 
L 569.79404 -1 
M 569.808219 -1 
L 569.829771 38.690325 
L 569.847425 -1 
M 569.857594 -1 
L 569.976992 95.062399 
L 570.174483 109.695598 
L 570.411473 113.413701 
L 570.687962 114.691805 
L 571.01113 115.231593 
L 571.427658 115.497393 
L 572.063222 115.615582 
L 573.075815 115.561801 
L 573.750878 115.345896 
L 573.969914 115.050395 
L 574.099181 114.413645 
L 574.192541 112.485609 
L 574.260766 104.482826 
L 574.307445 59.555817 
L 574.315948 -1 
M 574.320941 -1 
L 574.436713 112.047682 
L 574.601887 114.70349 
L 574.80297 115.055605 
L 575.093821 115.097862 
L 575.718613 114.917802 
L 576.540897 114.461275 
L 577.187233 113.852841 
L 577.697121 113.062129 
L 578.128012 111.965284 
L 578.508632 110.344812 
L 578.849754 107.840897 
L 579.158559 103.791511 
L 579.442229 96.848804 
L 579.697173 84.574224 
L 579.912618 62.316995 
L 580.059839 21.468238 
L 580.090769 -1 
M 580.160808 -1 
L 580.336328 61.890084 
L 580.612816 88.17504 
L 580.939575 100.464449 
L 581.298651 106.476829 
L 581.686452 109.589216 
L 582.10298 111.287275 
L 582.548234 112.242133 
L 583.029396 112.778566 
L 583.557237 113.043411 
L 584.113805 113.078553 
L 584.569831 112.899139 
L 584.867864 112.544525 
L 585.072537 111.919338 
L 585.23053 110.59338 
L 585.352616 107.338824 
L 585.449566 97.497787 
L 585.524972 60.057569 
L 585.547914 -1 
M 585.558341 -1 
L 585.682966 101.592026 
L 585.862504 110.022328 
L 586.070768 111.38301 
L 586.268259 111.567247 
L 586.46216 111.440464 
L 586.74583 110.948084 
L 587.07618 109.895808 
L 587.388576 108.10543 
L 587.672245 105.074272 
L 587.927189 99.722288 
L 588.156998 89.628556 
L 588.354489 69.885445 
L 588.494529 31.743018 
L 588.535721 -1 
M 588.589982 -1 
L 588.749473 66.267432 
L 589.004417 91.570875 
L 589.298859 101.672853 
L 589.611255 105.758979 
L 589.894924 107.094301 
L 590.020601 107.194608 
L 590.052918 107.16734 
L 590.164231 106.858236 
L 590.304271 105.702501 
L 590.44431 102.357802 
L 590.562805 93.279821 
L 590.659756 65.395579 
L 590.70719 -1 
M 590.723952 -1 
L 590.850066 90.401982 
L 591.040376 103.682364 
L 591.24864 105.984141 
L 591.367135 106.160485 
L 591.403043 106.136144 
L 591.53231 105.824549 
L 591.744165 104.635114 
L 591.995518 101.837772 
L 592.236099 96.417467 
L 592.451544 85.881333 
L 592.634673 64.326536 
L 592.760349 18.94946 
L 592.780082 -1 
M 592.832458 -1 
L 592.993748 67.06746 
L 593.23792 89.708121 
L 593.503636 97.162412 
L 593.747807 99.072387 
L 593.85553 99.1905 
L 593.895029 99.154872 
L 594.027887 98.77145 
L 594.254104 97.3066 
L 594.570091 93.624083 
L 594.921985 86.719967 
L 595.266698 75.234447 
L 595.564731 57.396399 
L 595.790949 29.605158 
L 595.897712 -1 
M 596.05303 -1 
L 596.261338 44.961512 
L 596.580915 70.306445 
L 596.979489 85.631553 
L 597.428334 94.967926 
L 597.909496 100.677698 
L 598.419383 104.256942 
L 598.954406 106.542276 
L 599.518155 108.036323 
L 600.114221 109.019768 
L 600.749785 109.656289 
L 601.43562 110.035317 
L 602.171725 110.190503 
L 602.918603 110.123342 
L 603.600847 109.842261 
L 604.175368 109.36592 
L 604.652939 108.675193 
L 605.058694 107.680525 
L 605.414179 106.17492 
L 605.726575 103.787949 
L 606.003063 99.763669 
L 606.247235 92.577846 
L 606.46268 78.825046 
L 606.638628 51.269645 
L 606.739306 -1 
M 606.79798 -1 
L 606.961796 64.479982 
L 607.21674 88.57078 
L 607.500409 97.484274 
L 607.766126 100.185598 
L 607.870257 100.383216 
L 607.913347 100.330475 
L 608.017479 99.824448 
L 608.1647 97.776214 
L 608.315511 92.10855 
L 608.45196 76.979796 
L 608.556092 35.39164 
L 608.581687 -1 
M 608.610094 -1 
L 608.757175 79.879088 
L 608.965439 95.242634 
L 609.180884 98.244775 
L 609.285016 98.449225 
L 609.328105 98.409367 
L 609.453782 97.986159 
L 609.68359 96.290332 
L 609.999577 92.136441 
L 610.326336 84.706063 
L 610.617187 72.606246 
L 610.839814 53.324033 
L 610.990626 18.228988 
L 611.023944 -1 
M 611.114505 -1 
L 611.281477 43.012145 
L 611.310203 43.559911 
L 611.356883 41.980382 
L 611.461015 28.164843 
L 611.548222 -1 
M 611.677141 -1 
L 611.877543 47.954666 
L 612.182757 72.338409 
L 612.566969 86.533844 
L 613.00145 94.974011 
L 613.471839 100.10333 
L 613.974546 103.315405 
L 614.509568 105.383035 
L 615.080499 106.74658 
L 615.694519 107.659711 
L 616.369581 108.274352 
L 617.138003 108.674053 
L 618.039283 108.888639 
L 619.084194 108.905772 
L 620.190147 108.702639 
L 621.195559 108.297037 
L 622.021434 107.728935 
L 622.678542 107.009308 
L 623.192021 106.113799 
L 623.56905 105.001306 
L 623.838357 103.469791 
L 624.032258 100.921988 
L 624.179479 95.484938 
L 624.294383 81.094252 
L 624.376971 37.865292 
L 624.395754 -1 
M 624.414824 -1 
L 624.545736 86.366226 
L 624.732456 97.798334 
L 624.919175 99.225549 
L 624.980218 99.19283 
L 625.001762 99.149911 
L 625.156165 98.498119 
L 625.439835 96.177884 
L 625.79532 91.289312 
L 626.143623 83.212616 
L 626.45961 70.365427 
L 626.725326 49.799766 
L 626.912046 16.984054 
L 626.959668 -1 
M 627.103617 -1 
L 627.31062 46.544827 
L 627.619425 70.714556 
L 627.964138 82.40445 
L 628.229854 85.578027 
L 628.272943 85.636511 
L 628.323213 85.520436 
L 628.427345 84.556449 
L 628.585339 80.61008 
L 628.768467 69.586833 
L 628.937233 44.37137 
L 629.03728 -1 
M 629.112462 -1 
L 629.281946 58.049776 
L 629.544071 81.717535 
L 629.845695 91.462084 
L 630.115001 94.446605 
L 630.193998 94.594615 
L 630.240678 94.513282 
L 630.34481 93.78848 
L 630.492031 90.899192 
L 630.650024 82.807333 
L 630.790064 62.545745 
L 630.879833 14.156356 
L 630.889209 -1 
M 630.924446 -1 
L 631.005509 48.297021 
L 631.052189 36.52013 
L 631.086647 -1 
M 631.119941 -1 
L 631.260453 72.385246 
L 631.486671 92.037749 
L 631.76675 99.357847 
L 632.093509 102.65619 
L 632.474129 104.416169 
L 632.912202 105.455535 
L 633.422089 106.115132 
L 634.028927 106.539495 
L 634.772214 106.782812 
L 635.669904 106.837819 
L 636.639408 106.675997 
L 637.519144 106.309373 
L 638.240886 105.770784 
L 638.833361 105.048735 
L 639.339658 104.069568 
L 639.784912 102.700418 
L 640.183486 100.708312 
L 640.53538 97.73834 
L 640.837004 93.167068 
L 641.077585 85.87821 
L 641.257122 72.826479 
L 641.382799 44.686189 
L 641.438825 -1 
M 641.479345 -1 
L 641.62338 63.604538 
L 641.713149 67.556184 
L 641.763419 66.744656 
L 641.889096 59.277161 
L 642.068634 34.239713 
L 642.167883 -1 
M 642.283051 -1 
L 642.474389 50.229 
L 642.768831 75.244141 
L 643.124316 88.446276 
L 643.5193 95.578308 
L 643.939418 99.493372 
L 644.381082 101.703891 
L 644.819154 102.877052 
L 645.196184 103.34086 
L 645.454718 103.368072 
L 645.659391 103.154251 
L 645.871246 102.559637 
L 646.07951 101.227757 
L 646.273411 98.375518 
L 646.449358 91.988052 
L 646.603761 76.719826 
L 646.722256 39.157505 
L 646.759218 -1 
M 646.794095 -1 
L 646.944883 75.947239 
L 647.16751 95.181688 
L 647.426044 101.127361 
L 647.720486 103.39822 
L 648.054427 104.421727 
L 648.435047 104.926184 
L 648.865938 105.144646 
L 649.257331 105.113909 
L 649.515865 104.880682 
L 649.706175 104.380042 
L 649.860578 103.261887 
L 649.989845 100.34665 
L 650.093977 91.527419 
L 650.172974 61.305772 
L 650.205308 -1 
M 650.218449 -1 
L 650.34533 93.815242 
L 650.524868 102.699054 
L 650.743904 104.431641 
L 650.998848 104.919267 
L 651.304063 105.049261 
L 651.688274 104.965544 
L 652.040168 104.666599 
L 652.302293 104.134486 
L 652.510557 103.140075 
L 652.679323 101.097008 
L 652.819362 96.27693 
L 652.937857 82.702143 
L 653.027626 40.030374 
L 653.049121 -1 
M 653.068597 -1 
L 653.204341 87.103544 
L 653.398741 100.036606 
L 653.626266 102.924854 
L 653.880816 103.76766 
L 654.148442 103.993996 
L 654.450066 103.959499 
L 654.835377 103.673941 
L 655.253815 103.075141 
L 655.641742 102.1108 
L 655.986082 100.616036 
L 656.289449 98.219696 
L 656.552716 94.184958 
L 656.776755 86.924554 
L 656.961565 72.734919 
L 657.101916 42.34213 
L 657.162608 -1 
M 657.211809 -1 
L 657.36867 64.46401 
L 657.505534 72.342612 
L 657.536917 72.015586 
L 657.62322 67.8779 
L 657.764443 48.86284 
L 657.878641 0.254798 
L 657.879935 -1 
M 657.951794 -1 
L 658.123602 59.592654 
L 658.386869 83.147863 
L 658.698082 93.381045 
L 659.044165 98.203989 
L 659.425118 100.690223 
L 659.841812 102.059572 
L 659.846171 102.048941 
L 660.321272 102.878173 
L 660.846063 103.340122 
L 661.474592 103.595982 
L 662.198141 103.651667 
L 662.77698 103.491767 
L 663.130908 103.171253 
L 663.380228 102.621919 
L 663.579857 101.574322 
L 663.746361 99.329978 
L 663.88584 93.884352 
L 664.001782 78.77696 
L 664.088085 31.668425 
L 664.103916 -1 
M 664.124681 -1 
L 664.259819 85.207587 
L 664.455962 98.656463 
L 664.686974 101.765336 
L 664.955472 102.777367 
L 665.271044 103.176335 
L 665.692097 103.342764 
L 666.373802 103.348303 
L 667.280417 103.137449 
L 667.829617 102.805383 
L 668.144317 102.352797 
L 668.370099 101.5972 
L 668.549679 100.107112 
L 668.697876 96.676679 
L 668.81992 87.549315 
L 668.917555 59.657824 
L 668.963754 -1 
M 668.983172 -1 
L 669.118057 86.243936 
L 669.310713 98.407538 
L 669.536495 101.057406 
L 669.791916 101.833522 
L 670.063029 102.040024 
L 670.360294 101.990359 
L 670.680225 101.702332 
L 670.966158 101.127687 
L 671.205888 100.094 
L 671.407261 98.106799 
L 671.576379 93.883953 
L 671.719346 83.712548 
L 671.83616 56.243693 
L 671.895302 -1 
M 671.923463 -1 
L 672.0663 78.952949 
L 672.272904 94.473065 
L 672.501302 98.025932 
L 672.700931 98.601177 
L 672.795952 98.48086 
L 672.945892 97.825949 
L 673.136804 95.859331 
L 673.327716 91.275876 
L 673.500322 80.959923 
L 673.646775 56.692086 
L 673.73916 -1 
M 673.782399 -1 
L 673.936195 70.174285 
L 674.16372 89.771146 
L 674.290995 92.541149 
L 674.331095 91.950898 
L 674.385144 86.166938 
L 674.431346 48.313201 
L 674.441997 -1 
M 674.448834 -1 
L 674.569954 95.05087 
L 674.750405 98.790524 
L 675.018031 100.123129 
L 675.356268 100.778412 
L 675.76163 101.10032 
L 676.288164 101.225983 
L 676.796392 101.194363 
L 676.797264 101.086595 
L 676.800751 101.198682 
L 676.907104 101.180954 
L 677.743979 100.912131 
L 678.443119 100.46336 
L 678.960936 99.867128 
L 679.368041 99.044589 
L 679.708894 97.8192 
L 680.006159 95.844323 
L 680.269426 92.43843 
L 680.503926 86.170745 
L 680.712273 73.86659 
L 680.88575 48.737874 
L 680.992691 -1 
M 681.060406 -1 
L 681.23009 60.821471 
L 681.485511 83.303005 
L 681.778418 92.046996 
L 682.09922 95.758685 
L 682.445303 97.459124 
L 682.806206 98.235859 
L 683.166237 98.535901 
L 683.522781 98.557764 
L 683.895016 98.350336 
L 684.277713 97.867528 
L 684.646461 97.019903 
L 684.987313 95.634419 
L 685.296783 93.363054 
L 685.576613 89.495114 
L 685.827676 82.604823 
L 686.050843 69.607175 
L 686.23391 44.329173 
L 686.343085 -1 
M 686.424983 -1 
L 686.602658 56.334979 
L 686.833671 73.201036 
L 686.869412 73.529468 
L 686.919973 72.761081 
L 687.00802 66.354594 
L 687.111757 39.557396 
L 687.158319 -1 
M 687.200135 -1 
L 687.352359 68.704531 
L 687.576398 85.98645 
L 687.844895 91.834179 
L 688.125597 93.897162 
L 688.272051 94.138055 
L 688.303434 94.114207 
L 688.402813 93.813047 
L 688.538805 92.545976 
L 688.681771 88.761824 
L 688.811661 78.289876 
L 688.918886 48.005577 
L 688.963901 -1 
M 688.993042 -1 
L 689.136822 77.191639 
L 689.342554 91.786578 
L 689.5849 95.644988 
L 689.870832 97.074132 
L 690.207326 97.721826 
L 690.617918 98.04686 
L 691.168861 98.189445 
L 691.939484 98.147024 
L 692.827793 97.87771 
L 693.252333 97.640405 
L 693.253205 97.566451 
L 693.256692 97.644453 
L 693.363917 97.571961 
L 693.877375 97.061468 
L 694.233047 96.385192 
L 694.501545 95.356596 
L 694.715994 93.5446 
L 694.891215 89.884413 
L 695.036796 81.345159 
L 695.156226 58.662563 
L 695.229829 -1 
M 695.261184 -1 
L 695.405545 75.123878 
L 695.609533 89.341519 
L 695.831828 92.370031 
L 696.000947 92.748984 
L 696.015767 92.743616 
L 696.124735 92.559611 
L 696.310417 91.71466 
L 696.552762 89.455188 
L 696.800338 84.829447 
L 697.028735 75.900421 
L 697.230108 58.177633 
L 697.381792 22.722791 
L 697.42178 -1 
M 697.505035 -1 
L 697.683416 56.291718 
L 697.945811 78.17787 
L 698.243077 86.869066 
L 698.55429 90.333145 
L 698.841094 91.4755 
L 699.034622 91.598012 
L 699.180203 91.397498 
L 699.381576 90.668183 
L 699.62305 88.850624 
L 699.870626 85.099874 
L 700.104253 77.764916 
L 700.314344 63.278189 
L 700.484335 34.193726 
L 700.559306 -1 
M 700.646008 -1 
L 700.826059 55.387023 
L 701.090198 77.15728 
L 701.389206 85.869552 
L 701.70042 89.341207 
L 701.98025 90.434221 
L 702.140651 90.515232 
L 702.153727 90.506042 
L 702.294078 90.252398 
L 702.490221 89.353115 
L 702.71949 87.122804 
L 702.950503 82.433647 
L 703.165824 72.958164 
L 703.354993 53.474053 
L 703.491857 13.375692 
L 703.512322 -1 
M 703.593726 -1 
L 703.769944 56.315635 
L 704.025365 77.141412 
L 704.279915 83.349854 
L 704.347039 83.635988 
L 704.399344 83.420532 
L 704.493492 81.6795 
L 704.613793 74.533785 
L 704.728864 51.871678 
L 704.797268 -1 
M 704.83449 -1 
L 704.983413 70.953876 
L 705.196991 86.31076 
L 705.451541 90.871 
L 705.754037 92.733157 
L 706.106222 93.637014 
L 706.514199 94.108107 
L 707.006735 94.339763 
L 707.643109 94.383982 
L 708.460807 94.209474 
L 709.234045 93.849019 
L 709.234917 88.253007 
L 709.238404 93.858176 
L 709.344757 93.796415 
L 710.138917 93.18412 
L 710.796213 92.395164 
L 711.346284 91.377836 
L 711.817027 90.01799 
L 712.221517 88.131493 
L 712.563241 85.405879 
L 712.838713 81.280501 
L 713.05229 74.372066 
L 713.215307 60.793236 
L 713.335608 28.927433 
L 713.373424 -1 
M 713.428473 -1 
L 713.585799 58.506545 
L 713.761891 65.937906 
L 713.763635 65.937587 
L 713.794146 65.795867 
L 713.889166 64.002642 
L 714.081822 55.47034 
L 714.306732 34.854834 
L 714.467005 -1 
M 714.645289 -1 
L 714.86465 41.932644 
L 715.147967 60.243836 
L 715.208989 61.129138 
L 715.257807 60.263769 
L 715.331033 53.045405 
L 715.407747 18.454224 
L 715.422201 -1 
M 715.460363 -1 
L 715.606505 64.239864 
L 715.820954 76.69127 
L 716.114733 81.990933 
L 716.432048 84.300531 
L 716.609884 84.631998 
L 716.630806 84.620519 
L 716.72757 84.39464 
L 716.868793 83.372203 
L 717.032681 80.280059 
L 717.193954 72.301901 
L 717.337792 52.147905 
L 717.438042 2.019773 
L 717.44049 -1 
M 717.495357 -1 
L 717.655107 63.044117 
L 717.884376 80.7125 
L 718.15113 86.519959 
L 718.4606 88.942191 
L 718.818887 90.146135 
L 719.236454 90.81748 
L 719.735964 91.209479 
L 720.365364 91.415796 
L 721.123783 91.429968 
L 721.520427 91.259324 
L 721.659906 90.936086 
L 721.748824 89.999476 
L 721.810718 86.136287 
L 721.852562 62.540939 
L 721.867101 -1 
M 721.872322 -1 
L 721.989426 89.930185 
L 722.149827 91.047737 
L 722.354688 91.172653 
L 722.787073 91.100115 
L 723.679741 90.713898 
L 724.507899 90.124846 
L 725.156478 89.391158 
L 725.683884 88.44969 
L 726.134576 87.167416 
L 726.532964 85.318478 
L 726.892123 82.51119 
L 727.219028 78.045249 
L 727.517165 70.630318 
L 727.785662 57.838369 
L 728.009701 35.51491 
L 728.1558 -1 
M 728.313664 -1 
L 728.524903 43.977084 
L 728.769863 60.958008 
L 728.783811 60.688426 
L 728.816066 54.33175 
L 728.841471 -1 
M 728.850027 -1 
L 728.968621 69.806999 
L 729.231888 77.106387 
L 729.591919 81.695821 
L 729.913593 83.445412 
L 730.039996 83.592849 
L 730.07661 83.55904 
L 730.178604 83.206627 
L 730.311109 81.783142 
L 730.44623 77.493288 
L 730.568274 65.039534 
L 730.665038 27.516183 
L 730.687952 -1 
M 730.724251 -1 
L 730.87077 69.472469 
L 731.07563 82.345216 
L 731.319719 85.785993 
L 731.611754 87.114271 
L 731.961324 87.752128 
L 732.390223 88.087071 
L 732.942038 88.230671 
L 733.605436 88.172959 
L 734.10669 87.926246 
L 734.387392 87.541434 
L 734.577432 86.856778 
L 734.723885 85.349971 
L 734.839828 81.349794 
L 734.931361 68.453314 
L 734.997614 19.159318 
L 735.005125 -1 
M 735.024522 -1 
L 735.156271 78.548128 
L 735.335851 85.613407 
L 735.5503 86.926274 
L 735.790902 87.243231 
L 736.08468 87.268343 
L 736.535373 87.059492 
L 737.03837 86.584553 
L 737.405375 85.930598 
L 737.666899 84.976044 
L 737.866528 83.30251 
L 738.026058 79.776384 
L 738.155948 70.967021 
L 738.260557 45.233601 
L 738.309396 -1 
M 738.343556 -1 
L 738.488955 69.778749 
L 738.685969 80.752183 
L 738.905649 82.986238 
L 739.107022 83.339899 
L 739.254347 83.241309 
L 739.48536 82.748954 
L 739.814008 81.467998 
L 740.176654 79.057811 
L 740.513148 75.18546 
L 740.822618 68.815125 
L 741.101576 58.032261 
L 741.341306 39.291765 
L 741.51827 6.330327 
L 741.538886 -1 
M 741.716914 -1 
L 741.934093 41.276324 
L 742.227 60.292213 
L 742.502471 66.539389 
L 742.591389 66.932882 
L 742.641951 66.783421 
L 742.743073 65.519207 
L 742.890398 60.388993 
L 743.050799 45.807693 
L 743.182433 10.546283 
L 743.201472 -1 
M 743.298473 -1 
L 743.477083 47.369379 
L 743.561642 51.156036 
L 743.613075 49.591036 
L 743.701993 36.923953 
L 743.780719 -1 
M 743.853272 -1 
L 744.021924 54.724588 
L 744.260782 71.012621 
L 744.551073 77.396272 
L 744.891926 80.467983 
L 745.280724 82.121855 
L 745.713982 83.062651 
L 746.199544 83.611285 
L 746.766179 83.919532 
L 747.476652 84.045032 
L 748.412906 83.973315 
L 749.577558 83.655384 
L 750.690777 83.128793 
L 751.518936 82.500561 
L 752.121312 81.76613 
L 752.588568 80.835257 
L 752.971264 79.549649 
L 753.29381 77.6261 
L 753.559692 74.578491 
L 753.759322 69.483275 
L 753.873521 60.092799 
L 753.928441 30.679819 
L 753.940743 -1 
M 753.955967 -1 
L 754.016487 50.226679 
L 754.075766 41.484945 
L 754.146008 -1 
M 754.196787 -1 
L 754.343391 48.962065 
L 754.363442 49.237008 
L 754.413131 47.85728 
L 754.529945 35.884596 
L 754.659415 -1 
M 754.789205 -1 
L 754.965818 37.377312 
L 754.971048 37.330276 
L 755.001559 34.532591 
L 755.055608 4.580129 
L 755.059566 -1 
M 755.103144 -1 
L 755.250007 55.812936 
L 755.480148 68.596506 
L 755.781772 74.33284 
L 756.117394 76.969829 
L 756.451272 78.071029 
L 756.722385 78.348519 
L 756.911554 78.270337 
L 757.114671 77.899533 
L 757.34394 76.954196 
L 757.573209 74.951892 
L 757.786786 70.873723 
L 757.97857 62.336613 
L 758.145074 43.489559 
L 758.266246 0.811045 
L 758.26865 -1 
M 758.359641 -1 
L 758.539103 52.024191 
L 758.785807 69.1238 
L 759.064765 75.141086 
L 759.375107 77.604097 
L 759.716831 78.725081 
L 760.093425 79.261598 
L 760.531913 79.51004 
L 761.109881 79.569778 
L 761.952859 79.415997 
L 763.05736 78.983905 
L 763.954386 78.410914 
L 764.523636 77.791575 
L 764.917665 77.024624 
L 765.221033 75.91231 
L 765.470352 74.067506 
L 765.681314 70.636739 
L 765.861766 63.545631 
L 766.016065 47.2511 
L 766.132879 7.178179 
L 766.1431 -1 
M 766.220761 -1 
L 766.391787 53.58988 
L 766.618441 67.774409 
L 766.840736 70.876374 
L 766.889554 70.95391 
L 766.941858 70.830175 
L 767.046468 69.843549 
L 767.186819 66.039604 
L 767.326298 55.111413 
L 767.443984 24.82925 
L 767.479618 -1 
M 767.543571 -1 
L 767.707251 56.588369 
L 767.926059 69.822045 
L 768.177994 73.649931 
L 768.453465 74.943326 
L 768.694067 75.240127 
L 768.834418 75.139567 
L 768.973897 74.691046 
L 769.107274 73.365292 
L 769.218858 69.543771 
L 769.308648 56.654512 
L 769.373157 6.011989 
L 769.376044 -1 
M 769.402117 -1 
L 769.538789 68.019986 
L 769.720112 74.056239 
L 769.937176 75.212221 
L 770.179522 75.487974 
L 770.466326 75.48287 
L 770.841176 75.239807 
L 771.189003 74.746057 
L 771.460116 73.946782 
L 771.678052 72.528825 
L 771.857632 69.681548 
L 772.0067 63.155501 
L 772.127001 46.061529 
L 772.203226 -1 
M 772.246479 -1 
L 772.269967 13.889172 
L 772.292726 -1 
M 772.334839 -1 
L 772.481802 58.652194 
L 772.689277 69.636965 
L 772.931622 72.574958 
L 773.201863 73.536048 
L 773.488668 73.841157 
L 773.814701 73.87074 
L 774.244471 73.669688 
L 774.720444 73.197029 
L 775.118832 72.481041 
L 775.439634 71.415951 
L 775.70726 69.68022 
L 775.936529 66.557712 
L 776.135287 60.396118 
L 776.307893 47.10121 
L 776.447372 16.52041 
L 776.481286 -1 
M 776.584242 -1 
L 776.768175 48.292384 
L 777.011392 63.300756 
L 777.28512 68.374164 
L 777.586744 70.354949 
L 777.913648 71.193557 
L 778.26932 71.544912 
L 778.696476 71.65344 
L 779.316287 71.560453 
L 780.360638 71.151726 
L 782.048338 70.238093 
L 783.079613 69.473375 
L 783.425696 68.953944 
L 783.612249 68.226673 
L 783.742139 66.651174 
L 783.839775 62.043145 
L 783.913001 44.804377 
L 783.951469 -1 
M 783.975791 -1 
L 784.110016 63.616706 
L 784.284365 67.502736 
L 784.480508 68.040437 
L 784.655729 68.024663 
L 784.886741 67.734386 
L 785.131702 67.046958 
L 785.333075 65.745302 
L 785.49522 63.002374 
L 785.62511 56.299747 
L 785.729719 36.600589 
L 785.783941 -1 
M 785.834346 -1 
L 785.983397 50.392527 
L 785.985141 50.396836 
L 785.99996 50.059167 
L 786.047906 42.428438 
L 786.099017 -1 
M 786.13101 -1 
L 786.26933 58.949691 
L 786.457627 64.815398 
L 786.688639 66.203522 
L 786.946676 66.601684 
L 787.242198 66.670174 
L 787.69289 66.516578 
L 788.405106 66.021988 
L 788.956921 65.393292 
L 789.248956 64.717802 
L 789.438125 63.651278 
L 789.578476 61.347957 
L 789.686572 55.079169 
L 789.771132 33.71893 
L 789.807262 -1 
M 789.845653 -1 
L 789.988196 56.910542 
L 790.171263 62.512055 
L 790.375251 63.429087 
L 790.547857 63.479274 
L 790.745743 63.243718 
L 791.017728 62.535505 
L 791.282738 61.175124 
L 791.510264 58.707696 
L 791.703792 53.837221 
L 791.869423 43.139889 
L 792.006287 17.418453 
L 792.047397 -1 
M 792.161273 -1 
L 792.345396 43.615361 
L 792.579024 55.630002 
L 792.837933 59.262936 
L 793.104687 60.394185 
L 793.331341 60.603832 
L 793.51092 60.488529 
L 793.734959 60.031628 
L 793.98515 58.959506 
L 794.220521 56.863542 
L 794.428868 52.746346 
L 794.610191 44.079545 
L 794.76449 24.328077 
L 794.842164 -1 
M 794.977794 -1 
L 795.169852 40.609478 
L 795.412197 52.911512 
L 795.682438 56.961199 
L 795.97273 58.431129 
L 796.261277 58.918382 
L 796.524545 58.986598 
L 796.793042 58.816623 
L 797.070257 58.35917 
L 797.3065 57.505533 
L 797.49131 55.897847 
L 797.635148 52.355778 
L 797.748475 42.805676 
L 797.83565 11.88221 
L 797.849298 -1 
M 797.907769 -1 
L 798.059689 47.763898 
L 798.234909 52.435536 
L 798.250601 52.446946 
L 798.290701 52.306937 
L 798.39008 50.952467 
L 798.530431 45.560448 
L 798.66468 30.379772 
L 798.754471 -1 
M 798.861583 -1 
L 799.039531 42.188083 
L 799.262697 52.23004 
L 799.514632 55.115847 
L 799.78836 56.068657 
L 800.06819 56.348722 
L 800.379404 56.351101 
L 800.835326 56.104487 
L 801.512673 55.466284 
L 802.164738 54.556101 
L 802.614559 53.545502 
L 802.938849 52.236002 
L 803.192526 50.194399 
L 803.401745 46.477685 
L 803.579582 38.729996 
L 803.729522 20.848042 
L 803.803085 -1 
M 803.955328 -1 
L 804.150575 36.395383 
L 804.388561 46.552833 
L 804.6527 49.739739 
L 804.934274 50.832491 
L 805.215848 51.164222 
L 805.513113 51.187532 
L 805.934166 50.969294 
L 806.599308 50.349748 
L 806.699559 50.048953 
L 806.723968 48.445133 
L 806.734429 18.481963 
L 806.735221 -1 
M 806.737243 -1 
L 806.815501 50.085354 
L 806.849499 50.069803 
L 807.214761 49.657021 
L 808.150144 48.324523 
L 808.152759 48.310115 
L 808.153631 47.429354 
L 808.155374 48.314315 
L 808.26347 48.128661 
L 808.803953 46.935717 
L 809.154394 45.600644 
L 809.411559 43.6658 
L 809.61642 40.213219 
L 809.785538 32.998821 
L 809.926761 15.755954 
L 809.984454 -1 
M 810.148235 -1 
L 810.341712 32.165276 
L 810.568366 39.949832 
L 810.773226 41.366524 
L 810.774969 41.366266 
L 810.829018 41.2398 
L 810.917936 40.281574 
L 811.007726 36.395988 
L 811.073978 20.824323 
L 811.096783 -1 
M 811.13673 -1 
L 811.20474 28.250782 
L 811.260532 19.979077 
L 811.297741 -1 
M 811.366327 -1 
L 811.517697 37.56833 
L 811.707737 41.777351 
L 811.922187 42.582623 
L 812.125303 42.671034 
L 812.385084 42.499812 
L 812.85757 41.87854 
L 813.496559 40.664058 
L 813.990839 39.254241 
L 814.338665 37.557143 
L 814.602804 35.060376 
L 814.817254 30.652193 
L 814.996833 21.702526 
L 815.147645 1.212637 
L 815.15684 -1 
M 815.410302 -1 
L 815.62449 24.81459 
L 815.871194 32.137679 
L 816.130103 34.330741 
L 816.229482 34.539215 
L 816.272197 34.436129 
L 816.326245 33.531121 
L 816.367217 27.469331 
L 816.387262 -1 
M 816.40321 -1 
L 816.52326 34.775382 
L 816.685404 35.139512 
L 816.879804 35.081802 
L 817.246809 34.691392 
L 817.947692 33.574394 
L 819.13501 31.229138 
L 820.347608 28.367708 
L 820.969162 26.380399 
L 821.282991 24.609629 
L 821.485236 22.041331 
L 821.635176 16.795852 
L 821.753733 3.096369 
L 821.770915 -1 
M 821.976677 -1 
L 822.159967 18.067548 
L 822.367442 21.323374 
L 822.547893 21.74586 
L 822.553996 21.744296 
L 822.651631 21.595201 
L 822.761471 20.936965 
L 822.841672 18.745128 
L 822.894848 8.586444 
L 822.907655 -1 
M 822.954934 -1 
L 823.084889 19.953376 
L 823.136322 20.142454 
L 823.194729 19.941919 
L 823.277545 18.61365 
L 823.34031 12.993427 
L 823.369851 -1 
M 823.422718 -1 
L 823.550401 18.243784 
L 823.553888 18.24091 
L 823.580912 17.926519 
L 823.623628 14.185872 
L 823.645952 -1 
M 823.675174 -1 
L 823.797977 18.76172 
L 823.856384 18.84569 
L 823.916534 18.781937 
L 824.16934 18.149191 
L 824.954783 15.505965 
L 825.566748 12.766013 
L 825.853553 10.436113 
L 826.02703 6.952852 
L 826.149946 -0.924545 
L 826.150581 -1 
M 826.603128 -1 
L 826.773244 6.204033 
L 826.955439 7.028568 
L 827.063536 6.951839 
L 827.277985 6.400445 
L 827.398286 5.978735 
L 827.398286 5.978735 
" style="fill:none;stroke:#ff0000;stroke-linecap:square;stroke-opacity:0.4;stroke-width:1.5;"/>
   </g>
   <g id="line2d_48">
    <path clip-path="url(#pc0e029f335)" d="M 80.968744 151.344 
L 80.968744 7.2 
" style="fill:none;stroke:#1f77b4;stroke-dasharray:7.4,3.2;stroke-dashoffset:0;stroke-width:2;"/>
   </g>
   <g id="line2d_49">
    <path clip-path="url(#pc0e029f335)" d="M 823.396112 151.344 
L 823.396112 7.2 
" style="fill:none;stroke:#1f77b4;stroke-dasharray:7.4,3.2;stroke-dashoffset:0;stroke-width:2;"/>
   </g>
   <g id="patch_3">
    <path d="M 57.35785 151.344 
L 57.35785 7.2 
" style="fill:none;stroke:#000000;stroke-linecap:square;stroke-linejoin:miter;stroke-width:0.8;"/>
   </g>
   <g id="patch_4">
    <path d="M 827.39785 151.344 
L 827.39785 7.2 
" style="fill:none;stroke:#000000;stroke-linecap:square;stroke-linejoin:miter;stroke-width:0.8;"/>
   </g>
   <g id="patch_5">
    <path d="M 57.35785 151.344 
L 827.39785 151.344 
" style="fill:none;stroke:#000000;stroke-linecap:square;stroke-linejoin:miter;stroke-width:0.8;"/>
   </g>
   <g id="patch_6">
    <path d="M 57.35785 7.2 
L 827.39785 7.2 
" style="fill:none;stroke:#000000;stroke-linecap:square;stroke-linejoin:miter;stroke-width:0.8;"/>
   </g>
   <g id="text_12">
    <!-- v'=0 -->
    <g style="fill:#1f77b4;" transform="translate(77.641244 91.478248)rotate(-90)scale(0.16 -0.16)">
     <defs>
      <path d="M 2.984375 54.6875 
L 12.5 54.6875 
L 29.59375 8.796875 
L 46.6875 54.6875 
L 56.203125 54.6875 
L 35.6875 0 
L 23.484375 0 
z
" id="DejaVuSans-118"/>
      <path d="M 17.921875 72.90625 
L 17.921875 45.796875 
L 9.625 45.796875 
L 9.625 72.90625 
z
" id="DejaVuSans-39"/>
      <path d="M 10.59375 45.40625 
L 73.1875 45.40625 
L 73.1875 37.203125 
L 10.59375 37.203125 
z
M 10.59375 25.484375 
L 73.1875 25.484375 
L 73.1875 17.1875 
L 10.59375 17.1875 
z
" id="DejaVuSans-61"/>
     </defs>
     <use xlink:href="#DejaVuSans-118"/>
     <use x="59.179688" xlink:href="#DejaVuSans-39"/>
     <use x="86.669922" xlink:href="#DejaVuSans-61"/>
     <use x="170.458984" xlink:href="#DejaVuSans-48"/>
    </g>
   </g>
   <g id="text_13">
    <!-- v'=40 -->
    <g style="fill:#1f77b4;" transform="translate(820.068612 117.962635)rotate(-90)scale(0.16 -0.16)">
     <use xlink:href="#DejaVuSans-118"/>
     <use x="59.179688" xlink:href="#DejaVuSans-39"/>
     <use x="86.669922" xlink:href="#DejaVuSans-61"/>
     <use x="170.458984" xlink:href="#DejaVuSans-52"/>
     <use x="234.082031" xlink:href="#DejaVuSans-48"/>
    </g>
   </g>
  </g>
 </g>
 <defs>
  <clipPath id="pc0e029f335">
   <rect height="144.144" width="770.04" x="57.35785" y="7.2"/>
  </clipPath>
 </defs>
</svg>
