<?xml version="1.0" encoding="utf-8" standalone="no"?>
<!DOCTYPE svg PUBLIC "-//W3C//DTD SVG 1.1//EN"
  "http://www.w3.org/Graphics/SVG/1.1/DTD/svg11.dtd">
<!-- Created with matplotlib (https://matplotlib.org/) -->
<svg height="325.385437pt" version="1.1" viewBox="0 0 440.046562 325.385437" width="440.046562pt" xmlns="http://www.w3.org/2000/svg" xmlns:xlink="http://www.w3.org/1999/xlink">
 <defs>
  <style type="text/css">*{stroke-linecap:butt;stroke-linejoin:round;}</style>
 </defs>
 <g id="figure_1">
  <g id="patch_1">
   <path d="M 0 325.385437 
L 440.046562 325.385437 
L 440.046562 0 
L 0 0 
z
" style="fill:none;"/>
  </g>
  <g id="axes_1">
   <g id="patch_2">
    <path d="M 61.410938 273.312 
L 418.530938 273.312 
L 418.530938 7.2 
L 61.410938 7.2 
z
" style="fill:none;"/>
   </g>
   <g id="matplotlib.axis_1">
    <g id="xtick_1">
     <g id="line2d_1">
      <path clip-path="url(#pbae0dbd6b8)" d="M 61.410937 273.312 
L 61.410937 7.2 
" style="fill:none;stroke:#b0b0b0;stroke-linecap:square;stroke-width:0.8;"/>
     </g>
     <g id="line2d_2">
      <defs>
       <path d="M 0 0 
L 0 3.5 
" id="m005f0a59be" style="stroke:#000000;stroke-width:0.8;"/>
      </defs>
      <g>
       <use style="stroke:#000000;stroke-width:0.8;" x="61.410937" xlink:href="#m005f0a59be" y="273.312"/>
      </g>
     </g>
     <g id="text_1">
      <!-- −300 -->
      <g transform="translate(40.810547 291.709656)scale(0.15 -0.15)">
       <defs>
        <path d="M 10.59375 35.5 
L 73.1875 35.5 
L 73.1875 27.203125 
L 10.59375 27.203125 
z
" id="DejaVuSans-8722"/>
        <path d="M 40.578125 39.3125 
Q 47.65625 37.796875 51.625 33 
Q 55.609375 28.21875 55.609375 21.1875 
Q 55.609375 10.40625 48.1875 4.484375 
Q 40.765625 -1.421875 27.09375 -1.421875 
Q 22.515625 -1.421875 17.65625 -0.515625 
Q 12.796875 0.390625 7.625 2.203125 
L 7.625 11.71875 
Q 11.71875 9.328125 16.59375 8.109375 
Q 21.484375 6.890625 26.8125 6.890625 
Q 36.078125 6.890625 40.9375 10.546875 
Q 45.796875 14.203125 45.796875 21.1875 
Q 45.796875 27.640625 41.28125 31.265625 
Q 36.765625 34.90625 28.71875 34.90625 
L 20.21875 34.90625 
L 20.21875 43.015625 
L 29.109375 43.015625 
Q 36.375 43.015625 40.234375 45.921875 
Q 44.09375 48.828125 44.09375 54.296875 
Q 44.09375 59.90625 40.109375 62.90625 
Q 36.140625 65.921875 28.71875 65.921875 
Q 24.65625 65.921875 20.015625 65.03125 
Q 15.375 64.15625 9.8125 62.3125 
L 9.8125 71.09375 
Q 15.4375 72.65625 20.34375 73.4375 
Q 25.25 74.21875 29.59375 74.21875 
Q 40.828125 74.21875 47.359375 69.109375 
Q 53.90625 64.015625 53.90625 55.328125 
Q 53.90625 49.265625 50.4375 45.09375 
Q 46.96875 40.921875 40.578125 39.3125 
z
" id="DejaVuSans-51"/>
        <path d="M 31.78125 66.40625 
Q 24.171875 66.40625 20.328125 58.90625 
Q 16.5 51.421875 16.5 36.375 
Q 16.5 21.390625 20.328125 13.890625 
Q 24.171875 6.390625 31.78125 6.390625 
Q 39.453125 6.390625 43.28125 13.890625 
Q 47.125 21.390625 47.125 36.375 
Q 47.125 51.421875 43.28125 58.90625 
Q 39.453125 66.40625 31.78125 66.40625 
z
M 31.78125 74.21875 
Q 44.046875 74.21875 50.515625 64.515625 
Q 56.984375 54.828125 56.984375 36.375 
Q 56.984375 17.96875 50.515625 8.265625 
Q 44.046875 -1.421875 31.78125 -1.421875 
Q 19.53125 -1.421875 13.0625 8.265625 
Q 6.59375 17.96875 6.59375 36.375 
Q 6.59375 54.828125 13.0625 64.515625 
Q 19.53125 74.21875 31.78125 74.21875 
z
" id="DejaVuSans-48"/>
       </defs>
       <use xlink:href="#DejaVuSans-8722"/>
       <use x="83.789062" xlink:href="#DejaVuSans-51"/>
       <use x="147.412109" xlink:href="#DejaVuSans-48"/>
       <use x="211.035156" xlink:href="#DejaVuSans-48"/>
      </g>
     </g>
    </g>
    <g id="xtick_2">
     <g id="line2d_3">
      <path clip-path="url(#pbae0dbd6b8)" d="M 120.930938 273.312 
L 120.930938 7.2 
" style="fill:none;stroke:#b0b0b0;stroke-linecap:square;stroke-width:0.8;"/>
     </g>
     <g id="line2d_4">
      <g>
       <use style="stroke:#000000;stroke-width:0.8;" x="120.930938" xlink:href="#m005f0a59be" y="273.312"/>
      </g>
     </g>
     <g id="text_2">
      <!-- −200 -->
      <g transform="translate(100.330547 291.709656)scale(0.15 -0.15)">
       <defs>
        <path d="M 19.1875 8.296875 
L 53.609375 8.296875 
L 53.609375 0 
L 7.328125 0 
L 7.328125 8.296875 
Q 12.9375 14.109375 22.625 23.890625 
Q 32.328125 33.6875 34.8125 36.53125 
Q 39.546875 41.84375 41.421875 45.53125 
Q 43.3125 49.21875 43.3125 52.78125 
Q 43.3125 58.59375 39.234375 62.25 
Q 35.15625 65.921875 28.609375 65.921875 
Q 23.96875 65.921875 18.8125 64.3125 
Q 13.671875 62.703125 7.8125 59.421875 
L 7.8125 69.390625 
Q 13.765625 71.78125 18.9375 73 
Q 24.125 74.21875 28.421875 74.21875 
Q 39.75 74.21875 46.484375 68.546875 
Q 53.21875 62.890625 53.21875 53.421875 
Q 53.21875 48.921875 51.53125 44.890625 
Q 49.859375 40.875 45.40625 35.40625 
Q 44.1875 33.984375 37.640625 27.21875 
Q 31.109375 20.453125 19.1875 8.296875 
z
" id="DejaVuSans-50"/>
       </defs>
       <use xlink:href="#DejaVuSans-8722"/>
       <use x="83.789062" xlink:href="#DejaVuSans-50"/>
       <use x="147.412109" xlink:href="#DejaVuSans-48"/>
       <use x="211.035156" xlink:href="#DejaVuSans-48"/>
      </g>
     </g>
    </g>
    <g id="xtick_3">
     <g id="line2d_5">
      <path clip-path="url(#pbae0dbd6b8)" d="M 180.450938 273.312 
L 180.450938 7.2 
" style="fill:none;stroke:#b0b0b0;stroke-linecap:square;stroke-width:0.8;"/>
     </g>
     <g id="line2d_6">
      <g>
       <use style="stroke:#000000;stroke-width:0.8;" x="180.450938" xlink:href="#m005f0a59be" y="273.312"/>
      </g>
     </g>
     <g id="text_3">
      <!-- −100 -->
      <g transform="translate(159.850547 291.709656)scale(0.15 -0.15)">
       <defs>
        <path d="M 12.40625 8.296875 
L 28.515625 8.296875 
L 28.515625 63.921875 
L 10.984375 60.40625 
L 10.984375 69.390625 
L 28.421875 72.90625 
L 38.28125 72.90625 
L 38.28125 8.296875 
L 54.390625 8.296875 
L 54.390625 0 
L 12.40625 0 
z
" id="DejaVuSans-49"/>
       </defs>
       <use xlink:href="#DejaVuSans-8722"/>
       <use x="83.789062" xlink:href="#DejaVuSans-49"/>
       <use x="147.412109" xlink:href="#DejaVuSans-48"/>
       <use x="211.035156" xlink:href="#DejaVuSans-48"/>
      </g>
     </g>
    </g>
    <g id="xtick_4">
     <g id="line2d_7">
      <path clip-path="url(#pbae0dbd6b8)" d="M 239.970938 273.312 
L 239.970938 7.2 
" style="fill:none;stroke:#b0b0b0;stroke-linecap:square;stroke-width:0.8;"/>
     </g>
     <g id="line2d_8">
      <g>
       <use style="stroke:#000000;stroke-width:0.8;" x="239.970938" xlink:href="#m005f0a59be" y="273.312"/>
      </g>
     </g>
     <g id="text_4">
      <!-- 0 -->
      <g transform="translate(235.199063 291.709656)scale(0.15 -0.15)">
       <use xlink:href="#DejaVuSans-48"/>
      </g>
     </g>
    </g>
    <g id="xtick_5">
     <g id="line2d_9">
      <path clip-path="url(#pbae0dbd6b8)" d="M 299.490938 273.312 
L 299.490938 7.2 
" style="fill:none;stroke:#b0b0b0;stroke-linecap:square;stroke-width:0.8;"/>
     </g>
     <g id="line2d_10">
      <g>
       <use style="stroke:#000000;stroke-width:0.8;" x="299.490938" xlink:href="#m005f0a59be" y="273.312"/>
      </g>
     </g>
     <g id="text_5">
      <!-- 100 -->
      <g transform="translate(285.175313 291.709656)scale(0.15 -0.15)">
       <use xlink:href="#DejaVuSans-49"/>
       <use x="63.623047" xlink:href="#DejaVuSans-48"/>
       <use x="127.246094" xlink:href="#DejaVuSans-48"/>
      </g>
     </g>
    </g>
    <g id="xtick_6">
     <g id="line2d_11">
      <path clip-path="url(#pbae0dbd6b8)" d="M 359.010938 273.312 
L 359.010938 7.2 
" style="fill:none;stroke:#b0b0b0;stroke-linecap:square;stroke-width:0.8;"/>
     </g>
     <g id="line2d_12">
      <g>
       <use style="stroke:#000000;stroke-width:0.8;" x="359.010938" xlink:href="#m005f0a59be" y="273.312"/>
      </g>
     </g>
     <g id="text_6">
      <!-- 200 -->
      <g transform="translate(344.695313 291.709656)scale(0.15 -0.15)">
       <use xlink:href="#DejaVuSans-50"/>
       <use x="63.623047" xlink:href="#DejaVuSans-48"/>
       <use x="127.246094" xlink:href="#DejaVuSans-48"/>
      </g>
     </g>
    </g>
    <g id="xtick_7">
     <g id="line2d_13">
      <path clip-path="url(#pbae0dbd6b8)" d="M 418.530938 273.312 
L 418.530938 7.2 
" style="fill:none;stroke:#b0b0b0;stroke-linecap:square;stroke-width:0.8;"/>
     </g>
     <g id="line2d_14">
      <g>
       <use style="stroke:#000000;stroke-width:0.8;" x="418.530938" xlink:href="#m005f0a59be" y="273.312"/>
      </g>
     </g>
     <g id="text_7">
      <!-- 300 -->
      <g transform="translate(404.215313 291.709656)scale(0.15 -0.15)">
       <use xlink:href="#DejaVuSans-51"/>
       <use x="63.623047" xlink:href="#DejaVuSans-48"/>
       <use x="127.246094" xlink:href="#DejaVuSans-48"/>
      </g>
     </g>
    </g>
    <g id="text_8">
     <!-- One-Photon Detuning (GHz) -->
     <g transform="translate(100.549063 314.026062)scale(0.2 -0.2)">
      <defs>
       <path d="M 39.40625 66.21875 
Q 28.65625 66.21875 22.328125 58.203125 
Q 16.015625 50.203125 16.015625 36.375 
Q 16.015625 22.609375 22.328125 14.59375 
Q 28.65625 6.59375 39.40625 6.59375 
Q 50.140625 6.59375 56.421875 14.59375 
Q 62.703125 22.609375 62.703125 36.375 
Q 62.703125 50.203125 56.421875 58.203125 
Q 50.140625 66.21875 39.40625 66.21875 
z
M 39.40625 74.21875 
Q 54.734375 74.21875 63.90625 63.9375 
Q 73.09375 53.65625 73.09375 36.375 
Q 73.09375 19.140625 63.90625 8.859375 
Q 54.734375 -1.421875 39.40625 -1.421875 
Q 24.03125 -1.421875 14.8125 8.828125 
Q 5.609375 19.09375 5.609375 36.375 
Q 5.609375 53.65625 14.8125 63.9375 
Q 24.03125 74.21875 39.40625 74.21875 
z
" id="DejaVuSans-79"/>
       <path d="M 54.890625 33.015625 
L 54.890625 0 
L 45.90625 0 
L 45.90625 32.71875 
Q 45.90625 40.484375 42.875 44.328125 
Q 39.84375 48.1875 33.796875 48.1875 
Q 26.515625 48.1875 22.3125 43.546875 
Q 18.109375 38.921875 18.109375 30.90625 
L 18.109375 0 
L 9.078125 0 
L 9.078125 54.6875 
L 18.109375 54.6875 
L 18.109375 46.1875 
Q 21.34375 51.125 25.703125 53.5625 
Q 30.078125 56 35.796875 56 
Q 45.21875 56 50.046875 50.171875 
Q 54.890625 44.34375 54.890625 33.015625 
z
" id="DejaVuSans-110"/>
       <path d="M 56.203125 29.59375 
L 56.203125 25.203125 
L 14.890625 25.203125 
Q 15.484375 15.921875 20.484375 11.0625 
Q 25.484375 6.203125 34.421875 6.203125 
Q 39.59375 6.203125 44.453125 7.46875 
Q 49.3125 8.734375 54.109375 11.28125 
L 54.109375 2.78125 
Q 49.265625 0.734375 44.1875 -0.34375 
Q 39.109375 -1.421875 33.890625 -1.421875 
Q 20.796875 -1.421875 13.15625 6.1875 
Q 5.515625 13.8125 5.515625 26.8125 
Q 5.515625 40.234375 12.765625 48.109375 
Q 20.015625 56 32.328125 56 
Q 43.359375 56 49.78125 48.890625 
Q 56.203125 41.796875 56.203125 29.59375 
z
M 47.21875 32.234375 
Q 47.125 39.59375 43.09375 43.984375 
Q 39.0625 48.390625 32.421875 48.390625 
Q 24.90625 48.390625 20.390625 44.140625 
Q 15.875 39.890625 15.1875 32.171875 
z
" id="DejaVuSans-101"/>
       <path d="M 4.890625 31.390625 
L 31.203125 31.390625 
L 31.203125 23.390625 
L 4.890625 23.390625 
z
" id="DejaVuSans-45"/>
       <path d="M 19.671875 64.796875 
L 19.671875 37.40625 
L 32.078125 37.40625 
Q 38.96875 37.40625 42.71875 40.96875 
Q 46.484375 44.53125 46.484375 51.125 
Q 46.484375 57.671875 42.71875 61.234375 
Q 38.96875 64.796875 32.078125 64.796875 
z
M 9.8125 72.90625 
L 32.078125 72.90625 
Q 44.34375 72.90625 50.609375 67.359375 
Q 56.890625 61.8125 56.890625 51.125 
Q 56.890625 40.328125 50.609375 34.8125 
Q 44.34375 29.296875 32.078125 29.296875 
L 19.671875 29.296875 
L 19.671875 0 
L 9.8125 0 
z
" id="DejaVuSans-80"/>
       <path d="M 54.890625 33.015625 
L 54.890625 0 
L 45.90625 0 
L 45.90625 32.71875 
Q 45.90625 40.484375 42.875 44.328125 
Q 39.84375 48.1875 33.796875 48.1875 
Q 26.515625 48.1875 22.3125 43.546875 
Q 18.109375 38.921875 18.109375 30.90625 
L 18.109375 0 
L 9.078125 0 
L 9.078125 75.984375 
L 18.109375 75.984375 
L 18.109375 46.1875 
Q 21.34375 51.125 25.703125 53.5625 
Q 30.078125 56 35.796875 56 
Q 45.21875 56 50.046875 50.171875 
Q 54.890625 44.34375 54.890625 33.015625 
z
" id="DejaVuSans-104"/>
       <path d="M 30.609375 48.390625 
Q 23.390625 48.390625 19.1875 42.75 
Q 14.984375 37.109375 14.984375 27.296875 
Q 14.984375 17.484375 19.15625 11.84375 
Q 23.34375 6.203125 30.609375 6.203125 
Q 37.796875 6.203125 41.984375 11.859375 
Q 46.1875 17.53125 46.1875 27.296875 
Q 46.1875 37.015625 41.984375 42.703125 
Q 37.796875 48.390625 30.609375 48.390625 
z
M 30.609375 56 
Q 42.328125 56 49.015625 48.375 
Q 55.71875 40.765625 55.71875 27.296875 
Q 55.71875 13.875 49.015625 6.21875 
Q 42.328125 -1.421875 30.609375 -1.421875 
Q 18.84375 -1.421875 12.171875 6.21875 
Q 5.515625 13.875 5.515625 27.296875 
Q 5.515625 40.765625 12.171875 48.375 
Q 18.84375 56 30.609375 56 
z
" id="DejaVuSans-111"/>
       <path d="M 18.3125 70.21875 
L 18.3125 54.6875 
L 36.8125 54.6875 
L 36.8125 47.703125 
L 18.3125 47.703125 
L 18.3125 18.015625 
Q 18.3125 11.328125 20.140625 9.421875 
Q 21.96875 7.515625 27.59375 7.515625 
L 36.8125 7.515625 
L 36.8125 0 
L 27.59375 0 
Q 17.1875 0 13.234375 3.875 
Q 9.28125 7.765625 9.28125 18.015625 
L 9.28125 47.703125 
L 2.6875 47.703125 
L 2.6875 54.6875 
L 9.28125 54.6875 
L 9.28125 70.21875 
z
" id="DejaVuSans-116"/>
       <path id="DejaVuSans-32"/>
       <path d="M 19.671875 64.796875 
L 19.671875 8.109375 
L 31.59375 8.109375 
Q 46.6875 8.109375 53.6875 14.9375 
Q 60.6875 21.78125 60.6875 36.53125 
Q 60.6875 51.171875 53.6875 57.984375 
Q 46.6875 64.796875 31.59375 64.796875 
z
M 9.8125 72.90625 
L 30.078125 72.90625 
Q 51.265625 72.90625 61.171875 64.09375 
Q 71.09375 55.28125 71.09375 36.53125 
Q 71.09375 17.671875 61.125 8.828125 
Q 51.171875 0 30.078125 0 
L 9.8125 0 
z
" id="DejaVuSans-68"/>
       <path d="M 8.5 21.578125 
L 8.5 54.6875 
L 17.484375 54.6875 
L 17.484375 21.921875 
Q 17.484375 14.15625 20.5 10.265625 
Q 23.53125 6.390625 29.59375 6.390625 
Q 36.859375 6.390625 41.078125 11.03125 
Q 45.3125 15.671875 45.3125 23.6875 
L 45.3125 54.6875 
L 54.296875 54.6875 
L 54.296875 0 
L 45.3125 0 
L 45.3125 8.40625 
Q 42.046875 3.421875 37.71875 1 
Q 33.40625 -1.421875 27.6875 -1.421875 
Q 18.265625 -1.421875 13.375 4.4375 
Q 8.5 10.296875 8.5 21.578125 
z
M 31.109375 56 
z
" id="DejaVuSans-117"/>
       <path d="M 9.421875 54.6875 
L 18.40625 54.6875 
L 18.40625 0 
L 9.421875 0 
z
M 9.421875 75.984375 
L 18.40625 75.984375 
L 18.40625 64.59375 
L 9.421875 64.59375 
z
" id="DejaVuSans-105"/>
       <path d="M 45.40625 27.984375 
Q 45.40625 37.75 41.375 43.109375 
Q 37.359375 48.484375 30.078125 48.484375 
Q 22.859375 48.484375 18.828125 43.109375 
Q 14.796875 37.75 14.796875 27.984375 
Q 14.796875 18.265625 18.828125 12.890625 
Q 22.859375 7.515625 30.078125 7.515625 
Q 37.359375 7.515625 41.375 12.890625 
Q 45.40625 18.265625 45.40625 27.984375 
z
M 54.390625 6.78125 
Q 54.390625 -7.171875 48.1875 -13.984375 
Q 42 -20.796875 29.203125 -20.796875 
Q 24.46875 -20.796875 20.265625 -20.09375 
Q 16.0625 -19.390625 12.109375 -17.921875 
L 12.109375 -9.1875 
Q 16.0625 -11.328125 19.921875 -12.34375 
Q 23.78125 -13.375 27.78125 -13.375 
Q 36.625 -13.375 41.015625 -8.765625 
Q 45.40625 -4.15625 45.40625 5.171875 
L 45.40625 9.625 
Q 42.625 4.78125 38.28125 2.390625 
Q 33.9375 0 27.875 0 
Q 17.828125 0 11.671875 7.65625 
Q 5.515625 15.328125 5.515625 27.984375 
Q 5.515625 40.671875 11.671875 48.328125 
Q 17.828125 56 27.875 56 
Q 33.9375 56 38.28125 53.609375 
Q 42.625 51.21875 45.40625 46.390625 
L 45.40625 54.6875 
L 54.390625 54.6875 
z
" id="DejaVuSans-103"/>
       <path d="M 31 75.875 
Q 24.46875 64.65625 21.28125 53.65625 
Q 18.109375 42.671875 18.109375 31.390625 
Q 18.109375 20.125 21.3125 9.0625 
Q 24.515625 -2 31 -13.1875 
L 23.1875 -13.1875 
Q 15.875 -1.703125 12.234375 9.375 
Q 8.59375 20.453125 8.59375 31.390625 
Q 8.59375 42.28125 12.203125 53.3125 
Q 15.828125 64.359375 23.1875 75.875 
z
" id="DejaVuSans-40"/>
       <path d="M 59.515625 10.40625 
L 59.515625 29.984375 
L 43.40625 29.984375 
L 43.40625 38.09375 
L 69.28125 38.09375 
L 69.28125 6.78125 
Q 63.578125 2.734375 56.6875 0.65625 
Q 49.8125 -1.421875 42 -1.421875 
Q 24.90625 -1.421875 15.25 8.5625 
Q 5.609375 18.5625 5.609375 36.375 
Q 5.609375 54.25 15.25 64.234375 
Q 24.90625 74.21875 42 74.21875 
Q 49.125 74.21875 55.546875 72.453125 
Q 61.96875 70.703125 67.390625 67.28125 
L 67.390625 56.78125 
Q 61.921875 61.421875 55.765625 63.765625 
Q 49.609375 66.109375 42.828125 66.109375 
Q 29.4375 66.109375 22.71875 58.640625 
Q 16.015625 51.171875 16.015625 36.375 
Q 16.015625 21.625 22.71875 14.15625 
Q 29.4375 6.6875 42.828125 6.6875 
Q 48.046875 6.6875 52.140625 7.59375 
Q 56.25 8.5 59.515625 10.40625 
z
" id="DejaVuSans-71"/>
       <path d="M 9.8125 72.90625 
L 19.671875 72.90625 
L 19.671875 43.015625 
L 55.515625 43.015625 
L 55.515625 72.90625 
L 65.375 72.90625 
L 65.375 0 
L 55.515625 0 
L 55.515625 34.71875 
L 19.671875 34.71875 
L 19.671875 0 
L 9.8125 0 
z
" id="DejaVuSans-72"/>
       <path d="M 5.515625 54.6875 
L 48.1875 54.6875 
L 48.1875 46.484375 
L 14.40625 7.171875 
L 48.1875 7.171875 
L 48.1875 0 
L 4.296875 0 
L 4.296875 8.203125 
L 38.09375 47.515625 
L 5.515625 47.515625 
z
" id="DejaVuSans-122"/>
       <path d="M 8.015625 75.875 
L 15.828125 75.875 
Q 23.140625 64.359375 26.78125 53.3125 
Q 30.421875 42.28125 30.421875 31.390625 
Q 30.421875 20.453125 26.78125 9.375 
Q 23.140625 -1.703125 15.828125 -13.1875 
L 8.015625 -13.1875 
Q 14.5 -2 17.703125 9.0625 
Q 20.90625 20.125 20.90625 31.390625 
Q 20.90625 42.671875 17.703125 53.65625 
Q 14.5 64.65625 8.015625 75.875 
z
" id="DejaVuSans-41"/>
      </defs>
      <use xlink:href="#DejaVuSans-79"/>
      <use x="78.710938" xlink:href="#DejaVuSans-110"/>
      <use x="142.089844" xlink:href="#DejaVuSans-101"/>
      <use x="203.613281" xlink:href="#DejaVuSans-45"/>
      <use x="239.697266" xlink:href="#DejaVuSans-80"/>
      <use x="300" xlink:href="#DejaVuSans-104"/>
      <use x="363.378906" xlink:href="#DejaVuSans-111"/>
      <use x="424.560547" xlink:href="#DejaVuSans-116"/>
      <use x="463.769531" xlink:href="#DejaVuSans-111"/>
      <use x="524.951172" xlink:href="#DejaVuSans-110"/>
      <use x="588.330078" xlink:href="#DejaVuSans-32"/>
      <use x="620.117188" xlink:href="#DejaVuSans-68"/>
      <use x="697.119141" xlink:href="#DejaVuSans-101"/>
      <use x="758.642578" xlink:href="#DejaVuSans-116"/>
      <use x="797.851562" xlink:href="#DejaVuSans-117"/>
      <use x="861.230469" xlink:href="#DejaVuSans-110"/>
      <use x="924.609375" xlink:href="#DejaVuSans-105"/>
      <use x="952.392578" xlink:href="#DejaVuSans-110"/>
      <use x="1015.771484" xlink:href="#DejaVuSans-103"/>
      <use x="1079.248047" xlink:href="#DejaVuSans-32"/>
      <use x="1111.035156" xlink:href="#DejaVuSans-40"/>
      <use x="1150.048828" xlink:href="#DejaVuSans-71"/>
      <use x="1227.539062" xlink:href="#DejaVuSans-72"/>
      <use x="1302.734375" xlink:href="#DejaVuSans-122"/>
      <use x="1355.224609" xlink:href="#DejaVuSans-41"/>
     </g>
    </g>
   </g>
   <g id="matplotlib.axis_2">
    <g id="ytick_1">
     <g id="line2d_15">
      <path clip-path="url(#pbae0dbd6b8)" d="M 61.410938 222.396729 
L 418.530938 222.396729 
" style="fill:none;stroke:#b0b0b0;stroke-linecap:square;stroke-width:0.8;"/>
     </g>
     <g id="line2d_16">
      <defs>
       <path d="M 0 0 
L -3.5 0 
" id="mc3ce260a5b" style="stroke:#000000;stroke-width:0.8;"/>
      </defs>
      <g>
       <use style="stroke:#000000;stroke-width:0.8;" x="61.410938" xlink:href="#mc3ce260a5b" y="222.396729"/>
      </g>
     </g>
     <g id="text_9">
      <!-- 0.1 -->
      <g transform="translate(30.55625 228.095557)scale(0.15 -0.15)">
       <defs>
        <path d="M 10.6875 12.40625 
L 21 12.40625 
L 21 0 
L 10.6875 0 
z
" id="DejaVuSans-46"/>
       </defs>
       <use xlink:href="#DejaVuSans-48"/>
       <use x="63.623047" xlink:href="#DejaVuSans-46"/>
       <use x="95.410156" xlink:href="#DejaVuSans-49"/>
      </g>
     </g>
    </g>
    <g id="ytick_2">
     <g id="line2d_17">
      <path clip-path="url(#pbae0dbd6b8)" d="M 61.410938 149.553444 
L 418.530938 149.553444 
" style="fill:none;stroke:#b0b0b0;stroke-linecap:square;stroke-width:0.8;"/>
     </g>
     <g id="line2d_18">
      <g>
       <use style="stroke:#000000;stroke-width:0.8;" x="61.410938" xlink:href="#mc3ce260a5b" y="149.553444"/>
      </g>
     </g>
     <g id="text_10">
      <!-- 1 -->
      <g transform="translate(44.867188 155.252272)scale(0.15 -0.15)">
       <use xlink:href="#DejaVuSans-49"/>
      </g>
     </g>
    </g>
    <g id="ytick_3">
     <g id="line2d_19">
      <path clip-path="url(#pbae0dbd6b8)" d="M 61.410938 76.710159 
L 418.530938 76.710159 
" style="fill:none;stroke:#b0b0b0;stroke-linecap:square;stroke-width:0.8;"/>
     </g>
     <g id="line2d_20">
      <g>
       <use style="stroke:#000000;stroke-width:0.8;" x="61.410938" xlink:href="#mc3ce260a5b" y="76.710159"/>
      </g>
     </g>
     <g id="text_11">
      <!-- 10 -->
      <g transform="translate(35.323438 82.408987)scale(0.15 -0.15)">
       <use xlink:href="#DejaVuSans-49"/>
       <use x="63.623047" xlink:href="#DejaVuSans-48"/>
      </g>
     </g>
    </g>
    <g id="ytick_4">
     <g id="line2d_21">
      <defs>
       <path d="M 0 0 
L -2 0 
" id="md0f4fded07" style="stroke:#000000;stroke-width:0.6;"/>
      </defs>
      <g>
       <use style="stroke:#000000;stroke-width:0.6;" x="61.410938" xlink:href="#md0f4fded07" y="273.312"/>
      </g>
     </g>
    </g>
    <g id="ytick_5">
     <g id="line2d_22">
      <g>
       <use style="stroke:#000000;stroke-width:0.6;" x="61.410938" xlink:href="#md0f4fded07" y="260.484934"/>
      </g>
     </g>
    </g>
    <g id="ytick_6">
     <g id="line2d_23">
      <g>
       <use style="stroke:#000000;stroke-width:0.6;" x="61.410938" xlink:href="#md0f4fded07" y="251.383986"/>
      </g>
     </g>
    </g>
    <g id="ytick_7">
     <g id="line2d_24">
      <g>
       <use style="stroke:#000000;stroke-width:0.6;" x="61.410938" xlink:href="#md0f4fded07" y="244.324743"/>
      </g>
     </g>
    </g>
    <g id="ytick_8">
     <g id="line2d_25">
      <g>
       <use style="stroke:#000000;stroke-width:0.6;" x="61.410938" xlink:href="#md0f4fded07" y="238.556921"/>
      </g>
     </g>
    </g>
    <g id="ytick_9">
     <g id="line2d_26">
      <g>
       <use style="stroke:#000000;stroke-width:0.6;" x="61.410938" xlink:href="#md0f4fded07" y="233.680296"/>
      </g>
     </g>
    </g>
    <g id="ytick_10">
     <g id="line2d_27">
      <g>
       <use style="stroke:#000000;stroke-width:0.6;" x="61.410938" xlink:href="#md0f4fded07" y="229.455973"/>
      </g>
     </g>
    </g>
    <g id="ytick_11">
     <g id="line2d_28">
      <g>
       <use style="stroke:#000000;stroke-width:0.6;" x="61.410938" xlink:href="#md0f4fded07" y="225.729855"/>
      </g>
     </g>
    </g>
    <g id="ytick_12">
     <g id="line2d_29">
      <g>
       <use style="stroke:#000000;stroke-width:0.6;" x="61.410938" xlink:href="#md0f4fded07" y="200.468715"/>
      </g>
     </g>
    </g>
    <g id="ytick_13">
     <g id="line2d_30">
      <g>
       <use style="stroke:#000000;stroke-width:0.6;" x="61.410938" xlink:href="#md0f4fded07" y="187.641649"/>
      </g>
     </g>
    </g>
    <g id="ytick_14">
     <g id="line2d_31">
      <g>
       <use style="stroke:#000000;stroke-width:0.6;" x="61.410938" xlink:href="#md0f4fded07" y="178.540701"/>
      </g>
     </g>
    </g>
    <g id="ytick_15">
     <g id="line2d_32">
      <g>
       <use style="stroke:#000000;stroke-width:0.6;" x="61.410938" xlink:href="#md0f4fded07" y="171.481458"/>
      </g>
     </g>
    </g>
    <g id="ytick_16">
     <g id="line2d_33">
      <g>
       <use style="stroke:#000000;stroke-width:0.6;" x="61.410938" xlink:href="#md0f4fded07" y="165.713636"/>
      </g>
     </g>
    </g>
    <g id="ytick_17">
     <g id="line2d_34">
      <g>
       <use style="stroke:#000000;stroke-width:0.6;" x="61.410938" xlink:href="#md0f4fded07" y="160.837012"/>
      </g>
     </g>
    </g>
    <g id="ytick_18">
     <g id="line2d_35">
      <g>
       <use style="stroke:#000000;stroke-width:0.6;" x="61.410938" xlink:href="#md0f4fded07" y="156.612688"/>
      </g>
     </g>
    </g>
    <g id="ytick_19">
     <g id="line2d_36">
      <g>
       <use style="stroke:#000000;stroke-width:0.6;" x="61.410938" xlink:href="#md0f4fded07" y="152.88657"/>
      </g>
     </g>
    </g>
    <g id="ytick_20">
     <g id="line2d_37">
      <g>
       <use style="stroke:#000000;stroke-width:0.6;" x="61.410938" xlink:href="#md0f4fded07" y="127.62543"/>
      </g>
     </g>
    </g>
    <g id="ytick_21">
     <g id="line2d_38">
      <g>
       <use style="stroke:#000000;stroke-width:0.6;" x="61.410938" xlink:href="#md0f4fded07" y="114.798364"/>
      </g>
     </g>
    </g>
    <g id="ytick_22">
     <g id="line2d_39">
      <g>
       <use style="stroke:#000000;stroke-width:0.6;" x="61.410938" xlink:href="#md0f4fded07" y="105.697416"/>
      </g>
     </g>
    </g>
    <g id="ytick_23">
     <g id="line2d_40">
      <g>
       <use style="stroke:#000000;stroke-width:0.6;" x="61.410938" xlink:href="#md0f4fded07" y="98.638173"/>
      </g>
     </g>
    </g>
    <g id="ytick_24">
     <g id="line2d_41">
      <g>
       <use style="stroke:#000000;stroke-width:0.6;" x="61.410938" xlink:href="#md0f4fded07" y="92.870351"/>
      </g>
     </g>
    </g>
    <g id="ytick_25">
     <g id="line2d_42">
      <g>
       <use style="stroke:#000000;stroke-width:0.6;" x="61.410938" xlink:href="#md0f4fded07" y="87.993727"/>
      </g>
     </g>
    </g>
    <g id="ytick_26">
     <g id="line2d_43">
      <g>
       <use style="stroke:#000000;stroke-width:0.6;" x="61.410938" xlink:href="#md0f4fded07" y="83.769403"/>
      </g>
     </g>
    </g>
    <g id="ytick_27">
     <g id="line2d_44">
      <g>
       <use style="stroke:#000000;stroke-width:0.6;" x="61.410938" xlink:href="#md0f4fded07" y="80.043285"/>
      </g>
     </g>
    </g>
    <g id="ytick_28">
     <g id="line2d_45">
      <g>
       <use style="stroke:#000000;stroke-width:0.6;" x="61.410938" xlink:href="#md0f4fded07" y="54.782145"/>
      </g>
     </g>
    </g>
    <g id="ytick_29">
     <g id="line2d_46">
      <g>
       <use style="stroke:#000000;stroke-width:0.6;" x="61.410938" xlink:href="#md0f4fded07" y="41.955079"/>
      </g>
     </g>
    </g>
    <g id="ytick_30">
     <g id="line2d_47">
      <g>
       <use style="stroke:#000000;stroke-width:0.6;" x="61.410938" xlink:href="#md0f4fded07" y="32.854132"/>
      </g>
     </g>
    </g>
    <g id="ytick_31">
     <g id="line2d_48">
      <g>
       <use style="stroke:#000000;stroke-width:0.6;" x="61.410938" xlink:href="#md0f4fded07" y="25.794888"/>
      </g>
     </g>
    </g>
    <g id="ytick_32">
     <g id="line2d_49">
      <g>
       <use style="stroke:#000000;stroke-width:0.6;" x="61.410938" xlink:href="#md0f4fded07" y="20.027066"/>
      </g>
     </g>
    </g>
    <g id="ytick_33">
     <g id="line2d_50">
      <g>
       <use style="stroke:#000000;stroke-width:0.6;" x="61.410938" xlink:href="#md0f4fded07" y="15.150442"/>
      </g>
     </g>
    </g>
    <g id="ytick_34">
     <g id="line2d_51">
      <g>
       <use style="stroke:#000000;stroke-width:0.6;" x="61.410938" xlink:href="#md0f4fded07" y="10.926118"/>
      </g>
     </g>
    </g>
    <g id="ytick_35">
     <g id="line2d_52">
      <g>
       <use style="stroke:#000000;stroke-width:0.6;" x="61.410938" xlink:href="#md0f4fded07" y="7.2"/>
      </g>
     </g>
    </g>
    <g id="text_12">
     <!-- $\Omega_{R}/\Gamma_{s}$ -->
     <g transform="translate(22.396875 166.156)rotate(-90)scale(0.2 -0.2)">
      <defs>
       <path d="M 72.609375 8.6875 
L 72.609375 0 
L 43.3125 0 
L 43.3125 8.6875 
Q 51.953125 13.421875 56.78125 21.53125 
Q 61.625 29.640625 61.625 39.5 
Q 61.625 51.21875 55.171875 58.296875 
Q 48.734375 65.375 38.1875 65.375 
Q 27.640625 65.375 21.171875 58.265625 
Q 14.703125 51.171875 14.703125 39.5 
Q 14.703125 29.640625 19.53125 21.53125 
Q 24.421875 13.421875 33.109375 8.6875 
L 33.109375 0 
L 3.8125 0 
L 3.8125 8.6875 
L 19.390625 8.6875 
Q 11.671875 15.484375 8.109375 22.75 
Q 4.59375 30.03125 4.59375 39.015625 
Q 4.59375 54.546875 13.96875 64.15625 
Q 23.296875 73.78125 38.1875 73.78125 
Q 52.984375 73.78125 62.40625 64.15625 
Q 71.78125 54.59375 71.78125 39.5 
Q 71.78125 30.03125 68.3125 22.796875 
Q 64.84375 15.578125 56.984375 8.6875 
z
" id="DejaVuSans-937"/>
       <path d="M 25.203125 64.796875 
L 20.21875 38.921875 
L 32.90625 38.921875 
Q 40.375 38.921875 44.984375 43.046875 
Q 49.609375 47.171875 49.609375 53.8125 
Q 49.609375 59.125 46.5 61.953125 
Q 43.40625 64.796875 37.59375 64.796875 
z
M 43.3125 35.015625 
Q 46.4375 34.28125 48.515625 31.390625 
Q 50.59375 28.515625 53.328125 19.921875 
L 59.515625 0 
L 49.125 0 
L 43.40625 18.703125 
Q 41.21875 25.921875 38.328125 28.359375 
Q 35.453125 30.8125 29.5 30.8125 
L 18.609375 30.8125 
L 12.59375 0 
L 2.6875 0 
L 16.890625 72.90625 
L 39.109375 72.90625 
Q 49.21875 72.90625 54.609375 68.328125 
Q 60.015625 63.765625 60.015625 55.171875 
Q 60.015625 47.5625 55.421875 41.984375 
Q 50.828125 36.421875 43.3125 35.015625 
z
" id="DejaVuSans-Oblique-82"/>
       <path d="M 25.390625 72.90625 
L 33.6875 72.90625 
L 8.296875 -9.28125 
L 0 -9.28125 
z
" id="DejaVuSans-47"/>
       <path d="M 9.8125 0 
L 9.8125 72.90625 
L 55.171875 72.90625 
L 55.171875 64.59375 
L 19.671875 64.59375 
L 19.671875 0 
z
" id="DejaVuSans-915"/>
       <path d="M 50 53.078125 
L 48.296875 44.578125 
Q 44.734375 46.53125 40.765625 47.5 
Q 36.8125 48.484375 32.625 48.484375 
Q 25.53125 48.484375 21.453125 46.0625 
Q 17.390625 43.65625 17.390625 39.5 
Q 17.390625 34.671875 26.859375 32.078125 
Q 27.59375 31.890625 27.9375 31.78125 
L 30.8125 30.90625 
Q 39.796875 28.421875 42.796875 25.6875 
Q 45.796875 22.953125 45.796875 18.21875 
Q 45.796875 9.515625 38.890625 4.046875 
Q 31.984375 -1.421875 20.796875 -1.421875 
Q 16.453125 -1.421875 11.671875 -0.578125 
Q 6.890625 0.25 1.125 2 
L 2.875 11.28125 
Q 7.8125 8.734375 12.59375 7.421875 
Q 17.390625 6.109375 21.78125 6.109375 
Q 28.375 6.109375 32.5 8.9375 
Q 36.625 11.765625 36.625 16.109375 
Q 36.625 20.796875 25.78125 23.6875 
L 24.859375 23.921875 
L 21.78125 24.703125 
Q 14.9375 26.515625 11.765625 29.46875 
Q 8.59375 32.421875 8.59375 37.015625 
Q 8.59375 45.75 15.15625 50.875 
Q 21.734375 56 33.015625 56 
Q 37.453125 56 41.671875 55.265625 
Q 45.90625 54.546875 50 53.078125 
z
" id="DejaVuSans-Oblique-115"/>
      </defs>
      <use transform="translate(0 0.21875)" xlink:href="#DejaVuSans-937"/>
      <use transform="translate(77.373047 -16.1875)scale(0.7)" xlink:href="#DejaVuSans-Oblique-82"/>
      <use transform="translate(128.745117 0.21875)" xlink:href="#DejaVuSans-47"/>
      <use transform="translate(162.436523 0.21875)" xlink:href="#DejaVuSans-915"/>
      <use transform="translate(219.106445 -16.1875)scale(0.7)" xlink:href="#DejaVuSans-Oblique-115"/>
     </g>
    </g>
   </g>
   <g id="line2d_53">
    <path clip-path="url(#pbae0dbd6b8)" d="M 61.282225 40.268242 
L 76.286389 39.681802 
L 89.525356 39.383977 
L 101.293327 39.338905 
L 111.884501 39.5187 
L 121.445978 39.900784 
L 130.124856 40.465684 
L 138.068237 41.199681 
L 145.423219 42.097657 
L 152.189802 43.140974 
L 158.515087 44.335331 
L 164.399072 45.666491 
L 169.988858 47.158144 
L 175.137346 48.757643 
L 179.991634 50.493974 
L 184.551723 52.3574 
L 188.817612 54.33546 
L 192.789302 56.412647 
L 196.613893 58.661475 
L 200.144284 60.98882 
L 203.527576 63.483911 
L 206.763768 66.155553 
L 209.705761 68.870437 
L 212.500654 71.750132 
L 215.148447 74.802117 
L 217.649141 78.034908 
L 220.002736 81.458136 
L 222.20923 85.082537 
L 224.268625 88.919846 
L 226.18092 92.982478 
L 227.946116 97.282857 
L 229.564212 101.832157 
L 231.035208 106.638029 
L 232.359105 111.700647 
L 233.535902 117.006002 
L 234.712699 123.386429 
L 235.742397 130.268894 
L 236.624995 137.655556 
L 237.360493 145.47726 
L 238.095991 155.882893 
L 238.68439 167.683181 
L 239.125689 180.772612 
L 239.419888 193.988431 
L 239.714087 217.096297 
L 239.861187 241.511291 
L 240.008286 298.844522 
L 240.302486 212.664701 
L 240.743785 184.960642 
L 241.185084 170.431342 
L 241.773482 157.80612 
L 242.50898 146.921054 
L 243.391578 137.459554 
L 244.421276 129.141309 
L 245.450973 122.580777 
L 246.62777 116.466763 
L 247.951667 110.78529 
L 249.422663 105.507957 
L 250.89366 101.016401 
L 252.511756 96.749509 
L 254.276951 92.707754 
L 256.189247 88.886461 
L 258.248642 85.278359 
L 260.455136 81.875119 
L 262.80873 78.668254 
L 265.309424 75.649633 
L 267.957218 72.811743 
L 270.752111 70.147803 
L 273.694104 67.651792 
L 276.783196 65.318412 
L 280.166488 63.050033 
L 283.696879 60.956823 
L 287.37437 59.032103 
L 291.34606 57.206843 
L 295.46485 55.55558 
L 299.877839 54.024319 
L 304.585028 52.628156 
L 309.586416 51.37951 
L 314.882003 50.288398 
L 320.471789 49.362666 
L 326.502874 48.591999 
L 332.975258 47.995475 
L 339.888941 47.588433 
L 347.243923 47.382815 
L 355.040204 47.387602 
L 363.424883 47.615138 
L 372.545061 48.089872 
L 382.253637 48.82136 
L 392.697711 49.83544 
L 403.730184 51.132014 
L 415.351056 52.722031 
L 418.587248 53.20307 
L 418.587248 53.20307 
" style="fill:none;stroke:#1f77b4;stroke-linecap:square;stroke-width:1.5;"/>
   </g>
   <g id="line2d_54">
    <path clip-path="url(#pbae0dbd6b8)" d="M 61.410081 146.648686 
L 71.195194 150.25864 
L 79.15899 153.42777 
L 85.872862 156.332588 
L 91.693933 159.088487 
L 96.800762 161.748972 
L 101.300485 164.340151 
L 105.300239 166.895423 
L 108.90716 169.4614 
L 112.15696 172.045263 
L 115.085351 174.655125 
L 117.763758 177.339652 
L 120.19218 180.086078 
L 122.442042 182.968637 
L 124.477631 185.934657 
L 126.370372 189.084446 
L 128.120264 192.430836 
L 129.727308 195.983701 
L 131.227216 199.846916 
L 132.619987 204.068734 
L 133.86991 208.567219 
L 135.012697 213.496908 
L 136.08406 219.129841 
L 137.048286 225.436225 
L 137.905376 232.55939 
L 138.65533 240.689485 
L 139.298148 250.083066 
L 139.833829 261.08733 
L 140.298086 275.538899 
L 140.655207 294.55301 
L 140.905192 322.219752 
L 140.926185 326.385437 
M 141.238234 326.385437 
L 141.512298 293.915211 
L 141.90513 273.14611 
L 142.4051 257.831231 
L 143.047917 244.91922 
L 143.797871 234.24064 
L 144.690673 224.694566 
L 145.726324 216.051101 
L 146.904823 208.118275 
L 148.22617 200.740712 
L 149.726078 193.634776 
L 151.404546 186.754272 
L 153.332999 179.796969 
L 155.547149 172.661206 
L 158.082707 165.25395 
L 160.939674 157.599964 
L 163.760929 150.654345 
L 166.010791 145.659821 
L 167.653547 142.509776 
L 168.867758 140.623423 
L 169.796272 139.563184 
L 170.510514 139.060744 
L 171.081907 138.914208 
L 171.581877 139.018134 
L 172.046134 139.35047 
L 172.546103 140.016223 
L 173.046072 141.07181 
L 173.581754 142.741817 
L 174.153147 145.310112 
L 174.724541 148.958765 
L 175.295934 154.119431 
L 175.831615 161.008592 
L 176.331585 170.38599 
L 176.76013 182.671485 
L 177.117251 199.748392 
L 177.367235 222.722167 
L 177.510084 253.214799 
L 177.581508 306.736095 
L 177.61722 300.437764 
L 177.79578 227.173665 
L 178.081477 198.840947 
L 178.47431 180.056197 
L 178.974279 166.041376 
L 179.581385 155.140829 
L 180.224202 147.327723 
L 180.902732 141.54457 
L 181.616974 137.251227 
L 182.331216 134.240855 
L 183.045457 132.158702 
L 183.723987 130.821089 
L 184.402517 129.956926 
L 185.045334 129.475267 
L 185.723864 129.24264 
L 186.438106 129.234639 
L 187.259484 129.453164 
L 188.259422 129.958905 
L 189.545058 130.87124 
L 191.366374 132.462764 
L 194.401902 135.457001 
L 206.829709 148.24524 
L 209.472403 151.296369 
L 211.329432 153.771525 
L 212.757916 156.042384 
L 213.900702 158.271077 
L 214.864929 160.642079 
L 215.686307 163.260829 
L 216.400549 166.294348 
L 217.043366 170.05223 
L 217.61476 174.822787 
L 218.114729 180.995145 
L 218.543274 189.079804 
L 218.936107 201.123352 
L 219.257516 218.801752 
L 219.471788 242.389758 
L 219.614637 284.62679 
L 219.650349 321.462616 
L 219.721773 283.458054 
L 219.936046 235.456514 
L 220.221742 218.616184 
L 220.364591 216.562227 
L 220.400303 216.619076 
L 220.507439 218.323175 
L 220.650287 225.309667 
L 220.793136 243.134836 
L 220.900272 289.632076 
L 220.931888 326.385437 
M 220.938991 326.385437 
L 221.078832 232.96105 
L 221.364529 195.775188 
L 221.72165 176.066553 
L 222.114483 165.391515 
L 222.507316 159.941127 
L 222.900149 157.119395 
L 223.292982 155.699679 
L 223.685815 155.059934 
L 224.042936 154.874422 
L 224.435769 154.933899 
L 224.97145 155.278935 
L 225.792828 156.118399 
L 227.1856 157.908922 
L 229.114053 160.755304 
L 230.721097 163.507893 
L 231.97102 166.080116 
L 233.00667 168.714966 
L 233.899472 171.605222 
L 234.685138 174.941681 
L 235.363668 178.827488 
L 235.970774 183.655627 
L 236.506455 189.78651 
L 236.970712 197.729124 
L 237.363545 208.242328 
L 237.684954 222.613441 
L 237.934939 243.687555 
L 238.077787 269.97456 
L 238.156918 326.385437 
M 238.213579 326.385437 
L 238.327772 261.461365 
L 238.577756 229.885569 
L 238.899165 213.522879 
L 239.184862 208.13241 
L 239.256286 207.950605 
L 239.291998 208.051718 
L 239.399134 209.21316 
L 239.577695 214.830083 
L 239.756255 228.656251 
L 239.899103 258.502761 
L 239.964392 326.385437 
M 239.977923 326.385437 
L 240.149088 229.482709 
L 240.434785 196.47186 
L 240.791906 178.424275 
L 241.184739 168.554463 
L 241.577572 163.527768 
L 241.970405 160.990017 
L 242.363238 159.802933 
L 242.684646 159.414391 
L 243.006055 159.349863 
L 243.363176 159.524716 
L 243.863145 160.043401 
L 244.613099 161.173333 
L 245.613038 163.099541 
L 246.541552 165.351552 
L 247.291506 167.743163 
L 247.898611 170.422474 
L 248.398581 173.61735 
L 248.827126 177.761686 
L 249.219959 183.893852 
L 249.541368 192.458337 
L 249.827064 206.329859 
L 250.041337 226.925411 
L 250.184185 257.512762 
L 250.290204 326.385437 
M 250.291955 326.385437 
L 250.43417 251.276741 
L 250.577018 242.955441 
L 250.648442 247.046127 
L 250.755579 274.823237 
L 250.791291 313.660547 
L 250.827003 295.234086 
L 251.005563 218.621479 
L 251.29126 187.296629 
L 251.612669 173.795462 
L 251.934078 168.167684 
L 252.255486 165.701989 
L 252.576895 164.638299 
L 252.898304 164.246099 
L 253.219713 164.195908 
L 253.648258 164.397215 
L 254.398212 165.060014 
L 257.255179 168.106558 
L 260.790676 171.628543 
L 271.647151 182.232898 
L 275.039799 185.96925 
L 277.932479 189.480796 
L 280.503749 192.946303 
L 282.825035 196.443362 
L 284.932048 200.013955 
L 286.860501 203.71362 
L 288.646105 207.621371 
L 290.288861 211.757644 
L 291.788769 216.13977 
L 293.181541 220.911783 
L 294.431464 225.990863 
L 295.574251 231.567101 
L 296.609901 237.738674 
L 297.538416 244.633558 
L 298.359794 252.423031 
L 299.074035 261.343069 
L 299.681141 271.728844 
L 300.18111 284.069175 
L 300.573943 299.076979 
L 300.85964 317.652997 
L 300.945039 326.385437 
M 301.484089 326.385437 
L 301.788154 302.294602 
L 302.216699 284.501918 
L 302.788093 270.050455 
L 303.466622 258.497601 
L 304.252288 248.782349 
L 305.180803 240.044622 
L 306.216453 232.359987 
L 307.394952 225.259932 
L 308.7163 218.655234 
L 310.180495 212.463855 
L 311.823251 206.491621 
L 313.644568 200.717369 
L 315.680157 195.013172 
L 317.965731 189.280741 
L 320.572713 183.355724 
L 323.608241 177.022263 
L 327.35801 169.732664 
L 333.071944 159.171211 
L 341.142877 144.192197 
L 350.642292 126.283629 
L 351.713655 124.870516 
L 352.499321 124.169275 
L 353.070714 123.923809 
L 353.534972 123.946102 
L 353.963517 124.192728 
L 354.392062 124.712173 
L 354.856319 125.664527 
L 355.356288 127.27655 
L 355.856257 129.697491 
L 356.356227 133.227944 
L 356.856196 138.342904 
L 357.356165 145.88567 
L 357.820422 156.61848 
L 358.213255 171.403554 
L 358.498952 190.479898 
L 358.713225 222.031955 
L 358.820361 283.895075 
L 358.891785 248.703676 
L 359.106057 198.022509 
L 359.427466 173.533579 
L 359.856011 157.277869 
L 360.355981 146.503256 
L 360.85595 140.10636 
L 361.320207 136.683531 
L 361.71304 135.255134 
L 361.963025 134.966616 
L 362.141585 135.043613 
L 362.355858 135.446086 
L 362.641554 136.521405 
L 362.998675 138.793871 
L 363.42722 143.103329 
L 363.891477 150.311395 
L 364.355735 161.48464 
L 364.748568 176.321396 
L 365.105688 199.121888 
L 365.355673 231.752925 
L 365.462809 267.129389 
L 365.534234 310.913778 
L 365.569946 272.78686 
L 365.784218 225.401911 
L 366.034203 212.387991 
L 366.177051 210.752863 
L 366.212763 210.849098 
L 366.3199 212.374166 
L 366.49846 219.990776 
L 366.67702 240.313295 
L 366.784157 279.749145 
L 366.805081 326.385437 
M 366.835427 326.385437 
L 366.962717 235.683989 
L 367.248414 196.274555 
L 367.641247 171.940667 
L 368.105504 155.695822 
L 368.641185 144.380152 
L 369.176867 137.345897 
L 369.74826 132.60686 
L 370.319654 129.634792 
L 370.891047 127.791266 
L 371.426728 126.743575 
L 371.96241 126.147605 
L 372.498091 125.870104 
L 373.069484 125.823665 
L 373.748014 126.003155 
L 374.605104 126.473242 
L 375.819315 127.418373 
L 377.747768 129.24017 
L 386.175821 137.473868 
L 389.818454 140.594858 
L 393.603936 143.542473 
L 397.639402 146.399425 
L 401.996277 149.208602 
L 406.745985 152.004651 
L 411.995662 154.834187 
L 417.852444 157.733752 
L 418.530974 158.054852 
L 418.530974 158.054852 
" style="fill:none;stroke:#ff7f0e;stroke-dasharray:5.55,2.4;stroke-dashoffset:0;stroke-width:1.5;"/>
   </g>
   <g id="patch_3">
    <path d="M 61.410938 273.312 
L 61.410938 7.2 
" style="fill:none;stroke:#000000;stroke-linecap:square;stroke-linejoin:miter;stroke-width:0.8;"/>
   </g>
   <g id="patch_4">
    <path d="M 418.530938 273.312 
L 418.530938 7.2 
" style="fill:none;stroke:#000000;stroke-linecap:square;stroke-linejoin:miter;stroke-width:0.8;"/>
   </g>
   <g id="patch_5">
    <path d="M 61.410937 273.312 
L 418.530938 273.312 
" style="fill:none;stroke:#000000;stroke-linecap:square;stroke-linejoin:miter;stroke-width:0.8;"/>
   </g>
   <g id="patch_6">
    <path d="M 61.410937 7.2 
L 418.530938 7.2 
" style="fill:none;stroke:#000000;stroke-linecap:square;stroke-linejoin:miter;stroke-width:0.8;"/>
   </g>
   <g id="legend_1">
    <g id="patch_7">
     <path d="M 71.126937 136.100037 
L 141.359737 136.100037 
Q 144.135738 136.100037 144.135738 133.324037 
L 144.135738 93.965562 
Q 144.135738 91.189562 141.359737 91.189562 
L 71.126937 91.189562 
Q 68.350938 91.189562 68.350938 93.965562 
L 68.350938 133.324037 
Q 68.350938 136.100037 71.126937 136.100037 
z
" style="fill:#ffffff;opacity:0.8;stroke:#cccccc;stroke-linejoin:miter;"/>
    </g>
    <g id="line2d_55">
     <path d="M 73.902938 102.430194 
L 87.782938 102.430194 
" style="fill:none;stroke:#1f77b4;stroke-linecap:square;stroke-width:1.5;"/>
    </g>
    <g id="line2d_56"/>
    <g id="text_13">
     <!-- $v'=0$ -->
     <g transform="translate(91.946938 107.288194)scale(0.1388 -0.1388)">
      <defs>
       <path d="M 7.171875 54.6875 
L 16.703125 54.6875 
L 24.703125 8.203125 
L 50.875 54.6875 
L 60.40625 54.6875 
L 29.296875 0 
L 17.1875 0 
z
" id="DejaVuSans-Oblique-118"/>
       <path d="M 3.515625 5.421875 
Q 2.875 5.609375 2.875 6.390625 
L 15.09375 51.8125 
Q 15.671875 53.65625 17.078125 54.78125 
Q 18.5 55.90625 20.3125 55.90625 
Q 22.65625 55.90625 24.4375 54.359375 
Q 26.21875 52.828125 26.21875 50.484375 
Q 26.21875 49.46875 25.6875 48.1875 
L 7.625 4.984375 
Q 7.28125 4.296875 6.6875 4.296875 
Q 6.15625 4.296875 5 4.78125 
Q 3.859375 5.28125 3.515625 5.421875 
z
" id="Cmsy10-48"/>
       <path d="M 10.59375 45.40625 
L 73.1875 45.40625 
L 73.1875 37.203125 
L 10.59375 37.203125 
z
M 10.59375 25.484375 
L 73.1875 25.484375 
L 73.1875 17.1875 
L 10.59375 17.1875 
z
" id="DejaVuSans-61"/>
      </defs>
      <use transform="translate(0 0.584375)" xlink:href="#DejaVuSans-Oblique-118"/>
      <use transform="translate(63.645833 38.865625)scale(0.7)" xlink:href="#Cmsy10-48"/>
      <use transform="translate(105.105794 0.584375)" xlink:href="#DejaVuSans-61"/>
      <use transform="translate(208.377279 0.584375)" xlink:href="#DejaVuSans-48"/>
     </g>
    </g>
    <g id="line2d_57">
     <path d="M 73.902938 122.803431 
L 87.782938 122.803431 
" style="fill:none;stroke:#ff7f0e;stroke-dasharray:5.55,2.4;stroke-dashoffset:0;stroke-width:1.5;"/>
    </g>
    <g id="line2d_58"/>
    <g id="text_14">
     <!-- $v'=40$ -->
     <g transform="translate(91.946938 127.661431)scale(0.1388 -0.1388)">
      <defs>
       <path d="M 37.796875 64.3125 
L 12.890625 25.390625 
L 37.796875 25.390625 
z
M 35.203125 72.90625 
L 47.609375 72.90625 
L 47.609375 25.390625 
L 58.015625 25.390625 
L 58.015625 17.1875 
L 47.609375 17.1875 
L 47.609375 0 
L 37.796875 0 
L 37.796875 17.1875 
L 4.890625 17.1875 
L 4.890625 26.703125 
z
" id="DejaVuSans-52"/>
      </defs>
      <use transform="translate(0 0.584375)" xlink:href="#DejaVuSans-Oblique-118"/>
      <use transform="translate(63.645833 38.865625)scale(0.7)" xlink:href="#Cmsy10-48"/>
      <use transform="translate(105.105794 0.584375)" xlink:href="#DejaVuSans-61"/>
      <use transform="translate(208.377279 0.584375)" xlink:href="#DejaVuSans-52"/>
      <use transform="translate(272.000326 0.584375)" xlink:href="#DejaVuSans-48"/>
     </g>
    </g>
   </g>
  </g>
 </g>
 <defs>
  <clipPath id="pbae0dbd6b8">
   <rect height="266.112" width="357.12" x="61.410938" y="7.2"/>
  </clipPath>
 </defs>
</svg>
