<?xml version="1.0" encoding="utf-8" standalone="no"?>
<!DOCTYPE svg PUBLIC "-//W3C//DTD SVG 1.1//EN"
  "http://www.w3.org/Graphics/SVG/1.1/DTD/svg11.dtd">
<!-- Created with matplotlib (https://matplotlib.org/) -->
<svg height="458.441437pt" version="1.1" viewBox="0 0 370.6899 458.441437" width="370.6899pt" xmlns="http://www.w3.org/2000/svg" xmlns:xlink="http://www.w3.org/1999/xlink">
 <defs>
  <style type="text/css">*{stroke-linecap:butt;stroke-linejoin:round;}</style>
 </defs>
 <g id="figure_1">
  <g id="patch_1">
   <path d="M 0 458.441437 
L 370.6899 458.441437 
L 370.6899 0 
L 0 0 
z
" style="fill:none;"/>
  </g>
  <g id="axes_1">
   <g id="patch_2">
    <path d="M 66.1875 138.678261 
L 363.4899 138.678261 
L 363.4899 7.2 
L 66.1875 7.2 
z
" style="fill:none;"/>
   </g>
   <g id="matplotlib.axis_1">
    <g id="xtick_1">
     <g id="line2d_1">
      <path clip-path="url(#p998e2626a8)" d="M 129.895157 138.678261 
L 129.895157 7.2 
" style="fill:none;stroke:#b0b0b0;stroke-linecap:square;stroke-width:0.8;"/>
     </g>
     <g id="line2d_2"/>
    </g>
    <g id="xtick_2">
     <g id="line2d_3">
      <path clip-path="url(#p998e2626a8)" d="M 214.8387 138.678261 
L 214.8387 7.2 
" style="fill:none;stroke:#b0b0b0;stroke-linecap:square;stroke-width:0.8;"/>
     </g>
     <g id="line2d_4"/>
    </g>
    <g id="xtick_3">
     <g id="line2d_5">
      <path clip-path="url(#p998e2626a8)" d="M 299.782243 138.678261 
L 299.782243 7.2 
" style="fill:none;stroke:#b0b0b0;stroke-linecap:square;stroke-width:0.8;"/>
     </g>
     <g id="line2d_6"/>
    </g>
   </g>
   <g id="matplotlib.axis_2">
    <g id="ytick_1">
     <g id="line2d_7">
      <path clip-path="url(#p998e2626a8)" d="M 66.1875 117.85228 
L 363.4899 117.85228 
" style="fill:none;stroke:#b0b0b0;stroke-linecap:square;stroke-width:0.8;"/>
     </g>
     <g id="line2d_8">
      <defs>
       <path d="M 0 0 
L -3.5 0 
" id="mc3ce260a5b" style="stroke:#000000;stroke-width:0.8;"/>
      </defs>
      <g>
       <use style="stroke:#000000;stroke-width:0.8;" x="66.1875" xlink:href="#mc3ce260a5b" y="117.85228"/>
      </g>
     </g>
     <g id="text_1">
      <!-- 1 -->
      <g transform="translate(49.64375 123.551108)scale(0.15 -0.15)">
       <defs>
        <path d="M 12.40625 8.296875 
L 28.515625 8.296875 
L 28.515625 63.921875 
L 10.984375 60.40625 
L 10.984375 69.390625 
L 28.421875 72.90625 
L 38.28125 72.90625 
L 38.28125 8.296875 
L 54.390625 8.296875 
L 54.390625 0 
L 12.40625 0 
z
" id="DejaVuSans-49"/>
       </defs>
       <use xlink:href="#DejaVuSans-49"/>
      </g>
     </g>
    </g>
    <g id="ytick_2">
     <g id="line2d_9">
      <path clip-path="url(#p998e2626a8)" d="M 66.1875 78.022814 
L 363.4899 78.022814 
" style="fill:none;stroke:#b0b0b0;stroke-linecap:square;stroke-width:0.8;"/>
     </g>
     <g id="line2d_10">
      <g>
       <use style="stroke:#000000;stroke-width:0.8;" x="66.1875" xlink:href="#mc3ce260a5b" y="78.022814"/>
      </g>
     </g>
     <g id="text_2">
      <!-- 10 -->
      <g transform="translate(40.1 83.721642)scale(0.15 -0.15)">
       <defs>
        <path d="M 31.78125 66.40625 
Q 24.171875 66.40625 20.328125 58.90625 
Q 16.5 51.421875 16.5 36.375 
Q 16.5 21.390625 20.328125 13.890625 
Q 24.171875 6.390625 31.78125 6.390625 
Q 39.453125 6.390625 43.28125 13.890625 
Q 47.125 21.390625 47.125 36.375 
Q 47.125 51.421875 43.28125 58.90625 
Q 39.453125 66.40625 31.78125 66.40625 
z
M 31.78125 74.21875 
Q 44.046875 74.21875 50.515625 64.515625 
Q 56.984375 54.828125 56.984375 36.375 
Q 56.984375 17.96875 50.515625 8.265625 
Q 44.046875 -1.421875 31.78125 -1.421875 
Q 19.53125 -1.421875 13.0625 8.265625 
Q 6.59375 17.96875 6.59375 36.375 
Q 6.59375 54.828125 13.0625 64.515625 
Q 19.53125 74.21875 31.78125 74.21875 
z
" id="DejaVuSans-48"/>
       </defs>
       <use xlink:href="#DejaVuSans-49"/>
       <use x="63.623047" xlink:href="#DejaVuSans-48"/>
      </g>
     </g>
    </g>
    <g id="ytick_3">
     <g id="line2d_11">
      <path clip-path="url(#p998e2626a8)" d="M 66.1875 38.193349 
L 363.4899 38.193349 
" style="fill:none;stroke:#b0b0b0;stroke-linecap:square;stroke-width:0.8;"/>
     </g>
     <g id="line2d_12">
      <g>
       <use style="stroke:#000000;stroke-width:0.8;" x="66.1875" xlink:href="#mc3ce260a5b" y="38.193349"/>
      </g>
     </g>
     <g id="text_3">
      <!-- 100 -->
      <g transform="translate(30.55625 43.892177)scale(0.15 -0.15)">
       <use xlink:href="#DejaVuSans-49"/>
       <use x="63.623047" xlink:href="#DejaVuSans-48"/>
       <use x="127.246094" xlink:href="#DejaVuSans-48"/>
      </g>
     </g>
    </g>
    <g id="ytick_4">
     <g id="line2d_13">
      <defs>
       <path d="M 0 0 
L -2 0 
" id="md0f4fded07" style="stroke:#000000;stroke-width:0.6;"/>
      </defs>
      <g>
       <use style="stroke:#000000;stroke-width:0.6;" x="66.1875" xlink:href="#md0f4fded07" y="138.678261"/>
      </g>
     </g>
    </g>
    <g id="ytick_5">
     <g id="line2d_14">
      <g>
       <use style="stroke:#000000;stroke-width:0.6;" x="66.1875" xlink:href="#md0f4fded07" y="133.702018"/>
      </g>
     </g>
    </g>
    <g id="ytick_6">
     <g id="line2d_15">
      <g>
       <use style="stroke:#000000;stroke-width:0.6;" x="66.1875" xlink:href="#md0f4fded07" y="129.842144"/>
      </g>
     </g>
    </g>
    <g id="ytick_7">
     <g id="line2d_16">
      <g>
       <use style="stroke:#000000;stroke-width:0.6;" x="66.1875" xlink:href="#md0f4fded07" y="126.688397"/>
      </g>
     </g>
    </g>
    <g id="ytick_8">
     <g id="line2d_17">
      <g>
       <use style="stroke:#000000;stroke-width:0.6;" x="66.1875" xlink:href="#md0f4fded07" y="124.021942"/>
      </g>
     </g>
    </g>
    <g id="ytick_9">
     <g id="line2d_18">
      <g>
       <use style="stroke:#000000;stroke-width:0.6;" x="66.1875" xlink:href="#md0f4fded07" y="121.712154"/>
      </g>
     </g>
    </g>
    <g id="ytick_10">
     <g id="line2d_19">
      <g>
       <use style="stroke:#000000;stroke-width:0.6;" x="66.1875" xlink:href="#md0f4fded07" y="119.674776"/>
      </g>
     </g>
    </g>
    <g id="ytick_11">
     <g id="line2d_20">
      <g>
       <use style="stroke:#000000;stroke-width:0.6;" x="66.1875" xlink:href="#md0f4fded07" y="105.862416"/>
      </g>
     </g>
    </g>
    <g id="ytick_12">
     <g id="line2d_21">
      <g>
       <use style="stroke:#000000;stroke-width:0.6;" x="66.1875" xlink:href="#md0f4fded07" y="98.848795"/>
      </g>
     </g>
    </g>
    <g id="ytick_13">
     <g id="line2d_22">
      <g>
       <use style="stroke:#000000;stroke-width:0.6;" x="66.1875" xlink:href="#md0f4fded07" y="93.872552"/>
      </g>
     </g>
    </g>
    <g id="ytick_14">
     <g id="line2d_23">
      <g>
       <use style="stroke:#000000;stroke-width:0.6;" x="66.1875" xlink:href="#md0f4fded07" y="90.012678"/>
      </g>
     </g>
    </g>
    <g id="ytick_15">
     <g id="line2d_24">
      <g>
       <use style="stroke:#000000;stroke-width:0.6;" x="66.1875" xlink:href="#md0f4fded07" y="86.858931"/>
      </g>
     </g>
    </g>
    <g id="ytick_16">
     <g id="line2d_25">
      <g>
       <use style="stroke:#000000;stroke-width:0.6;" x="66.1875" xlink:href="#md0f4fded07" y="84.192476"/>
      </g>
     </g>
    </g>
    <g id="ytick_17">
     <g id="line2d_26">
      <g>
       <use style="stroke:#000000;stroke-width:0.6;" x="66.1875" xlink:href="#md0f4fded07" y="81.882688"/>
      </g>
     </g>
    </g>
    <g id="ytick_18">
     <g id="line2d_27">
      <g>
       <use style="stroke:#000000;stroke-width:0.6;" x="66.1875" xlink:href="#md0f4fded07" y="79.845311"/>
      </g>
     </g>
    </g>
    <g id="ytick_19">
     <g id="line2d_28">
      <g>
       <use style="stroke:#000000;stroke-width:0.6;" x="66.1875" xlink:href="#md0f4fded07" y="66.03295"/>
      </g>
     </g>
    </g>
    <g id="ytick_20">
     <g id="line2d_29">
      <g>
       <use style="stroke:#000000;stroke-width:0.6;" x="66.1875" xlink:href="#md0f4fded07" y="59.01933"/>
      </g>
     </g>
    </g>
    <g id="ytick_21">
     <g id="line2d_30">
      <g>
       <use style="stroke:#000000;stroke-width:0.6;" x="66.1875" xlink:href="#md0f4fded07" y="54.043086"/>
      </g>
     </g>
    </g>
    <g id="ytick_22">
     <g id="line2d_31">
      <g>
       <use style="stroke:#000000;stroke-width:0.6;" x="66.1875" xlink:href="#md0f4fded07" y="50.183212"/>
      </g>
     </g>
    </g>
    <g id="ytick_23">
     <g id="line2d_32">
      <g>
       <use style="stroke:#000000;stroke-width:0.6;" x="66.1875" xlink:href="#md0f4fded07" y="47.029466"/>
      </g>
     </g>
    </g>
    <g id="ytick_24">
     <g id="line2d_33">
      <g>
       <use style="stroke:#000000;stroke-width:0.6;" x="66.1875" xlink:href="#md0f4fded07" y="44.363011"/>
      </g>
     </g>
    </g>
    <g id="ytick_25">
     <g id="line2d_34">
      <g>
       <use style="stroke:#000000;stroke-width:0.6;" x="66.1875" xlink:href="#md0f4fded07" y="42.053223"/>
      </g>
     </g>
    </g>
    <g id="ytick_26">
     <g id="line2d_35">
      <g>
       <use style="stroke:#000000;stroke-width:0.6;" x="66.1875" xlink:href="#md0f4fded07" y="40.015845"/>
      </g>
     </g>
    </g>
    <g id="ytick_27">
     <g id="line2d_36">
      <g>
       <use style="stroke:#000000;stroke-width:0.6;" x="66.1875" xlink:href="#md0f4fded07" y="26.203485"/>
      </g>
     </g>
    </g>
    <g id="ytick_28">
     <g id="line2d_37">
      <g>
       <use style="stroke:#000000;stroke-width:0.6;" x="66.1875" xlink:href="#md0f4fded07" y="19.189864"/>
      </g>
     </g>
    </g>
    <g id="ytick_29">
     <g id="line2d_38">
      <g>
       <use style="stroke:#000000;stroke-width:0.6;" x="66.1875" xlink:href="#md0f4fded07" y="14.213621"/>
      </g>
     </g>
    </g>
    <g id="ytick_30">
     <g id="line2d_39">
      <g>
       <use style="stroke:#000000;stroke-width:0.6;" x="66.1875" xlink:href="#md0f4fded07" y="10.353747"/>
      </g>
     </g>
    </g>
    <g id="ytick_31">
     <g id="line2d_40">
      <g>
       <use style="stroke:#000000;stroke-width:0.6;" x="66.1875" xlink:href="#md0f4fded07" y="7.2"/>
      </g>
     </g>
    </g>
    <g id="text_4">
     <!-- $\Gamma_{s}~(2\pi\!\cdot\!\mathrm{kHz})$ -->
     <g transform="translate(22.396875 128.43913)rotate(-90)scale(0.2 -0.2)">
      <defs>
       <path d="M 9.8125 0 
L 9.8125 72.90625 
L 55.171875 72.90625 
L 55.171875 64.59375 
L 19.671875 64.59375 
L 19.671875 0 
z
" id="DejaVuSans-915"/>
       <path d="M 50 53.078125 
L 48.296875 44.578125 
Q 44.734375 46.53125 40.765625 47.5 
Q 36.8125 48.484375 32.625 48.484375 
Q 25.53125 48.484375 21.453125 46.0625 
Q 17.390625 43.65625 17.390625 39.5 
Q 17.390625 34.671875 26.859375 32.078125 
Q 27.59375 31.890625 27.9375 31.78125 
L 30.8125 30.90625 
Q 39.796875 28.421875 42.796875 25.6875 
Q 45.796875 22.953125 45.796875 18.21875 
Q 45.796875 9.515625 38.890625 4.046875 
Q 31.984375 -1.421875 20.796875 -1.421875 
Q 16.453125 -1.421875 11.671875 -0.578125 
Q 6.890625 0.25 1.125 2 
L 2.875 11.28125 
Q 7.8125 8.734375 12.59375 7.421875 
Q 17.390625 6.109375 21.78125 6.109375 
Q 28.375 6.109375 32.5 8.9375 
Q 36.625 11.765625 36.625 16.109375 
Q 36.625 20.796875 25.78125 23.6875 
L 24.859375 23.921875 
L 21.78125 24.703125 
Q 14.9375 26.515625 11.765625 29.46875 
Q 8.59375 32.421875 8.59375 37.015625 
Q 8.59375 45.75 15.15625 50.875 
Q 21.734375 56 33.015625 56 
Q 37.453125 56 41.671875 55.265625 
Q 45.90625 54.546875 50 53.078125 
z
" id="DejaVuSans-Oblique-115"/>
       <path d="M 31 75.875 
Q 24.46875 64.65625 21.28125 53.65625 
Q 18.109375 42.671875 18.109375 31.390625 
Q 18.109375 20.125 21.3125 9.0625 
Q 24.515625 -2 31 -13.1875 
L 23.1875 -13.1875 
Q 15.875 -1.703125 12.234375 9.375 
Q 8.59375 20.453125 8.59375 31.390625 
Q 8.59375 42.28125 12.203125 53.3125 
Q 15.828125 64.359375 23.1875 75.875 
z
" id="DejaVuSans-40"/>
       <path d="M 19.1875 8.296875 
L 53.609375 8.296875 
L 53.609375 0 
L 7.328125 0 
L 7.328125 8.296875 
Q 12.9375 14.109375 22.625 23.890625 
Q 32.328125 33.6875 34.8125 36.53125 
Q 39.546875 41.84375 41.421875 45.53125 
Q 43.3125 49.21875 43.3125 52.78125 
Q 43.3125 58.59375 39.234375 62.25 
Q 35.15625 65.921875 28.609375 65.921875 
Q 23.96875 65.921875 18.8125 64.3125 
Q 13.671875 62.703125 7.8125 59.421875 
L 7.8125 69.390625 
Q 13.765625 71.78125 18.9375 73 
Q 24.125 74.21875 28.421875 74.21875 
Q 39.75 74.21875 46.484375 68.546875 
Q 53.21875 62.890625 53.21875 53.421875 
Q 53.21875 48.921875 51.53125 44.890625 
Q 49.859375 40.875 45.40625 35.40625 
Q 44.1875 33.984375 37.640625 27.21875 
Q 31.109375 20.453125 19.1875 8.296875 
z
" id="DejaVuSans-50"/>
       <path d="M 9.125 54.6875 
L 61.53125 54.6875 
L 59.765625 45.703125 
L 52.875 45.703125 
L 46.34375 12.109375 
Q 45.65625 8.59375 46.578125 7.03125 
Q 47.46875 5.515625 50.140625 5.515625 
Q 50.875 5.515625 51.953125 5.671875 
Q 53.078125 5.765625 53.421875 5.8125 
L 52.15625 -0.6875 
Q 50.34375 -1.3125 48.484375 -1.609375 
Q 46.578125 -1.90625 44.78125 -1.90625 
Q 38.921875 -1.90625 37.3125 1.265625 
Q 35.6875 4.5 37.359375 13.09375 
L 43.703125 45.703125 
L 23.53125 45.703125 
L 14.65625 0 
L 5.46875 0 
L 14.359375 45.703125 
L 7.375 45.703125 
z
" id="DejaVuSans-Oblique-960"/>
       <path d="M 10.6875 40.921875 
L 21 40.921875 
L 21 28.515625 
L 10.6875 28.515625 
z
" id="DejaVuSans-8901"/>
       <path d="M 9.078125 75.984375 
L 18.109375 75.984375 
L 18.109375 31.109375 
L 44.921875 54.6875 
L 56.390625 54.6875 
L 27.390625 29.109375 
L 57.625 0 
L 45.90625 0 
L 18.109375 26.703125 
L 18.109375 0 
L 9.078125 0 
z
" id="DejaVuSans-107"/>
       <path d="M 9.8125 72.90625 
L 19.671875 72.90625 
L 19.671875 43.015625 
L 55.515625 43.015625 
L 55.515625 72.90625 
L 65.375 72.90625 
L 65.375 0 
L 55.515625 0 
L 55.515625 34.71875 
L 19.671875 34.71875 
L 19.671875 0 
L 9.8125 0 
z
" id="DejaVuSans-72"/>
       <path d="M 5.515625 54.6875 
L 48.1875 54.6875 
L 48.1875 46.484375 
L 14.40625 7.171875 
L 48.1875 7.171875 
L 48.1875 0 
L 4.296875 0 
L 4.296875 8.203125 
L 38.09375 47.515625 
L 5.515625 47.515625 
z
" id="DejaVuSans-122"/>
       <path d="M 8.015625 75.875 
L 15.828125 75.875 
Q 23.140625 64.359375 26.78125 53.3125 
Q 30.421875 42.28125 30.421875 31.390625 
Q 30.421875 20.453125 26.78125 9.375 
Q 23.140625 -1.703125 15.828125 -13.1875 
L 8.015625 -13.1875 
Q 14.5 -2 17.703125 9.0625 
Q 20.90625 20.125 20.90625 31.390625 
Q 20.90625 42.671875 17.703125 53.65625 
Q 14.5 64.65625 8.015625 75.875 
z
" id="DejaVuSans-41"/>
      </defs>
      <use transform="translate(0 0.015625)" xlink:href="#DejaVuSans-915"/>
      <use transform="translate(56.669922 -16.390625)scale(0.7)" xlink:href="#DejaVuSans-Oblique-115"/>
      <use transform="translate(128.344402 0.015625)" xlink:href="#DejaVuSans-40"/>
      <use transform="translate(167.358074 0.015625)" xlink:href="#DejaVuSans-50"/>
      <use transform="translate(230.981121 0.015625)" xlink:href="#DejaVuSans-Oblique-960"/>
      <use transform="translate(294.432944 0.015625)" xlink:href="#DejaVuSans-8901"/>
      <use transform="translate(329.466799 0.015625)" xlink:href="#DejaVuSans-107"/>
      <use transform="translate(387.376956 0.015625)" xlink:href="#DejaVuSans-72"/>
      <use transform="translate(462.572268 0.015625)" xlink:href="#DejaVuSans-122"/>
      <use transform="translate(515.062502 0.015625)" xlink:href="#DejaVuSans-41"/>
     </g>
    </g>
   </g>
   <g id="line2d_41">
    <path clip-path="url(#p998e2626a8)" d="M 66.043871 77.643107 
L 85.920759 75.30756 
L 102.230001 73.173612 
L 115.990924 71.155129 
L 127.713191 69.219584 
L 137.906468 67.319566 
L 146.825584 65.438041 
L 154.725373 63.547604 
L 161.605835 61.677745 
L 167.7218 59.789185 
L 173.07327 57.910991 
L 177.915076 55.977627 
L 182.247219 54.004778 
L 186.069697 52.017969 
L 189.382512 50.055599 
L 192.440495 47.988521 
L 195.243646 45.814183 
L 197.791965 43.5335 
L 200.085452 41.153096 
L 202.124107 38.688678 
L 203.90793 36.169904 
L 205.436922 33.646928 
L 206.965913 30.661201 
L 208.240073 27.678089 
L 209.514232 24.037768 
L 210.53356 20.418203 
L 211.552887 15.799265 
L 212.317383 11.256969 
L 213.081879 5.040841 
L 213.599762 -1 
M 216.063317 -1 
L 216.394694 3.233535 
L 217.159189 10.179028 
L 217.923685 15.145201 
L 218.943013 20.142464 
L 219.96234 24.041514 
L 221.2365 27.963151 
L 222.510659 31.186769 
L 224.039651 34.430974 
L 225.568642 37.192852 
L 227.352465 39.975309 
L 229.391121 42.728796 
L 231.684608 45.424844 
L 234.232927 48.049195 
L 237.036078 50.596807 
L 240.094061 53.068459 
L 243.406875 55.468542 
L 247.229354 57.962137 
L 251.561496 60.514244 
L 256.403302 63.104183 
L 262.009604 65.842341 
L 268.380402 68.702497 
L 276.025359 71.883179 
L 285.708971 75.654106 
L 300.744053 81.233611 
L 318.072623 87.718929 
L 327.246571 91.385489 
L 334.636696 94.569798 
L 340.752662 97.435948 
L 346.104132 100.182365 
L 350.691106 102.775013 
L 354.768417 105.324704 
L 358.336063 107.803959 
L 361.648878 110.378263 
L 363.687533 112.128729 
L 363.687533 112.128729 
" style="fill:none;stroke:#ff7f0e;stroke-linecap:square;stroke-width:1.5;"/>
   </g>
   <g id="line2d_42">
    <path clip-path="url(#p998e2626a8)" d="M 65.441906 126.425179 
L 82.16525 124.418475 
L 96.658814 122.45857 
L 110.037489 120.418985 
L 121.186385 118.506179 
L 131.220391 116.57601 
L 140.139508 114.65239 
L 147.943735 112.768377 
L 155.747962 110.648219 
L 162.437299 108.593017 
L 168.011747 106.667601 
L 173.586195 104.496587 
L 178.045753 102.536079 
L 182.505311 100.321244 
L 185.84998 98.449105 
L 189.194649 96.347066 
L 192.539318 93.951015 
L 194.769097 92.14511 
L 196.998876 90.126906 
L 199.228655 87.839976 
L 201.458434 85.201896 
L 203.688213 82.085328 
L 205.917992 78.277993 
L 207.032882 76.004317 
L 208.147772 73.38487 
L 209.262661 70.295495 
L 210.377551 66.530208 
L 211.49244 61.708453 
L 212.60733 54.996754 
L 213.722219 43.87661 
L 214.837109 3.652622 
L 215.951999 40.121024 
L 217.066888 53.133933 
L 218.181778 60.477726 
L 219.296667 65.61834 
L 220.411557 69.577379 
L 221.526446 72.797992 
L 222.641336 75.512966 
L 223.756226 77.859854 
L 225.986005 81.77345 
L 228.215784 84.965046 
L 230.445563 87.660308 
L 232.675342 89.993266 
L 234.905121 92.050062 
L 238.24979 94.740964 
L 241.594459 97.071463 
L 244.939128 99.127067 
L 249.398686 101.538443 
L 253.858244 103.657361 
L 258.317802 105.547456 
L 263.89225 107.65547 
L 269.466698 109.537571 
L 276.156036 111.559077 
L 283.960263 113.65769 
L 291.76449 115.533666 
L 300.683606 117.459854 
L 310.717612 119.403667 
L 321.866508 121.341198 
L 334.130293 123.255558 
L 348.623858 125.283463 
L 364.232312 127.239976 
L 364.232312 127.239976 
" style="fill:none;stroke:#1f77b4;stroke-linecap:square;stroke-width:1.5;"/>
   </g>
   <g id="patch_3">
    <path d="M 66.1875 138.678261 
L 66.1875 7.2 
" style="fill:none;stroke:#000000;stroke-linecap:square;stroke-linejoin:miter;stroke-width:0.8;"/>
   </g>
   <g id="patch_4">
    <path d="M 363.4899 138.678261 
L 363.4899 7.2 
" style="fill:none;stroke:#000000;stroke-linecap:square;stroke-linejoin:miter;stroke-width:0.8;"/>
   </g>
   <g id="patch_5">
    <path d="M 66.1875 138.678261 
L 363.4899 138.678261 
" style="fill:none;stroke:#000000;stroke-linecap:square;stroke-linejoin:miter;stroke-width:0.8;"/>
   </g>
   <g id="patch_6">
    <path d="M 66.1875 7.2 
L 363.4899 7.2 
" style="fill:none;stroke:#000000;stroke-linecap:square;stroke-linejoin:miter;stroke-width:0.8;"/>
   </g>
   <g id="legend_1">
    <g id="patch_7">
     <path d="M 262.7211 59.050475 
L 353.7739 59.050475 
Q 356.5499 59.050475 356.5499 56.274475 
L 356.5499 16.916 
Q 356.5499 14.14 353.7739 14.14 
L 262.7211 14.14 
Q 259.9451 14.14 259.9451 16.916 
L 259.9451 56.274475 
Q 259.9451 59.050475 262.7211 59.050475 
z
" style="fill:#ffffff;opacity:0.8;stroke:#cccccc;stroke-linejoin:miter;"/>
    </g>
    <g id="line2d_43">
     <path d="M 265.4971 25.380631 
L 293.2571 25.380631 
" style="fill:none;stroke:#ff7f0e;stroke-linecap:square;stroke-width:1.5;"/>
    </g>
    <g id="line2d_44"/>
    <g id="text_5">
     <!-- $v'=63$ -->
     <g transform="translate(304.3611 30.238631)scale(0.1388 -0.1388)">
      <defs>
       <path d="M 7.171875 54.6875 
L 16.703125 54.6875 
L 24.703125 8.203125 
L 50.875 54.6875 
L 60.40625 54.6875 
L 29.296875 0 
L 17.1875 0 
z
" id="DejaVuSans-Oblique-118"/>
       <path d="M 3.515625 5.421875 
Q 2.875 5.609375 2.875 6.390625 
L 15.09375 51.8125 
Q 15.671875 53.65625 17.078125 54.78125 
Q 18.5 55.90625 20.3125 55.90625 
Q 22.65625 55.90625 24.4375 54.359375 
Q 26.21875 52.828125 26.21875 50.484375 
Q 26.21875 49.46875 25.6875 48.1875 
L 7.625 4.984375 
Q 7.28125 4.296875 6.6875 4.296875 
Q 6.15625 4.296875 5 4.78125 
Q 3.859375 5.28125 3.515625 5.421875 
z
" id="Cmsy10-48"/>
       <path d="M 10.59375 45.40625 
L 73.1875 45.40625 
L 73.1875 37.203125 
L 10.59375 37.203125 
z
M 10.59375 25.484375 
L 73.1875 25.484375 
L 73.1875 17.1875 
L 10.59375 17.1875 
z
" id="DejaVuSans-61"/>
       <path d="M 33.015625 40.375 
Q 26.375 40.375 22.484375 35.828125 
Q 18.609375 31.296875 18.609375 23.390625 
Q 18.609375 15.53125 22.484375 10.953125 
Q 26.375 6.390625 33.015625 6.390625 
Q 39.65625 6.390625 43.53125 10.953125 
Q 47.40625 15.53125 47.40625 23.390625 
Q 47.40625 31.296875 43.53125 35.828125 
Q 39.65625 40.375 33.015625 40.375 
z
M 52.59375 71.296875 
L 52.59375 62.3125 
Q 48.875 64.0625 45.09375 64.984375 
Q 41.3125 65.921875 37.59375 65.921875 
Q 27.828125 65.921875 22.671875 59.328125 
Q 17.53125 52.734375 16.796875 39.40625 
Q 19.671875 43.65625 24.015625 45.921875 
Q 28.375 48.1875 33.59375 48.1875 
Q 44.578125 48.1875 50.953125 41.515625 
Q 57.328125 34.859375 57.328125 23.390625 
Q 57.328125 12.15625 50.6875 5.359375 
Q 44.046875 -1.421875 33.015625 -1.421875 
Q 20.359375 -1.421875 13.671875 8.265625 
Q 6.984375 17.96875 6.984375 36.375 
Q 6.984375 53.65625 15.1875 63.9375 
Q 23.390625 74.21875 37.203125 74.21875 
Q 40.921875 74.21875 44.703125 73.484375 
Q 48.484375 72.75 52.59375 71.296875 
z
" id="DejaVuSans-54"/>
       <path d="M 40.578125 39.3125 
Q 47.65625 37.796875 51.625 33 
Q 55.609375 28.21875 55.609375 21.1875 
Q 55.609375 10.40625 48.1875 4.484375 
Q 40.765625 -1.421875 27.09375 -1.421875 
Q 22.515625 -1.421875 17.65625 -0.515625 
Q 12.796875 0.390625 7.625 2.203125 
L 7.625 11.71875 
Q 11.71875 9.328125 16.59375 8.109375 
Q 21.484375 6.890625 26.8125 6.890625 
Q 36.078125 6.890625 40.9375 10.546875 
Q 45.796875 14.203125 45.796875 21.1875 
Q 45.796875 27.640625 41.28125 31.265625 
Q 36.765625 34.90625 28.71875 34.90625 
L 20.21875 34.90625 
L 20.21875 43.015625 
L 29.109375 43.015625 
Q 36.375 43.015625 40.234375 45.921875 
Q 44.09375 48.828125 44.09375 54.296875 
Q 44.09375 59.90625 40.109375 62.90625 
Q 36.140625 65.921875 28.71875 65.921875 
Q 24.65625 65.921875 20.015625 65.03125 
Q 15.375 64.15625 9.8125 62.3125 
L 9.8125 71.09375 
Q 15.4375 72.65625 20.34375 73.4375 
Q 25.25 74.21875 29.59375 74.21875 
Q 40.828125 74.21875 47.359375 69.109375 
Q 53.90625 64.015625 53.90625 55.328125 
Q 53.90625 49.265625 50.4375 45.09375 
Q 46.96875 40.921875 40.578125 39.3125 
z
" id="DejaVuSans-51"/>
      </defs>
      <use transform="translate(0 0.584375)" xlink:href="#DejaVuSans-Oblique-118"/>
      <use transform="translate(63.645833 38.865625)scale(0.7)" xlink:href="#Cmsy10-48"/>
      <use transform="translate(105.105794 0.584375)" xlink:href="#DejaVuSans-61"/>
      <use transform="translate(208.377279 0.584375)" xlink:href="#DejaVuSans-54"/>
      <use transform="translate(272.000326 0.584375)" xlink:href="#DejaVuSans-51"/>
     </g>
    </g>
    <g id="line2d_45">
     <path d="M 265.4971 45.753869 
L 293.2571 45.753869 
" style="fill:none;stroke:#1f77b4;stroke-linecap:square;stroke-width:1.5;"/>
    </g>
    <g id="line2d_46"/>
    <g id="text_6">
     <!-- $v'=0$ -->
     <g transform="translate(304.3611 50.611869)scale(0.1388 -0.1388)">
      <use transform="translate(0 0.584375)" xlink:href="#DejaVuSans-Oblique-118"/>
      <use transform="translate(63.645833 38.865625)scale(0.7)" xlink:href="#Cmsy10-48"/>
      <use transform="translate(105.105794 0.584375)" xlink:href="#DejaVuSans-61"/>
      <use transform="translate(208.377279 0.584375)" xlink:href="#DejaVuSans-48"/>
     </g>
    </g>
   </g>
  </g>
  <g id="axes_2">
   <g id="patch_8">
    <path d="M 66.1875 272.52313 
L 363.4899 272.52313 
L 363.4899 141.04487 
L 66.1875 141.04487 
z
" style="fill:none;"/>
   </g>
   <g id="matplotlib.axis_3">
    <g id="xtick_4">
     <g id="line2d_47">
      <path clip-path="url(#p719e214cff)" d="M 129.895157 272.52313 
L 129.895157 141.04487 
" style="fill:none;stroke:#b0b0b0;stroke-linecap:square;stroke-width:0.8;"/>
     </g>
     <g id="line2d_48"/>
    </g>
    <g id="xtick_5">
     <g id="line2d_49">
      <path clip-path="url(#p719e214cff)" d="M 214.8387 272.52313 
L 214.8387 141.04487 
" style="fill:none;stroke:#b0b0b0;stroke-linecap:square;stroke-width:0.8;"/>
     </g>
     <g id="line2d_50"/>
    </g>
    <g id="xtick_6">
     <g id="line2d_51">
      <path clip-path="url(#p719e214cff)" d="M 299.782243 272.52313 
L 299.782243 141.04487 
" style="fill:none;stroke:#b0b0b0;stroke-linecap:square;stroke-width:0.8;"/>
     </g>
     <g id="line2d_52"/>
    </g>
   </g>
   <g id="matplotlib.axis_4">
    <g id="ytick_32">
     <g id="line2d_53">
      <path clip-path="url(#p719e214cff)" d="M 66.1875 245.006576 
L 363.4899 245.006576 
" style="fill:none;stroke:#b0b0b0;stroke-linecap:square;stroke-width:0.8;"/>
     </g>
     <g id="line2d_54">
      <g>
       <use style="stroke:#000000;stroke-width:0.8;" x="66.1875" xlink:href="#mc3ce260a5b" y="245.006576"/>
      </g>
     </g>
     <g id="text_7">
      <!-- 0.1 -->
      <g transform="translate(35.332813 250.705404)scale(0.15 -0.15)">
       <defs>
        <path d="M 10.6875 12.40625 
L 21 12.40625 
L 21 0 
L 10.6875 0 
z
" id="DejaVuSans-46"/>
       </defs>
       <use xlink:href="#DejaVuSans-48"/>
       <use x="63.623047" xlink:href="#DejaVuSans-46"/>
       <use x="95.410156" xlink:href="#DejaVuSans-49"/>
      </g>
     </g>
    </g>
    <g id="ytick_33">
     <g id="line2d_55">
      <path clip-path="url(#p719e214cff)" d="M 66.1875 217.490021 
L 363.4899 217.490021 
" style="fill:none;stroke:#b0b0b0;stroke-linecap:square;stroke-width:0.8;"/>
     </g>
     <g id="line2d_56">
      <g>
       <use style="stroke:#000000;stroke-width:0.8;" x="66.1875" xlink:href="#mc3ce260a5b" y="217.490021"/>
      </g>
     </g>
     <g id="text_8">
      <!-- 1 -->
      <g transform="translate(49.64375 223.188849)scale(0.15 -0.15)">
       <use xlink:href="#DejaVuSans-49"/>
      </g>
     </g>
    </g>
    <g id="ytick_34">
     <g id="line2d_57">
      <path clip-path="url(#p719e214cff)" d="M 66.1875 189.973466 
L 363.4899 189.973466 
" style="fill:none;stroke:#b0b0b0;stroke-linecap:square;stroke-width:0.8;"/>
     </g>
     <g id="line2d_58">
      <g>
       <use style="stroke:#000000;stroke-width:0.8;" x="66.1875" xlink:href="#mc3ce260a5b" y="189.973466"/>
      </g>
     </g>
     <g id="text_9">
      <!-- 10 -->
      <g transform="translate(40.1 195.672294)scale(0.15 -0.15)">
       <use xlink:href="#DejaVuSans-49"/>
       <use x="63.623047" xlink:href="#DejaVuSans-48"/>
      </g>
     </g>
    </g>
    <g id="ytick_35">
     <g id="line2d_59">
      <path clip-path="url(#p719e214cff)" d="M 66.1875 162.456911 
L 363.4899 162.456911 
" style="fill:none;stroke:#b0b0b0;stroke-linecap:square;stroke-width:0.8;"/>
     </g>
     <g id="line2d_60">
      <g>
       <use style="stroke:#000000;stroke-width:0.8;" x="66.1875" xlink:href="#mc3ce260a5b" y="162.456911"/>
      </g>
     </g>
     <g id="text_10">
      <!-- 100 -->
      <g transform="translate(30.55625 168.155739)scale(0.15 -0.15)">
       <use xlink:href="#DejaVuSans-49"/>
       <use x="63.623047" xlink:href="#DejaVuSans-48"/>
       <use x="127.246094" xlink:href="#DejaVuSans-48"/>
      </g>
     </g>
    </g>
    <g id="ytick_36">
     <g id="line2d_61">
      <g>
       <use style="stroke:#000000;stroke-width:0.6;" x="66.1875" xlink:href="#md0f4fded07" y="264.239822"/>
      </g>
     </g>
    </g>
    <g id="ytick_37">
     <g id="line2d_62">
      <g>
       <use style="stroke:#000000;stroke-width:0.6;" x="66.1875" xlink:href="#md0f4fded07" y="259.394397"/>
      </g>
     </g>
    </g>
    <g id="ytick_38">
     <g id="line2d_63">
      <g>
       <use style="stroke:#000000;stroke-width:0.6;" x="66.1875" xlink:href="#md0f4fded07" y="255.956514"/>
      </g>
     </g>
    </g>
    <g id="ytick_39">
     <g id="line2d_64">
      <g>
       <use style="stroke:#000000;stroke-width:0.6;" x="66.1875" xlink:href="#md0f4fded07" y="253.289884"/>
      </g>
     </g>
    </g>
    <g id="ytick_40">
     <g id="line2d_65">
      <g>
       <use style="stroke:#000000;stroke-width:0.6;" x="66.1875" xlink:href="#md0f4fded07" y="251.111089"/>
      </g>
     </g>
    </g>
    <g id="ytick_41">
     <g id="line2d_66">
      <g>
       <use style="stroke:#000000;stroke-width:0.6;" x="66.1875" xlink:href="#md0f4fded07" y="249.268944"/>
      </g>
     </g>
    </g>
    <g id="ytick_42">
     <g id="line2d_67">
      <g>
       <use style="stroke:#000000;stroke-width:0.6;" x="66.1875" xlink:href="#md0f4fded07" y="247.673205"/>
      </g>
     </g>
    </g>
    <g id="ytick_43">
     <g id="line2d_68">
      <g>
       <use style="stroke:#000000;stroke-width:0.6;" x="66.1875" xlink:href="#md0f4fded07" y="246.265664"/>
      </g>
     </g>
    </g>
    <g id="ytick_44">
     <g id="line2d_69">
      <g>
       <use style="stroke:#000000;stroke-width:0.6;" x="66.1875" xlink:href="#md0f4fded07" y="236.723267"/>
      </g>
     </g>
    </g>
    <g id="ytick_45">
     <g id="line2d_70">
      <g>
       <use style="stroke:#000000;stroke-width:0.6;" x="66.1875" xlink:href="#md0f4fded07" y="231.877842"/>
      </g>
     </g>
    </g>
    <g id="ytick_46">
     <g id="line2d_71">
      <g>
       <use style="stroke:#000000;stroke-width:0.6;" x="66.1875" xlink:href="#md0f4fded07" y="228.439959"/>
      </g>
     </g>
    </g>
    <g id="ytick_47">
     <g id="line2d_72">
      <g>
       <use style="stroke:#000000;stroke-width:0.6;" x="66.1875" xlink:href="#md0f4fded07" y="225.773329"/>
      </g>
     </g>
    </g>
    <g id="ytick_48">
     <g id="line2d_73">
      <g>
       <use style="stroke:#000000;stroke-width:0.6;" x="66.1875" xlink:href="#md0f4fded07" y="223.594534"/>
      </g>
     </g>
    </g>
    <g id="ytick_49">
     <g id="line2d_74">
      <g>
       <use style="stroke:#000000;stroke-width:0.6;" x="66.1875" xlink:href="#md0f4fded07" y="221.752389"/>
      </g>
     </g>
    </g>
    <g id="ytick_50">
     <g id="line2d_75">
      <g>
       <use style="stroke:#000000;stroke-width:0.6;" x="66.1875" xlink:href="#md0f4fded07" y="220.15665"/>
      </g>
     </g>
    </g>
    <g id="ytick_51">
     <g id="line2d_76">
      <g>
       <use style="stroke:#000000;stroke-width:0.6;" x="66.1875" xlink:href="#md0f4fded07" y="218.749109"/>
      </g>
     </g>
    </g>
    <g id="ytick_52">
     <g id="line2d_77">
      <g>
       <use style="stroke:#000000;stroke-width:0.6;" x="66.1875" xlink:href="#md0f4fded07" y="209.206712"/>
      </g>
     </g>
    </g>
    <g id="ytick_53">
     <g id="line2d_78">
      <g>
       <use style="stroke:#000000;stroke-width:0.6;" x="66.1875" xlink:href="#md0f4fded07" y="204.361288"/>
      </g>
     </g>
    </g>
    <g id="ytick_54">
     <g id="line2d_79">
      <g>
       <use style="stroke:#000000;stroke-width:0.6;" x="66.1875" xlink:href="#md0f4fded07" y="200.923404"/>
      </g>
     </g>
    </g>
    <g id="ytick_55">
     <g id="line2d_80">
      <g>
       <use style="stroke:#000000;stroke-width:0.6;" x="66.1875" xlink:href="#md0f4fded07" y="198.256774"/>
      </g>
     </g>
    </g>
    <g id="ytick_56">
     <g id="line2d_81">
      <g>
       <use style="stroke:#000000;stroke-width:0.6;" x="66.1875" xlink:href="#md0f4fded07" y="196.077979"/>
      </g>
     </g>
    </g>
    <g id="ytick_57">
     <g id="line2d_82">
      <g>
       <use style="stroke:#000000;stroke-width:0.6;" x="66.1875" xlink:href="#md0f4fded07" y="194.235834"/>
      </g>
     </g>
    </g>
    <g id="ytick_58">
     <g id="line2d_83">
      <g>
       <use style="stroke:#000000;stroke-width:0.6;" x="66.1875" xlink:href="#md0f4fded07" y="192.640096"/>
      </g>
     </g>
    </g>
    <g id="ytick_59">
     <g id="line2d_84">
      <g>
       <use style="stroke:#000000;stroke-width:0.6;" x="66.1875" xlink:href="#md0f4fded07" y="191.232554"/>
      </g>
     </g>
    </g>
    <g id="ytick_60">
     <g id="line2d_85">
      <g>
       <use style="stroke:#000000;stroke-width:0.6;" x="66.1875" xlink:href="#md0f4fded07" y="181.690158"/>
      </g>
     </g>
    </g>
    <g id="ytick_61">
     <g id="line2d_86">
      <g>
       <use style="stroke:#000000;stroke-width:0.6;" x="66.1875" xlink:href="#md0f4fded07" y="176.844733"/>
      </g>
     </g>
    </g>
    <g id="ytick_62">
     <g id="line2d_87">
      <g>
       <use style="stroke:#000000;stroke-width:0.6;" x="66.1875" xlink:href="#md0f4fded07" y="173.406849"/>
      </g>
     </g>
    </g>
    <g id="ytick_63">
     <g id="line2d_88">
      <g>
       <use style="stroke:#000000;stroke-width:0.6;" x="66.1875" xlink:href="#md0f4fded07" y="170.740219"/>
      </g>
     </g>
    </g>
    <g id="ytick_64">
     <g id="line2d_89">
      <g>
       <use style="stroke:#000000;stroke-width:0.6;" x="66.1875" xlink:href="#md0f4fded07" y="168.561424"/>
      </g>
     </g>
    </g>
    <g id="ytick_65">
     <g id="line2d_90">
      <g>
       <use style="stroke:#000000;stroke-width:0.6;" x="66.1875" xlink:href="#md0f4fded07" y="166.719279"/>
      </g>
     </g>
    </g>
    <g id="ytick_66">
     <g id="line2d_91">
      <g>
       <use style="stroke:#000000;stroke-width:0.6;" x="66.1875" xlink:href="#md0f4fded07" y="165.123541"/>
      </g>
     </g>
    </g>
    <g id="ytick_67">
     <g id="line2d_92">
      <g>
       <use style="stroke:#000000;stroke-width:0.6;" x="66.1875" xlink:href="#md0f4fded07" y="163.716"/>
      </g>
     </g>
    </g>
    <g id="ytick_68">
     <g id="line2d_93">
      <g>
       <use style="stroke:#000000;stroke-width:0.6;" x="66.1875" xlink:href="#md0f4fded07" y="154.173603"/>
      </g>
     </g>
    </g>
    <g id="ytick_69">
     <g id="line2d_94">
      <g>
       <use style="stroke:#000000;stroke-width:0.6;" x="66.1875" xlink:href="#md0f4fded07" y="149.328178"/>
      </g>
     </g>
    </g>
    <g id="ytick_70">
     <g id="line2d_95">
      <g>
       <use style="stroke:#000000;stroke-width:0.6;" x="66.1875" xlink:href="#md0f4fded07" y="145.890294"/>
      </g>
     </g>
    </g>
    <g id="ytick_71">
     <g id="line2d_96">
      <g>
       <use style="stroke:#000000;stroke-width:0.6;" x="66.1875" xlink:href="#md0f4fded07" y="143.223665"/>
      </g>
     </g>
    </g>
    <g id="ytick_72">
     <g id="line2d_97">
      <g>
       <use style="stroke:#000000;stroke-width:0.6;" x="66.1875" xlink:href="#md0f4fded07" y="141.04487"/>
      </g>
     </g>
    </g>
    <g id="text_11">
     <!-- $\Omega_{R}~(2\pi\!\cdot\!\mathrm{kHz})$ -->
     <g transform="translate(22.396875 265.484)rotate(-90)scale(0.2 -0.2)">
      <defs>
       <path d="M 72.609375 8.6875 
L 72.609375 0 
L 43.3125 0 
L 43.3125 8.6875 
Q 51.953125 13.421875 56.78125 21.53125 
Q 61.625 29.640625 61.625 39.5 
Q 61.625 51.21875 55.171875 58.296875 
Q 48.734375 65.375 38.1875 65.375 
Q 27.640625 65.375 21.171875 58.265625 
Q 14.703125 51.171875 14.703125 39.5 
Q 14.703125 29.640625 19.53125 21.53125 
Q 24.421875 13.421875 33.109375 8.6875 
L 33.109375 0 
L 3.8125 0 
L 3.8125 8.6875 
L 19.390625 8.6875 
Q 11.671875 15.484375 8.109375 22.75 
Q 4.59375 30.03125 4.59375 39.015625 
Q 4.59375 54.546875 13.96875 64.15625 
Q 23.296875 73.78125 38.1875 73.78125 
Q 52.984375 73.78125 62.40625 64.15625 
Q 71.78125 54.59375 71.78125 39.5 
Q 71.78125 30.03125 68.3125 22.796875 
Q 64.84375 15.578125 56.984375 8.6875 
z
" id="DejaVuSans-937"/>
       <path d="M 25.203125 64.796875 
L 20.21875 38.921875 
L 32.90625 38.921875 
Q 40.375 38.921875 44.984375 43.046875 
Q 49.609375 47.171875 49.609375 53.8125 
Q 49.609375 59.125 46.5 61.953125 
Q 43.40625 64.796875 37.59375 64.796875 
z
M 43.3125 35.015625 
Q 46.4375 34.28125 48.515625 31.390625 
Q 50.59375 28.515625 53.328125 19.921875 
L 59.515625 0 
L 49.125 0 
L 43.40625 18.703125 
Q 41.21875 25.921875 38.328125 28.359375 
Q 35.453125 30.8125 29.5 30.8125 
L 18.609375 30.8125 
L 12.59375 0 
L 2.6875 0 
L 16.890625 72.90625 
L 39.109375 72.90625 
Q 49.21875 72.90625 54.609375 68.328125 
Q 60.015625 63.765625 60.015625 55.171875 
Q 60.015625 47.5625 55.421875 41.984375 
Q 50.828125 36.421875 43.3125 35.015625 
z
" id="DejaVuSans-Oblique-82"/>
      </defs>
      <use transform="translate(0 0.015625)" xlink:href="#DejaVuSans-937"/>
      <use transform="translate(77.373047 -16.390625)scale(0.7)" xlink:href="#DejaVuSans-Oblique-82"/>
      <use transform="translate(161.215496 0.015625)" xlink:href="#DejaVuSans-40"/>
      <use transform="translate(200.229167 0.015625)" xlink:href="#DejaVuSans-50"/>
      <use transform="translate(263.852214 0.015625)" xlink:href="#DejaVuSans-Oblique-960"/>
      <use transform="translate(327.304038 0.015625)" xlink:href="#DejaVuSans-8901"/>
      <use transform="translate(362.337893 0.015625)" xlink:href="#DejaVuSans-107"/>
      <use transform="translate(420.248049 0.015625)" xlink:href="#DejaVuSans-72"/>
      <use transform="translate(495.443362 0.015625)" xlink:href="#DejaVuSans-122"/>
      <use transform="translate(547.933596 0.015625)" xlink:href="#DejaVuSans-41"/>
     </g>
    </g>
   </g>
   <g id="line2d_98">
    <path clip-path="url(#p719e214cff)" d="M 65.441906 270.693108 
L 78.820581 269.102483 
L 91.084366 267.416882 
L 102.233262 265.656406 
L 112.267268 263.848571 
L 121.186385 262.028972 
L 130.105501 259.969491 
L 137.909728 257.931327 
L 144.599066 255.973897 
L 151.288403 253.783461 
L 156.862851 251.745145 
L 162.437299 249.47357 
L 166.896857 247.455223 
L 171.356416 245.221896 
L 175.815974 242.72871 
L 179.160643 240.65235 
L 182.505311 238.361455 
L 185.84998 235.81029 
L 189.194649 232.936353 
L 191.424428 230.798811 
L 193.654207 228.443427 
L 195.883986 225.822442 
L 198.113765 222.870242 
L 200.343545 219.493154 
L 202.573324 215.550746 
L 204.803103 210.818369 
L 205.917992 208.043916 
L 207.032882 204.90254 
L 208.147772 201.28281 
L 209.262661 197.013176 
L 210.377551 191.809024 
L 211.49244 185.144532 
L 212.60733 175.868073 
L 213.722219 160.499784 
L 214.837109 104.917578 
L 215.951999 155.302067 
L 217.066888 173.277069 
L 218.181778 183.418351 
L 219.296667 190.51486 
L 220.411557 195.978169 
L 221.526446 200.420582 
L 222.641336 204.163747 
L 223.756226 207.397725 
L 224.871115 210.244226 
L 227.100894 215.081465 
L 229.330673 219.096542 
L 231.560453 222.526984 
L 233.790232 225.52004 
L 236.020011 228.173327 
L 238.24979 230.554903 
L 241.594459 233.72225 
L 244.939128 236.504602 
L 248.283796 238.982545 
L 251.628465 241.213497 
L 256.088023 243.87559 
L 260.547582 246.246405 
L 265.00714 248.378982 
L 270.581588 250.768921 
L 276.156036 252.905183 
L 282.845373 255.193062 
L 289.534711 257.231395 
L 297.338938 259.348199 
L 305.143165 261.229946 
L 314.062281 263.140129 
L 324.096287 265.032857 
L 334.130293 266.69869 
L 345.279189 268.32687 
L 357.542975 269.890971 
L 364.232312 270.658012 
L 364.232312 270.658012 
" style="fill:none;stroke:#1f77b4;stroke-linecap:square;stroke-width:1.5;"/>
   </g>
   <g id="line2d_99">
    <path clip-path="url(#p719e214cff)" d="M 66.043871 168.502233 
L 154.215709 167.349462 
L 176.895749 166.866179 
L 187.089025 166.451266 
L 192.950159 166.01175 
L 196.772637 165.525482 
L 199.575788 164.961063 
L 201.614443 164.349845 
L 203.398267 163.58107 
L 204.672426 162.822899 
L 205.946586 161.800284 
L 206.965913 160.705518 
L 207.985241 159.253745 
L 208.749737 157.836756 
L 209.514232 156.029774 
L 210.278728 153.686802 
L 211.043224 150.58697 
L 211.807719 146.374351 
L 212.572215 140.411059 
L 213.081879 134.847396 
L 213.591543 127.052026 
L 214.101206 114.722702 
L 214.356038 104.605151 
L 214.61087 86.474361 
L 214.865702 39.477137 
L 215.120534 92.360823 
L 215.630198 116.651551 
L 216.139862 128.179859 
L 216.649526 135.622329 
L 217.414021 143.151914 
L 218.178517 148.272253 
L 218.943013 151.954843 
L 219.707508 154.692387 
L 220.472004 156.774534 
L 221.491332 158.842474 
L 222.510659 160.350979 
L 223.529987 161.476185 
L 224.804146 162.513389 
L 226.078306 163.269733 
L 227.607297 163.929364 
L 229.645953 164.536073 
L 232.194272 165.02724 
L 235.507086 165.414513 
L 240.094061 165.706097 
L 246.974522 165.896638 
L 258.187126 165.959662 
L 279.847837 165.823006 
L 331.833546 165.223044 
L 363.687533 164.811503 
L 363.687533 164.811503 
" style="fill:none;stroke:#ff7f0e;stroke-linecap:square;stroke-width:1.5;"/>
   </g>
   <g id="patch_9">
    <path d="M 66.1875 272.52313 
L 66.1875 141.04487 
" style="fill:none;stroke:#000000;stroke-linecap:square;stroke-linejoin:miter;stroke-width:0.8;"/>
   </g>
   <g id="patch_10">
    <path d="M 363.4899 272.52313 
L 363.4899 141.04487 
" style="fill:none;stroke:#000000;stroke-linecap:square;stroke-linejoin:miter;stroke-width:0.8;"/>
   </g>
   <g id="patch_11">
    <path d="M 66.1875 272.52313 
L 363.4899 272.52313 
" style="fill:none;stroke:#000000;stroke-linecap:square;stroke-linejoin:miter;stroke-width:0.8;"/>
   </g>
   <g id="patch_12">
    <path d="M 66.1875 141.04487 
L 363.4899 141.04487 
" style="fill:none;stroke:#000000;stroke-linecap:square;stroke-linejoin:miter;stroke-width:0.8;"/>
   </g>
  </g>
  <g id="axes_3">
   <g id="patch_13">
    <path d="M 66.1875 406.368 
L 363.4899 406.368 
L 363.4899 274.889739 
L 66.1875 274.889739 
z
" style="fill:none;"/>
   </g>
   <g id="matplotlib.axis_5">
    <g id="xtick_7">
     <g id="line2d_100">
      <path clip-path="url(#p1a01b5aaca)" d="M 129.895157 406.368 
L 129.895157 274.889739 
" style="fill:none;stroke:#b0b0b0;stroke-linecap:square;stroke-width:0.8;"/>
     </g>
     <g id="line2d_101">
      <defs>
       <path d="M 0 0 
L 0 3.5 
" id="m005f0a59be" style="stroke:#000000;stroke-width:0.8;"/>
      </defs>
      <g>
       <use style="stroke:#000000;stroke-width:0.8;" x="129.895157" xlink:href="#m005f0a59be" y="406.368"/>
      </g>
     </g>
     <g id="text_12">
      <!-- −20 -->
      <g transform="translate(114.066642 424.765656)scale(0.15 -0.15)">
       <defs>
        <path d="M 10.59375 35.5 
L 73.1875 35.5 
L 73.1875 27.203125 
L 10.59375 27.203125 
z
" id="DejaVuSans-8722"/>
       </defs>
       <use xlink:href="#DejaVuSans-8722"/>
       <use x="83.789062" xlink:href="#DejaVuSans-50"/>
       <use x="147.412109" xlink:href="#DejaVuSans-48"/>
      </g>
     </g>
    </g>
    <g id="xtick_8">
     <g id="line2d_102">
      <path clip-path="url(#p1a01b5aaca)" d="M 214.8387 406.368 
L 214.8387 274.889739 
" style="fill:none;stroke:#b0b0b0;stroke-linecap:square;stroke-width:0.8;"/>
     </g>
     <g id="line2d_103">
      <g>
       <use style="stroke:#000000;stroke-width:0.8;" x="214.8387" xlink:href="#m005f0a59be" y="406.368"/>
      </g>
     </g>
     <g id="text_13">
      <!-- 0 -->
      <g transform="translate(210.066825 424.765656)scale(0.15 -0.15)">
       <use xlink:href="#DejaVuSans-48"/>
      </g>
     </g>
    </g>
    <g id="xtick_9">
     <g id="line2d_104">
      <path clip-path="url(#p1a01b5aaca)" d="M 299.782243 406.368 
L 299.782243 274.889739 
" style="fill:none;stroke:#b0b0b0;stroke-linecap:square;stroke-width:0.8;"/>
     </g>
     <g id="line2d_105">
      <g>
       <use style="stroke:#000000;stroke-width:0.8;" x="299.782243" xlink:href="#m005f0a59be" y="406.368"/>
      </g>
     </g>
     <g id="text_14">
      <!-- 20 -->
      <g transform="translate(290.238493 424.765656)scale(0.15 -0.15)">
       <use xlink:href="#DejaVuSans-50"/>
       <use x="63.623047" xlink:href="#DejaVuSans-48"/>
      </g>
     </g>
    </g>
    <g id="text_15">
     <!-- One-Photon Detuning (GHz) -->
     <g transform="translate(75.416825 447.082062)scale(0.2 -0.2)">
      <defs>
       <path d="M 39.40625 66.21875 
Q 28.65625 66.21875 22.328125 58.203125 
Q 16.015625 50.203125 16.015625 36.375 
Q 16.015625 22.609375 22.328125 14.59375 
Q 28.65625 6.59375 39.40625 6.59375 
Q 50.140625 6.59375 56.421875 14.59375 
Q 62.703125 22.609375 62.703125 36.375 
Q 62.703125 50.203125 56.421875 58.203125 
Q 50.140625 66.21875 39.40625 66.21875 
z
M 39.40625 74.21875 
Q 54.734375 74.21875 63.90625 63.9375 
Q 73.09375 53.65625 73.09375 36.375 
Q 73.09375 19.140625 63.90625 8.859375 
Q 54.734375 -1.421875 39.40625 -1.421875 
Q 24.03125 -1.421875 14.8125 8.828125 
Q 5.609375 19.09375 5.609375 36.375 
Q 5.609375 53.65625 14.8125 63.9375 
Q 24.03125 74.21875 39.40625 74.21875 
z
" id="DejaVuSans-79"/>
       <path d="M 54.890625 33.015625 
L 54.890625 0 
L 45.90625 0 
L 45.90625 32.71875 
Q 45.90625 40.484375 42.875 44.328125 
Q 39.84375 48.1875 33.796875 48.1875 
Q 26.515625 48.1875 22.3125 43.546875 
Q 18.109375 38.921875 18.109375 30.90625 
L 18.109375 0 
L 9.078125 0 
L 9.078125 54.6875 
L 18.109375 54.6875 
L 18.109375 46.1875 
Q 21.34375 51.125 25.703125 53.5625 
Q 30.078125 56 35.796875 56 
Q 45.21875 56 50.046875 50.171875 
Q 54.890625 44.34375 54.890625 33.015625 
z
" id="DejaVuSans-110"/>
       <path d="M 56.203125 29.59375 
L 56.203125 25.203125 
L 14.890625 25.203125 
Q 15.484375 15.921875 20.484375 11.0625 
Q 25.484375 6.203125 34.421875 6.203125 
Q 39.59375 6.203125 44.453125 7.46875 
Q 49.3125 8.734375 54.109375 11.28125 
L 54.109375 2.78125 
Q 49.265625 0.734375 44.1875 -0.34375 
Q 39.109375 -1.421875 33.890625 -1.421875 
Q 20.796875 -1.421875 13.15625 6.1875 
Q 5.515625 13.8125 5.515625 26.8125 
Q 5.515625 40.234375 12.765625 48.109375 
Q 20.015625 56 32.328125 56 
Q 43.359375 56 49.78125 48.890625 
Q 56.203125 41.796875 56.203125 29.59375 
z
M 47.21875 32.234375 
Q 47.125 39.59375 43.09375 43.984375 
Q 39.0625 48.390625 32.421875 48.390625 
Q 24.90625 48.390625 20.390625 44.140625 
Q 15.875 39.890625 15.1875 32.171875 
z
" id="DejaVuSans-101"/>
       <path d="M 4.890625 31.390625 
L 31.203125 31.390625 
L 31.203125 23.390625 
L 4.890625 23.390625 
z
" id="DejaVuSans-45"/>
       <path d="M 19.671875 64.796875 
L 19.671875 37.40625 
L 32.078125 37.40625 
Q 38.96875 37.40625 42.71875 40.96875 
Q 46.484375 44.53125 46.484375 51.125 
Q 46.484375 57.671875 42.71875 61.234375 
Q 38.96875 64.796875 32.078125 64.796875 
z
M 9.8125 72.90625 
L 32.078125 72.90625 
Q 44.34375 72.90625 50.609375 67.359375 
Q 56.890625 61.8125 56.890625 51.125 
Q 56.890625 40.328125 50.609375 34.8125 
Q 44.34375 29.296875 32.078125 29.296875 
L 19.671875 29.296875 
L 19.671875 0 
L 9.8125 0 
z
" id="DejaVuSans-80"/>
       <path d="M 54.890625 33.015625 
L 54.890625 0 
L 45.90625 0 
L 45.90625 32.71875 
Q 45.90625 40.484375 42.875 44.328125 
Q 39.84375 48.1875 33.796875 48.1875 
Q 26.515625 48.1875 22.3125 43.546875 
Q 18.109375 38.921875 18.109375 30.90625 
L 18.109375 0 
L 9.078125 0 
L 9.078125 75.984375 
L 18.109375 75.984375 
L 18.109375 46.1875 
Q 21.34375 51.125 25.703125 53.5625 
Q 30.078125 56 35.796875 56 
Q 45.21875 56 50.046875 50.171875 
Q 54.890625 44.34375 54.890625 33.015625 
z
" id="DejaVuSans-104"/>
       <path d="M 30.609375 48.390625 
Q 23.390625 48.390625 19.1875 42.75 
Q 14.984375 37.109375 14.984375 27.296875 
Q 14.984375 17.484375 19.15625 11.84375 
Q 23.34375 6.203125 30.609375 6.203125 
Q 37.796875 6.203125 41.984375 11.859375 
Q 46.1875 17.53125 46.1875 27.296875 
Q 46.1875 37.015625 41.984375 42.703125 
Q 37.796875 48.390625 30.609375 48.390625 
z
M 30.609375 56 
Q 42.328125 56 49.015625 48.375 
Q 55.71875 40.765625 55.71875 27.296875 
Q 55.71875 13.875 49.015625 6.21875 
Q 42.328125 -1.421875 30.609375 -1.421875 
Q 18.84375 -1.421875 12.171875 6.21875 
Q 5.515625 13.875 5.515625 27.296875 
Q 5.515625 40.765625 12.171875 48.375 
Q 18.84375 56 30.609375 56 
z
" id="DejaVuSans-111"/>
       <path d="M 18.3125 70.21875 
L 18.3125 54.6875 
L 36.8125 54.6875 
L 36.8125 47.703125 
L 18.3125 47.703125 
L 18.3125 18.015625 
Q 18.3125 11.328125 20.140625 9.421875 
Q 21.96875 7.515625 27.59375 7.515625 
L 36.8125 7.515625 
L 36.8125 0 
L 27.59375 0 
Q 17.1875 0 13.234375 3.875 
Q 9.28125 7.765625 9.28125 18.015625 
L 9.28125 47.703125 
L 2.6875 47.703125 
L 2.6875 54.6875 
L 9.28125 54.6875 
L 9.28125 70.21875 
z
" id="DejaVuSans-116"/>
       <path id="DejaVuSans-32"/>
       <path d="M 19.671875 64.796875 
L 19.671875 8.109375 
L 31.59375 8.109375 
Q 46.6875 8.109375 53.6875 14.9375 
Q 60.6875 21.78125 60.6875 36.53125 
Q 60.6875 51.171875 53.6875 57.984375 
Q 46.6875 64.796875 31.59375 64.796875 
z
M 9.8125 72.90625 
L 30.078125 72.90625 
Q 51.265625 72.90625 61.171875 64.09375 
Q 71.09375 55.28125 71.09375 36.53125 
Q 71.09375 17.671875 61.125 8.828125 
Q 51.171875 0 30.078125 0 
L 9.8125 0 
z
" id="DejaVuSans-68"/>
       <path d="M 8.5 21.578125 
L 8.5 54.6875 
L 17.484375 54.6875 
L 17.484375 21.921875 
Q 17.484375 14.15625 20.5 10.265625 
Q 23.53125 6.390625 29.59375 6.390625 
Q 36.859375 6.390625 41.078125 11.03125 
Q 45.3125 15.671875 45.3125 23.6875 
L 45.3125 54.6875 
L 54.296875 54.6875 
L 54.296875 0 
L 45.3125 0 
L 45.3125 8.40625 
Q 42.046875 3.421875 37.71875 1 
Q 33.40625 -1.421875 27.6875 -1.421875 
Q 18.265625 -1.421875 13.375 4.4375 
Q 8.5 10.296875 8.5 21.578125 
z
M 31.109375 56 
z
" id="DejaVuSans-117"/>
       <path d="M 9.421875 54.6875 
L 18.40625 54.6875 
L 18.40625 0 
L 9.421875 0 
z
M 9.421875 75.984375 
L 18.40625 75.984375 
L 18.40625 64.59375 
L 9.421875 64.59375 
z
" id="DejaVuSans-105"/>
       <path d="M 45.40625 27.984375 
Q 45.40625 37.75 41.375 43.109375 
Q 37.359375 48.484375 30.078125 48.484375 
Q 22.859375 48.484375 18.828125 43.109375 
Q 14.796875 37.75 14.796875 27.984375 
Q 14.796875 18.265625 18.828125 12.890625 
Q 22.859375 7.515625 30.078125 7.515625 
Q 37.359375 7.515625 41.375 12.890625 
Q 45.40625 18.265625 45.40625 27.984375 
z
M 54.390625 6.78125 
Q 54.390625 -7.171875 48.1875 -13.984375 
Q 42 -20.796875 29.203125 -20.796875 
Q 24.46875 -20.796875 20.265625 -20.09375 
Q 16.0625 -19.390625 12.109375 -17.921875 
L 12.109375 -9.1875 
Q 16.0625 -11.328125 19.921875 -12.34375 
Q 23.78125 -13.375 27.78125 -13.375 
Q 36.625 -13.375 41.015625 -8.765625 
Q 45.40625 -4.15625 45.40625 5.171875 
L 45.40625 9.625 
Q 42.625 4.78125 38.28125 2.390625 
Q 33.9375 0 27.875 0 
Q 17.828125 0 11.671875 7.65625 
Q 5.515625 15.328125 5.515625 27.984375 
Q 5.515625 40.671875 11.671875 48.328125 
Q 17.828125 56 27.875 56 
Q 33.9375 56 38.28125 53.609375 
Q 42.625 51.21875 45.40625 46.390625 
L 45.40625 54.6875 
L 54.390625 54.6875 
z
" id="DejaVuSans-103"/>
       <path d="M 59.515625 10.40625 
L 59.515625 29.984375 
L 43.40625 29.984375 
L 43.40625 38.09375 
L 69.28125 38.09375 
L 69.28125 6.78125 
Q 63.578125 2.734375 56.6875 0.65625 
Q 49.8125 -1.421875 42 -1.421875 
Q 24.90625 -1.421875 15.25 8.5625 
Q 5.609375 18.5625 5.609375 36.375 
Q 5.609375 54.25 15.25 64.234375 
Q 24.90625 74.21875 42 74.21875 
Q 49.125 74.21875 55.546875 72.453125 
Q 61.96875 70.703125 67.390625 67.28125 
L 67.390625 56.78125 
Q 61.921875 61.421875 55.765625 63.765625 
Q 49.609375 66.109375 42.828125 66.109375 
Q 29.4375 66.109375 22.71875 58.640625 
Q 16.015625 51.171875 16.015625 36.375 
Q 16.015625 21.625 22.71875 14.15625 
Q 29.4375 6.6875 42.828125 6.6875 
Q 48.046875 6.6875 52.140625 7.59375 
Q 56.25 8.5 59.515625 10.40625 
z
" id="DejaVuSans-71"/>
      </defs>
      <use xlink:href="#DejaVuSans-79"/>
      <use x="78.710938" xlink:href="#DejaVuSans-110"/>
      <use x="142.089844" xlink:href="#DejaVuSans-101"/>
      <use x="203.613281" xlink:href="#DejaVuSans-45"/>
      <use x="239.697266" xlink:href="#DejaVuSans-80"/>
      <use x="300" xlink:href="#DejaVuSans-104"/>
      <use x="363.378906" xlink:href="#DejaVuSans-111"/>
      <use x="424.560547" xlink:href="#DejaVuSans-116"/>
      <use x="463.769531" xlink:href="#DejaVuSans-111"/>
      <use x="524.951172" xlink:href="#DejaVuSans-110"/>
      <use x="588.330078" xlink:href="#DejaVuSans-32"/>
      <use x="620.117188" xlink:href="#DejaVuSans-68"/>
      <use x="697.119141" xlink:href="#DejaVuSans-101"/>
      <use x="758.642578" xlink:href="#DejaVuSans-116"/>
      <use x="797.851562" xlink:href="#DejaVuSans-117"/>
      <use x="861.230469" xlink:href="#DejaVuSans-110"/>
      <use x="924.609375" xlink:href="#DejaVuSans-105"/>
      <use x="952.392578" xlink:href="#DejaVuSans-110"/>
      <use x="1015.771484" xlink:href="#DejaVuSans-103"/>
      <use x="1079.248047" xlink:href="#DejaVuSans-32"/>
      <use x="1111.035156" xlink:href="#DejaVuSans-40"/>
      <use x="1150.048828" xlink:href="#DejaVuSans-71"/>
      <use x="1227.539062" xlink:href="#DejaVuSans-72"/>
      <use x="1302.734375" xlink:href="#DejaVuSans-122"/>
      <use x="1355.224609" xlink:href="#DejaVuSans-41"/>
     </g>
    </g>
   </g>
   <g id="matplotlib.axis_6">
    <g id="ytick_73">
     <g id="line2d_106">
      <path clip-path="url(#p1a01b5aaca)" d="M 66.1875 381.212234 
L 363.4899 381.212234 
" style="fill:none;stroke:#b0b0b0;stroke-linecap:square;stroke-width:0.8;"/>
     </g>
     <g id="line2d_107">
      <g>
       <use style="stroke:#000000;stroke-width:0.8;" x="66.1875" xlink:href="#mc3ce260a5b" y="381.212234"/>
      </g>
     </g>
     <g id="text_16">
      <!-- 0.1 -->
      <g transform="translate(35.332813 386.911062)scale(0.15 -0.15)">
       <use xlink:href="#DejaVuSans-48"/>
       <use x="63.623047" xlink:href="#DejaVuSans-46"/>
       <use x="95.410156" xlink:href="#DejaVuSans-49"/>
      </g>
     </g>
    </g>
    <g id="ytick_74">
     <g id="line2d_108">
      <path clip-path="url(#p1a01b5aaca)" d="M 66.1875 345.222468 
L 363.4899 345.222468 
" style="fill:none;stroke:#b0b0b0;stroke-linecap:square;stroke-width:0.8;"/>
     </g>
     <g id="line2d_109">
      <g>
       <use style="stroke:#000000;stroke-width:0.8;" x="66.1875" xlink:href="#mc3ce260a5b" y="345.222468"/>
      </g>
     </g>
     <g id="text_17">
      <!-- 1 -->
      <g transform="translate(49.64375 350.921296)scale(0.15 -0.15)">
       <use xlink:href="#DejaVuSans-49"/>
      </g>
     </g>
    </g>
    <g id="ytick_75">
     <g id="line2d_110">
      <path clip-path="url(#p1a01b5aaca)" d="M 66.1875 309.232703 
L 363.4899 309.232703 
" style="fill:none;stroke:#b0b0b0;stroke-linecap:square;stroke-width:0.8;"/>
     </g>
     <g id="line2d_111">
      <g>
       <use style="stroke:#000000;stroke-width:0.8;" x="66.1875" xlink:href="#mc3ce260a5b" y="309.232703"/>
      </g>
     </g>
     <g id="text_18">
      <!-- 10 -->
      <g transform="translate(40.1 314.931531)scale(0.15 -0.15)">
       <use xlink:href="#DejaVuSans-49"/>
       <use x="63.623047" xlink:href="#DejaVuSans-48"/>
      </g>
     </g>
    </g>
    <g id="ytick_76">
     <g id="line2d_112">
      <g>
       <use style="stroke:#000000;stroke-width:0.6;" x="66.1875" xlink:href="#md0f4fded07" y="406.368"/>
      </g>
     </g>
    </g>
    <g id="ytick_77">
     <g id="line2d_113">
      <g>
       <use style="stroke:#000000;stroke-width:0.6;" x="66.1875" xlink:href="#md0f4fded07" y="400.030517"/>
      </g>
     </g>
    </g>
    <g id="ytick_78">
     <g id="line2d_114">
      <g>
       <use style="stroke:#000000;stroke-width:0.6;" x="66.1875" xlink:href="#md0f4fded07" y="395.534001"/>
      </g>
     </g>
    </g>
    <g id="ytick_79">
     <g id="line2d_115">
      <g>
       <use style="stroke:#000000;stroke-width:0.6;" x="66.1875" xlink:href="#md0f4fded07" y="392.046232"/>
      </g>
     </g>
    </g>
    <g id="ytick_80">
     <g id="line2d_116">
      <g>
       <use style="stroke:#000000;stroke-width:0.6;" x="66.1875" xlink:href="#md0f4fded07" y="389.196518"/>
      </g>
     </g>
    </g>
    <g id="ytick_81">
     <g id="line2d_117">
      <g>
       <use style="stroke:#000000;stroke-width:0.6;" x="66.1875" xlink:href="#md0f4fded07" y="386.787119"/>
      </g>
     </g>
    </g>
    <g id="ytick_82">
     <g id="line2d_118">
      <g>
       <use style="stroke:#000000;stroke-width:0.6;" x="66.1875" xlink:href="#md0f4fded07" y="384.700002"/>
      </g>
     </g>
    </g>
    <g id="ytick_83">
     <g id="line2d_119">
      <g>
       <use style="stroke:#000000;stroke-width:0.6;" x="66.1875" xlink:href="#md0f4fded07" y="382.859035"/>
      </g>
     </g>
    </g>
    <g id="ytick_84">
     <g id="line2d_120">
      <g>
       <use style="stroke:#000000;stroke-width:0.6;" x="66.1875" xlink:href="#md0f4fded07" y="370.378235"/>
      </g>
     </g>
    </g>
    <g id="ytick_85">
     <g id="line2d_121">
      <g>
       <use style="stroke:#000000;stroke-width:0.6;" x="66.1875" xlink:href="#md0f4fded07" y="364.040752"/>
      </g>
     </g>
    </g>
    <g id="ytick_86">
     <g id="line2d_122">
      <g>
       <use style="stroke:#000000;stroke-width:0.6;" x="66.1875" xlink:href="#md0f4fded07" y="359.544236"/>
      </g>
     </g>
    </g>
    <g id="ytick_87">
     <g id="line2d_123">
      <g>
       <use style="stroke:#000000;stroke-width:0.6;" x="66.1875" xlink:href="#md0f4fded07" y="356.056467"/>
      </g>
     </g>
    </g>
    <g id="ytick_88">
     <g id="line2d_124">
      <g>
       <use style="stroke:#000000;stroke-width:0.6;" x="66.1875" xlink:href="#md0f4fded07" y="353.206753"/>
      </g>
     </g>
    </g>
    <g id="ytick_89">
     <g id="line2d_125">
      <g>
       <use style="stroke:#000000;stroke-width:0.6;" x="66.1875" xlink:href="#md0f4fded07" y="350.797354"/>
      </g>
     </g>
    </g>
    <g id="ytick_90">
     <g id="line2d_126">
      <g>
       <use style="stroke:#000000;stroke-width:0.6;" x="66.1875" xlink:href="#md0f4fded07" y="348.710237"/>
      </g>
     </g>
    </g>
    <g id="ytick_91">
     <g id="line2d_127">
      <g>
       <use style="stroke:#000000;stroke-width:0.6;" x="66.1875" xlink:href="#md0f4fded07" y="346.86927"/>
      </g>
     </g>
    </g>
    <g id="ytick_92">
     <g id="line2d_128">
      <g>
       <use style="stroke:#000000;stroke-width:0.6;" x="66.1875" xlink:href="#md0f4fded07" y="334.388469"/>
      </g>
     </g>
    </g>
    <g id="ytick_93">
     <g id="line2d_129">
      <g>
       <use style="stroke:#000000;stroke-width:0.6;" x="66.1875" xlink:href="#md0f4fded07" y="328.050986"/>
      </g>
     </g>
    </g>
    <g id="ytick_94">
     <g id="line2d_130">
      <g>
       <use style="stroke:#000000;stroke-width:0.6;" x="66.1875" xlink:href="#md0f4fded07" y="323.554471"/>
      </g>
     </g>
    </g>
    <g id="ytick_95">
     <g id="line2d_131">
      <g>
       <use style="stroke:#000000;stroke-width:0.6;" x="66.1875" xlink:href="#md0f4fded07" y="320.066702"/>
      </g>
     </g>
    </g>
    <g id="ytick_96">
     <g id="line2d_132">
      <g>
       <use style="stroke:#000000;stroke-width:0.6;" x="66.1875" xlink:href="#md0f4fded07" y="317.216987"/>
      </g>
     </g>
    </g>
    <g id="ytick_97">
     <g id="line2d_133">
      <g>
       <use style="stroke:#000000;stroke-width:0.6;" x="66.1875" xlink:href="#md0f4fded07" y="314.807588"/>
      </g>
     </g>
    </g>
    <g id="ytick_98">
     <g id="line2d_134">
      <g>
       <use style="stroke:#000000;stroke-width:0.6;" x="66.1875" xlink:href="#md0f4fded07" y="312.720472"/>
      </g>
     </g>
    </g>
    <g id="ytick_99">
     <g id="line2d_135">
      <g>
       <use style="stroke:#000000;stroke-width:0.6;" x="66.1875" xlink:href="#md0f4fded07" y="310.879504"/>
      </g>
     </g>
    </g>
    <g id="ytick_100">
     <g id="line2d_136">
      <g>
       <use style="stroke:#000000;stroke-width:0.6;" x="66.1875" xlink:href="#md0f4fded07" y="298.398704"/>
      </g>
     </g>
    </g>
    <g id="ytick_101">
     <g id="line2d_137">
      <g>
       <use style="stroke:#000000;stroke-width:0.6;" x="66.1875" xlink:href="#md0f4fded07" y="292.061221"/>
      </g>
     </g>
    </g>
    <g id="ytick_102">
     <g id="line2d_138">
      <g>
       <use style="stroke:#000000;stroke-width:0.6;" x="66.1875" xlink:href="#md0f4fded07" y="287.564705"/>
      </g>
     </g>
    </g>
    <g id="ytick_103">
     <g id="line2d_139">
      <g>
       <use style="stroke:#000000;stroke-width:0.6;" x="66.1875" xlink:href="#md0f4fded07" y="284.076937"/>
      </g>
     </g>
    </g>
    <g id="ytick_104">
     <g id="line2d_140">
      <g>
       <use style="stroke:#000000;stroke-width:0.6;" x="66.1875" xlink:href="#md0f4fded07" y="281.227222"/>
      </g>
     </g>
    </g>
    <g id="ytick_105">
     <g id="line2d_141">
      <g>
       <use style="stroke:#000000;stroke-width:0.6;" x="66.1875" xlink:href="#md0f4fded07" y="278.817823"/>
      </g>
     </g>
    </g>
    <g id="ytick_106">
     <g id="line2d_142">
      <g>
       <use style="stroke:#000000;stroke-width:0.6;" x="66.1875" xlink:href="#md0f4fded07" y="276.730706"/>
      </g>
     </g>
    </g>
    <g id="ytick_107">
     <g id="line2d_143">
      <g>
       <use style="stroke:#000000;stroke-width:0.6;" x="66.1875" xlink:href="#md0f4fded07" y="274.889739"/>
      </g>
     </g>
    </g>
    <g id="text_19">
     <!-- $\Omega_{R}/\Gamma_{s}$ -->
     <g transform="translate(27.173438 366.52887)rotate(-90)scale(0.2 -0.2)">
      <defs>
       <path d="M 25.390625 72.90625 
L 33.6875 72.90625 
L 8.296875 -9.28125 
L 0 -9.28125 
z
" id="DejaVuSans-47"/>
      </defs>
      <use transform="translate(0 0.21875)" xlink:href="#DejaVuSans-937"/>
      <use transform="translate(77.373047 -16.1875)scale(0.7)" xlink:href="#DejaVuSans-Oblique-82"/>
      <use transform="translate(128.745117 0.21875)" xlink:href="#DejaVuSans-47"/>
      <use transform="translate(162.436523 0.21875)" xlink:href="#DejaVuSans-915"/>
      <use transform="translate(219.106445 -16.1875)scale(0.7)" xlink:href="#DejaVuSans-Oblique-115"/>
     </g>
    </g>
   </g>
   <g id="line2d_144">
    <path clip-path="url(#p1a01b5aaca)" d="M 65.441906 283.382923 
L 81.05036 284.15607 
L 94.429035 285.028595 
L 106.69282 286.039224 
L 117.841716 287.172717 
L 127.875722 288.406761 
L 136.794839 289.711202 
L 144.599066 291.047328 
L 152.403293 292.605448 
L 159.09263 294.157654 
L 165.781968 295.958913 
L 171.356416 297.697809 
L 175.815974 299.283484 
L 180.275532 301.084778 
L 184.735091 303.158283 
L 188.079759 304.94089 
L 191.424428 306.974154 
L 194.769097 309.333171 
L 196.998876 311.141584 
L 199.228655 313.195888 
L 201.458434 315.570574 
L 203.688213 318.380716 
L 205.917992 321.818139 
L 207.032882 323.872357 
L 208.147772 326.239792 
L 209.262661 329.032632 
L 210.377551 332.437006 
L 211.49244 336.796783 
L 212.60733 342.865087 
L 213.722219 352.917631 
L 214.837109 389.269088 
L 215.951999 356.322354 
L 217.066888 344.570704 
L 218.181778 337.942429 
L 219.296667 333.305722 
L 220.411557 329.737464 
L 221.526446 326.837227 
L 222.641336 324.394665 
L 223.756226 322.285483 
L 225.986005 318.774426 
L 228.215784 315.918874 
L 230.445563 313.514908 
L 232.675342 311.441406 
L 234.905121 309.620517 
L 238.24979 307.251195 
L 241.594459 305.214354 
L 244.939128 303.432664 
L 249.398686 301.365126 
L 253.858244 299.573527 
L 258.317802 298.000141 
L 263.89225 296.279195 
L 269.466698 294.779365 
L 276.156036 293.215351 
L 283.960263 291.653898 
L 291.76449 290.322582 
L 300.683606 289.030942 
L 310.717612 287.818226 
L 321.866508 286.714865 
L 334.130293 285.743289 
L 347.508968 284.918759 
L 362.002533 284.250147 
L 364.232312 284.165073 
L 364.232312 284.165073 
" style="fill:none;stroke:#1f77b4;stroke-linecap:square;stroke-width:1.5;"/>
   </g>
   <g id="line2d_145">
    <path clip-path="url(#p1a01b5aaca)" d="M 66.043871 372.962265 
L 87.194919 371.039627 
L 104.268656 369.272012 
L 118.539243 367.579657 
L 130.771174 365.912266 
L 141.219282 364.273168 
L 150.393231 362.616256 
L 158.547852 360.918003 
L 165.683145 359.204242 
L 171.799111 357.516111 
L 177.405413 355.740529 
L 182.247219 353.98452 
L 186.834193 352.082019 
L 190.911503 350.150832 
L 194.733982 348.096349 
L 198.55646 345.784728 
L 206.201418 341.008224 
L 207.475577 340.566657 
L 208.240073 340.480593 
L 209.004568 340.60077 
L 209.769064 341.015843 
L 210.278728 341.517815 
L 210.788392 342.259624 
L 211.298056 343.311843 
L 211.807719 344.772318 
L 212.317383 346.784187 
L 212.827047 349.574726 
L 213.336711 353.55319 
L 213.846375 359.621684 
L 214.101206 364.135073 
L 214.356038 370.707771 
L 214.61087 382.545021 
L 214.865702 413.284432 
L 215.120534 378.729764 
L 215.630198 362.976466 
L 216.139862 355.663419 
L 216.649526 351.109644 
L 217.159189 347.995531 
L 217.923685 344.92817 
L 218.688181 343.075944 
L 219.452676 342.007633 
L 220.217172 341.469539 
L 220.981668 341.298019 
L 221.746164 341.382369 
L 222.765491 341.763493 
L 224.039651 342.508901 
L 226.078306 344.011953 
L 235.761918 351.521027 
L 239.839229 354.252097 
L 244.171371 356.875083 
L 248.758345 359.395858 
L 254.109815 362.073123 
L 259.970949 364.754025 
L 266.85141 367.650678 
L 275.006031 370.833286 
L 285.199307 374.563068 
L 302.273045 380.532418 
L 318.582287 386.318276 
L 328.011067 389.893352 
L 335.656024 393.026028 
L 342.026822 395.875855 
L 347.378292 398.505677 
L 351.965266 400.992694 
L 356.042576 403.444285 
L 359.610223 405.835607 
L 362.923038 408.328957 
L 363.687533 408.950574 
L 363.687533 408.950574 
" style="fill:none;stroke:#ff7f0e;stroke-linecap:square;stroke-width:1.5;"/>
   </g>
   <g id="patch_14">
    <path d="M 66.1875 406.368 
L 66.1875 274.889739 
" style="fill:none;stroke:#000000;stroke-linecap:square;stroke-linejoin:miter;stroke-width:0.8;"/>
   </g>
   <g id="patch_15">
    <path d="M 363.4899 406.368 
L 363.4899 274.889739 
" style="fill:none;stroke:#000000;stroke-linecap:square;stroke-linejoin:miter;stroke-width:0.8;"/>
   </g>
   <g id="patch_16">
    <path d="M 66.1875 406.368 
L 363.4899 406.368 
" style="fill:none;stroke:#000000;stroke-linecap:square;stroke-linejoin:miter;stroke-width:0.8;"/>
   </g>
   <g id="patch_17">
    <path d="M 66.1875 274.889739 
L 363.4899 274.889739 
" style="fill:none;stroke:#000000;stroke-linecap:square;stroke-linejoin:miter;stroke-width:0.8;"/>
   </g>
  </g>
 </g>
 <defs>
  <clipPath id="p998e2626a8">
   <rect height="131.478261" width="297.3024" x="66.1875" y="7.2"/>
  </clipPath>
  <clipPath id="p719e214cff">
   <rect height="131.478261" width="297.3024" x="66.1875" y="141.04487"/>
  </clipPath>
  <clipPath id="p1a01b5aaca">
   <rect height="131.478261" width="297.3024" x="66.1875" y="274.889739"/>
  </clipPath>
 </defs>
</svg>
