<?xml version="1.0" encoding="utf-8" standalone="no"?>
<!DOCTYPE svg PUBLIC "-//W3C//DTD SVG 1.1//EN"
  "http://www.w3.org/Graphics/SVG/1.1/DTD/svg11.dtd">
<!-- Created with matplotlib (https://matplotlib.org/) -->
<svg height="431.830237pt" version="1.1" viewBox="0 0 370.6899 431.830237" width="370.6899pt" xmlns="http://www.w3.org/2000/svg" xmlns:xlink="http://www.w3.org/1999/xlink">
 <defs>
  <style type="text/css">*{stroke-linecap:butt;stroke-linejoin:round;}</style>
 </defs>
 <g id="figure_1">
  <g id="patch_1">
   <path d="M 0 431.830237 
L 370.6899 431.830237 
L 370.6899 0 
L 0 0 
z
" style="fill:none;"/>
  </g>
  <g id="axes_1">
   <g id="patch_2">
    <path d="M 66.1875 131.3856 
L 363.4899 131.3856 
L 363.4899 7.2 
L 66.1875 7.2 
z
" style="fill:none;"/>
   </g>
   <g id="matplotlib.axis_1">
    <g id="xtick_1">
     <g id="line2d_1">
      <path clip-path="url(#p5f4450bc99)" d="M 129.895157 131.3856 
L 129.895157 7.2 
" style="fill:none;stroke:#b0b0b0;stroke-linecap:square;stroke-width:0.8;"/>
     </g>
     <g id="line2d_2"/>
    </g>
    <g id="xtick_2">
     <g id="line2d_3">
      <path clip-path="url(#p5f4450bc99)" d="M 214.8387 131.3856 
L 214.8387 7.2 
" style="fill:none;stroke:#b0b0b0;stroke-linecap:square;stroke-width:0.8;"/>
     </g>
     <g id="line2d_4"/>
    </g>
    <g id="xtick_3">
     <g id="line2d_5">
      <path clip-path="url(#p5f4450bc99)" d="M 299.782243 131.3856 
L 299.782243 7.2 
" style="fill:none;stroke:#b0b0b0;stroke-linecap:square;stroke-width:0.8;"/>
     </g>
     <g id="line2d_6"/>
    </g>
   </g>
   <g id="matplotlib.axis_2">
    <g id="ytick_1">
     <g id="line2d_7">
      <path clip-path="url(#p5f4450bc99)" d="M 66.1875 119.244843 
L 363.4899 119.244843 
" style="fill:none;stroke:#b0b0b0;stroke-linecap:square;stroke-width:0.8;"/>
     </g>
     <g id="line2d_8">
      <defs>
       <path d="M 0 0 
L -3.5 0 
" id="mc3ce260a5b" style="stroke:#000000;stroke-width:0.8;"/>
      </defs>
      <g>
       <use style="stroke:#000000;stroke-width:0.8;" x="66.1875" xlink:href="#mc3ce260a5b" y="119.244843"/>
      </g>
     </g>
     <g id="text_1">
      <!-- 1 -->
      <g transform="translate(49.64375 124.943671)scale(0.15 -0.15)">
       <defs>
        <path d="M 12.40625 8.296875 
L 28.515625 8.296875 
L 28.515625 63.921875 
L 10.984375 60.40625 
L 10.984375 69.390625 
L 28.421875 72.90625 
L 38.28125 72.90625 
L 38.28125 8.296875 
L 54.390625 8.296875 
L 54.390625 0 
L 12.40625 0 
z
" id="DejaVuSans-49"/>
       </defs>
       <use xlink:href="#DejaVuSans-49"/>
      </g>
     </g>
    </g>
    <g id="ytick_2">
     <g id="line2d_9">
      <path clip-path="url(#p5f4450bc99)" d="M 66.1875 78.914122 
L 363.4899 78.914122 
" style="fill:none;stroke:#b0b0b0;stroke-linecap:square;stroke-width:0.8;"/>
     </g>
     <g id="line2d_10">
      <g>
       <use style="stroke:#000000;stroke-width:0.8;" x="66.1875" xlink:href="#mc3ce260a5b" y="78.914122"/>
      </g>
     </g>
     <g id="text_2">
      <!-- 10 -->
      <g transform="translate(40.1 84.61295)scale(0.15 -0.15)">
       <defs>
        <path d="M 31.78125 66.40625 
Q 24.171875 66.40625 20.328125 58.90625 
Q 16.5 51.421875 16.5 36.375 
Q 16.5 21.390625 20.328125 13.890625 
Q 24.171875 6.390625 31.78125 6.390625 
Q 39.453125 6.390625 43.28125 13.890625 
Q 47.125 21.390625 47.125 36.375 
Q 47.125 51.421875 43.28125 58.90625 
Q 39.453125 66.40625 31.78125 66.40625 
z
M 31.78125 74.21875 
Q 44.046875 74.21875 50.515625 64.515625 
Q 56.984375 54.828125 56.984375 36.375 
Q 56.984375 17.96875 50.515625 8.265625 
Q 44.046875 -1.421875 31.78125 -1.421875 
Q 19.53125 -1.421875 13.0625 8.265625 
Q 6.59375 17.96875 6.59375 36.375 
Q 6.59375 54.828125 13.0625 64.515625 
Q 19.53125 74.21875 31.78125 74.21875 
z
" id="DejaVuSans-48"/>
       </defs>
       <use xlink:href="#DejaVuSans-49"/>
       <use x="63.623047" xlink:href="#DejaVuSans-48"/>
      </g>
     </g>
    </g>
    <g id="ytick_3">
     <g id="line2d_11">
      <path clip-path="url(#p5f4450bc99)" d="M 66.1875 38.583401 
L 363.4899 38.583401 
" style="fill:none;stroke:#b0b0b0;stroke-linecap:square;stroke-width:0.8;"/>
     </g>
     <g id="line2d_12">
      <g>
       <use style="stroke:#000000;stroke-width:0.8;" x="66.1875" xlink:href="#mc3ce260a5b" y="38.583401"/>
      </g>
     </g>
     <g id="text_3">
      <!-- 100 -->
      <g transform="translate(30.55625 44.282229)scale(0.15 -0.15)">
       <use xlink:href="#DejaVuSans-49"/>
       <use x="63.623047" xlink:href="#DejaVuSans-48"/>
       <use x="127.246094" xlink:href="#DejaVuSans-48"/>
      </g>
     </g>
    </g>
    <g id="ytick_4">
     <g id="line2d_13">
      <defs>
       <path d="M 0 0 
L -2 0 
" id="md0f4fded07" style="stroke:#000000;stroke-width:0.6;"/>
      </defs>
      <g>
       <use style="stroke:#000000;stroke-width:0.6;" x="66.1875" xlink:href="#md0f4fded07" y="131.3856"/>
      </g>
     </g>
    </g>
    <g id="ytick_5">
     <g id="line2d_14">
      <g>
       <use style="stroke:#000000;stroke-width:0.6;" x="66.1875" xlink:href="#md0f4fded07" y="128.192163"/>
      </g>
     </g>
    </g>
    <g id="ytick_6">
     <g id="line2d_15">
      <g>
       <use style="stroke:#000000;stroke-width:0.6;" x="66.1875" xlink:href="#md0f4fded07" y="125.492151"/>
      </g>
     </g>
    </g>
    <g id="ytick_7">
     <g id="line2d_16">
      <g>
       <use style="stroke:#000000;stroke-width:0.6;" x="66.1875" xlink:href="#md0f4fded07" y="123.153294"/>
      </g>
     </g>
    </g>
    <g id="ytick_8">
     <g id="line2d_17">
      <g>
       <use style="stroke:#000000;stroke-width:0.6;" x="66.1875" xlink:href="#md0f4fded07" y="121.090276"/>
      </g>
     </g>
    </g>
    <g id="ytick_9">
     <g id="line2d_18">
      <g>
       <use style="stroke:#000000;stroke-width:0.6;" x="66.1875" xlink:href="#md0f4fded07" y="107.104086"/>
      </g>
     </g>
    </g>
    <g id="ytick_10">
     <g id="line2d_19">
      <g>
       <use style="stroke:#000000;stroke-width:0.6;" x="66.1875" xlink:href="#md0f4fded07" y="100.002199"/>
      </g>
     </g>
    </g>
    <g id="ytick_11">
     <g id="line2d_20">
      <g>
       <use style="stroke:#000000;stroke-width:0.6;" x="66.1875" xlink:href="#md0f4fded07" y="94.96333"/>
      </g>
     </g>
    </g>
    <g id="ytick_12">
     <g id="line2d_21">
      <g>
       <use style="stroke:#000000;stroke-width:0.6;" x="66.1875" xlink:href="#md0f4fded07" y="91.054879"/>
      </g>
     </g>
    </g>
    <g id="ytick_13">
     <g id="line2d_22">
      <g>
       <use style="stroke:#000000;stroke-width:0.6;" x="66.1875" xlink:href="#md0f4fded07" y="87.861442"/>
      </g>
     </g>
    </g>
    <g id="ytick_14">
     <g id="line2d_23">
      <g>
       <use style="stroke:#000000;stroke-width:0.6;" x="66.1875" xlink:href="#md0f4fded07" y="85.16143"/>
      </g>
     </g>
    </g>
    <g id="ytick_15">
     <g id="line2d_24">
      <g>
       <use style="stroke:#000000;stroke-width:0.6;" x="66.1875" xlink:href="#md0f4fded07" y="82.822573"/>
      </g>
     </g>
    </g>
    <g id="ytick_16">
     <g id="line2d_25">
      <g>
       <use style="stroke:#000000;stroke-width:0.6;" x="66.1875" xlink:href="#md0f4fded07" y="80.759555"/>
      </g>
     </g>
    </g>
    <g id="ytick_17">
     <g id="line2d_26">
      <g>
       <use style="stroke:#000000;stroke-width:0.6;" x="66.1875" xlink:href="#md0f4fded07" y="66.773365"/>
      </g>
     </g>
    </g>
    <g id="ytick_18">
     <g id="line2d_27">
      <g>
       <use style="stroke:#000000;stroke-width:0.6;" x="66.1875" xlink:href="#md0f4fded07" y="59.671478"/>
      </g>
     </g>
    </g>
    <g id="ytick_19">
     <g id="line2d_28">
      <g>
       <use style="stroke:#000000;stroke-width:0.6;" x="66.1875" xlink:href="#md0f4fded07" y="54.632609"/>
      </g>
     </g>
    </g>
    <g id="ytick_20">
     <g id="line2d_29">
      <g>
       <use style="stroke:#000000;stroke-width:0.6;" x="66.1875" xlink:href="#md0f4fded07" y="50.724158"/>
      </g>
     </g>
    </g>
    <g id="ytick_21">
     <g id="line2d_30">
      <g>
       <use style="stroke:#000000;stroke-width:0.6;" x="66.1875" xlink:href="#md0f4fded07" y="47.530721"/>
      </g>
     </g>
    </g>
    <g id="ytick_22">
     <g id="line2d_31">
      <g>
       <use style="stroke:#000000;stroke-width:0.6;" x="66.1875" xlink:href="#md0f4fded07" y="44.830709"/>
      </g>
     </g>
    </g>
    <g id="ytick_23">
     <g id="line2d_32">
      <g>
       <use style="stroke:#000000;stroke-width:0.6;" x="66.1875" xlink:href="#md0f4fded07" y="42.491852"/>
      </g>
     </g>
    </g>
    <g id="ytick_24">
     <g id="line2d_33">
      <g>
       <use style="stroke:#000000;stroke-width:0.6;" x="66.1875" xlink:href="#md0f4fded07" y="40.428834"/>
      </g>
     </g>
    </g>
    <g id="ytick_25">
     <g id="line2d_34">
      <g>
       <use style="stroke:#000000;stroke-width:0.6;" x="66.1875" xlink:href="#md0f4fded07" y="26.442644"/>
      </g>
     </g>
    </g>
    <g id="ytick_26">
     <g id="line2d_35">
      <g>
       <use style="stroke:#000000;stroke-width:0.6;" x="66.1875" xlink:href="#md0f4fded07" y="19.340757"/>
      </g>
     </g>
    </g>
    <g id="ytick_27">
     <g id="line2d_36">
      <g>
       <use style="stroke:#000000;stroke-width:0.6;" x="66.1875" xlink:href="#md0f4fded07" y="14.301887"/>
      </g>
     </g>
    </g>
    <g id="ytick_28">
     <g id="line2d_37">
      <g>
       <use style="stroke:#000000;stroke-width:0.6;" x="66.1875" xlink:href="#md0f4fded07" y="10.393437"/>
      </g>
     </g>
    </g>
    <g id="ytick_29">
     <g id="line2d_38">
      <g>
       <use style="stroke:#000000;stroke-width:0.6;" x="66.1875" xlink:href="#md0f4fded07" y="7.2"/>
      </g>
     </g>
    </g>
    <g id="text_4">
     <!-- $\Gamma_{s}~(2\pi\!\cdot\!\mathrm{kHz})$ -->
     <g transform="translate(22.396875 124.7928)rotate(-90)scale(0.2 -0.2)">
      <defs>
       <path d="M 9.8125 0 
L 9.8125 72.90625 
L 55.171875 72.90625 
L 55.171875 64.59375 
L 19.671875 64.59375 
L 19.671875 0 
z
" id="DejaVuSans-915"/>
       <path d="M 50 53.078125 
L 48.296875 44.578125 
Q 44.734375 46.53125 40.765625 47.5 
Q 36.8125 48.484375 32.625 48.484375 
Q 25.53125 48.484375 21.453125 46.0625 
Q 17.390625 43.65625 17.390625 39.5 
Q 17.390625 34.671875 26.859375 32.078125 
Q 27.59375 31.890625 27.9375 31.78125 
L 30.8125 30.90625 
Q 39.796875 28.421875 42.796875 25.6875 
Q 45.796875 22.953125 45.796875 18.21875 
Q 45.796875 9.515625 38.890625 4.046875 
Q 31.984375 -1.421875 20.796875 -1.421875 
Q 16.453125 -1.421875 11.671875 -0.578125 
Q 6.890625 0.25 1.125 2 
L 2.875 11.28125 
Q 7.8125 8.734375 12.59375 7.421875 
Q 17.390625 6.109375 21.78125 6.109375 
Q 28.375 6.109375 32.5 8.9375 
Q 36.625 11.765625 36.625 16.109375 
Q 36.625 20.796875 25.78125 23.6875 
L 24.859375 23.921875 
L 21.78125 24.703125 
Q 14.9375 26.515625 11.765625 29.46875 
Q 8.59375 32.421875 8.59375 37.015625 
Q 8.59375 45.75 15.15625 50.875 
Q 21.734375 56 33.015625 56 
Q 37.453125 56 41.671875 55.265625 
Q 45.90625 54.546875 50 53.078125 
z
" id="DejaVuSans-Oblique-115"/>
       <path d="M 31 75.875 
Q 24.46875 64.65625 21.28125 53.65625 
Q 18.109375 42.671875 18.109375 31.390625 
Q 18.109375 20.125 21.3125 9.0625 
Q 24.515625 -2 31 -13.1875 
L 23.1875 -13.1875 
Q 15.875 -1.703125 12.234375 9.375 
Q 8.59375 20.453125 8.59375 31.390625 
Q 8.59375 42.28125 12.203125 53.3125 
Q 15.828125 64.359375 23.1875 75.875 
z
" id="DejaVuSans-40"/>
       <path d="M 19.1875 8.296875 
L 53.609375 8.296875 
L 53.609375 0 
L 7.328125 0 
L 7.328125 8.296875 
Q 12.9375 14.109375 22.625 23.890625 
Q 32.328125 33.6875 34.8125 36.53125 
Q 39.546875 41.84375 41.421875 45.53125 
Q 43.3125 49.21875 43.3125 52.78125 
Q 43.3125 58.59375 39.234375 62.25 
Q 35.15625 65.921875 28.609375 65.921875 
Q 23.96875 65.921875 18.8125 64.3125 
Q 13.671875 62.703125 7.8125 59.421875 
L 7.8125 69.390625 
Q 13.765625 71.78125 18.9375 73 
Q 24.125 74.21875 28.421875 74.21875 
Q 39.75 74.21875 46.484375 68.546875 
Q 53.21875 62.890625 53.21875 53.421875 
Q 53.21875 48.921875 51.53125 44.890625 
Q 49.859375 40.875 45.40625 35.40625 
Q 44.1875 33.984375 37.640625 27.21875 
Q 31.109375 20.453125 19.1875 8.296875 
z
" id="DejaVuSans-50"/>
       <path d="M 9.125 54.6875 
L 61.53125 54.6875 
L 59.765625 45.703125 
L 52.875 45.703125 
L 46.34375 12.109375 
Q 45.65625 8.59375 46.578125 7.03125 
Q 47.46875 5.515625 50.140625 5.515625 
Q 50.875 5.515625 51.953125 5.671875 
Q 53.078125 5.765625 53.421875 5.8125 
L 52.15625 -0.6875 
Q 50.34375 -1.3125 48.484375 -1.609375 
Q 46.578125 -1.90625 44.78125 -1.90625 
Q 38.921875 -1.90625 37.3125 1.265625 
Q 35.6875 4.5 37.359375 13.09375 
L 43.703125 45.703125 
L 23.53125 45.703125 
L 14.65625 0 
L 5.46875 0 
L 14.359375 45.703125 
L 7.375 45.703125 
z
" id="DejaVuSans-Oblique-960"/>
       <path d="M 10.6875 40.921875 
L 21 40.921875 
L 21 28.515625 
L 10.6875 28.515625 
z
" id="DejaVuSans-8901"/>
       <path d="M 9.078125 75.984375 
L 18.109375 75.984375 
L 18.109375 31.109375 
L 44.921875 54.6875 
L 56.390625 54.6875 
L 27.390625 29.109375 
L 57.625 0 
L 45.90625 0 
L 18.109375 26.703125 
L 18.109375 0 
L 9.078125 0 
z
" id="DejaVuSans-107"/>
       <path d="M 9.8125 72.90625 
L 19.671875 72.90625 
L 19.671875 43.015625 
L 55.515625 43.015625 
L 55.515625 72.90625 
L 65.375 72.90625 
L 65.375 0 
L 55.515625 0 
L 55.515625 34.71875 
L 19.671875 34.71875 
L 19.671875 0 
L 9.8125 0 
z
" id="DejaVuSans-72"/>
       <path d="M 5.515625 54.6875 
L 48.1875 54.6875 
L 48.1875 46.484375 
L 14.40625 7.171875 
L 48.1875 7.171875 
L 48.1875 0 
L 4.296875 0 
L 4.296875 8.203125 
L 38.09375 47.515625 
L 5.515625 47.515625 
z
" id="DejaVuSans-122"/>
       <path d="M 8.015625 75.875 
L 15.828125 75.875 
Q 23.140625 64.359375 26.78125 53.3125 
Q 30.421875 42.28125 30.421875 31.390625 
Q 30.421875 20.453125 26.78125 9.375 
Q 23.140625 -1.703125 15.828125 -13.1875 
L 8.015625 -13.1875 
Q 14.5 -2 17.703125 9.0625 
Q 20.90625 20.125 20.90625 31.390625 
Q 20.90625 42.671875 17.703125 53.65625 
Q 14.5 64.65625 8.015625 75.875 
z
" id="DejaVuSans-41"/>
      </defs>
      <use transform="translate(0 0.015625)" xlink:href="#DejaVuSans-915"/>
      <use transform="translate(56.669922 -16.390625)scale(0.7)" xlink:href="#DejaVuSans-Oblique-115"/>
      <use transform="translate(128.344402 0.015625)" xlink:href="#DejaVuSans-40"/>
      <use transform="translate(167.358074 0.015625)" xlink:href="#DejaVuSans-50"/>
      <use transform="translate(230.981121 0.015625)" xlink:href="#DejaVuSans-Oblique-960"/>
      <use transform="translate(294.432944 0.015625)" xlink:href="#DejaVuSans-8901"/>
      <use transform="translate(329.466799 0.015625)" xlink:href="#DejaVuSans-107"/>
      <use transform="translate(387.376956 0.015625)" xlink:href="#DejaVuSans-72"/>
      <use transform="translate(462.572268 0.015625)" xlink:href="#DejaVuSans-122"/>
      <use transform="translate(515.062502 0.015625)" xlink:href="#DejaVuSans-41"/>
     </g>
    </g>
   </g>
   <g id="line2d_39">
    <path clip-path="url(#p5f4450bc99)" d="M 66.043871 78.529636 
L 85.665928 76.196664 
L 101.975169 74.039611 
L 115.736092 72.000138 
L 127.45836 70.045322 
L 137.651636 68.127276 
L 146.570752 66.228845 
L 154.470541 64.322457 
L 161.351003 62.437936 
L 167.466968 60.535805 
L 172.818438 58.645467 
L 177.660244 56.701154 
L 181.992387 54.718927 
L 185.814865 52.724706 
L 189.12768 50.757237 
L 192.185663 48.68745 
L 194.988814 46.513557 
L 197.537133 44.237428 
L 199.83062 41.866833 
L 201.869275 39.418767 
L 203.653098 36.924154 
L 205.18209 34.434034 
L 206.711081 31.500135 
L 207.985241 28.585137 
L 209.2594 25.054193 
L 210.278728 21.577651 
L 211.298056 17.202149 
L 212.062551 12.981787 
L 212.827047 7.376022 
L 213.336711 2.277056 
L 213.593193 -1 
M 216.070202 -1 
L 216.394694 3.183617 
L 217.159189 10.216519 
L 217.923685 15.245191 
L 218.943013 20.305345 
L 219.96234 24.253465 
L 221.2365 28.224456 
L 222.510659 31.488644 
L 224.039651 34.773677 
L 225.568642 37.570314 
L 227.352465 40.387788 
L 229.391121 43.175928 
L 231.684608 45.905905 
L 234.232927 48.563284 
L 237.036078 51.142958 
L 240.094061 53.645716 
L 243.406875 56.076003 
L 247.229354 58.600981 
L 251.561496 61.185206 
L 256.403302 63.807739 
L 262.009604 66.580357 
L 268.380402 69.476509 
L 276.025359 72.69722 
L 285.454139 76.417734 
L 300.23439 81.975646 
L 318.072623 88.732263 
L 327.246571 92.444966 
L 334.636696 95.669351 
L 340.752662 98.571571 
L 346.104132 101.352552 
L 350.691106 103.977828 
L 354.768417 106.559607 
L 358.336063 109.070064 
L 361.648878 111.676765 
L 363.687533 113.449261 
L 363.687533 113.449261 
" style="fill:none;stroke:#ff7f0e;stroke-linecap:square;stroke-width:1.5;"/>
   </g>
   <g id="line2d_40">
    <path clip-path="url(#p5f4450bc99)" d="M 65.441906 127.925632 
L 82.16525 125.893675 
L 96.658814 123.909104 
L 110.037489 121.84385 
L 121.186385 119.906972 
L 131.220391 117.952512 
L 140.139508 116.004682 
L 147.943735 114.096959 
L 155.747962 111.950119 
L 162.437299 109.869052 
L 168.011747 107.919404 
L 173.586195 105.721068 
L 178.045753 103.735887 
L 182.505311 101.493179 
L 185.84998 99.597478 
L 189.194649 97.468985 
L 192.539318 95.04278 
L 194.769097 93.214147 
L 196.998876 91.170545 
L 199.228655 88.854834 
L 201.458434 86.183553 
L 203.688213 83.027763 
L 205.917992 79.172512 
L 207.032882 76.870222 
L 208.147772 74.217809 
L 209.262661 71.089555 
L 210.377551 67.276881 
L 211.49244 62.394444 
L 212.60733 55.598278 
L 213.722219 44.338186 
L 214.837109 3.607978 
L 215.951999 40.535336 
L 217.066888 53.712013 
L 218.181778 61.148228 
L 219.296667 66.353537 
L 220.411557 70.362401 
L 221.526446 73.623545 
L 222.641336 76.372687 
L 223.756226 78.749111 
L 225.986005 82.71196 
L 228.215784 85.943722 
L 230.445563 88.672904 
L 232.675342 91.035222 
L 234.905121 93.117903 
L 238.24979 95.84267 
L 241.594459 98.202499 
L 244.939128 100.283973 
L 248.283796 102.146104 
L 252.743355 104.35873 
L 257.202913 106.32568 
L 262.777361 108.512797 
L 268.351809 110.460291 
L 275.041146 112.547161 
L 282.845373 114.708898 
L 290.6496 116.637678 
L 299.568717 118.614919 
L 309.602723 120.607351 
L 320.751619 122.590756 
L 333.015404 124.54818 
L 347.508968 126.619517 
L 363.117422 128.616032 
L 364.232312 128.750684 
L 364.232312 128.750684 
" style="fill:none;stroke:#1f77b4;stroke-linecap:square;stroke-width:1.5;"/>
   </g>
   <g id="patch_3">
    <path d="M 66.1875 131.3856 
L 66.1875 7.2 
" style="fill:none;stroke:#000000;stroke-linecap:square;stroke-linejoin:miter;stroke-width:0.8;"/>
   </g>
   <g id="patch_4">
    <path d="M 363.4899 131.3856 
L 363.4899 7.2 
" style="fill:none;stroke:#000000;stroke-linecap:square;stroke-linejoin:miter;stroke-width:0.8;"/>
   </g>
   <g id="patch_5">
    <path d="M 66.1875 131.3856 
L 363.4899 131.3856 
" style="fill:none;stroke:#000000;stroke-linecap:square;stroke-linejoin:miter;stroke-width:0.8;"/>
   </g>
   <g id="patch_6">
    <path d="M 66.1875 7.2 
L 363.4899 7.2 
" style="fill:none;stroke:#000000;stroke-linecap:square;stroke-linejoin:miter;stroke-width:0.8;"/>
   </g>
   <g id="legend_1">
    <g id="patch_7">
     <path d="M 262.7211 59.050475 
L 353.7739 59.050475 
Q 356.5499 59.050475 356.5499 56.274475 
L 356.5499 16.916 
Q 356.5499 14.14 353.7739 14.14 
L 262.7211 14.14 
Q 259.9451 14.14 259.9451 16.916 
L 259.9451 56.274475 
Q 259.9451 59.050475 262.7211 59.050475 
z
" style="fill:#ffffff;opacity:0.8;stroke:#cccccc;stroke-linejoin:miter;"/>
    </g>
    <g id="line2d_41">
     <path d="M 265.4971 25.380631 
L 293.2571 25.380631 
" style="fill:none;stroke:#ff7f0e;stroke-linecap:square;stroke-width:1.5;"/>
    </g>
    <g id="line2d_42"/>
    <g id="text_5">
     <!-- $v'=63$ -->
     <g transform="translate(304.3611 30.238631)scale(0.1388 -0.1388)">
      <defs>
       <path d="M 7.171875 54.6875 
L 16.703125 54.6875 
L 24.703125 8.203125 
L 50.875 54.6875 
L 60.40625 54.6875 
L 29.296875 0 
L 17.1875 0 
z
" id="DejaVuSans-Oblique-118"/>
       <path d="M 3.515625 5.421875 
Q 2.875 5.609375 2.875 6.390625 
L 15.09375 51.8125 
Q 15.671875 53.65625 17.078125 54.78125 
Q 18.5 55.90625 20.3125 55.90625 
Q 22.65625 55.90625 24.4375 54.359375 
Q 26.21875 52.828125 26.21875 50.484375 
Q 26.21875 49.46875 25.6875 48.1875 
L 7.625 4.984375 
Q 7.28125 4.296875 6.6875 4.296875 
Q 6.15625 4.296875 5 4.78125 
Q 3.859375 5.28125 3.515625 5.421875 
z
" id="Cmsy10-48"/>
       <path d="M 10.59375 45.40625 
L 73.1875 45.40625 
L 73.1875 37.203125 
L 10.59375 37.203125 
z
M 10.59375 25.484375 
L 73.1875 25.484375 
L 73.1875 17.1875 
L 10.59375 17.1875 
z
" id="DejaVuSans-61"/>
       <path d="M 33.015625 40.375 
Q 26.375 40.375 22.484375 35.828125 
Q 18.609375 31.296875 18.609375 23.390625 
Q 18.609375 15.53125 22.484375 10.953125 
Q 26.375 6.390625 33.015625 6.390625 
Q 39.65625 6.390625 43.53125 10.953125 
Q 47.40625 15.53125 47.40625 23.390625 
Q 47.40625 31.296875 43.53125 35.828125 
Q 39.65625 40.375 33.015625 40.375 
z
M 52.59375 71.296875 
L 52.59375 62.3125 
Q 48.875 64.0625 45.09375 64.984375 
Q 41.3125 65.921875 37.59375 65.921875 
Q 27.828125 65.921875 22.671875 59.328125 
Q 17.53125 52.734375 16.796875 39.40625 
Q 19.671875 43.65625 24.015625 45.921875 
Q 28.375 48.1875 33.59375 48.1875 
Q 44.578125 48.1875 50.953125 41.515625 
Q 57.328125 34.859375 57.328125 23.390625 
Q 57.328125 12.15625 50.6875 5.359375 
Q 44.046875 -1.421875 33.015625 -1.421875 
Q 20.359375 -1.421875 13.671875 8.265625 
Q 6.984375 17.96875 6.984375 36.375 
Q 6.984375 53.65625 15.1875 63.9375 
Q 23.390625 74.21875 37.203125 74.21875 
Q 40.921875 74.21875 44.703125 73.484375 
Q 48.484375 72.75 52.59375 71.296875 
z
" id="DejaVuSans-54"/>
       <path d="M 40.578125 39.3125 
Q 47.65625 37.796875 51.625 33 
Q 55.609375 28.21875 55.609375 21.1875 
Q 55.609375 10.40625 48.1875 4.484375 
Q 40.765625 -1.421875 27.09375 -1.421875 
Q 22.515625 -1.421875 17.65625 -0.515625 
Q 12.796875 0.390625 7.625 2.203125 
L 7.625 11.71875 
Q 11.71875 9.328125 16.59375 8.109375 
Q 21.484375 6.890625 26.8125 6.890625 
Q 36.078125 6.890625 40.9375 10.546875 
Q 45.796875 14.203125 45.796875 21.1875 
Q 45.796875 27.640625 41.28125 31.265625 
Q 36.765625 34.90625 28.71875 34.90625 
L 20.21875 34.90625 
L 20.21875 43.015625 
L 29.109375 43.015625 
Q 36.375 43.015625 40.234375 45.921875 
Q 44.09375 48.828125 44.09375 54.296875 
Q 44.09375 59.90625 40.109375 62.90625 
Q 36.140625 65.921875 28.71875 65.921875 
Q 24.65625 65.921875 20.015625 65.03125 
Q 15.375 64.15625 9.8125 62.3125 
L 9.8125 71.09375 
Q 15.4375 72.65625 20.34375 73.4375 
Q 25.25 74.21875 29.59375 74.21875 
Q 40.828125 74.21875 47.359375 69.109375 
Q 53.90625 64.015625 53.90625 55.328125 
Q 53.90625 49.265625 50.4375 45.09375 
Q 46.96875 40.921875 40.578125 39.3125 
z
" id="DejaVuSans-51"/>
      </defs>
      <use transform="translate(0 0.584375)" xlink:href="#DejaVuSans-Oblique-118"/>
      <use transform="translate(63.645833 38.865625)scale(0.7)" xlink:href="#Cmsy10-48"/>
      <use transform="translate(105.105794 0.584375)" xlink:href="#DejaVuSans-61"/>
      <use transform="translate(208.377279 0.584375)" xlink:href="#DejaVuSans-54"/>
      <use transform="translate(272.000326 0.584375)" xlink:href="#DejaVuSans-51"/>
     </g>
    </g>
    <g id="line2d_43">
     <path d="M 265.4971 45.753869 
L 293.2571 45.753869 
" style="fill:none;stroke:#1f77b4;stroke-linecap:square;stroke-width:1.5;"/>
    </g>
    <g id="line2d_44"/>
    <g id="text_6">
     <!-- $v'=0$ -->
     <g transform="translate(304.3611 50.611869)scale(0.1388 -0.1388)">
      <use transform="translate(0 0.584375)" xlink:href="#DejaVuSans-Oblique-118"/>
      <use transform="translate(63.645833 38.865625)scale(0.7)" xlink:href="#Cmsy10-48"/>
      <use transform="translate(105.105794 0.584375)" xlink:href="#DejaVuSans-61"/>
      <use transform="translate(208.377279 0.584375)" xlink:href="#DejaVuSans-48"/>
     </g>
    </g>
   </g>
  </g>
  <g id="axes_2">
   <g id="patch_8">
    <path d="M 66.1875 255.5712 
L 363.4899 255.5712 
L 363.4899 131.3856 
L 66.1875 131.3856 
z
" style="fill:none;"/>
   </g>
   <g id="matplotlib.axis_3">
    <g id="xtick_4">
     <g id="line2d_45">
      <path clip-path="url(#pe7f0e2075e)" d="M 129.895157 255.5712 
L 129.895157 131.3856 
" style="fill:none;stroke:#b0b0b0;stroke-linecap:square;stroke-width:0.8;"/>
     </g>
     <g id="line2d_46"/>
    </g>
    <g id="xtick_5">
     <g id="line2d_47">
      <path clip-path="url(#pe7f0e2075e)" d="M 214.8387 255.5712 
L 214.8387 131.3856 
" style="fill:none;stroke:#b0b0b0;stroke-linecap:square;stroke-width:0.8;"/>
     </g>
     <g id="line2d_48"/>
    </g>
    <g id="xtick_6">
     <g id="line2d_49">
      <path clip-path="url(#pe7f0e2075e)" d="M 299.782243 255.5712 
L 299.782243 131.3856 
" style="fill:none;stroke:#b0b0b0;stroke-linecap:square;stroke-width:0.8;"/>
     </g>
     <g id="line2d_50"/>
    </g>
   </g>
   <g id="matplotlib.axis_4">
    <g id="ytick_30">
     <g id="line2d_51">
      <path clip-path="url(#pe7f0e2075e)" d="M 66.1875 231.235563 
L 363.4899 231.235563 
" style="fill:none;stroke:#b0b0b0;stroke-linecap:square;stroke-width:0.8;"/>
     </g>
     <g id="line2d_52">
      <g>
       <use style="stroke:#000000;stroke-width:0.8;" x="66.1875" xlink:href="#mc3ce260a5b" y="231.235563"/>
      </g>
     </g>
     <g id="text_7">
      <!-- 0.1 -->
      <g transform="translate(35.332813 236.934391)scale(0.15 -0.15)">
       <defs>
        <path d="M 10.6875 12.40625 
L 21 12.40625 
L 21 0 
L 10.6875 0 
z
" id="DejaVuSans-46"/>
       </defs>
       <use xlink:href="#DejaVuSans-48"/>
       <use x="63.623047" xlink:href="#DejaVuSans-46"/>
       <use x="95.410156" xlink:href="#DejaVuSans-49"/>
      </g>
     </g>
    </g>
    <g id="ytick_31">
     <g id="line2d_53">
      <path clip-path="url(#pe7f0e2075e)" d="M 66.1875 204.807303 
L 363.4899 204.807303 
" style="fill:none;stroke:#b0b0b0;stroke-linecap:square;stroke-width:0.8;"/>
     </g>
     <g id="line2d_54">
      <g>
       <use style="stroke:#000000;stroke-width:0.8;" x="66.1875" xlink:href="#mc3ce260a5b" y="204.807303"/>
      </g>
     </g>
     <g id="text_8">
      <!-- 1 -->
      <g transform="translate(49.64375 210.506131)scale(0.15 -0.15)">
       <use xlink:href="#DejaVuSans-49"/>
      </g>
     </g>
    </g>
    <g id="ytick_32">
     <g id="line2d_55">
      <path clip-path="url(#pe7f0e2075e)" d="M 66.1875 178.379043 
L 363.4899 178.379043 
" style="fill:none;stroke:#b0b0b0;stroke-linecap:square;stroke-width:0.8;"/>
     </g>
     <g id="line2d_56">
      <g>
       <use style="stroke:#000000;stroke-width:0.8;" x="66.1875" xlink:href="#mc3ce260a5b" y="178.379043"/>
      </g>
     </g>
     <g id="text_9">
      <!-- 10 -->
      <g transform="translate(40.1 184.077871)scale(0.15 -0.15)">
       <use xlink:href="#DejaVuSans-49"/>
       <use x="63.623047" xlink:href="#DejaVuSans-48"/>
      </g>
     </g>
    </g>
    <g id="ytick_33">
     <g id="line2d_57">
      <path clip-path="url(#pe7f0e2075e)" d="M 66.1875 151.950783 
L 363.4899 151.950783 
" style="fill:none;stroke:#b0b0b0;stroke-linecap:square;stroke-width:0.8;"/>
     </g>
     <g id="line2d_58">
      <g>
       <use style="stroke:#000000;stroke-width:0.8;" x="66.1875" xlink:href="#mc3ce260a5b" y="151.950783"/>
      </g>
     </g>
     <g id="text_10">
      <!-- 100 -->
      <g transform="translate(30.55625 157.649612)scale(0.15 -0.15)">
       <use xlink:href="#DejaVuSans-49"/>
       <use x="63.623047" xlink:href="#DejaVuSans-48"/>
       <use x="127.246094" xlink:href="#DejaVuSans-48"/>
      </g>
     </g>
    </g>
    <g id="ytick_34">
     <g id="line2d_59">
      <g>
       <use style="stroke:#000000;stroke-width:0.6;" x="66.1875" xlink:href="#md0f4fded07" y="249.708124"/>
      </g>
     </g>
    </g>
    <g id="ytick_35">
     <g id="line2d_60">
      <g>
       <use style="stroke:#000000;stroke-width:0.6;" x="66.1875" xlink:href="#md0f4fded07" y="245.054338"/>
      </g>
     </g>
    </g>
    <g id="ytick_36">
     <g id="line2d_61">
      <g>
       <use style="stroke:#000000;stroke-width:0.6;" x="66.1875" xlink:href="#md0f4fded07" y="241.752425"/>
      </g>
     </g>
    </g>
    <g id="ytick_37">
     <g id="line2d_62">
      <g>
       <use style="stroke:#000000;stroke-width:0.6;" x="66.1875" xlink:href="#md0f4fded07" y="239.191262"/>
      </g>
     </g>
    </g>
    <g id="ytick_38">
     <g id="line2d_63">
      <g>
       <use style="stroke:#000000;stroke-width:0.6;" x="66.1875" xlink:href="#md0f4fded07" y="237.098639"/>
      </g>
     </g>
    </g>
    <g id="ytick_39">
     <g id="line2d_64">
      <g>
       <use style="stroke:#000000;stroke-width:0.6;" x="66.1875" xlink:href="#md0f4fded07" y="235.329352"/>
      </g>
     </g>
    </g>
    <g id="ytick_40">
     <g id="line2d_65">
      <g>
       <use style="stroke:#000000;stroke-width:0.6;" x="66.1875" xlink:href="#md0f4fded07" y="233.796726"/>
      </g>
     </g>
    </g>
    <g id="ytick_41">
     <g id="line2d_66">
      <g>
       <use style="stroke:#000000;stroke-width:0.6;" x="66.1875" xlink:href="#md0f4fded07" y="232.444854"/>
      </g>
     </g>
    </g>
    <g id="ytick_42">
     <g id="line2d_67">
      <g>
       <use style="stroke:#000000;stroke-width:0.6;" x="66.1875" xlink:href="#md0f4fded07" y="223.279864"/>
      </g>
     </g>
    </g>
    <g id="ytick_43">
     <g id="line2d_68">
      <g>
       <use style="stroke:#000000;stroke-width:0.6;" x="66.1875" xlink:href="#md0f4fded07" y="218.626078"/>
      </g>
     </g>
    </g>
    <g id="ytick_44">
     <g id="line2d_69">
      <g>
       <use style="stroke:#000000;stroke-width:0.6;" x="66.1875" xlink:href="#md0f4fded07" y="215.324165"/>
      </g>
     </g>
    </g>
    <g id="ytick_45">
     <g id="line2d_70">
      <g>
       <use style="stroke:#000000;stroke-width:0.6;" x="66.1875" xlink:href="#md0f4fded07" y="212.763002"/>
      </g>
     </g>
    </g>
    <g id="ytick_46">
     <g id="line2d_71">
      <g>
       <use style="stroke:#000000;stroke-width:0.6;" x="66.1875" xlink:href="#md0f4fded07" y="210.670379"/>
      </g>
     </g>
    </g>
    <g id="ytick_47">
     <g id="line2d_72">
      <g>
       <use style="stroke:#000000;stroke-width:0.6;" x="66.1875" xlink:href="#md0f4fded07" y="208.901092"/>
      </g>
     </g>
    </g>
    <g id="ytick_48">
     <g id="line2d_73">
      <g>
       <use style="stroke:#000000;stroke-width:0.6;" x="66.1875" xlink:href="#md0f4fded07" y="207.368466"/>
      </g>
     </g>
    </g>
    <g id="ytick_49">
     <g id="line2d_74">
      <g>
       <use style="stroke:#000000;stroke-width:0.6;" x="66.1875" xlink:href="#md0f4fded07" y="206.016594"/>
      </g>
     </g>
    </g>
    <g id="ytick_50">
     <g id="line2d_75">
      <g>
       <use style="stroke:#000000;stroke-width:0.6;" x="66.1875" xlink:href="#md0f4fded07" y="196.851604"/>
      </g>
     </g>
    </g>
    <g id="ytick_51">
     <g id="line2d_76">
      <g>
       <use style="stroke:#000000;stroke-width:0.6;" x="66.1875" xlink:href="#md0f4fded07" y="192.197819"/>
      </g>
     </g>
    </g>
    <g id="ytick_52">
     <g id="line2d_77">
      <g>
       <use style="stroke:#000000;stroke-width:0.6;" x="66.1875" xlink:href="#md0f4fded07" y="188.895905"/>
      </g>
     </g>
    </g>
    <g id="ytick_53">
     <g id="line2d_78">
      <g>
       <use style="stroke:#000000;stroke-width:0.6;" x="66.1875" xlink:href="#md0f4fded07" y="186.334742"/>
      </g>
     </g>
    </g>
    <g id="ytick_54">
     <g id="line2d_79">
      <g>
       <use style="stroke:#000000;stroke-width:0.6;" x="66.1875" xlink:href="#md0f4fded07" y="184.24212"/>
      </g>
     </g>
    </g>
    <g id="ytick_55">
     <g id="line2d_80">
      <g>
       <use style="stroke:#000000;stroke-width:0.6;" x="66.1875" xlink:href="#md0f4fded07" y="182.472832"/>
      </g>
     </g>
    </g>
    <g id="ytick_56">
     <g id="line2d_81">
      <g>
       <use style="stroke:#000000;stroke-width:0.6;" x="66.1875" xlink:href="#md0f4fded07" y="180.940206"/>
      </g>
     </g>
    </g>
    <g id="ytick_57">
     <g id="line2d_82">
      <g>
       <use style="stroke:#000000;stroke-width:0.6;" x="66.1875" xlink:href="#md0f4fded07" y="179.588334"/>
      </g>
     </g>
    </g>
    <g id="ytick_58">
     <g id="line2d_83">
      <g>
       <use style="stroke:#000000;stroke-width:0.6;" x="66.1875" xlink:href="#md0f4fded07" y="170.423344"/>
      </g>
     </g>
    </g>
    <g id="ytick_59">
     <g id="line2d_84">
      <g>
       <use style="stroke:#000000;stroke-width:0.6;" x="66.1875" xlink:href="#md0f4fded07" y="165.769559"/>
      </g>
     </g>
    </g>
    <g id="ytick_60">
     <g id="line2d_85">
      <g>
       <use style="stroke:#000000;stroke-width:0.6;" x="66.1875" xlink:href="#md0f4fded07" y="162.467645"/>
      </g>
     </g>
    </g>
    <g id="ytick_61">
     <g id="line2d_86">
      <g>
       <use style="stroke:#000000;stroke-width:0.6;" x="66.1875" xlink:href="#md0f4fded07" y="159.906482"/>
      </g>
     </g>
    </g>
    <g id="ytick_62">
     <g id="line2d_87">
      <g>
       <use style="stroke:#000000;stroke-width:0.6;" x="66.1875" xlink:href="#md0f4fded07" y="157.81386"/>
      </g>
     </g>
    </g>
    <g id="ytick_63">
     <g id="line2d_88">
      <g>
       <use style="stroke:#000000;stroke-width:0.6;" x="66.1875" xlink:href="#md0f4fded07" y="156.044573"/>
      </g>
     </g>
    </g>
    <g id="ytick_64">
     <g id="line2d_89">
      <g>
       <use style="stroke:#000000;stroke-width:0.6;" x="66.1875" xlink:href="#md0f4fded07" y="154.511946"/>
      </g>
     </g>
    </g>
    <g id="ytick_65">
     <g id="line2d_90">
      <g>
       <use style="stroke:#000000;stroke-width:0.6;" x="66.1875" xlink:href="#md0f4fded07" y="153.160074"/>
      </g>
     </g>
    </g>
    <g id="ytick_66">
     <g id="line2d_91">
      <g>
       <use style="stroke:#000000;stroke-width:0.6;" x="66.1875" xlink:href="#md0f4fded07" y="143.995084"/>
      </g>
     </g>
    </g>
    <g id="ytick_67">
     <g id="line2d_92">
      <g>
       <use style="stroke:#000000;stroke-width:0.6;" x="66.1875" xlink:href="#md0f4fded07" y="139.341299"/>
      </g>
     </g>
    </g>
    <g id="ytick_68">
     <g id="line2d_93">
      <g>
       <use style="stroke:#000000;stroke-width:0.6;" x="66.1875" xlink:href="#md0f4fded07" y="136.039386"/>
      </g>
     </g>
    </g>
    <g id="ytick_69">
     <g id="line2d_94">
      <g>
       <use style="stroke:#000000;stroke-width:0.6;" x="66.1875" xlink:href="#md0f4fded07" y="133.478223"/>
      </g>
     </g>
    </g>
    <g id="ytick_70">
     <g id="line2d_95">
      <g>
       <use style="stroke:#000000;stroke-width:0.6;" x="66.1875" xlink:href="#md0f4fded07" y="131.3856"/>
      </g>
     </g>
    </g>
    <g id="text_11">
     <!-- $\Omega_{R}~(2\pi\!\cdot\!\mathrm{kHz})$ -->
     <g transform="translate(22.396875 252.1784)rotate(-90)scale(0.2 -0.2)">
      <defs>
       <path d="M 72.609375 8.6875 
L 72.609375 0 
L 43.3125 0 
L 43.3125 8.6875 
Q 51.953125 13.421875 56.78125 21.53125 
Q 61.625 29.640625 61.625 39.5 
Q 61.625 51.21875 55.171875 58.296875 
Q 48.734375 65.375 38.1875 65.375 
Q 27.640625 65.375 21.171875 58.265625 
Q 14.703125 51.171875 14.703125 39.5 
Q 14.703125 29.640625 19.53125 21.53125 
Q 24.421875 13.421875 33.109375 8.6875 
L 33.109375 0 
L 3.8125 0 
L 3.8125 8.6875 
L 19.390625 8.6875 
Q 11.671875 15.484375 8.109375 22.75 
Q 4.59375 30.03125 4.59375 39.015625 
Q 4.59375 54.546875 13.96875 64.15625 
Q 23.296875 73.78125 38.1875 73.78125 
Q 52.984375 73.78125 62.40625 64.15625 
Q 71.78125 54.59375 71.78125 39.5 
Q 71.78125 30.03125 68.3125 22.796875 
Q 64.84375 15.578125 56.984375 8.6875 
z
" id="DejaVuSans-937"/>
       <path d="M 25.203125 64.796875 
L 20.21875 38.921875 
L 32.90625 38.921875 
Q 40.375 38.921875 44.984375 43.046875 
Q 49.609375 47.171875 49.609375 53.8125 
Q 49.609375 59.125 46.5 61.953125 
Q 43.40625 64.796875 37.59375 64.796875 
z
M 43.3125 35.015625 
Q 46.4375 34.28125 48.515625 31.390625 
Q 50.59375 28.515625 53.328125 19.921875 
L 59.515625 0 
L 49.125 0 
L 43.40625 18.703125 
Q 41.21875 25.921875 38.328125 28.359375 
Q 35.453125 30.8125 29.5 30.8125 
L 18.609375 30.8125 
L 12.59375 0 
L 2.6875 0 
L 16.890625 72.90625 
L 39.109375 72.90625 
Q 49.21875 72.90625 54.609375 68.328125 
Q 60.015625 63.765625 60.015625 55.171875 
Q 60.015625 47.5625 55.421875 41.984375 
Q 50.828125 36.421875 43.3125 35.015625 
z
" id="DejaVuSans-Oblique-82"/>
      </defs>
      <use transform="translate(0 0.015625)" xlink:href="#DejaVuSans-937"/>
      <use transform="translate(77.373047 -16.390625)scale(0.7)" xlink:href="#DejaVuSans-Oblique-82"/>
      <use transform="translate(161.215496 0.015625)" xlink:href="#DejaVuSans-40"/>
      <use transform="translate(200.229167 0.015625)" xlink:href="#DejaVuSans-50"/>
      <use transform="translate(263.852214 0.015625)" xlink:href="#DejaVuSans-Oblique-960"/>
      <use transform="translate(327.304038 0.015625)" xlink:href="#DejaVuSans-8901"/>
      <use transform="translate(362.337893 0.015625)" xlink:href="#DejaVuSans-107"/>
      <use transform="translate(420.248049 0.015625)" xlink:href="#DejaVuSans-72"/>
      <use transform="translate(495.443362 0.015625)" xlink:href="#DejaVuSans-122"/>
      <use transform="translate(547.933596 0.015625)" xlink:href="#DejaVuSans-41"/>
     </g>
    </g>
   </g>
   <g id="line2d_96">
    <path clip-path="url(#pe7f0e2075e)" d="M 65.441906 255.906179 
L 78.820581 254.378464 
L 91.084366 252.759529 
L 102.233262 251.068681 
L 112.267268 249.332347 
L 121.186385 247.584714 
L 130.105501 245.606686 
L 137.909728 243.649133 
L 144.599066 241.76912 
L 151.288403 239.665317 
L 156.862851 237.707618 
L 162.437299 235.525885 
L 168.011747 233.071947 
L 172.471305 230.869097 
L 176.930863 228.403712 
L 180.275532 226.344921 
L 183.620201 224.066848 
L 186.96487 221.520923 
L 190.309538 218.640006 
L 192.539318 216.487309 
L 194.769097 214.10417 
L 196.998876 211.437053 
L 199.228655 208.411064 
L 201.458434 204.916807 
L 203.688213 200.785291 
L 204.803103 198.399518 
L 205.917992 195.734797 
L 207.032882 192.717664 
L 208.147772 189.241097 
L 209.262661 185.140329 
L 210.377551 180.142004 
L 211.49244 173.741096 
L 212.60733 164.831527 
L 213.722219 150.071062 
L 214.837109 96.687163 
L 215.951999 145.078918 
L 217.066888 162.342998 
L 218.181778 172.083186 
L 219.296667 178.899025 
L 220.411557 184.146257 
L 221.526446 188.41297 
L 222.641336 192.00809 
L 223.756226 195.114163 
L 225.986005 200.289237 
L 228.215784 204.503882 
L 230.445563 208.057582 
L 232.675342 211.128211 
L 234.905121 213.830096 
L 237.134901 216.241093 
L 240.479569 219.429279 
L 243.824238 222.214829 
L 247.168907 224.6852 
L 250.513575 226.901872 
L 254.973134 229.538691 
L 259.432692 231.880273 
L 263.89225 233.98173 
L 269.466698 236.331937 
L 275.041146 238.428786 
L 281.730483 240.670811 
L 288.419821 242.665439 
L 296.224048 244.734306 
L 304.028275 246.571467 
L 312.947392 248.434669 
L 322.981398 250.279285 
L 333.015404 251.901589 
L 344.1643 253.486225 
L 356.428085 255.007613 
L 364.232312 255.872471 
L 364.232312 255.872471 
" style="fill:none;stroke:#1f77b4;stroke-linecap:square;stroke-width:1.5;"/>
   </g>
   <g id="line2d_97">
    <path clip-path="url(#pe7f0e2075e)" d="M 66.043871 157.757009 
L 155.235037 156.633532 
L 177.660244 156.163203 
L 187.598689 155.758853 
L 193.459822 155.314751 
L 197.282301 154.815744 
L 200.085452 154.228356 
L 202.124107 153.584111 
L 203.653098 152.900856 
L 204.927258 152.129394 
L 206.201418 151.083209 
L 207.220745 149.957127 
L 208.240073 148.455625 
L 209.004568 146.982299 
L 209.769064 145.093562 
L 210.53356 142.629293 
L 211.298056 139.342918 
L 212.062551 134.825295 
L 212.572215 130.776857 
L 213.081879 125.43324 
L 213.591543 117.946182 
L 214.101206 106.104489 
L 214.356038 96.387092 
L 214.61087 78.973385 
L 214.865702 33.834927 
L 215.120534 84.627035 
L 215.630198 107.957051 
L 216.139862 119.029408 
L 216.649526 126.177524 
L 217.414021 133.40931 
L 218.178517 138.327137 
L 218.943013 141.864078 
L 219.707508 144.49335 
L 220.472004 146.493148 
L 221.491332 148.479299 
L 222.510659 149.928142 
L 223.529987 151.008846 
L 224.804146 152.005028 
L 226.078306 152.731458 
L 227.607297 153.365 
L 229.645953 153.947713 
L 232.194272 154.419455 
L 235.507086 154.79141 
L 240.094061 155.071462 
L 247.229354 155.258186 
L 258.951621 155.313975 
L 281.886493 155.165031 
L 338.968839 154.520463 
L 363.687533 154.21225 
L 363.687533 154.21225 
" style="fill:none;stroke:#ff7f0e;stroke-linecap:square;stroke-width:1.5;"/>
   </g>
   <g id="patch_9">
    <path d="M 66.1875 255.5712 
L 66.1875 131.3856 
" style="fill:none;stroke:#000000;stroke-linecap:square;stroke-linejoin:miter;stroke-width:0.8;"/>
   </g>
   <g id="patch_10">
    <path d="M 363.4899 255.5712 
L 363.4899 131.3856 
" style="fill:none;stroke:#000000;stroke-linecap:square;stroke-linejoin:miter;stroke-width:0.8;"/>
   </g>
   <g id="patch_11">
    <path d="M 66.1875 255.5712 
L 363.4899 255.5712 
" style="fill:none;stroke:#000000;stroke-linecap:square;stroke-linejoin:miter;stroke-width:0.8;"/>
   </g>
   <g id="patch_12">
    <path d="M 66.1875 131.3856 
L 363.4899 131.3856 
" style="fill:none;stroke:#000000;stroke-linecap:square;stroke-linejoin:miter;stroke-width:0.8;"/>
   </g>
  </g>
  <g id="axes_3">
   <g id="patch_13">
    <path d="M 66.1875 379.7568 
L 363.4899 379.7568 
L 363.4899 255.5712 
L 66.1875 255.5712 
z
" style="fill:none;"/>
   </g>
   <g id="matplotlib.axis_5">
    <g id="xtick_7">
     <g id="line2d_98">
      <path clip-path="url(#p8c41a65199)" d="M 129.895157 379.7568 
L 129.895157 255.5712 
" style="fill:none;stroke:#b0b0b0;stroke-linecap:square;stroke-width:0.8;"/>
     </g>
     <g id="line2d_99">
      <defs>
       <path d="M 0 0 
L 0 3.5 
" id="m005f0a59be" style="stroke:#000000;stroke-width:0.8;"/>
      </defs>
      <g>
       <use style="stroke:#000000;stroke-width:0.8;" x="129.895157" xlink:href="#m005f0a59be" y="379.7568"/>
      </g>
     </g>
     <g id="text_12">
      <!-- −20 -->
      <g transform="translate(114.066642 398.154456)scale(0.15 -0.15)">
       <defs>
        <path d="M 10.59375 35.5 
L 73.1875 35.5 
L 73.1875 27.203125 
L 10.59375 27.203125 
z
" id="DejaVuSans-8722"/>
       </defs>
       <use xlink:href="#DejaVuSans-8722"/>
       <use x="83.789062" xlink:href="#DejaVuSans-50"/>
       <use x="147.412109" xlink:href="#DejaVuSans-48"/>
      </g>
     </g>
    </g>
    <g id="xtick_8">
     <g id="line2d_100">
      <path clip-path="url(#p8c41a65199)" d="M 214.8387 379.7568 
L 214.8387 255.5712 
" style="fill:none;stroke:#b0b0b0;stroke-linecap:square;stroke-width:0.8;"/>
     </g>
     <g id="line2d_101">
      <g>
       <use style="stroke:#000000;stroke-width:0.8;" x="214.8387" xlink:href="#m005f0a59be" y="379.7568"/>
      </g>
     </g>
     <g id="text_13">
      <!-- 0 -->
      <g transform="translate(210.066825 398.154456)scale(0.15 -0.15)">
       <use xlink:href="#DejaVuSans-48"/>
      </g>
     </g>
    </g>
    <g id="xtick_9">
     <g id="line2d_102">
      <path clip-path="url(#p8c41a65199)" d="M 299.782243 379.7568 
L 299.782243 255.5712 
" style="fill:none;stroke:#b0b0b0;stroke-linecap:square;stroke-width:0.8;"/>
     </g>
     <g id="line2d_103">
      <g>
       <use style="stroke:#000000;stroke-width:0.8;" x="299.782243" xlink:href="#m005f0a59be" y="379.7568"/>
      </g>
     </g>
     <g id="text_14">
      <!-- 20 -->
      <g transform="translate(290.238493 398.154456)scale(0.15 -0.15)">
       <use xlink:href="#DejaVuSans-50"/>
       <use x="63.623047" xlink:href="#DejaVuSans-48"/>
      </g>
     </g>
    </g>
    <g id="text_15">
     <!-- One-Photon Detuning (GHz) -->
     <g transform="translate(75.416825 420.470862)scale(0.2 -0.2)">
      <defs>
       <path d="M 39.40625 66.21875 
Q 28.65625 66.21875 22.328125 58.203125 
Q 16.015625 50.203125 16.015625 36.375 
Q 16.015625 22.609375 22.328125 14.59375 
Q 28.65625 6.59375 39.40625 6.59375 
Q 50.140625 6.59375 56.421875 14.59375 
Q 62.703125 22.609375 62.703125 36.375 
Q 62.703125 50.203125 56.421875 58.203125 
Q 50.140625 66.21875 39.40625 66.21875 
z
M 39.40625 74.21875 
Q 54.734375 74.21875 63.90625 63.9375 
Q 73.09375 53.65625 73.09375 36.375 
Q 73.09375 19.140625 63.90625 8.859375 
Q 54.734375 -1.421875 39.40625 -1.421875 
Q 24.03125 -1.421875 14.8125 8.828125 
Q 5.609375 19.09375 5.609375 36.375 
Q 5.609375 53.65625 14.8125 63.9375 
Q 24.03125 74.21875 39.40625 74.21875 
z
" id="DejaVuSans-79"/>
       <path d="M 54.890625 33.015625 
L 54.890625 0 
L 45.90625 0 
L 45.90625 32.71875 
Q 45.90625 40.484375 42.875 44.328125 
Q 39.84375 48.1875 33.796875 48.1875 
Q 26.515625 48.1875 22.3125 43.546875 
Q 18.109375 38.921875 18.109375 30.90625 
L 18.109375 0 
L 9.078125 0 
L 9.078125 54.6875 
L 18.109375 54.6875 
L 18.109375 46.1875 
Q 21.34375 51.125 25.703125 53.5625 
Q 30.078125 56 35.796875 56 
Q 45.21875 56 50.046875 50.171875 
Q 54.890625 44.34375 54.890625 33.015625 
z
" id="DejaVuSans-110"/>
       <path d="M 56.203125 29.59375 
L 56.203125 25.203125 
L 14.890625 25.203125 
Q 15.484375 15.921875 20.484375 11.0625 
Q 25.484375 6.203125 34.421875 6.203125 
Q 39.59375 6.203125 44.453125 7.46875 
Q 49.3125 8.734375 54.109375 11.28125 
L 54.109375 2.78125 
Q 49.265625 0.734375 44.1875 -0.34375 
Q 39.109375 -1.421875 33.890625 -1.421875 
Q 20.796875 -1.421875 13.15625 6.1875 
Q 5.515625 13.8125 5.515625 26.8125 
Q 5.515625 40.234375 12.765625 48.109375 
Q 20.015625 56 32.328125 56 
Q 43.359375 56 49.78125 48.890625 
Q 56.203125 41.796875 56.203125 29.59375 
z
M 47.21875 32.234375 
Q 47.125 39.59375 43.09375 43.984375 
Q 39.0625 48.390625 32.421875 48.390625 
Q 24.90625 48.390625 20.390625 44.140625 
Q 15.875 39.890625 15.1875 32.171875 
z
" id="DejaVuSans-101"/>
       <path d="M 4.890625 31.390625 
L 31.203125 31.390625 
L 31.203125 23.390625 
L 4.890625 23.390625 
z
" id="DejaVuSans-45"/>
       <path d="M 19.671875 64.796875 
L 19.671875 37.40625 
L 32.078125 37.40625 
Q 38.96875 37.40625 42.71875 40.96875 
Q 46.484375 44.53125 46.484375 51.125 
Q 46.484375 57.671875 42.71875 61.234375 
Q 38.96875 64.796875 32.078125 64.796875 
z
M 9.8125 72.90625 
L 32.078125 72.90625 
Q 44.34375 72.90625 50.609375 67.359375 
Q 56.890625 61.8125 56.890625 51.125 
Q 56.890625 40.328125 50.609375 34.8125 
Q 44.34375 29.296875 32.078125 29.296875 
L 19.671875 29.296875 
L 19.671875 0 
L 9.8125 0 
z
" id="DejaVuSans-80"/>
       <path d="M 54.890625 33.015625 
L 54.890625 0 
L 45.90625 0 
L 45.90625 32.71875 
Q 45.90625 40.484375 42.875 44.328125 
Q 39.84375 48.1875 33.796875 48.1875 
Q 26.515625 48.1875 22.3125 43.546875 
Q 18.109375 38.921875 18.109375 30.90625 
L 18.109375 0 
L 9.078125 0 
L 9.078125 75.984375 
L 18.109375 75.984375 
L 18.109375 46.1875 
Q 21.34375 51.125 25.703125 53.5625 
Q 30.078125 56 35.796875 56 
Q 45.21875 56 50.046875 50.171875 
Q 54.890625 44.34375 54.890625 33.015625 
z
" id="DejaVuSans-104"/>
       <path d="M 30.609375 48.390625 
Q 23.390625 48.390625 19.1875 42.75 
Q 14.984375 37.109375 14.984375 27.296875 
Q 14.984375 17.484375 19.15625 11.84375 
Q 23.34375 6.203125 30.609375 6.203125 
Q 37.796875 6.203125 41.984375 11.859375 
Q 46.1875 17.53125 46.1875 27.296875 
Q 46.1875 37.015625 41.984375 42.703125 
Q 37.796875 48.390625 30.609375 48.390625 
z
M 30.609375 56 
Q 42.328125 56 49.015625 48.375 
Q 55.71875 40.765625 55.71875 27.296875 
Q 55.71875 13.875 49.015625 6.21875 
Q 42.328125 -1.421875 30.609375 -1.421875 
Q 18.84375 -1.421875 12.171875 6.21875 
Q 5.515625 13.875 5.515625 27.296875 
Q 5.515625 40.765625 12.171875 48.375 
Q 18.84375 56 30.609375 56 
z
" id="DejaVuSans-111"/>
       <path d="M 18.3125 70.21875 
L 18.3125 54.6875 
L 36.8125 54.6875 
L 36.8125 47.703125 
L 18.3125 47.703125 
L 18.3125 18.015625 
Q 18.3125 11.328125 20.140625 9.421875 
Q 21.96875 7.515625 27.59375 7.515625 
L 36.8125 7.515625 
L 36.8125 0 
L 27.59375 0 
Q 17.1875 0 13.234375 3.875 
Q 9.28125 7.765625 9.28125 18.015625 
L 9.28125 47.703125 
L 2.6875 47.703125 
L 2.6875 54.6875 
L 9.28125 54.6875 
L 9.28125 70.21875 
z
" id="DejaVuSans-116"/>
       <path id="DejaVuSans-32"/>
       <path d="M 19.671875 64.796875 
L 19.671875 8.109375 
L 31.59375 8.109375 
Q 46.6875 8.109375 53.6875 14.9375 
Q 60.6875 21.78125 60.6875 36.53125 
Q 60.6875 51.171875 53.6875 57.984375 
Q 46.6875 64.796875 31.59375 64.796875 
z
M 9.8125 72.90625 
L 30.078125 72.90625 
Q 51.265625 72.90625 61.171875 64.09375 
Q 71.09375 55.28125 71.09375 36.53125 
Q 71.09375 17.671875 61.125 8.828125 
Q 51.171875 0 30.078125 0 
L 9.8125 0 
z
" id="DejaVuSans-68"/>
       <path d="M 8.5 21.578125 
L 8.5 54.6875 
L 17.484375 54.6875 
L 17.484375 21.921875 
Q 17.484375 14.15625 20.5 10.265625 
Q 23.53125 6.390625 29.59375 6.390625 
Q 36.859375 6.390625 41.078125 11.03125 
Q 45.3125 15.671875 45.3125 23.6875 
L 45.3125 54.6875 
L 54.296875 54.6875 
L 54.296875 0 
L 45.3125 0 
L 45.3125 8.40625 
Q 42.046875 3.421875 37.71875 1 
Q 33.40625 -1.421875 27.6875 -1.421875 
Q 18.265625 -1.421875 13.375 4.4375 
Q 8.5 10.296875 8.5 21.578125 
z
M 31.109375 56 
z
" id="DejaVuSans-117"/>
       <path d="M 9.421875 54.6875 
L 18.40625 54.6875 
L 18.40625 0 
L 9.421875 0 
z
M 9.421875 75.984375 
L 18.40625 75.984375 
L 18.40625 64.59375 
L 9.421875 64.59375 
z
" id="DejaVuSans-105"/>
       <path d="M 45.40625 27.984375 
Q 45.40625 37.75 41.375 43.109375 
Q 37.359375 48.484375 30.078125 48.484375 
Q 22.859375 48.484375 18.828125 43.109375 
Q 14.796875 37.75 14.796875 27.984375 
Q 14.796875 18.265625 18.828125 12.890625 
Q 22.859375 7.515625 30.078125 7.515625 
Q 37.359375 7.515625 41.375 12.890625 
Q 45.40625 18.265625 45.40625 27.984375 
z
M 54.390625 6.78125 
Q 54.390625 -7.171875 48.1875 -13.984375 
Q 42 -20.796875 29.203125 -20.796875 
Q 24.46875 -20.796875 20.265625 -20.09375 
Q 16.0625 -19.390625 12.109375 -17.921875 
L 12.109375 -9.1875 
Q 16.0625 -11.328125 19.921875 -12.34375 
Q 23.78125 -13.375 27.78125 -13.375 
Q 36.625 -13.375 41.015625 -8.765625 
Q 45.40625 -4.15625 45.40625 5.171875 
L 45.40625 9.625 
Q 42.625 4.78125 38.28125 2.390625 
Q 33.9375 0 27.875 0 
Q 17.828125 0 11.671875 7.65625 
Q 5.515625 15.328125 5.515625 27.984375 
Q 5.515625 40.671875 11.671875 48.328125 
Q 17.828125 56 27.875 56 
Q 33.9375 56 38.28125 53.609375 
Q 42.625 51.21875 45.40625 46.390625 
L 45.40625 54.6875 
L 54.390625 54.6875 
z
" id="DejaVuSans-103"/>
       <path d="M 59.515625 10.40625 
L 59.515625 29.984375 
L 43.40625 29.984375 
L 43.40625 38.09375 
L 69.28125 38.09375 
L 69.28125 6.78125 
Q 63.578125 2.734375 56.6875 0.65625 
Q 49.8125 -1.421875 42 -1.421875 
Q 24.90625 -1.421875 15.25 8.5625 
Q 5.609375 18.5625 5.609375 36.375 
Q 5.609375 54.25 15.25 64.234375 
Q 24.90625 74.21875 42 74.21875 
Q 49.125 74.21875 55.546875 72.453125 
Q 61.96875 70.703125 67.390625 67.28125 
L 67.390625 56.78125 
Q 61.921875 61.421875 55.765625 63.765625 
Q 49.609375 66.109375 42.828125 66.109375 
Q 29.4375 66.109375 22.71875 58.640625 
Q 16.015625 51.171875 16.015625 36.375 
Q 16.015625 21.625 22.71875 14.15625 
Q 29.4375 6.6875 42.828125 6.6875 
Q 48.046875 6.6875 52.140625 7.59375 
Q 56.25 8.5 59.515625 10.40625 
z
" id="DejaVuSans-71"/>
      </defs>
      <use xlink:href="#DejaVuSans-79"/>
      <use x="78.710938" xlink:href="#DejaVuSans-110"/>
      <use x="142.089844" xlink:href="#DejaVuSans-101"/>
      <use x="203.613281" xlink:href="#DejaVuSans-45"/>
      <use x="239.697266" xlink:href="#DejaVuSans-80"/>
      <use x="300" xlink:href="#DejaVuSans-104"/>
      <use x="363.378906" xlink:href="#DejaVuSans-111"/>
      <use x="424.560547" xlink:href="#DejaVuSans-116"/>
      <use x="463.769531" xlink:href="#DejaVuSans-111"/>
      <use x="524.951172" xlink:href="#DejaVuSans-110"/>
      <use x="588.330078" xlink:href="#DejaVuSans-32"/>
      <use x="620.117188" xlink:href="#DejaVuSans-68"/>
      <use x="697.119141" xlink:href="#DejaVuSans-101"/>
      <use x="758.642578" xlink:href="#DejaVuSans-116"/>
      <use x="797.851562" xlink:href="#DejaVuSans-117"/>
      <use x="861.230469" xlink:href="#DejaVuSans-110"/>
      <use x="924.609375" xlink:href="#DejaVuSans-105"/>
      <use x="952.392578" xlink:href="#DejaVuSans-110"/>
      <use x="1015.771484" xlink:href="#DejaVuSans-103"/>
      <use x="1079.248047" xlink:href="#DejaVuSans-32"/>
      <use x="1111.035156" xlink:href="#DejaVuSans-40"/>
      <use x="1150.048828" xlink:href="#DejaVuSans-71"/>
      <use x="1227.539062" xlink:href="#DejaVuSans-72"/>
      <use x="1302.734375" xlink:href="#DejaVuSans-122"/>
      <use x="1355.224609" xlink:href="#DejaVuSans-41"/>
     </g>
    </g>
   </g>
   <g id="matplotlib.axis_6">
    <g id="ytick_71">
     <g id="line2d_104">
      <path clip-path="url(#p8c41a65199)" d="M 66.1875 354.793043 
L 363.4899 354.793043 
" style="fill:none;stroke:#b0b0b0;stroke-linecap:square;stroke-width:0.8;"/>
     </g>
     <g id="line2d_105">
      <g>
       <use style="stroke:#000000;stroke-width:0.8;" x="66.1875" xlink:href="#mc3ce260a5b" y="354.793043"/>
      </g>
     </g>
     <g id="text_16">
      <!-- 0.1 -->
      <g transform="translate(35.332813 360.491871)scale(0.15 -0.15)">
       <use xlink:href="#DejaVuSans-48"/>
       <use x="63.623047" xlink:href="#DejaVuSans-46"/>
       <use x="95.410156" xlink:href="#DejaVuSans-49"/>
      </g>
     </g>
    </g>
    <g id="ytick_72">
     <g id="line2d_106">
      <path clip-path="url(#p8c41a65199)" d="M 66.1875 319.077982 
L 363.4899 319.077982 
" style="fill:none;stroke:#b0b0b0;stroke-linecap:square;stroke-width:0.8;"/>
     </g>
     <g id="line2d_107">
      <g>
       <use style="stroke:#000000;stroke-width:0.8;" x="66.1875" xlink:href="#mc3ce260a5b" y="319.077982"/>
      </g>
     </g>
     <g id="text_17">
      <!-- 1 -->
      <g transform="translate(49.64375 324.77681)scale(0.15 -0.15)">
       <use xlink:href="#DejaVuSans-49"/>
      </g>
     </g>
    </g>
    <g id="ytick_73">
     <g id="line2d_108">
      <path clip-path="url(#p8c41a65199)" d="M 66.1875 283.36292 
L 363.4899 283.36292 
" style="fill:none;stroke:#b0b0b0;stroke-linecap:square;stroke-width:0.8;"/>
     </g>
     <g id="line2d_109">
      <g>
       <use style="stroke:#000000;stroke-width:0.8;" x="66.1875" xlink:href="#mc3ce260a5b" y="283.36292"/>
      </g>
     </g>
     <g id="text_18">
      <!-- 10 -->
      <g transform="translate(40.1 289.061748)scale(0.15 -0.15)">
       <use xlink:href="#DejaVuSans-49"/>
       <use x="63.623047" xlink:href="#DejaVuSans-48"/>
      </g>
     </g>
    </g>
    <g id="ytick_74">
     <g id="line2d_110">
      <g>
       <use style="stroke:#000000;stroke-width:0.6;" x="66.1875" xlink:href="#md0f4fded07" y="379.7568"/>
      </g>
     </g>
    </g>
    <g id="ytick_75">
     <g id="line2d_111">
      <g>
       <use style="stroke:#000000;stroke-width:0.6;" x="66.1875" xlink:href="#md0f4fded07" y="373.46769"/>
      </g>
     </g>
    </g>
    <g id="ytick_76">
     <g id="line2d_112">
      <g>
       <use style="stroke:#000000;stroke-width:0.6;" x="66.1875" xlink:href="#md0f4fded07" y="369.005495"/>
      </g>
     </g>
    </g>
    <g id="ytick_77">
     <g id="line2d_113">
      <g>
       <use style="stroke:#000000;stroke-width:0.6;" x="66.1875" xlink:href="#md0f4fded07" y="365.544348"/>
      </g>
     </g>
    </g>
    <g id="ytick_78">
     <g id="line2d_114">
      <g>
       <use style="stroke:#000000;stroke-width:0.6;" x="66.1875" xlink:href="#md0f4fded07" y="362.716385"/>
      </g>
     </g>
    </g>
    <g id="ytick_79">
     <g id="line2d_115">
      <g>
       <use style="stroke:#000000;stroke-width:0.6;" x="66.1875" xlink:href="#md0f4fded07" y="360.325376"/>
      </g>
     </g>
    </g>
    <g id="ytick_80">
     <g id="line2d_116">
      <g>
       <use style="stroke:#000000;stroke-width:0.6;" x="66.1875" xlink:href="#md0f4fded07" y="358.25419"/>
      </g>
     </g>
    </g>
    <g id="ytick_81">
     <g id="line2d_117">
      <g>
       <use style="stroke:#000000;stroke-width:0.6;" x="66.1875" xlink:href="#md0f4fded07" y="356.427275"/>
      </g>
     </g>
    </g>
    <g id="ytick_82">
     <g id="line2d_118">
      <g>
       <use style="stroke:#000000;stroke-width:0.6;" x="66.1875" xlink:href="#md0f4fded07" y="344.041738"/>
      </g>
     </g>
    </g>
    <g id="ytick_83">
     <g id="line2d_119">
      <g>
       <use style="stroke:#000000;stroke-width:0.6;" x="66.1875" xlink:href="#md0f4fded07" y="337.752628"/>
      </g>
     </g>
    </g>
    <g id="ytick_84">
     <g id="line2d_120">
      <g>
       <use style="stroke:#000000;stroke-width:0.6;" x="66.1875" xlink:href="#md0f4fded07" y="333.290433"/>
      </g>
     </g>
    </g>
    <g id="ytick_85">
     <g id="line2d_121">
      <g>
       <use style="stroke:#000000;stroke-width:0.6;" x="66.1875" xlink:href="#md0f4fded07" y="329.829286"/>
      </g>
     </g>
    </g>
    <g id="ytick_86">
     <g id="line2d_122">
      <g>
       <use style="stroke:#000000;stroke-width:0.6;" x="66.1875" xlink:href="#md0f4fded07" y="327.001323"/>
      </g>
     </g>
    </g>
    <g id="ytick_87">
     <g id="line2d_123">
      <g>
       <use style="stroke:#000000;stroke-width:0.6;" x="66.1875" xlink:href="#md0f4fded07" y="324.610315"/>
      </g>
     </g>
    </g>
    <g id="ytick_88">
     <g id="line2d_124">
      <g>
       <use style="stroke:#000000;stroke-width:0.6;" x="66.1875" xlink:href="#md0f4fded07" y="322.539129"/>
      </g>
     </g>
    </g>
    <g id="ytick_89">
     <g id="line2d_125">
      <g>
       <use style="stroke:#000000;stroke-width:0.6;" x="66.1875" xlink:href="#md0f4fded07" y="320.712213"/>
      </g>
     </g>
    </g>
    <g id="ytick_90">
     <g id="line2d_126">
      <g>
       <use style="stroke:#000000;stroke-width:0.6;" x="66.1875" xlink:href="#md0f4fded07" y="308.326677"/>
      </g>
     </g>
    </g>
    <g id="ytick_91">
     <g id="line2d_127">
      <g>
       <use style="stroke:#000000;stroke-width:0.6;" x="66.1875" xlink:href="#md0f4fded07" y="302.037567"/>
      </g>
     </g>
    </g>
    <g id="ytick_92">
     <g id="line2d_128">
      <g>
       <use style="stroke:#000000;stroke-width:0.6;" x="66.1875" xlink:href="#md0f4fded07" y="297.575372"/>
      </g>
     </g>
    </g>
    <g id="ytick_93">
     <g id="line2d_129">
      <g>
       <use style="stroke:#000000;stroke-width:0.6;" x="66.1875" xlink:href="#md0f4fded07" y="294.114225"/>
      </g>
     </g>
    </g>
    <g id="ytick_94">
     <g id="line2d_130">
      <g>
       <use style="stroke:#000000;stroke-width:0.6;" x="66.1875" xlink:href="#md0f4fded07" y="291.286262"/>
      </g>
     </g>
    </g>
    <g id="ytick_95">
     <g id="line2d_131">
      <g>
       <use style="stroke:#000000;stroke-width:0.6;" x="66.1875" xlink:href="#md0f4fded07" y="288.895253"/>
      </g>
     </g>
    </g>
    <g id="ytick_96">
     <g id="line2d_132">
      <g>
       <use style="stroke:#000000;stroke-width:0.6;" x="66.1875" xlink:href="#md0f4fded07" y="286.824067"/>
      </g>
     </g>
    </g>
    <g id="ytick_97">
     <g id="line2d_133">
      <g>
       <use style="stroke:#000000;stroke-width:0.6;" x="66.1875" xlink:href="#md0f4fded07" y="284.997151"/>
      </g>
     </g>
    </g>
    <g id="ytick_98">
     <g id="line2d_134">
      <g>
       <use style="stroke:#000000;stroke-width:0.6;" x="66.1875" xlink:href="#md0f4fded07" y="272.611615"/>
      </g>
     </g>
    </g>
    <g id="ytick_99">
     <g id="line2d_135">
      <g>
       <use style="stroke:#000000;stroke-width:0.6;" x="66.1875" xlink:href="#md0f4fded07" y="266.322505"/>
      </g>
     </g>
    </g>
    <g id="ytick_100">
     <g id="line2d_136">
      <g>
       <use style="stroke:#000000;stroke-width:0.6;" x="66.1875" xlink:href="#md0f4fded07" y="261.86031"/>
      </g>
     </g>
    </g>
    <g id="ytick_101">
     <g id="line2d_137">
      <g>
       <use style="stroke:#000000;stroke-width:0.6;" x="66.1875" xlink:href="#md0f4fded07" y="258.399163"/>
      </g>
     </g>
    </g>
    <g id="ytick_102">
     <g id="line2d_138">
      <g>
       <use style="stroke:#000000;stroke-width:0.6;" x="66.1875" xlink:href="#md0f4fded07" y="255.5712"/>
      </g>
     </g>
    </g>
    <g id="text_19">
     <!-- $\Omega_{R}/\Gamma_{s}$ -->
     <g transform="translate(27.173438 343.564)rotate(-90)scale(0.2 -0.2)">
      <defs>
       <path d="M 25.390625 72.90625 
L 33.6875 72.90625 
L 8.296875 -9.28125 
L 0 -9.28125 
z
" id="DejaVuSans-47"/>
      </defs>
      <use transform="translate(0 0.21875)" xlink:href="#DejaVuSans-937"/>
      <use transform="translate(77.373047 -16.1875)scale(0.7)" xlink:href="#DejaVuSans-Oblique-82"/>
      <use transform="translate(128.745117 0.21875)" xlink:href="#DejaVuSans-47"/>
      <use transform="translate(162.436523 0.21875)" xlink:href="#DejaVuSans-915"/>
      <use transform="translate(219.106445 -16.1875)scale(0.7)" xlink:href="#DejaVuSans-Oblique-115"/>
     </g>
    </g>
   </g>
   <g id="line2d_139">
    <path clip-path="url(#p8c41a65199)" d="M 65.441906 257.710446 
L 81.05036 258.477692 
L 94.429035 259.343558 
L 106.69282 260.346473 
L 117.841716 261.471314 
L 127.875722 262.695939 
L 136.794839 263.990423 
L 145.713955 265.522703 
L 153.518182 267.104306 
L 160.20752 268.68219 
L 165.781968 270.190446 
L 171.356416 271.91607 
L 175.815974 273.489642 
L 180.275532 275.277187 
L 184.735091 277.334864 
L 188.079759 279.103865 
L 191.424428 281.12161 
L 194.769097 283.462621 
L 196.998876 285.257231 
L 199.228655 287.295854 
L 201.458434 289.652415 
L 203.688213 292.441108 
L 205.917992 295.852293 
L 207.032882 297.890832 
L 208.147772 300.240196 
L 209.262661 303.01172 
L 210.377551 306.390109 
L 211.49244 310.716608 
L 212.60733 316.738594 
L 213.722219 326.714409 
L 214.837109 362.788401 
L 215.951999 330.093143 
L 217.066888 318.431192 
L 218.181778 311.85351 
L 219.296667 307.252194 
L 220.411557 303.711171 
L 221.526446 300.833072 
L 222.641336 298.409153 
L 223.756226 296.31607 
L 225.986005 292.831812 
L 228.215784 289.998057 
L 230.445563 287.612439 
L 232.675342 285.554764 
L 234.905121 283.747774 
L 238.24979 281.396536 
L 241.594459 279.375242 
L 244.939128 277.607152 
L 249.398686 275.555394 
L 253.858244 273.77747 
L 258.317802 272.216094 
L 263.89225 270.508284 
L 269.466698 269.019902 
L 276.156036 267.467826 
L 283.960263 265.918291 
L 291.76449 264.597137 
L 300.683606 263.315356 
L 310.717612 262.111896 
L 321.866508 261.016957 
L 334.130293 260.052797 
L 347.508968 259.23456 
L 362.002533 258.571052 
L 364.232312 258.486627 
L 364.232312 258.486627 
" style="fill:none;stroke:#1f77b4;stroke-linecap:square;stroke-width:1.5;"/>
   </g>
   <g id="line2d_140">
    <path clip-path="url(#p8c41a65199)" d="M 66.043871 346.606045 
L 87.194919 344.698082 
L 104.268656 342.943959 
L 118.794075 341.23231 
L 131.026006 339.572776 
L 141.474114 337.940604 
L 150.648063 336.289845 
L 158.802684 334.596966 
L 165.937977 332.887621 
L 172.053943 331.202811 
L 177.660244 329.429594 
L 182.502051 327.674797 
L 187.089025 325.772448 
L 191.166335 323.840482 
L 194.988814 321.784949 
L 198.811292 319.474452 
L 206.201418 314.895904 
L 207.475577 314.457707 
L 208.240073 314.3723 
L 209.004568 314.49156 
L 209.769064 314.903465 
L 210.278728 315.401605 
L 210.788392 316.137752 
L 211.298056 317.181939 
L 211.807719 318.631267 
L 212.317383 320.62778 
L 212.827047 323.397019 
L 213.336711 327.345117 
L 213.846375 333.367291 
L 214.101206 337.846229 
L 214.356038 344.368759 
L 214.61087 356.115657 
L 214.865702 386.62044 
L 215.120534 352.329522 
L 215.630198 336.696466 
L 216.139862 329.439239 
L 216.649526 324.920222 
L 217.159189 321.829878 
L 217.923685 318.785929 
L 218.688181 316.947841 
L 219.452676 315.887685 
L 220.217172 315.353698 
L 220.981668 315.183487 
L 221.746164 315.267193 
L 222.765491 315.645408 
L 224.039651 316.385126 
L 226.078306 317.876706 
L 235.761918 325.328465 
L 239.839229 328.038688 
L 244.171371 330.641654 
L 249.013177 333.27558 
L 254.364647 335.920616 
L 260.480613 338.681654 
L 267.361074 341.539341 
L 275.770527 344.778866 
L 286.473467 348.644432 
L 307.114851 355.793923 
L 320.620942 360.606991 
L 329.540058 364.009749 
L 336.930184 367.062296 
L 343.046149 369.823093 
L 348.397619 372.482135 
L 352.984593 375.007005 
L 357.061904 377.507184 
L 360.629551 379.958424 
L 363.687533 382.319661 
L 363.687533 382.319661 
" style="fill:none;stroke:#ff7f0e;stroke-linecap:square;stroke-width:1.5;"/>
   </g>
   <g id="patch_14">
    <path d="M 66.1875 379.7568 
L 66.1875 255.5712 
" style="fill:none;stroke:#000000;stroke-linecap:square;stroke-linejoin:miter;stroke-width:0.8;"/>
   </g>
   <g id="patch_15">
    <path d="M 363.4899 379.7568 
L 363.4899 255.5712 
" style="fill:none;stroke:#000000;stroke-linecap:square;stroke-linejoin:miter;stroke-width:0.8;"/>
   </g>
   <g id="patch_16">
    <path d="M 66.1875 379.7568 
L 363.4899 379.7568 
" style="fill:none;stroke:#000000;stroke-linecap:square;stroke-linejoin:miter;stroke-width:0.8;"/>
   </g>
   <g id="patch_17">
    <path d="M 66.1875 255.5712 
L 363.4899 255.5712 
" style="fill:none;stroke:#000000;stroke-linecap:square;stroke-linejoin:miter;stroke-width:0.8;"/>
   </g>
  </g>
 </g>
 <defs>
  <clipPath id="p5f4450bc99">
   <rect height="124.1856" width="297.3024" x="66.1875" y="7.2"/>
  </clipPath>
  <clipPath id="pe7f0e2075e">
   <rect height="124.1856" width="297.3024" x="66.1875" y="131.3856"/>
  </clipPath>
  <clipPath id="p8c41a65199">
   <rect height="124.1856" width="297.3024" x="66.1875" y="255.5712"/>
  </clipPath>
 </defs>
</svg>
