<?xml version="1.0" encoding="utf-8" standalone="no"?>
<!DOCTYPE svg PUBLIC "-//W3C//DTD SVG 1.1//EN"
  "http://www.w3.org/Graphics/SVG/1.1/DTD/svg11.dtd">
<!-- Created with matplotlib (https://matplotlib.org/) -->
<svg height="458.441437pt" version="1.1" viewBox="0 0 382.774275 458.441437" width="382.774275pt" xmlns="http://www.w3.org/2000/svg" xmlns:xlink="http://www.w3.org/1999/xlink">
 <defs>
  <style type="text/css">*{stroke-linecap:butt;stroke-linejoin:round;}</style>
 </defs>
 <g id="figure_1">
  <g id="patch_1">
   <path d="M 0 458.441437 
L 382.774275 458.441437 
L 382.774275 0 
L 0 0 
z
" style="fill:none;"/>
  </g>
  <g id="axes_1">
   <g id="patch_2">
    <path d="M 63.95625 138.678261 
L 361.25865 138.678261 
L 361.25865 7.2 
L 63.95625 7.2 
z
" style="fill:none;"/>
   </g>
   <g id="matplotlib.axis_1">
    <g id="xtick_1">
     <g id="line2d_1">
      <path clip-path="url(#p9b073f230d)" d="M 63.95625 138.678261 
L 63.95625 7.2 
" style="fill:none;stroke:#b0b0b0;stroke-linecap:square;stroke-width:0.8;"/>
     </g>
     <g id="line2d_2"/>
    </g>
    <g id="xtick_2">
     <g id="line2d_3">
      <path clip-path="url(#p9b073f230d)" d="M 113.50665 138.678261 
L 113.50665 7.2 
" style="fill:none;stroke:#b0b0b0;stroke-linecap:square;stroke-width:0.8;"/>
     </g>
     <g id="line2d_4"/>
    </g>
    <g id="xtick_3">
     <g id="line2d_5">
      <path clip-path="url(#p9b073f230d)" d="M 163.05705 138.678261 
L 163.05705 7.2 
" style="fill:none;stroke:#b0b0b0;stroke-linecap:square;stroke-width:0.8;"/>
     </g>
     <g id="line2d_6"/>
    </g>
    <g id="xtick_4">
     <g id="line2d_7">
      <path clip-path="url(#p9b073f230d)" d="M 212.60745 138.678261 
L 212.60745 7.2 
" style="fill:none;stroke:#b0b0b0;stroke-linecap:square;stroke-width:0.8;"/>
     </g>
     <g id="line2d_8"/>
    </g>
    <g id="xtick_5">
     <g id="line2d_9">
      <path clip-path="url(#p9b073f230d)" d="M 262.15785 138.678261 
L 262.15785 7.2 
" style="fill:none;stroke:#b0b0b0;stroke-linecap:square;stroke-width:0.8;"/>
     </g>
     <g id="line2d_10"/>
    </g>
    <g id="xtick_6">
     <g id="line2d_11">
      <path clip-path="url(#p9b073f230d)" d="M 311.70825 138.678261 
L 311.70825 7.2 
" style="fill:none;stroke:#b0b0b0;stroke-linecap:square;stroke-width:0.8;"/>
     </g>
     <g id="line2d_12"/>
    </g>
    <g id="xtick_7">
     <g id="line2d_13">
      <path clip-path="url(#p9b073f230d)" d="M 361.25865 138.678261 
L 361.25865 7.2 
" style="fill:none;stroke:#b0b0b0;stroke-linecap:square;stroke-width:0.8;"/>
     </g>
     <g id="line2d_14"/>
    </g>
   </g>
   <g id="matplotlib.axis_2">
    <g id="ytick_1">
     <g id="line2d_15">
      <path clip-path="url(#p9b073f230d)" d="M 63.95625 93.07733 
L 361.25865 93.07733 
" style="fill:none;stroke:#b0b0b0;stroke-linecap:square;stroke-width:0.8;"/>
     </g>
     <g id="line2d_16">
      <defs>
       <path d="M 0 0 
L -3.5 0 
" id="mc3ce260a5b" style="stroke:#000000;stroke-width:0.8;"/>
      </defs>
      <g>
       <use style="stroke:#000000;stroke-width:0.8;" x="63.95625" xlink:href="#mc3ce260a5b" y="93.07733"/>
      </g>
     </g>
     <g id="text_1">
      <!-- $\mathdefault{10^{2}}$ -->
      <g transform="translate(30.55625 98.776159)scale(0.15 -0.15)">
       <defs>
        <path d="M 12.40625 8.296875 
L 28.515625 8.296875 
L 28.515625 63.921875 
L 10.984375 60.40625 
L 10.984375 69.390625 
L 28.421875 72.90625 
L 38.28125 72.90625 
L 38.28125 8.296875 
L 54.390625 8.296875 
L 54.390625 0 
L 12.40625 0 
z
" id="DejaVuSans-49"/>
        <path d="M 31.78125 66.40625 
Q 24.171875 66.40625 20.328125 58.90625 
Q 16.5 51.421875 16.5 36.375 
Q 16.5 21.390625 20.328125 13.890625 
Q 24.171875 6.390625 31.78125 6.390625 
Q 39.453125 6.390625 43.28125 13.890625 
Q 47.125 21.390625 47.125 36.375 
Q 47.125 51.421875 43.28125 58.90625 
Q 39.453125 66.40625 31.78125 66.40625 
z
M 31.78125 74.21875 
Q 44.046875 74.21875 50.515625 64.515625 
Q 56.984375 54.828125 56.984375 36.375 
Q 56.984375 17.96875 50.515625 8.265625 
Q 44.046875 -1.421875 31.78125 -1.421875 
Q 19.53125 -1.421875 13.0625 8.265625 
Q 6.59375 17.96875 6.59375 36.375 
Q 6.59375 54.828125 13.0625 64.515625 
Q 19.53125 74.21875 31.78125 74.21875 
z
" id="DejaVuSans-48"/>
        <path d="M 19.1875 8.296875 
L 53.609375 8.296875 
L 53.609375 0 
L 7.328125 0 
L 7.328125 8.296875 
Q 12.9375 14.109375 22.625 23.890625 
Q 32.328125 33.6875 34.8125 36.53125 
Q 39.546875 41.84375 41.421875 45.53125 
Q 43.3125 49.21875 43.3125 52.78125 
Q 43.3125 58.59375 39.234375 62.25 
Q 35.15625 65.921875 28.609375 65.921875 
Q 23.96875 65.921875 18.8125 64.3125 
Q 13.671875 62.703125 7.8125 59.421875 
L 7.8125 69.390625 
Q 13.765625 71.78125 18.9375 73 
Q 24.125 74.21875 28.421875 74.21875 
Q 39.75 74.21875 46.484375 68.546875 
Q 53.21875 62.890625 53.21875 53.421875 
Q 53.21875 48.921875 51.53125 44.890625 
Q 49.859375 40.875 45.40625 35.40625 
Q 44.1875 33.984375 37.640625 27.21875 
Q 31.109375 20.453125 19.1875 8.296875 
z
" id="DejaVuSans-50"/>
       </defs>
       <use transform="translate(0 0.765625)" xlink:href="#DejaVuSans-49"/>
       <use transform="translate(63.623047 0.765625)" xlink:href="#DejaVuSans-48"/>
       <use transform="translate(128.203125 39.046875)scale(0.7)" xlink:href="#DejaVuSans-50"/>
      </g>
     </g>
    </g>
    <g id="ytick_2">
     <g id="line2d_17">
      <path clip-path="url(#p9b073f230d)" d="M 63.95625 18.434818 
L 361.25865 18.434818 
" style="fill:none;stroke:#b0b0b0;stroke-linecap:square;stroke-width:0.8;"/>
     </g>
     <g id="line2d_18">
      <g>
       <use style="stroke:#000000;stroke-width:0.8;" x="63.95625" xlink:href="#mc3ce260a5b" y="18.434818"/>
      </g>
     </g>
     <g id="text_2">
      <!-- $\mathdefault{10^{4}}$ -->
      <g transform="translate(30.55625 24.133646)scale(0.15 -0.15)">
       <defs>
        <path d="M 37.796875 64.3125 
L 12.890625 25.390625 
L 37.796875 25.390625 
z
M 35.203125 72.90625 
L 47.609375 72.90625 
L 47.609375 25.390625 
L 58.015625 25.390625 
L 58.015625 17.1875 
L 47.609375 17.1875 
L 47.609375 0 
L 37.796875 0 
L 37.796875 17.1875 
L 4.890625 17.1875 
L 4.890625 26.703125 
z
" id="DejaVuSans-52"/>
       </defs>
       <use transform="translate(0 0.684375)" xlink:href="#DejaVuSans-49"/>
       <use transform="translate(63.623047 0.684375)" xlink:href="#DejaVuSans-48"/>
       <use transform="translate(128.203125 38.965625)scale(0.7)" xlink:href="#DejaVuSans-52"/>
      </g>
     </g>
    </g>
    <g id="text_3">
     <!-- $\Omega_{R}~(2\pi\!\times\!\mathrm{kHz})$ -->
     <g transform="translate(22.396875 136.83913)rotate(-90)scale(0.2 -0.2)">
      <defs>
       <path d="M 72.609375 8.6875 
L 72.609375 0 
L 43.3125 0 
L 43.3125 8.6875 
Q 51.953125 13.421875 56.78125 21.53125 
Q 61.625 29.640625 61.625 39.5 
Q 61.625 51.21875 55.171875 58.296875 
Q 48.734375 65.375 38.1875 65.375 
Q 27.640625 65.375 21.171875 58.265625 
Q 14.703125 51.171875 14.703125 39.5 
Q 14.703125 29.640625 19.53125 21.53125 
Q 24.421875 13.421875 33.109375 8.6875 
L 33.109375 0 
L 3.8125 0 
L 3.8125 8.6875 
L 19.390625 8.6875 
Q 11.671875 15.484375 8.109375 22.75 
Q 4.59375 30.03125 4.59375 39.015625 
Q 4.59375 54.546875 13.96875 64.15625 
Q 23.296875 73.78125 38.1875 73.78125 
Q 52.984375 73.78125 62.40625 64.15625 
Q 71.78125 54.59375 71.78125 39.5 
Q 71.78125 30.03125 68.3125 22.796875 
Q 64.84375 15.578125 56.984375 8.6875 
z
" id="DejaVuSans-937"/>
       <path d="M 25.203125 64.796875 
L 20.21875 38.921875 
L 32.90625 38.921875 
Q 40.375 38.921875 44.984375 43.046875 
Q 49.609375 47.171875 49.609375 53.8125 
Q 49.609375 59.125 46.5 61.953125 
Q 43.40625 64.796875 37.59375 64.796875 
z
M 43.3125 35.015625 
Q 46.4375 34.28125 48.515625 31.390625 
Q 50.59375 28.515625 53.328125 19.921875 
L 59.515625 0 
L 49.125 0 
L 43.40625 18.703125 
Q 41.21875 25.921875 38.328125 28.359375 
Q 35.453125 30.8125 29.5 30.8125 
L 18.609375 30.8125 
L 12.59375 0 
L 2.6875 0 
L 16.890625 72.90625 
L 39.109375 72.90625 
Q 49.21875 72.90625 54.609375 68.328125 
Q 60.015625 63.765625 60.015625 55.171875 
Q 60.015625 47.5625 55.421875 41.984375 
Q 50.828125 36.421875 43.3125 35.015625 
z
" id="DejaVuSans-Oblique-82"/>
       <path d="M 31 75.875 
Q 24.46875 64.65625 21.28125 53.65625 
Q 18.109375 42.671875 18.109375 31.390625 
Q 18.109375 20.125 21.3125 9.0625 
Q 24.515625 -2 31 -13.1875 
L 23.1875 -13.1875 
Q 15.875 -1.703125 12.234375 9.375 
Q 8.59375 20.453125 8.59375 31.390625 
Q 8.59375 42.28125 12.203125 53.3125 
Q 15.828125 64.359375 23.1875 75.875 
z
" id="DejaVuSans-40"/>
       <path d="M 9.125 54.6875 
L 61.53125 54.6875 
L 59.765625 45.703125 
L 52.875 45.703125 
L 46.34375 12.109375 
Q 45.65625 8.59375 46.578125 7.03125 
Q 47.46875 5.515625 50.140625 5.515625 
Q 50.875 5.515625 51.953125 5.671875 
Q 53.078125 5.765625 53.421875 5.8125 
L 52.15625 -0.6875 
Q 50.34375 -1.3125 48.484375 -1.609375 
Q 46.578125 -1.90625 44.78125 -1.90625 
Q 38.921875 -1.90625 37.3125 1.265625 
Q 35.6875 4.5 37.359375 13.09375 
L 43.703125 45.703125 
L 23.53125 45.703125 
L 14.65625 0 
L 5.46875 0 
L 14.359375 45.703125 
L 7.375 45.703125 
z
" id="DejaVuSans-Oblique-960"/>
       <path d="M 70.125 53.71875 
L 47.796875 31.296875 
L 70.125 8.984375 
L 64.3125 3.078125 
L 41.890625 25.484375 
L 19.484375 3.078125 
L 13.71875 8.984375 
L 35.984375 31.296875 
L 13.71875 53.71875 
L 19.484375 59.625 
L 41.890625 37.203125 
L 64.3125 59.625 
z
" id="DejaVuSans-215"/>
       <path d="M 9.078125 75.984375 
L 18.109375 75.984375 
L 18.109375 31.109375 
L 44.921875 54.6875 
L 56.390625 54.6875 
L 27.390625 29.109375 
L 57.625 0 
L 45.90625 0 
L 18.109375 26.703125 
L 18.109375 0 
L 9.078125 0 
z
" id="DejaVuSans-107"/>
       <path d="M 9.8125 72.90625 
L 19.671875 72.90625 
L 19.671875 43.015625 
L 55.515625 43.015625 
L 55.515625 72.90625 
L 65.375 72.90625 
L 65.375 0 
L 55.515625 0 
L 55.515625 34.71875 
L 19.671875 34.71875 
L 19.671875 0 
L 9.8125 0 
z
" id="DejaVuSans-72"/>
       <path d="M 5.515625 54.6875 
L 48.1875 54.6875 
L 48.1875 46.484375 
L 14.40625 7.171875 
L 48.1875 7.171875 
L 48.1875 0 
L 4.296875 0 
L 4.296875 8.203125 
L 38.09375 47.515625 
L 5.515625 47.515625 
z
" id="DejaVuSans-122"/>
       <path d="M 8.015625 75.875 
L 15.828125 75.875 
Q 23.140625 64.359375 26.78125 53.3125 
Q 30.421875 42.28125 30.421875 31.390625 
Q 30.421875 20.453125 26.78125 9.375 
Q 23.140625 -1.703125 15.828125 -13.1875 
L 8.015625 -13.1875 
Q 14.5 -2 17.703125 9.0625 
Q 20.90625 20.125 20.90625 31.390625 
Q 20.90625 42.671875 17.703125 53.65625 
Q 14.5 64.65625 8.015625 75.875 
z
" id="DejaVuSans-41"/>
      </defs>
      <use transform="translate(0 0.015625)" xlink:href="#DejaVuSans-937"/>
      <use transform="translate(77.373047 -16.390625)scale(0.7)" xlink:href="#DejaVuSans-Oblique-82"/>
      <use transform="translate(161.215496 0.015625)" xlink:href="#DejaVuSans-40"/>
      <use transform="translate(200.229167 0.015625)" xlink:href="#DejaVuSans-50"/>
      <use transform="translate(263.852214 0.015625)" xlink:href="#DejaVuSans-Oblique-960"/>
      <use transform="translate(327.304038 0.015625)" xlink:href="#DejaVuSans-215"/>
      <use transform="translate(414.339846 0.015625)" xlink:href="#DejaVuSans-107"/>
      <use transform="translate(472.250002 0.015625)" xlink:href="#DejaVuSans-72"/>
      <use transform="translate(547.445315 0.015625)" xlink:href="#DejaVuSans-122"/>
      <use transform="translate(599.935549 0.015625)" xlink:href="#DejaVuSans-41"/>
     </g>
    </g>
   </g>
   <g id="line2d_19">
    <path clip-path="url(#p9b073f230d)" d="M 63.955537 91.223969 
L 75.371978 93.197862 
L 83.785657 94.870503 
L 90.474978 96.419997 
L 95.975086 97.915834 
L 100.583284 99.393575 
L 104.507686 100.881059 
L 107.867211 102.387897 
L 110.780782 103.935152 
L 113.307859 105.524461 
L 115.537633 107.186497 
L 117.499833 108.922692 
L 119.253922 110.769961 
L 120.829628 112.754722 
L 122.226953 114.870576 
L 123.505357 117.216759 
L 124.635109 119.754979 
L 125.645939 122.564651 
L 126.567579 125.792176 
L 127.370298 129.410932 
L 128.083825 133.667479 
L 128.708162 138.812969 
L 129.213577 144.865639 
L 129.629802 152.671671 
L 129.927105 162.380721 
L 130.135217 176.532563 
L 130.254138 202.956514 
L 130.283868 259.46488 
L 130.343329 190.953717 
L 130.551441 166.664432 
L 130.878475 153.598872 
L 131.324429 144.327847 
L 131.889305 137.03178 
L 132.573103 130.945441 
L 133.405551 125.495857 
L 134.386652 120.548313 
L 135.516404 115.981475 
L 136.854268 111.509526 
L 138.400244 107.118007 
L 140.273254 102.477107 
L 142.68141 97.134189 
L 147.259878 87.659738 
L 150.29237 81.103762 
L 152.314031 76.21354 
L 153.949199 71.67561 
L 155.287063 67.315813 
L 156.446545 62.766758 
L 157.427645 57.991526 
L 158.260094 52.792475 
L 158.943891 47.089184 
L 159.508767 40.456098 
L 159.954722 32.50066 
L 160.281756 22.668839 
L 160.519598 7.923541 
L 160.587013 -1 
M 160.776864 -1 
L 160.995283 18.421518 
L 161.352047 30.582982 
L 161.827732 39.076694 
L 162.392608 45.341954 
L 163.076405 50.521376 
L 163.879124 54.899807 
L 164.771033 58.558875 
L 165.781864 61.781858 
L 166.911616 64.644208 
L 168.160289 67.206247 
L 169.557614 69.562651 
L 171.10359 71.731958 
L 172.827948 73.768673 
L 174.790149 75.738345 
L 177.049653 77.68489 
L 179.755111 79.711416 
L 183.41194 82.15024 
L 188.585015 85.604406 
L 190.339103 87.061041 
L 191.558046 88.358434 
L 192.479686 89.66898 
L 193.193214 91.071101 
L 193.78782 92.746745 
L 194.263505 94.743861 
L 194.679729 97.486672 
L 195.036493 101.521733 
L 195.304066 107.193986 
L 195.512178 116.676061 
L 195.631099 130.756067 
L 195.69056 157.149355 
L 195.750021 136.543279 
L 195.958133 105.128808 
L 196.701391 39.450667 
L 196.760851 3.584921 
L 196.790582 31.697312 
L 196.968963 58.270311 
L 197.236536 68.413686 
L 197.5933 74.162698 
L 198.039255 77.841639 
L 198.54467 80.276191 
L 199.169007 82.198737 
L 199.912265 83.758196 
L 200.833904 85.164627 
L 202.082578 86.640307 
L 204.728576 89.310352 
L 206.304282 91.096633 
L 207.344843 92.61034 
L 208.147562 94.166185 
L 208.801629 95.912476 
L 209.366505 98.079559 
L 209.84219 100.839065 
L 210.228684 104.39781 
L 210.555717 109.537056 
L 210.82329 117.76637 
L 211.001672 130.899406 
L 211.090863 152.029766 
L 211.120593 205.231927 
L 211.180054 140.775199 
L 211.388166 113.69695 
L 211.80439 91.891215 
L 212.369266 62.896703 
L 212.547648 39.359053 
L 212.6062 -1 
M 212.608255 -1 
L 212.75576 50.134896 
L 213.023333 64.862287 
L 213.380097 72.364922 
L 213.826052 77.071633 
L 214.331467 80.175796 
L 214.926073 82.52832 
L 215.639601 84.473357 
L 216.53151 86.260455 
L 218.077487 88.763899 
L 219.118048 90.645727 
L 219.712654 92.196004 
L 220.158609 94.037188 
L 220.485642 96.356331 
L 220.753215 99.948884 
L 220.961327 106.171084 
L 221.109979 119.234226 
L 221.19917 150.579203 
L 221.2289 126.517321 
L 221.466742 80.218558 
L 221.585664 52.393398 
L 221.615394 30.136806 
L 221.674855 51.890455 
L 221.853237 71.96679 
L 222.120809 79.261976 
L 222.477573 83.011293 
L 222.893798 85.152821 
L 223.399213 86.651109 
L 224.02355 87.829482 
L 224.826268 88.869143 
L 225.896559 89.881455 
L 227.412805 90.990341 
L 229.70204 92.364545 
L 234.250778 94.779252 
L 239.691425 97.746663 
L 243.080681 99.850828 
L 245.8456 101.823344 
L 248.224025 103.788488 
L 250.305147 105.792884 
L 252.148427 107.874797 
L 253.783594 110.053713 
L 255.24038 112.358719 
L 256.548513 114.836684 
L 257.737726 117.565915 
L 258.808017 120.587943 
L 259.759387 123.951691 
L 260.591836 127.713315 
L 261.335094 132.136699 
L 261.959431 137.220483 
L 262.494576 143.511048 
L 262.910801 151.117315 
L 263.237834 161.602095 
L 263.445946 175.818037 
L 263.564868 202.450395 
L 263.594598 252.556398 
L 263.654059 190.122861 
L 263.862171 165.957014 
L 264.189204 152.966431 
L 264.635159 143.785578 
L 265.200035 136.602788 
L 265.883832 130.656625 
L 266.686551 125.548142 
L 267.637921 120.910955 
L 268.737942 116.665087 
L 269.986615 112.735266 
L 271.413671 108.984062 
L 273.019108 105.385041 
L 274.862387 101.795712 
L 277.00297 98.11664 
L 279.559777 94.175825 
L 282.74092 89.698313 
L 287.586962 83.309756 
L 293.830328 75.020725 
L 296.92228 70.534813 
L 299.360166 66.616585 
L 301.411558 62.903128 
L 303.165646 59.267611 
L 304.681892 55.608365 
L 305.990026 51.86522 
L 307.119778 47.954533 
L 308.100878 43.743218 
L 308.933327 39.180468 
L 309.646855 33.994305 
L 310.241461 27.958111 
L 310.717146 20.742877 
L 311.07391 11.904648 
L 311.343361 -1 
M 311.784362 -1 
L 312.05501 12.072858 
L 312.471235 22.151181 
L 313.00638 29.895056 
L 313.690178 36.634411 
L 314.671278 43.972971 
L 315.86049 52.974921 
L 316.336175 58.511307 
L 316.663209 65.041266 
L 316.901051 74.680584 
L 317.049703 90.577032 
L 317.138894 119.19583 
L 317.168624 98.919159 
L 317.376736 66.940122 
L 318.162639 -1 
M 318.263893 -1 
L 318.417297 20.002162 
L 318.68487 31.006622 
L 319.041634 37.466605 
L 319.487589 41.860518 
L 320.052465 45.287094 
L 320.736262 48.074507 
L 321.568711 50.516751 
L 322.549811 52.697032 
L 323.709293 54.723559 
L 325.047158 56.611131 
L 326.593134 58.403742 
L 328.347222 60.09539 
L 330.339154 61.706121 
L 332.598657 63.244758 
L 335.155464 64.713987 
L 338.069035 66.12657 
L 341.3691 67.474379 
L 345.11512 68.760223 
L 349.396285 69.990354 
L 354.301787 71.163598 
L 359.950547 72.280085 
L 361.25868 72.509701 
L 361.25868 72.509701 
" style="fill:none;stroke:#ff7f0e;stroke-dasharray:5.55,2.4;stroke-dashoffset:0;stroke-width:1.5;"/>
   </g>
   <g id="line2d_20">
    <path clip-path="url(#p9b073f230d)" d="M 63.849097 135.321305 
L 82.340625 133.087334 
L 98.138023 130.960118 
L 111.853593 128.892799 
L 123.732257 126.882609 
L 134.141395 124.900846 
L 143.325929 122.929413 
L 151.408318 120.97022 
L 158.511024 119.024211 
L 164.756507 117.089514 
L 170.389688 115.113308 
L 175.288106 113.165517 
L 179.696682 111.177528 
L 183.615417 109.169652 
L 187.044309 107.17299 
L 190.10582 105.14617 
L 192.922411 103.017917 
L 195.37162 100.899987 
L 197.575908 98.715481 
L 199.657735 96.332155 
L 201.494642 93.883155 
L 203.086628 91.404868 
L 204.556153 88.714826 
L 205.903218 85.774159 
L 207.127823 82.532118 
L 208.229967 78.920624 
L 209.20965 74.845261 
L 210.066874 70.169452 
L 210.801636 64.684455 
L 211.413938 58.046156 
L 211.90378 49.620265 
L 212.271162 37.998728 
L 212.516083 18.521248 
L 212.597477 -1 
M 212.674064 -1 
L 212.883464 33.313551 
L 213.250845 47.520842 
L 213.740687 56.858538 
L 214.352989 63.941529 
L 215.087752 69.687289 
L 215.944975 74.537452 
L 216.924659 78.742156 
L 218.026803 82.458099 
L 219.251407 85.790479 
L 220.598472 88.813583 
L 222.067998 91.581954 
L 223.782444 94.318087 
L 225.619351 96.823623 
L 227.701178 99.273198 
L 229.905466 101.529531 
L 232.354675 103.728675 
L 235.171266 105.951652 
L 238.232777 108.082661 
L 241.661669 110.197246 
L 245.457943 112.277996 
L 249.744059 114.371346 
L 254.520017 116.454717 
L 259.908276 118.559412 
L 266.031299 120.704998 
L 272.889084 122.866885 
L 280.726553 125.096802 
L 289.543705 127.37002 
L 299.707922 129.756274 
L 311.586586 132.309198 
L 325.669538 135.100956 
L 343.426303 138.382871 
L 361.305528 141.53776 
L 361.305528 141.53776 
" style="fill:none;stroke:#1f77b4;stroke-linecap:square;stroke-width:1.5;"/>
   </g>
   <g id="patch_3">
    <path d="M 63.95625 138.678261 
L 63.95625 7.2 
" style="fill:none;stroke:#000000;stroke-linecap:square;stroke-linejoin:miter;stroke-width:0.8;"/>
   </g>
   <g id="patch_4">
    <path d="M 361.25865 138.678261 
L 361.25865 7.2 
" style="fill:none;stroke:#000000;stroke-linecap:square;stroke-linejoin:miter;stroke-width:0.8;"/>
   </g>
   <g id="patch_5">
    <path d="M 63.95625 138.678261 
L 361.25865 138.678261 
" style="fill:none;stroke:#000000;stroke-linecap:square;stroke-linejoin:miter;stroke-width:0.8;"/>
   </g>
   <g id="patch_6">
    <path d="M 63.95625 7.2 
L 361.25865 7.2 
" style="fill:none;stroke:#000000;stroke-linecap:square;stroke-linejoin:miter;stroke-width:0.8;"/>
   </g>
  </g>
  <g id="axes_2">
   <g id="patch_7">
    <path d="M 63.95625 272.52313 
L 361.25865 272.52313 
L 361.25865 141.04487 
L 63.95625 141.04487 
z
" style="fill:none;"/>
   </g>
   <g id="matplotlib.axis_3">
    <g id="xtick_8">
     <g id="line2d_21">
      <path clip-path="url(#p661cc4630b)" d="M 63.95625 272.52313 
L 63.95625 141.04487 
" style="fill:none;stroke:#b0b0b0;stroke-linecap:square;stroke-width:0.8;"/>
     </g>
     <g id="line2d_22"/>
    </g>
    <g id="xtick_9">
     <g id="line2d_23">
      <path clip-path="url(#p661cc4630b)" d="M 113.50665 272.52313 
L 113.50665 141.04487 
" style="fill:none;stroke:#b0b0b0;stroke-linecap:square;stroke-width:0.8;"/>
     </g>
     <g id="line2d_24"/>
    </g>
    <g id="xtick_10">
     <g id="line2d_25">
      <path clip-path="url(#p661cc4630b)" d="M 163.05705 272.52313 
L 163.05705 141.04487 
" style="fill:none;stroke:#b0b0b0;stroke-linecap:square;stroke-width:0.8;"/>
     </g>
     <g id="line2d_26"/>
    </g>
    <g id="xtick_11">
     <g id="line2d_27">
      <path clip-path="url(#p661cc4630b)" d="M 212.60745 272.52313 
L 212.60745 141.04487 
" style="fill:none;stroke:#b0b0b0;stroke-linecap:square;stroke-width:0.8;"/>
     </g>
     <g id="line2d_28"/>
    </g>
    <g id="xtick_12">
     <g id="line2d_29">
      <path clip-path="url(#p661cc4630b)" d="M 262.15785 272.52313 
L 262.15785 141.04487 
" style="fill:none;stroke:#b0b0b0;stroke-linecap:square;stroke-width:0.8;"/>
     </g>
     <g id="line2d_30"/>
    </g>
    <g id="xtick_13">
     <g id="line2d_31">
      <path clip-path="url(#p661cc4630b)" d="M 311.70825 272.52313 
L 311.70825 141.04487 
" style="fill:none;stroke:#b0b0b0;stroke-linecap:square;stroke-width:0.8;"/>
     </g>
     <g id="line2d_32"/>
    </g>
    <g id="xtick_14">
     <g id="line2d_33">
      <path clip-path="url(#p661cc4630b)" d="M 361.25865 272.52313 
L 361.25865 141.04487 
" style="fill:none;stroke:#b0b0b0;stroke-linecap:square;stroke-width:0.8;"/>
     </g>
     <g id="line2d_34"/>
    </g>
   </g>
   <g id="matplotlib.axis_4">
    <g id="ytick_3">
     <g id="line2d_35">
      <path clip-path="url(#p661cc4630b)" d="M 63.95625 231.932959 
L 361.25865 231.932959 
" style="fill:none;stroke:#b0b0b0;stroke-linecap:square;stroke-width:0.8;"/>
     </g>
     <g id="line2d_36">
      <g>
       <use style="stroke:#000000;stroke-width:0.8;" x="63.95625" xlink:href="#mc3ce260a5b" y="231.932959"/>
      </g>
     </g>
     <g id="text_4">
      <!-- $\mathdefault{10^{1}}$ -->
      <g transform="translate(30.55625 237.631787)scale(0.15 -0.15)">
       <use transform="translate(0 0.684375)" xlink:href="#DejaVuSans-49"/>
       <use transform="translate(63.623047 0.684375)" xlink:href="#DejaVuSans-48"/>
       <use transform="translate(128.203125 38.965625)scale(0.7)" xlink:href="#DejaVuSans-49"/>
      </g>
     </g>
    </g>
    <g id="ytick_4">
     <g id="line2d_37">
      <path clip-path="url(#p661cc4630b)" d="M 63.95625 189.669552 
L 361.25865 189.669552 
" style="fill:none;stroke:#b0b0b0;stroke-linecap:square;stroke-width:0.8;"/>
     </g>
     <g id="line2d_38">
      <g>
       <use style="stroke:#000000;stroke-width:0.8;" x="63.95625" xlink:href="#mc3ce260a5b" y="189.669552"/>
      </g>
     </g>
     <g id="text_5">
      <!-- $\mathdefault{10^{3}}$ -->
      <g transform="translate(30.55625 195.368381)scale(0.15 -0.15)">
       <defs>
        <path d="M 40.578125 39.3125 
Q 47.65625 37.796875 51.625 33 
Q 55.609375 28.21875 55.609375 21.1875 
Q 55.609375 10.40625 48.1875 4.484375 
Q 40.765625 -1.421875 27.09375 -1.421875 
Q 22.515625 -1.421875 17.65625 -0.515625 
Q 12.796875 0.390625 7.625 2.203125 
L 7.625 11.71875 
Q 11.71875 9.328125 16.59375 8.109375 
Q 21.484375 6.890625 26.8125 6.890625 
Q 36.078125 6.890625 40.9375 10.546875 
Q 45.796875 14.203125 45.796875 21.1875 
Q 45.796875 27.640625 41.28125 31.265625 
Q 36.765625 34.90625 28.71875 34.90625 
L 20.21875 34.90625 
L 20.21875 43.015625 
L 29.109375 43.015625 
Q 36.375 43.015625 40.234375 45.921875 
Q 44.09375 48.828125 44.09375 54.296875 
Q 44.09375 59.90625 40.109375 62.90625 
Q 36.140625 65.921875 28.71875 65.921875 
Q 24.65625 65.921875 20.015625 65.03125 
Q 15.375 64.15625 9.8125 62.3125 
L 9.8125 71.09375 
Q 15.4375 72.65625 20.34375 73.4375 
Q 25.25 74.21875 29.59375 74.21875 
Q 40.828125 74.21875 47.359375 69.109375 
Q 53.90625 64.015625 53.90625 55.328125 
Q 53.90625 49.265625 50.4375 45.09375 
Q 46.96875 40.921875 40.578125 39.3125 
z
" id="DejaVuSans-51"/>
       </defs>
       <use transform="translate(0 0.765625)" xlink:href="#DejaVuSans-49"/>
       <use transform="translate(63.623047 0.765625)" xlink:href="#DejaVuSans-48"/>
       <use transform="translate(128.203125 39.046875)scale(0.7)" xlink:href="#DejaVuSans-51"/>
      </g>
     </g>
    </g>
    <g id="ytick_5">
     <g id="line2d_39">
      <path clip-path="url(#p661cc4630b)" d="M 63.95625 147.406146 
L 361.25865 147.406146 
" style="fill:none;stroke:#b0b0b0;stroke-linecap:square;stroke-width:0.8;"/>
     </g>
     <g id="line2d_40">
      <g>
       <use style="stroke:#000000;stroke-width:0.8;" x="63.95625" xlink:href="#mc3ce260a5b" y="147.406146"/>
      </g>
     </g>
     <g id="text_6">
      <!-- $\mathdefault{10^{5}}$ -->
      <g transform="translate(30.55625 153.104974)scale(0.15 -0.15)">
       <defs>
        <path d="M 10.796875 72.90625 
L 49.515625 72.90625 
L 49.515625 64.59375 
L 19.828125 64.59375 
L 19.828125 46.734375 
Q 21.96875 47.46875 24.109375 47.828125 
Q 26.265625 48.1875 28.421875 48.1875 
Q 40.625 48.1875 47.75 41.5 
Q 54.890625 34.8125 54.890625 23.390625 
Q 54.890625 11.625 47.5625 5.09375 
Q 40.234375 -1.421875 26.90625 -1.421875 
Q 22.3125 -1.421875 17.546875 -0.640625 
Q 12.796875 0.140625 7.71875 1.703125 
L 7.71875 11.625 
Q 12.109375 9.234375 16.796875 8.0625 
Q 21.484375 6.890625 26.703125 6.890625 
Q 35.15625 6.890625 40.078125 11.328125 
Q 45.015625 15.765625 45.015625 23.390625 
Q 45.015625 31 40.078125 35.4375 
Q 35.15625 39.890625 26.703125 39.890625 
Q 22.75 39.890625 18.8125 39.015625 
Q 14.890625 38.140625 10.796875 36.28125 
z
" id="DejaVuSans-53"/>
       </defs>
       <use transform="translate(0 0.684375)" xlink:href="#DejaVuSans-49"/>
       <use transform="translate(63.623047 0.684375)" xlink:href="#DejaVuSans-48"/>
       <use transform="translate(128.203125 38.965625)scale(0.7)" xlink:href="#DejaVuSans-53"/>
      </g>
     </g>
    </g>
    <g id="text_7">
     <!-- $\Gamma_{s}~(2\pi\!\times\!\mathrm{kHz})$ -->
     <g transform="translate(22.396875 267.484)rotate(-90)scale(0.2 -0.2)">
      <defs>
       <path d="M 9.8125 0 
L 9.8125 72.90625 
L 55.171875 72.90625 
L 55.171875 64.59375 
L 19.671875 64.59375 
L 19.671875 0 
z
" id="DejaVuSans-915"/>
       <path d="M 50 53.078125 
L 48.296875 44.578125 
Q 44.734375 46.53125 40.765625 47.5 
Q 36.8125 48.484375 32.625 48.484375 
Q 25.53125 48.484375 21.453125 46.0625 
Q 17.390625 43.65625 17.390625 39.5 
Q 17.390625 34.671875 26.859375 32.078125 
Q 27.59375 31.890625 27.9375 31.78125 
L 30.8125 30.90625 
Q 39.796875 28.421875 42.796875 25.6875 
Q 45.796875 22.953125 45.796875 18.21875 
Q 45.796875 9.515625 38.890625 4.046875 
Q 31.984375 -1.421875 20.796875 -1.421875 
Q 16.453125 -1.421875 11.671875 -0.578125 
Q 6.890625 0.25 1.125 2 
L 2.875 11.28125 
Q 7.8125 8.734375 12.59375 7.421875 
Q 17.390625 6.109375 21.78125 6.109375 
Q 28.375 6.109375 32.5 8.9375 
Q 36.625 11.765625 36.625 16.109375 
Q 36.625 20.796875 25.78125 23.6875 
L 24.859375 23.921875 
L 21.78125 24.703125 
Q 14.9375 26.515625 11.765625 29.46875 
Q 8.59375 32.421875 8.59375 37.015625 
Q 8.59375 45.75 15.15625 50.875 
Q 21.734375 56 33.015625 56 
Q 37.453125 56 41.671875 55.265625 
Q 45.90625 54.546875 50 53.078125 
z
" id="DejaVuSans-Oblique-115"/>
      </defs>
      <use transform="translate(0 0.015625)" xlink:href="#DejaVuSans-915"/>
      <use transform="translate(56.669922 -16.390625)scale(0.7)" xlink:href="#DejaVuSans-Oblique-115"/>
      <use transform="translate(128.344402 0.015625)" xlink:href="#DejaVuSans-40"/>
      <use transform="translate(167.358074 0.015625)" xlink:href="#DejaVuSans-50"/>
      <use transform="translate(230.981121 0.015625)" xlink:href="#DejaVuSans-Oblique-960"/>
      <use transform="translate(294.432944 0.015625)" xlink:href="#DejaVuSans-215"/>
      <use transform="translate(381.468752 0.015625)" xlink:href="#DejaVuSans-107"/>
      <use transform="translate(439.378909 0.015625)" xlink:href="#DejaVuSans-72"/>
      <use transform="translate(514.574221 0.015625)" xlink:href="#DejaVuSans-122"/>
      <use transform="translate(567.064456 0.015625)" xlink:href="#DejaVuSans-41"/>
     </g>
    </g>
   </g>
   <g id="line2d_41">
    <path clip-path="url(#p661cc4630b)" d="M 63.955537 210.594527 
L 103.140091 209.227571 
L 124.486457 208.289125 
L 134.773146 207.636197 
L 140.630018 207.057555 
L 144.405768 206.474744 
L 147.081496 205.847634 
L 149.103157 205.152552 
L 150.678864 204.385145 
L 151.986998 203.50812 
L 153.11675 202.483643 
L 154.09785 201.297453 
L 154.98976 199.873006 
L 155.822208 198.117432 
L 156.595197 195.958901 
L 157.338454 193.184893 
L 158.022252 189.729175 
L 158.646588 185.391506 
L 159.211464 179.834137 
L 159.687149 172.912039 
L 160.073643 164.017274 
L 160.370947 151.755877 
L 160.549328 136.105638 
L 160.638519 115.532235 
L 160.66825 94.072731 
L 160.72771 116.741899 
L 160.935823 148.077473 
L 161.262856 163.19681 
L 161.708811 173.48873 
L 162.243956 180.883437 
L 162.868293 186.56303 
L 163.55209 190.873519 
L 164.295348 194.220731 
L 165.098067 196.83938 
L 165.930515 198.828135 
L 166.822425 200.399507 
L 167.773795 201.635327 
L 168.814356 202.62753 
L 169.973838 203.429401 
L 171.341433 204.097945 
L 172.9766 204.63957 
L 174.998261 205.06572 
L 177.614529 205.379092 
L 181.092976 205.560899 
L 185.552523 205.56615 
L 189.417464 205.368531 
L 191.528316 205.060198 
L 192.717529 204.679896 
L 193.520247 204.195118 
L 194.114853 203.568144 
L 194.590538 202.730934 
L 195.006763 201.521742 
L 195.393257 199.626802 
L 195.750021 196.566669 
L 196.077054 191.456706 
L 196.344627 183.595379 
L 196.552739 171.259811 
L 196.701391 147.015879 
L 196.760851 107.449542 
L 196.790582 139.772058 
L 196.968963 172.31982 
L 197.266267 187.191019 
L 197.62303 194.791393 
L 198.009524 198.840228 
L 198.425749 201.139294 
L 198.901434 202.568446 
L 199.406849 203.417175 
L 200.001456 203.984693 
L 200.744713 204.37231 
L 201.755544 204.629008 
L 203.24206 204.755673 
L 205.293451 204.698482 
L 207.136731 204.444173 
L 208.355674 204.068515 
L 209.188123 203.584174 
L 209.782729 202.99215 
L 210.288144 202.167286 
L 210.734099 200.969375 
L 211.120593 199.25361 
L 211.477357 196.601141 
L 211.80439 192.407183 
L 212.101693 185.523512 
L 212.339536 174.851345 
L 212.517918 155.694124 
L 212.577378 137.506447 
L 212.607109 102.742792 
L 212.666569 145.527117 
L 212.874682 174.15465 
L 213.171985 186.974359 
L 213.528749 194.040628 
L 213.944973 198.179012 
L 214.390928 200.497573 
L 214.866613 201.85633 
L 215.401758 202.717371 
L 215.996365 203.255582 
L 216.709892 203.599366 
L 217.601802 203.771022 
L 218.523441 203.722681 
L 219.207239 203.481896 
L 219.712654 203.067148 
L 220.099148 202.443893 
L 220.426181 201.456401 
L 220.723485 199.73945 
L 220.991057 196.641052 
L 221.2289 190.834445 
L 221.437012 179.022357 
L 221.555933 161.407289 
L 221.615394 127.556474 
L 221.674855 154.512321 
L 221.882967 184.106457 
L 222.15054 194.469702 
L 222.477573 199.300243 
L 222.834337 201.496395 
L 223.220831 202.599982 
L 223.666786 203.232476 
L 224.231662 203.631993 
L 225.00465 203.887634 
L 226.283053 204.046567 
L 228.720939 204.088864 
L 234.51835 203.919502 
L 250.394338 203.188299 
L 272.602883 201.961307 
L 285.416649 201.056934 
L 292.284351 200.368611 
L 296.446595 199.743225 
L 299.241245 199.110985 
L 301.262906 198.435667 
L 302.808882 197.6929 
L 304.057556 196.849883 
L 305.098117 195.880557 
L 305.990026 194.750833 
L 306.792745 193.377406 
L 307.536002 191.654298 
L 308.2198 189.493417 
L 308.873867 186.638248 
L 309.468473 182.992936 
L 310.003619 178.304016 
L 310.479304 172.140048 
L 310.895528 163.574794 
L 311.192831 152.923255 
L 311.400943 137.896365 
L 311.519865 114.011866 
L 311.549595 93.714637 
L 311.609056 114.14419 
L 311.817168 145.897759 
L 312.144201 160.996585 
L 312.560426 170.594352 
L 313.065841 177.477127 
L 313.630717 182.288578 
L 314.195593 185.31803 
L 314.701008 186.944231 
L 315.117233 187.61704 
L 315.414536 187.728376 
L 315.652378 187.577437 
L 315.919951 187.119587 
L 316.246985 186.066093 
L 316.603748 184.115757 
L 316.990242 180.648986 
L 317.376736 174.8745 
L 317.70377 166.435881 
L 317.971343 153.015283 
L 318.119994 135.409198 
L 318.179455 116.246908 
L 318.209185 69.626711 
L 318.268646 126.655363 
L 318.476758 154.792439 
L 318.803792 169.161052 
L 319.220016 178.110538 
L 319.695701 183.947269 
L 320.230847 187.961617 
L 320.825453 190.777566 
L 321.44979 192.702522 
L 322.133587 194.11236 
L 322.876845 195.152383 
L 323.739024 195.972435 
L 324.749854 196.615791 
L 325.968797 197.120491 
L 327.544504 197.519423 
L 329.625626 197.804706 
L 332.539197 197.966394 
L 336.879823 197.966595 
L 343.777256 197.723071 
L 355.52073 197.062307 
L 361.25868 196.689396 
L 361.25868 196.689396 
" style="fill:none;stroke:#ff7f0e;stroke-dasharray:5.55,2.4;stroke-dashoffset:0;stroke-width:1.5;"/>
   </g>
   <g id="line2d_42">
    <path clip-path="url(#p661cc4630b)" d="M 63.849097 266.423692 
L 80.503718 265.501342 
L 94.831591 264.490476 
L 107.200096 263.400845 
L 118.099076 262.2222 
L 127.773452 260.955432 
L 136.345683 259.613334 
L 144.060691 258.184361 
L 151.040937 256.667165 
L 157.28642 255.086384 
L 162.919601 253.437778 
L 168.062939 251.705536 
L 172.716437 249.90847 
L 177.002552 248.014731 
L 180.798826 246.1009 
L 184.350179 244.060043 
L 187.534151 241.972708 
L 190.350741 239.870803 
L 192.922411 237.687158 
L 195.249159 235.435244 
L 197.453447 232.990854 
L 199.412814 230.488005 
L 201.249721 227.76884 
L 202.841707 225.022527 
L 204.311232 222.051188 
L 205.658297 218.818499 
L 206.882902 215.278342 
L 207.985046 211.371298 
L 208.96473 207.019614 
L 209.821953 202.120049 
L 210.556715 196.53428 
L 211.169018 190.078821 
L 211.658859 182.528433 
L 212.026241 173.70425 
L 212.271162 163.971408 
L 212.516083 141.909985 
L 212.638543 108.647838 
L 212.883464 158.653891 
L 213.250845 174.735111 
L 213.740687 185.299098 
L 214.352989 193.306735 
L 215.087752 199.796645 
L 215.944975 205.268533 
L 216.924659 210.005175 
L 218.026803 214.183471 
L 219.251407 217.921931 
L 220.598472 221.303996 
L 222.067998 224.390682 
L 223.659983 227.227944 
L 225.37443 229.851228 
L 227.333797 232.439493 
L 229.415625 234.826119 
L 231.742373 237.153744 
L 234.314042 239.402574 
L 237.130633 241.560446 
L 240.192144 243.620375 
L 243.498576 245.57881 
L 247.17239 247.494462 
L 251.213584 249.346088 
L 255.622161 251.118461 
L 260.520579 252.841293 
L 265.908838 254.492071 
L 271.78694 256.054559 
L 278.277344 257.543799 
L 285.38005 258.941864 
L 293.217519 260.255955 
L 301.91221 261.486638 
L 311.709046 262.643701 
L 322.730487 263.71492 
L 335.221453 264.698754 
L 349.426865 265.589721 
L 361.305528 266.191147 
L 361.305528 266.191147 
" style="fill:none;stroke:#1f77b4;stroke-linecap:square;stroke-width:1.5;"/>
   </g>
   <g id="patch_8">
    <path d="M 63.95625 272.52313 
L 63.95625 141.04487 
" style="fill:none;stroke:#000000;stroke-linecap:square;stroke-linejoin:miter;stroke-width:0.8;"/>
   </g>
   <g id="patch_9">
    <path d="M 361.25865 272.52313 
L 361.25865 141.04487 
" style="fill:none;stroke:#000000;stroke-linecap:square;stroke-linejoin:miter;stroke-width:0.8;"/>
   </g>
   <g id="patch_10">
    <path d="M 63.95625 272.52313 
L 361.25865 272.52313 
" style="fill:none;stroke:#000000;stroke-linecap:square;stroke-linejoin:miter;stroke-width:0.8;"/>
   </g>
   <g id="patch_11">
    <path d="M 63.95625 141.04487 
L 361.25865 141.04487 
" style="fill:none;stroke:#000000;stroke-linecap:square;stroke-linejoin:miter;stroke-width:0.8;"/>
   </g>
   <g id="legend_1">
    <g id="patch_12">
     <path d="M 73.67225 192.895345 
L 143.90505 192.895345 
Q 146.68105 192.895345 146.68105 190.119345 
L 146.68105 150.76087 
Q 146.68105 147.98487 143.90505 147.98487 
L 73.67225 147.98487 
Q 70.89625 147.98487 70.89625 150.76087 
L 70.89625 190.119345 
Q 70.89625 192.895345 73.67225 192.895345 
z
" style="fill:#ffffff;opacity:0.8;stroke:#cccccc;stroke-linejoin:miter;"/>
    </g>
    <g id="line2d_43">
     <path d="M 76.44825 159.225501 
L 90.32825 159.225501 
" style="fill:none;stroke:#ff7f0e;stroke-dasharray:5.55,2.4;stroke-dashoffset:0;stroke-width:1.5;"/>
    </g>
    <g id="line2d_44"/>
    <g id="text_8">
     <!-- $v'=40$ -->
     <g transform="translate(94.49225 164.083501)scale(0.1388 -0.1388)">
      <defs>
       <path d="M 7.171875 54.6875 
L 16.703125 54.6875 
L 24.703125 8.203125 
L 50.875 54.6875 
L 60.40625 54.6875 
L 29.296875 0 
L 17.1875 0 
z
" id="DejaVuSans-Oblique-118"/>
       <path d="M 3.515625 5.421875 
Q 2.875 5.609375 2.875 6.390625 
L 15.09375 51.8125 
Q 15.671875 53.65625 17.078125 54.78125 
Q 18.5 55.90625 20.3125 55.90625 
Q 22.65625 55.90625 24.4375 54.359375 
Q 26.21875 52.828125 26.21875 50.484375 
Q 26.21875 49.46875 25.6875 48.1875 
L 7.625 4.984375 
Q 7.28125 4.296875 6.6875 4.296875 
Q 6.15625 4.296875 5 4.78125 
Q 3.859375 5.28125 3.515625 5.421875 
z
" id="Cmsy10-48"/>
       <path d="M 10.59375 45.40625 
L 73.1875 45.40625 
L 73.1875 37.203125 
L 10.59375 37.203125 
z
M 10.59375 25.484375 
L 73.1875 25.484375 
L 73.1875 17.1875 
L 10.59375 17.1875 
z
" id="DejaVuSans-61"/>
      </defs>
      <use transform="translate(0 0.584375)" xlink:href="#DejaVuSans-Oblique-118"/>
      <use transform="translate(63.645833 38.865625)scale(0.7)" xlink:href="#Cmsy10-48"/>
      <use transform="translate(105.105794 0.584375)" xlink:href="#DejaVuSans-61"/>
      <use transform="translate(208.377279 0.584375)" xlink:href="#DejaVuSans-52"/>
      <use transform="translate(272.000326 0.584375)" xlink:href="#DejaVuSans-48"/>
     </g>
    </g>
    <g id="line2d_45">
     <path d="M 76.44825 179.598738 
L 90.32825 179.598738 
" style="fill:none;stroke:#1f77b4;stroke-linecap:square;stroke-width:1.5;"/>
    </g>
    <g id="line2d_46"/>
    <g id="text_9">
     <!-- $v'=0$ -->
     <g transform="translate(94.49225 184.456738)scale(0.1388 -0.1388)">
      <use transform="translate(0 0.584375)" xlink:href="#DejaVuSans-Oblique-118"/>
      <use transform="translate(63.645833 38.865625)scale(0.7)" xlink:href="#Cmsy10-48"/>
      <use transform="translate(105.105794 0.584375)" xlink:href="#DejaVuSans-61"/>
      <use transform="translate(208.377279 0.584375)" xlink:href="#DejaVuSans-48"/>
     </g>
    </g>
   </g>
  </g>
  <g id="axes_3">
   <g id="patch_13">
    <path d="M 63.95625 406.368 
L 361.25865 406.368 
L 361.25865 274.889739 
L 63.95625 274.889739 
z
" style="fill:none;"/>
   </g>
   <g id="matplotlib.axis_5">
    <g id="xtick_15">
     <g id="line2d_47">
      <path clip-path="url(#pd4f4260d81)" d="M 63.95625 406.368 
L 63.95625 274.889739 
" style="fill:none;stroke:#b0b0b0;stroke-linecap:square;stroke-width:0.8;"/>
     </g>
     <g id="line2d_48">
      <defs>
       <path d="M 0 0 
L 0 3.5 
" id="m005f0a59be" style="stroke:#000000;stroke-width:0.8;"/>
      </defs>
      <g>
       <use style="stroke:#000000;stroke-width:0.8;" x="63.95625" xlink:href="#m005f0a59be" y="406.368"/>
      </g>
     </g>
     <g id="text_10">
      <!-- −300 -->
      <g transform="translate(43.355859 424.765656)scale(0.15 -0.15)">
       <defs>
        <path d="M 10.59375 35.5 
L 73.1875 35.5 
L 73.1875 27.203125 
L 10.59375 27.203125 
z
" id="DejaVuSans-8722"/>
       </defs>
       <use xlink:href="#DejaVuSans-8722"/>
       <use x="83.789062" xlink:href="#DejaVuSans-51"/>
       <use x="147.412109" xlink:href="#DejaVuSans-48"/>
       <use x="211.035156" xlink:href="#DejaVuSans-48"/>
      </g>
     </g>
    </g>
    <g id="xtick_16">
     <g id="line2d_49">
      <path clip-path="url(#pd4f4260d81)" d="M 113.50665 406.368 
L 113.50665 274.889739 
" style="fill:none;stroke:#b0b0b0;stroke-linecap:square;stroke-width:0.8;"/>
     </g>
     <g id="line2d_50">
      <g>
       <use style="stroke:#000000;stroke-width:0.8;" x="113.50665" xlink:href="#m005f0a59be" y="406.368"/>
      </g>
     </g>
     <g id="text_11">
      <!-- −200 -->
      <g transform="translate(92.906259 424.765656)scale(0.15 -0.15)">
       <use xlink:href="#DejaVuSans-8722"/>
       <use x="83.789062" xlink:href="#DejaVuSans-50"/>
       <use x="147.412109" xlink:href="#DejaVuSans-48"/>
       <use x="211.035156" xlink:href="#DejaVuSans-48"/>
      </g>
     </g>
    </g>
    <g id="xtick_17">
     <g id="line2d_51">
      <path clip-path="url(#pd4f4260d81)" d="M 163.05705 406.368 
L 163.05705 274.889739 
" style="fill:none;stroke:#b0b0b0;stroke-linecap:square;stroke-width:0.8;"/>
     </g>
     <g id="line2d_52">
      <g>
       <use style="stroke:#000000;stroke-width:0.8;" x="163.05705" xlink:href="#m005f0a59be" y="406.368"/>
      </g>
     </g>
     <g id="text_12">
      <!-- −100 -->
      <g transform="translate(142.456659 424.765656)scale(0.15 -0.15)">
       <use xlink:href="#DejaVuSans-8722"/>
       <use x="83.789062" xlink:href="#DejaVuSans-49"/>
       <use x="147.412109" xlink:href="#DejaVuSans-48"/>
       <use x="211.035156" xlink:href="#DejaVuSans-48"/>
      </g>
     </g>
    </g>
    <g id="xtick_18">
     <g id="line2d_53">
      <path clip-path="url(#pd4f4260d81)" d="M 212.60745 406.368 
L 212.60745 274.889739 
" style="fill:none;stroke:#b0b0b0;stroke-linecap:square;stroke-width:0.8;"/>
     </g>
     <g id="line2d_54">
      <g>
       <use style="stroke:#000000;stroke-width:0.8;" x="212.60745" xlink:href="#m005f0a59be" y="406.368"/>
      </g>
     </g>
     <g id="text_13">
      <!-- 0 -->
      <g transform="translate(207.835575 424.765656)scale(0.15 -0.15)">
       <use xlink:href="#DejaVuSans-48"/>
      </g>
     </g>
    </g>
    <g id="xtick_19">
     <g id="line2d_55">
      <path clip-path="url(#pd4f4260d81)" d="M 262.15785 406.368 
L 262.15785 274.889739 
" style="fill:none;stroke:#b0b0b0;stroke-linecap:square;stroke-width:0.8;"/>
     </g>
     <g id="line2d_56">
      <g>
       <use style="stroke:#000000;stroke-width:0.8;" x="262.15785" xlink:href="#m005f0a59be" y="406.368"/>
      </g>
     </g>
     <g id="text_14">
      <!-- 100 -->
      <g transform="translate(247.842225 424.765656)scale(0.15 -0.15)">
       <use xlink:href="#DejaVuSans-49"/>
       <use x="63.623047" xlink:href="#DejaVuSans-48"/>
       <use x="127.246094" xlink:href="#DejaVuSans-48"/>
      </g>
     </g>
    </g>
    <g id="xtick_20">
     <g id="line2d_57">
      <path clip-path="url(#pd4f4260d81)" d="M 311.70825 406.368 
L 311.70825 274.889739 
" style="fill:none;stroke:#b0b0b0;stroke-linecap:square;stroke-width:0.8;"/>
     </g>
     <g id="line2d_58">
      <g>
       <use style="stroke:#000000;stroke-width:0.8;" x="311.70825" xlink:href="#m005f0a59be" y="406.368"/>
      </g>
     </g>
     <g id="text_15">
      <!-- 200 -->
      <g transform="translate(297.392625 424.765656)scale(0.15 -0.15)">
       <use xlink:href="#DejaVuSans-50"/>
       <use x="63.623047" xlink:href="#DejaVuSans-48"/>
       <use x="127.246094" xlink:href="#DejaVuSans-48"/>
      </g>
     </g>
    </g>
    <g id="xtick_21">
     <g id="line2d_59">
      <path clip-path="url(#pd4f4260d81)" d="M 361.25865 406.368 
L 361.25865 274.889739 
" style="fill:none;stroke:#b0b0b0;stroke-linecap:square;stroke-width:0.8;"/>
     </g>
     <g id="line2d_60">
      <g>
       <use style="stroke:#000000;stroke-width:0.8;" x="361.25865" xlink:href="#m005f0a59be" y="406.368"/>
      </g>
     </g>
     <g id="text_16">
      <!-- 300 -->
      <g transform="translate(346.943025 424.765656)scale(0.15 -0.15)">
       <use xlink:href="#DejaVuSans-51"/>
       <use x="63.623047" xlink:href="#DejaVuSans-48"/>
       <use x="127.246094" xlink:href="#DejaVuSans-48"/>
      </g>
     </g>
    </g>
    <g id="text_17">
     <!-- One-Photon Detuning (GHz) -->
     <g transform="translate(73.185575 447.082062)scale(0.2 -0.2)">
      <defs>
       <path d="M 39.40625 66.21875 
Q 28.65625 66.21875 22.328125 58.203125 
Q 16.015625 50.203125 16.015625 36.375 
Q 16.015625 22.609375 22.328125 14.59375 
Q 28.65625 6.59375 39.40625 6.59375 
Q 50.140625 6.59375 56.421875 14.59375 
Q 62.703125 22.609375 62.703125 36.375 
Q 62.703125 50.203125 56.421875 58.203125 
Q 50.140625 66.21875 39.40625 66.21875 
z
M 39.40625 74.21875 
Q 54.734375 74.21875 63.90625 63.9375 
Q 73.09375 53.65625 73.09375 36.375 
Q 73.09375 19.140625 63.90625 8.859375 
Q 54.734375 -1.421875 39.40625 -1.421875 
Q 24.03125 -1.421875 14.8125 8.828125 
Q 5.609375 19.09375 5.609375 36.375 
Q 5.609375 53.65625 14.8125 63.9375 
Q 24.03125 74.21875 39.40625 74.21875 
z
" id="DejaVuSans-79"/>
       <path d="M 54.890625 33.015625 
L 54.890625 0 
L 45.90625 0 
L 45.90625 32.71875 
Q 45.90625 40.484375 42.875 44.328125 
Q 39.84375 48.1875 33.796875 48.1875 
Q 26.515625 48.1875 22.3125 43.546875 
Q 18.109375 38.921875 18.109375 30.90625 
L 18.109375 0 
L 9.078125 0 
L 9.078125 54.6875 
L 18.109375 54.6875 
L 18.109375 46.1875 
Q 21.34375 51.125 25.703125 53.5625 
Q 30.078125 56 35.796875 56 
Q 45.21875 56 50.046875 50.171875 
Q 54.890625 44.34375 54.890625 33.015625 
z
" id="DejaVuSans-110"/>
       <path d="M 56.203125 29.59375 
L 56.203125 25.203125 
L 14.890625 25.203125 
Q 15.484375 15.921875 20.484375 11.0625 
Q 25.484375 6.203125 34.421875 6.203125 
Q 39.59375 6.203125 44.453125 7.46875 
Q 49.3125 8.734375 54.109375 11.28125 
L 54.109375 2.78125 
Q 49.265625 0.734375 44.1875 -0.34375 
Q 39.109375 -1.421875 33.890625 -1.421875 
Q 20.796875 -1.421875 13.15625 6.1875 
Q 5.515625 13.8125 5.515625 26.8125 
Q 5.515625 40.234375 12.765625 48.109375 
Q 20.015625 56 32.328125 56 
Q 43.359375 56 49.78125 48.890625 
Q 56.203125 41.796875 56.203125 29.59375 
z
M 47.21875 32.234375 
Q 47.125 39.59375 43.09375 43.984375 
Q 39.0625 48.390625 32.421875 48.390625 
Q 24.90625 48.390625 20.390625 44.140625 
Q 15.875 39.890625 15.1875 32.171875 
z
" id="DejaVuSans-101"/>
       <path d="M 4.890625 31.390625 
L 31.203125 31.390625 
L 31.203125 23.390625 
L 4.890625 23.390625 
z
" id="DejaVuSans-45"/>
       <path d="M 19.671875 64.796875 
L 19.671875 37.40625 
L 32.078125 37.40625 
Q 38.96875 37.40625 42.71875 40.96875 
Q 46.484375 44.53125 46.484375 51.125 
Q 46.484375 57.671875 42.71875 61.234375 
Q 38.96875 64.796875 32.078125 64.796875 
z
M 9.8125 72.90625 
L 32.078125 72.90625 
Q 44.34375 72.90625 50.609375 67.359375 
Q 56.890625 61.8125 56.890625 51.125 
Q 56.890625 40.328125 50.609375 34.8125 
Q 44.34375 29.296875 32.078125 29.296875 
L 19.671875 29.296875 
L 19.671875 0 
L 9.8125 0 
z
" id="DejaVuSans-80"/>
       <path d="M 54.890625 33.015625 
L 54.890625 0 
L 45.90625 0 
L 45.90625 32.71875 
Q 45.90625 40.484375 42.875 44.328125 
Q 39.84375 48.1875 33.796875 48.1875 
Q 26.515625 48.1875 22.3125 43.546875 
Q 18.109375 38.921875 18.109375 30.90625 
L 18.109375 0 
L 9.078125 0 
L 9.078125 75.984375 
L 18.109375 75.984375 
L 18.109375 46.1875 
Q 21.34375 51.125 25.703125 53.5625 
Q 30.078125 56 35.796875 56 
Q 45.21875 56 50.046875 50.171875 
Q 54.890625 44.34375 54.890625 33.015625 
z
" id="DejaVuSans-104"/>
       <path d="M 30.609375 48.390625 
Q 23.390625 48.390625 19.1875 42.75 
Q 14.984375 37.109375 14.984375 27.296875 
Q 14.984375 17.484375 19.15625 11.84375 
Q 23.34375 6.203125 30.609375 6.203125 
Q 37.796875 6.203125 41.984375 11.859375 
Q 46.1875 17.53125 46.1875 27.296875 
Q 46.1875 37.015625 41.984375 42.703125 
Q 37.796875 48.390625 30.609375 48.390625 
z
M 30.609375 56 
Q 42.328125 56 49.015625 48.375 
Q 55.71875 40.765625 55.71875 27.296875 
Q 55.71875 13.875 49.015625 6.21875 
Q 42.328125 -1.421875 30.609375 -1.421875 
Q 18.84375 -1.421875 12.171875 6.21875 
Q 5.515625 13.875 5.515625 27.296875 
Q 5.515625 40.765625 12.171875 48.375 
Q 18.84375 56 30.609375 56 
z
" id="DejaVuSans-111"/>
       <path d="M 18.3125 70.21875 
L 18.3125 54.6875 
L 36.8125 54.6875 
L 36.8125 47.703125 
L 18.3125 47.703125 
L 18.3125 18.015625 
Q 18.3125 11.328125 20.140625 9.421875 
Q 21.96875 7.515625 27.59375 7.515625 
L 36.8125 7.515625 
L 36.8125 0 
L 27.59375 0 
Q 17.1875 0 13.234375 3.875 
Q 9.28125 7.765625 9.28125 18.015625 
L 9.28125 47.703125 
L 2.6875 47.703125 
L 2.6875 54.6875 
L 9.28125 54.6875 
L 9.28125 70.21875 
z
" id="DejaVuSans-116"/>
       <path id="DejaVuSans-32"/>
       <path d="M 19.671875 64.796875 
L 19.671875 8.109375 
L 31.59375 8.109375 
Q 46.6875 8.109375 53.6875 14.9375 
Q 60.6875 21.78125 60.6875 36.53125 
Q 60.6875 51.171875 53.6875 57.984375 
Q 46.6875 64.796875 31.59375 64.796875 
z
M 9.8125 72.90625 
L 30.078125 72.90625 
Q 51.265625 72.90625 61.171875 64.09375 
Q 71.09375 55.28125 71.09375 36.53125 
Q 71.09375 17.671875 61.125 8.828125 
Q 51.171875 0 30.078125 0 
L 9.8125 0 
z
" id="DejaVuSans-68"/>
       <path d="M 8.5 21.578125 
L 8.5 54.6875 
L 17.484375 54.6875 
L 17.484375 21.921875 
Q 17.484375 14.15625 20.5 10.265625 
Q 23.53125 6.390625 29.59375 6.390625 
Q 36.859375 6.390625 41.078125 11.03125 
Q 45.3125 15.671875 45.3125 23.6875 
L 45.3125 54.6875 
L 54.296875 54.6875 
L 54.296875 0 
L 45.3125 0 
L 45.3125 8.40625 
Q 42.046875 3.421875 37.71875 1 
Q 33.40625 -1.421875 27.6875 -1.421875 
Q 18.265625 -1.421875 13.375 4.4375 
Q 8.5 10.296875 8.5 21.578125 
z
M 31.109375 56 
z
" id="DejaVuSans-117"/>
       <path d="M 9.421875 54.6875 
L 18.40625 54.6875 
L 18.40625 0 
L 9.421875 0 
z
M 9.421875 75.984375 
L 18.40625 75.984375 
L 18.40625 64.59375 
L 9.421875 64.59375 
z
" id="DejaVuSans-105"/>
       <path d="M 45.40625 27.984375 
Q 45.40625 37.75 41.375 43.109375 
Q 37.359375 48.484375 30.078125 48.484375 
Q 22.859375 48.484375 18.828125 43.109375 
Q 14.796875 37.75 14.796875 27.984375 
Q 14.796875 18.265625 18.828125 12.890625 
Q 22.859375 7.515625 30.078125 7.515625 
Q 37.359375 7.515625 41.375 12.890625 
Q 45.40625 18.265625 45.40625 27.984375 
z
M 54.390625 6.78125 
Q 54.390625 -7.171875 48.1875 -13.984375 
Q 42 -20.796875 29.203125 -20.796875 
Q 24.46875 -20.796875 20.265625 -20.09375 
Q 16.0625 -19.390625 12.109375 -17.921875 
L 12.109375 -9.1875 
Q 16.0625 -11.328125 19.921875 -12.34375 
Q 23.78125 -13.375 27.78125 -13.375 
Q 36.625 -13.375 41.015625 -8.765625 
Q 45.40625 -4.15625 45.40625 5.171875 
L 45.40625 9.625 
Q 42.625 4.78125 38.28125 2.390625 
Q 33.9375 0 27.875 0 
Q 17.828125 0 11.671875 7.65625 
Q 5.515625 15.328125 5.515625 27.984375 
Q 5.515625 40.671875 11.671875 48.328125 
Q 17.828125 56 27.875 56 
Q 33.9375 56 38.28125 53.609375 
Q 42.625 51.21875 45.40625 46.390625 
L 45.40625 54.6875 
L 54.390625 54.6875 
z
" id="DejaVuSans-103"/>
       <path d="M 59.515625 10.40625 
L 59.515625 29.984375 
L 43.40625 29.984375 
L 43.40625 38.09375 
L 69.28125 38.09375 
L 69.28125 6.78125 
Q 63.578125 2.734375 56.6875 0.65625 
Q 49.8125 -1.421875 42 -1.421875 
Q 24.90625 -1.421875 15.25 8.5625 
Q 5.609375 18.5625 5.609375 36.375 
Q 5.609375 54.25 15.25 64.234375 
Q 24.90625 74.21875 42 74.21875 
Q 49.125 74.21875 55.546875 72.453125 
Q 61.96875 70.703125 67.390625 67.28125 
L 67.390625 56.78125 
Q 61.921875 61.421875 55.765625 63.765625 
Q 49.609375 66.109375 42.828125 66.109375 
Q 29.4375 66.109375 22.71875 58.640625 
Q 16.015625 51.171875 16.015625 36.375 
Q 16.015625 21.625 22.71875 14.15625 
Q 29.4375 6.6875 42.828125 6.6875 
Q 48.046875 6.6875 52.140625 7.59375 
Q 56.25 8.5 59.515625 10.40625 
z
" id="DejaVuSans-71"/>
      </defs>
      <use xlink:href="#DejaVuSans-79"/>
      <use x="78.710938" xlink:href="#DejaVuSans-110"/>
      <use x="142.089844" xlink:href="#DejaVuSans-101"/>
      <use x="203.613281" xlink:href="#DejaVuSans-45"/>
      <use x="239.697266" xlink:href="#DejaVuSans-80"/>
      <use x="300" xlink:href="#DejaVuSans-104"/>
      <use x="363.378906" xlink:href="#DejaVuSans-111"/>
      <use x="424.560547" xlink:href="#DejaVuSans-116"/>
      <use x="463.769531" xlink:href="#DejaVuSans-111"/>
      <use x="524.951172" xlink:href="#DejaVuSans-110"/>
      <use x="588.330078" xlink:href="#DejaVuSans-32"/>
      <use x="620.117188" xlink:href="#DejaVuSans-68"/>
      <use x="697.119141" xlink:href="#DejaVuSans-101"/>
      <use x="758.642578" xlink:href="#DejaVuSans-116"/>
      <use x="797.851562" xlink:href="#DejaVuSans-117"/>
      <use x="861.230469" xlink:href="#DejaVuSans-110"/>
      <use x="924.609375" xlink:href="#DejaVuSans-105"/>
      <use x="952.392578" xlink:href="#DejaVuSans-110"/>
      <use x="1015.771484" xlink:href="#DejaVuSans-103"/>
      <use x="1079.248047" xlink:href="#DejaVuSans-32"/>
      <use x="1111.035156" xlink:href="#DejaVuSans-40"/>
      <use x="1150.048828" xlink:href="#DejaVuSans-71"/>
      <use x="1227.539062" xlink:href="#DejaVuSans-72"/>
      <use x="1302.734375" xlink:href="#DejaVuSans-122"/>
      <use x="1355.224609" xlink:href="#DejaVuSans-41"/>
     </g>
    </g>
   </g>
   <g id="matplotlib.axis_6">
    <g id="ytick_6">
     <g id="line2d_61">
      <path clip-path="url(#pd4f4260d81)" d="M 63.95625 381.212234 
L 361.25865 381.212234 
" style="fill:none;stroke:#b0b0b0;stroke-linecap:square;stroke-width:0.8;"/>
     </g>
     <g id="line2d_62">
      <g>
       <use style="stroke:#000000;stroke-width:0.8;" x="63.95625" xlink:href="#mc3ce260a5b" y="381.212234"/>
      </g>
     </g>
     <g id="text_18">
      <!-- 0.1 -->
      <g transform="translate(33.101562 386.911062)scale(0.15 -0.15)">
       <defs>
        <path d="M 10.6875 12.40625 
L 21 12.40625 
L 21 0 
L 10.6875 0 
z
" id="DejaVuSans-46"/>
       </defs>
       <use xlink:href="#DejaVuSans-48"/>
       <use x="63.623047" xlink:href="#DejaVuSans-46"/>
       <use x="95.410156" xlink:href="#DejaVuSans-49"/>
      </g>
     </g>
    </g>
    <g id="ytick_7">
     <g id="line2d_63">
      <path clip-path="url(#pd4f4260d81)" d="M 63.95625 345.222468 
L 361.25865 345.222468 
" style="fill:none;stroke:#b0b0b0;stroke-linecap:square;stroke-width:0.8;"/>
     </g>
     <g id="line2d_64">
      <g>
       <use style="stroke:#000000;stroke-width:0.8;" x="63.95625" xlink:href="#mc3ce260a5b" y="345.222468"/>
      </g>
     </g>
     <g id="text_19">
      <!-- 1 -->
      <g transform="translate(47.4125 350.921296)scale(0.15 -0.15)">
       <use xlink:href="#DejaVuSans-49"/>
      </g>
     </g>
    </g>
    <g id="ytick_8">
     <g id="line2d_65">
      <path clip-path="url(#pd4f4260d81)" d="M 63.95625 309.232703 
L 361.25865 309.232703 
" style="fill:none;stroke:#b0b0b0;stroke-linecap:square;stroke-width:0.8;"/>
     </g>
     <g id="line2d_66">
      <g>
       <use style="stroke:#000000;stroke-width:0.8;" x="63.95625" xlink:href="#mc3ce260a5b" y="309.232703"/>
      </g>
     </g>
     <g id="text_20">
      <!-- 10 -->
      <g transform="translate(37.86875 314.931531)scale(0.15 -0.15)">
       <use xlink:href="#DejaVuSans-49"/>
       <use x="63.623047" xlink:href="#DejaVuSans-48"/>
      </g>
     </g>
    </g>
    <g id="ytick_9">
     <g id="line2d_67">
      <defs>
       <path d="M 0 0 
L -2 0 
" id="md0f4fded07" style="stroke:#000000;stroke-width:0.6;"/>
      </defs>
      <g>
       <use style="stroke:#000000;stroke-width:0.6;" x="63.95625" xlink:href="#md0f4fded07" y="406.368"/>
      </g>
     </g>
    </g>
    <g id="ytick_10">
     <g id="line2d_68">
      <g>
       <use style="stroke:#000000;stroke-width:0.6;" x="63.95625" xlink:href="#md0f4fded07" y="400.030517"/>
      </g>
     </g>
    </g>
    <g id="ytick_11">
     <g id="line2d_69">
      <g>
       <use style="stroke:#000000;stroke-width:0.6;" x="63.95625" xlink:href="#md0f4fded07" y="395.534001"/>
      </g>
     </g>
    </g>
    <g id="ytick_12">
     <g id="line2d_70">
      <g>
       <use style="stroke:#000000;stroke-width:0.6;" x="63.95625" xlink:href="#md0f4fded07" y="392.046232"/>
      </g>
     </g>
    </g>
    <g id="ytick_13">
     <g id="line2d_71">
      <g>
       <use style="stroke:#000000;stroke-width:0.6;" x="63.95625" xlink:href="#md0f4fded07" y="389.196518"/>
      </g>
     </g>
    </g>
    <g id="ytick_14">
     <g id="line2d_72">
      <g>
       <use style="stroke:#000000;stroke-width:0.6;" x="63.95625" xlink:href="#md0f4fded07" y="386.787119"/>
      </g>
     </g>
    </g>
    <g id="ytick_15">
     <g id="line2d_73">
      <g>
       <use style="stroke:#000000;stroke-width:0.6;" x="63.95625" xlink:href="#md0f4fded07" y="384.700002"/>
      </g>
     </g>
    </g>
    <g id="ytick_16">
     <g id="line2d_74">
      <g>
       <use style="stroke:#000000;stroke-width:0.6;" x="63.95625" xlink:href="#md0f4fded07" y="382.859035"/>
      </g>
     </g>
    </g>
    <g id="ytick_17">
     <g id="line2d_75">
      <g>
       <use style="stroke:#000000;stroke-width:0.6;" x="63.95625" xlink:href="#md0f4fded07" y="370.378235"/>
      </g>
     </g>
    </g>
    <g id="ytick_18">
     <g id="line2d_76">
      <g>
       <use style="stroke:#000000;stroke-width:0.6;" x="63.95625" xlink:href="#md0f4fded07" y="364.040752"/>
      </g>
     </g>
    </g>
    <g id="ytick_19">
     <g id="line2d_77">
      <g>
       <use style="stroke:#000000;stroke-width:0.6;" x="63.95625" xlink:href="#md0f4fded07" y="359.544236"/>
      </g>
     </g>
    </g>
    <g id="ytick_20">
     <g id="line2d_78">
      <g>
       <use style="stroke:#000000;stroke-width:0.6;" x="63.95625" xlink:href="#md0f4fded07" y="356.056467"/>
      </g>
     </g>
    </g>
    <g id="ytick_21">
     <g id="line2d_79">
      <g>
       <use style="stroke:#000000;stroke-width:0.6;" x="63.95625" xlink:href="#md0f4fded07" y="353.206753"/>
      </g>
     </g>
    </g>
    <g id="ytick_22">
     <g id="line2d_80">
      <g>
       <use style="stroke:#000000;stroke-width:0.6;" x="63.95625" xlink:href="#md0f4fded07" y="350.797354"/>
      </g>
     </g>
    </g>
    <g id="ytick_23">
     <g id="line2d_81">
      <g>
       <use style="stroke:#000000;stroke-width:0.6;" x="63.95625" xlink:href="#md0f4fded07" y="348.710237"/>
      </g>
     </g>
    </g>
    <g id="ytick_24">
     <g id="line2d_82">
      <g>
       <use style="stroke:#000000;stroke-width:0.6;" x="63.95625" xlink:href="#md0f4fded07" y="346.86927"/>
      </g>
     </g>
    </g>
    <g id="ytick_25">
     <g id="line2d_83">
      <g>
       <use style="stroke:#000000;stroke-width:0.6;" x="63.95625" xlink:href="#md0f4fded07" y="334.388469"/>
      </g>
     </g>
    </g>
    <g id="ytick_26">
     <g id="line2d_84">
      <g>
       <use style="stroke:#000000;stroke-width:0.6;" x="63.95625" xlink:href="#md0f4fded07" y="328.050986"/>
      </g>
     </g>
    </g>
    <g id="ytick_27">
     <g id="line2d_85">
      <g>
       <use style="stroke:#000000;stroke-width:0.6;" x="63.95625" xlink:href="#md0f4fded07" y="323.554471"/>
      </g>
     </g>
    </g>
    <g id="ytick_28">
     <g id="line2d_86">
      <g>
       <use style="stroke:#000000;stroke-width:0.6;" x="63.95625" xlink:href="#md0f4fded07" y="320.066702"/>
      </g>
     </g>
    </g>
    <g id="ytick_29">
     <g id="line2d_87">
      <g>
       <use style="stroke:#000000;stroke-width:0.6;" x="63.95625" xlink:href="#md0f4fded07" y="317.216987"/>
      </g>
     </g>
    </g>
    <g id="ytick_30">
     <g id="line2d_88">
      <g>
       <use style="stroke:#000000;stroke-width:0.6;" x="63.95625" xlink:href="#md0f4fded07" y="314.807588"/>
      </g>
     </g>
    </g>
    <g id="ytick_31">
     <g id="line2d_89">
      <g>
       <use style="stroke:#000000;stroke-width:0.6;" x="63.95625" xlink:href="#md0f4fded07" y="312.720472"/>
      </g>
     </g>
    </g>
    <g id="ytick_32">
     <g id="line2d_90">
      <g>
       <use style="stroke:#000000;stroke-width:0.6;" x="63.95625" xlink:href="#md0f4fded07" y="310.879504"/>
      </g>
     </g>
    </g>
    <g id="ytick_33">
     <g id="line2d_91">
      <g>
       <use style="stroke:#000000;stroke-width:0.6;" x="63.95625" xlink:href="#md0f4fded07" y="298.398704"/>
      </g>
     </g>
    </g>
    <g id="ytick_34">
     <g id="line2d_92">
      <g>
       <use style="stroke:#000000;stroke-width:0.6;" x="63.95625" xlink:href="#md0f4fded07" y="292.061221"/>
      </g>
     </g>
    </g>
    <g id="ytick_35">
     <g id="line2d_93">
      <g>
       <use style="stroke:#000000;stroke-width:0.6;" x="63.95625" xlink:href="#md0f4fded07" y="287.564705"/>
      </g>
     </g>
    </g>
    <g id="ytick_36">
     <g id="line2d_94">
      <g>
       <use style="stroke:#000000;stroke-width:0.6;" x="63.95625" xlink:href="#md0f4fded07" y="284.076937"/>
      </g>
     </g>
    </g>
    <g id="ytick_37">
     <g id="line2d_95">
      <g>
       <use style="stroke:#000000;stroke-width:0.6;" x="63.95625" xlink:href="#md0f4fded07" y="281.227222"/>
      </g>
     </g>
    </g>
    <g id="ytick_38">
     <g id="line2d_96">
      <g>
       <use style="stroke:#000000;stroke-width:0.6;" x="63.95625" xlink:href="#md0f4fded07" y="278.817823"/>
      </g>
     </g>
    </g>
    <g id="ytick_39">
     <g id="line2d_97">
      <g>
       <use style="stroke:#000000;stroke-width:0.6;" x="63.95625" xlink:href="#md0f4fded07" y="276.730706"/>
      </g>
     </g>
    </g>
    <g id="ytick_40">
     <g id="line2d_98">
      <g>
       <use style="stroke:#000000;stroke-width:0.6;" x="63.95625" xlink:href="#md0f4fded07" y="274.889739"/>
      </g>
     </g>
    </g>
    <g id="text_21">
     <!-- $\Omega_{R}/\Gamma_{s}$ -->
     <g transform="translate(24.942187 366.52887)rotate(-90)scale(0.2 -0.2)">
      <defs>
       <path d="M 25.390625 72.90625 
L 33.6875 72.90625 
L 8.296875 -9.28125 
L 0 -9.28125 
z
" id="DejaVuSans-47"/>
      </defs>
      <use transform="translate(0 0.21875)" xlink:href="#DejaVuSans-937"/>
      <use transform="translate(77.373047 -16.1875)scale(0.7)" xlink:href="#DejaVuSans-Oblique-82"/>
      <use transform="translate(128.745117 0.21875)" xlink:href="#DejaVuSans-47"/>
      <use transform="translate(162.436523 0.21875)" xlink:href="#DejaVuSans-915"/>
      <use transform="translate(219.106445 -16.1875)scale(0.7)" xlink:href="#DejaVuSans-Oblique-115"/>
     </g>
    </g>
   </g>
   <g id="line2d_99">
    <path clip-path="url(#pd4f4260d81)" d="M 63.849097 291.227804 
L 81.238481 290.858503 
L 95.811274 290.764733 
L 108.30224 290.90106 
L 119.20122 291.23842 
L 128.753135 291.751564 
L 137.325367 292.432128 
L 144.917915 293.252334 
L 151.7757 294.210149 
L 158.021183 295.30213 
L 163.654363 296.506336 
L 168.797702 297.827296 
L 173.451199 299.244677 
L 177.737315 300.778895 
L 181.656049 302.418042 
L 185.207402 304.145654 
L 188.391374 305.939215 
L 191.330425 307.853749 
L 193.902094 309.787976 
L 196.228843 311.804847 
L 198.31067 313.886506 
L 200.270038 316.158288 
L 201.984484 318.475385 
L 203.57647 320.998355 
L 205.045995 323.764642 
L 206.2706 326.520493 
L 207.372744 329.502677 
L 208.352427 332.736921 
L 209.20965 336.246736 
L 210.066874 340.7776 
L 210.801636 346.087178 
L 211.413938 352.506604 
L 211.90378 360.646959 
L 212.271162 371.865592 
L 212.516083 390.656187 
L 212.638543 418.982882 
L 212.883464 376.403919 
L 213.250845 362.716143 
L 213.740687 353.728996 
L 214.352989 346.921347 
L 215.087752 341.409041 
L 215.944975 336.766902 
L 216.924659 332.754541 
L 218.026803 329.221785 
L 219.251407 326.068242 
L 220.598472 323.22344 
L 222.067998 320.636057 
L 223.659983 318.26765 
L 225.49689 315.945221 
L 227.456257 313.82901 
L 229.660545 311.784561 
L 232.109754 309.832852 
L 234.803884 307.986992 
L 237.742935 306.254969 
L 240.926907 304.641528 
L 244.47826 303.100189 
L 248.274534 301.696144 
L 252.438189 300.392191 
L 257.091686 299.174584 
L 262.112564 298.094913 
L 267.623285 297.141316 
L 273.623847 296.331633 
L 280.236711 295.668696 
L 287.461877 295.172533 
L 295.421807 294.854122 
L 304.116499 294.731778 
L 313.790874 294.822824 
L 324.444933 295.149841 
L 336.201136 295.736921 
L 349.059483 296.604536 
L 361.305528 297.618528 
L 361.305528 297.618528 
" style="fill:none;stroke:#1f77b4;stroke-linecap:square;stroke-width:1.5;"/>
   </g>
   <g id="line2d_100">
    <path clip-path="url(#pd4f4260d81)" d="M 63.955537 343.787311 
L 74.985484 346.236719 
L 83.369432 348.318455 
L 90.118214 350.216686 
L 95.677783 352.004366 
L 100.375172 353.743167 
L 104.359034 355.44985 
L 107.77802 357.151253 
L 110.751052 358.875948 
L 113.337589 360.63075 
L 115.597093 362.428069 
L 117.589024 364.29129 
L 119.372843 366.262842 
L 120.94855 368.331641 
L 122.375605 370.573244 
L 123.654008 372.999757 
L 124.78376 375.616418 
L 125.794591 378.509081 
L 126.716231 381.835544 
L 127.518949 385.581892 
L 128.232477 390.031082 
L 128.827083 395.197821 
L 129.302768 401.22953 
L 129.689262 408.940699 
L 129.986565 419.700455 
L 130.164947 434.033168 
L 130.256001 459.441437 
M 130.311259 459.441437 
L 130.43252 430.247272 
L 130.700093 414.123465 
L 131.086587 403.742118 
L 131.592002 395.940643 
L 132.216339 389.624372 
L 132.959597 384.270316 
L 133.851506 379.441514 
L 134.892067 375.038578 
L 136.08128 370.969937 
L 137.448874 367.079452 
L 139.024581 363.265744 
L 140.86786 359.393765 
L 143.038173 355.364129 
L 145.59498 351.096657 
L 148.38963 346.860926 
L 150.768055 343.63164 
L 152.432953 341.711855 
L 153.622165 340.650491 
L 154.514075 340.130652 
L 155.197872 339.967879 
L 155.762748 340.044417 
L 156.297893 340.348124 
L 156.803309 340.901851 
L 157.308724 341.79211 
L 157.84387 343.221281 
L 158.379015 345.341449 
L 158.884431 348.271143 
L 159.360116 352.33124 
L 159.806071 358.207141 
L 160.162834 366.045362 
L 160.430407 377.187037 
L 160.579059 391.104113 
L 160.66825 422.881881 
L 160.72771 403.55333 
L 160.935823 376.794989 
L 161.262856 363.838431 
L 161.708811 355.030996 
L 162.243956 348.780753 
L 162.838563 344.302943 
L 163.49263 341.018044 
L 164.146696 338.802823 
L 164.800763 337.306412 
L 165.45483 336.317293 
L 166.138628 335.674237 
L 166.852155 335.312048 
L 167.625143 335.175081 
L 168.517053 335.24785 
L 169.646805 335.574155 
L 171.192781 336.269864 
L 173.690127 337.670436 
L 183.620052 343.689872 
L 186.979578 345.910558 
L 188.941779 347.462055 
L 190.309373 348.814113 
L 191.349934 350.144553 
L 192.182383 351.56258 
L 192.86618 353.155997 
L 193.460786 355.110717 
L 193.966202 357.531838 
L 194.412156 360.756906 
L 194.798651 365.175386 
L 195.125684 371.431039 
L 195.393257 380.854575 
L 195.571639 394.295127 
L 195.66083 411.958311 
L 195.69056 430.15783 
L 195.750021 411.380873 
L 195.958133 385.978694 
L 196.195975 378.924214 
L 196.285166 378.329575 
L 196.344627 378.506211 
L 196.463548 380.515847 
L 196.6122 388.362498 
L 196.701391 402.142982 
L 196.760851 434.942905 
L 196.790582 407.003315 
L 196.998694 374.939676 
L 197.295997 361.387839 
L 197.652761 354.148433 
L 198.039255 350.533167 
L 198.425749 348.87431 
L 198.812243 348.14342 
L 199.198737 347.879498 
L 199.614961 347.867927 
L 200.209568 348.097262 
L 201.220398 348.766231 
L 203.033948 350.266645 
L 204.788036 351.98599 
L 206.036709 353.509772 
L 207.01781 355.054113 
L 207.820528 356.735861 
L 208.504325 358.702044 
L 209.098932 361.132835 
L 209.604347 364.174257 
L 210.050302 368.304325 
L 210.436796 374.218953 
L 210.734099 382.412166 
L 210.942211 394.084976 
L 211.061132 410.933621 
L 211.112754 459.441437 
M 211.128614 459.441437 
L 211.269245 397.012608 
L 211.536817 381.422629 
L 211.834121 375.045479 
L 212.012503 374.074821 
L 212.101693 374.431918 
L 212.250345 376.689279 
L 212.428727 384.304883 
L 212.547648 399.051182 
L 212.607109 437.623385 
L 212.636839 413.316516 
L 212.815221 378.926416 
L 213.112524 364.039941 
L 213.469288 356.421084 
L 213.826052 352.84472 
L 214.182815 351.13162 
L 214.539579 350.358898 
L 214.896343 350.084266 
L 215.253107 350.08461 
L 215.758522 350.340392 
L 216.53151 351.024323 
L 217.542341 352.229238 
L 218.37479 353.546826 
L 218.999126 354.931439 
L 219.504542 356.595112 
L 219.920766 358.751074 
L 220.27753 361.841448 
L 220.574833 366.420538 
L 220.842406 374.522535 
L 221.050518 389.330144 
L 221.139709 406.215419 
L 221.19917 432.971148 
L 221.2289 411.475255 
L 221.407282 391.406989 
L 221.437012 391.3697 
L 221.496473 393.39079 
L 221.585664 407.114659 
L 221.615394 426.303053 
L 221.674855 401.371644 
L 221.882967 371.586862 
L 222.18027 359.439388 
L 222.477573 355.103123 
L 222.804607 353.292403 
L 223.13164 352.641626 
L 223.458674 352.459661 
L 223.874898 352.511968 
L 224.618156 352.883817 
L 235.41026 359.231354 
L 239.929268 361.971506 
L 243.288793 364.264531 
L 246.083443 366.437139 
L 248.491598 368.587967 
L 250.602451 370.770506 
L 252.44573 372.991323 
L 254.110628 375.347666 
L 255.567413 377.790528 
L 256.875547 380.412962 
L 258.064759 383.304911 
L 259.10532 386.422693 
L 260.02696 389.884402 
L 260.829679 393.751366 
L 261.543206 398.310309 
L 262.137812 403.570787 
L 262.643228 410.156525 
L 263.029722 418.255586 
L 263.297295 428.275607 
L 263.475677 442.670047 
L 263.550494 459.441437 
M 263.635745 459.441437 
L 263.80271 433.60025 
L 264.100013 419.737243 
L 264.516238 410.292406 
L 265.051383 403.049183 
L 265.70545 397.137591 
L 266.478438 392.117941 
L 267.370348 387.7345 
L 268.410909 383.721204 
L 269.600121 380.02218 
L 270.937986 376.58284 
L 272.454232 373.294281 
L 274.17859 370.084817 
L 276.170521 366.855567 
L 278.459755 363.574207 
L 281.194944 360.053243 
L 284.61393 356.030902 
L 289.787005 350.329037 
L 297.784459 341.489786 
L 304.592701 333.859778 
L 305.722453 332.970208 
L 306.495441 332.611851 
L 307.090048 332.561431 
L 307.595463 332.742791 
L 308.041418 333.138432 
L 308.487373 333.83254 
L 308.963058 335.02219 
L 309.438743 336.866186 
L 309.914428 339.683664 
L 310.360382 343.740813 
L 310.776607 349.780618 
L 311.10364 357.874975 
L 311.341483 369.122983 
L 311.490134 386.300601 
L 311.549595 411.596792 
L 311.609056 394.209737 
L 311.817168 367.232167 
L 312.144201 354.563597 
L 312.560426 346.800697 
L 313.036111 341.93025 
L 313.482065 339.395111 
L 313.868559 338.290597 
L 314.136132 338.02184 
L 314.344244 338.075081 
L 314.582087 338.415364 
L 314.87939 339.278058 
L 315.236154 341.033234 
L 315.652378 344.333309 
L 316.068603 349.611531 
L 316.455097 357.627959 
L 316.7524 368.226623 
L 316.960512 382.483931 
L 317.079433 403.31335 
L 317.138894 424.945954 
L 317.168624 406.108543 
L 317.347006 382.697008 
L 317.584849 375.91086 
L 317.67404 375.459336 
L 317.70377 375.506882 
L 317.792961 376.260374 
L 317.941612 380.023522 
L 318.090264 390.064292 
L 318.179455 409.548407 
L 318.209185 448.87373 
L 318.268646 399.602077 
L 318.476758 373.530058 
L 318.803792 358.866523 
L 319.220016 349.244072 
L 319.695701 342.960157 
L 320.201116 339.010412 
L 320.706532 336.626479 
L 321.241677 335.110277 
L 321.776823 334.231158 
L 322.311969 333.754107 
L 322.906575 333.526441 
L 323.590372 333.51471 
L 324.482282 333.740731 
L 325.760685 334.316934 
L 328.10938 335.665531 
L 333.995982 339.079132 
L 337.950114 341.08189 
L 342.201549 342.98129 
L 346.928669 344.844167 
L 352.280126 346.709381 
L 358.464031 348.623693 
L 361.25868 349.422769 
L 361.25868 349.422769 
" style="fill:none;stroke:#ff7f0e;stroke-dasharray:5.55,2.4;stroke-dashoffset:0;stroke-width:1.5;"/>
   </g>
   <g id="patch_14">
    <path d="M 63.95625 406.368 
L 63.95625 274.889739 
" style="fill:none;stroke:#000000;stroke-linecap:square;stroke-linejoin:miter;stroke-width:0.8;"/>
   </g>
   <g id="patch_15">
    <path d="M 361.25865 406.368 
L 361.25865 274.889739 
" style="fill:none;stroke:#000000;stroke-linecap:square;stroke-linejoin:miter;stroke-width:0.8;"/>
   </g>
   <g id="patch_16">
    <path d="M 63.95625 406.368 
L 361.25865 406.368 
" style="fill:none;stroke:#000000;stroke-linecap:square;stroke-linejoin:miter;stroke-width:0.8;"/>
   </g>
   <g id="patch_17">
    <path d="M 63.95625 274.889739 
L 361.25865 274.889739 
" style="fill:none;stroke:#000000;stroke-linecap:square;stroke-linejoin:miter;stroke-width:0.8;"/>
   </g>
  </g>
 </g>
 <defs>
  <clipPath id="p9b073f230d">
   <rect height="131.478261" width="297.3024" x="63.95625" y="7.2"/>
  </clipPath>
  <clipPath id="p661cc4630b">
   <rect height="131.478261" width="297.3024" x="63.95625" y="141.04487"/>
  </clipPath>
  <clipPath id="pd4f4260d81">
   <rect height="131.478261" width="297.3024" x="63.95625" y="274.889739"/>
  </clipPath>
 </defs>
</svg>
