<?xml version="1.0" encoding="utf-8" standalone="no"?>
<!DOCTYPE svg PUBLIC "-//W3C//DTD SVG 1.1//EN"
  "http://www.w3.org/Graphics/SVG/1.1/DTD/svg11.dtd">
<!-- Created with matplotlib (https://matplotlib.org/) -->
<svg height="203.417438pt" version="1.1" viewBox="0 0 440.046562 203.417438" width="440.046562pt" xmlns="http://www.w3.org/2000/svg" xmlns:xlink="http://www.w3.org/1999/xlink">
 <defs>
  <style type="text/css">*{stroke-linecap:butt;stroke-linejoin:round;}</style>
 </defs>
 <g id="figure_1">
  <g id="patch_1">
   <path d="M 0 203.417438 
L 440.046562 203.417438 
L 440.046562 0 
L 0 0 
z
" style="fill:none;"/>
  </g>
  <g id="axes_1">
   <g id="patch_2">
    <path d="M 61.410938 151.344 
L 418.530938 151.344 
L 418.530938 7.2 
L 61.410938 7.2 
z
" style="fill:none;"/>
   </g>
   <g id="matplotlib.axis_1">
    <g id="xtick_1">
     <g id="line2d_1">
      <path clip-path="url(#p144fc82e31)" d="M 61.410937 151.344 
L 61.410937 7.2 
" style="fill:none;stroke:#b0b0b0;stroke-linecap:square;stroke-width:0.8;"/>
     </g>
     <g id="line2d_2">
      <defs>
       <path d="M 0 0 
L 0 3.5 
" id="m005f0a59be" style="stroke:#000000;stroke-width:0.8;"/>
      </defs>
      <g>
       <use style="stroke:#000000;stroke-width:0.8;" x="61.410937" xlink:href="#m005f0a59be" y="151.344"/>
      </g>
     </g>
     <g id="text_1">
      <!-- −300 -->
      <g transform="translate(40.810547 169.741656)scale(0.15 -0.15)">
       <defs>
        <path d="M 10.59375 35.5 
L 73.1875 35.5 
L 73.1875 27.203125 
L 10.59375 27.203125 
z
" id="DejaVuSans-8722"/>
        <path d="M 40.578125 39.3125 
Q 47.65625 37.796875 51.625 33 
Q 55.609375 28.21875 55.609375 21.1875 
Q 55.609375 10.40625 48.1875 4.484375 
Q 40.765625 -1.421875 27.09375 -1.421875 
Q 22.515625 -1.421875 17.65625 -0.515625 
Q 12.796875 0.390625 7.625 2.203125 
L 7.625 11.71875 
Q 11.71875 9.328125 16.59375 8.109375 
Q 21.484375 6.890625 26.8125 6.890625 
Q 36.078125 6.890625 40.9375 10.546875 
Q 45.796875 14.203125 45.796875 21.1875 
Q 45.796875 27.640625 41.28125 31.265625 
Q 36.765625 34.90625 28.71875 34.90625 
L 20.21875 34.90625 
L 20.21875 43.015625 
L 29.109375 43.015625 
Q 36.375 43.015625 40.234375 45.921875 
Q 44.09375 48.828125 44.09375 54.296875 
Q 44.09375 59.90625 40.109375 62.90625 
Q 36.140625 65.921875 28.71875 65.921875 
Q 24.65625 65.921875 20.015625 65.03125 
Q 15.375 64.15625 9.8125 62.3125 
L 9.8125 71.09375 
Q 15.4375 72.65625 20.34375 73.4375 
Q 25.25 74.21875 29.59375 74.21875 
Q 40.828125 74.21875 47.359375 69.109375 
Q 53.90625 64.015625 53.90625 55.328125 
Q 53.90625 49.265625 50.4375 45.09375 
Q 46.96875 40.921875 40.578125 39.3125 
z
" id="DejaVuSans-51"/>
        <path d="M 31.78125 66.40625 
Q 24.171875 66.40625 20.328125 58.90625 
Q 16.5 51.421875 16.5 36.375 
Q 16.5 21.390625 20.328125 13.890625 
Q 24.171875 6.390625 31.78125 6.390625 
Q 39.453125 6.390625 43.28125 13.890625 
Q 47.125 21.390625 47.125 36.375 
Q 47.125 51.421875 43.28125 58.90625 
Q 39.453125 66.40625 31.78125 66.40625 
z
M 31.78125 74.21875 
Q 44.046875 74.21875 50.515625 64.515625 
Q 56.984375 54.828125 56.984375 36.375 
Q 56.984375 17.96875 50.515625 8.265625 
Q 44.046875 -1.421875 31.78125 -1.421875 
Q 19.53125 -1.421875 13.0625 8.265625 
Q 6.59375 17.96875 6.59375 36.375 
Q 6.59375 54.828125 13.0625 64.515625 
Q 19.53125 74.21875 31.78125 74.21875 
z
" id="DejaVuSans-48"/>
       </defs>
       <use xlink:href="#DejaVuSans-8722"/>
       <use x="83.789062" xlink:href="#DejaVuSans-51"/>
       <use x="147.412109" xlink:href="#DejaVuSans-48"/>
       <use x="211.035156" xlink:href="#DejaVuSans-48"/>
      </g>
     </g>
    </g>
    <g id="xtick_2">
     <g id="line2d_3">
      <path clip-path="url(#p144fc82e31)" d="M 120.930938 151.344 
L 120.930938 7.2 
" style="fill:none;stroke:#b0b0b0;stroke-linecap:square;stroke-width:0.8;"/>
     </g>
     <g id="line2d_4">
      <g>
       <use style="stroke:#000000;stroke-width:0.8;" x="120.930938" xlink:href="#m005f0a59be" y="151.344"/>
      </g>
     </g>
     <g id="text_2">
      <!-- −200 -->
      <g transform="translate(100.330547 169.741656)scale(0.15 -0.15)">
       <defs>
        <path d="M 19.1875 8.296875 
L 53.609375 8.296875 
L 53.609375 0 
L 7.328125 0 
L 7.328125 8.296875 
Q 12.9375 14.109375 22.625 23.890625 
Q 32.328125 33.6875 34.8125 36.53125 
Q 39.546875 41.84375 41.421875 45.53125 
Q 43.3125 49.21875 43.3125 52.78125 
Q 43.3125 58.59375 39.234375 62.25 
Q 35.15625 65.921875 28.609375 65.921875 
Q 23.96875 65.921875 18.8125 64.3125 
Q 13.671875 62.703125 7.8125 59.421875 
L 7.8125 69.390625 
Q 13.765625 71.78125 18.9375 73 
Q 24.125 74.21875 28.421875 74.21875 
Q 39.75 74.21875 46.484375 68.546875 
Q 53.21875 62.890625 53.21875 53.421875 
Q 53.21875 48.921875 51.53125 44.890625 
Q 49.859375 40.875 45.40625 35.40625 
Q 44.1875 33.984375 37.640625 27.21875 
Q 31.109375 20.453125 19.1875 8.296875 
z
" id="DejaVuSans-50"/>
       </defs>
       <use xlink:href="#DejaVuSans-8722"/>
       <use x="83.789062" xlink:href="#DejaVuSans-50"/>
       <use x="147.412109" xlink:href="#DejaVuSans-48"/>
       <use x="211.035156" xlink:href="#DejaVuSans-48"/>
      </g>
     </g>
    </g>
    <g id="xtick_3">
     <g id="line2d_5">
      <path clip-path="url(#p144fc82e31)" d="M 180.450938 151.344 
L 180.450938 7.2 
" style="fill:none;stroke:#b0b0b0;stroke-linecap:square;stroke-width:0.8;"/>
     </g>
     <g id="line2d_6">
      <g>
       <use style="stroke:#000000;stroke-width:0.8;" x="180.450938" xlink:href="#m005f0a59be" y="151.344"/>
      </g>
     </g>
     <g id="text_3">
      <!-- −100 -->
      <g transform="translate(159.850547 169.741656)scale(0.15 -0.15)">
       <defs>
        <path d="M 12.40625 8.296875 
L 28.515625 8.296875 
L 28.515625 63.921875 
L 10.984375 60.40625 
L 10.984375 69.390625 
L 28.421875 72.90625 
L 38.28125 72.90625 
L 38.28125 8.296875 
L 54.390625 8.296875 
L 54.390625 0 
L 12.40625 0 
z
" id="DejaVuSans-49"/>
       </defs>
       <use xlink:href="#DejaVuSans-8722"/>
       <use x="83.789062" xlink:href="#DejaVuSans-49"/>
       <use x="147.412109" xlink:href="#DejaVuSans-48"/>
       <use x="211.035156" xlink:href="#DejaVuSans-48"/>
      </g>
     </g>
    </g>
    <g id="xtick_4">
     <g id="line2d_7">
      <path clip-path="url(#p144fc82e31)" d="M 239.970938 151.344 
L 239.970938 7.2 
" style="fill:none;stroke:#b0b0b0;stroke-linecap:square;stroke-width:0.8;"/>
     </g>
     <g id="line2d_8">
      <g>
       <use style="stroke:#000000;stroke-width:0.8;" x="239.970938" xlink:href="#m005f0a59be" y="151.344"/>
      </g>
     </g>
     <g id="text_4">
      <!-- 0 -->
      <g transform="translate(235.199063 169.741656)scale(0.15 -0.15)">
       <use xlink:href="#DejaVuSans-48"/>
      </g>
     </g>
    </g>
    <g id="xtick_5">
     <g id="line2d_9">
      <path clip-path="url(#p144fc82e31)" d="M 299.490938 151.344 
L 299.490938 7.2 
" style="fill:none;stroke:#b0b0b0;stroke-linecap:square;stroke-width:0.8;"/>
     </g>
     <g id="line2d_10">
      <g>
       <use style="stroke:#000000;stroke-width:0.8;" x="299.490938" xlink:href="#m005f0a59be" y="151.344"/>
      </g>
     </g>
     <g id="text_5">
      <!-- 100 -->
      <g transform="translate(285.175313 169.741656)scale(0.15 -0.15)">
       <use xlink:href="#DejaVuSans-49"/>
       <use x="63.623047" xlink:href="#DejaVuSans-48"/>
       <use x="127.246094" xlink:href="#DejaVuSans-48"/>
      </g>
     </g>
    </g>
    <g id="xtick_6">
     <g id="line2d_11">
      <path clip-path="url(#p144fc82e31)" d="M 359.010938 151.344 
L 359.010938 7.2 
" style="fill:none;stroke:#b0b0b0;stroke-linecap:square;stroke-width:0.8;"/>
     </g>
     <g id="line2d_12">
      <g>
       <use style="stroke:#000000;stroke-width:0.8;" x="359.010938" xlink:href="#m005f0a59be" y="151.344"/>
      </g>
     </g>
     <g id="text_6">
      <!-- 200 -->
      <g transform="translate(344.695313 169.741656)scale(0.15 -0.15)">
       <use xlink:href="#DejaVuSans-50"/>
       <use x="63.623047" xlink:href="#DejaVuSans-48"/>
       <use x="127.246094" xlink:href="#DejaVuSans-48"/>
      </g>
     </g>
    </g>
    <g id="xtick_7">
     <g id="line2d_13">
      <path clip-path="url(#p144fc82e31)" d="M 418.530938 151.344 
L 418.530938 7.2 
" style="fill:none;stroke:#b0b0b0;stroke-linecap:square;stroke-width:0.8;"/>
     </g>
     <g id="line2d_14">
      <g>
       <use style="stroke:#000000;stroke-width:0.8;" x="418.530938" xlink:href="#m005f0a59be" y="151.344"/>
      </g>
     </g>
     <g id="text_7">
      <!-- 300 -->
      <g transform="translate(404.215313 169.741656)scale(0.15 -0.15)">
       <use xlink:href="#DejaVuSans-51"/>
       <use x="63.623047" xlink:href="#DejaVuSans-48"/>
       <use x="127.246094" xlink:href="#DejaVuSans-48"/>
      </g>
     </g>
    </g>
    <g id="text_8">
     <!-- One-Photon Detuning (GHz) -->
     <g transform="translate(100.549063 192.058063)scale(0.2 -0.2)">
      <defs>
       <path d="M 39.40625 66.21875 
Q 28.65625 66.21875 22.328125 58.203125 
Q 16.015625 50.203125 16.015625 36.375 
Q 16.015625 22.609375 22.328125 14.59375 
Q 28.65625 6.59375 39.40625 6.59375 
Q 50.140625 6.59375 56.421875 14.59375 
Q 62.703125 22.609375 62.703125 36.375 
Q 62.703125 50.203125 56.421875 58.203125 
Q 50.140625 66.21875 39.40625 66.21875 
z
M 39.40625 74.21875 
Q 54.734375 74.21875 63.90625 63.9375 
Q 73.09375 53.65625 73.09375 36.375 
Q 73.09375 19.140625 63.90625 8.859375 
Q 54.734375 -1.421875 39.40625 -1.421875 
Q 24.03125 -1.421875 14.8125 8.828125 
Q 5.609375 19.09375 5.609375 36.375 
Q 5.609375 53.65625 14.8125 63.9375 
Q 24.03125 74.21875 39.40625 74.21875 
z
" id="DejaVuSans-79"/>
       <path d="M 54.890625 33.015625 
L 54.890625 0 
L 45.90625 0 
L 45.90625 32.71875 
Q 45.90625 40.484375 42.875 44.328125 
Q 39.84375 48.1875 33.796875 48.1875 
Q 26.515625 48.1875 22.3125 43.546875 
Q 18.109375 38.921875 18.109375 30.90625 
L 18.109375 0 
L 9.078125 0 
L 9.078125 54.6875 
L 18.109375 54.6875 
L 18.109375 46.1875 
Q 21.34375 51.125 25.703125 53.5625 
Q 30.078125 56 35.796875 56 
Q 45.21875 56 50.046875 50.171875 
Q 54.890625 44.34375 54.890625 33.015625 
z
" id="DejaVuSans-110"/>
       <path d="M 56.203125 29.59375 
L 56.203125 25.203125 
L 14.890625 25.203125 
Q 15.484375 15.921875 20.484375 11.0625 
Q 25.484375 6.203125 34.421875 6.203125 
Q 39.59375 6.203125 44.453125 7.46875 
Q 49.3125 8.734375 54.109375 11.28125 
L 54.109375 2.78125 
Q 49.265625 0.734375 44.1875 -0.34375 
Q 39.109375 -1.421875 33.890625 -1.421875 
Q 20.796875 -1.421875 13.15625 6.1875 
Q 5.515625 13.8125 5.515625 26.8125 
Q 5.515625 40.234375 12.765625 48.109375 
Q 20.015625 56 32.328125 56 
Q 43.359375 56 49.78125 48.890625 
Q 56.203125 41.796875 56.203125 29.59375 
z
M 47.21875 32.234375 
Q 47.125 39.59375 43.09375 43.984375 
Q 39.0625 48.390625 32.421875 48.390625 
Q 24.90625 48.390625 20.390625 44.140625 
Q 15.875 39.890625 15.1875 32.171875 
z
" id="DejaVuSans-101"/>
       <path d="M 4.890625 31.390625 
L 31.203125 31.390625 
L 31.203125 23.390625 
L 4.890625 23.390625 
z
" id="DejaVuSans-45"/>
       <path d="M 19.671875 64.796875 
L 19.671875 37.40625 
L 32.078125 37.40625 
Q 38.96875 37.40625 42.71875 40.96875 
Q 46.484375 44.53125 46.484375 51.125 
Q 46.484375 57.671875 42.71875 61.234375 
Q 38.96875 64.796875 32.078125 64.796875 
z
M 9.8125 72.90625 
L 32.078125 72.90625 
Q 44.34375 72.90625 50.609375 67.359375 
Q 56.890625 61.8125 56.890625 51.125 
Q 56.890625 40.328125 50.609375 34.8125 
Q 44.34375 29.296875 32.078125 29.296875 
L 19.671875 29.296875 
L 19.671875 0 
L 9.8125 0 
z
" id="DejaVuSans-80"/>
       <path d="M 54.890625 33.015625 
L 54.890625 0 
L 45.90625 0 
L 45.90625 32.71875 
Q 45.90625 40.484375 42.875 44.328125 
Q 39.84375 48.1875 33.796875 48.1875 
Q 26.515625 48.1875 22.3125 43.546875 
Q 18.109375 38.921875 18.109375 30.90625 
L 18.109375 0 
L 9.078125 0 
L 9.078125 75.984375 
L 18.109375 75.984375 
L 18.109375 46.1875 
Q 21.34375 51.125 25.703125 53.5625 
Q 30.078125 56 35.796875 56 
Q 45.21875 56 50.046875 50.171875 
Q 54.890625 44.34375 54.890625 33.015625 
z
" id="DejaVuSans-104"/>
       <path d="M 30.609375 48.390625 
Q 23.390625 48.390625 19.1875 42.75 
Q 14.984375 37.109375 14.984375 27.296875 
Q 14.984375 17.484375 19.15625 11.84375 
Q 23.34375 6.203125 30.609375 6.203125 
Q 37.796875 6.203125 41.984375 11.859375 
Q 46.1875 17.53125 46.1875 27.296875 
Q 46.1875 37.015625 41.984375 42.703125 
Q 37.796875 48.390625 30.609375 48.390625 
z
M 30.609375 56 
Q 42.328125 56 49.015625 48.375 
Q 55.71875 40.765625 55.71875 27.296875 
Q 55.71875 13.875 49.015625 6.21875 
Q 42.328125 -1.421875 30.609375 -1.421875 
Q 18.84375 -1.421875 12.171875 6.21875 
Q 5.515625 13.875 5.515625 27.296875 
Q 5.515625 40.765625 12.171875 48.375 
Q 18.84375 56 30.609375 56 
z
" id="DejaVuSans-111"/>
       <path d="M 18.3125 70.21875 
L 18.3125 54.6875 
L 36.8125 54.6875 
L 36.8125 47.703125 
L 18.3125 47.703125 
L 18.3125 18.015625 
Q 18.3125 11.328125 20.140625 9.421875 
Q 21.96875 7.515625 27.59375 7.515625 
L 36.8125 7.515625 
L 36.8125 0 
L 27.59375 0 
Q 17.1875 0 13.234375 3.875 
Q 9.28125 7.765625 9.28125 18.015625 
L 9.28125 47.703125 
L 2.6875 47.703125 
L 2.6875 54.6875 
L 9.28125 54.6875 
L 9.28125 70.21875 
z
" id="DejaVuSans-116"/>
       <path id="DejaVuSans-32"/>
       <path d="M 19.671875 64.796875 
L 19.671875 8.109375 
L 31.59375 8.109375 
Q 46.6875 8.109375 53.6875 14.9375 
Q 60.6875 21.78125 60.6875 36.53125 
Q 60.6875 51.171875 53.6875 57.984375 
Q 46.6875 64.796875 31.59375 64.796875 
z
M 9.8125 72.90625 
L 30.078125 72.90625 
Q 51.265625 72.90625 61.171875 64.09375 
Q 71.09375 55.28125 71.09375 36.53125 
Q 71.09375 17.671875 61.125 8.828125 
Q 51.171875 0 30.078125 0 
L 9.8125 0 
z
" id="DejaVuSans-68"/>
       <path d="M 8.5 21.578125 
L 8.5 54.6875 
L 17.484375 54.6875 
L 17.484375 21.921875 
Q 17.484375 14.15625 20.5 10.265625 
Q 23.53125 6.390625 29.59375 6.390625 
Q 36.859375 6.390625 41.078125 11.03125 
Q 45.3125 15.671875 45.3125 23.6875 
L 45.3125 54.6875 
L 54.296875 54.6875 
L 54.296875 0 
L 45.3125 0 
L 45.3125 8.40625 
Q 42.046875 3.421875 37.71875 1 
Q 33.40625 -1.421875 27.6875 -1.421875 
Q 18.265625 -1.421875 13.375 4.4375 
Q 8.5 10.296875 8.5 21.578125 
z
M 31.109375 56 
z
" id="DejaVuSans-117"/>
       <path d="M 9.421875 54.6875 
L 18.40625 54.6875 
L 18.40625 0 
L 9.421875 0 
z
M 9.421875 75.984375 
L 18.40625 75.984375 
L 18.40625 64.59375 
L 9.421875 64.59375 
z
" id="DejaVuSans-105"/>
       <path d="M 45.40625 27.984375 
Q 45.40625 37.75 41.375 43.109375 
Q 37.359375 48.484375 30.078125 48.484375 
Q 22.859375 48.484375 18.828125 43.109375 
Q 14.796875 37.75 14.796875 27.984375 
Q 14.796875 18.265625 18.828125 12.890625 
Q 22.859375 7.515625 30.078125 7.515625 
Q 37.359375 7.515625 41.375 12.890625 
Q 45.40625 18.265625 45.40625 27.984375 
z
M 54.390625 6.78125 
Q 54.390625 -7.171875 48.1875 -13.984375 
Q 42 -20.796875 29.203125 -20.796875 
Q 24.46875 -20.796875 20.265625 -20.09375 
Q 16.0625 -19.390625 12.109375 -17.921875 
L 12.109375 -9.1875 
Q 16.0625 -11.328125 19.921875 -12.34375 
Q 23.78125 -13.375 27.78125 -13.375 
Q 36.625 -13.375 41.015625 -8.765625 
Q 45.40625 -4.15625 45.40625 5.171875 
L 45.40625 9.625 
Q 42.625 4.78125 38.28125 2.390625 
Q 33.9375 0 27.875 0 
Q 17.828125 0 11.671875 7.65625 
Q 5.515625 15.328125 5.515625 27.984375 
Q 5.515625 40.671875 11.671875 48.328125 
Q 17.828125 56 27.875 56 
Q 33.9375 56 38.28125 53.609375 
Q 42.625 51.21875 45.40625 46.390625 
L 45.40625 54.6875 
L 54.390625 54.6875 
z
" id="DejaVuSans-103"/>
       <path d="M 31 75.875 
Q 24.46875 64.65625 21.28125 53.65625 
Q 18.109375 42.671875 18.109375 31.390625 
Q 18.109375 20.125 21.3125 9.0625 
Q 24.515625 -2 31 -13.1875 
L 23.1875 -13.1875 
Q 15.875 -1.703125 12.234375 9.375 
Q 8.59375 20.453125 8.59375 31.390625 
Q 8.59375 42.28125 12.203125 53.3125 
Q 15.828125 64.359375 23.1875 75.875 
z
" id="DejaVuSans-40"/>
       <path d="M 59.515625 10.40625 
L 59.515625 29.984375 
L 43.40625 29.984375 
L 43.40625 38.09375 
L 69.28125 38.09375 
L 69.28125 6.78125 
Q 63.578125 2.734375 56.6875 0.65625 
Q 49.8125 -1.421875 42 -1.421875 
Q 24.90625 -1.421875 15.25 8.5625 
Q 5.609375 18.5625 5.609375 36.375 
Q 5.609375 54.25 15.25 64.234375 
Q 24.90625 74.21875 42 74.21875 
Q 49.125 74.21875 55.546875 72.453125 
Q 61.96875 70.703125 67.390625 67.28125 
L 67.390625 56.78125 
Q 61.921875 61.421875 55.765625 63.765625 
Q 49.609375 66.109375 42.828125 66.109375 
Q 29.4375 66.109375 22.71875 58.640625 
Q 16.015625 51.171875 16.015625 36.375 
Q 16.015625 21.625 22.71875 14.15625 
Q 29.4375 6.6875 42.828125 6.6875 
Q 48.046875 6.6875 52.140625 7.59375 
Q 56.25 8.5 59.515625 10.40625 
z
" id="DejaVuSans-71"/>
       <path d="M 9.8125 72.90625 
L 19.671875 72.90625 
L 19.671875 43.015625 
L 55.515625 43.015625 
L 55.515625 72.90625 
L 65.375 72.90625 
L 65.375 0 
L 55.515625 0 
L 55.515625 34.71875 
L 19.671875 34.71875 
L 19.671875 0 
L 9.8125 0 
z
" id="DejaVuSans-72"/>
       <path d="M 5.515625 54.6875 
L 48.1875 54.6875 
L 48.1875 46.484375 
L 14.40625 7.171875 
L 48.1875 7.171875 
L 48.1875 0 
L 4.296875 0 
L 4.296875 8.203125 
L 38.09375 47.515625 
L 5.515625 47.515625 
z
" id="DejaVuSans-122"/>
       <path d="M 8.015625 75.875 
L 15.828125 75.875 
Q 23.140625 64.359375 26.78125 53.3125 
Q 30.421875 42.28125 30.421875 31.390625 
Q 30.421875 20.453125 26.78125 9.375 
Q 23.140625 -1.703125 15.828125 -13.1875 
L 8.015625 -13.1875 
Q 14.5 -2 17.703125 9.0625 
Q 20.90625 20.125 20.90625 31.390625 
Q 20.90625 42.671875 17.703125 53.65625 
Q 14.5 64.65625 8.015625 75.875 
z
" id="DejaVuSans-41"/>
      </defs>
      <use xlink:href="#DejaVuSans-79"/>
      <use x="78.710938" xlink:href="#DejaVuSans-110"/>
      <use x="142.089844" xlink:href="#DejaVuSans-101"/>
      <use x="203.613281" xlink:href="#DejaVuSans-45"/>
      <use x="239.697266" xlink:href="#DejaVuSans-80"/>
      <use x="300" xlink:href="#DejaVuSans-104"/>
      <use x="363.378906" xlink:href="#DejaVuSans-111"/>
      <use x="424.560547" xlink:href="#DejaVuSans-116"/>
      <use x="463.769531" xlink:href="#DejaVuSans-111"/>
      <use x="524.951172" xlink:href="#DejaVuSans-110"/>
      <use x="588.330078" xlink:href="#DejaVuSans-32"/>
      <use x="620.117188" xlink:href="#DejaVuSans-68"/>
      <use x="697.119141" xlink:href="#DejaVuSans-101"/>
      <use x="758.642578" xlink:href="#DejaVuSans-116"/>
      <use x="797.851562" xlink:href="#DejaVuSans-117"/>
      <use x="861.230469" xlink:href="#DejaVuSans-110"/>
      <use x="924.609375" xlink:href="#DejaVuSans-105"/>
      <use x="952.392578" xlink:href="#DejaVuSans-110"/>
      <use x="1015.771484" xlink:href="#DejaVuSans-103"/>
      <use x="1079.248047" xlink:href="#DejaVuSans-32"/>
      <use x="1111.035156" xlink:href="#DejaVuSans-40"/>
      <use x="1150.048828" xlink:href="#DejaVuSans-71"/>
      <use x="1227.539062" xlink:href="#DejaVuSans-72"/>
      <use x="1302.734375" xlink:href="#DejaVuSans-122"/>
      <use x="1355.224609" xlink:href="#DejaVuSans-41"/>
     </g>
    </g>
   </g>
   <g id="matplotlib.axis_2">
    <g id="ytick_1">
     <g id="line2d_15">
      <path clip-path="url(#p144fc82e31)" d="M 61.410938 119.621885 
L 418.530938 119.621885 
" style="fill:none;stroke:#b0b0b0;stroke-linecap:square;stroke-width:0.8;"/>
     </g>
     <g id="line2d_16">
      <defs>
       <path d="M 0 0 
L -3.5 0 
" id="mc3ce260a5b" style="stroke:#000000;stroke-width:0.8;"/>
      </defs>
      <g>
       <use style="stroke:#000000;stroke-width:0.8;" x="61.410938" xlink:href="#mc3ce260a5b" y="119.621885"/>
      </g>
     </g>
     <g id="text_9">
      <!-- 0.1 -->
      <g transform="translate(30.55625 125.320713)scale(0.15 -0.15)">
       <defs>
        <path d="M 10.6875 12.40625 
L 21 12.40625 
L 21 0 
L 10.6875 0 
z
" id="DejaVuSans-46"/>
       </defs>
       <use xlink:href="#DejaVuSans-48"/>
       <use x="63.623047" xlink:href="#DejaVuSans-46"/>
       <use x="95.410156" xlink:href="#DejaVuSans-49"/>
      </g>
     </g>
    </g>
    <g id="ytick_2">
     <g id="line2d_17">
      <path clip-path="url(#p144fc82e31)" d="M 61.410938 74.237799 
L 418.530938 74.237799 
" style="fill:none;stroke:#b0b0b0;stroke-linecap:square;stroke-width:0.8;"/>
     </g>
     <g id="line2d_18">
      <g>
       <use style="stroke:#000000;stroke-width:0.8;" x="61.410938" xlink:href="#mc3ce260a5b" y="74.237799"/>
      </g>
     </g>
     <g id="text_10">
      <!-- 1 -->
      <g transform="translate(44.867188 79.936627)scale(0.15 -0.15)">
       <use xlink:href="#DejaVuSans-49"/>
      </g>
     </g>
    </g>
    <g id="ytick_3">
     <g id="line2d_19">
      <path clip-path="url(#p144fc82e31)" d="M 61.410938 28.853712 
L 418.530938 28.853712 
" style="fill:none;stroke:#b0b0b0;stroke-linecap:square;stroke-width:0.8;"/>
     </g>
     <g id="line2d_20">
      <g>
       <use style="stroke:#000000;stroke-width:0.8;" x="61.410938" xlink:href="#mc3ce260a5b" y="28.853712"/>
      </g>
     </g>
     <g id="text_11">
      <!-- 10 -->
      <g transform="translate(35.323438 34.55254)scale(0.15 -0.15)">
       <use xlink:href="#DejaVuSans-49"/>
       <use x="63.623047" xlink:href="#DejaVuSans-48"/>
      </g>
     </g>
    </g>
    <g id="ytick_4">
     <g id="line2d_21">
      <defs>
       <path d="M 0 0 
L -2 0 
" id="md0f4fded07" style="stroke:#000000;stroke-width:0.6;"/>
      </defs>
      <g>
       <use style="stroke:#000000;stroke-width:0.6;" x="61.410938" xlink:href="#md0f4fded07" y="151.344"/>
      </g>
     </g>
    </g>
    <g id="ytick_5">
     <g id="line2d_22">
      <g>
       <use style="stroke:#000000;stroke-width:0.6;" x="61.410938" xlink:href="#md0f4fded07" y="143.352259"/>
      </g>
     </g>
    </g>
    <g id="ytick_6">
     <g id="line2d_23">
      <g>
       <use style="stroke:#000000;stroke-width:0.6;" x="61.410938" xlink:href="#md0f4fded07" y="137.682029"/>
      </g>
     </g>
    </g>
    <g id="ytick_7">
     <g id="line2d_24">
      <g>
       <use style="stroke:#000000;stroke-width:0.6;" x="61.410938" xlink:href="#md0f4fded07" y="133.283856"/>
      </g>
     </g>
    </g>
    <g id="ytick_8">
     <g id="line2d_25">
      <g>
       <use style="stroke:#000000;stroke-width:0.6;" x="61.410938" xlink:href="#md0f4fded07" y="129.690288"/>
      </g>
     </g>
    </g>
    <g id="ytick_9">
     <g id="line2d_26">
      <g>
       <use style="stroke:#000000;stroke-width:0.6;" x="61.410938" xlink:href="#md0f4fded07" y="126.651969"/>
      </g>
     </g>
    </g>
    <g id="ytick_10">
     <g id="line2d_27">
      <g>
       <use style="stroke:#000000;stroke-width:0.6;" x="61.410938" xlink:href="#md0f4fded07" y="124.020057"/>
      </g>
     </g>
    </g>
    <g id="ytick_11">
     <g id="line2d_28">
      <g>
       <use style="stroke:#000000;stroke-width:0.6;" x="61.410938" xlink:href="#md0f4fded07" y="121.698547"/>
      </g>
     </g>
    </g>
    <g id="ytick_12">
     <g id="line2d_29">
      <g>
       <use style="stroke:#000000;stroke-width:0.6;" x="61.410938" xlink:href="#md0f4fded07" y="105.959914"/>
      </g>
     </g>
    </g>
    <g id="ytick_13">
     <g id="line2d_30">
      <g>
       <use style="stroke:#000000;stroke-width:0.6;" x="61.410938" xlink:href="#md0f4fded07" y="97.968173"/>
      </g>
     </g>
    </g>
    <g id="ytick_14">
     <g id="line2d_31">
      <g>
       <use style="stroke:#000000;stroke-width:0.6;" x="61.410938" xlink:href="#md0f4fded07" y="92.297942"/>
      </g>
     </g>
    </g>
    <g id="ytick_15">
     <g id="line2d_32">
      <g>
       <use style="stroke:#000000;stroke-width:0.6;" x="61.410938" xlink:href="#md0f4fded07" y="87.89977"/>
      </g>
     </g>
    </g>
    <g id="ytick_16">
     <g id="line2d_33">
      <g>
       <use style="stroke:#000000;stroke-width:0.6;" x="61.410938" xlink:href="#md0f4fded07" y="84.306201"/>
      </g>
     </g>
    </g>
    <g id="ytick_17">
     <g id="line2d_34">
      <g>
       <use style="stroke:#000000;stroke-width:0.6;" x="61.410938" xlink:href="#md0f4fded07" y="81.267883"/>
      </g>
     </g>
    </g>
    <g id="ytick_18">
     <g id="line2d_35">
      <g>
       <use style="stroke:#000000;stroke-width:0.6;" x="61.410938" xlink:href="#md0f4fded07" y="78.635971"/>
      </g>
     </g>
    </g>
    <g id="ytick_19">
     <g id="line2d_36">
      <g>
       <use style="stroke:#000000;stroke-width:0.6;" x="61.410938" xlink:href="#md0f4fded07" y="76.31446"/>
      </g>
     </g>
    </g>
    <g id="ytick_20">
     <g id="line2d_37">
      <g>
       <use style="stroke:#000000;stroke-width:0.6;" x="61.410938" xlink:href="#md0f4fded07" y="60.575827"/>
      </g>
     </g>
    </g>
    <g id="ytick_21">
     <g id="line2d_38">
      <g>
       <use style="stroke:#000000;stroke-width:0.6;" x="61.410938" xlink:href="#md0f4fded07" y="52.584086"/>
      </g>
     </g>
    </g>
    <g id="ytick_22">
     <g id="line2d_39">
      <g>
       <use style="stroke:#000000;stroke-width:0.6;" x="61.410938" xlink:href="#md0f4fded07" y="46.913856"/>
      </g>
     </g>
    </g>
    <g id="ytick_23">
     <g id="line2d_40">
      <g>
       <use style="stroke:#000000;stroke-width:0.6;" x="61.410938" xlink:href="#md0f4fded07" y="42.515684"/>
      </g>
     </g>
    </g>
    <g id="ytick_24">
     <g id="line2d_41">
      <g>
       <use style="stroke:#000000;stroke-width:0.6;" x="61.410938" xlink:href="#md0f4fded07" y="38.922115"/>
      </g>
     </g>
    </g>
    <g id="ytick_25">
     <g id="line2d_42">
      <g>
       <use style="stroke:#000000;stroke-width:0.6;" x="61.410938" xlink:href="#md0f4fded07" y="35.883796"/>
      </g>
     </g>
    </g>
    <g id="ytick_26">
     <g id="line2d_43">
      <g>
       <use style="stroke:#000000;stroke-width:0.6;" x="61.410938" xlink:href="#md0f4fded07" y="33.251885"/>
      </g>
     </g>
    </g>
    <g id="ytick_27">
     <g id="line2d_44">
      <g>
       <use style="stroke:#000000;stroke-width:0.6;" x="61.410938" xlink:href="#md0f4fded07" y="30.930374"/>
      </g>
     </g>
    </g>
    <g id="ytick_28">
     <g id="line2d_45">
      <g>
       <use style="stroke:#000000;stroke-width:0.6;" x="61.410938" xlink:href="#md0f4fded07" y="15.191741"/>
      </g>
     </g>
    </g>
    <g id="ytick_29">
     <g id="line2d_46">
      <g>
       <use style="stroke:#000000;stroke-width:0.6;" x="61.410938" xlink:href="#md0f4fded07" y="7.2"/>
      </g>
     </g>
    </g>
    <g id="text_12">
     <!-- $\Omega_{R}/\Gamma_{s}$ -->
     <g transform="translate(22.396875 105.172)rotate(-90)scale(0.2 -0.2)">
      <defs>
       <path d="M 72.609375 8.6875 
L 72.609375 0 
L 43.3125 0 
L 43.3125 8.6875 
Q 51.953125 13.421875 56.78125 21.53125 
Q 61.625 29.640625 61.625 39.5 
Q 61.625 51.21875 55.171875 58.296875 
Q 48.734375 65.375 38.1875 65.375 
Q 27.640625 65.375 21.171875 58.265625 
Q 14.703125 51.171875 14.703125 39.5 
Q 14.703125 29.640625 19.53125 21.53125 
Q 24.421875 13.421875 33.109375 8.6875 
L 33.109375 0 
L 3.8125 0 
L 3.8125 8.6875 
L 19.390625 8.6875 
Q 11.671875 15.484375 8.109375 22.75 
Q 4.59375 30.03125 4.59375 39.015625 
Q 4.59375 54.546875 13.96875 64.15625 
Q 23.296875 73.78125 38.1875 73.78125 
Q 52.984375 73.78125 62.40625 64.15625 
Q 71.78125 54.59375 71.78125 39.5 
Q 71.78125 30.03125 68.3125 22.796875 
Q 64.84375 15.578125 56.984375 8.6875 
z
" id="DejaVuSans-937"/>
       <path d="M 25.203125 64.796875 
L 20.21875 38.921875 
L 32.90625 38.921875 
Q 40.375 38.921875 44.984375 43.046875 
Q 49.609375 47.171875 49.609375 53.8125 
Q 49.609375 59.125 46.5 61.953125 
Q 43.40625 64.796875 37.59375 64.796875 
z
M 43.3125 35.015625 
Q 46.4375 34.28125 48.515625 31.390625 
Q 50.59375 28.515625 53.328125 19.921875 
L 59.515625 0 
L 49.125 0 
L 43.40625 18.703125 
Q 41.21875 25.921875 38.328125 28.359375 
Q 35.453125 30.8125 29.5 30.8125 
L 18.609375 30.8125 
L 12.59375 0 
L 2.6875 0 
L 16.890625 72.90625 
L 39.109375 72.90625 
Q 49.21875 72.90625 54.609375 68.328125 
Q 60.015625 63.765625 60.015625 55.171875 
Q 60.015625 47.5625 55.421875 41.984375 
Q 50.828125 36.421875 43.3125 35.015625 
z
" id="DejaVuSans-Oblique-82"/>
       <path d="M 25.390625 72.90625 
L 33.6875 72.90625 
L 8.296875 -9.28125 
L 0 -9.28125 
z
" id="DejaVuSans-47"/>
       <path d="M 9.8125 0 
L 9.8125 72.90625 
L 55.171875 72.90625 
L 55.171875 64.59375 
L 19.671875 64.59375 
L 19.671875 0 
z
" id="DejaVuSans-915"/>
       <path d="M 50 53.078125 
L 48.296875 44.578125 
Q 44.734375 46.53125 40.765625 47.5 
Q 36.8125 48.484375 32.625 48.484375 
Q 25.53125 48.484375 21.453125 46.0625 
Q 17.390625 43.65625 17.390625 39.5 
Q 17.390625 34.671875 26.859375 32.078125 
Q 27.59375 31.890625 27.9375 31.78125 
L 30.8125 30.90625 
Q 39.796875 28.421875 42.796875 25.6875 
Q 45.796875 22.953125 45.796875 18.21875 
Q 45.796875 9.515625 38.890625 4.046875 
Q 31.984375 -1.421875 20.796875 -1.421875 
Q 16.453125 -1.421875 11.671875 -0.578125 
Q 6.890625 0.25 1.125 2 
L 2.875 11.28125 
Q 7.8125 8.734375 12.59375 7.421875 
Q 17.390625 6.109375 21.78125 6.109375 
Q 28.375 6.109375 32.5 8.9375 
Q 36.625 11.765625 36.625 16.109375 
Q 36.625 20.796875 25.78125 23.6875 
L 24.859375 23.921875 
L 21.78125 24.703125 
Q 14.9375 26.515625 11.765625 29.46875 
Q 8.59375 32.421875 8.59375 37.015625 
Q 8.59375 45.75 15.15625 50.875 
Q 21.734375 56 33.015625 56 
Q 37.453125 56 41.671875 55.265625 
Q 45.90625 54.546875 50 53.078125 
z
" id="DejaVuSans-Oblique-115"/>
      </defs>
      <use transform="translate(0 0.21875)" xlink:href="#DejaVuSans-937"/>
      <use transform="translate(77.373047 -16.1875)scale(0.7)" xlink:href="#DejaVuSans-Oblique-82"/>
      <use transform="translate(128.745117 0.21875)" xlink:href="#DejaVuSans-47"/>
      <use transform="translate(162.436523 0.21875)" xlink:href="#DejaVuSans-915"/>
      <use transform="translate(219.106445 -16.1875)scale(0.7)" xlink:href="#DejaVuSans-Oblique-115"/>
     </g>
    </g>
   </g>
   <g id="line2d_47">
    <path clip-path="url(#p144fc82e31)" d="M 61.282225 66.826025 
L 62.311923 71.215825 
L 63.194521 75.946824 
L 63.930019 80.987841 
L 64.665517 87.764952 
L 65.253916 95.593226 
L 65.695215 104.552389 
L 65.989414 114.079799 
L 66.283613 133.208116 
L 66.430713 166.916353 
L 66.724912 125.794723 
L 67.019111 110.9534 
L 67.46041 99.446774 
L 68.048809 90.320716 
L 68.784307 82.828312 
L 69.666905 76.4992 
L 70.549503 71.726254 
L 71.5792 67.324344 
L 72.755997 63.275992 
L 74.079894 59.549923 
L 75.55089 56.112269 
L 77.168986 52.931084 
L 78.934182 49.977883 
L 80.846477 47.227932 
L 82.905872 44.660029 
L 85.112367 42.256115 
L 87.613061 39.868906 
L 90.260854 37.647966 
L 93.202847 35.473076 
L 96.439039 33.365179 
L 99.96943 31.339225 
L 103.794021 29.406128 
L 107.912811 27.57433 
L 112.4729 25.797399 
L 117.327188 24.149897 
L 122.475675 22.637803 
L 127.918362 21.269193 
L 133.655248 20.055062 
L 139.686333 19.010288 
L 145.717418 18.189329 
L 151.895603 17.573728 
L 157.926688 17.192846 
L 163.957773 17.035483 
L 169.694659 17.104298 
L 175.284445 17.391879 
L 180.580032 17.884273 
L 185.58142 18.567919 
L 190.288609 19.429944 
L 194.701598 20.457515 
L 198.820388 21.637237 
L 202.644978 22.954529 
L 206.322469 24.458061 
L 209.705761 26.085211 
L 212.794853 27.816183 
L 215.589746 29.626542 
L 218.23754 31.603111 
L 220.591134 33.623065 
L 222.797629 35.796602 
L 224.857024 38.132635 
L 226.769319 40.641433 
L 228.534515 43.334476 
L 230.152611 46.224023 
L 231.623607 49.322138 
L 232.947504 52.63871 
L 234.124301 56.177635 
L 235.153998 59.929693 
L 236.183696 64.600496 
L 237.066294 69.762815 
L 237.801792 75.44724 
L 238.39019 81.603627 
L 238.831489 87.958404 
L 239.272788 97.417436 
L 239.566988 107.858029 
L 239.714087 116.33414 
L 239.861187 131.53772 
L 240.008286 167.250614 
L 240.302486 113.541734 
L 240.743785 96.25779 
L 241.185084 87.182413 
L 241.773482 79.285967 
L 242.50898 72.466589 
L 243.391578 66.527361 
L 244.421276 61.294033 
L 245.450973 57.156902 
L 246.62777 53.292181 
L 247.951667 49.691675 
L 249.422663 46.338261 
L 251.040759 43.212249 
L 252.805955 40.294353 
L 254.71825 37.566952 
L 256.777645 35.014538 
L 258.98414 32.623753 
L 261.484834 30.252324 
L 264.132627 28.052915 
L 267.07462 25.910562 
L 270.163712 23.938537 
L 273.547004 22.046123 
L 277.224495 20.251783 
L 281.196185 18.570283 
L 285.462075 17.013658 
L 290.022164 15.591936 
L 294.876452 14.313677 
L 300.024939 13.186381 
L 305.614725 12.193508 
L 311.498711 11.375522 
L 317.823995 10.724914 
L 324.443479 10.269625 
L 331.357162 10.015644 
L 338.565044 9.97106 
L 346.067126 10.147127 
L 353.716307 10.549908 
L 361.365488 11.174848 
L 368.86757 12.008017 
L 376.222552 13.04905 
L 383.136235 14.249573 
L 389.608619 15.593916 
L 395.639704 17.069021 
L 401.22949 18.662756 
L 406.377978 20.362298 
L 411.085166 22.152459 
L 415.351056 24.01389 
L 418.587248 25.610961 
L 418.587248 25.610961 
" style="fill:none;stroke:#1f77b4;stroke-linecap:square;stroke-width:1.5;"/>
   </g>
   <g id="line2d_48">
    <path clip-path="url(#p144fc82e31)" d="M 61.410081 75.702964 
L 71.659451 78.422131 
L 79.908944 80.833046 
L 86.801377 83.072132 
L 92.658159 85.201815 
L 97.729276 87.277614 
L 102.121863 89.310851 
L 105.978769 91.3369 
L 109.371417 93.365968 
L 112.371233 95.414102 
L 115.049639 97.507826 
L 117.442349 99.65617 
L 119.585075 101.873047 
L 121.54924 104.226788 
L 123.299132 106.668487 
L 124.906176 109.295557 
L 126.370372 112.125675 
L 127.691719 115.174704 
L 128.870218 118.453383 
L 129.941581 122.095639 
L 130.905807 126.177662 
L 131.762897 130.801571 
L 132.512851 136.108759 
L 133.155669 142.30258 
L 133.69135 149.688528 
L 134.119895 158.746707 
L 134.441304 170.248109 
L 134.655576 185.221394 
L 134.770397 204.417438 
M 134.914828 204.417438 
L 135.119834 177.382135 
L 135.441242 162.108015 
L 135.905499 150.656088 
L 136.476893 142.009089 
L 137.155423 134.963036 
L 137.976801 128.723994 
L 138.905315 123.320828 
L 139.976678 118.364186 
L 141.190889 113.776773 
L 142.58366 109.385481 
L 144.154992 105.173448 
L 145.940597 101.033314 
L 147.976186 96.886585 
L 150.297471 92.666613 
L 153.047302 88.138692 
L 156.368527 83.112122 
L 160.332569 77.521969 
L 163.975202 72.740584 
L 166.403624 69.888448 
L 168.04638 68.278529 
L 169.224879 67.406894 
L 170.153393 66.978293 
L 170.903347 66.866637 
L 171.546165 66.993505 
L 172.117558 67.328059 
L 172.688951 67.927125 
L 173.260345 68.861664 
L 173.831738 70.227786 
L 174.438844 72.30529 
L 175.010237 75.069226 
L 175.581631 78.975387 
L 176.117312 84.276236 
L 176.581569 91.151505 
L 176.974402 100.434761 
L 177.260099 112.332094 
L 177.474371 132.083821 
L 177.581508 172.166896 
L 177.652932 147.799992 
L 177.867204 116.538033 
L 178.188613 101.05295 
L 178.617158 90.393738 
L 179.15284 82.35023 
L 179.759945 76.3837 
L 180.438475 71.836334 
L 181.152717 68.525987 
L 181.866958 66.222787 
L 182.5812 64.629298 
L 183.295442 63.554334 
L 184.009684 62.8659 
L 184.759638 62.455369 
L 185.545304 62.282377 
L 186.438106 62.320734 
L 187.509469 62.600629 
L 188.866528 63.19702 
L 190.759269 64.290492 
L 193.937645 66.422148 
L 206.5083 75.300455 
L 209.472403 77.658648 
L 211.47228 79.526964 
L 212.936476 81.18793 
L 214.114975 82.85886 
L 215.079201 84.617715 
L 215.900579 86.599772 
L 216.579109 88.815099 
L 217.186215 91.566207 
L 217.721896 95.060588 
L 218.186153 99.579043 
L 218.578986 105.500433 
L 218.936107 114.52562 
L 219.186092 126.156514 
L 219.364652 144.049283 
L 219.436076 161.848625 
L 219.471788 187.731122 
L 219.507501 177.211143 
L 219.686061 134.564038 
L 219.971758 119.010002 
L 220.221742 114.288666 
L 220.328879 113.928368 
L 220.364591 114.039527 
L 220.471727 115.168188 
L 220.614575 119.112347 
L 220.757424 128.241559 
L 220.86456 145.879693 
L 220.935984 187.392728 
L 220.971696 152.230195 
L 221.185969 114.999002 
L 221.507378 97.840376 
L 221.90021 88.338943 
L 222.293043 83.710757 
L 222.685876 81.38627 
L 223.078709 80.248711 
L 223.471542 79.75167 
L 223.864375 79.613327 
L 224.328633 79.71005 
L 225.007162 80.116367 
L 226.149949 81.102225 
L 228.22125 83.213273 
L 230.185415 85.50609 
L 231.613899 87.509577 
L 232.720974 89.433857 
L 233.649488 91.486109 
L 234.435154 93.751154 
L 235.149396 96.525265 
L 235.756501 99.809227 
L 236.292182 103.976462 
L 236.75644 109.41166 
L 237.149273 116.762972 
L 237.470681 127.380395 
L 237.684954 141.656679 
L 237.827802 168.28164 
L 237.863514 193.966077 
L 237.899226 183.536855 
L 238.077787 140.105901 
L 238.363484 122.647194 
L 238.720605 112.716923 
L 239.042013 108.828777 
L 239.184862 108.492787 
L 239.291998 108.908107 
L 239.434846 110.584174 
L 239.613407 115.328489 
L 239.791967 126.125185 
L 239.899103 141.979652 
L 239.970528 190.747104 
L 240.00624 160.155589 
L 240.1848 120.402302 
L 240.470497 102.601553 
L 240.827618 92.501728 
L 241.220451 87.027043 
L 241.613284 84.324392 
L 242.006117 83.045415 
L 242.363238 82.559856 
L 242.684646 82.445419 
L 243.077479 82.556634 
L 243.613161 82.967836 
L 244.470251 83.946348 
L 245.64875 85.649411 
L 246.648688 87.463768 
L 247.398642 89.264674 
L 248.005748 91.301949 
L 248.505717 93.775404 
L 248.934262 97.072402 
L 249.291383 101.565877 
L 249.612792 108.676123 
L 249.862776 119.257429 
L 250.041337 135.297104 
L 250.148473 162.240552 
L 250.177204 204.417438 
M 250.191718 204.417438 
L 250.327034 139.494894 
L 250.505594 129.696693 
L 250.541306 129.667607 
L 250.61273 131.554495 
L 250.719867 142.571327 
L 250.791291 176.40395 
L 250.827003 165.126351 
L 251.005563 118.130467 
L 251.29126 99.287259 
L 251.612669 91.314159 
L 251.934078 88.093522 
L 252.255486 86.763019 
L 252.576895 86.258931 
L 252.898304 86.143125 
L 253.291137 86.252728 
L 254.005379 86.735008 
L 262.861977 93.631397 
L 268.754472 98.066582 
L 272.254256 100.981648 
L 275.146936 103.672456 
L 277.682494 106.332752 
L 279.896643 108.973878 
L 281.89652 111.706548 
L 283.682125 114.524682 
L 285.289169 117.477898 
L 286.753365 120.643751 
L 288.074712 124.04745 
L 289.253211 127.711964 
L 290.288861 131.652756 
L 291.217376 136.056557 
L 292.038754 141.04002 
L 292.752996 146.768244 
L 293.360101 153.48566 
L 293.86007 161.574337 
L 294.252903 171.670181 
L 294.5386 184.8878 
L 294.724931 204.417438 
M 294.948246 204.417438 
L 295.181418 181.919342 
L 295.538539 167.864417 
L 296.002796 157.797476 
L 296.609901 149.454686 
L 297.324143 142.683783 
L 298.145521 136.941118 
L 299.109748 131.755914 
L 300.18111 127.178827 
L 301.395321 122.945096 
L 302.752381 119.005301 
L 304.288 115.23231 
L 306.002181 111.617607 
L 307.894921 108.143178 
L 310.037647 104.677039 
L 312.466069 101.177769 
L 315.251612 97.56147 
L 318.537124 93.672144 
L 322.57259 89.253021 
L 328.500797 83.125658 
L 338.143061 73.156502 
L 343.071329 67.705427 
L 350.285171 59.654024 
L 351.570807 58.600796 
L 352.499321 58.111311 
L 353.177851 57.984204 
L 353.749244 58.094029 
L 354.249213 58.409251 
L 354.749183 58.993958 
L 355.249152 59.932984 
L 355.784833 61.467479 
L 356.320515 63.760128 
L 356.856196 67.158188 
L 357.356165 71.881586 
L 357.820422 78.590747 
L 358.213255 87.821208 
L 358.498952 99.720187 
L 358.713225 119.388601 
L 358.820361 157.936799 
L 358.891785 136.01469 
L 359.106057 104.448803 
L 359.427466 89.206942 
L 359.856011 79.100166 
L 360.355981 72.412395 
L 360.85595 68.452998 
L 361.320207 66.345881 
L 361.71304 65.478749 
L 361.998737 65.31452 
L 362.213009 65.438609 
L 362.498706 65.935176 
L 362.855827 67.114602 
L 363.284372 69.457575 
L 363.748629 73.438798 
L 364.212886 79.588287 
L 364.641431 88.493913 
L 364.998552 100.703051 
L 365.248537 115.984586 
L 365.427097 141.51346 
L 365.498521 197.843947 
L 365.534234 160.287778 
L 365.712794 125.154689 
L 365.962779 114.220871 
L 366.177051 112.106879 
L 366.248475 112.401699 
L 366.391324 114.588247 
L 366.569884 121.636011 
L 366.712733 135.751214 
L 366.784157 155.345798 
L 366.819489 204.417438 
M 366.820268 204.417438 
L 366.962717 127.928674 
L 367.248414 103.421086 
L 367.641247 88.307179 
L 368.105504 78.228001 
L 368.641185 71.216095 
L 369.176867 66.865222 
L 369.74826 63.942054 
L 370.319654 62.116744 
L 370.891047 60.992437 
L 371.46244 60.329991 
L 372.069546 59.965572 
L 372.712364 59.837126 
L 373.498029 59.917473 
L 374.497968 60.255539 
L 375.962164 61.010951 
L 378.533434 62.633284 
L 385.175883 66.872614 
L 389.389909 69.258855 
L 393.782496 71.487813 
L 398.567916 73.663607 
L 403.889017 75.833947 
L 409.852936 78.021675 
L 416.638233 80.268502 
L 418.530974 80.85789 
L 418.530974 80.85789 
" style="fill:none;stroke:#ff7f0e;stroke-dasharray:5.55,2.4;stroke-dashoffset:0;stroke-width:1.5;"/>
   </g>
   <g id="patch_3">
    <path d="M 61.410938 151.344 
L 61.410938 7.2 
" style="fill:none;stroke:#000000;stroke-linecap:square;stroke-linejoin:miter;stroke-width:0.8;"/>
   </g>
   <g id="patch_4">
    <path d="M 418.530938 151.344 
L 418.530938 7.2 
" style="fill:none;stroke:#000000;stroke-linecap:square;stroke-linejoin:miter;stroke-width:0.8;"/>
   </g>
   <g id="patch_5">
    <path d="M 61.410937 151.344 
L 418.530938 151.344 
" style="fill:none;stroke:#000000;stroke-linecap:square;stroke-linejoin:miter;stroke-width:0.8;"/>
   </g>
   <g id="patch_6">
    <path d="M 61.410937 7.2 
L 418.530938 7.2 
" style="fill:none;stroke:#000000;stroke-linecap:square;stroke-linejoin:miter;stroke-width:0.8;"/>
   </g>
   <g id="legend_1">
    <g id="patch_7">
     <path d="M 92.554137 78.664198 
L 162.786937 78.664198 
Q 165.562938 78.664198 165.562938 75.888198 
L 165.562938 36.529722 
Q 165.562938 33.753722 162.786937 33.753722 
L 92.554137 33.753722 
Q 89.778137 33.753722 89.778137 36.529722 
L 89.778137 75.888198 
Q 89.778137 78.664198 92.554137 78.664198 
z
" style="fill:#ffffff;opacity:0.8;stroke:#cccccc;stroke-linejoin:miter;"/>
    </g>
    <g id="line2d_49">
     <path d="M 95.330138 44.994354 
L 109.210138 44.994354 
" style="fill:none;stroke:#1f77b4;stroke-linecap:square;stroke-width:1.5;"/>
    </g>
    <g id="line2d_50"/>
    <g id="text_13">
     <!-- $v'=0$ -->
     <g transform="translate(113.374138 49.852354)scale(0.1388 -0.1388)">
      <defs>
       <path d="M 7.171875 54.6875 
L 16.703125 54.6875 
L 24.703125 8.203125 
L 50.875 54.6875 
L 60.40625 54.6875 
L 29.296875 0 
L 17.1875 0 
z
" id="DejaVuSans-Oblique-118"/>
       <path d="M 3.515625 5.421875 
Q 2.875 5.609375 2.875 6.390625 
L 15.09375 51.8125 
Q 15.671875 53.65625 17.078125 54.78125 
Q 18.5 55.90625 20.3125 55.90625 
Q 22.65625 55.90625 24.4375 54.359375 
Q 26.21875 52.828125 26.21875 50.484375 
Q 26.21875 49.46875 25.6875 48.1875 
L 7.625 4.984375 
Q 7.28125 4.296875 6.6875 4.296875 
Q 6.15625 4.296875 5 4.78125 
Q 3.859375 5.28125 3.515625 5.421875 
z
" id="Cmsy10-48"/>
       <path d="M 10.59375 45.40625 
L 73.1875 45.40625 
L 73.1875 37.203125 
L 10.59375 37.203125 
z
M 10.59375 25.484375 
L 73.1875 25.484375 
L 73.1875 17.1875 
L 10.59375 17.1875 
z
" id="DejaVuSans-61"/>
      </defs>
      <use transform="translate(0 0.584375)" xlink:href="#DejaVuSans-Oblique-118"/>
      <use transform="translate(63.645833 38.865625)scale(0.7)" xlink:href="#Cmsy10-48"/>
      <use transform="translate(105.105794 0.584375)" xlink:href="#DejaVuSans-61"/>
      <use transform="translate(208.377279 0.584375)" xlink:href="#DejaVuSans-48"/>
     </g>
    </g>
    <g id="line2d_51">
     <path d="M 95.330138 65.367591 
L 109.210138 65.367591 
" style="fill:none;stroke:#ff7f0e;stroke-dasharray:5.55,2.4;stroke-dashoffset:0;stroke-width:1.5;"/>
    </g>
    <g id="line2d_52"/>
    <g id="text_14">
     <!-- $v'=40$ -->
     <g transform="translate(113.374138 70.225591)scale(0.1388 -0.1388)">
      <defs>
       <path d="M 37.796875 64.3125 
L 12.890625 25.390625 
L 37.796875 25.390625 
z
M 35.203125 72.90625 
L 47.609375 72.90625 
L 47.609375 25.390625 
L 58.015625 25.390625 
L 58.015625 17.1875 
L 47.609375 17.1875 
L 47.609375 0 
L 37.796875 0 
L 37.796875 17.1875 
L 4.890625 17.1875 
L 4.890625 26.703125 
z
" id="DejaVuSans-52"/>
      </defs>
      <use transform="translate(0 0.584375)" xlink:href="#DejaVuSans-Oblique-118"/>
      <use transform="translate(63.645833 38.865625)scale(0.7)" xlink:href="#Cmsy10-48"/>
      <use transform="translate(105.105794 0.584375)" xlink:href="#DejaVuSans-61"/>
      <use transform="translate(208.377279 0.584375)" xlink:href="#DejaVuSans-52"/>
      <use transform="translate(272.000326 0.584375)" xlink:href="#DejaVuSans-48"/>
     </g>
    </g>
   </g>
  </g>
 </g>
 <defs>
  <clipPath id="p144fc82e31">
   <rect height="144.144" width="357.12" x="61.410938" y="7.2"/>
  </clipPath>
 </defs>
</svg>
