<?xml version="1.0" encoding="utf-8" standalone="no"?>
<!DOCTYPE svg PUBLIC "-//W3C//DTD SVG 1.1//EN"
  "http://www.w3.org/Graphics/SVG/1.1/DTD/svg11.dtd">
<!-- Created with matplotlib (https://matplotlib.org/) -->
<svg height="360.356586pt" version="1.1" viewBox="0 0 424.145895 360.356586" width="424.145895pt" xmlns="http://www.w3.org/2000/svg" xmlns:xlink="http://www.w3.org/1999/xlink">
 <defs>
  <style type="text/css">*{stroke-linecap:butt;stroke-linejoin:round;}</style>
 </defs>
 <g id="figure_1">
  <g id="patch_1">
   <path d="M 0 360.356586 
L 424.145895 360.356586 
L 424.145895 0 
L 0 0 
z
" style="fill:none;"/>
  </g>
  <g id="axes_1">
   <g id="patch_2">
    <path d="M 65.205562 308.283148 
L 362.507962 308.283148 
L 362.507962 12.898828 
L 65.205562 12.898828 
z
" style="fill:none;"/>
   </g>
   <g id="matplotlib.axis_1"/>
   <g id="matplotlib.axis_2">
    <g id="text_1">
     <!-- $\Omega_{R}$ and $\Gamma_{s}$ ($2\pi\cdot \mathrm{kHz})$ -->
     <g transform="translate(22.396875 257.290988)rotate(-90)scale(0.2 -0.2)">
      <defs>
       <path d="M 72.609375 8.6875 
L 72.609375 0 
L 43.3125 0 
L 43.3125 8.6875 
Q 51.953125 13.421875 56.78125 21.53125 
Q 61.625 29.640625 61.625 39.5 
Q 61.625 51.21875 55.171875 58.296875 
Q 48.734375 65.375 38.1875 65.375 
Q 27.640625 65.375 21.171875 58.265625 
Q 14.703125 51.171875 14.703125 39.5 
Q 14.703125 29.640625 19.53125 21.53125 
Q 24.421875 13.421875 33.109375 8.6875 
L 33.109375 0 
L 3.8125 0 
L 3.8125 8.6875 
L 19.390625 8.6875 
Q 11.671875 15.484375 8.109375 22.75 
Q 4.59375 30.03125 4.59375 39.015625 
Q 4.59375 54.546875 13.96875 64.15625 
Q 23.296875 73.78125 38.1875 73.78125 
Q 52.984375 73.78125 62.40625 64.15625 
Q 71.78125 54.59375 71.78125 39.5 
Q 71.78125 30.03125 68.3125 22.796875 
Q 64.84375 15.578125 56.984375 8.6875 
z
" id="DejaVuSans-937"/>
       <path d="M 25.203125 64.796875 
L 20.21875 38.921875 
L 32.90625 38.921875 
Q 40.375 38.921875 44.984375 43.046875 
Q 49.609375 47.171875 49.609375 53.8125 
Q 49.609375 59.125 46.5 61.953125 
Q 43.40625 64.796875 37.59375 64.796875 
z
M 43.3125 35.015625 
Q 46.4375 34.28125 48.515625 31.390625 
Q 50.59375 28.515625 53.328125 19.921875 
L 59.515625 0 
L 49.125 0 
L 43.40625 18.703125 
Q 41.21875 25.921875 38.328125 28.359375 
Q 35.453125 30.8125 29.5 30.8125 
L 18.609375 30.8125 
L 12.59375 0 
L 2.6875 0 
L 16.890625 72.90625 
L 39.109375 72.90625 
Q 49.21875 72.90625 54.609375 68.328125 
Q 60.015625 63.765625 60.015625 55.171875 
Q 60.015625 47.5625 55.421875 41.984375 
Q 50.828125 36.421875 43.3125 35.015625 
z
" id="DejaVuSans-Oblique-82"/>
       <path id="DejaVuSans-32"/>
       <path d="M 34.28125 27.484375 
Q 23.390625 27.484375 19.1875 25 
Q 14.984375 22.515625 14.984375 16.5 
Q 14.984375 11.71875 18.140625 8.90625 
Q 21.296875 6.109375 26.703125 6.109375 
Q 34.1875 6.109375 38.703125 11.40625 
Q 43.21875 16.703125 43.21875 25.484375 
L 43.21875 27.484375 
z
M 52.203125 31.203125 
L 52.203125 0 
L 43.21875 0 
L 43.21875 8.296875 
Q 40.140625 3.328125 35.546875 0.953125 
Q 30.953125 -1.421875 24.3125 -1.421875 
Q 15.921875 -1.421875 10.953125 3.296875 
Q 6 8.015625 6 15.921875 
Q 6 25.140625 12.171875 29.828125 
Q 18.359375 34.515625 30.609375 34.515625 
L 43.21875 34.515625 
L 43.21875 35.40625 
Q 43.21875 41.609375 39.140625 45 
Q 35.0625 48.390625 27.6875 48.390625 
Q 23 48.390625 18.546875 47.265625 
Q 14.109375 46.140625 10.015625 43.890625 
L 10.015625 52.203125 
Q 14.9375 54.109375 19.578125 55.046875 
Q 24.21875 56 28.609375 56 
Q 40.484375 56 46.34375 49.84375 
Q 52.203125 43.703125 52.203125 31.203125 
z
" id="DejaVuSans-97"/>
       <path d="M 54.890625 33.015625 
L 54.890625 0 
L 45.90625 0 
L 45.90625 32.71875 
Q 45.90625 40.484375 42.875 44.328125 
Q 39.84375 48.1875 33.796875 48.1875 
Q 26.515625 48.1875 22.3125 43.546875 
Q 18.109375 38.921875 18.109375 30.90625 
L 18.109375 0 
L 9.078125 0 
L 9.078125 54.6875 
L 18.109375 54.6875 
L 18.109375 46.1875 
Q 21.34375 51.125 25.703125 53.5625 
Q 30.078125 56 35.796875 56 
Q 45.21875 56 50.046875 50.171875 
Q 54.890625 44.34375 54.890625 33.015625 
z
" id="DejaVuSans-110"/>
       <path d="M 45.40625 46.390625 
L 45.40625 75.984375 
L 54.390625 75.984375 
L 54.390625 0 
L 45.40625 0 
L 45.40625 8.203125 
Q 42.578125 3.328125 38.25 0.953125 
Q 33.9375 -1.421875 27.875 -1.421875 
Q 17.96875 -1.421875 11.734375 6.484375 
Q 5.515625 14.40625 5.515625 27.296875 
Q 5.515625 40.1875 11.734375 48.09375 
Q 17.96875 56 27.875 56 
Q 33.9375 56 38.25 53.625 
Q 42.578125 51.265625 45.40625 46.390625 
z
M 14.796875 27.296875 
Q 14.796875 17.390625 18.875 11.75 
Q 22.953125 6.109375 30.078125 6.109375 
Q 37.203125 6.109375 41.296875 11.75 
Q 45.40625 17.390625 45.40625 27.296875 
Q 45.40625 37.203125 41.296875 42.84375 
Q 37.203125 48.484375 30.078125 48.484375 
Q 22.953125 48.484375 18.875 42.84375 
Q 14.796875 37.203125 14.796875 27.296875 
z
" id="DejaVuSans-100"/>
       <path d="M 9.8125 0 
L 9.8125 72.90625 
L 55.171875 72.90625 
L 55.171875 64.59375 
L 19.671875 64.59375 
L 19.671875 0 
z
" id="DejaVuSans-915"/>
       <path d="M 50 53.078125 
L 48.296875 44.578125 
Q 44.734375 46.53125 40.765625 47.5 
Q 36.8125 48.484375 32.625 48.484375 
Q 25.53125 48.484375 21.453125 46.0625 
Q 17.390625 43.65625 17.390625 39.5 
Q 17.390625 34.671875 26.859375 32.078125 
Q 27.59375 31.890625 27.9375 31.78125 
L 30.8125 30.90625 
Q 39.796875 28.421875 42.796875 25.6875 
Q 45.796875 22.953125 45.796875 18.21875 
Q 45.796875 9.515625 38.890625 4.046875 
Q 31.984375 -1.421875 20.796875 -1.421875 
Q 16.453125 -1.421875 11.671875 -0.578125 
Q 6.890625 0.25 1.125 2 
L 2.875 11.28125 
Q 7.8125 8.734375 12.59375 7.421875 
Q 17.390625 6.109375 21.78125 6.109375 
Q 28.375 6.109375 32.5 8.9375 
Q 36.625 11.765625 36.625 16.109375 
Q 36.625 20.796875 25.78125 23.6875 
L 24.859375 23.921875 
L 21.78125 24.703125 
Q 14.9375 26.515625 11.765625 29.46875 
Q 8.59375 32.421875 8.59375 37.015625 
Q 8.59375 45.75 15.15625 50.875 
Q 21.734375 56 33.015625 56 
Q 37.453125 56 41.671875 55.265625 
Q 45.90625 54.546875 50 53.078125 
z
" id="DejaVuSans-Oblique-115"/>
       <path d="M 31 75.875 
Q 24.46875 64.65625 21.28125 53.65625 
Q 18.109375 42.671875 18.109375 31.390625 
Q 18.109375 20.125 21.3125 9.0625 
Q 24.515625 -2 31 -13.1875 
L 23.1875 -13.1875 
Q 15.875 -1.703125 12.234375 9.375 
Q 8.59375 20.453125 8.59375 31.390625 
Q 8.59375 42.28125 12.203125 53.3125 
Q 15.828125 64.359375 23.1875 75.875 
z
" id="DejaVuSans-40"/>
       <path d="M 19.1875 8.296875 
L 53.609375 8.296875 
L 53.609375 0 
L 7.328125 0 
L 7.328125 8.296875 
Q 12.9375 14.109375 22.625 23.890625 
Q 32.328125 33.6875 34.8125 36.53125 
Q 39.546875 41.84375 41.421875 45.53125 
Q 43.3125 49.21875 43.3125 52.78125 
Q 43.3125 58.59375 39.234375 62.25 
Q 35.15625 65.921875 28.609375 65.921875 
Q 23.96875 65.921875 18.8125 64.3125 
Q 13.671875 62.703125 7.8125 59.421875 
L 7.8125 69.390625 
Q 13.765625 71.78125 18.9375 73 
Q 24.125 74.21875 28.421875 74.21875 
Q 39.75 74.21875 46.484375 68.546875 
Q 53.21875 62.890625 53.21875 53.421875 
Q 53.21875 48.921875 51.53125 44.890625 
Q 49.859375 40.875 45.40625 35.40625 
Q 44.1875 33.984375 37.640625 27.21875 
Q 31.109375 20.453125 19.1875 8.296875 
z
" id="DejaVuSans-50"/>
       <path d="M 9.125 54.6875 
L 61.53125 54.6875 
L 59.765625 45.703125 
L 52.875 45.703125 
L 46.34375 12.109375 
Q 45.65625 8.59375 46.578125 7.03125 
Q 47.46875 5.515625 50.140625 5.515625 
Q 50.875 5.515625 51.953125 5.671875 
Q 53.078125 5.765625 53.421875 5.8125 
L 52.15625 -0.6875 
Q 50.34375 -1.3125 48.484375 -1.609375 
Q 46.578125 -1.90625 44.78125 -1.90625 
Q 38.921875 -1.90625 37.3125 1.265625 
Q 35.6875 4.5 37.359375 13.09375 
L 43.703125 45.703125 
L 23.53125 45.703125 
L 14.65625 0 
L 5.46875 0 
L 14.359375 45.703125 
L 7.375 45.703125 
z
" id="DejaVuSans-Oblique-960"/>
       <path d="M 10.6875 40.921875 
L 21 40.921875 
L 21 28.515625 
L 10.6875 28.515625 
z
" id="DejaVuSans-8901"/>
       <path d="M 9.078125 75.984375 
L 18.109375 75.984375 
L 18.109375 31.109375 
L 44.921875 54.6875 
L 56.390625 54.6875 
L 27.390625 29.109375 
L 57.625 0 
L 45.90625 0 
L 18.109375 26.703125 
L 18.109375 0 
L 9.078125 0 
z
" id="DejaVuSans-107"/>
       <path d="M 9.8125 72.90625 
L 19.671875 72.90625 
L 19.671875 43.015625 
L 55.515625 43.015625 
L 55.515625 72.90625 
L 65.375 72.90625 
L 65.375 0 
L 55.515625 0 
L 55.515625 34.71875 
L 19.671875 34.71875 
L 19.671875 0 
L 9.8125 0 
z
" id="DejaVuSans-72"/>
       <path d="M 5.515625 54.6875 
L 48.1875 54.6875 
L 48.1875 46.484375 
L 14.40625 7.171875 
L 48.1875 7.171875 
L 48.1875 0 
L 4.296875 0 
L 4.296875 8.203125 
L 38.09375 47.515625 
L 5.515625 47.515625 
z
" id="DejaVuSans-122"/>
       <path d="M 8.015625 75.875 
L 15.828125 75.875 
Q 23.140625 64.359375 26.78125 53.3125 
Q 30.421875 42.28125 30.421875 31.390625 
Q 30.421875 20.453125 26.78125 9.375 
Q 23.140625 -1.703125 15.828125 -13.1875 
L 8.015625 -13.1875 
Q 14.5 -2 17.703125 9.0625 
Q 20.90625 20.125 20.90625 31.390625 
Q 20.90625 42.671875 17.703125 53.65625 
Q 14.5 64.65625 8.015625 75.875 
z
" id="DejaVuSans-41"/>
      </defs>
      <use transform="translate(0 0.015625)" xlink:href="#DejaVuSans-937"/>
      <use transform="translate(77.373047 -16.390625)scale(0.7)" xlink:href="#DejaVuSans-Oblique-82"/>
      <use transform="translate(128.745117 0.015625)" xlink:href="#DejaVuSans-32"/>
      <use transform="translate(160.532227 0.015625)" xlink:href="#DejaVuSans-97"/>
      <use transform="translate(221.811523 0.015625)" xlink:href="#DejaVuSans-110"/>
      <use transform="translate(285.19043 0.015625)" xlink:href="#DejaVuSans-100"/>
      <use transform="translate(348.666992 0.015625)" xlink:href="#DejaVuSans-32"/>
      <use transform="translate(380.454102 0.015625)" xlink:href="#DejaVuSans-915"/>
      <use transform="translate(437.124023 -16.390625)scale(0.7)" xlink:href="#DejaVuSans-Oblique-115"/>
      <use transform="translate(476.328125 0.015625)" xlink:href="#DejaVuSans-32"/>
      <use transform="translate(508.115234 0.015625)" xlink:href="#DejaVuSans-40"/>
      <use transform="translate(547.128906 0.015625)" xlink:href="#DejaVuSans-50"/>
      <use transform="translate(610.751953 0.015625)" xlink:href="#DejaVuSans-Oblique-960"/>
      <use transform="translate(690.439453 0.015625)" xlink:href="#DejaVuSans-8901"/>
      <use transform="translate(741.708984 0.015625)" xlink:href="#DejaVuSans-107"/>
      <use transform="translate(799.619141 0.015625)" xlink:href="#DejaVuSans-72"/>
      <use transform="translate(874.814453 0.015625)" xlink:href="#DejaVuSans-122"/>
      <use transform="translate(927.304688 0.015625)" xlink:href="#DejaVuSans-41"/>
     </g>
    </g>
   </g>
   <g id="patch_3">
    <path d="M 65.205562 308.283148 
L 65.205562 12.898828 
" style="fill:none;"/>
   </g>
   <g id="patch_4">
    <path d="M 362.507962 308.283148 
L 362.507962 12.898828 
" style="fill:none;"/>
   </g>
   <g id="patch_5">
    <path d="M 65.205562 308.283148 
L 362.507962 308.283148 
" style="fill:none;"/>
   </g>
   <g id="patch_6">
    <path d="M 65.205562 12.898828 
L 362.507962 12.898828 
" style="fill:none;"/>
   </g>
  </g>
  <g id="axes_2">
   <g id="matplotlib.axis_3">
    <g id="text_2">
     <!-- $\Omega_{R}/\Gamma_{s}$ -->
     <g style="fill:#2ca02c;" transform="translate(412.78652 186.490988)rotate(-90)scale(0.2 -0.2)">
      <defs>
       <path d="M 25.390625 72.90625 
L 33.6875 72.90625 
L 8.296875 -9.28125 
L 0 -9.28125 
z
" id="DejaVuSans-47"/>
      </defs>
      <use transform="translate(0 0.21875)" xlink:href="#DejaVuSans-937"/>
      <use transform="translate(77.373047 -16.1875)scale(0.7)" xlink:href="#DejaVuSans-Oblique-82"/>
      <use transform="translate(128.745117 0.21875)" xlink:href="#DejaVuSans-47"/>
      <use transform="translate(162.436523 0.21875)" xlink:href="#DejaVuSans-915"/>
      <use transform="translate(219.106445 -16.1875)scale(0.7)" xlink:href="#DejaVuSans-Oblique-115"/>
     </g>
    </g>
   </g>
   <g id="patch_7">
    <path d="M 65.205562 308.283148 
L 65.205562 12.898828 
" style="fill:none;stroke:#000000;stroke-linecap:square;stroke-linejoin:miter;stroke-width:0.8;"/>
   </g>
   <g id="patch_8">
    <path d="M 362.507962 308.283148 
L 362.507962 12.898828 
" style="fill:none;stroke:#000000;stroke-linecap:square;stroke-linejoin:miter;stroke-width:0.8;"/>
   </g>
   <g id="patch_9">
    <path d="M 65.205562 308.283148 
L 362.507962 308.283148 
" style="fill:none;stroke:#000000;stroke-linecap:square;stroke-linejoin:miter;stroke-width:0.8;"/>
   </g>
   <g id="patch_10">
    <path d="M 65.205562 12.898828 
L 362.507962 12.898828 
" style="fill:none;stroke:#000000;stroke-linecap:square;stroke-linejoin:miter;stroke-width:0.8;"/>
   </g>
  </g>
  <g id="axes_3">
   <g id="patch_11">
    <path d="M 65.205562 160.590988 
L 362.507962 160.590988 
L 362.507962 12.898828 
L 65.205562 12.898828 
z
" style="fill:none;"/>
   </g>
   <g id="matplotlib.axis_4">
    <g id="xtick_1">
     <g id="line2d_1">
      <path clip-path="url(#p3477a10f69)" d="M 128.913219 160.590988 
L 128.913219 12.898828 
" style="fill:none;stroke:#b0b0b0;stroke-linecap:square;stroke-width:0.8;"/>
     </g>
     <g id="line2d_2"/>
    </g>
    <g id="xtick_2">
     <g id="line2d_3">
      <path clip-path="url(#p3477a10f69)" d="M 213.856762 160.590988 
L 213.856762 12.898828 
" style="fill:none;stroke:#b0b0b0;stroke-linecap:square;stroke-width:0.8;"/>
     </g>
     <g id="line2d_4"/>
    </g>
    <g id="xtick_3">
     <g id="line2d_5">
      <path clip-path="url(#p3477a10f69)" d="M 298.800305 160.590988 
L 298.800305 12.898828 
" style="fill:none;stroke:#b0b0b0;stroke-linecap:square;stroke-width:0.8;"/>
     </g>
     <g id="line2d_6"/>
    </g>
   </g>
   <g id="matplotlib.axis_5">
    <g id="ytick_1">
     <g id="line2d_7">
      <path clip-path="url(#p3477a10f69)" d="M 65.205562 160.590988 
L 362.507962 160.590988 
" style="fill:none;stroke:#b0b0b0;stroke-linecap:square;stroke-width:0.8;"/>
     </g>
     <g id="line2d_8">
      <defs>
       <path d="M 0 0 
L -3.5 0 
" id="mc3ce260a5b" style="stroke:#000000;stroke-width:0.8;"/>
      </defs>
      <g>
       <use style="stroke:#000000;stroke-width:0.8;" x="65.205562" xlink:href="#mc3ce260a5b" y="160.590988"/>
      </g>
     </g>
     <g id="text_3">
      <!-- 0 -->
      <g transform="translate(48.661812 166.289816)scale(0.15 -0.15)">
       <defs>
        <path d="M 31.78125 66.40625 
Q 24.171875 66.40625 20.328125 58.90625 
Q 16.5 51.421875 16.5 36.375 
Q 16.5 21.390625 20.328125 13.890625 
Q 24.171875 6.390625 31.78125 6.390625 
Q 39.453125 6.390625 43.28125 13.890625 
Q 47.125 21.390625 47.125 36.375 
Q 47.125 51.421875 43.28125 58.90625 
Q 39.453125 66.40625 31.78125 66.40625 
z
M 31.78125 74.21875 
Q 44.046875 74.21875 50.515625 64.515625 
Q 56.984375 54.828125 56.984375 36.375 
Q 56.984375 17.96875 50.515625 8.265625 
Q 44.046875 -1.421875 31.78125 -1.421875 
Q 19.53125 -1.421875 13.0625 8.265625 
Q 6.59375 17.96875 6.59375 36.375 
Q 6.59375 54.828125 13.0625 64.515625 
Q 19.53125 74.21875 31.78125 74.21875 
z
" id="DejaVuSans-48"/>
       </defs>
       <use xlink:href="#DejaVuSans-48"/>
      </g>
     </g>
    </g>
    <g id="ytick_2">
     <g id="line2d_9">
      <path clip-path="url(#p3477a10f69)" d="M 65.205562 111.360268 
L 362.507962 111.360268 
" style="fill:none;stroke:#b0b0b0;stroke-linecap:square;stroke-width:0.8;"/>
     </g>
     <g id="line2d_10">
      <g>
       <use style="stroke:#000000;stroke-width:0.8;" x="65.205562" xlink:href="#mc3ce260a5b" y="111.360268"/>
      </g>
     </g>
     <g id="text_4">
      <!-- 10 -->
      <g transform="translate(39.118062 117.059096)scale(0.15 -0.15)">
       <defs>
        <path d="M 12.40625 8.296875 
L 28.515625 8.296875 
L 28.515625 63.921875 
L 10.984375 60.40625 
L 10.984375 69.390625 
L 28.421875 72.90625 
L 38.28125 72.90625 
L 38.28125 8.296875 
L 54.390625 8.296875 
L 54.390625 0 
L 12.40625 0 
z
" id="DejaVuSans-49"/>
       </defs>
       <use xlink:href="#DejaVuSans-49"/>
       <use x="63.623047" xlink:href="#DejaVuSans-48"/>
      </g>
     </g>
    </g>
    <g id="ytick_3">
     <g id="line2d_11">
      <path clip-path="url(#p3477a10f69)" d="M 65.205562 62.129548 
L 362.507962 62.129548 
" style="fill:none;stroke:#b0b0b0;stroke-linecap:square;stroke-width:0.8;"/>
     </g>
     <g id="line2d_12">
      <g>
       <use style="stroke:#000000;stroke-width:0.8;" x="65.205562" xlink:href="#mc3ce260a5b" y="62.129548"/>
      </g>
     </g>
     <g id="text_5">
      <!-- 20 -->
      <g transform="translate(39.118062 67.828376)scale(0.15 -0.15)">
       <use xlink:href="#DejaVuSans-50"/>
       <use x="63.623047" xlink:href="#DejaVuSans-48"/>
      </g>
     </g>
    </g>
    <g id="ytick_4">
     <g id="line2d_13">
      <path clip-path="url(#p3477a10f69)" d="M 65.205562 12.898828 
L 362.507962 12.898828 
" style="fill:none;stroke:#b0b0b0;stroke-linecap:square;stroke-width:0.8;"/>
     </g>
     <g id="line2d_14">
      <g>
       <use style="stroke:#000000;stroke-width:0.8;" x="65.205562" xlink:href="#mc3ce260a5b" y="12.898828"/>
      </g>
     </g>
     <g id="text_6">
      <!-- 30 -->
      <g transform="translate(39.118062 18.597656)scale(0.15 -0.15)">
       <defs>
        <path d="M 40.578125 39.3125 
Q 47.65625 37.796875 51.625 33 
Q 55.609375 28.21875 55.609375 21.1875 
Q 55.609375 10.40625 48.1875 4.484375 
Q 40.765625 -1.421875 27.09375 -1.421875 
Q 22.515625 -1.421875 17.65625 -0.515625 
Q 12.796875 0.390625 7.625 2.203125 
L 7.625 11.71875 
Q 11.71875 9.328125 16.59375 8.109375 
Q 21.484375 6.890625 26.8125 6.890625 
Q 36.078125 6.890625 40.9375 10.546875 
Q 45.796875 14.203125 45.796875 21.1875 
Q 45.796875 27.640625 41.28125 31.265625 
Q 36.765625 34.90625 28.71875 34.90625 
L 20.21875 34.90625 
L 20.21875 43.015625 
L 29.109375 43.015625 
Q 36.375 43.015625 40.234375 45.921875 
Q 44.09375 48.828125 44.09375 54.296875 
Q 44.09375 59.90625 40.109375 62.90625 
Q 36.140625 65.921875 28.71875 65.921875 
Q 24.65625 65.921875 20.015625 65.03125 
Q 15.375 64.15625 9.8125 62.3125 
L 9.8125 71.09375 
Q 15.4375 72.65625 20.34375 73.4375 
Q 25.25 74.21875 29.59375 74.21875 
Q 40.828125 74.21875 47.359375 69.109375 
Q 53.90625 64.015625 53.90625 55.328125 
Q 53.90625 49.265625 50.4375 45.09375 
Q 46.96875 40.921875 40.578125 39.3125 
z
" id="DejaVuSans-51"/>
       </defs>
       <use xlink:href="#DejaVuSans-51"/>
       <use x="63.623047" xlink:href="#DejaVuSans-48"/>
      </g>
     </g>
    </g>
   </g>
   <g id="line2d_15">
    <path clip-path="url(#p3477a10f69)" d="M 64.459968 157.591853 
L 91.217318 156.953356 
L 111.28533 156.256175 
L 126.893784 155.491806 
L 139.15757 154.667521 
L 149.191576 153.761003 
L 156.995803 152.835218 
L 163.68514 151.813007 
L 169.259588 150.727549 
L 173.719146 149.642749 
L 177.063815 148.657136 
L 180.408484 147.475113 
L 183.753153 146.031472 
L 185.982932 144.877392 
L 188.212711 143.523545 
L 190.44249 141.913149 
L 192.672269 139.965646 
L 194.902048 137.562811 
L 196.016938 136.137644 
L 197.131827 134.523818 
L 198.246717 132.681216 
L 199.361607 130.557479 
L 200.476496 128.082955 
L 201.591386 125.162904 
L 202.706275 121.665103 
L 203.821165 117.399257 
L 204.936054 112.081197 
L 206.050944 105.266846 
L 207.165834 96.221324 
L 208.280723 83.634313 
L 209.395613 64.919723 
L 210.510502 34.163496 
L 211.16463 -1 
M 216.798592 -1 
L 217.19984 24.840493 
L 218.314729 59.741005 
L 219.429619 80.372206 
L 220.544508 93.999915 
L 221.659398 103.672801 
L 222.774288 110.894278 
L 223.889177 116.491435 
L 225.004067 120.956904 
L 226.118956 124.602397 
L 227.233846 127.634775 
L 228.348735 130.196715 
L 229.463625 132.38981 
L 230.578515 134.288367 
L 232.808294 137.411108 
L 235.038073 139.872663 
L 237.267852 141.862922 
L 239.497631 143.505414 
L 241.72741 144.883965 
L 243.95719 146.057467 
L 247.301858 147.523283 
L 250.646527 148.721714 
L 255.106085 150.016431 
L 259.565644 151.057857 
L 265.140091 152.104349 
L 271.829429 153.093944 
L 279.633656 153.993627 
L 288.552773 154.79128 
L 299.701668 155.554952 
L 313.080343 156.244575 
L 329.803687 156.882601 
L 352.101478 157.493013 
L 363.250374 157.729849 
L 363.250374 157.729849 
" style="fill:none;stroke:#1f77b4;stroke-linecap:square;stroke-width:1.5;"/>
   </g>
   <g id="line2d_16">
    <path clip-path="url(#p3477a10f69)" d="M 64.459968 160.533611 
L 145.846907 160.382452 
L 168.144698 160.151687 
L 179.293594 159.83713 
L 185.982932 159.443306 
L 190.44249 158.974504 
L 193.787159 158.400915 
L 196.016938 157.828008 
L 198.246717 156.994521 
L 199.361607 156.427677 
L 200.476496 155.714662 
L 201.591386 154.800531 
L 202.706275 153.601872 
L 203.821165 151.98708 
L 204.936054 149.738627 
L 206.050944 146.475777 
L 207.165834 141.482131 
L 208.280723 133.276018 
L 209.395613 118.369961 
L 210.510502 86.846742 
L 211.628903 -1 
M 216.451937 -1 
L 217.19984 75.386867 
L 218.314729 113.540842 
L 219.429619 130.804814 
L 220.544508 140.052445 
L 221.659398 145.575605 
L 222.774288 149.135648 
L 223.889177 151.563621 
L 225.004067 153.293187 
L 226.118956 154.568619 
L 227.233846 155.536035 
L 228.348735 156.287185 
L 230.578515 157.361125 
L 232.808294 158.076722 
L 235.038073 158.577329 
L 238.382742 159.086867 
L 242.8423 159.510636 
L 249.531637 159.872837 
L 259.565644 160.147197 
L 276.288987 160.345165 
L 309.735674 160.476629 
L 363.250374 160.533442 
L 363.250374 160.533442 
" style="fill:none;stroke:#ff7f0e;stroke-linecap:square;stroke-width:1.5;"/>
   </g>
   <g id="patch_12">
    <path d="M 65.205562 160.590988 
L 65.205562 12.898828 
" style="fill:none;stroke:#000000;stroke-linecap:square;stroke-linejoin:miter;stroke-width:0.8;"/>
   </g>
   <g id="patch_13">
    <path d="M 362.507962 160.590988 
L 362.507962 12.898828 
" style="fill:none;stroke:#000000;stroke-linecap:square;stroke-linejoin:miter;stroke-width:0.8;"/>
   </g>
   <g id="patch_14">
    <path d="M 65.205562 160.590988 
L 362.507962 160.590988 
" style="fill:none;stroke:#000000;stroke-linecap:square;stroke-linejoin:miter;stroke-width:0.8;"/>
   </g>
   <g id="patch_15">
    <path d="M 65.205562 12.898828 
L 362.507962 12.898828 
" style="fill:none;stroke:#000000;stroke-linecap:square;stroke-linejoin:miter;stroke-width:0.8;"/>
   </g>
   <g id="text_7">
    <!-- v'=0 -->
    <g transform="translate(77.947093 148.283308)scale(0.1666 -0.1666)">
     <defs>
      <path d="M 2.984375 54.6875 
L 12.5 54.6875 
L 29.59375 8.796875 
L 46.6875 54.6875 
L 56.203125 54.6875 
L 35.6875 0 
L 23.484375 0 
z
" id="DejaVuSans-118"/>
      <path d="M 17.921875 72.90625 
L 17.921875 45.796875 
L 9.625 45.796875 
L 9.625 72.90625 
z
" id="DejaVuSans-39"/>
      <path d="M 10.59375 45.40625 
L 73.1875 45.40625 
L 73.1875 37.203125 
L 10.59375 37.203125 
z
M 10.59375 25.484375 
L 73.1875 25.484375 
L 73.1875 17.1875 
L 10.59375 17.1875 
z
" id="DejaVuSans-61"/>
     </defs>
     <use xlink:href="#DejaVuSans-118"/>
     <use x="59.179688" xlink:href="#DejaVuSans-39"/>
     <use x="86.669922" xlink:href="#DejaVuSans-61"/>
     <use x="170.458984" xlink:href="#DejaVuSans-48"/>
    </g>
   </g>
  </g>
  <g id="axes_4">
   <g id="matplotlib.axis_6">
    <g id="ytick_5">
     <g id="line2d_17">
      <defs>
       <path d="M 0 0 
L 3.5 0 
" id="m0e71f88706" style="stroke:#000000;stroke-width:0.8;"/>
      </defs>
      <g>
       <use style="stroke:#000000;stroke-width:0.8;" x="362.507962" xlink:href="#m0e71f88706" y="160.590988"/>
      </g>
     </g>
     <g id="text_8">
      <!-- 0 -->
      <g style="fill:#2ca02c;" transform="translate(369.507962 166.289816)scale(0.15 -0.15)">
       <use xlink:href="#DejaVuSans-48"/>
      </g>
     </g>
    </g>
    <g id="ytick_6">
     <g id="line2d_18">
      <g>
       <use style="stroke:#000000;stroke-width:0.8;" x="362.507962" xlink:href="#m0e71f88706" y="111.360268"/>
      </g>
     </g>
     <g id="text_9">
      <!-- 20 -->
      <g style="fill:#2ca02c;" transform="translate(369.507962 117.059096)scale(0.15 -0.15)">
       <use xlink:href="#DejaVuSans-50"/>
       <use x="63.623047" xlink:href="#DejaVuSans-48"/>
      </g>
     </g>
    </g>
    <g id="ytick_7">
     <g id="line2d_19">
      <g>
       <use style="stroke:#000000;stroke-width:0.8;" x="362.507962" xlink:href="#m0e71f88706" y="62.129548"/>
      </g>
     </g>
     <g id="text_10">
      <!-- 40 -->
      <g style="fill:#2ca02c;" transform="translate(369.507962 67.828376)scale(0.15 -0.15)">
       <defs>
        <path d="M 37.796875 64.3125 
L 12.890625 25.390625 
L 37.796875 25.390625 
z
M 35.203125 72.90625 
L 47.609375 72.90625 
L 47.609375 25.390625 
L 58.015625 25.390625 
L 58.015625 17.1875 
L 47.609375 17.1875 
L 47.609375 0 
L 37.796875 0 
L 37.796875 17.1875 
L 4.890625 17.1875 
L 4.890625 26.703125 
z
" id="DejaVuSans-52"/>
       </defs>
       <use xlink:href="#DejaVuSans-52"/>
       <use x="63.623047" xlink:href="#DejaVuSans-48"/>
      </g>
     </g>
    </g>
    <g id="ytick_8">
     <g id="line2d_20">
      <g>
       <use style="stroke:#000000;stroke-width:0.8;" x="362.507962" xlink:href="#m0e71f88706" y="12.898828"/>
      </g>
     </g>
     <g id="text_11">
      <!-- 60 -->
      <g style="fill:#2ca02c;" transform="translate(369.507962 18.597656)scale(0.15 -0.15)">
       <defs>
        <path d="M 33.015625 40.375 
Q 26.375 40.375 22.484375 35.828125 
Q 18.609375 31.296875 18.609375 23.390625 
Q 18.609375 15.53125 22.484375 10.953125 
Q 26.375 6.390625 33.015625 6.390625 
Q 39.65625 6.390625 43.53125 10.953125 
Q 47.40625 15.53125 47.40625 23.390625 
Q 47.40625 31.296875 43.53125 35.828125 
Q 39.65625 40.375 33.015625 40.375 
z
M 52.59375 71.296875 
L 52.59375 62.3125 
Q 48.875 64.0625 45.09375 64.984375 
Q 41.3125 65.921875 37.59375 65.921875 
Q 27.828125 65.921875 22.671875 59.328125 
Q 17.53125 52.734375 16.796875 39.40625 
Q 19.671875 43.65625 24.015625 45.921875 
Q 28.375 48.1875 33.59375 48.1875 
Q 44.578125 48.1875 50.953125 41.515625 
Q 57.328125 34.859375 57.328125 23.390625 
Q 57.328125 12.15625 50.6875 5.359375 
Q 44.046875 -1.421875 33.015625 -1.421875 
Q 20.359375 -1.421875 13.671875 8.265625 
Q 6.984375 17.96875 6.984375 36.375 
Q 6.984375 53.65625 15.1875 63.9375 
Q 23.390625 74.21875 37.203125 74.21875 
Q 40.921875 74.21875 44.703125 73.484375 
Q 48.484375 72.75 52.59375 71.296875 
z
" id="DejaVuSans-54"/>
       </defs>
       <use xlink:href="#DejaVuSans-54"/>
       <use x="63.623047" xlink:href="#DejaVuSans-48"/>
      </g>
     </g>
    </g>
   </g>
   <g id="line2d_21">
    <path clip-path="url(#p3477a10f69)" d="M 64.459968 31.926159 
L 71.149305 34.392931 
L 76.723753 36.669691 
L 82.298201 39.155747 
L 87.872649 41.85838 
L 93.447097 44.784278 
L 99.021545 47.939409 
L 104.595993 51.328877 
L 110.170441 54.956773 
L 115.744888 58.826032 
L 121.319336 62.938279 
L 126.893784 67.293685 
L 132.468232 71.890826 
L 139.15757 77.721929 
L 145.846907 83.887563 
L 152.536244 90.374763 
L 159.225582 97.166395 
L 167.029809 105.446006 
L 174.834036 114.069673 
L 183.753153 124.284179 
L 193.787159 136.133344 
L 208.280723 153.655904 
L 213.855171 160.44398 
L 214.970061 159.38098 
L 230.578515 140.545292 
L 240.612521 128.759368 
L 249.531637 118.624438 
L 257.335864 110.088762 
L 265.140091 101.914513 
L 271.829429 95.227122 
L 278.518766 88.857031 
L 285.208104 82.821291 
L 291.897441 77.132687 
L 297.471889 72.663717 
L 303.046337 68.444813 
L 308.620785 64.47712 
L 314.195233 60.760142 
L 319.769681 57.291884 
L 325.344128 54.068999 
L 330.918576 51.086946 
L 336.493024 48.340145 
L 342.067472 45.822128 
L 347.64192 43.525689 
L 353.216368 41.443017 
L 358.790816 39.565834 
L 363.250374 38.206251 
L 363.250374 38.206251 
" style="fill:none;stroke:#2ca02c;stroke-linecap:square;stroke-width:1.5;"/>
   </g>
   <g id="patch_16">
    <path d="M 65.205562 160.590988 
L 65.205562 12.898828 
" style="fill:none;stroke:#000000;stroke-linecap:square;stroke-linejoin:miter;stroke-width:0.8;"/>
   </g>
   <g id="patch_17">
    <path d="M 362.507962 160.590988 
L 362.507962 12.898828 
" style="fill:none;stroke:#000000;stroke-linecap:square;stroke-linejoin:miter;stroke-width:0.8;"/>
   </g>
   <g id="patch_18">
    <path d="M 65.205562 160.590988 
L 362.507962 160.590988 
" style="fill:none;stroke:#000000;stroke-linecap:square;stroke-linejoin:miter;stroke-width:0.8;"/>
   </g>
   <g id="patch_19">
    <path d="M 65.205562 12.898828 
L 362.507962 12.898828 
" style="fill:none;stroke:#000000;stroke-linecap:square;stroke-linejoin:miter;stroke-width:0.8;"/>
   </g>
  </g>
  <g id="axes_5">
   <g id="patch_20">
    <path d="M 65.205562 308.283148 
L 362.507962 308.283148 
L 362.507962 160.590988 
L 65.205562 160.590988 
z
" style="fill:none;"/>
   </g>
   <g id="matplotlib.axis_7">
    <g id="xtick_4">
     <g id="line2d_22">
      <path clip-path="url(#pf2a47ceb0a)" d="M 128.913219 308.283148 
L 128.913219 160.590988 
" style="fill:none;stroke:#b0b0b0;stroke-linecap:square;stroke-width:0.8;"/>
     </g>
     <g id="line2d_23">
      <defs>
       <path d="M 0 0 
L 0 3.5 
" id="m005f0a59be" style="stroke:#000000;stroke-width:0.8;"/>
      </defs>
      <g>
       <use style="stroke:#000000;stroke-width:0.8;" x="128.913219" xlink:href="#m005f0a59be" y="308.283148"/>
      </g>
     </g>
     <g id="text_12">
      <!-- −20 -->
      <g transform="translate(113.084704 326.680804)scale(0.15 -0.15)">
       <defs>
        <path d="M 10.59375 35.5 
L 73.1875 35.5 
L 73.1875 27.203125 
L 10.59375 27.203125 
z
" id="DejaVuSans-8722"/>
       </defs>
       <use xlink:href="#DejaVuSans-8722"/>
       <use x="83.789062" xlink:href="#DejaVuSans-50"/>
       <use x="147.412109" xlink:href="#DejaVuSans-48"/>
      </g>
     </g>
    </g>
    <g id="xtick_5">
     <g id="line2d_24">
      <path clip-path="url(#pf2a47ceb0a)" d="M 213.856762 308.283148 
L 213.856762 160.590988 
" style="fill:none;stroke:#b0b0b0;stroke-linecap:square;stroke-width:0.8;"/>
     </g>
     <g id="line2d_25">
      <g>
       <use style="stroke:#000000;stroke-width:0.8;" x="213.856762" xlink:href="#m005f0a59be" y="308.283148"/>
      </g>
     </g>
     <g id="text_13">
      <!-- 0 -->
      <g transform="translate(209.084887 326.680804)scale(0.15 -0.15)">
       <use xlink:href="#DejaVuSans-48"/>
      </g>
     </g>
    </g>
    <g id="xtick_6">
     <g id="line2d_26">
      <path clip-path="url(#pf2a47ceb0a)" d="M 298.800305 308.283148 
L 298.800305 160.590988 
" style="fill:none;stroke:#b0b0b0;stroke-linecap:square;stroke-width:0.8;"/>
     </g>
     <g id="line2d_27">
      <g>
       <use style="stroke:#000000;stroke-width:0.8;" x="298.800305" xlink:href="#m005f0a59be" y="308.283148"/>
      </g>
     </g>
     <g id="text_14">
      <!-- 20 -->
      <g transform="translate(289.256555 326.680804)scale(0.15 -0.15)">
       <use xlink:href="#DejaVuSans-50"/>
       <use x="63.623047" xlink:href="#DejaVuSans-48"/>
      </g>
     </g>
    </g>
    <g id="text_15">
     <!-- One-Photon Detuning (GHz) -->
     <g transform="translate(74.434887 348.997211)scale(0.2 -0.2)">
      <defs>
       <path d="M 39.40625 66.21875 
Q 28.65625 66.21875 22.328125 58.203125 
Q 16.015625 50.203125 16.015625 36.375 
Q 16.015625 22.609375 22.328125 14.59375 
Q 28.65625 6.59375 39.40625 6.59375 
Q 50.140625 6.59375 56.421875 14.59375 
Q 62.703125 22.609375 62.703125 36.375 
Q 62.703125 50.203125 56.421875 58.203125 
Q 50.140625 66.21875 39.40625 66.21875 
z
M 39.40625 74.21875 
Q 54.734375 74.21875 63.90625 63.9375 
Q 73.09375 53.65625 73.09375 36.375 
Q 73.09375 19.140625 63.90625 8.859375 
Q 54.734375 -1.421875 39.40625 -1.421875 
Q 24.03125 -1.421875 14.8125 8.828125 
Q 5.609375 19.09375 5.609375 36.375 
Q 5.609375 53.65625 14.8125 63.9375 
Q 24.03125 74.21875 39.40625 74.21875 
z
" id="DejaVuSans-79"/>
       <path d="M 56.203125 29.59375 
L 56.203125 25.203125 
L 14.890625 25.203125 
Q 15.484375 15.921875 20.484375 11.0625 
Q 25.484375 6.203125 34.421875 6.203125 
Q 39.59375 6.203125 44.453125 7.46875 
Q 49.3125 8.734375 54.109375 11.28125 
L 54.109375 2.78125 
Q 49.265625 0.734375 44.1875 -0.34375 
Q 39.109375 -1.421875 33.890625 -1.421875 
Q 20.796875 -1.421875 13.15625 6.1875 
Q 5.515625 13.8125 5.515625 26.8125 
Q 5.515625 40.234375 12.765625 48.109375 
Q 20.015625 56 32.328125 56 
Q 43.359375 56 49.78125 48.890625 
Q 56.203125 41.796875 56.203125 29.59375 
z
M 47.21875 32.234375 
Q 47.125 39.59375 43.09375 43.984375 
Q 39.0625 48.390625 32.421875 48.390625 
Q 24.90625 48.390625 20.390625 44.140625 
Q 15.875 39.890625 15.1875 32.171875 
z
" id="DejaVuSans-101"/>
       <path d="M 4.890625 31.390625 
L 31.203125 31.390625 
L 31.203125 23.390625 
L 4.890625 23.390625 
z
" id="DejaVuSans-45"/>
       <path d="M 19.671875 64.796875 
L 19.671875 37.40625 
L 32.078125 37.40625 
Q 38.96875 37.40625 42.71875 40.96875 
Q 46.484375 44.53125 46.484375 51.125 
Q 46.484375 57.671875 42.71875 61.234375 
Q 38.96875 64.796875 32.078125 64.796875 
z
M 9.8125 72.90625 
L 32.078125 72.90625 
Q 44.34375 72.90625 50.609375 67.359375 
Q 56.890625 61.8125 56.890625 51.125 
Q 56.890625 40.328125 50.609375 34.8125 
Q 44.34375 29.296875 32.078125 29.296875 
L 19.671875 29.296875 
L 19.671875 0 
L 9.8125 0 
z
" id="DejaVuSans-80"/>
       <path d="M 54.890625 33.015625 
L 54.890625 0 
L 45.90625 0 
L 45.90625 32.71875 
Q 45.90625 40.484375 42.875 44.328125 
Q 39.84375 48.1875 33.796875 48.1875 
Q 26.515625 48.1875 22.3125 43.546875 
Q 18.109375 38.921875 18.109375 30.90625 
L 18.109375 0 
L 9.078125 0 
L 9.078125 75.984375 
L 18.109375 75.984375 
L 18.109375 46.1875 
Q 21.34375 51.125 25.703125 53.5625 
Q 30.078125 56 35.796875 56 
Q 45.21875 56 50.046875 50.171875 
Q 54.890625 44.34375 54.890625 33.015625 
z
" id="DejaVuSans-104"/>
       <path d="M 30.609375 48.390625 
Q 23.390625 48.390625 19.1875 42.75 
Q 14.984375 37.109375 14.984375 27.296875 
Q 14.984375 17.484375 19.15625 11.84375 
Q 23.34375 6.203125 30.609375 6.203125 
Q 37.796875 6.203125 41.984375 11.859375 
Q 46.1875 17.53125 46.1875 27.296875 
Q 46.1875 37.015625 41.984375 42.703125 
Q 37.796875 48.390625 30.609375 48.390625 
z
M 30.609375 56 
Q 42.328125 56 49.015625 48.375 
Q 55.71875 40.765625 55.71875 27.296875 
Q 55.71875 13.875 49.015625 6.21875 
Q 42.328125 -1.421875 30.609375 -1.421875 
Q 18.84375 -1.421875 12.171875 6.21875 
Q 5.515625 13.875 5.515625 27.296875 
Q 5.515625 40.765625 12.171875 48.375 
Q 18.84375 56 30.609375 56 
z
" id="DejaVuSans-111"/>
       <path d="M 18.3125 70.21875 
L 18.3125 54.6875 
L 36.8125 54.6875 
L 36.8125 47.703125 
L 18.3125 47.703125 
L 18.3125 18.015625 
Q 18.3125 11.328125 20.140625 9.421875 
Q 21.96875 7.515625 27.59375 7.515625 
L 36.8125 7.515625 
L 36.8125 0 
L 27.59375 0 
Q 17.1875 0 13.234375 3.875 
Q 9.28125 7.765625 9.28125 18.015625 
L 9.28125 47.703125 
L 2.6875 47.703125 
L 2.6875 54.6875 
L 9.28125 54.6875 
L 9.28125 70.21875 
z
" id="DejaVuSans-116"/>
       <path d="M 19.671875 64.796875 
L 19.671875 8.109375 
L 31.59375 8.109375 
Q 46.6875 8.109375 53.6875 14.9375 
Q 60.6875 21.78125 60.6875 36.53125 
Q 60.6875 51.171875 53.6875 57.984375 
Q 46.6875 64.796875 31.59375 64.796875 
z
M 9.8125 72.90625 
L 30.078125 72.90625 
Q 51.265625 72.90625 61.171875 64.09375 
Q 71.09375 55.28125 71.09375 36.53125 
Q 71.09375 17.671875 61.125 8.828125 
Q 51.171875 0 30.078125 0 
L 9.8125 0 
z
" id="DejaVuSans-68"/>
       <path d="M 8.5 21.578125 
L 8.5 54.6875 
L 17.484375 54.6875 
L 17.484375 21.921875 
Q 17.484375 14.15625 20.5 10.265625 
Q 23.53125 6.390625 29.59375 6.390625 
Q 36.859375 6.390625 41.078125 11.03125 
Q 45.3125 15.671875 45.3125 23.6875 
L 45.3125 54.6875 
L 54.296875 54.6875 
L 54.296875 0 
L 45.3125 0 
L 45.3125 8.40625 
Q 42.046875 3.421875 37.71875 1 
Q 33.40625 -1.421875 27.6875 -1.421875 
Q 18.265625 -1.421875 13.375 4.4375 
Q 8.5 10.296875 8.5 21.578125 
z
M 31.109375 56 
z
" id="DejaVuSans-117"/>
       <path d="M 9.421875 54.6875 
L 18.40625 54.6875 
L 18.40625 0 
L 9.421875 0 
z
M 9.421875 75.984375 
L 18.40625 75.984375 
L 18.40625 64.59375 
L 9.421875 64.59375 
z
" id="DejaVuSans-105"/>
       <path d="M 45.40625 27.984375 
Q 45.40625 37.75 41.375 43.109375 
Q 37.359375 48.484375 30.078125 48.484375 
Q 22.859375 48.484375 18.828125 43.109375 
Q 14.796875 37.75 14.796875 27.984375 
Q 14.796875 18.265625 18.828125 12.890625 
Q 22.859375 7.515625 30.078125 7.515625 
Q 37.359375 7.515625 41.375 12.890625 
Q 45.40625 18.265625 45.40625 27.984375 
z
M 54.390625 6.78125 
Q 54.390625 -7.171875 48.1875 -13.984375 
Q 42 -20.796875 29.203125 -20.796875 
Q 24.46875 -20.796875 20.265625 -20.09375 
Q 16.0625 -19.390625 12.109375 -17.921875 
L 12.109375 -9.1875 
Q 16.0625 -11.328125 19.921875 -12.34375 
Q 23.78125 -13.375 27.78125 -13.375 
Q 36.625 -13.375 41.015625 -8.765625 
Q 45.40625 -4.15625 45.40625 5.171875 
L 45.40625 9.625 
Q 42.625 4.78125 38.28125 2.390625 
Q 33.9375 0 27.875 0 
Q 17.828125 0 11.671875 7.65625 
Q 5.515625 15.328125 5.515625 27.984375 
Q 5.515625 40.671875 11.671875 48.328125 
Q 17.828125 56 27.875 56 
Q 33.9375 56 38.28125 53.609375 
Q 42.625 51.21875 45.40625 46.390625 
L 45.40625 54.6875 
L 54.390625 54.6875 
z
" id="DejaVuSans-103"/>
       <path d="M 59.515625 10.40625 
L 59.515625 29.984375 
L 43.40625 29.984375 
L 43.40625 38.09375 
L 69.28125 38.09375 
L 69.28125 6.78125 
Q 63.578125 2.734375 56.6875 0.65625 
Q 49.8125 -1.421875 42 -1.421875 
Q 24.90625 -1.421875 15.25 8.5625 
Q 5.609375 18.5625 5.609375 36.375 
Q 5.609375 54.25 15.25 64.234375 
Q 24.90625 74.21875 42 74.21875 
Q 49.125 74.21875 55.546875 72.453125 
Q 61.96875 70.703125 67.390625 67.28125 
L 67.390625 56.78125 
Q 61.921875 61.421875 55.765625 63.765625 
Q 49.609375 66.109375 42.828125 66.109375 
Q 29.4375 66.109375 22.71875 58.640625 
Q 16.015625 51.171875 16.015625 36.375 
Q 16.015625 21.625 22.71875 14.15625 
Q 29.4375 6.6875 42.828125 6.6875 
Q 48.046875 6.6875 52.140625 7.59375 
Q 56.25 8.5 59.515625 10.40625 
z
" id="DejaVuSans-71"/>
      </defs>
      <use xlink:href="#DejaVuSans-79"/>
      <use x="78.710938" xlink:href="#DejaVuSans-110"/>
      <use x="142.089844" xlink:href="#DejaVuSans-101"/>
      <use x="203.613281" xlink:href="#DejaVuSans-45"/>
      <use x="239.697266" xlink:href="#DejaVuSans-80"/>
      <use x="300" xlink:href="#DejaVuSans-104"/>
      <use x="363.378906" xlink:href="#DejaVuSans-111"/>
      <use x="424.560547" xlink:href="#DejaVuSans-116"/>
      <use x="463.769531" xlink:href="#DejaVuSans-111"/>
      <use x="524.951172" xlink:href="#DejaVuSans-110"/>
      <use x="588.330078" xlink:href="#DejaVuSans-32"/>
      <use x="620.117188" xlink:href="#DejaVuSans-68"/>
      <use x="697.119141" xlink:href="#DejaVuSans-101"/>
      <use x="758.642578" xlink:href="#DejaVuSans-116"/>
      <use x="797.851562" xlink:href="#DejaVuSans-117"/>
      <use x="861.230469" xlink:href="#DejaVuSans-110"/>
      <use x="924.609375" xlink:href="#DejaVuSans-105"/>
      <use x="952.392578" xlink:href="#DejaVuSans-110"/>
      <use x="1015.771484" xlink:href="#DejaVuSans-103"/>
      <use x="1079.248047" xlink:href="#DejaVuSans-32"/>
      <use x="1111.035156" xlink:href="#DejaVuSans-40"/>
      <use x="1150.048828" xlink:href="#DejaVuSans-71"/>
      <use x="1227.539062" xlink:href="#DejaVuSans-72"/>
      <use x="1302.734375" xlink:href="#DejaVuSans-122"/>
      <use x="1355.224609" xlink:href="#DejaVuSans-41"/>
     </g>
    </g>
   </g>
   <g id="matplotlib.axis_8">
    <g id="ytick_9">
     <g id="line2d_28">
      <path clip-path="url(#pf2a47ceb0a)" d="M 65.205562 308.283148 
L 362.507962 308.283148 
" style="fill:none;stroke:#b0b0b0;stroke-linecap:square;stroke-width:0.8;"/>
     </g>
     <g id="line2d_29">
      <g>
       <use style="stroke:#000000;stroke-width:0.8;" x="65.205562" xlink:href="#mc3ce260a5b" y="308.283148"/>
      </g>
     </g>
     <g id="text_16">
      <!-- 0 -->
      <g transform="translate(48.661812 313.981976)scale(0.15 -0.15)">
       <use xlink:href="#DejaVuSans-48"/>
      </g>
     </g>
    </g>
    <g id="ytick_10">
     <g id="line2d_30">
      <path clip-path="url(#pf2a47ceb0a)" d="M 65.205562 258.722021 
L 362.507962 258.722021 
" style="fill:none;stroke:#b0b0b0;stroke-linecap:square;stroke-width:0.8;"/>
     </g>
     <g id="line2d_31">
      <g>
       <use style="stroke:#000000;stroke-width:0.8;" x="65.205562" xlink:href="#mc3ce260a5b" y="258.722021"/>
      </g>
     </g>
     <g id="text_17">
      <!-- 200 -->
      <g transform="translate(29.574312 264.420849)scale(0.15 -0.15)">
       <use xlink:href="#DejaVuSans-50"/>
       <use x="63.623047" xlink:href="#DejaVuSans-48"/>
       <use x="127.246094" xlink:href="#DejaVuSans-48"/>
      </g>
     </g>
    </g>
    <g id="ytick_11">
     <g id="line2d_32">
      <path clip-path="url(#pf2a47ceb0a)" d="M 65.205562 209.160893 
L 362.507962 209.160893 
" style="fill:none;stroke:#b0b0b0;stroke-linecap:square;stroke-width:0.8;"/>
     </g>
     <g id="line2d_33">
      <g>
       <use style="stroke:#000000;stroke-width:0.8;" x="65.205562" xlink:href="#mc3ce260a5b" y="209.160893"/>
      </g>
     </g>
     <g id="text_18">
      <!-- 400 -->
      <g transform="translate(29.574312 214.859721)scale(0.15 -0.15)">
       <use xlink:href="#DejaVuSans-52"/>
       <use x="63.623047" xlink:href="#DejaVuSans-48"/>
       <use x="127.246094" xlink:href="#DejaVuSans-48"/>
      </g>
     </g>
    </g>
   </g>
   <g id="line2d_34">
    <path clip-path="url(#pf2a47ceb0a)" d="M 65.061933 305.750094 
L 96.406257 305.12583 
L 118.576633 304.474902 
L 134.885874 303.787251 
L 147.372638 303.049493 
L 157.05625 302.265836 
L 164.701207 301.43754 
L 171.072005 300.52779 
L 176.168643 299.583485 
L 180.500785 298.557859 
L 184.068432 297.49227 
L 187.126414 296.354951 
L 189.674733 295.189355 
L 191.968221 293.909895 
L 194.006876 292.525805 
L 195.790699 291.059672 
L 197.319691 289.552194 
L 198.848682 287.73851 
L 200.122841 285.919397 
L 201.397001 283.728977 
L 202.67116 281.040319 
L 203.690488 278.404719 
L 204.709816 275.182193 
L 205.729143 271.151799 
L 206.748471 265.965785 
L 207.512967 260.982569 
L 208.277462 254.633384 
L 209.041958 246.266986 
L 209.806454 234.739923 
L 210.316118 224.287033 
L 210.825781 210.314433 
L 211.335445 190.68406 
L 211.845109 161.086481 
L 212.354773 111.346377 
L 212.609605 71.179383 
L 212.892322 -1 
M 214.814611 -1 
L 215.157924 84.570448 
L 215.667588 147.682273 
L 216.177251 183.122486 
L 216.686915 205.818167 
L 217.451411 227.809873 
L 218.215907 242.096357 
L 218.980402 252.123824 
L 219.744898 259.550003 
L 220.509394 265.27111 
L 221.528721 271.127431 
L 222.548049 275.611585 
L 223.567377 279.155494 
L 224.586704 282.02702 
L 225.860864 284.931741 
L 227.135023 287.280039 
L 228.409183 289.21803 
L 229.938174 291.139299 
L 231.467165 292.727973 
L 233.250989 294.265988 
L 235.289644 295.711601 
L 237.583131 297.042535 
L 240.13145 298.250587 
L 242.934601 299.336801 
L 246.247416 300.38045 
L 250.069894 301.350207 
L 254.656869 302.277623 
L 260.008339 303.130997 
L 266.633968 303.953586 
L 274.788589 304.728189 
L 284.727033 305.441421 
L 297.468628 306.122113 
L 313.77787 306.760571 
L 335.438582 307.374684 
L 362.705595 307.938153 
L 362.705595 307.938153 
" style="fill:none;stroke:#1f77b4;stroke-linecap:square;stroke-width:1.5;"/>
   </g>
   <g id="line2d_35">
    <path clip-path="url(#pf2a47ceb0a)" d="M 65.061933 293.340982 
L 136.414866 292.174617 
L 165.720535 291.507753 
L 178.971794 291.006002 
L 186.361919 290.521667 
L 191.203725 289.990936 
L 194.51654 289.415559 
L 197.064859 288.747282 
L 198.848682 288.077793 
L 200.377673 287.290295 
L 201.651833 286.40362 
L 202.67116 285.471216 
L 203.690488 284.250006 
L 204.709816 282.604247 
L 205.474311 280.960675 
L 206.238807 278.801774 
L 207.003303 275.885022 
L 207.767799 271.806431 
L 208.277462 268.110025 
L 208.787126 263.245401 
L 209.29679 256.661441 
L 209.806454 247.43911 
L 210.316118 233.951944 
L 210.825781 213.095699 
L 211.335445 178.326842 
L 211.845109 113.823987 
L 212.276696 -1 
M 215.417242 -1 
L 215.922419 124.297139 
L 216.432083 183.634171 
L 216.941747 216.109946 
L 217.451411 235.791078 
L 217.961075 248.610569 
L 218.470738 257.422305 
L 219.235234 266.242728 
L 219.99973 271.977318 
L 220.764226 275.912238 
L 221.528721 278.727229 
L 222.293217 280.80897 
L 223.312545 282.833812 
L 224.331872 284.291893 
L 225.3512 285.374941 
L 226.625359 286.375304 
L 228.154351 287.233043 
L 229.938174 287.931558 
L 231.976829 288.479852 
L 234.525148 288.935565 
L 238.092795 289.324852 
L 242.934601 289.605175 
L 250.069894 289.770244 
L 261.282498 289.782233 
L 281.159387 289.551338 
L 319.893836 288.84699 
L 362.705595 287.934238 
L 362.705595 287.934238 
" style="fill:none;stroke:#ff7f0e;stroke-linecap:square;stroke-width:1.5;"/>
   </g>
   <g id="patch_21">
    <path d="M 65.205562 308.283148 
L 65.205562 160.590988 
" style="fill:none;stroke:#000000;stroke-linecap:square;stroke-linejoin:miter;stroke-width:0.8;"/>
   </g>
   <g id="patch_22">
    <path d="M 362.507962 308.283148 
L 362.507962 160.590988 
" style="fill:none;stroke:#000000;stroke-linecap:square;stroke-linejoin:miter;stroke-width:0.8;"/>
   </g>
   <g id="patch_23">
    <path d="M 65.205562 308.283148 
L 362.507962 308.283148 
" style="fill:none;stroke:#000000;stroke-linecap:square;stroke-linejoin:miter;stroke-width:0.8;"/>
   </g>
   <g id="patch_24">
    <path d="M 65.205562 160.590988 
L 362.507962 160.590988 
" style="fill:none;stroke:#000000;stroke-linecap:square;stroke-linejoin:miter;stroke-width:0.8;"/>
   </g>
   <g id="text_19">
    <!-- v'=63 -->
    <g transform="translate(77.947093 276.068415)scale(0.1666 -0.1666)">
     <use xlink:href="#DejaVuSans-118"/>
     <use x="59.179688" xlink:href="#DejaVuSans-39"/>
     <use x="86.669922" xlink:href="#DejaVuSans-61"/>
     <use x="170.458984" xlink:href="#DejaVuSans-54"/>
     <use x="234.082031" xlink:href="#DejaVuSans-51"/>
    </g>
   </g>
  </g>
  <g id="axes_6">
   <g id="matplotlib.axis_9">
    <g id="ytick_12">
     <g id="line2d_36">
      <g>
       <use style="stroke:#000000;stroke-width:0.8;" x="362.507962" xlink:href="#m0e71f88706" y="308.283148"/>
      </g>
     </g>
     <g id="text_20">
      <!-- 0.0 -->
      <g style="fill:#2ca02c;" transform="translate(369.507962 313.981976)scale(0.15 -0.15)">
       <defs>
        <path d="M 10.6875 12.40625 
L 21 12.40625 
L 21 0 
L 10.6875 0 
z
" id="DejaVuSans-46"/>
       </defs>
       <use xlink:href="#DejaVuSans-48"/>
       <use x="63.623047" xlink:href="#DejaVuSans-46"/>
       <use x="95.410156" xlink:href="#DejaVuSans-48"/>
      </g>
     </g>
    </g>
    <g id="ytick_13">
     <g id="line2d_37">
      <g>
       <use style="stroke:#000000;stroke-width:0.8;" x="362.507962" xlink:href="#m0e71f88706" y="258.722021"/>
      </g>
     </g>
     <g id="text_21">
      <!-- 0.5 -->
      <g style="fill:#2ca02c;" transform="translate(369.507962 264.420849)scale(0.15 -0.15)">
       <defs>
        <path d="M 10.796875 72.90625 
L 49.515625 72.90625 
L 49.515625 64.59375 
L 19.828125 64.59375 
L 19.828125 46.734375 
Q 21.96875 47.46875 24.109375 47.828125 
Q 26.265625 48.1875 28.421875 48.1875 
Q 40.625 48.1875 47.75 41.5 
Q 54.890625 34.8125 54.890625 23.390625 
Q 54.890625 11.625 47.5625 5.09375 
Q 40.234375 -1.421875 26.90625 -1.421875 
Q 22.3125 -1.421875 17.546875 -0.640625 
Q 12.796875 0.140625 7.71875 1.703125 
L 7.71875 11.625 
Q 12.109375 9.234375 16.796875 8.0625 
Q 21.484375 6.890625 26.703125 6.890625 
Q 35.15625 6.890625 40.078125 11.328125 
Q 45.015625 15.765625 45.015625 23.390625 
Q 45.015625 31 40.078125 35.4375 
Q 35.15625 39.890625 26.703125 39.890625 
Q 22.75 39.890625 18.8125 39.015625 
Q 14.890625 38.140625 10.796875 36.28125 
z
" id="DejaVuSans-53"/>
       </defs>
       <use xlink:href="#DejaVuSans-48"/>
       <use x="63.623047" xlink:href="#DejaVuSans-46"/>
       <use x="95.410156" xlink:href="#DejaVuSans-53"/>
      </g>
     </g>
    </g>
    <g id="ytick_14">
     <g id="line2d_38">
      <g>
       <use style="stroke:#000000;stroke-width:0.8;" x="362.507962" xlink:href="#m0e71f88706" y="209.160893"/>
      </g>
     </g>
     <g id="text_22">
      <!-- 1.0 -->
      <g style="fill:#2ca02c;" transform="translate(369.507962 214.859721)scale(0.15 -0.15)">
       <use xlink:href="#DejaVuSans-49"/>
       <use x="63.623047" xlink:href="#DejaVuSans-46"/>
       <use x="95.410156" xlink:href="#DejaVuSans-48"/>
      </g>
     </g>
    </g>
   </g>
   <g id="line2d_39">
    <path clip-path="url(#pf2a47ceb0a)" d="M 65.061933 291.479556 
L 79.587351 290.029492 
L 91.819283 288.593186 
L 102.522223 287.119471 
L 111.951003 285.599729 
L 120.105624 284.067707 
L 127.495749 282.455047 
L 134.121379 280.778407 
L 139.982512 279.065563 
L 145.333982 277.265844 
L 150.175789 275.396478 
L 154.507931 273.484359 
L 158.330409 271.567608 
L 161.898056 269.543227 
L 165.210871 267.418183 
L 168.268854 265.204823 
L 171.072005 262.922073 
L 173.875155 260.349227 
L 176.423475 257.710031 
L 178.971794 254.728721 
L 181.265281 251.696803 
L 183.558768 248.270378 
L 185.597423 244.831587 
L 187.636078 240.954168 
L 189.674733 236.557947 
L 191.458557 232.210608 
L 193.24238 227.318219 
L 195.026203 221.798511 
L 196.810027 215.56842 
L 198.59385 208.562294 
L 200.632505 199.605275 
L 205.474311 177.564308 
L 206.238807 175.305157 
L 206.748471 174.361351 
L 207.003303 174.108841 
L 207.258135 174.029098 
L 207.512967 174.14428 
L 207.767799 174.478414 
L 208.277462 175.908934 
L 208.787126 178.54876 
L 209.29679 182.649067 
L 209.806454 188.47239 
L 210.316118 196.272527 
L 211.080613 212.129906 
L 211.845109 233.252147 
L 212.864437 268.830223 
L 213.883764 307.009576 
L 215.412756 248.610591 
L 216.432083 218.669309 
L 217.196579 202.47545 
L 217.961075 191.410781 
L 218.470738 186.525136 
L 218.980402 183.319345 
L 219.490066 181.519886 
L 219.744898 181.066277 
L 219.99973 180.869879 
L 220.254562 180.90287 
L 220.509394 181.139401 
L 221.019057 182.12968 
L 221.528721 183.673301 
L 222.293217 186.731103 
L 223.567377 192.983805 
L 228.409183 218.008436 
L 230.193006 225.84707 
L 231.976829 232.777682 
L 233.760653 238.881277 
L 235.544476 244.259711 
L 237.328299 249.01278 
L 239.366954 253.793352 
L 241.40561 257.987559 
L 243.444265 261.689551 
L 245.737752 265.361387 
L 248.031239 268.596258 
L 250.324726 271.465201 
L 252.873045 274.292861 
L 255.421364 276.801913 
L 258.224515 279.253485 
L 261.282498 281.619677 
L 264.595313 283.881237 
L 268.162959 286.026175 
L 271.985438 288.04834 
L 276.062748 289.946072 
L 280.394891 291.721033 
L 285.236697 293.46334 
L 290.588167 295.147052 
L 296.449301 296.754876 
L 303.07493 298.333275 
L 310.465055 299.854979 
L 318.619676 301.302862 
L 327.793625 302.70403 
L 338.241733 304.071322 
L 350.218832 305.40859 
L 362.705595 306.602632 
L 362.705595 306.602632 
" style="fill:none;stroke:#2ca02c;stroke-linecap:square;stroke-width:1.5;"/>
   </g>
   <g id="patch_25">
    <path d="M 65.205562 308.283148 
L 65.205562 160.590988 
" style="fill:none;stroke:#000000;stroke-linecap:square;stroke-linejoin:miter;stroke-width:0.8;"/>
   </g>
   <g id="patch_26">
    <path d="M 362.507962 308.283148 
L 362.507962 160.590988 
" style="fill:none;stroke:#000000;stroke-linecap:square;stroke-linejoin:miter;stroke-width:0.8;"/>
   </g>
   <g id="patch_27">
    <path d="M 65.205562 308.283148 
L 362.507962 308.283148 
" style="fill:none;stroke:#000000;stroke-linecap:square;stroke-linejoin:miter;stroke-width:0.8;"/>
   </g>
   <g id="patch_28">
    <path d="M 65.205562 160.590988 
L 362.507962 160.590988 
" style="fill:none;stroke:#000000;stroke-linecap:square;stroke-linejoin:miter;stroke-width:0.8;"/>
   </g>
   <g id="legend_1">
    <g id="patch_29">
     <path d="M 290.470762 241.311863 
L 352.791962 241.311863 
Q 355.567962 241.311863 355.567962 238.535863 
L 355.567962 170.306988 
Q 355.567962 167.530988 352.791962 167.530988 
L 290.470762 167.530988 
Q 287.694762 167.530988 287.694762 170.306988 
L 287.694762 238.535863 
Q 287.694762 241.311863 290.470762 241.311863 
z
" style="fill:#ffffff;opacity:0.8;stroke:#cccccc;stroke-linejoin:miter;"/>
    </g>
    <g id="line2d_40">
     <path d="M 293.246762 178.771619 
L 321.006762 178.771619 
" style="fill:none;stroke:#1f77b4;stroke-linecap:square;stroke-width:1.5;"/>
    </g>
    <g id="line2d_41"/>
    <g id="text_23">
     <!-- $\Omega_{R}$ -->
     <g transform="translate(332.110762 183.629619)scale(0.1388 -0.1388)">
      <use transform="translate(0 0.21875)" xlink:href="#DejaVuSans-937"/>
      <use transform="translate(77.373047 -16.1875)scale(0.7)" xlink:href="#DejaVuSans-Oblique-82"/>
     </g>
    </g>
    <g id="line2d_42">
     <path d="M 293.246762 199.144857 
L 321.006762 199.144857 
" style="fill:none;stroke:#ff7f0e;stroke-linecap:square;stroke-width:1.5;"/>
    </g>
    <g id="line2d_43"/>
    <g id="text_24">
     <!-- $\Gamma_{s}$ -->
     <g transform="translate(332.110762 204.002857)scale(0.1388 -0.1388)">
      <use transform="translate(0 0.09375)" xlink:href="#DejaVuSans-915"/>
      <use transform="translate(56.669922 -16.3125)scale(0.7)" xlink:href="#DejaVuSans-Oblique-115"/>
     </g>
    </g>
    <g id="line2d_44">
     <path d="M 293.246762 223.823063 
L 321.006762 223.823063 
" style="fill:none;stroke:#2ca02c;stroke-linecap:square;stroke-width:1.5;"/>
    </g>
    <g id="line2d_45"/>
    <g id="text_25">
     <!-- $\frac{\Omega_{R}}{\Gamma_{s}}$ -->
     <g transform="translate(332.110762 228.681063)scale(0.1388 -0.1388)">
      <use transform="translate(0 55.353125)scale(0.7)" xlink:href="#DejaVuSans-937"/>
      <use transform="translate(54.161133 43.86875)scale(0.49)" xlink:href="#DejaVuSans-Oblique-82"/>
      <use transform="translate(12 -38.415625)scale(0.7)" xlink:href="#DejaVuSans-915"/>
      <use transform="translate(51.668945 -49.9)scale(0.49)" xlink:href="#DejaVuSans-Oblique-115"/>
      <path d="M 0 18.86875 
L 0 25.11875 
L 90.121582 25.11875 
L 90.121582 18.86875 
L 0 18.86875 
z
"/>
     </g>
    </g>
   </g>
  </g>
 </g>
 <defs>
  <clipPath id="p3477a10f69">
   <rect height="147.69216" width="297.3024" x="65.205562" y="12.898828"/>
  </clipPath>
  <clipPath id="pf2a47ceb0a">
   <rect height="147.69216" width="297.3024" x="65.205562" y="160.590988"/>
  </clipPath>
 </defs>
</svg>
