<?xml version="1.0" encoding="utf-8" standalone="no"?>
<!DOCTYPE svg PUBLIC "-//W3C//DTD SVG 1.1//EN"
  "http://www.w3.org/Graphics/SVG/1.1/DTD/svg11.dtd">
<!-- Created with matplotlib (https://matplotlib.org/) -->
<svg height="356.921132pt" version="1.1" viewBox="0 0 470.89063 356.921132" width="470.89063pt" xmlns="http://www.w3.org/2000/svg" xmlns:xlink="http://www.w3.org/1999/xlink">
 <defs>
  <style type="text/css">*{stroke-linecap:butt;stroke-linejoin:round;}</style>
 </defs>
 <g id="figure_1">
  <g id="patch_1">
   <path d="M 0 356.921132 
L 470.89063 356.921132 
L 470.89063 0 
L 0 0 
z
" style="fill:none;"/>
  </g>
  <g id="axes_1">
   <g id="patch_2">
    <path d="M 66.1875 303.403945 
L 463.69063 303.403945 
L 463.69063 7.2 
L 66.1875 7.2 
z
" style="fill:none;"/>
   </g>
   <g id="matplotlib.axis_1">
    <g id="xtick_1">
     <g id="line2d_1">
      <path clip-path="url(#pa152f7bf55)" d="M 105.85561 303.403945 
L 105.85561 7.2 
" style="fill:none;stroke:#b0b0b0;stroke-linecap:square;stroke-width:0.8;"/>
     </g>
     <g id="line2d_2">
      <defs>
       <path d="M 0 0 
L 0 3.5 
" id="m005f0a59be" style="stroke:#000000;stroke-width:0.8;"/>
      </defs>
      <g>
       <use style="stroke:#000000;stroke-width:0.8;" x="105.85561" xlink:href="#m005f0a59be" y="303.403945"/>
      </g>
     </g>
     <g id="text_1">
      <!-- −12 -->
      <g transform="translate(90.027094 321.801601)scale(0.15 -0.15)">
       <defs>
        <path d="M 10.59375 35.5 
L 73.1875 35.5 
L 73.1875 27.203125 
L 10.59375 27.203125 
z
" id="DejaVuSans-8722"/>
        <path d="M 12.40625 8.296875 
L 28.515625 8.296875 
L 28.515625 63.921875 
L 10.984375 60.40625 
L 10.984375 69.390625 
L 28.421875 72.90625 
L 38.28125 72.90625 
L 38.28125 8.296875 
L 54.390625 8.296875 
L 54.390625 0 
L 12.40625 0 
z
" id="DejaVuSans-49"/>
        <path d="M 19.1875 8.296875 
L 53.609375 8.296875 
L 53.609375 0 
L 7.328125 0 
L 7.328125 8.296875 
Q 12.9375 14.109375 22.625 23.890625 
Q 32.328125 33.6875 34.8125 36.53125 
Q 39.546875 41.84375 41.421875 45.53125 
Q 43.3125 49.21875 43.3125 52.78125 
Q 43.3125 58.59375 39.234375 62.25 
Q 35.15625 65.921875 28.609375 65.921875 
Q 23.96875 65.921875 18.8125 64.3125 
Q 13.671875 62.703125 7.8125 59.421875 
L 7.8125 69.390625 
Q 13.765625 71.78125 18.9375 73 
Q 24.125 74.21875 28.421875 74.21875 
Q 39.75 74.21875 46.484375 68.546875 
Q 53.21875 62.890625 53.21875 53.421875 
Q 53.21875 48.921875 51.53125 44.890625 
Q 49.859375 40.875 45.40625 35.40625 
Q 44.1875 33.984375 37.640625 27.21875 
Q 31.109375 20.453125 19.1875 8.296875 
z
" id="DejaVuSans-50"/>
       </defs>
       <use xlink:href="#DejaVuSans-8722"/>
       <use x="83.789062" xlink:href="#DejaVuSans-49"/>
       <use x="147.412109" xlink:href="#DejaVuSans-50"/>
      </g>
     </g>
    </g>
    <g id="xtick_2">
     <g id="line2d_3">
      <path clip-path="url(#pa152f7bf55)" d="M 195.46448 303.403945 
L 195.46448 7.2 
" style="fill:none;stroke:#b0b0b0;stroke-linecap:square;stroke-width:0.8;"/>
     </g>
     <g id="line2d_4">
      <g>
       <use style="stroke:#000000;stroke-width:0.8;" x="195.46448" xlink:href="#m005f0a59be" y="303.403945"/>
      </g>
     </g>
     <g id="text_2">
      <!-- −10 -->
      <g transform="translate(179.635964 321.801601)scale(0.15 -0.15)">
       <defs>
        <path d="M 31.78125 66.40625 
Q 24.171875 66.40625 20.328125 58.90625 
Q 16.5 51.421875 16.5 36.375 
Q 16.5 21.390625 20.328125 13.890625 
Q 24.171875 6.390625 31.78125 6.390625 
Q 39.453125 6.390625 43.28125 13.890625 
Q 47.125 21.390625 47.125 36.375 
Q 47.125 51.421875 43.28125 58.90625 
Q 39.453125 66.40625 31.78125 66.40625 
z
M 31.78125 74.21875 
Q 44.046875 74.21875 50.515625 64.515625 
Q 56.984375 54.828125 56.984375 36.375 
Q 56.984375 17.96875 50.515625 8.265625 
Q 44.046875 -1.421875 31.78125 -1.421875 
Q 19.53125 -1.421875 13.0625 8.265625 
Q 6.59375 17.96875 6.59375 36.375 
Q 6.59375 54.828125 13.0625 64.515625 
Q 19.53125 74.21875 31.78125 74.21875 
z
" id="DejaVuSans-48"/>
       </defs>
       <use xlink:href="#DejaVuSans-8722"/>
       <use x="83.789062" xlink:href="#DejaVuSans-49"/>
       <use x="147.412109" xlink:href="#DejaVuSans-48"/>
      </g>
     </g>
    </g>
    <g id="xtick_3">
     <g id="line2d_5">
      <path clip-path="url(#pa152f7bf55)" d="M 285.07335 303.403945 
L 285.07335 7.2 
" style="fill:none;stroke:#b0b0b0;stroke-linecap:square;stroke-width:0.8;"/>
     </g>
     <g id="line2d_6">
      <g>
       <use style="stroke:#000000;stroke-width:0.8;" x="285.07335" xlink:href="#m005f0a59be" y="303.403945"/>
      </g>
     </g>
     <g id="text_3">
      <!-- −8 -->
      <g transform="translate(274.016709 321.801601)scale(0.15 -0.15)">
       <defs>
        <path d="M 31.78125 34.625 
Q 24.75 34.625 20.71875 30.859375 
Q 16.703125 27.09375 16.703125 20.515625 
Q 16.703125 13.921875 20.71875 10.15625 
Q 24.75 6.390625 31.78125 6.390625 
Q 38.8125 6.390625 42.859375 10.171875 
Q 46.921875 13.96875 46.921875 20.515625 
Q 46.921875 27.09375 42.890625 30.859375 
Q 38.875 34.625 31.78125 34.625 
z
M 21.921875 38.8125 
Q 15.578125 40.375 12.03125 44.71875 
Q 8.5 49.078125 8.5 55.328125 
Q 8.5 64.0625 14.71875 69.140625 
Q 20.953125 74.21875 31.78125 74.21875 
Q 42.671875 74.21875 48.875 69.140625 
Q 55.078125 64.0625 55.078125 55.328125 
Q 55.078125 49.078125 51.53125 44.71875 
Q 48 40.375 41.703125 38.8125 
Q 48.828125 37.15625 52.796875 32.3125 
Q 56.78125 27.484375 56.78125 20.515625 
Q 56.78125 9.90625 50.3125 4.234375 
Q 43.84375 -1.421875 31.78125 -1.421875 
Q 19.734375 -1.421875 13.25 4.234375 
Q 6.78125 9.90625 6.78125 20.515625 
Q 6.78125 27.484375 10.78125 32.3125 
Q 14.796875 37.15625 21.921875 38.8125 
z
M 18.3125 54.390625 
Q 18.3125 48.734375 21.84375 45.5625 
Q 25.390625 42.390625 31.78125 42.390625 
Q 38.140625 42.390625 41.71875 45.5625 
Q 45.3125 48.734375 45.3125 54.390625 
Q 45.3125 60.0625 41.71875 63.234375 
Q 38.140625 66.40625 31.78125 66.40625 
Q 25.390625 66.40625 21.84375 63.234375 
Q 18.3125 60.0625 18.3125 54.390625 
z
" id="DejaVuSans-56"/>
       </defs>
       <use xlink:href="#DejaVuSans-8722"/>
       <use x="83.789062" xlink:href="#DejaVuSans-56"/>
      </g>
     </g>
    </g>
    <g id="xtick_4">
     <g id="line2d_7">
      <path clip-path="url(#pa152f7bf55)" d="M 374.68222 303.403945 
L 374.68222 7.2 
" style="fill:none;stroke:#b0b0b0;stroke-linecap:square;stroke-width:0.8;"/>
     </g>
     <g id="line2d_8">
      <g>
       <use style="stroke:#000000;stroke-width:0.8;" x="374.68222" xlink:href="#m005f0a59be" y="303.403945"/>
      </g>
     </g>
     <g id="text_4">
      <!-- −6 -->
      <g transform="translate(363.625579 321.801601)scale(0.15 -0.15)">
       <defs>
        <path d="M 33.015625 40.375 
Q 26.375 40.375 22.484375 35.828125 
Q 18.609375 31.296875 18.609375 23.390625 
Q 18.609375 15.53125 22.484375 10.953125 
Q 26.375 6.390625 33.015625 6.390625 
Q 39.65625 6.390625 43.53125 10.953125 
Q 47.40625 15.53125 47.40625 23.390625 
Q 47.40625 31.296875 43.53125 35.828125 
Q 39.65625 40.375 33.015625 40.375 
z
M 52.59375 71.296875 
L 52.59375 62.3125 
Q 48.875 64.0625 45.09375 64.984375 
Q 41.3125 65.921875 37.59375 65.921875 
Q 27.828125 65.921875 22.671875 59.328125 
Q 17.53125 52.734375 16.796875 39.40625 
Q 19.671875 43.65625 24.015625 45.921875 
Q 28.375 48.1875 33.59375 48.1875 
Q 44.578125 48.1875 50.953125 41.515625 
Q 57.328125 34.859375 57.328125 23.390625 
Q 57.328125 12.15625 50.6875 5.359375 
Q 44.046875 -1.421875 33.015625 -1.421875 
Q 20.359375 -1.421875 13.671875 8.265625 
Q 6.984375 17.96875 6.984375 36.375 
Q 6.984375 53.65625 15.1875 63.9375 
Q 23.390625 74.21875 37.203125 74.21875 
Q 40.921875 74.21875 44.703125 73.484375 
Q 48.484375 72.75 52.59375 71.296875 
z
" id="DejaVuSans-54"/>
       </defs>
       <use xlink:href="#DejaVuSans-8722"/>
       <use x="83.789062" xlink:href="#DejaVuSans-54"/>
      </g>
     </g>
    </g>
    <g id="text_5">
     <!-- $1 / \Delta~(\mathrm{THz^{-1}/(2\pi)})$ -->
     <g transform="translate(184.139065 345.561757)scale(0.2 -0.2)">
      <defs>
       <path d="M 25.390625 72.90625 
L 33.6875 72.90625 
L 8.296875 -9.28125 
L 0 -9.28125 
z
" id="DejaVuSans-47"/>
       <path d="M 34.1875 63.1875 
L 14.15625 8.203125 
L 54.25 8.203125 
z
M 0.78125 0 
L 28.609375 72.90625 
L 39.796875 72.90625 
L 67.578125 0 
z
" id="DejaVuSans-916"/>
       <path d="M 31 75.875 
Q 24.46875 64.65625 21.28125 53.65625 
Q 18.109375 42.671875 18.109375 31.390625 
Q 18.109375 20.125 21.3125 9.0625 
Q 24.515625 -2 31 -13.1875 
L 23.1875 -13.1875 
Q 15.875 -1.703125 12.234375 9.375 
Q 8.59375 20.453125 8.59375 31.390625 
Q 8.59375 42.28125 12.203125 53.3125 
Q 15.828125 64.359375 23.1875 75.875 
z
" id="DejaVuSans-40"/>
       <path d="M -0.296875 72.90625 
L 61.375 72.90625 
L 61.375 64.59375 
L 35.5 64.59375 
L 35.5 0 
L 25.59375 0 
L 25.59375 64.59375 
L -0.296875 64.59375 
z
" id="DejaVuSans-84"/>
       <path d="M 9.8125 72.90625 
L 19.671875 72.90625 
L 19.671875 43.015625 
L 55.515625 43.015625 
L 55.515625 72.90625 
L 65.375 72.90625 
L 65.375 0 
L 55.515625 0 
L 55.515625 34.71875 
L 19.671875 34.71875 
L 19.671875 0 
L 9.8125 0 
z
" id="DejaVuSans-72"/>
       <path d="M 5.515625 54.6875 
L 48.1875 54.6875 
L 48.1875 46.484375 
L 14.40625 7.171875 
L 48.1875 7.171875 
L 48.1875 0 
L 4.296875 0 
L 4.296875 8.203125 
L 38.09375 47.515625 
L 5.515625 47.515625 
z
" id="DejaVuSans-122"/>
       <path d="M 3.609375 54.6875 
L 56 54.6875 
L 56 45.703125 
L 49.125 45.703125 
L 49.125 12.109375 
Q 49.125 8.59375 50.3125 7.046875 
Q 51.515625 5.515625 54.203125 5.515625 
Q 54.9375 5.515625 56 5.640625 
Q 57.078125 5.765625 57.421875 5.8125 
L 57.421875 -0.6875 
Q 55.71875 -1.3125 53.90625 -1.609375 
Q 52.09375 -1.90625 50.296875 -1.90625 
Q 44.4375 -1.90625 42.1875 1.296875 
Q 39.9375 4.5 39.9375 13.09375 
L 39.9375 45.703125 
L 19.78125 45.703125 
L 19.78125 0 
L 10.59375 0 
L 10.59375 45.703125 
L 3.609375 45.703125 
z
" id="DejaVuSans-960"/>
       <path d="M 8.015625 75.875 
L 15.828125 75.875 
Q 23.140625 64.359375 26.78125 53.3125 
Q 30.421875 42.28125 30.421875 31.390625 
Q 30.421875 20.453125 26.78125 9.375 
Q 23.140625 -1.703125 15.828125 -13.1875 
L 8.015625 -13.1875 
Q 14.5 -2 17.703125 9.0625 
Q 20.90625 20.125 20.90625 31.390625 
Q 20.90625 42.671875 17.703125 53.65625 
Q 14.5 64.65625 8.015625 75.875 
z
" id="DejaVuSans-41"/>
      </defs>
      <use transform="translate(0 0.684375)" xlink:href="#DejaVuSans-49"/>
      <use transform="translate(63.623047 0.684375)" xlink:href="#DejaVuSans-47"/>
      <use transform="translate(97.314453 0.684375)" xlink:href="#DejaVuSans-916"/>
      <use transform="translate(198.193035 0.684375)" xlink:href="#DejaVuSans-40"/>
      <use transform="translate(237.206707 0.684375)" xlink:href="#DejaVuSans-84"/>
      <use transform="translate(298.290691 0.684375)" xlink:href="#DejaVuSans-72"/>
      <use transform="translate(373.486003 0.684375)" xlink:href="#DejaVuSans-122"/>
      <use transform="translate(426.933269 38.965625)scale(0.7)" xlink:href="#DejaVuSans-8722"/>
      <use transform="translate(485.585613 38.965625)scale(0.7)" xlink:href="#DejaVuSans-49"/>
      <use transform="translate(532.856121 0.684375)" xlink:href="#DejaVuSans-47"/>
      <use transform="translate(566.547527 0.684375)" xlink:href="#DejaVuSans-40"/>
      <use transform="translate(605.561199 0.684375)" xlink:href="#DejaVuSans-50"/>
      <use transform="translate(669.184246 0.684375)" xlink:href="#DejaVuSans-960"/>
      <use transform="translate(729.389324 0.684375)" xlink:href="#DejaVuSans-41"/>
      <use transform="translate(768.402996 0.684375)" xlink:href="#DejaVuSans-41"/>
     </g>
    </g>
   </g>
   <g id="matplotlib.axis_2">
    <g id="ytick_1">
     <g id="line2d_9">
      <path clip-path="url(#pa152f7bf55)" d="M 66.1875 303.403945 
L 463.69063 303.403945 
" style="fill:none;stroke:#b0b0b0;stroke-linecap:square;stroke-width:0.8;"/>
     </g>
     <g id="line2d_10">
      <defs>
       <path d="M 0 0 
L -3.5 0 
" id="mc3ce260a5b" style="stroke:#000000;stroke-width:0.8;"/>
      </defs>
      <g>
       <use style="stroke:#000000;stroke-width:0.8;" x="66.1875" xlink:href="#mc3ce260a5b" y="303.403945"/>
      </g>
     </g>
     <g id="text_6">
      <!-- 0 -->
      <g transform="translate(49.64375 309.102773)scale(0.15 -0.15)">
       <use xlink:href="#DejaVuSans-48"/>
      </g>
     </g>
    </g>
    <g id="ytick_2">
     <g id="line2d_11">
      <path clip-path="url(#pa152f7bf55)" d="M 66.1875 228.415604 
L 463.69063 228.415604 
" style="fill:none;stroke:#b0b0b0;stroke-linecap:square;stroke-width:0.8;"/>
     </g>
     <g id="line2d_12">
      <g>
       <use style="stroke:#000000;stroke-width:0.8;" x="66.1875" xlink:href="#mc3ce260a5b" y="228.415604"/>
      </g>
     </g>
     <g id="text_7">
      <!-- 200 -->
      <g transform="translate(30.55625 234.114433)scale(0.15 -0.15)">
       <use xlink:href="#DejaVuSans-50"/>
       <use x="63.623047" xlink:href="#DejaVuSans-48"/>
       <use x="127.246094" xlink:href="#DejaVuSans-48"/>
      </g>
     </g>
    </g>
    <g id="ytick_3">
     <g id="line2d_13">
      <path clip-path="url(#pa152f7bf55)" d="M 66.1875 153.427264 
L 463.69063 153.427264 
" style="fill:none;stroke:#b0b0b0;stroke-linecap:square;stroke-width:0.8;"/>
     </g>
     <g id="line2d_14">
      <g>
       <use style="stroke:#000000;stroke-width:0.8;" x="66.1875" xlink:href="#mc3ce260a5b" y="153.427264"/>
      </g>
     </g>
     <g id="text_8">
      <!-- 400 -->
      <g transform="translate(30.55625 159.126092)scale(0.15 -0.15)">
       <defs>
        <path d="M 37.796875 64.3125 
L 12.890625 25.390625 
L 37.796875 25.390625 
z
M 35.203125 72.90625 
L 47.609375 72.90625 
L 47.609375 25.390625 
L 58.015625 25.390625 
L 58.015625 17.1875 
L 47.609375 17.1875 
L 47.609375 0 
L 37.796875 0 
L 37.796875 17.1875 
L 4.890625 17.1875 
L 4.890625 26.703125 
z
" id="DejaVuSans-52"/>
       </defs>
       <use xlink:href="#DejaVuSans-52"/>
       <use x="63.623047" xlink:href="#DejaVuSans-48"/>
       <use x="127.246094" xlink:href="#DejaVuSans-48"/>
      </g>
     </g>
    </g>
    <g id="ytick_4">
     <g id="line2d_15">
      <path clip-path="url(#pa152f7bf55)" d="M 66.1875 78.438923 
L 463.69063 78.438923 
" style="fill:none;stroke:#b0b0b0;stroke-linecap:square;stroke-width:0.8;"/>
     </g>
     <g id="line2d_16">
      <g>
       <use style="stroke:#000000;stroke-width:0.8;" x="66.1875" xlink:href="#mc3ce260a5b" y="78.438923"/>
      </g>
     </g>
     <g id="text_9">
      <!-- 600 -->
      <g transform="translate(30.55625 84.137752)scale(0.15 -0.15)">
       <use xlink:href="#DejaVuSans-54"/>
       <use x="63.623047" xlink:href="#DejaVuSans-48"/>
       <use x="127.246094" xlink:href="#DejaVuSans-48"/>
      </g>
     </g>
    </g>
    <g id="text_10">
     <!-- $\omega_R-\omega_{R0}$ ($\mathrm{2\pi\times kHz}$) -->
     <g transform="translate(22.396875 253.301972)rotate(-90)scale(0.2 -0.2)">
      <defs>
       <path d="M 21.390625 -1.421875 
Q 1.125 -1.421875 6.78125 27.59375 
Q 8.984375 39.0625 19.625 54.6875 
L 29.296875 54.6875 
Q 19.234375 39.0625 17 27.34375 
Q 12.796875 6.203125 23.734375 6.203125 
Q 33.84375 6.203125 38.71875 32.46875 
L 47.015625 32.46875 
Q 41.703125 6.0625 51.8125 6.203125 
Q 62.703125 6.296875 66.796875 27.34375 
Q 69.046875 39.0625 65.140625 54.6875 
L 74.8125 54.6875 
Q 79.296875 39.0625 77.09375 27.59375 
Q 71.53125 -1.46875 51.21875 -1.421875 
Q 37.9375 -1.375 39.109375 13.1875 
Q 34.28125 -1.421875 21.390625 -1.421875 
z
" id="DejaVuSans-Oblique-969"/>
       <path d="M 25.203125 64.796875 
L 20.21875 38.921875 
L 32.90625 38.921875 
Q 40.375 38.921875 44.984375 43.046875 
Q 49.609375 47.171875 49.609375 53.8125 
Q 49.609375 59.125 46.5 61.953125 
Q 43.40625 64.796875 37.59375 64.796875 
z
M 43.3125 35.015625 
Q 46.4375 34.28125 48.515625 31.390625 
Q 50.59375 28.515625 53.328125 19.921875 
L 59.515625 0 
L 49.125 0 
L 43.40625 18.703125 
Q 41.21875 25.921875 38.328125 28.359375 
Q 35.453125 30.8125 29.5 30.8125 
L 18.609375 30.8125 
L 12.59375 0 
L 2.6875 0 
L 16.890625 72.90625 
L 39.109375 72.90625 
Q 49.21875 72.90625 54.609375 68.328125 
Q 60.015625 63.765625 60.015625 55.171875 
Q 60.015625 47.5625 55.421875 41.984375 
Q 50.828125 36.421875 43.3125 35.015625 
z
" id="DejaVuSans-Oblique-82"/>
       <path id="DejaVuSans-32"/>
       <path d="M 70.125 53.71875 
L 47.796875 31.296875 
L 70.125 8.984375 
L 64.3125 3.078125 
L 41.890625 25.484375 
L 19.484375 3.078125 
L 13.71875 8.984375 
L 35.984375 31.296875 
L 13.71875 53.71875 
L 19.484375 59.625 
L 41.890625 37.203125 
L 64.3125 59.625 
z
" id="DejaVuSans-215"/>
       <path d="M 9.078125 75.984375 
L 18.109375 75.984375 
L 18.109375 31.109375 
L 44.921875 54.6875 
L 56.390625 54.6875 
L 27.390625 29.109375 
L 57.625 0 
L 45.90625 0 
L 18.109375 26.703125 
L 18.109375 0 
L 9.078125 0 
z
" id="DejaVuSans-107"/>
      </defs>
      <use transform="translate(0 0.015625)" xlink:href="#DejaVuSans-Oblique-969"/>
      <use transform="translate(83.740234 -16.390625)scale(0.7)" xlink:href="#DejaVuSans-Oblique-82"/>
      <use transform="translate(154.594727 0.015625)" xlink:href="#DejaVuSans-8722"/>
      <use transform="translate(257.866211 0.015625)" xlink:href="#DejaVuSans-Oblique-969"/>
      <use transform="translate(341.606445 -16.390625)scale(0.7)" xlink:href="#DejaVuSans-Oblique-82"/>
      <use transform="translate(390.244141 -16.390625)scale(0.7)" xlink:href="#DejaVuSans-48"/>
      <use transform="translate(437.514648 0.015625)" xlink:href="#DejaVuSans-32"/>
      <use transform="translate(469.301758 0.015625)" xlink:href="#DejaVuSans-40"/>
      <use transform="translate(508.31543 0.015625)" xlink:href="#DejaVuSans-50"/>
      <use transform="translate(571.938477 0.015625)" xlink:href="#DejaVuSans-960"/>
      <use transform="translate(651.625977 0.015625)" xlink:href="#DejaVuSans-215"/>
      <use transform="translate(754.897461 0.015625)" xlink:href="#DejaVuSans-107"/>
      <use transform="translate(812.807617 0.015625)" xlink:href="#DejaVuSans-72"/>
      <use transform="translate(888.00293 0.015625)" xlink:href="#DejaVuSans-122"/>
      <use transform="translate(940.493164 0.015625)" xlink:href="#DejaVuSans-41"/>
     </g>
    </g>
   </g>
   <g id="LineCollection_1">
    <path clip-path="url(#pa152f7bf55)" d="M 348.285965 154.509471 
L 348.285965 154.411986 
" style="fill:none;stroke:#1f77b4;stroke-width:1.5;"/>
    <path clip-path="url(#pa152f7bf55)" d="M 338.228277 146.144522 
L 338.228277 145.987046 
" style="fill:none;stroke:#1f77b4;stroke-width:1.5;"/>
    <path clip-path="url(#pa152f7bf55)" d="M 357.702074 160.782246 
L 357.702074 160.684761 
" style="fill:none;stroke:#1f77b4;stroke-width:1.5;"/>
    <path clip-path="url(#pa152f7bf55)" d="M 428.892007 195.954027 
L 428.892007 195.917283 
" style="fill:none;stroke:#1f77b4;stroke-width:1.5;"/>
    <path clip-path="url(#pa152f7bf55)" d="M 439.634334 198.913817 
L 439.634334 198.838829 
" style="fill:none;stroke:#1f77b4;stroke-width:1.5;"/>
    <path clip-path="url(#pa152f7bf55)" d="M 421.44612 189.641509 
L 421.44612 189.019106 
" style="fill:none;stroke:#1f77b4;stroke-width:1.5;"/>
    <path clip-path="url(#pa152f7bf55)" d="M 223.85328 91.605502 
L 223.85328 91.403033 
" style="fill:none;stroke:#1f77b4;stroke-width:1.5;"/>
    <path clip-path="url(#pa152f7bf55)" d="M 127.11921 42.09445 
L 127.11921 41.914478 
" style="fill:none;stroke:#1f77b4;stroke-width:1.5;"/>
   </g>
   <g id="LineCollection_2">
    <path clip-path="url(#pa152f7bf55)" d="M 348.285965 238.869855 
L 348.285965 238.842109 
" style="fill:none;stroke:#ff7f0e;stroke-width:1.5;"/>
    <path clip-path="url(#pa152f7bf55)" d="M 338.228277 235.439138 
L 338.228277 235.379147 
" style="fill:none;stroke:#ff7f0e;stroke-width:1.5;"/>
    <path clip-path="url(#pa152f7bf55)" d="M 357.702074 241.465201 
L 357.702074 241.432956 
" style="fill:none;stroke:#ff7f0e;stroke-width:1.5;"/>
    <path clip-path="url(#pa152f7bf55)" d="M 428.892007 255.592255 
L 428.892007 255.578007 
" style="fill:none;stroke:#ff7f0e;stroke-width:1.5;"/>
    <path clip-path="url(#pa152f7bf55)" d="M 439.634334 256.764322 
L 439.634334 256.736577 
" style="fill:none;stroke:#ff7f0e;stroke-width:1.5;"/>
    <path clip-path="url(#pa152f7bf55)" d="M 421.44612 252.964288 
L 421.44612 252.921545 
" style="fill:none;stroke:#ff7f0e;stroke-width:1.5;"/>
    <path clip-path="url(#pa152f7bf55)" d="M 223.85328 213.397815 
L 223.85328 213.343824 
" style="fill:none;stroke:#ff7f0e;stroke-width:1.5;"/>
    <path clip-path="url(#pa152f7bf55)" d="M 127.11921 193.491785 
L 127.11921 193.447542 
" style="fill:none;stroke:#ff7f0e;stroke-width:1.5;"/>
   </g>
   <g id="LineCollection_3">
    <path clip-path="url(#pa152f7bf55)" d="M 348.285965 269.533712 
L 348.285965 269.522464 
" style="fill:none;stroke:#2ca02c;stroke-width:1.5;"/>
    <path clip-path="url(#pa152f7bf55)" d="M 338.228277 267.81198 
L 338.228277 267.783484 
" style="fill:none;stroke:#2ca02c;stroke-width:1.5;"/>
    <path clip-path="url(#pa152f7bf55)" d="M 357.702074 270.888376 
L 357.702074 270.875628 
" style="fill:none;stroke:#2ca02c;stroke-width:1.5;"/>
    <path clip-path="url(#pa152f7bf55)" d="M 428.892007 277.946916 
L 428.892007 277.940617 
" style="fill:none;stroke:#2ca02c;stroke-width:1.5;"/>
    <path clip-path="url(#pa152f7bf55)" d="M 439.634334 278.489944 
L 439.634334 278.468948 
" style="fill:none;stroke:#2ca02c;stroke-width:1.5;"/>
    <path clip-path="url(#pa152f7bf55)" d="M 421.44612 280.321909 
L 421.44612 280.304662 
" style="fill:none;stroke:#2ca02c;stroke-width:1.5;"/>
    <path clip-path="url(#pa152f7bf55)" d="M 223.85328 256.760198 
L 223.85328 256.731702 
" style="fill:none;stroke:#2ca02c;stroke-width:1.5;"/>
    <path clip-path="url(#pa152f7bf55)" d="M 127.11921 246.838866 
L 127.11921 246.822368 
" style="fill:none;stroke:#2ca02c;stroke-width:1.5;"/>
   </g>
   <g id="line2d_17">
    <path clip-path="url(#pa152f7bf55)" d="M 445.622306 203.938852 
L 84.255824 20.499148 
L 84.255824 20.499148 
" style="fill:none;stroke:#1f77b4;stroke-linecap:square;stroke-width:1.5;"/>
   </g>
   <g id="line2d_18">
    <path clip-path="url(#pa152f7bf55)" d="M 445.622306 258.751967 
L 84.255824 184.830476 
L 84.255824 184.830476 
" style="fill:none;stroke:#ff7f0e;stroke-linecap:square;stroke-width:1.5;"/>
   </g>
   <g id="line2d_19">
    <path clip-path="url(#pa152f7bf55)" d="M 445.622306 279.924097 
L 84.255824 242.246294 
L 84.255824 242.246294 
" style="fill:none;stroke:#2ca02c;stroke-linecap:square;stroke-width:1.5;"/>
   </g>
   <g id="line2d_20">
    <defs>
     <path d="M 0 3 
C 0.795609 3 1.55874 2.683901 2.12132 2.12132 
C 2.683901 1.55874 3 0.795609 3 0 
C 3 -0.795609 2.683901 -1.55874 2.12132 -2.12132 
C 1.55874 -2.683901 0.795609 -3 0 -3 
C -0.795609 -3 -1.55874 -2.683901 -2.12132 -2.12132 
C -2.683901 -1.55874 -3 -0.795609 -3 0 
C -3 0.795609 -2.683901 1.55874 -2.12132 2.12132 
C -1.55874 2.683901 -0.795609 3 0 3 
z
" id="mcb2457e3ba" style="stroke:#1f77b4;"/>
    </defs>
    <g clip-path="url(#pa152f7bf55)">
     <use style="fill:#1f77b4;stroke:#1f77b4;" x="348.285965" xlink:href="#mcb2457e3ba" y="154.460729"/>
     <use style="fill:#1f77b4;stroke:#1f77b4;" x="338.228277" xlink:href="#mcb2457e3ba" y="146.065784"/>
     <use style="fill:#1f77b4;stroke:#1f77b4;" x="357.702074" xlink:href="#mcb2457e3ba" y="160.733504"/>
     <use style="fill:#1f77b4;stroke:#1f77b4;" x="428.892007" xlink:href="#mcb2457e3ba" y="195.935655"/>
     <use style="fill:#1f77b4;stroke:#1f77b4;" x="439.634334" xlink:href="#mcb2457e3ba" y="198.876323"/>
     <use style="fill:#1f77b4;stroke:#1f77b4;" x="421.44612" xlink:href="#mcb2457e3ba" y="189.330307"/>
     <use style="fill:#1f77b4;stroke:#1f77b4;" x="223.85328" xlink:href="#mcb2457e3ba" y="91.504268"/>
     <use style="fill:#1f77b4;stroke:#1f77b4;" x="127.11921" xlink:href="#mcb2457e3ba" y="42.004464"/>
    </g>
   </g>
   <g id="line2d_21">
    <defs>
     <path d="M 0 3 
C 0.795609 3 1.55874 2.683901 2.12132 2.12132 
C 2.683901 1.55874 3 0.795609 3 0 
C 3 -0.795609 2.683901 -1.55874 2.12132 -2.12132 
C 1.55874 -2.683901 0.795609 -3 0 -3 
C -0.795609 -3 -1.55874 -2.683901 -2.12132 -2.12132 
C -2.683901 -1.55874 -3 -0.795609 -3 0 
C -3 0.795609 -2.683901 1.55874 -2.12132 2.12132 
C -1.55874 2.683901 -0.795609 3 0 3 
z
" id="mbbb2a9d153" style="stroke:#ff7f0e;"/>
    </defs>
    <g clip-path="url(#pa152f7bf55)">
     <use style="fill:#ff7f0e;stroke:#ff7f0e;" x="348.285965" xlink:href="#mbbb2a9d153" y="238.855982"/>
     <use style="fill:#ff7f0e;stroke:#ff7f0e;" x="338.228277" xlink:href="#mbbb2a9d153" y="235.409143"/>
     <use style="fill:#ff7f0e;stroke:#ff7f0e;" x="357.702074" xlink:href="#mbbb2a9d153" y="241.449079"/>
     <use style="fill:#ff7f0e;stroke:#ff7f0e;" x="428.892007" xlink:href="#mbbb2a9d153" y="255.585131"/>
     <use style="fill:#ff7f0e;stroke:#ff7f0e;" x="439.634334" xlink:href="#mbbb2a9d153" y="256.750449"/>
     <use style="fill:#ff7f0e;stroke:#ff7f0e;" x="421.44612" xlink:href="#mbbb2a9d153" y="252.942916"/>
     <use style="fill:#ff7f0e;stroke:#ff7f0e;" x="223.85328" xlink:href="#mbbb2a9d153" y="213.370819"/>
     <use style="fill:#ff7f0e;stroke:#ff7f0e;" x="127.11921" xlink:href="#mbbb2a9d153" y="193.469664"/>
    </g>
   </g>
   <g id="line2d_22">
    <defs>
     <path d="M 0 3 
C 0.795609 3 1.55874 2.683901 2.12132 2.12132 
C 2.683901 1.55874 3 0.795609 3 0 
C 3 -0.795609 2.683901 -1.55874 2.12132 -2.12132 
C 1.55874 -2.683901 0.795609 -3 0 -3 
C -0.795609 -3 -1.55874 -2.683901 -2.12132 -2.12132 
C -2.683901 -1.55874 -3 -0.795609 -3 0 
C -3 0.795609 -2.683901 1.55874 -2.12132 2.12132 
C -1.55874 2.683901 -0.795609 3 0 3 
z
" id="mbab2358add" style="stroke:#2ca02c;"/>
    </defs>
    <g clip-path="url(#pa152f7bf55)">
     <use style="fill:#2ca02c;stroke:#2ca02c;" x="348.285965" xlink:href="#mbab2358add" y="269.528088"/>
     <use style="fill:#2ca02c;stroke:#2ca02c;" x="338.228277" xlink:href="#mbab2358add" y="267.797732"/>
     <use style="fill:#2ca02c;stroke:#2ca02c;" x="357.702074" xlink:href="#mbab2358add" y="270.882002"/>
     <use style="fill:#2ca02c;stroke:#2ca02c;" x="428.892007" xlink:href="#mbab2358add" y="277.943767"/>
     <use style="fill:#2ca02c;stroke:#2ca02c;" x="439.634334" xlink:href="#mbab2358add" y="278.479446"/>
     <use style="fill:#2ca02c;stroke:#2ca02c;" x="421.44612" xlink:href="#mbab2358add" y="280.313286"/>
     <use style="fill:#2ca02c;stroke:#2ca02c;" x="223.85328" xlink:href="#mbab2358add" y="256.74595"/>
     <use style="fill:#2ca02c;stroke:#2ca02c;" x="127.11921" xlink:href="#mbab2358add" y="246.830617"/>
    </g>
   </g>
   <g id="patch_3">
    <path d="M 66.1875 303.403945 
L 66.1875 7.2 
" style="fill:none;stroke:#000000;stroke-linecap:square;stroke-linejoin:miter;stroke-width:0.8;"/>
   </g>
   <g id="patch_4">
    <path d="M 463.69063 303.403945 
L 463.69063 7.2 
" style="fill:none;stroke:#000000;stroke-linecap:square;stroke-linejoin:miter;stroke-width:0.8;"/>
   </g>
   <g id="patch_5">
    <path d="M 66.1875 303.403945 
L 463.69063 303.403945 
" style="fill:none;stroke:#000000;stroke-linecap:square;stroke-linejoin:miter;stroke-width:0.8;"/>
   </g>
   <g id="patch_6">
    <path d="M 66.1875 7.2 
L 463.69063 7.2 
" style="fill:none;stroke:#000000;stroke-linecap:square;stroke-linejoin:miter;stroke-width:0.8;"/>
   </g>
   <g id="legend_1">
    <g id="patch_7">
     <path d="M 355.280886 93.889269 
L 452.02863 93.889269 
Q 455.36063 93.889269 455.36063 90.557269 
L 455.36063 18.862 
Q 455.36063 15.53 452.02863 15.53 
L 355.280886 15.53 
Q 351.948886 15.53 351.948886 18.862 
L 351.948886 90.557269 
Q 351.948886 93.889269 355.280886 93.889269 
z
" style="fill:#ffffff;opacity:0.8;stroke:#cccccc;stroke-linejoin:miter;"/>
    </g>
    <g id="LineCollection_4">
     <path d="M 363.610886 37.351997 
L 363.610886 20.691997 
" style="fill:none;stroke:#1f77b4;stroke-width:1.5;"/>
    </g>
    <g id="line2d_23"/>
    <g id="line2d_24">
     <g>
      <use style="fill:#1f77b4;stroke:#1f77b4;" x="363.610886" xlink:href="#mcb2457e3ba" y="29.021997"/>
     </g>
    </g>
    <g id="text_11">
     <!-- 3.75 mW -->
     <g transform="translate(373.606886 34.852997)scale(0.1666 -0.1666)">
      <defs>
       <path d="M 40.578125 39.3125 
Q 47.65625 37.796875 51.625 33 
Q 55.609375 28.21875 55.609375 21.1875 
Q 55.609375 10.40625 48.1875 4.484375 
Q 40.765625 -1.421875 27.09375 -1.421875 
Q 22.515625 -1.421875 17.65625 -0.515625 
Q 12.796875 0.390625 7.625 2.203125 
L 7.625 11.71875 
Q 11.71875 9.328125 16.59375 8.109375 
Q 21.484375 6.890625 26.8125 6.890625 
Q 36.078125 6.890625 40.9375 10.546875 
Q 45.796875 14.203125 45.796875 21.1875 
Q 45.796875 27.640625 41.28125 31.265625 
Q 36.765625 34.90625 28.71875 34.90625 
L 20.21875 34.90625 
L 20.21875 43.015625 
L 29.109375 43.015625 
Q 36.375 43.015625 40.234375 45.921875 
Q 44.09375 48.828125 44.09375 54.296875 
Q 44.09375 59.90625 40.109375 62.90625 
Q 36.140625 65.921875 28.71875 65.921875 
Q 24.65625 65.921875 20.015625 65.03125 
Q 15.375 64.15625 9.8125 62.3125 
L 9.8125 71.09375 
Q 15.4375 72.65625 20.34375 73.4375 
Q 25.25 74.21875 29.59375 74.21875 
Q 40.828125 74.21875 47.359375 69.109375 
Q 53.90625 64.015625 53.90625 55.328125 
Q 53.90625 49.265625 50.4375 45.09375 
Q 46.96875 40.921875 40.578125 39.3125 
z
" id="DejaVuSans-51"/>
       <path d="M 10.6875 12.40625 
L 21 12.40625 
L 21 0 
L 10.6875 0 
z
" id="DejaVuSans-46"/>
       <path d="M 8.203125 72.90625 
L 55.078125 72.90625 
L 55.078125 68.703125 
L 28.609375 0 
L 18.3125 0 
L 43.21875 64.59375 
L 8.203125 64.59375 
z
" id="DejaVuSans-55"/>
       <path d="M 10.796875 72.90625 
L 49.515625 72.90625 
L 49.515625 64.59375 
L 19.828125 64.59375 
L 19.828125 46.734375 
Q 21.96875 47.46875 24.109375 47.828125 
Q 26.265625 48.1875 28.421875 48.1875 
Q 40.625 48.1875 47.75 41.5 
Q 54.890625 34.8125 54.890625 23.390625 
Q 54.890625 11.625 47.5625 5.09375 
Q 40.234375 -1.421875 26.90625 -1.421875 
Q 22.3125 -1.421875 17.546875 -0.640625 
Q 12.796875 0.140625 7.71875 1.703125 
L 7.71875 11.625 
Q 12.109375 9.234375 16.796875 8.0625 
Q 21.484375 6.890625 26.703125 6.890625 
Q 35.15625 6.890625 40.078125 11.328125 
Q 45.015625 15.765625 45.015625 23.390625 
Q 45.015625 31 40.078125 35.4375 
Q 35.15625 39.890625 26.703125 39.890625 
Q 22.75 39.890625 18.8125 39.015625 
Q 14.890625 38.140625 10.796875 36.28125 
z
" id="DejaVuSans-53"/>
       <path d="M 52 44.1875 
Q 55.375 50.25 60.0625 53.125 
Q 64.75 56 71.09375 56 
Q 79.640625 56 84.28125 50.015625 
Q 88.921875 44.046875 88.921875 33.015625 
L 88.921875 0 
L 79.890625 0 
L 79.890625 32.71875 
Q 79.890625 40.578125 77.09375 44.375 
Q 74.3125 48.1875 68.609375 48.1875 
Q 61.625 48.1875 57.5625 43.546875 
Q 53.515625 38.921875 53.515625 30.90625 
L 53.515625 0 
L 44.484375 0 
L 44.484375 32.71875 
Q 44.484375 40.625 41.703125 44.40625 
Q 38.921875 48.1875 33.109375 48.1875 
Q 26.21875 48.1875 22.15625 43.53125 
Q 18.109375 38.875 18.109375 30.90625 
L 18.109375 0 
L 9.078125 0 
L 9.078125 54.6875 
L 18.109375 54.6875 
L 18.109375 46.1875 
Q 21.1875 51.21875 25.484375 53.609375 
Q 29.78125 56 35.6875 56 
Q 41.65625 56 45.828125 52.96875 
Q 50 49.953125 52 44.1875 
z
" id="DejaVuSans-109"/>
       <path d="M 3.328125 72.90625 
L 13.28125 72.90625 
L 28.609375 11.28125 
L 43.890625 72.90625 
L 54.984375 72.90625 
L 70.3125 11.28125 
L 85.59375 72.90625 
L 95.609375 72.90625 
L 77.296875 0 
L 64.890625 0 
L 49.515625 63.28125 
L 33.984375 0 
L 21.578125 0 
z
" id="DejaVuSans-87"/>
      </defs>
      <use xlink:href="#DejaVuSans-51"/>
      <use x="63.623047" xlink:href="#DejaVuSans-46"/>
      <use x="95.410156" xlink:href="#DejaVuSans-55"/>
      <use x="159.033203" xlink:href="#DejaVuSans-53"/>
      <use x="222.65625" xlink:href="#DejaVuSans-32"/>
      <use x="254.443359" xlink:href="#DejaVuSans-109"/>
      <use x="351.855469" xlink:href="#DejaVuSans-87"/>
     </g>
    </g>
    <g id="LineCollection_5">
     <path d="M 363.610886 61.805753 
L 363.610886 45.145753 
" style="fill:none;stroke:#ff7f0e;stroke-width:1.5;"/>
    </g>
    <g id="line2d_25"/>
    <g id="line2d_26">
     <g>
      <use style="fill:#ff7f0e;stroke:#ff7f0e;" x="363.610886" xlink:href="#mbbb2a9d153" y="53.475753"/>
     </g>
    </g>
    <g id="text_12">
     <!-- 1.5 mW -->
     <g transform="translate(373.606886 59.306753)scale(0.1666 -0.1666)">
      <use xlink:href="#DejaVuSans-49"/>
      <use x="63.623047" xlink:href="#DejaVuSans-46"/>
      <use x="95.410156" xlink:href="#DejaVuSans-53"/>
      <use x="159.033203" xlink:href="#DejaVuSans-32"/>
      <use x="190.820312" xlink:href="#DejaVuSans-109"/>
      <use x="288.232422" xlink:href="#DejaVuSans-87"/>
     </g>
    </g>
    <g id="LineCollection_6">
     <path d="M 363.610886 86.259509 
L 363.610886 69.599509 
" style="fill:none;stroke:#2ca02c;stroke-width:1.5;"/>
    </g>
    <g id="line2d_27"/>
    <g id="line2d_28">
     <g>
      <use style="fill:#2ca02c;stroke:#2ca02c;" x="363.610886" xlink:href="#mbab2358add" y="77.929509"/>
     </g>
    </g>
    <g id="text_13">
     <!-- 0.75 mW -->
     <g transform="translate(373.606886 83.760509)scale(0.1666 -0.1666)">
      <use xlink:href="#DejaVuSans-48"/>
      <use x="63.623047" xlink:href="#DejaVuSans-46"/>
      <use x="95.410156" xlink:href="#DejaVuSans-55"/>
      <use x="159.033203" xlink:href="#DejaVuSans-53"/>
      <use x="222.65625" xlink:href="#DejaVuSans-32"/>
      <use x="254.443359" xlink:href="#DejaVuSans-109"/>
      <use x="351.855469" xlink:href="#DejaVuSans-87"/>
     </g>
    </g>
   </g>
  </g>
 </g>
 <defs>
  <clipPath id="pa152f7bf55">
   <rect height="296.203945" width="397.50313" x="66.1875" y="7.2"/>
  </clipPath>
 </defs>
</svg>
