<?xml version="1.0" encoding="utf-8" standalone="no"?>
<!DOCTYPE svg PUBLIC "-//W3C//DTD SVG 1.1//EN"
  "http://www.w3.org/Graphics/SVG/1.1/DTD/svg11.dtd">
<!-- Created with matplotlib (https://matplotlib.org/) -->
<svg height="356.921132pt" version="1.1" viewBox="0 0 451.80313 356.921132" width="451.80313pt" xmlns="http://www.w3.org/2000/svg" xmlns:xlink="http://www.w3.org/1999/xlink">
 <defs>
  <style type="text/css">*{stroke-linecap:butt;stroke-linejoin:round;}</style>
 </defs>
 <g id="figure_1">
  <g id="patch_1">
   <path d="M 0 356.921132 
L 451.80313 356.921132 
L 451.80313 0 
L 0 0 
z
" style="fill:none;"/>
  </g>
  <g id="axes_1">
   <g id="patch_2">
    <path d="M 47.1 303.403945 
L 444.60313 303.403945 
L 444.60313 7.2 
L 47.1 7.2 
z
" style="fill:none;"/>
   </g>
   <g id="matplotlib.axis_1">
    <g id="xtick_1">
     <g id="line2d_1">
      <path clip-path="url(#p856362ca1c)" d="M 84.168762 303.403945 
L 84.168762 7.2 
" style="fill:none;stroke:#b0b0b0;stroke-linecap:square;stroke-width:0.8;"/>
     </g>
     <g id="line2d_2">
      <defs>
       <path d="M 0 0 
L 0 3.5 
" id="m005f0a59be" style="stroke:#000000;stroke-width:0.8;"/>
      </defs>
      <g>
       <use style="stroke:#000000;stroke-width:0.8;" x="84.168762" xlink:href="#m005f0a59be" y="303.403945"/>
      </g>
     </g>
     <g id="text_1">
      <!-- −12 -->
      <g transform="translate(68.340246 321.801601)scale(0.15 -0.15)">
       <defs>
        <path d="M 10.59375 35.5 
L 73.1875 35.5 
L 73.1875 27.203125 
L 10.59375 27.203125 
z
" id="DejaVuSans-8722"/>
        <path d="M 12.40625 8.296875 
L 28.515625 8.296875 
L 28.515625 63.921875 
L 10.984375 60.40625 
L 10.984375 69.390625 
L 28.421875 72.90625 
L 38.28125 72.90625 
L 38.28125 8.296875 
L 54.390625 8.296875 
L 54.390625 0 
L 12.40625 0 
z
" id="DejaVuSans-49"/>
        <path d="M 19.1875 8.296875 
L 53.609375 8.296875 
L 53.609375 0 
L 7.328125 0 
L 7.328125 8.296875 
Q 12.9375 14.109375 22.625 23.890625 
Q 32.328125 33.6875 34.8125 36.53125 
Q 39.546875 41.84375 41.421875 45.53125 
Q 43.3125 49.21875 43.3125 52.78125 
Q 43.3125 58.59375 39.234375 62.25 
Q 35.15625 65.921875 28.609375 65.921875 
Q 23.96875 65.921875 18.8125 64.3125 
Q 13.671875 62.703125 7.8125 59.421875 
L 7.8125 69.390625 
Q 13.765625 71.78125 18.9375 73 
Q 24.125 74.21875 28.421875 74.21875 
Q 39.75 74.21875 46.484375 68.546875 
Q 53.21875 62.890625 53.21875 53.421875 
Q 53.21875 48.921875 51.53125 44.890625 
Q 49.859375 40.875 45.40625 35.40625 
Q 44.1875 33.984375 37.640625 27.21875 
Q 31.109375 20.453125 19.1875 8.296875 
z
" id="DejaVuSans-50"/>
       </defs>
       <use xlink:href="#DejaVuSans-8722"/>
       <use x="83.789062" xlink:href="#DejaVuSans-49"/>
       <use x="147.412109" xlink:href="#DejaVuSans-50"/>
      </g>
     </g>
    </g>
    <g id="xtick_2">
     <g id="line2d_3">
      <path clip-path="url(#p856362ca1c)" d="M 177.40043 303.403945 
L 177.40043 7.2 
" style="fill:none;stroke:#b0b0b0;stroke-linecap:square;stroke-width:0.8;"/>
     </g>
     <g id="line2d_4">
      <g>
       <use style="stroke:#000000;stroke-width:0.8;" x="177.40043" xlink:href="#m005f0a59be" y="303.403945"/>
      </g>
     </g>
     <g id="text_2">
      <!-- −10 -->
      <g transform="translate(161.571915 321.801601)scale(0.15 -0.15)">
       <defs>
        <path d="M 31.78125 66.40625 
Q 24.171875 66.40625 20.328125 58.90625 
Q 16.5 51.421875 16.5 36.375 
Q 16.5 21.390625 20.328125 13.890625 
Q 24.171875 6.390625 31.78125 6.390625 
Q 39.453125 6.390625 43.28125 13.890625 
Q 47.125 21.390625 47.125 36.375 
Q 47.125 51.421875 43.28125 58.90625 
Q 39.453125 66.40625 31.78125 66.40625 
z
M 31.78125 74.21875 
Q 44.046875 74.21875 50.515625 64.515625 
Q 56.984375 54.828125 56.984375 36.375 
Q 56.984375 17.96875 50.515625 8.265625 
Q 44.046875 -1.421875 31.78125 -1.421875 
Q 19.53125 -1.421875 13.0625 8.265625 
Q 6.59375 17.96875 6.59375 36.375 
Q 6.59375 54.828125 13.0625 64.515625 
Q 19.53125 74.21875 31.78125 74.21875 
z
" id="DejaVuSans-48"/>
       </defs>
       <use xlink:href="#DejaVuSans-8722"/>
       <use x="83.789062" xlink:href="#DejaVuSans-49"/>
       <use x="147.412109" xlink:href="#DejaVuSans-48"/>
      </g>
     </g>
    </g>
    <g id="xtick_3">
     <g id="line2d_5">
      <path clip-path="url(#p856362ca1c)" d="M 270.632099 303.403945 
L 270.632099 7.2 
" style="fill:none;stroke:#b0b0b0;stroke-linecap:square;stroke-width:0.8;"/>
     </g>
     <g id="line2d_6">
      <g>
       <use style="stroke:#000000;stroke-width:0.8;" x="270.632099" xlink:href="#m005f0a59be" y="303.403945"/>
      </g>
     </g>
     <g id="text_3">
      <!-- −8 -->
      <g transform="translate(259.575458 321.801601)scale(0.15 -0.15)">
       <defs>
        <path d="M 31.78125 34.625 
Q 24.75 34.625 20.71875 30.859375 
Q 16.703125 27.09375 16.703125 20.515625 
Q 16.703125 13.921875 20.71875 10.15625 
Q 24.75 6.390625 31.78125 6.390625 
Q 38.8125 6.390625 42.859375 10.171875 
Q 46.921875 13.96875 46.921875 20.515625 
Q 46.921875 27.09375 42.890625 30.859375 
Q 38.875 34.625 31.78125 34.625 
z
M 21.921875 38.8125 
Q 15.578125 40.375 12.03125 44.71875 
Q 8.5 49.078125 8.5 55.328125 
Q 8.5 64.0625 14.71875 69.140625 
Q 20.953125 74.21875 31.78125 74.21875 
Q 42.671875 74.21875 48.875 69.140625 
Q 55.078125 64.0625 55.078125 55.328125 
Q 55.078125 49.078125 51.53125 44.71875 
Q 48 40.375 41.703125 38.8125 
Q 48.828125 37.15625 52.796875 32.3125 
Q 56.78125 27.484375 56.78125 20.515625 
Q 56.78125 9.90625 50.3125 4.234375 
Q 43.84375 -1.421875 31.78125 -1.421875 
Q 19.734375 -1.421875 13.25 4.234375 
Q 6.78125 9.90625 6.78125 20.515625 
Q 6.78125 27.484375 10.78125 32.3125 
Q 14.796875 37.15625 21.921875 38.8125 
z
M 18.3125 54.390625 
Q 18.3125 48.734375 21.84375 45.5625 
Q 25.390625 42.390625 31.78125 42.390625 
Q 38.140625 42.390625 41.71875 45.5625 
Q 45.3125 48.734375 45.3125 54.390625 
Q 45.3125 60.0625 41.71875 63.234375 
Q 38.140625 66.40625 31.78125 66.40625 
Q 25.390625 66.40625 21.84375 63.234375 
Q 18.3125 60.0625 18.3125 54.390625 
z
" id="DejaVuSans-56"/>
       </defs>
       <use xlink:href="#DejaVuSans-8722"/>
       <use x="83.789062" xlink:href="#DejaVuSans-56"/>
      </g>
     </g>
    </g>
    <g id="xtick_4">
     <g id="line2d_7">
      <path clip-path="url(#p856362ca1c)" d="M 363.863768 303.403945 
L 363.863768 7.2 
" style="fill:none;stroke:#b0b0b0;stroke-linecap:square;stroke-width:0.8;"/>
     </g>
     <g id="line2d_8">
      <g>
       <use style="stroke:#000000;stroke-width:0.8;" x="363.863768" xlink:href="#m005f0a59be" y="303.403945"/>
      </g>
     </g>
     <g id="text_4">
      <!-- −6 -->
      <g transform="translate(352.807127 321.801601)scale(0.15 -0.15)">
       <defs>
        <path d="M 33.015625 40.375 
Q 26.375 40.375 22.484375 35.828125 
Q 18.609375 31.296875 18.609375 23.390625 
Q 18.609375 15.53125 22.484375 10.953125 
Q 26.375 6.390625 33.015625 6.390625 
Q 39.65625 6.390625 43.53125 10.953125 
Q 47.40625 15.53125 47.40625 23.390625 
Q 47.40625 31.296875 43.53125 35.828125 
Q 39.65625 40.375 33.015625 40.375 
z
M 52.59375 71.296875 
L 52.59375 62.3125 
Q 48.875 64.0625 45.09375 64.984375 
Q 41.3125 65.921875 37.59375 65.921875 
Q 27.828125 65.921875 22.671875 59.328125 
Q 17.53125 52.734375 16.796875 39.40625 
Q 19.671875 43.65625 24.015625 45.921875 
Q 28.375 48.1875 33.59375 48.1875 
Q 44.578125 48.1875 50.953125 41.515625 
Q 57.328125 34.859375 57.328125 23.390625 
Q 57.328125 12.15625 50.6875 5.359375 
Q 44.046875 -1.421875 33.015625 -1.421875 
Q 20.359375 -1.421875 13.671875 8.265625 
Q 6.984375 17.96875 6.984375 36.375 
Q 6.984375 53.65625 15.1875 63.9375 
Q 23.390625 74.21875 37.203125 74.21875 
Q 40.921875 74.21875 44.703125 73.484375 
Q 48.484375 72.75 52.59375 71.296875 
z
" id="DejaVuSans-54"/>
       </defs>
       <use xlink:href="#DejaVuSans-8722"/>
       <use x="83.789062" xlink:href="#DejaVuSans-54"/>
      </g>
     </g>
    </g>
    <g id="text_5">
     <!-- $1 / \Delta~(\mathrm{THz^{-1}})$ -->
     <g transform="translate(188.651565 345.561757)scale(0.2 -0.2)">
      <defs>
       <path d="M 25.390625 72.90625 
L 33.6875 72.90625 
L 8.296875 -9.28125 
L 0 -9.28125 
z
" id="DejaVuSans-47"/>
       <path d="M 34.1875 63.1875 
L 14.15625 8.203125 
L 54.25 8.203125 
z
M 0.78125 0 
L 28.609375 72.90625 
L 39.796875 72.90625 
L 67.578125 0 
z
" id="DejaVuSans-916"/>
       <path d="M 31 75.875 
Q 24.46875 64.65625 21.28125 53.65625 
Q 18.109375 42.671875 18.109375 31.390625 
Q 18.109375 20.125 21.3125 9.0625 
Q 24.515625 -2 31 -13.1875 
L 23.1875 -13.1875 
Q 15.875 -1.703125 12.234375 9.375 
Q 8.59375 20.453125 8.59375 31.390625 
Q 8.59375 42.28125 12.203125 53.3125 
Q 15.828125 64.359375 23.1875 75.875 
z
" id="DejaVuSans-40"/>
       <path d="M -0.296875 72.90625 
L 61.375 72.90625 
L 61.375 64.59375 
L 35.5 64.59375 
L 35.5 0 
L 25.59375 0 
L 25.59375 64.59375 
L -0.296875 64.59375 
z
" id="DejaVuSans-84"/>
       <path d="M 9.8125 72.90625 
L 19.671875 72.90625 
L 19.671875 43.015625 
L 55.515625 43.015625 
L 55.515625 72.90625 
L 65.375 72.90625 
L 65.375 0 
L 55.515625 0 
L 55.515625 34.71875 
L 19.671875 34.71875 
L 19.671875 0 
L 9.8125 0 
z
" id="DejaVuSans-72"/>
       <path d="M 5.515625 54.6875 
L 48.1875 54.6875 
L 48.1875 46.484375 
L 14.40625 7.171875 
L 48.1875 7.171875 
L 48.1875 0 
L 4.296875 0 
L 4.296875 8.203125 
L 38.09375 47.515625 
L 5.515625 47.515625 
z
" id="DejaVuSans-122"/>
       <path d="M 8.015625 75.875 
L 15.828125 75.875 
Q 23.140625 64.359375 26.78125 53.3125 
Q 30.421875 42.28125 30.421875 31.390625 
Q 30.421875 20.453125 26.78125 9.375 
Q 23.140625 -1.703125 15.828125 -13.1875 
L 8.015625 -13.1875 
Q 14.5 -2 17.703125 9.0625 
Q 20.90625 20.125 20.90625 31.390625 
Q 20.90625 42.671875 17.703125 53.65625 
Q 14.5 64.65625 8.015625 75.875 
z
" id="DejaVuSans-41"/>
      </defs>
      <use transform="translate(0 0.684375)" xlink:href="#DejaVuSans-49"/>
      <use transform="translate(63.623047 0.684375)" xlink:href="#DejaVuSans-47"/>
      <use transform="translate(97.314453 0.684375)" xlink:href="#DejaVuSans-916"/>
      <use transform="translate(198.193035 0.684375)" xlink:href="#DejaVuSans-40"/>
      <use transform="translate(237.206707 0.684375)" xlink:href="#DejaVuSans-84"/>
      <use transform="translate(298.290691 0.684375)" xlink:href="#DejaVuSans-72"/>
      <use transform="translate(373.486003 0.684375)" xlink:href="#DejaVuSans-122"/>
      <use transform="translate(426.933269 38.965625)scale(0.7)" xlink:href="#DejaVuSans-8722"/>
      <use transform="translate(485.585613 38.965625)scale(0.7)" xlink:href="#DejaVuSans-49"/>
      <use transform="translate(532.856121 0.684375)" xlink:href="#DejaVuSans-41"/>
     </g>
    </g>
   </g>
   <g id="matplotlib.axis_2">
    <g id="ytick_1">
     <g id="line2d_9">
      <path clip-path="url(#p856362ca1c)" d="M 47.1 303.403945 
L 444.60313 303.403945 
" style="fill:none;stroke:#b0b0b0;stroke-linecap:square;stroke-width:0.8;"/>
     </g>
     <g id="line2d_10">
      <defs>
       <path d="M 0 0 
L -3.5 0 
" id="mc3ce260a5b" style="stroke:#000000;stroke-width:0.8;"/>
      </defs>
      <g>
       <use style="stroke:#000000;stroke-width:0.8;" x="47.1" xlink:href="#mc3ce260a5b" y="303.403945"/>
      </g>
     </g>
     <g id="text_6">
      <!-- 0 -->
      <g transform="translate(30.55625 309.102773)scale(0.15 -0.15)">
       <use xlink:href="#DejaVuSans-48"/>
      </g>
     </g>
    </g>
    <g id="ytick_2">
     <g id="line2d_11">
      <path clip-path="url(#p856362ca1c)" d="M 47.1 242.330967 
L 444.60313 242.330967 
" style="fill:none;stroke:#b0b0b0;stroke-linecap:square;stroke-width:0.8;"/>
     </g>
     <g id="line2d_12">
      <g>
       <use style="stroke:#000000;stroke-width:0.8;" x="47.1" xlink:href="#mc3ce260a5b" y="242.330967"/>
      </g>
     </g>
     <g id="text_7">
      <!-- 2 -->
      <g transform="translate(30.55625 248.029795)scale(0.15 -0.15)">
       <use xlink:href="#DejaVuSans-50"/>
      </g>
     </g>
    </g>
    <g id="ytick_3">
     <g id="line2d_13">
      <path clip-path="url(#p856362ca1c)" d="M 47.1 181.257988 
L 444.60313 181.257988 
" style="fill:none;stroke:#b0b0b0;stroke-linecap:square;stroke-width:0.8;"/>
     </g>
     <g id="line2d_14">
      <g>
       <use style="stroke:#000000;stroke-width:0.8;" x="47.1" xlink:href="#mc3ce260a5b" y="181.257988"/>
      </g>
     </g>
     <g id="text_8">
      <!-- 4 -->
      <g transform="translate(30.55625 186.956816)scale(0.15 -0.15)">
       <defs>
        <path d="M 37.796875 64.3125 
L 12.890625 25.390625 
L 37.796875 25.390625 
z
M 35.203125 72.90625 
L 47.609375 72.90625 
L 47.609375 25.390625 
L 58.015625 25.390625 
L 58.015625 17.1875 
L 47.609375 17.1875 
L 47.609375 0 
L 37.796875 0 
L 37.796875 17.1875 
L 4.890625 17.1875 
L 4.890625 26.703125 
z
" id="DejaVuSans-52"/>
       </defs>
       <use xlink:href="#DejaVuSans-52"/>
      </g>
     </g>
    </g>
    <g id="ytick_4">
     <g id="line2d_15">
      <path clip-path="url(#p856362ca1c)" d="M 47.1 120.18501 
L 444.60313 120.18501 
" style="fill:none;stroke:#b0b0b0;stroke-linecap:square;stroke-width:0.8;"/>
     </g>
     <g id="line2d_16">
      <g>
       <use style="stroke:#000000;stroke-width:0.8;" x="47.1" xlink:href="#mc3ce260a5b" y="120.18501"/>
      </g>
     </g>
     <g id="text_9">
      <!-- 6 -->
      <g transform="translate(30.55625 125.883838)scale(0.15 -0.15)">
       <use xlink:href="#DejaVuSans-54"/>
      </g>
     </g>
    </g>
    <g id="ytick_5">
     <g id="line2d_17">
      <path clip-path="url(#p856362ca1c)" d="M 47.1 59.112032 
L 444.60313 59.112032 
" style="fill:none;stroke:#b0b0b0;stroke-linecap:square;stroke-width:0.8;"/>
     </g>
     <g id="line2d_18">
      <g>
       <use style="stroke:#000000;stroke-width:0.8;" x="47.1" xlink:href="#mc3ce260a5b" y="59.112032"/>
      </g>
     </g>
     <g id="text_10">
      <!-- 8 -->
      <g transform="translate(30.55625 64.81086)scale(0.15 -0.15)">
       <use xlink:href="#DejaVuSans-56"/>
      </g>
     </g>
    </g>
    <g id="text_11">
     <!-- $\Omega_{R}~(\mathrm{2\pi\times kHz})$ -->
     <g transform="translate(22.396875 222.501972)rotate(-90)scale(0.2 -0.2)">
      <defs>
       <path d="M 72.609375 8.6875 
L 72.609375 0 
L 43.3125 0 
L 43.3125 8.6875 
Q 51.953125 13.421875 56.78125 21.53125 
Q 61.625 29.640625 61.625 39.5 
Q 61.625 51.21875 55.171875 58.296875 
Q 48.734375 65.375 38.1875 65.375 
Q 27.640625 65.375 21.171875 58.265625 
Q 14.703125 51.171875 14.703125 39.5 
Q 14.703125 29.640625 19.53125 21.53125 
Q 24.421875 13.421875 33.109375 8.6875 
L 33.109375 0 
L 3.8125 0 
L 3.8125 8.6875 
L 19.390625 8.6875 
Q 11.671875 15.484375 8.109375 22.75 
Q 4.59375 30.03125 4.59375 39.015625 
Q 4.59375 54.546875 13.96875 64.15625 
Q 23.296875 73.78125 38.1875 73.78125 
Q 52.984375 73.78125 62.40625 64.15625 
Q 71.78125 54.59375 71.78125 39.5 
Q 71.78125 30.03125 68.3125 22.796875 
Q 64.84375 15.578125 56.984375 8.6875 
z
" id="DejaVuSans-937"/>
       <path d="M 25.203125 64.796875 
L 20.21875 38.921875 
L 32.90625 38.921875 
Q 40.375 38.921875 44.984375 43.046875 
Q 49.609375 47.171875 49.609375 53.8125 
Q 49.609375 59.125 46.5 61.953125 
Q 43.40625 64.796875 37.59375 64.796875 
z
M 43.3125 35.015625 
Q 46.4375 34.28125 48.515625 31.390625 
Q 50.59375 28.515625 53.328125 19.921875 
L 59.515625 0 
L 49.125 0 
L 43.40625 18.703125 
Q 41.21875 25.921875 38.328125 28.359375 
Q 35.453125 30.8125 29.5 30.8125 
L 18.609375 30.8125 
L 12.59375 0 
L 2.6875 0 
L 16.890625 72.90625 
L 39.109375 72.90625 
Q 49.21875 72.90625 54.609375 68.328125 
Q 60.015625 63.765625 60.015625 55.171875 
Q 60.015625 47.5625 55.421875 41.984375 
Q 50.828125 36.421875 43.3125 35.015625 
z
" id="DejaVuSans-Oblique-82"/>
       <path d="M 3.609375 54.6875 
L 56 54.6875 
L 56 45.703125 
L 49.125 45.703125 
L 49.125 12.109375 
Q 49.125 8.59375 50.3125 7.046875 
Q 51.515625 5.515625 54.203125 5.515625 
Q 54.9375 5.515625 56 5.640625 
Q 57.078125 5.765625 57.421875 5.8125 
L 57.421875 -0.6875 
Q 55.71875 -1.3125 53.90625 -1.609375 
Q 52.09375 -1.90625 50.296875 -1.90625 
Q 44.4375 -1.90625 42.1875 1.296875 
Q 39.9375 4.5 39.9375 13.09375 
L 39.9375 45.703125 
L 19.78125 45.703125 
L 19.78125 0 
L 10.59375 0 
L 10.59375 45.703125 
L 3.609375 45.703125 
z
" id="DejaVuSans-960"/>
       <path d="M 70.125 53.71875 
L 47.796875 31.296875 
L 70.125 8.984375 
L 64.3125 3.078125 
L 41.890625 25.484375 
L 19.484375 3.078125 
L 13.71875 8.984375 
L 35.984375 31.296875 
L 13.71875 53.71875 
L 19.484375 59.625 
L 41.890625 37.203125 
L 64.3125 59.625 
z
" id="DejaVuSans-215"/>
       <path d="M 9.078125 75.984375 
L 18.109375 75.984375 
L 18.109375 31.109375 
L 44.921875 54.6875 
L 56.390625 54.6875 
L 27.390625 29.109375 
L 57.625 0 
L 45.90625 0 
L 18.109375 26.703125 
L 18.109375 0 
L 9.078125 0 
z
" id="DejaVuSans-107"/>
      </defs>
      <use transform="translate(0 0.015625)" xlink:href="#DejaVuSans-937"/>
      <use transform="translate(77.373047 -16.390625)scale(0.7)" xlink:href="#DejaVuSans-Oblique-82"/>
      <use transform="translate(161.215496 0.015625)" xlink:href="#DejaVuSans-40"/>
      <use transform="translate(200.229167 0.015625)" xlink:href="#DejaVuSans-50"/>
      <use transform="translate(263.852214 0.015625)" xlink:href="#DejaVuSans-960"/>
      <use transform="translate(343.539714 0.015625)" xlink:href="#DejaVuSans-215"/>
      <use transform="translate(446.811199 0.015625)" xlink:href="#DejaVuSans-107"/>
      <use transform="translate(504.721355 0.015625)" xlink:href="#DejaVuSans-72"/>
      <use transform="translate(579.916667 0.015625)" xlink:href="#DejaVuSans-122"/>
      <use transform="translate(632.406902 0.015625)" xlink:href="#DejaVuSans-41"/>
     </g>
    </g>
   </g>
   <g id="LineCollection_1">
    <path clip-path="url(#p856362ca1c)" d="M 336.260629 184.861294 
L 336.260629 179.425799 
" style="fill:none;stroke:#1f77b4;stroke-width:1.5;"/>
    <path clip-path="url(#p856362ca1c)" d="M 420.19138 241.659164 
L 420.19138 238.544442 
" style="fill:none;stroke:#1f77b4;stroke-width:1.5;"/>
    <path clip-path="url(#p856362ca1c)" d="M 206.654609 112.856253 
L 206.654609 103.695306 
" style="fill:none;stroke:#1f77b4;stroke-width:1.5;"/>
    <path clip-path="url(#p856362ca1c)" d="M 105.864439 56.058383 
L 105.864439 40.790138 
" style="fill:none;stroke:#1f77b4;stroke-width:1.5;"/>
   </g>
   <g id="LineCollection_2">
    <path clip-path="url(#p856362ca1c)" d="M 336.260629 268.317519 
L 336.260629 266.302111 
" style="fill:none;stroke:#ff7f0e;stroke-width:1.5;"/>
    <path clip-path="url(#p856362ca1c)" d="M 420.19138 283.310935 
L 420.19138 281.96733 
" style="fill:none;stroke:#ff7f0e;stroke-width:1.5;"/>
    <path clip-path="url(#p856362ca1c)" d="M 206.654609 244.102083 
L 206.654609 241.475945 
" style="fill:none;stroke:#ff7f0e;stroke-width:1.5;"/>
    <path clip-path="url(#p856362ca1c)" d="M 105.864439 227.765061 
L 105.864439 225.566434 
" style="fill:none;stroke:#ff7f0e;stroke-width:1.5;"/>
   </g>
   <g id="LineCollection_3">
    <path clip-path="url(#p856362ca1c)" d="M 336.260629 288.960186 
L 336.260629 288.044091 
" style="fill:none;stroke:#2ca02c;stroke-width:1.5;"/>
    <path clip-path="url(#p856362ca1c)" d="M 420.19138 295.870593 
L 420.19138 295.400331 
" style="fill:none;stroke:#2ca02c;stroke-width:1.5;"/>
    <path clip-path="url(#p856362ca1c)" d="M 206.654609 278.883144 
L 206.654609 276.318079 
" style="fill:none;stroke:#2ca02c;stroke-width:1.5;"/>
    <path clip-path="url(#p856362ca1c)" d="M 105.864439 273.87516 
L 105.864439 272.104044 
" style="fill:none;stroke:#2ca02c;stroke-width:1.5;"/>
   </g>
   <g id="line2d_19">
    <path clip-path="url(#p856362ca1c)" d="M 426.534806 241.070396 
L 65.168324 23.018828 
L 65.168324 23.018828 
" style="fill:none;stroke:#1f77b4;stroke-linecap:square;stroke-width:1.5;"/>
   </g>
   <g id="line2d_20">
    <path clip-path="url(#p856362ca1c)" d="M 426.534806 284.288728 
L 65.168324 217.420994 
L 65.168324 217.420994 
" style="fill:none;stroke:#ff7f0e;stroke-linecap:square;stroke-width:1.5;"/>
   </g>
   <g id="line2d_21">
    <path clip-path="url(#p856362ca1c)" d="M 426.534806 295.586757 
L 65.168324 268.241129 
L 65.168324 268.241129 
" style="fill:none;stroke:#2ca02c;stroke-linecap:square;stroke-width:1.5;"/>
   </g>
   <g id="line2d_22">
    <defs>
     <path d="M 0 3 
C 0.795609 3 1.55874 2.683901 2.12132 2.12132 
C 2.683901 1.55874 3 0.795609 3 0 
C 3 -0.795609 2.683901 -1.55874 2.12132 -2.12132 
C 1.55874 -2.683901 0.795609 -3 0 -3 
C -0.795609 -3 -1.55874 -2.683901 -2.12132 -2.12132 
C -2.683901 -1.55874 -3 -0.795609 -3 0 
C -3 0.795609 -2.683901 1.55874 -2.12132 2.12132 
C -1.55874 2.683901 -0.795609 3 0 3 
z
" id="mcb2457e3ba" style="stroke:#1f77b4;"/>
    </defs>
    <g clip-path="url(#p856362ca1c)">
     <use style="fill:#1f77b4;stroke:#1f77b4;" x="336.260629" xlink:href="#mcb2457e3ba" y="182.143546"/>
     <use style="fill:#1f77b4;stroke:#1f77b4;" x="420.19138" xlink:href="#mcb2457e3ba" y="240.101803"/>
     <use style="fill:#1f77b4;stroke:#1f77b4;" x="206.654609" xlink:href="#mcb2457e3ba" y="108.275779"/>
     <use style="fill:#1f77b4;stroke:#1f77b4;" x="105.864439" xlink:href="#mcb2457e3ba" y="48.42426"/>
    </g>
   </g>
   <g id="line2d_23">
    <defs>
     <path d="M 0 3 
C 0.795609 3 1.55874 2.683901 2.12132 2.12132 
C 2.683901 1.55874 3 0.795609 3 0 
C 3 -0.795609 2.683901 -1.55874 2.12132 -2.12132 
C 1.55874 -2.683901 0.795609 -3 0 -3 
C -0.795609 -3 -1.55874 -2.683901 -2.12132 -2.12132 
C -2.683901 -1.55874 -3 -0.795609 -3 0 
C -3 0.795609 -2.683901 1.55874 -2.12132 2.12132 
C -1.55874 2.683901 -0.795609 3 0 3 
z
" id="mbbb2a9d153" style="stroke:#ff7f0e;"/>
    </defs>
    <g clip-path="url(#p856362ca1c)">
     <use style="fill:#ff7f0e;stroke:#ff7f0e;" x="336.260629" xlink:href="#mbbb2a9d153" y="267.309815"/>
     <use style="fill:#ff7f0e;stroke:#ff7f0e;" x="420.19138" xlink:href="#mbbb2a9d153" y="282.639132"/>
     <use style="fill:#ff7f0e;stroke:#ff7f0e;" x="206.654609" xlink:href="#mbbb2a9d153" y="242.789014"/>
     <use style="fill:#ff7f0e;stroke:#ff7f0e;" x="105.864439" xlink:href="#mbbb2a9d153" y="226.665748"/>
    </g>
   </g>
   <g id="line2d_24">
    <defs>
     <path d="M 0 3 
C 0.795609 3 1.55874 2.683901 2.12132 2.12132 
C 2.683901 1.55874 3 0.795609 3 0 
C 3 -0.795609 2.683901 -1.55874 2.12132 -2.12132 
C 1.55874 -2.683901 0.795609 -3 0 -3 
C -0.795609 -3 -1.55874 -2.683901 -2.12132 -2.12132 
C -2.683901 -1.55874 -3 -0.795609 -3 0 
C -3 0.795609 -2.683901 1.55874 -2.12132 2.12132 
C -1.55874 2.683901 -0.795609 3 0 3 
z
" id="mbab2358add" style="stroke:#2ca02c;"/>
    </defs>
    <g clip-path="url(#p856362ca1c)">
     <use style="fill:#2ca02c;stroke:#2ca02c;" x="336.260629" xlink:href="#mbab2358add" y="288.502138"/>
     <use style="fill:#2ca02c;stroke:#2ca02c;" x="420.19138" xlink:href="#mbab2358add" y="295.635462"/>
     <use style="fill:#2ca02c;stroke:#2ca02c;" x="206.654609" xlink:href="#mbab2358add" y="277.600612"/>
     <use style="fill:#2ca02c;stroke:#2ca02c;" x="105.864439" xlink:href="#mbab2358add" y="272.989602"/>
    </g>
   </g>
   <g id="patch_3">
    <path d="M 47.1 303.403945 
L 47.1 7.2 
" style="fill:none;stroke:#000000;stroke-linecap:square;stroke-linejoin:miter;stroke-width:0.8;"/>
   </g>
   <g id="patch_4">
    <path d="M 444.60313 303.403945 
L 444.60313 7.2 
" style="fill:none;stroke:#000000;stroke-linecap:square;stroke-linejoin:miter;stroke-width:0.8;"/>
   </g>
   <g id="patch_5">
    <path d="M 47.1 303.403945 
L 444.60313 303.403945 
" style="fill:none;stroke:#000000;stroke-linecap:square;stroke-linejoin:miter;stroke-width:0.8;"/>
   </g>
   <g id="patch_6">
    <path d="M 47.1 7.2 
L 444.60313 7.2 
" style="fill:none;stroke:#000000;stroke-linecap:square;stroke-linejoin:miter;stroke-width:0.8;"/>
   </g>
   <g id="legend_1">
    <g id="patch_7">
     <path d="M 336.193386 93.889269 
L 432.94113 93.889269 
Q 436.27313 93.889269 436.27313 90.557269 
L 436.27313 18.862 
Q 436.27313 15.53 432.94113 15.53 
L 336.193386 15.53 
Q 332.861386 15.53 332.861386 18.862 
L 332.861386 90.557269 
Q 332.861386 93.889269 336.193386 93.889269 
z
" style="fill:#ffffff;opacity:0.8;stroke:#cccccc;stroke-linejoin:miter;"/>
    </g>
    <g id="LineCollection_4">
     <path d="M 344.523386 37.351997 
L 344.523386 20.691997 
" style="fill:none;stroke:#1f77b4;stroke-width:1.5;"/>
    </g>
    <g id="line2d_25"/>
    <g id="line2d_26">
     <g>
      <use style="fill:#1f77b4;stroke:#1f77b4;" x="344.523386" xlink:href="#mcb2457e3ba" y="29.021997"/>
     </g>
    </g>
    <g id="text_12">
     <!-- 3.75 mW -->
     <g transform="translate(354.519386 34.852997)scale(0.1666 -0.1666)">
      <defs>
       <path d="M 40.578125 39.3125 
Q 47.65625 37.796875 51.625 33 
Q 55.609375 28.21875 55.609375 21.1875 
Q 55.609375 10.40625 48.1875 4.484375 
Q 40.765625 -1.421875 27.09375 -1.421875 
Q 22.515625 -1.421875 17.65625 -0.515625 
Q 12.796875 0.390625 7.625 2.203125 
L 7.625 11.71875 
Q 11.71875 9.328125 16.59375 8.109375 
Q 21.484375 6.890625 26.8125 6.890625 
Q 36.078125 6.890625 40.9375 10.546875 
Q 45.796875 14.203125 45.796875 21.1875 
Q 45.796875 27.640625 41.28125 31.265625 
Q 36.765625 34.90625 28.71875 34.90625 
L 20.21875 34.90625 
L 20.21875 43.015625 
L 29.109375 43.015625 
Q 36.375 43.015625 40.234375 45.921875 
Q 44.09375 48.828125 44.09375 54.296875 
Q 44.09375 59.90625 40.109375 62.90625 
Q 36.140625 65.921875 28.71875 65.921875 
Q 24.65625 65.921875 20.015625 65.03125 
Q 15.375 64.15625 9.8125 62.3125 
L 9.8125 71.09375 
Q 15.4375 72.65625 20.34375 73.4375 
Q 25.25 74.21875 29.59375 74.21875 
Q 40.828125 74.21875 47.359375 69.109375 
Q 53.90625 64.015625 53.90625 55.328125 
Q 53.90625 49.265625 50.4375 45.09375 
Q 46.96875 40.921875 40.578125 39.3125 
z
" id="DejaVuSans-51"/>
       <path d="M 10.6875 12.40625 
L 21 12.40625 
L 21 0 
L 10.6875 0 
z
" id="DejaVuSans-46"/>
       <path d="M 8.203125 72.90625 
L 55.078125 72.90625 
L 55.078125 68.703125 
L 28.609375 0 
L 18.3125 0 
L 43.21875 64.59375 
L 8.203125 64.59375 
z
" id="DejaVuSans-55"/>
       <path d="M 10.796875 72.90625 
L 49.515625 72.90625 
L 49.515625 64.59375 
L 19.828125 64.59375 
L 19.828125 46.734375 
Q 21.96875 47.46875 24.109375 47.828125 
Q 26.265625 48.1875 28.421875 48.1875 
Q 40.625 48.1875 47.75 41.5 
Q 54.890625 34.8125 54.890625 23.390625 
Q 54.890625 11.625 47.5625 5.09375 
Q 40.234375 -1.421875 26.90625 -1.421875 
Q 22.3125 -1.421875 17.546875 -0.640625 
Q 12.796875 0.140625 7.71875 1.703125 
L 7.71875 11.625 
Q 12.109375 9.234375 16.796875 8.0625 
Q 21.484375 6.890625 26.703125 6.890625 
Q 35.15625 6.890625 40.078125 11.328125 
Q 45.015625 15.765625 45.015625 23.390625 
Q 45.015625 31 40.078125 35.4375 
Q 35.15625 39.890625 26.703125 39.890625 
Q 22.75 39.890625 18.8125 39.015625 
Q 14.890625 38.140625 10.796875 36.28125 
z
" id="DejaVuSans-53"/>
       <path id="DejaVuSans-32"/>
       <path d="M 52 44.1875 
Q 55.375 50.25 60.0625 53.125 
Q 64.75 56 71.09375 56 
Q 79.640625 56 84.28125 50.015625 
Q 88.921875 44.046875 88.921875 33.015625 
L 88.921875 0 
L 79.890625 0 
L 79.890625 32.71875 
Q 79.890625 40.578125 77.09375 44.375 
Q 74.3125 48.1875 68.609375 48.1875 
Q 61.625 48.1875 57.5625 43.546875 
Q 53.515625 38.921875 53.515625 30.90625 
L 53.515625 0 
L 44.484375 0 
L 44.484375 32.71875 
Q 44.484375 40.625 41.703125 44.40625 
Q 38.921875 48.1875 33.109375 48.1875 
Q 26.21875 48.1875 22.15625 43.53125 
Q 18.109375 38.875 18.109375 30.90625 
L 18.109375 0 
L 9.078125 0 
L 9.078125 54.6875 
L 18.109375 54.6875 
L 18.109375 46.1875 
Q 21.1875 51.21875 25.484375 53.609375 
Q 29.78125 56 35.6875 56 
Q 41.65625 56 45.828125 52.96875 
Q 50 49.953125 52 44.1875 
z
" id="DejaVuSans-109"/>
       <path d="M 3.328125 72.90625 
L 13.28125 72.90625 
L 28.609375 11.28125 
L 43.890625 72.90625 
L 54.984375 72.90625 
L 70.3125 11.28125 
L 85.59375 72.90625 
L 95.609375 72.90625 
L 77.296875 0 
L 64.890625 0 
L 49.515625 63.28125 
L 33.984375 0 
L 21.578125 0 
z
" id="DejaVuSans-87"/>
      </defs>
      <use xlink:href="#DejaVuSans-51"/>
      <use x="63.623047" xlink:href="#DejaVuSans-46"/>
      <use x="95.410156" xlink:href="#DejaVuSans-55"/>
      <use x="159.033203" xlink:href="#DejaVuSans-53"/>
      <use x="222.65625" xlink:href="#DejaVuSans-32"/>
      <use x="254.443359" xlink:href="#DejaVuSans-109"/>
      <use x="351.855469" xlink:href="#DejaVuSans-87"/>
     </g>
    </g>
    <g id="LineCollection_5">
     <path d="M 344.523386 61.805753 
L 344.523386 45.145753 
" style="fill:none;stroke:#ff7f0e;stroke-width:1.5;"/>
    </g>
    <g id="line2d_27"/>
    <g id="line2d_28">
     <g>
      <use style="fill:#ff7f0e;stroke:#ff7f0e;" x="344.523386" xlink:href="#mbbb2a9d153" y="53.475753"/>
     </g>
    </g>
    <g id="text_13">
     <!-- 1.5 mW -->
     <g transform="translate(354.519386 59.306753)scale(0.1666 -0.1666)">
      <use xlink:href="#DejaVuSans-49"/>
      <use x="63.623047" xlink:href="#DejaVuSans-46"/>
      <use x="95.410156" xlink:href="#DejaVuSans-53"/>
      <use x="159.033203" xlink:href="#DejaVuSans-32"/>
      <use x="190.820312" xlink:href="#DejaVuSans-109"/>
      <use x="288.232422" xlink:href="#DejaVuSans-87"/>
     </g>
    </g>
    <g id="LineCollection_6">
     <path d="M 344.523386 86.259509 
L 344.523386 69.599509 
" style="fill:none;stroke:#2ca02c;stroke-width:1.5;"/>
    </g>
    <g id="line2d_29"/>
    <g id="line2d_30">
     <g>
      <use style="fill:#2ca02c;stroke:#2ca02c;" x="344.523386" xlink:href="#mbab2358add" y="77.929509"/>
     </g>
    </g>
    <g id="text_14">
     <!-- 0.75 mW -->
     <g transform="translate(354.519386 83.760509)scale(0.1666 -0.1666)">
      <use xlink:href="#DejaVuSans-48"/>
      <use x="63.623047" xlink:href="#DejaVuSans-46"/>
      <use x="95.410156" xlink:href="#DejaVuSans-55"/>
      <use x="159.033203" xlink:href="#DejaVuSans-53"/>
      <use x="222.65625" xlink:href="#DejaVuSans-32"/>
      <use x="254.443359" xlink:href="#DejaVuSans-109"/>
      <use x="351.855469" xlink:href="#DejaVuSans-87"/>
     </g>
    </g>
   </g>
  </g>
 </g>
 <defs>
  <clipPath id="p856362ca1c">
   <rect height="296.203945" width="397.50313" x="47.1" y="7.2"/>
  </clipPath>
 </defs>
</svg>
