<?xml version="1.0" encoding="utf-8" standalone="no"?>
<!DOCTYPE svg PUBLIC "-//W3C//DTD SVG 1.1//EN"
  "http://www.w3.org/Graphics/SVG/1.1/DTD/svg11.dtd">
<svg height="349.329437pt" version="1.1" viewBox="0 0 836.953281 349.329437" width="836.953281pt" xmlns="http://www.w3.org/2000/svg" xmlns:xlink="http://www.w3.org/1999/xlink">
 <defs>
  <style type="text/css">*{stroke-linecap:butt;stroke-linejoin:round;}</style>
 </defs>
 <g id="figure_1">
  <g id="patch_1">
   <path d="M 0 349.329437 
L 836.953281 349.329437 
L 836.953281 0 
L 0 0 
z
" style="fill:none;"/>
  </g>
  <g id="axes_1">
   <g id="patch_2">
    <path d="M 59.713281 297.256 
L 829.753281 297.256 
L 829.753281 31.144 
L 59.713281 31.144 
z
" style="fill:none;"/>
   </g>
   <g id="matplotlib.axis_1">
    <g id="xtick_1">
     <g id="line2d_1">
      <path clip-path="url(#p82f328a18e)" d="M 96.166793 297.256 
L 96.166793 31.144 
" style="fill:none;stroke:#b0b0b0;stroke-linecap:square;stroke-width:0.8;"/>
     </g>
     <g id="line2d_2">
      <defs>
       <path d="M 0 0 
L 0 3.5 
" id="me0c20328c7" style="stroke:#000000;stroke-width:0.8;"/>
      </defs>
      <g>
       <use style="stroke:#000000;stroke-width:0.8;" x="96.166793" xlink:href="#me0c20328c7" y="297.256"/>
      </g>
     </g>
     <g id="text_1">
      <!-- 3 -->
      <g transform="translate(91.394918 315.653656)scale(0.15 -0.15)">
       <defs>
        <path d="M 2597 2516 
Q 3050 2419 3304 2112 
Q 3559 1806 3559 1356 
Q 3559 666 3084 287 
Q 2609 -91 1734 -91 
Q 1441 -91 1130 -33 
Q 819 25 488 141 
L 488 750 
Q 750 597 1062 519 
Q 1375 441 1716 441 
Q 2309 441 2620 675 
Q 2931 909 2931 1356 
Q 2931 1769 2642 2001 
Q 2353 2234 1838 2234 
L 1294 2234 
L 1294 2753 
L 1863 2753 
Q 2328 2753 2575 2939 
Q 2822 3125 2822 3475 
Q 2822 3834 2567 4026 
Q 2313 4219 1838 4219 
Q 1578 4219 1281 4162 
Q 984 4106 628 3988 
L 628 4550 
Q 988 4650 1302 4700 
Q 1616 4750 1894 4750 
Q 2613 4750 3031 4423 
Q 3450 4097 3450 3541 
Q 3450 3153 3228 2886 
Q 3006 2619 2597 2516 
z
" id="DejaVuSans-33" transform="scale(0.015625)"/>
       </defs>
       <use xlink:href="#DejaVuSans-33"/>
      </g>
     </g>
    </g>
    <g id="xtick_2">
     <g id="line2d_3">
      <path clip-path="url(#p82f328a18e)" d="M 195.701439 297.256 
L 195.701439 31.144 
" style="fill:none;stroke:#b0b0b0;stroke-linecap:square;stroke-width:0.8;"/>
     </g>
     <g id="line2d_4">
      <g>
       <use style="stroke:#000000;stroke-width:0.8;" x="195.701439" xlink:href="#me0c20328c7" y="297.256"/>
      </g>
     </g>
     <g id="text_2">
      <!-- 4 -->
      <g transform="translate(190.929564 315.653656)scale(0.15 -0.15)">
       <defs>
        <path d="M 2419 4116 
L 825 1625 
L 2419 1625 
L 2419 4116 
z
M 2253 4666 
L 3047 4666 
L 3047 1625 
L 3713 1625 
L 3713 1100 
L 3047 1100 
L 3047 0 
L 2419 0 
L 2419 1100 
L 313 1100 
L 313 1709 
L 2253 4666 
z
" id="DejaVuSans-34" transform="scale(0.015625)"/>
       </defs>
       <use xlink:href="#DejaVuSans-34"/>
      </g>
     </g>
    </g>
    <g id="xtick_3">
     <g id="line2d_5">
      <path clip-path="url(#p82f328a18e)" d="M 272.906509 297.256 
L 272.906509 31.144 
" style="fill:none;stroke:#b0b0b0;stroke-linecap:square;stroke-width:0.8;"/>
     </g>
     <g id="line2d_6">
      <g>
       <use style="stroke:#000000;stroke-width:0.8;" x="272.906509" xlink:href="#me0c20328c7" y="297.256"/>
      </g>
     </g>
     <g id="text_3">
      <!-- 5 -->
      <g transform="translate(268.134634 315.653656)scale(0.15 -0.15)">
       <defs>
        <path d="M 691 4666 
L 3169 4666 
L 3169 4134 
L 1269 4134 
L 1269 2991 
Q 1406 3038 1543 3061 
Q 1681 3084 1819 3084 
Q 2600 3084 3056 2656 
Q 3513 2228 3513 1497 
Q 3513 744 3044 326 
Q 2575 -91 1722 -91 
Q 1428 -91 1123 -41 
Q 819 9 494 109 
L 494 744 
Q 775 591 1075 516 
Q 1375 441 1709 441 
Q 2250 441 2565 725 
Q 2881 1009 2881 1497 
Q 2881 1984 2565 2268 
Q 2250 2553 1709 2553 
Q 1456 2553 1204 2497 
Q 953 2441 691 2322 
L 691 4666 
z
" id="DejaVuSans-35" transform="scale(0.015625)"/>
       </defs>
       <use xlink:href="#DejaVuSans-35"/>
      </g>
     </g>
    </g>
    <g id="xtick_4">
     <g id="line2d_7">
      <path clip-path="url(#p82f328a18e)" d="M 335.987644 297.256 
L 335.987644 31.144 
" style="fill:none;stroke:#b0b0b0;stroke-linecap:square;stroke-width:0.8;"/>
     </g>
     <g id="line2d_8">
      <g>
       <use style="stroke:#000000;stroke-width:0.8;" x="335.987644" xlink:href="#me0c20328c7" y="297.256"/>
      </g>
     </g>
     <g id="text_4">
      <!-- 6 -->
      <g transform="translate(331.215769 315.653656)scale(0.15 -0.15)">
       <defs>
        <path d="M 2113 2584 
Q 1688 2584 1439 2293 
Q 1191 2003 1191 1497 
Q 1191 994 1439 701 
Q 1688 409 2113 409 
Q 2538 409 2786 701 
Q 3034 994 3034 1497 
Q 3034 2003 2786 2293 
Q 2538 2584 2113 2584 
z
M 3366 4563 
L 3366 3988 
Q 3128 4100 2886 4159 
Q 2644 4219 2406 4219 
Q 1781 4219 1451 3797 
Q 1122 3375 1075 2522 
Q 1259 2794 1537 2939 
Q 1816 3084 2150 3084 
Q 2853 3084 3261 2657 
Q 3669 2231 3669 1497 
Q 3669 778 3244 343 
Q 2819 -91 2113 -91 
Q 1303 -91 875 529 
Q 447 1150 447 2328 
Q 447 3434 972 4092 
Q 1497 4750 2381 4750 
Q 2619 4750 2861 4703 
Q 3103 4656 3366 4563 
z
" id="DejaVuSans-36" transform="scale(0.015625)"/>
       </defs>
       <use xlink:href="#DejaVuSans-36"/>
      </g>
     </g>
    </g>
    <g id="xtick_5">
     <g id="line2d_9">
      <path clip-path="url(#p82f328a18e)" d="M 389.321984 297.256 
L 389.321984 31.144 
" style="fill:none;stroke:#b0b0b0;stroke-linecap:square;stroke-width:0.8;"/>
     </g>
     <g id="line2d_10">
      <g>
       <use style="stroke:#000000;stroke-width:0.8;" x="389.321984" xlink:href="#me0c20328c7" y="297.256"/>
      </g>
     </g>
     <g id="text_5">
      <!-- 7 -->
      <g transform="translate(384.550109 315.653656)scale(0.15 -0.15)">
       <defs>
        <path d="M 525 4666 
L 3525 4666 
L 3525 4397 
L 1831 0 
L 1172 0 
L 2766 4134 
L 525 4134 
L 525 4666 
z
" id="DejaVuSans-37" transform="scale(0.015625)"/>
       </defs>
       <use xlink:href="#DejaVuSans-37"/>
      </g>
     </g>
    </g>
    <g id="xtick_6">
     <g id="line2d_11">
      <path clip-path="url(#p82f328a18e)" d="M 435.52229 297.256 
L 435.52229 31.144 
" style="fill:none;stroke:#b0b0b0;stroke-linecap:square;stroke-width:0.8;"/>
     </g>
     <g id="line2d_12">
      <g>
       <use style="stroke:#000000;stroke-width:0.8;" x="435.52229" xlink:href="#me0c20328c7" y="297.256"/>
      </g>
     </g>
     <g id="text_6">
      <!-- 8 -->
      <g transform="translate(430.750415 315.653656)scale(0.15 -0.15)">
       <defs>
        <path d="M 2034 2216 
Q 1584 2216 1326 1975 
Q 1069 1734 1069 1313 
Q 1069 891 1326 650 
Q 1584 409 2034 409 
Q 2484 409 2743 651 
Q 3003 894 3003 1313 
Q 3003 1734 2745 1975 
Q 2488 2216 2034 2216 
z
M 1403 2484 
Q 997 2584 770 2862 
Q 544 3141 544 3541 
Q 544 4100 942 4425 
Q 1341 4750 2034 4750 
Q 2731 4750 3128 4425 
Q 3525 4100 3525 3541 
Q 3525 3141 3298 2862 
Q 3072 2584 2669 2484 
Q 3125 2378 3379 2068 
Q 3634 1759 3634 1313 
Q 3634 634 3220 271 
Q 2806 -91 2034 -91 
Q 1263 -91 848 271 
Q 434 634 434 1313 
Q 434 1759 690 2068 
Q 947 2378 1403 2484 
z
M 1172 3481 
Q 1172 3119 1398 2916 
Q 1625 2713 2034 2713 
Q 2441 2713 2670 2916 
Q 2900 3119 2900 3481 
Q 2900 3844 2670 4047 
Q 2441 4250 2034 4250 
Q 1625 4250 1398 4047 
Q 1172 3844 1172 3481 
z
" id="DejaVuSans-38" transform="scale(0.015625)"/>
       </defs>
       <use xlink:href="#DejaVuSans-38"/>
      </g>
     </g>
    </g>
    <g id="xtick_7">
     <g id="line2d_13">
      <path clip-path="url(#p82f328a18e)" d="M 476.273849 297.256 
L 476.273849 31.144 
" style="fill:none;stroke:#b0b0b0;stroke-linecap:square;stroke-width:0.8;"/>
     </g>
     <g id="line2d_14">
      <g>
       <use style="stroke:#000000;stroke-width:0.8;" x="476.273849" xlink:href="#me0c20328c7" y="297.256"/>
      </g>
     </g>
     <g id="text_7">
      <!-- 9 -->
      <g transform="translate(471.501974 315.653656)scale(0.15 -0.15)">
       <defs>
        <path d="M 703 97 
L 703 672 
Q 941 559 1184 500 
Q 1428 441 1663 441 
Q 2288 441 2617 861 
Q 2947 1281 2994 2138 
Q 2813 1869 2534 1725 
Q 2256 1581 1919 1581 
Q 1219 1581 811 2004 
Q 403 2428 403 3163 
Q 403 3881 828 4315 
Q 1253 4750 1959 4750 
Q 2769 4750 3195 4129 
Q 3622 3509 3622 2328 
Q 3622 1225 3098 567 
Q 2575 -91 1691 -91 
Q 1453 -91 1209 -44 
Q 966 3 703 97 
z
M 1959 2075 
Q 2384 2075 2632 2365 
Q 2881 2656 2881 3163 
Q 2881 3666 2632 3958 
Q 2384 4250 1959 4250 
Q 1534 4250 1286 3958 
Q 1038 3666 1038 3163 
Q 1038 2656 1286 2365 
Q 1534 2075 1959 2075 
z
" id="DejaVuSans-39" transform="scale(0.015625)"/>
       </defs>
       <use xlink:href="#DejaVuSans-39"/>
      </g>
     </g>
    </g>
    <g id="xtick_8">
     <g id="line2d_15">
      <path clip-path="url(#p82f328a18e)" d="M 512.72736 297.256 
L 512.72736 31.144 
" style="fill:none;stroke:#b0b0b0;stroke-linecap:square;stroke-width:0.8;"/>
     </g>
     <g id="line2d_16">
      <g>
       <use style="stroke:#000000;stroke-width:0.8;" x="512.72736" xlink:href="#me0c20328c7" y="297.256"/>
      </g>
     </g>
     <g id="text_8">
      <!-- 10 -->
      <g transform="translate(503.18361 315.653656)scale(0.15 -0.15)">
       <defs>
        <path d="M 794 531 
L 1825 531 
L 1825 4091 
L 703 3866 
L 703 4441 
L 1819 4666 
L 2450 4666 
L 2450 531 
L 3481 531 
L 3481 0 
L 794 0 
L 794 531 
z
" id="DejaVuSans-31" transform="scale(0.015625)"/>
        <path d="M 2034 4250 
Q 1547 4250 1301 3770 
Q 1056 3291 1056 2328 
Q 1056 1369 1301 889 
Q 1547 409 2034 409 
Q 2525 409 2770 889 
Q 3016 1369 3016 2328 
Q 3016 3291 2770 3770 
Q 2525 4250 2034 4250 
z
M 2034 4750 
Q 2819 4750 3233 4129 
Q 3647 3509 3647 2328 
Q 3647 1150 3233 529 
Q 2819 -91 2034 -91 
Q 1250 -91 836 529 
Q 422 1150 422 2328 
Q 422 3509 836 4129 
Q 1250 4750 2034 4750 
z
" id="DejaVuSans-30" transform="scale(0.015625)"/>
       </defs>
       <use xlink:href="#DejaVuSans-31"/>
       <use x="63.623047" xlink:href="#DejaVuSans-30"/>
      </g>
     </g>
    </g>
    <g id="xtick_9">
     <g id="line2d_17">
      <path clip-path="url(#p82f328a18e)" d="M 752.548211 297.256 
L 752.548211 31.144 
" style="fill:none;stroke:#b0b0b0;stroke-linecap:square;stroke-width:0.8;"/>
     </g>
     <g id="line2d_18">
      <g>
       <use style="stroke:#000000;stroke-width:0.8;" x="752.548211" xlink:href="#me0c20328c7" y="297.256"/>
      </g>
     </g>
     <g id="text_9">
      <!-- 20 -->
      <g transform="translate(743.004461 315.653656)scale(0.15 -0.15)">
       <defs>
        <path d="M 1228 531 
L 3431 531 
L 3431 0 
L 469 0 
L 469 531 
Q 828 903 1448 1529 
Q 2069 2156 2228 2338 
Q 2531 2678 2651 2914 
Q 2772 3150 2772 3378 
Q 2772 3750 2511 3984 
Q 2250 4219 1831 4219 
Q 1534 4219 1204 4116 
Q 875 4013 500 3803 
L 500 4441 
Q 881 4594 1212 4672 
Q 1544 4750 1819 4750 
Q 2544 4750 2975 4387 
Q 3406 4025 3406 3419 
Q 3406 3131 3298 2873 
Q 3191 2616 2906 2266 
Q 2828 2175 2409 1742 
Q 1991 1309 1228 531 
z
" id="DejaVuSans-32" transform="scale(0.015625)"/>
       </defs>
       <use xlink:href="#DejaVuSans-32"/>
       <use x="63.623047" xlink:href="#DejaVuSans-30"/>
      </g>
     </g>
    </g>
    <g id="text_10">
     <!-- R (Angstroms) -->
     <g transform="translate(373.192656 337.970062)scale(0.2 -0.2)">
      <defs>
       <path d="M 2841 2188 
Q 3044 2119 3236 1894 
Q 3428 1669 3622 1275 
L 4263 0 
L 3584 0 
L 2988 1197 
Q 2756 1666 2539 1819 
Q 2322 1972 1947 1972 
L 1259 1972 
L 1259 0 
L 628 0 
L 628 4666 
L 2053 4666 
Q 2853 4666 3247 4331 
Q 3641 3997 3641 3322 
Q 3641 2881 3436 2590 
Q 3231 2300 2841 2188 
z
M 1259 4147 
L 1259 2491 
L 2053 2491 
Q 2509 2491 2742 2702 
Q 2975 2913 2975 3322 
Q 2975 3731 2742 3939 
Q 2509 4147 2053 4147 
L 1259 4147 
z
" id="DejaVuSans-52" transform="scale(0.015625)"/>
       <path id="DejaVuSans-20" transform="scale(0.015625)"/>
       <path d="M 1984 4856 
Q 1566 4138 1362 3434 
Q 1159 2731 1159 2009 
Q 1159 1288 1364 580 
Q 1569 -128 1984 -844 
L 1484 -844 
Q 1016 -109 783 600 
Q 550 1309 550 2009 
Q 550 2706 781 3412 
Q 1013 4119 1484 4856 
L 1984 4856 
z
" id="DejaVuSans-28" transform="scale(0.015625)"/>
       <path d="M 2188 4044 
L 1331 1722 
L 3047 1722 
L 2188 4044 
z
M 1831 4666 
L 2547 4666 
L 4325 0 
L 3669 0 
L 3244 1197 
L 1141 1197 
L 716 0 
L 50 0 
L 1831 4666 
z
" id="DejaVuSans-41" transform="scale(0.015625)"/>
       <path d="M 3513 2113 
L 3513 0 
L 2938 0 
L 2938 2094 
Q 2938 2591 2744 2837 
Q 2550 3084 2163 3084 
Q 1697 3084 1428 2787 
Q 1159 2491 1159 1978 
L 1159 0 
L 581 0 
L 581 3500 
L 1159 3500 
L 1159 2956 
Q 1366 3272 1645 3428 
Q 1925 3584 2291 3584 
Q 2894 3584 3203 3211 
Q 3513 2838 3513 2113 
z
" id="DejaVuSans-6e" transform="scale(0.015625)"/>
       <path d="M 2906 1791 
Q 2906 2416 2648 2759 
Q 2391 3103 1925 3103 
Q 1463 3103 1205 2759 
Q 947 2416 947 1791 
Q 947 1169 1205 825 
Q 1463 481 1925 481 
Q 2391 481 2648 825 
Q 2906 1169 2906 1791 
z
M 3481 434 
Q 3481 -459 3084 -895 
Q 2688 -1331 1869 -1331 
Q 1566 -1331 1297 -1286 
Q 1028 -1241 775 -1147 
L 775 -588 
Q 1028 -725 1275 -790 
Q 1522 -856 1778 -856 
Q 2344 -856 2625 -561 
Q 2906 -266 2906 331 
L 2906 616 
Q 2728 306 2450 153 
Q 2172 0 1784 0 
Q 1141 0 747 490 
Q 353 981 353 1791 
Q 353 2603 747 3093 
Q 1141 3584 1784 3584 
Q 2172 3584 2450 3431 
Q 2728 3278 2906 2969 
L 2906 3500 
L 3481 3500 
L 3481 434 
z
" id="DejaVuSans-67" transform="scale(0.015625)"/>
       <path d="M 2834 3397 
L 2834 2853 
Q 2591 2978 2328 3040 
Q 2066 3103 1784 3103 
Q 1356 3103 1142 2972 
Q 928 2841 928 2578 
Q 928 2378 1081 2264 
Q 1234 2150 1697 2047 
L 1894 2003 
Q 2506 1872 2764 1633 
Q 3022 1394 3022 966 
Q 3022 478 2636 193 
Q 2250 -91 1575 -91 
Q 1294 -91 989 -36 
Q 684 19 347 128 
L 347 722 
Q 666 556 975 473 
Q 1284 391 1588 391 
Q 1994 391 2212 530 
Q 2431 669 2431 922 
Q 2431 1156 2273 1281 
Q 2116 1406 1581 1522 
L 1381 1569 
Q 847 1681 609 1914 
Q 372 2147 372 2553 
Q 372 3047 722 3315 
Q 1072 3584 1716 3584 
Q 2034 3584 2315 3537 
Q 2597 3491 2834 3397 
z
" id="DejaVuSans-73" transform="scale(0.015625)"/>
       <path d="M 1172 4494 
L 1172 3500 
L 2356 3500 
L 2356 3053 
L 1172 3053 
L 1172 1153 
Q 1172 725 1289 603 
Q 1406 481 1766 481 
L 2356 481 
L 2356 0 
L 1766 0 
Q 1100 0 847 248 
Q 594 497 594 1153 
L 594 3053 
L 172 3053 
L 172 3500 
L 594 3500 
L 594 4494 
L 1172 4494 
z
" id="DejaVuSans-74" transform="scale(0.015625)"/>
       <path d="M 2631 2963 
Q 2534 3019 2420 3045 
Q 2306 3072 2169 3072 
Q 1681 3072 1420 2755 
Q 1159 2438 1159 1844 
L 1159 0 
L 581 0 
L 581 3500 
L 1159 3500 
L 1159 2956 
Q 1341 3275 1631 3429 
Q 1922 3584 2338 3584 
Q 2397 3584 2469 3576 
Q 2541 3569 2628 3553 
L 2631 2963 
z
" id="DejaVuSans-72" transform="scale(0.015625)"/>
       <path d="M 1959 3097 
Q 1497 3097 1228 2736 
Q 959 2375 959 1747 
Q 959 1119 1226 758 
Q 1494 397 1959 397 
Q 2419 397 2687 759 
Q 2956 1122 2956 1747 
Q 2956 2369 2687 2733 
Q 2419 3097 1959 3097 
z
M 1959 3584 
Q 2709 3584 3137 3096 
Q 3566 2609 3566 1747 
Q 3566 888 3137 398 
Q 2709 -91 1959 -91 
Q 1206 -91 779 398 
Q 353 888 353 1747 
Q 353 2609 779 3096 
Q 1206 3584 1959 3584 
z
" id="DejaVuSans-6f" transform="scale(0.015625)"/>
       <path d="M 3328 2828 
Q 3544 3216 3844 3400 
Q 4144 3584 4550 3584 
Q 5097 3584 5394 3201 
Q 5691 2819 5691 2113 
L 5691 0 
L 5113 0 
L 5113 2094 
Q 5113 2597 4934 2840 
Q 4756 3084 4391 3084 
Q 3944 3084 3684 2787 
Q 3425 2491 3425 1978 
L 3425 0 
L 2847 0 
L 2847 2094 
Q 2847 2600 2669 2842 
Q 2491 3084 2119 3084 
Q 1678 3084 1418 2786 
Q 1159 2488 1159 1978 
L 1159 0 
L 581 0 
L 581 3500 
L 1159 3500 
L 1159 2956 
Q 1356 3278 1631 3431 
Q 1906 3584 2284 3584 
Q 2666 3584 2933 3390 
Q 3200 3197 3328 2828 
z
" id="DejaVuSans-6d" transform="scale(0.015625)"/>
       <path d="M 513 4856 
L 1013 4856 
Q 1481 4119 1714 3412 
Q 1947 2706 1947 2009 
Q 1947 1309 1714 600 
Q 1481 -109 1013 -844 
L 513 -844 
Q 928 -128 1133 580 
Q 1338 1288 1338 2009 
Q 1338 2731 1133 3434 
Q 928 4138 513 4856 
z
" id="DejaVuSans-29" transform="scale(0.015625)"/>
      </defs>
      <use xlink:href="#DejaVuSans-52"/>
      <use x="69.482422" xlink:href="#DejaVuSans-20"/>
      <use x="101.269531" xlink:href="#DejaVuSans-28"/>
      <use x="140.283203" xlink:href="#DejaVuSans-41"/>
      <use x="208.691406" xlink:href="#DejaVuSans-6e"/>
      <use x="272.070312" xlink:href="#DejaVuSans-67"/>
      <use x="335.546875" xlink:href="#DejaVuSans-73"/>
      <use x="387.646484" xlink:href="#DejaVuSans-74"/>
      <use x="426.855469" xlink:href="#DejaVuSans-72"/>
      <use x="465.71875" xlink:href="#DejaVuSans-6f"/>
      <use x="526.900391" xlink:href="#DejaVuSans-6d"/>
      <use x="624.3125" xlink:href="#DejaVuSans-73"/>
      <use x="676.412109" xlink:href="#DejaVuSans-29"/>
     </g>
    </g>
   </g>
   <g id="matplotlib.axis_2">
    <g id="ytick_1">
     <g id="line2d_19">
      <path clip-path="url(#p82f328a18e)" d="M 59.713281 258.15102 
L 829.753281 258.15102 
" style="fill:none;stroke:#b0b0b0;stroke-linecap:square;stroke-width:0.8;"/>
     </g>
     <g id="line2d_20">
      <defs>
       <path d="M 0 0 
L -3.5 0 
" id="m3dc9d66a62" style="stroke:#000000;stroke-width:0.8;"/>
      </defs>
      <g>
       <use style="stroke:#000000;stroke-width:0.8;" x="59.713281" xlink:href="#m3dc9d66a62" y="258.15102"/>
      </g>
     </g>
     <g id="text_11">
      <!-- −2 -->
      <g transform="translate(30.6 263.849848)scale(0.15 -0.15)">
       <defs>
        <path d="M 678 2272 
L 4684 2272 
L 4684 1741 
L 678 1741 
L 678 2272 
z
" id="DejaVuSans-2212" transform="scale(0.015625)"/>
       </defs>
       <use xlink:href="#DejaVuSans-2212"/>
       <use x="83.789062" xlink:href="#DejaVuSans-32"/>
      </g>
     </g>
    </g>
    <g id="ytick_2">
     <g id="line2d_21">
      <path clip-path="url(#p82f328a18e)" d="M 59.713281 195.910857 
L 829.753281 195.910857 
" style="fill:none;stroke:#b0b0b0;stroke-linecap:square;stroke-width:0.8;"/>
     </g>
     <g id="line2d_22">
      <g>
       <use style="stroke:#000000;stroke-width:0.8;" x="59.713281" xlink:href="#m3dc9d66a62" y="195.910857"/>
      </g>
     </g>
     <g id="text_12">
      <!-- 0 -->
      <g transform="translate(43.169531 201.609685)scale(0.15 -0.15)">
       <use xlink:href="#DejaVuSans-30"/>
      </g>
     </g>
    </g>
    <g id="ytick_3">
     <g id="line2d_23">
      <path clip-path="url(#p82f328a18e)" d="M 59.713281 133.670694 
L 829.753281 133.670694 
" style="fill:none;stroke:#b0b0b0;stroke-linecap:square;stroke-width:0.8;"/>
     </g>
     <g id="line2d_24">
      <g>
       <use style="stroke:#000000;stroke-width:0.8;" x="59.713281" xlink:href="#m3dc9d66a62" y="133.670694"/>
      </g>
     </g>
     <g id="text_13">
      <!-- 2 -->
      <g transform="translate(43.169531 139.369522)scale(0.15 -0.15)">
       <use xlink:href="#DejaVuSans-32"/>
      </g>
     </g>
    </g>
    <g id="ytick_4">
     <g id="line2d_25">
      <path clip-path="url(#p82f328a18e)" d="M 59.713281 71.430531 
L 829.753281 71.430531 
" style="fill:none;stroke:#b0b0b0;stroke-linecap:square;stroke-width:0.8;"/>
     </g>
     <g id="line2d_26">
      <g>
       <use style="stroke:#000000;stroke-width:0.8;" x="59.713281" xlink:href="#m3dc9d66a62" y="71.430531"/>
      </g>
     </g>
     <g id="text_14">
      <!-- 4 -->
      <g transform="translate(43.169531 77.129359)scale(0.15 -0.15)">
       <use xlink:href="#DejaVuSans-34"/>
      </g>
     </g>
    </g>
    <g id="text_15">
     <!-- Transition Dipole Moment ($ea_0$) -->
     <g transform="translate(22.4 321.2)rotate(-90)scale(0.2 -0.2)">
      <defs>
       <path d="M -19 4666 
L 3928 4666 
L 3928 4134 
L 2272 4134 
L 2272 0 
L 1638 0 
L 1638 4134 
L -19 4134 
L -19 4666 
z
" id="DejaVuSans-54" transform="scale(0.015625)"/>
       <path d="M 2194 1759 
Q 1497 1759 1228 1600 
Q 959 1441 959 1056 
Q 959 750 1161 570 
Q 1363 391 1709 391 
Q 2188 391 2477 730 
Q 2766 1069 2766 1631 
L 2766 1759 
L 2194 1759 
z
M 3341 1997 
L 3341 0 
L 2766 0 
L 2766 531 
Q 2569 213 2275 61 
Q 1981 -91 1556 -91 
Q 1019 -91 701 211 
Q 384 513 384 1019 
Q 384 1609 779 1909 
Q 1175 2209 1959 2209 
L 2766 2209 
L 2766 2266 
Q 2766 2663 2505 2880 
Q 2244 3097 1772 3097 
Q 1472 3097 1187 3025 
Q 903 2953 641 2809 
L 641 3341 
Q 956 3463 1253 3523 
Q 1550 3584 1831 3584 
Q 2591 3584 2966 3190 
Q 3341 2797 3341 1997 
z
" id="DejaVuSans-61" transform="scale(0.015625)"/>
       <path d="M 603 3500 
L 1178 3500 
L 1178 0 
L 603 0 
L 603 3500 
z
M 603 4863 
L 1178 4863 
L 1178 4134 
L 603 4134 
L 603 4863 
z
" id="DejaVuSans-69" transform="scale(0.015625)"/>
       <path d="M 1259 4147 
L 1259 519 
L 2022 519 
Q 2988 519 3436 956 
Q 3884 1394 3884 2338 
Q 3884 3275 3436 3711 
Q 2988 4147 2022 4147 
L 1259 4147 
z
M 628 4666 
L 1925 4666 
Q 3281 4666 3915 4102 
Q 4550 3538 4550 2338 
Q 4550 1131 3912 565 
Q 3275 0 1925 0 
L 628 0 
L 628 4666 
z
" id="DejaVuSans-44" transform="scale(0.015625)"/>
       <path d="M 1159 525 
L 1159 -1331 
L 581 -1331 
L 581 3500 
L 1159 3500 
L 1159 2969 
Q 1341 3281 1617 3432 
Q 1894 3584 2278 3584 
Q 2916 3584 3314 3078 
Q 3713 2572 3713 1747 
Q 3713 922 3314 415 
Q 2916 -91 2278 -91 
Q 1894 -91 1617 61 
Q 1341 213 1159 525 
z
M 3116 1747 
Q 3116 2381 2855 2742 
Q 2594 3103 2138 3103 
Q 1681 3103 1420 2742 
Q 1159 2381 1159 1747 
Q 1159 1113 1420 752 
Q 1681 391 2138 391 
Q 2594 391 2855 752 
Q 3116 1113 3116 1747 
z
" id="DejaVuSans-70" transform="scale(0.015625)"/>
       <path d="M 603 4863 
L 1178 4863 
L 1178 0 
L 603 0 
L 603 4863 
z
" id="DejaVuSans-6c" transform="scale(0.015625)"/>
       <path d="M 3597 1894 
L 3597 1613 
L 953 1613 
Q 991 1019 1311 708 
Q 1631 397 2203 397 
Q 2534 397 2845 478 
Q 3156 559 3463 722 
L 3463 178 
Q 3153 47 2828 -22 
Q 2503 -91 2169 -91 
Q 1331 -91 842 396 
Q 353 884 353 1716 
Q 353 2575 817 3079 
Q 1281 3584 2069 3584 
Q 2775 3584 3186 3129 
Q 3597 2675 3597 1894 
z
M 3022 2063 
Q 3016 2534 2758 2815 
Q 2500 3097 2075 3097 
Q 1594 3097 1305 2825 
Q 1016 2553 972 2059 
L 3022 2063 
z
" id="DejaVuSans-65" transform="scale(0.015625)"/>
       <path d="M 628 4666 
L 1569 4666 
L 2759 1491 
L 3956 4666 
L 4897 4666 
L 4897 0 
L 4281 0 
L 4281 4097 
L 3078 897 
L 2444 897 
L 1241 4097 
L 1241 0 
L 628 0 
L 628 4666 
z
" id="DejaVuSans-4d" transform="scale(0.015625)"/>
       <path d="M 3078 2063 
Q 3088 2113 3092 2166 
Q 3097 2219 3097 2272 
Q 3097 2653 2873 2875 
Q 2650 3097 2266 3097 
Q 1838 3097 1509 2826 
Q 1181 2556 1013 2059 
L 3078 2063 
z
M 3578 1613 
L 903 1613 
Q 884 1494 878 1425 
Q 872 1356 872 1306 
Q 872 872 1139 634 
Q 1406 397 1894 397 
Q 2269 397 2603 481 
Q 2938 566 3225 728 
L 3116 159 
Q 2806 34 2476 -28 
Q 2147 -91 1806 -91 
Q 1078 -91 686 257 
Q 294 606 294 1247 
Q 294 1794 489 2264 
Q 684 2734 1063 3103 
Q 1306 3334 1642 3459 
Q 1978 3584 2356 3584 
Q 2950 3584 3301 3228 
Q 3653 2872 3653 2272 
Q 3653 2128 3634 1964 
Q 3616 1800 3578 1613 
z
" id="DejaVuSans-Oblique-65" transform="scale(0.015625)"/>
       <path d="M 3438 1997 
L 3047 0 
L 2472 0 
L 2578 531 
Q 2325 219 2001 64 
Q 1678 -91 1281 -91 
Q 834 -91 548 182 
Q 263 456 263 884 
Q 263 1497 752 1853 
Q 1241 2209 2100 2209 
L 2900 2209 
L 2931 2363 
Q 2938 2388 2941 2417 
Q 2944 2447 2944 2509 
Q 2944 2788 2717 2942 
Q 2491 3097 2081 3097 
Q 1800 3097 1504 3025 
Q 1209 2953 897 2809 
L 997 3341 
Q 1322 3463 1633 3523 
Q 1944 3584 2234 3584 
Q 2853 3584 3176 3315 
Q 3500 3047 3500 2534 
Q 3500 2431 3484 2292 
Q 3469 2153 3438 1997 
z
M 2816 1759 
L 2241 1759 
Q 1534 1759 1195 1570 
Q 856 1381 856 984 
Q 856 709 1029 553 
Q 1203 397 1509 397 
Q 1978 397 2328 733 
Q 2678 1069 2791 1631 
L 2816 1759 
z
" id="DejaVuSans-Oblique-61" transform="scale(0.015625)"/>
      </defs>
      <use transform="translate(0 0.015625)" xlink:href="#DejaVuSans-54"/>
      <use transform="translate(61.083984 0.015625)" xlink:href="#DejaVuSans-72"/>
      <use transform="translate(102.197266 0.015625)" xlink:href="#DejaVuSans-61"/>
      <use transform="translate(163.476562 0.015625)" xlink:href="#DejaVuSans-6e"/>
      <use transform="translate(226.855469 0.015625)" xlink:href="#DejaVuSans-73"/>
      <use transform="translate(278.955078 0.015625)" xlink:href="#DejaVuSans-69"/>
      <use transform="translate(306.738281 0.015625)" xlink:href="#DejaVuSans-74"/>
      <use transform="translate(345.947266 0.015625)" xlink:href="#DejaVuSans-69"/>
      <use transform="translate(373.730469 0.015625)" xlink:href="#DejaVuSans-6f"/>
      <use transform="translate(434.912109 0.015625)" xlink:href="#DejaVuSans-6e"/>
      <use transform="translate(498.291016 0.015625)" xlink:href="#DejaVuSans-20"/>
      <use transform="translate(530.078125 0.015625)" xlink:href="#DejaVuSans-44"/>
      <use transform="translate(607.080078 0.015625)" xlink:href="#DejaVuSans-69"/>
      <use transform="translate(634.863281 0.015625)" xlink:href="#DejaVuSans-70"/>
      <use transform="translate(698.339844 0.015625)" xlink:href="#DejaVuSans-6f"/>
      <use transform="translate(759.521484 0.015625)" xlink:href="#DejaVuSans-6c"/>
      <use transform="translate(787.304688 0.015625)" xlink:href="#DejaVuSans-65"/>
      <use transform="translate(848.828125 0.015625)" xlink:href="#DejaVuSans-20"/>
      <use transform="translate(880.615234 0.015625)" xlink:href="#DejaVuSans-4d"/>
      <use transform="translate(966.894531 0.015625)" xlink:href="#DejaVuSans-6f"/>
      <use transform="translate(1028.076172 0.015625)" xlink:href="#DejaVuSans-6d"/>
      <use transform="translate(1125.488281 0.015625)" xlink:href="#DejaVuSans-65"/>
      <use transform="translate(1187.011719 0.015625)" xlink:href="#DejaVuSans-6e"/>
      <use transform="translate(1250.390625 0.015625)" xlink:href="#DejaVuSans-74"/>
      <use transform="translate(1289.599609 0.015625)" xlink:href="#DejaVuSans-20"/>
      <use transform="translate(1321.386719 0.015625)" xlink:href="#DejaVuSans-28"/>
      <use transform="translate(1360.400391 0.015625)" xlink:href="#DejaVuSans-Oblique-65"/>
      <use transform="translate(1421.923828 0.015625)" xlink:href="#DejaVuSans-Oblique-61"/>
      <use transform="translate(1483.203125 -16.390625)scale(0.7)" xlink:href="#DejaVuSans-30"/>
      <use transform="translate(1530.473633 0.015625)" xlink:href="#DejaVuSans-29"/>
     </g>
    </g>
   </g>
   <g id="line2d_27">
    <path clip-path="url(#p82f328a18e)" d="M 72.868844 177.89428 
L 98.042733 175.661888 
L 104.060073 175.36322 
L 115.789615 175.010776 
L 121.508561 174.613777 
L 138.119192 172.94946 
L 169.123955 170.076133 
L 188.350476 168.087713 
L 202.100167 166.452077 
L 215.324262 164.6402 
L 228.061468 162.614361 
L 240.346368 160.343615 
L 248.300474 158.680722 
L 256.07582 156.890944 
L 263.680266 154.968772 
L 271.121162 152.908289 
L 278.405397 150.706095 
L 285.53943 148.359729 
L 292.529331 145.8669 
L 299.38081 143.230954 
L 306.099241 140.461383 
L 315.938436 136.117692 
L 349.795399 120.673719 
L 358.481756 117.042877 
L 366.955363 113.721982 
L 375.226395 110.726976 
L 383.304311 108.069546 
L 391.197924 105.737828 
L 398.915456 103.707499 
L 406.464593 101.948137 
L 413.852525 100.426042 
L 423.463931 98.709318 
L 432.815536 97.288111 
L 444.160433 95.838388 
L 455.145113 94.669544 
L 467.882319 93.544554 
L 482.172955 92.512952 
L 499.719786 91.495296 
L 520.023594 90.56902 
L 544.252676 89.710307 
L 573.101741 88.92848 
L 608.168524 88.215749 
L 649.999129 87.600125 
L 699.264012 87.102345 
L 756.240368 86.761423 
L 830.169353 86.492593 
L 830.169353 86.492593 
" style="fill:none;stroke:#ff7f0e;stroke-linecap:square;stroke-width:1.5;"/>
   </g>
   <g id="line2d_28">
    <path clip-path="url(#p82f328a18e)" d="M 72.868844 281.64722 
L 79.336104 277.021728 
L 85.684692 280.319418 
L 91.918885 285.16 
L 98.042733 253.782968 
L 104.060073 181.380116 
L 109.974548 123.867257 
L 115.789615 104.153297 
L 121.508561 97.825208 
L 127.134512 92.057325 
L 132.670444 87.450226 
L 138.119192 83.974727 
L 148.765827 77.941961 
L 153.968758 75.247433 
L 164.145619 70.441254 
L 174.031674 66.19162 
L 183.643079 62.420059 
L 192.994685 59.076714 
L 202.100167 56.136742 
L 210.97215 53.569393 
L 219.622309 51.346025 
L 228.061468 49.443539 
L 236.299675 47.838517 
L 244.346278 46.507818 
L 252.209988 45.430628 
L 259.898935 44.588043 
L 267.420717 43.961365 
L 274.782449 43.53422 
L 281.9908 43.296676 
L 289.052032 43.24 
L 295.97203 43.360915 
L 302.756333 43.663909 
L 309.41016 44.157578 
L 315.938436 44.852758 
L 322.345811 45.736881 
L 331.739737 47.341322 
L 346.8508 50.321149 
L 388.586679 58.601669 
L 411.407367 62.926653 
L 428.171328 65.901028 
L 444.160433 68.512952 
L 459.44316 70.77079 
L 474.079291 72.705598 
L 488.121325 74.355423 
L 503.501117 75.943027 
L 520.023594 77.416108 
L 537.501469 78.74428 
L 557.372289 80.009829 
L 579.19861 81.157914 
L 602.565351 82.160922 
L 628.40753 83.028213 
L 665.646486 84.056184 
L 694.965964 84.617066 
L 736.677269 85.157202 
L 793.146447 85.673912 
L 830.169353 85.912015 
L 830.169353 85.912015 
" style="fill:none;stroke:#2ca02c;stroke-linecap:square;stroke-width:1.5;"/>
   </g>
   <g id="line2d_29">
    <path clip-path="url(#p82f328a18e)" d="M 72.868844 282.890375 
L 79.336104 280.426376 
L 85.684692 276.820517 
L 91.918885 272.060629 
L 98.042733 264.898462 
L 104.060073 254.41525 
L 109.974548 240.626191 
L 115.789615 225.428614 
L 121.508561 208.725342 
L 127.134512 190.979514 
L 132.670444 172.65427 
L 143.48346 136.11809 
L 148.765827 118.833433 
L 153.968758 102.821917 
L 159.094605 88.546683 
L 164.145619 76.470869 
L 169.123955 67.057614 
L 174.031674 60.770059 
L 178.87075 58.007456 
L 188.350476 55.253099 
L 197.577379 52.823697 
L 206.564595 50.707462 
L 215.324262 48.892604 
L 223.867618 47.367336 
L 232.20509 46.119869 
L 240.346368 45.13887 
L 248.300474 44.411711 
L 256.07582 43.920973 
L 263.680266 43.657111 
L 271.121162 43.616349 
L 278.405397 43.797162 
L 285.53943 44.18149 
L 292.529331 44.771748 
L 302.756333 45.945706 
L 312.689695 47.342461 
L 328.636681 49.83553 
L 346.8508 52.923715 
L 372.491295 57.55685 
L 403.966471 63.206471 
L 423.463931 66.47992 
L 439.667015 68.972153 
L 455.145113 71.147533 
L 469.960333 73.029353 
L 486.149876 74.850424 
L 501.615617 76.360048 
L 518.226248 77.74921 
L 535.792881 78.972558 
L 554.13873 80.02355 
L 582.207223 81.366855 
L 605.37828 82.314625 
L 632.317045 83.177667 
L 662.097857 83.962753 
L 702.452867 84.767027 
L 739.540638 85.288057 
L 787.400364 85.711535 
L 830.169353 85.941581 
L 830.169353 85.941581 
" style="fill:none;stroke:#d62728;stroke-linecap:square;stroke-width:1.5;"/>
   </g>
   <g id="line2d_30">
    <path clip-path="url(#p82f328a18e)" d="M 72.868844 246.480638 
L 79.336104 220.042077 
L 85.684692 188.178243 
L 91.918885 155.503613 
L 98.042733 127.743725 
L 104.060073 110.116012 
L 109.974548 102.13432 
L 115.789615 99.745633 
L 121.508561 99.112683 
L 127.134512 98.790814 
L 138.119192 98.480797 
L 153.968758 98.339331 
L 178.87075 98.417988 
L 202.100167 98.744519 
L 223.867618 99.268908 
L 252.209988 100.188631 
L 281.9908 101.141543 
L 292.529331 101.262253 
L 302.756333 101.140626 
L 312.689695 100.803471 
L 328.636681 99.974602 
L 406.464593 95.565859 
L 452.9759 93.270427 
L 490.081604 91.639349 
L 523.590516 90.388439 
L 554.13873 89.464942 
L 588.147084 88.66698 
L 627.09448 87.985881 
L 673.787764 87.400627 
L 721.993806 87.031792 
L 818.263203 86.55477 
L 830.169353 86.522792 
L 830.169353 86.522792 
" style="fill:none;stroke:#9467bd;stroke-linecap:square;stroke-width:1.5;"/>
   </g>
   <g id="patch_3">
    <path d="M 59.713281 297.256 
L 59.713281 31.144 
" style="fill:none;stroke:#000000;stroke-linecap:square;stroke-linejoin:miter;stroke-width:0.8;"/>
   </g>
   <g id="patch_4">
    <path d="M 829.753281 297.256 
L 829.753281 31.144 
" style="fill:none;stroke:#000000;stroke-linecap:square;stroke-linejoin:miter;stroke-width:0.8;"/>
   </g>
   <g id="patch_5">
    <path d="M 59.713281 297.256 
L 829.753281 297.256 
" style="fill:none;stroke:#000000;stroke-linecap:square;stroke-linejoin:miter;stroke-width:0.8;"/>
   </g>
   <g id="patch_6">
    <path d="M 59.713281 31.144 
L 829.753281 31.144 
" style="fill:none;stroke:#000000;stroke-linecap:square;stroke-linejoin:miter;stroke-width:0.8;"/>
   </g>
   <g id="legend_1">
    <g id="patch_7">
     <path d="M 705.249681 290.316 
L 820.037281 290.316 
Q 822.813281 290.316 822.813281 287.54 
L 822.813281 207.43505 
Q 822.813281 204.65905 820.037281 204.65905 
L 705.249681 204.65905 
Q 702.473681 204.65905 702.473681 207.43505 
L 702.473681 287.54 
Q 702.473681 290.316 705.249681 290.316 
z
" style="fill:#ffffff;opacity:0.8;stroke:#cccccc;stroke-linejoin:miter;"/>
    </g>
    <g id="line2d_31">
     <path d="M 708.025681 215.899681 
L 735.785681 215.899681 
" style="fill:none;stroke:#ff7f0e;stroke-linecap:square;stroke-width:1.5;"/>
    </g>
    <g id="line2d_32"/>
    <g id="text_16">
     <!-- $a^3\Sigma\rightarrow b^3\Pi$ -->
     <g transform="translate(746.889681 220.757681)scale(0.1388 -0.1388)">
      <defs>
       <path d="M 1353 531 
L 3634 531 
L 3634 0 
L 628 0 
L 628 531 
L 2125 2481 
L 628 4134 
L 628 4666 
L 3578 4666 
L 3578 4134 
L 1353 4134 
L 2850 2494 
L 1353 531 
z
" id="DejaVuSans-3a3" transform="scale(0.015625)"/>
       <path d="M 5050 2147 
L 5050 1866 
L 3822 638 
L 3447 1013 
L 4175 1741 
L 366 1741 
L 366 2272 
L 4175 2272 
L 3447 3000 
L 3822 3375 
L 5050 2147 
z
" id="DejaVuSans-2192" transform="scale(0.015625)"/>
       <path d="M 3169 2138 
Q 3169 2591 2961 2847 
Q 2753 3103 2388 3103 
Q 2122 3103 1889 2973 
Q 1656 2844 1484 2597 
Q 1303 2338 1198 1995 
Q 1094 1653 1094 1313 
Q 1094 881 1298 636 
Q 1503 391 1863 391 
Q 2134 391 2365 517 
Q 2597 644 2772 891 
Q 2950 1147 3059 1487 
Q 3169 1828 3169 2138 
z
M 1381 2969 
Q 1594 3256 1914 3420 
Q 2234 3584 2584 3584 
Q 3122 3584 3439 3221 
Q 3756 2859 3756 2241 
Q 3756 1734 3570 1259 
Q 3384 784 3041 416 
Q 2816 172 2522 40 
Q 2228 -91 1906 -91 
Q 1566 -91 1316 65 
Q 1066 222 909 531 
L 806 0 
L 231 0 
L 1178 4863 
L 1753 4863 
L 1381 2969 
z
" id="DejaVuSans-Oblique-62" transform="scale(0.015625)"/>
       <path d="M 4184 4666 
L 4184 0 
L 3553 0 
L 3553 4134 
L 1259 4134 
L 1259 0 
L 628 0 
L 628 4666 
L 4184 4666 
z
" id="DejaVuSans-3a0" transform="scale(0.015625)"/>
      </defs>
      <use transform="translate(0 0.765625)" xlink:href="#DejaVuSans-Oblique-61"/>
      <use transform="translate(65.929193 39.046875)scale(0.7)" xlink:href="#DejaVuSans-33"/>
      <use transform="translate(113.199701 0.765625)" xlink:href="#DejaVuSans-3a3"/>
      <use transform="translate(195.865716 0.765625)" xlink:href="#DejaVuSans-2192"/>
      <use transform="translate(299.137201 0.765625)" xlink:href="#DejaVuSans-Oblique-62"/>
      <use transform="translate(370.061471 39.046875)scale(0.7)" xlink:href="#DejaVuSans-33"/>
      <use transform="translate(417.331979 0.765625)" xlink:href="#DejaVuSans-3a0"/>
     </g>
    </g>
    <g id="line2d_33">
     <path d="M 708.025681 236.272919 
L 735.785681 236.272919 
" style="fill:none;stroke:#2ca02c;stroke-linecap:square;stroke-width:1.5;"/>
    </g>
    <g id="line2d_34"/>
    <g id="text_17">
     <!-- $a^3\Sigma\rightarrow c^3\Sigma$ -->
     <g transform="translate(746.889681 241.130919)scale(0.1388 -0.1388)">
      <defs>
       <path d="M 3431 3366 
L 3316 2797 
Q 3109 2947 2876 3022 
Q 2644 3097 2394 3097 
Q 2119 3097 1870 3000 
Q 1622 2903 1453 2725 
Q 1184 2453 1037 2087 
Q 891 1722 891 1331 
Q 891 859 1127 628 
Q 1363 397 1844 397 
Q 2081 397 2348 469 
Q 2616 541 2906 684 
L 2797 116 
Q 2547 13 2283 -39 
Q 2019 -91 1741 -91 
Q 1044 -91 669 257 
Q 294 606 294 1253 
Q 294 1797 489 2255 
Q 684 2713 1069 3078 
Q 1331 3328 1684 3456 
Q 2038 3584 2456 3584 
Q 2700 3584 2940 3529 
Q 3181 3475 3431 3366 
z
" id="DejaVuSans-Oblique-63" transform="scale(0.015625)"/>
      </defs>
      <use transform="translate(0 0.765625)" xlink:href="#DejaVuSans-Oblique-61"/>
      <use transform="translate(65.929193 39.046875)scale(0.7)" xlink:href="#DejaVuSans-33"/>
      <use transform="translate(113.199701 0.765625)" xlink:href="#DejaVuSans-3a3"/>
      <use transform="translate(195.865716 0.765625)" xlink:href="#DejaVuSans-2192"/>
      <use transform="translate(299.137201 0.765625)" xlink:href="#DejaVuSans-Oblique-63"/>
      <use transform="translate(358.767565 39.046875)scale(0.7)" xlink:href="#DejaVuSans-33"/>
      <use transform="translate(406.038073 0.765625)" xlink:href="#DejaVuSans-3a3"/>
     </g>
    </g>
    <g id="line2d_35">
     <path d="M 708.025681 256.646156 
L 735.785681 256.646156 
" style="fill:none;stroke:#d62728;stroke-linecap:square;stroke-width:1.5;"/>
    </g>
    <g id="line2d_36"/>
    <g id="text_18">
     <!-- $X^1\Sigma\rightarrow A^1\Sigma$ -->
     <g transform="translate(746.889681 261.504156)scale(0.1388 -0.1388)">
      <defs>
       <path d="M 878 4666 
L 1516 4666 
L 2316 2981 
L 3763 4666 
L 4500 4666 
L 2578 2438 
L 3738 0 
L 3103 0 
L 2163 1966 
L 459 0 
L -275 0 
L 1906 2509 
L 878 4666 
z
" id="DejaVuSans-Oblique-58" transform="scale(0.015625)"/>
       <path d="M 2356 4666 
L 3072 4666 
L 3938 0 
L 3278 0 
L 3084 1197 
L 984 1197 
L 325 0 
L -341 0 
L 2356 4666 
z
M 2584 4044 
L 1275 1722 
L 2988 1722 
L 2584 4044 
z
" id="DejaVuSans-Oblique-41" transform="scale(0.015625)"/>
      </defs>
      <use transform="translate(0 0.684375)" xlink:href="#DejaVuSans-Oblique-58"/>
      <use transform="translate(75.52263 38.965625)scale(0.7)" xlink:href="#DejaVuSans-31"/>
      <use transform="translate(122.793138 0.684375)" xlink:href="#DejaVuSans-3a3"/>
      <use transform="translate(205.459154 0.684375)" xlink:href="#DejaVuSans-2192"/>
      <use transform="translate(308.730638 0.684375)" xlink:href="#DejaVuSans-Oblique-41"/>
      <use transform="translate(384.155612 38.965625)scale(0.7)" xlink:href="#DejaVuSans-31"/>
      <use transform="translate(431.42612 0.684375)" xlink:href="#DejaVuSans-3a3"/>
     </g>
    </g>
    <g id="line2d_37">
     <path d="M 708.025681 277.019394 
L 735.785681 277.019394 
" style="fill:none;stroke:#9467bd;stroke-linecap:square;stroke-width:1.5;"/>
    </g>
    <g id="line2d_38"/>
    <g id="text_19">
     <!-- $X^1\Sigma\rightarrow B^1\Pi$ -->
     <g transform="translate(746.889681 281.877394)scale(0.1388 -0.1388)">
      <defs>
       <path d="M 1081 4666 
L 2694 4666 
Q 3350 4666 3675 4422 
Q 4000 4178 4000 3688 
Q 4000 3238 3720 2911 
Q 3441 2584 2988 2516 
Q 3375 2428 3569 2181 
Q 3763 1934 3763 1522 
Q 3763 819 3242 409 
Q 2722 0 1819 0 
L 172 0 
L 1081 4666 
z
M 1234 2228 
L 903 519 
L 1919 519 
Q 2491 519 2800 781 
Q 3109 1044 3109 1522 
Q 3109 1891 2904 2059 
Q 2700 2228 2247 2228 
L 1234 2228 
z
M 1606 4147 
L 1331 2741 
L 2272 2741 
Q 2775 2741 3058 2959 
Q 3341 3178 3341 3566 
Q 3341 3869 3150 4008 
Q 2959 4147 2541 4147 
L 1606 4147 
z
" id="DejaVuSans-Oblique-42" transform="scale(0.015625)"/>
      </defs>
      <use transform="translate(0 0.684375)" xlink:href="#DejaVuSans-Oblique-58"/>
      <use transform="translate(75.52263 38.965625)scale(0.7)" xlink:href="#DejaVuSans-31"/>
      <use transform="translate(122.793138 0.684375)" xlink:href="#DejaVuSans-3a3"/>
      <use transform="translate(205.459154 0.684375)" xlink:href="#DejaVuSans-2192"/>
      <use transform="translate(308.730638 0.684375)" xlink:href="#DejaVuSans-Oblique-42"/>
      <use transform="translate(384.350924 38.965625)scale(0.7)" xlink:href="#DejaVuSans-31"/>
      <use transform="translate(431.621432 0.684375)" xlink:href="#DejaVuSans-3a0"/>
     </g>
    </g>
   </g>
  </g>
 </g>
 <defs>
  <clipPath id="p82f328a18e">
   <rect height="266.112" width="770.04" x="59.713281" y="31.144"/>
  </clipPath>
 </defs>
</svg>
