<?xml version="1.0" encoding="utf-8" standalone="no"?>
<!DOCTYPE svg PUBLIC "-//W3C//DTD SVG 1.1//EN"
  "http://www.w3.org/Graphics/SVG/1.1/DTD/svg11.dtd">
<!-- Created with matplotlib (https://matplotlib.org/) -->
<svg height="349.329437pt" version="1.1" viewBox="0 0 836.953281 349.329437" width="836.953281pt" xmlns="http://www.w3.org/2000/svg" xmlns:xlink="http://www.w3.org/1999/xlink">
 <defs>
  <style type="text/css">*{stroke-linecap:butt;stroke-linejoin:round;}</style>
 </defs>
 <g id="figure_1">
  <g id="patch_1">
   <path d="M 0 349.329437 
L 836.953281 349.329437 
L 836.953281 0 
L 0 0 
z
" style="fill:none;"/>
  </g>
  <g id="axes_1">
   <g id="patch_2">
    <path d="M 59.713281 297.256 
L 829.753281 297.256 
L 829.753281 31.144 
L 59.713281 31.144 
z
" style="fill:none;"/>
   </g>
   <g id="matplotlib.axis_1">
    <g id="xtick_1">
     <g id="line2d_1">
      <path clip-path="url(#p63721e4b39)" d="M 141.099623 297.256 
L 141.099623 31.144 
" style="fill:none;stroke:#b0b0b0;stroke-linecap:square;stroke-width:0.8;"/>
     </g>
     <g id="line2d_2">
      <defs>
       <path d="M 0 0 
L 0 3.5 
" id="m005f0a59be" style="stroke:#000000;stroke-width:0.8;"/>
      </defs>
      <g>
       <use style="stroke:#000000;stroke-width:0.8;" x="141.099623" xlink:href="#m005f0a59be" y="297.256"/>
      </g>
     </g>
     <g id="text_1">
      <!-- 4 -->
      <g transform="translate(136.327748 315.653656)scale(0.15 -0.15)">
       <defs>
        <path d="M 37.796875 64.3125 
L 12.890625 25.390625 
L 37.796875 25.390625 
z
M 35.203125 72.90625 
L 47.609375 72.90625 
L 47.609375 25.390625 
L 58.015625 25.390625 
L 58.015625 17.1875 
L 47.609375 17.1875 
L 47.609375 0 
L 37.796875 0 
L 37.796875 17.1875 
L 4.890625 17.1875 
L 4.890625 26.703125 
z
" id="DejaVuSans-52"/>
       </defs>
       <use xlink:href="#DejaVuSans-52"/>
      </g>
     </g>
    </g>
    <g id="xtick_2">
     <g id="line2d_3">
      <path clip-path="url(#p63721e4b39)" d="M 266.309379 297.256 
L 266.309379 31.144 
" style="fill:none;stroke:#b0b0b0;stroke-linecap:square;stroke-width:0.8;"/>
     </g>
     <g id="line2d_4">
      <g>
       <use style="stroke:#000000;stroke-width:0.8;" x="266.309379" xlink:href="#m005f0a59be" y="297.256"/>
      </g>
     </g>
     <g id="text_2">
      <!-- 6 -->
      <g transform="translate(261.537504 315.653656)scale(0.15 -0.15)">
       <defs>
        <path d="M 33.015625 40.375 
Q 26.375 40.375 22.484375 35.828125 
Q 18.609375 31.296875 18.609375 23.390625 
Q 18.609375 15.53125 22.484375 10.953125 
Q 26.375 6.390625 33.015625 6.390625 
Q 39.65625 6.390625 43.53125 10.953125 
Q 47.40625 15.53125 47.40625 23.390625 
Q 47.40625 31.296875 43.53125 35.828125 
Q 39.65625 40.375 33.015625 40.375 
z
M 52.59375 71.296875 
L 52.59375 62.3125 
Q 48.875 64.0625 45.09375 64.984375 
Q 41.3125 65.921875 37.59375 65.921875 
Q 27.828125 65.921875 22.671875 59.328125 
Q 17.53125 52.734375 16.796875 39.40625 
Q 19.671875 43.65625 24.015625 45.921875 
Q 28.375 48.1875 33.59375 48.1875 
Q 44.578125 48.1875 50.953125 41.515625 
Q 57.328125 34.859375 57.328125 23.390625 
Q 57.328125 12.15625 50.6875 5.359375 
Q 44.046875 -1.421875 33.015625 -1.421875 
Q 20.359375 -1.421875 13.671875 8.265625 
Q 6.984375 17.96875 6.984375 36.375 
Q 6.984375 53.65625 15.1875 63.9375 
Q 23.390625 74.21875 37.203125 74.21875 
Q 40.921875 74.21875 44.703125 73.484375 
Q 48.484375 72.75 52.59375 71.296875 
z
" id="DejaVuSans-54"/>
       </defs>
       <use xlink:href="#DejaVuSans-54"/>
      </g>
     </g>
    </g>
    <g id="xtick_3">
     <g id="line2d_5">
      <path clip-path="url(#p63721e4b39)" d="M 391.519135 297.256 
L 391.519135 31.144 
" style="fill:none;stroke:#b0b0b0;stroke-linecap:square;stroke-width:0.8;"/>
     </g>
     <g id="line2d_6">
      <g>
       <use style="stroke:#000000;stroke-width:0.8;" x="391.519135" xlink:href="#m005f0a59be" y="297.256"/>
      </g>
     </g>
     <g id="text_3">
      <!-- 8 -->
      <g transform="translate(386.74726 315.653656)scale(0.15 -0.15)">
       <defs>
        <path d="M 31.78125 34.625 
Q 24.75 34.625 20.71875 30.859375 
Q 16.703125 27.09375 16.703125 20.515625 
Q 16.703125 13.921875 20.71875 10.15625 
Q 24.75 6.390625 31.78125 6.390625 
Q 38.8125 6.390625 42.859375 10.171875 
Q 46.921875 13.96875 46.921875 20.515625 
Q 46.921875 27.09375 42.890625 30.859375 
Q 38.875 34.625 31.78125 34.625 
z
M 21.921875 38.8125 
Q 15.578125 40.375 12.03125 44.71875 
Q 8.5 49.078125 8.5 55.328125 
Q 8.5 64.0625 14.71875 69.140625 
Q 20.953125 74.21875 31.78125 74.21875 
Q 42.671875 74.21875 48.875 69.140625 
Q 55.078125 64.0625 55.078125 55.328125 
Q 55.078125 49.078125 51.53125 44.71875 
Q 48 40.375 41.703125 38.8125 
Q 48.828125 37.15625 52.796875 32.3125 
Q 56.78125 27.484375 56.78125 20.515625 
Q 56.78125 9.90625 50.3125 4.234375 
Q 43.84375 -1.421875 31.78125 -1.421875 
Q 19.734375 -1.421875 13.25 4.234375 
Q 6.78125 9.90625 6.78125 20.515625 
Q 6.78125 27.484375 10.78125 32.3125 
Q 14.796875 37.15625 21.921875 38.8125 
z
M 18.3125 54.390625 
Q 18.3125 48.734375 21.84375 45.5625 
Q 25.390625 42.390625 31.78125 42.390625 
Q 38.140625 42.390625 41.71875 45.5625 
Q 45.3125 48.734375 45.3125 54.390625 
Q 45.3125 60.0625 41.71875 63.234375 
Q 38.140625 66.40625 31.78125 66.40625 
Q 25.390625 66.40625 21.84375 63.234375 
Q 18.3125 60.0625 18.3125 54.390625 
z
" id="DejaVuSans-56"/>
       </defs>
       <use xlink:href="#DejaVuSans-56"/>
      </g>
     </g>
    </g>
    <g id="xtick_4">
     <g id="line2d_7">
      <path clip-path="url(#p63721e4b39)" d="M 516.728891 297.256 
L 516.728891 31.144 
" style="fill:none;stroke:#b0b0b0;stroke-linecap:square;stroke-width:0.8;"/>
     </g>
     <g id="line2d_8">
      <g>
       <use style="stroke:#000000;stroke-width:0.8;" x="516.728891" xlink:href="#m005f0a59be" y="297.256"/>
      </g>
     </g>
     <g id="text_4">
      <!-- 10 -->
      <g transform="translate(507.185141 315.653656)scale(0.15 -0.15)">
       <defs>
        <path d="M 12.40625 8.296875 
L 28.515625 8.296875 
L 28.515625 63.921875 
L 10.984375 60.40625 
L 10.984375 69.390625 
L 28.421875 72.90625 
L 38.28125 72.90625 
L 38.28125 8.296875 
L 54.390625 8.296875 
L 54.390625 0 
L 12.40625 0 
z
" id="DejaVuSans-49"/>
        <path d="M 31.78125 66.40625 
Q 24.171875 66.40625 20.328125 58.90625 
Q 16.5 51.421875 16.5 36.375 
Q 16.5 21.390625 20.328125 13.890625 
Q 24.171875 6.390625 31.78125 6.390625 
Q 39.453125 6.390625 43.28125 13.890625 
Q 47.125 21.390625 47.125 36.375 
Q 47.125 51.421875 43.28125 58.90625 
Q 39.453125 66.40625 31.78125 66.40625 
z
M 31.78125 74.21875 
Q 44.046875 74.21875 50.515625 64.515625 
Q 56.984375 54.828125 56.984375 36.375 
Q 56.984375 17.96875 50.515625 8.265625 
Q 44.046875 -1.421875 31.78125 -1.421875 
Q 19.53125 -1.421875 13.0625 8.265625 
Q 6.59375 17.96875 6.59375 36.375 
Q 6.59375 54.828125 13.0625 64.515625 
Q 19.53125 74.21875 31.78125 74.21875 
z
" id="DejaVuSans-48"/>
       </defs>
       <use xlink:href="#DejaVuSans-49"/>
       <use x="63.623047" xlink:href="#DejaVuSans-48"/>
      </g>
     </g>
    </g>
    <g id="xtick_5">
     <g id="line2d_9">
      <path clip-path="url(#p63721e4b39)" d="M 641.938647 297.256 
L 641.938647 31.144 
" style="fill:none;stroke:#b0b0b0;stroke-linecap:square;stroke-width:0.8;"/>
     </g>
     <g id="line2d_10">
      <g>
       <use style="stroke:#000000;stroke-width:0.8;" x="641.938647" xlink:href="#m005f0a59be" y="297.256"/>
      </g>
     </g>
     <g id="text_5">
      <!-- 12 -->
      <g transform="translate(632.394897 315.653656)scale(0.15 -0.15)">
       <defs>
        <path d="M 19.1875 8.296875 
L 53.609375 8.296875 
L 53.609375 0 
L 7.328125 0 
L 7.328125 8.296875 
Q 12.9375 14.109375 22.625 23.890625 
Q 32.328125 33.6875 34.8125 36.53125 
Q 39.546875 41.84375 41.421875 45.53125 
Q 43.3125 49.21875 43.3125 52.78125 
Q 43.3125 58.59375 39.234375 62.25 
Q 35.15625 65.921875 28.609375 65.921875 
Q 23.96875 65.921875 18.8125 64.3125 
Q 13.671875 62.703125 7.8125 59.421875 
L 7.8125 69.390625 
Q 13.765625 71.78125 18.9375 73 
Q 24.125 74.21875 28.421875 74.21875 
Q 39.75 74.21875 46.484375 68.546875 
Q 53.21875 62.890625 53.21875 53.421875 
Q 53.21875 48.921875 51.53125 44.890625 
Q 49.859375 40.875 45.40625 35.40625 
Q 44.1875 33.984375 37.640625 27.21875 
Q 31.109375 20.453125 19.1875 8.296875 
z
" id="DejaVuSans-50"/>
       </defs>
       <use xlink:href="#DejaVuSans-49"/>
       <use x="63.623047" xlink:href="#DejaVuSans-50"/>
      </g>
     </g>
    </g>
    <g id="xtick_6">
     <g id="line2d_11">
      <path clip-path="url(#p63721e4b39)" d="M 767.148403 297.256 
L 767.148403 31.144 
" style="fill:none;stroke:#b0b0b0;stroke-linecap:square;stroke-width:0.8;"/>
     </g>
     <g id="line2d_12">
      <g>
       <use style="stroke:#000000;stroke-width:0.8;" x="767.148403" xlink:href="#m005f0a59be" y="297.256"/>
      </g>
     </g>
     <g id="text_6">
      <!-- 14 -->
      <g transform="translate(757.604653 315.653656)scale(0.15 -0.15)">
       <use xlink:href="#DejaVuSans-49"/>
       <use x="63.623047" xlink:href="#DejaVuSans-52"/>
      </g>
     </g>
    </g>
    <g id="text_7">
     <!-- R (Angstroms) -->
     <g transform="translate(373.192656 337.970062)scale(0.2 -0.2)">
      <defs>
       <path d="M 44.390625 34.1875 
Q 47.5625 33.109375 50.5625 29.59375 
Q 53.5625 26.078125 56.59375 19.921875 
L 66.609375 0 
L 56 0 
L 46.6875 18.703125 
Q 43.0625 26.03125 39.671875 28.421875 
Q 36.28125 30.8125 30.421875 30.8125 
L 19.671875 30.8125 
L 19.671875 0 
L 9.8125 0 
L 9.8125 72.90625 
L 32.078125 72.90625 
Q 44.578125 72.90625 50.734375 67.671875 
Q 56.890625 62.453125 56.890625 51.90625 
Q 56.890625 45.015625 53.6875 40.46875 
Q 50.484375 35.9375 44.390625 34.1875 
z
M 19.671875 64.796875 
L 19.671875 38.921875 
L 32.078125 38.921875 
Q 39.203125 38.921875 42.84375 42.21875 
Q 46.484375 45.515625 46.484375 51.90625 
Q 46.484375 58.296875 42.84375 61.546875 
Q 39.203125 64.796875 32.078125 64.796875 
z
" id="DejaVuSans-82"/>
       <path id="DejaVuSans-32"/>
       <path d="M 31 75.875 
Q 24.46875 64.65625 21.28125 53.65625 
Q 18.109375 42.671875 18.109375 31.390625 
Q 18.109375 20.125 21.3125 9.0625 
Q 24.515625 -2 31 -13.1875 
L 23.1875 -13.1875 
Q 15.875 -1.703125 12.234375 9.375 
Q 8.59375 20.453125 8.59375 31.390625 
Q 8.59375 42.28125 12.203125 53.3125 
Q 15.828125 64.359375 23.1875 75.875 
z
" id="DejaVuSans-40"/>
       <path d="M 34.1875 63.1875 
L 20.796875 26.90625 
L 47.609375 26.90625 
z
M 28.609375 72.90625 
L 39.796875 72.90625 
L 67.578125 0 
L 57.328125 0 
L 50.6875 18.703125 
L 17.828125 18.703125 
L 11.1875 0 
L 0.78125 0 
z
" id="DejaVuSans-65"/>
       <path d="M 54.890625 33.015625 
L 54.890625 0 
L 45.90625 0 
L 45.90625 32.71875 
Q 45.90625 40.484375 42.875 44.328125 
Q 39.84375 48.1875 33.796875 48.1875 
Q 26.515625 48.1875 22.3125 43.546875 
Q 18.109375 38.921875 18.109375 30.90625 
L 18.109375 0 
L 9.078125 0 
L 9.078125 54.6875 
L 18.109375 54.6875 
L 18.109375 46.1875 
Q 21.34375 51.125 25.703125 53.5625 
Q 30.078125 56 35.796875 56 
Q 45.21875 56 50.046875 50.171875 
Q 54.890625 44.34375 54.890625 33.015625 
z
" id="DejaVuSans-110"/>
       <path d="M 45.40625 27.984375 
Q 45.40625 37.75 41.375 43.109375 
Q 37.359375 48.484375 30.078125 48.484375 
Q 22.859375 48.484375 18.828125 43.109375 
Q 14.796875 37.75 14.796875 27.984375 
Q 14.796875 18.265625 18.828125 12.890625 
Q 22.859375 7.515625 30.078125 7.515625 
Q 37.359375 7.515625 41.375 12.890625 
Q 45.40625 18.265625 45.40625 27.984375 
z
M 54.390625 6.78125 
Q 54.390625 -7.171875 48.1875 -13.984375 
Q 42 -20.796875 29.203125 -20.796875 
Q 24.46875 -20.796875 20.265625 -20.09375 
Q 16.0625 -19.390625 12.109375 -17.921875 
L 12.109375 -9.1875 
Q 16.0625 -11.328125 19.921875 -12.34375 
Q 23.78125 -13.375 27.78125 -13.375 
Q 36.625 -13.375 41.015625 -8.765625 
Q 45.40625 -4.15625 45.40625 5.171875 
L 45.40625 9.625 
Q 42.625 4.78125 38.28125 2.390625 
Q 33.9375 0 27.875 0 
Q 17.828125 0 11.671875 7.65625 
Q 5.515625 15.328125 5.515625 27.984375 
Q 5.515625 40.671875 11.671875 48.328125 
Q 17.828125 56 27.875 56 
Q 33.9375 56 38.28125 53.609375 
Q 42.625 51.21875 45.40625 46.390625 
L 45.40625 54.6875 
L 54.390625 54.6875 
z
" id="DejaVuSans-103"/>
       <path d="M 44.28125 53.078125 
L 44.28125 44.578125 
Q 40.484375 46.53125 36.375 47.5 
Q 32.28125 48.484375 27.875 48.484375 
Q 21.1875 48.484375 17.84375 46.4375 
Q 14.5 44.390625 14.5 40.28125 
Q 14.5 37.15625 16.890625 35.375 
Q 19.28125 33.59375 26.515625 31.984375 
L 29.59375 31.296875 
Q 39.15625 29.25 43.1875 25.515625 
Q 47.21875 21.78125 47.21875 15.09375 
Q 47.21875 7.46875 41.1875 3.015625 
Q 35.15625 -1.421875 24.609375 -1.421875 
Q 20.21875 -1.421875 15.453125 -0.5625 
Q 10.6875 0.296875 5.421875 2 
L 5.421875 11.28125 
Q 10.40625 8.6875 15.234375 7.390625 
Q 20.0625 6.109375 24.8125 6.109375 
Q 31.15625 6.109375 34.5625 8.28125 
Q 37.984375 10.453125 37.984375 14.40625 
Q 37.984375 18.0625 35.515625 20.015625 
Q 33.0625 21.96875 24.703125 23.78125 
L 21.578125 24.515625 
Q 13.234375 26.265625 9.515625 29.90625 
Q 5.8125 33.546875 5.8125 39.890625 
Q 5.8125 47.609375 11.28125 51.796875 
Q 16.75 56 26.8125 56 
Q 31.78125 56 36.171875 55.265625 
Q 40.578125 54.546875 44.28125 53.078125 
z
" id="DejaVuSans-115"/>
       <path d="M 18.3125 70.21875 
L 18.3125 54.6875 
L 36.8125 54.6875 
L 36.8125 47.703125 
L 18.3125 47.703125 
L 18.3125 18.015625 
Q 18.3125 11.328125 20.140625 9.421875 
Q 21.96875 7.515625 27.59375 7.515625 
L 36.8125 7.515625 
L 36.8125 0 
L 27.59375 0 
Q 17.1875 0 13.234375 3.875 
Q 9.28125 7.765625 9.28125 18.015625 
L 9.28125 47.703125 
L 2.6875 47.703125 
L 2.6875 54.6875 
L 9.28125 54.6875 
L 9.28125 70.21875 
z
" id="DejaVuSans-116"/>
       <path d="M 41.109375 46.296875 
Q 39.59375 47.171875 37.8125 47.578125 
Q 36.03125 48 33.890625 48 
Q 26.265625 48 22.1875 43.046875 
Q 18.109375 38.09375 18.109375 28.8125 
L 18.109375 0 
L 9.078125 0 
L 9.078125 54.6875 
L 18.109375 54.6875 
L 18.109375 46.1875 
Q 20.953125 51.171875 25.484375 53.578125 
Q 30.03125 56 36.53125 56 
Q 37.453125 56 38.578125 55.875 
Q 39.703125 55.765625 41.0625 55.515625 
z
" id="DejaVuSans-114"/>
       <path d="M 30.609375 48.390625 
Q 23.390625 48.390625 19.1875 42.75 
Q 14.984375 37.109375 14.984375 27.296875 
Q 14.984375 17.484375 19.15625 11.84375 
Q 23.34375 6.203125 30.609375 6.203125 
Q 37.796875 6.203125 41.984375 11.859375 
Q 46.1875 17.53125 46.1875 27.296875 
Q 46.1875 37.015625 41.984375 42.703125 
Q 37.796875 48.390625 30.609375 48.390625 
z
M 30.609375 56 
Q 42.328125 56 49.015625 48.375 
Q 55.71875 40.765625 55.71875 27.296875 
Q 55.71875 13.875 49.015625 6.21875 
Q 42.328125 -1.421875 30.609375 -1.421875 
Q 18.84375 -1.421875 12.171875 6.21875 
Q 5.515625 13.875 5.515625 27.296875 
Q 5.515625 40.765625 12.171875 48.375 
Q 18.84375 56 30.609375 56 
z
" id="DejaVuSans-111"/>
       <path d="M 52 44.1875 
Q 55.375 50.25 60.0625 53.125 
Q 64.75 56 71.09375 56 
Q 79.640625 56 84.28125 50.015625 
Q 88.921875 44.046875 88.921875 33.015625 
L 88.921875 0 
L 79.890625 0 
L 79.890625 32.71875 
Q 79.890625 40.578125 77.09375 44.375 
Q 74.3125 48.1875 68.609375 48.1875 
Q 61.625 48.1875 57.5625 43.546875 
Q 53.515625 38.921875 53.515625 30.90625 
L 53.515625 0 
L 44.484375 0 
L 44.484375 32.71875 
Q 44.484375 40.625 41.703125 44.40625 
Q 38.921875 48.1875 33.109375 48.1875 
Q 26.21875 48.1875 22.15625 43.53125 
Q 18.109375 38.875 18.109375 30.90625 
L 18.109375 0 
L 9.078125 0 
L 9.078125 54.6875 
L 18.109375 54.6875 
L 18.109375 46.1875 
Q 21.1875 51.21875 25.484375 53.609375 
Q 29.78125 56 35.6875 56 
Q 41.65625 56 45.828125 52.96875 
Q 50 49.953125 52 44.1875 
z
" id="DejaVuSans-109"/>
       <path d="M 8.015625 75.875 
L 15.828125 75.875 
Q 23.140625 64.359375 26.78125 53.3125 
Q 30.421875 42.28125 30.421875 31.390625 
Q 30.421875 20.453125 26.78125 9.375 
Q 23.140625 -1.703125 15.828125 -13.1875 
L 8.015625 -13.1875 
Q 14.5 -2 17.703125 9.0625 
Q 20.90625 20.125 20.90625 31.390625 
Q 20.90625 42.671875 17.703125 53.65625 
Q 14.5 64.65625 8.015625 75.875 
z
" id="DejaVuSans-41"/>
      </defs>
      <use xlink:href="#DejaVuSans-82"/>
      <use x="69.482422" xlink:href="#DejaVuSans-32"/>
      <use x="101.269531" xlink:href="#DejaVuSans-40"/>
      <use x="140.283203" xlink:href="#DejaVuSans-65"/>
      <use x="208.691406" xlink:href="#DejaVuSans-110"/>
      <use x="272.070312" xlink:href="#DejaVuSans-103"/>
      <use x="335.546875" xlink:href="#DejaVuSans-115"/>
      <use x="387.646484" xlink:href="#DejaVuSans-116"/>
      <use x="426.855469" xlink:href="#DejaVuSans-114"/>
      <use x="465.71875" xlink:href="#DejaVuSans-111"/>
      <use x="526.900391" xlink:href="#DejaVuSans-109"/>
      <use x="624.3125" xlink:href="#DejaVuSans-115"/>
      <use x="676.412109" xlink:href="#DejaVuSans-41"/>
     </g>
    </g>
   </g>
   <g id="matplotlib.axis_2">
    <g id="ytick_1">
     <g id="line2d_13">
      <path clip-path="url(#p63721e4b39)" d="M 59.713281 258.15102 
L 829.753281 258.15102 
" style="fill:none;stroke:#b0b0b0;stroke-linecap:square;stroke-width:0.8;"/>
     </g>
     <g id="line2d_14">
      <defs>
       <path d="M 0 0 
L -3.5 0 
" id="mc3ce260a5b" style="stroke:#000000;stroke-width:0.8;"/>
      </defs>
      <g>
       <use style="stroke:#000000;stroke-width:0.8;" x="59.713281" xlink:href="#mc3ce260a5b" y="258.15102"/>
      </g>
     </g>
     <g id="text_8">
      <!-- −2 -->
      <g transform="translate(30.6 263.849848)scale(0.15 -0.15)">
       <defs>
        <path d="M 10.59375 35.5 
L 73.1875 35.5 
L 73.1875 27.203125 
L 10.59375 27.203125 
z
" id="DejaVuSans-8722"/>
       </defs>
       <use xlink:href="#DejaVuSans-8722"/>
       <use x="83.789062" xlink:href="#DejaVuSans-50"/>
      </g>
     </g>
    </g>
    <g id="ytick_2">
     <g id="line2d_15">
      <path clip-path="url(#p63721e4b39)" d="M 59.713281 195.910857 
L 829.753281 195.910857 
" style="fill:none;stroke:#b0b0b0;stroke-linecap:square;stroke-width:0.8;"/>
     </g>
     <g id="line2d_16">
      <g>
       <use style="stroke:#000000;stroke-width:0.8;" x="59.713281" xlink:href="#mc3ce260a5b" y="195.910857"/>
      </g>
     </g>
     <g id="text_9">
      <!-- 0 -->
      <g transform="translate(43.169531 201.609685)scale(0.15 -0.15)">
       <use xlink:href="#DejaVuSans-48"/>
      </g>
     </g>
    </g>
    <g id="ytick_3">
     <g id="line2d_17">
      <path clip-path="url(#p63721e4b39)" d="M 59.713281 133.670694 
L 829.753281 133.670694 
" style="fill:none;stroke:#b0b0b0;stroke-linecap:square;stroke-width:0.8;"/>
     </g>
     <g id="line2d_18">
      <g>
       <use style="stroke:#000000;stroke-width:0.8;" x="59.713281" xlink:href="#mc3ce260a5b" y="133.670694"/>
      </g>
     </g>
     <g id="text_10">
      <!-- 2 -->
      <g transform="translate(43.169531 139.369522)scale(0.15 -0.15)">
       <use xlink:href="#DejaVuSans-50"/>
      </g>
     </g>
    </g>
    <g id="ytick_4">
     <g id="line2d_19">
      <path clip-path="url(#p63721e4b39)" d="M 59.713281 71.430531 
L 829.753281 71.430531 
" style="fill:none;stroke:#b0b0b0;stroke-linecap:square;stroke-width:0.8;"/>
     </g>
     <g id="line2d_20">
      <g>
       <use style="stroke:#000000;stroke-width:0.8;" x="59.713281" xlink:href="#mc3ce260a5b" y="71.430531"/>
      </g>
     </g>
     <g id="text_11">
      <!-- 4 -->
      <g transform="translate(43.169531 77.129359)scale(0.15 -0.15)">
       <use xlink:href="#DejaVuSans-52"/>
      </g>
     </g>
    </g>
    <g id="text_12">
     <!-- Transition Dipole Moment ($ea_0$) -->
     <g transform="translate(22.4 321.2)rotate(-90)scale(0.2 -0.2)">
      <defs>
       <path d="M -0.296875 72.90625 
L 61.375 72.90625 
L 61.375 64.59375 
L 35.5 64.59375 
L 35.5 0 
L 25.59375 0 
L 25.59375 64.59375 
L -0.296875 64.59375 
z
" id="DejaVuSans-84"/>
       <path d="M 34.28125 27.484375 
Q 23.390625 27.484375 19.1875 25 
Q 14.984375 22.515625 14.984375 16.5 
Q 14.984375 11.71875 18.140625 8.90625 
Q 21.296875 6.109375 26.703125 6.109375 
Q 34.1875 6.109375 38.703125 11.40625 
Q 43.21875 16.703125 43.21875 25.484375 
L 43.21875 27.484375 
z
M 52.203125 31.203125 
L 52.203125 0 
L 43.21875 0 
L 43.21875 8.296875 
Q 40.140625 3.328125 35.546875 0.953125 
Q 30.953125 -1.421875 24.3125 -1.421875 
Q 15.921875 -1.421875 10.953125 3.296875 
Q 6 8.015625 6 15.921875 
Q 6 25.140625 12.171875 29.828125 
Q 18.359375 34.515625 30.609375 34.515625 
L 43.21875 34.515625 
L 43.21875 35.40625 
Q 43.21875 41.609375 39.140625 45 
Q 35.0625 48.390625 27.6875 48.390625 
Q 23 48.390625 18.546875 47.265625 
Q 14.109375 46.140625 10.015625 43.890625 
L 10.015625 52.203125 
Q 14.9375 54.109375 19.578125 55.046875 
Q 24.21875 56 28.609375 56 
Q 40.484375 56 46.34375 49.84375 
Q 52.203125 43.703125 52.203125 31.203125 
z
" id="DejaVuSans-97"/>
       <path d="M 9.421875 54.6875 
L 18.40625 54.6875 
L 18.40625 0 
L 9.421875 0 
z
M 9.421875 75.984375 
L 18.40625 75.984375 
L 18.40625 64.59375 
L 9.421875 64.59375 
z
" id="DejaVuSans-105"/>
       <path d="M 19.671875 64.796875 
L 19.671875 8.109375 
L 31.59375 8.109375 
Q 46.6875 8.109375 53.6875 14.9375 
Q 60.6875 21.78125 60.6875 36.53125 
Q 60.6875 51.171875 53.6875 57.984375 
Q 46.6875 64.796875 31.59375 64.796875 
z
M 9.8125 72.90625 
L 30.078125 72.90625 
Q 51.265625 72.90625 61.171875 64.09375 
Q 71.09375 55.28125 71.09375 36.53125 
Q 71.09375 17.671875 61.125 8.828125 
Q 51.171875 0 30.078125 0 
L 9.8125 0 
z
" id="DejaVuSans-68"/>
       <path d="M 18.109375 8.203125 
L 18.109375 -20.796875 
L 9.078125 -20.796875 
L 9.078125 54.6875 
L 18.109375 54.6875 
L 18.109375 46.390625 
Q 20.953125 51.265625 25.265625 53.625 
Q 29.59375 56 35.59375 56 
Q 45.5625 56 51.78125 48.09375 
Q 58.015625 40.1875 58.015625 27.296875 
Q 58.015625 14.40625 51.78125 6.484375 
Q 45.5625 -1.421875 35.59375 -1.421875 
Q 29.59375 -1.421875 25.265625 0.953125 
Q 20.953125 3.328125 18.109375 8.203125 
z
M 48.6875 27.296875 
Q 48.6875 37.203125 44.609375 42.84375 
Q 40.53125 48.484375 33.40625 48.484375 
Q 26.265625 48.484375 22.1875 42.84375 
Q 18.109375 37.203125 18.109375 27.296875 
Q 18.109375 17.390625 22.1875 11.75 
Q 26.265625 6.109375 33.40625 6.109375 
Q 40.53125 6.109375 44.609375 11.75 
Q 48.6875 17.390625 48.6875 27.296875 
z
" id="DejaVuSans-112"/>
       <path d="M 9.421875 75.984375 
L 18.40625 75.984375 
L 18.40625 0 
L 9.421875 0 
z
" id="DejaVuSans-108"/>
       <path d="M 56.203125 29.59375 
L 56.203125 25.203125 
L 14.890625 25.203125 
Q 15.484375 15.921875 20.484375 11.0625 
Q 25.484375 6.203125 34.421875 6.203125 
Q 39.59375 6.203125 44.453125 7.46875 
Q 49.3125 8.734375 54.109375 11.28125 
L 54.109375 2.78125 
Q 49.265625 0.734375 44.1875 -0.34375 
Q 39.109375 -1.421875 33.890625 -1.421875 
Q 20.796875 -1.421875 13.15625 6.1875 
Q 5.515625 13.8125 5.515625 26.8125 
Q 5.515625 40.234375 12.765625 48.109375 
Q 20.015625 56 32.328125 56 
Q 43.359375 56 49.78125 48.890625 
Q 56.203125 41.796875 56.203125 29.59375 
z
M 47.21875 32.234375 
Q 47.125 39.59375 43.09375 43.984375 
Q 39.0625 48.390625 32.421875 48.390625 
Q 24.90625 48.390625 20.390625 44.140625 
Q 15.875 39.890625 15.1875 32.171875 
z
" id="DejaVuSans-101"/>
       <path d="M 9.8125 72.90625 
L 24.515625 72.90625 
L 43.109375 23.296875 
L 61.8125 72.90625 
L 76.515625 72.90625 
L 76.515625 0 
L 66.890625 0 
L 66.890625 64.015625 
L 48.09375 14.015625 
L 38.1875 14.015625 
L 19.390625 64.015625 
L 19.390625 0 
L 9.8125 0 
z
" id="DejaVuSans-77"/>
       <path d="M 48.09375 32.234375 
Q 48.25 33.015625 48.3125 33.84375 
Q 48.390625 34.671875 48.390625 35.5 
Q 48.390625 41.453125 44.890625 44.921875 
Q 41.40625 48.390625 35.40625 48.390625 
Q 28.71875 48.390625 23.578125 44.15625 
Q 18.453125 39.9375 15.828125 32.171875 
z
M 55.90625 25.203125 
L 14.109375 25.203125 
Q 13.8125 23.34375 13.71875 22.265625 
Q 13.625 21.1875 13.625 20.40625 
Q 13.625 13.625 17.796875 9.90625 
Q 21.96875 6.203125 29.59375 6.203125 
Q 35.453125 6.203125 40.671875 7.515625 
Q 45.90625 8.84375 50.390625 11.375 
L 48.6875 2.484375 
Q 43.84375 0.53125 38.6875 -0.4375 
Q 33.546875 -1.421875 28.21875 -1.421875 
Q 16.84375 -1.421875 10.71875 4.015625 
Q 4.59375 9.46875 4.59375 19.484375 
Q 4.59375 28.03125 7.640625 35.375 
Q 10.6875 42.71875 16.609375 48.484375 
Q 20.40625 52.09375 25.65625 54.046875 
Q 30.90625 56 36.8125 56 
Q 46.09375 56 51.578125 50.4375 
Q 57.078125 44.875 57.078125 35.5 
Q 57.078125 33.25 56.78125 30.6875 
Q 56.5 28.125 55.90625 25.203125 
z
" id="DejaVuSans-Oblique-101"/>
       <path d="M 53.71875 31.203125 
L 47.609375 0 
L 38.625 0 
L 40.28125 8.296875 
Q 36.328125 3.421875 31.265625 1 
Q 26.21875 -1.421875 20.015625 -1.421875 
Q 13.03125 -1.421875 8.5625 2.84375 
Q 4.109375 7.125 4.109375 13.8125 
Q 4.109375 23.390625 11.75 28.953125 
Q 19.390625 34.515625 32.8125 34.515625 
L 45.3125 34.515625 
L 45.796875 36.921875 
Q 45.90625 37.3125 45.953125 37.765625 
Q 46 38.234375 46 39.203125 
Q 46 43.5625 42.453125 45.96875 
Q 38.921875 48.390625 32.515625 48.390625 
Q 28.125 48.390625 23.5 47.265625 
Q 18.890625 46.140625 14.015625 43.890625 
L 15.578125 52.203125 
Q 20.65625 54.109375 25.515625 55.046875 
Q 30.375 56 34.90625 56 
Q 44.578125 56 49.625 51.796875 
Q 54.6875 47.609375 54.6875 39.59375 
Q 54.6875 37.984375 54.4375 35.8125 
Q 54.203125 33.640625 53.71875 31.203125 
z
M 44 27.484375 
L 35.015625 27.484375 
Q 23.96875 27.484375 18.671875 24.53125 
Q 13.375 21.578125 13.375 15.375 
Q 13.375 11.078125 16.078125 8.640625 
Q 18.796875 6.203125 23.578125 6.203125 
Q 30.90625 6.203125 36.375 11.453125 
Q 41.84375 16.703125 43.609375 25.484375 
z
" id="DejaVuSans-Oblique-97"/>
      </defs>
      <use transform="translate(0 0.015625)" xlink:href="#DejaVuSans-84"/>
      <use transform="translate(61.083984 0.015625)" xlink:href="#DejaVuSans-114"/>
      <use transform="translate(102.197266 0.015625)" xlink:href="#DejaVuSans-97"/>
      <use transform="translate(163.476562 0.015625)" xlink:href="#DejaVuSans-110"/>
      <use transform="translate(226.855469 0.015625)" xlink:href="#DejaVuSans-115"/>
      <use transform="translate(278.955078 0.015625)" xlink:href="#DejaVuSans-105"/>
      <use transform="translate(306.738281 0.015625)" xlink:href="#DejaVuSans-116"/>
      <use transform="translate(345.947266 0.015625)" xlink:href="#DejaVuSans-105"/>
      <use transform="translate(373.730469 0.015625)" xlink:href="#DejaVuSans-111"/>
      <use transform="translate(434.912109 0.015625)" xlink:href="#DejaVuSans-110"/>
      <use transform="translate(498.291016 0.015625)" xlink:href="#DejaVuSans-32"/>
      <use transform="translate(530.078125 0.015625)" xlink:href="#DejaVuSans-68"/>
      <use transform="translate(607.080078 0.015625)" xlink:href="#DejaVuSans-105"/>
      <use transform="translate(634.863281 0.015625)" xlink:href="#DejaVuSans-112"/>
      <use transform="translate(698.339844 0.015625)" xlink:href="#DejaVuSans-111"/>
      <use transform="translate(759.521484 0.015625)" xlink:href="#DejaVuSans-108"/>
      <use transform="translate(787.304688 0.015625)" xlink:href="#DejaVuSans-101"/>
      <use transform="translate(848.828125 0.015625)" xlink:href="#DejaVuSans-32"/>
      <use transform="translate(880.615234 0.015625)" xlink:href="#DejaVuSans-77"/>
      <use transform="translate(966.894531 0.015625)" xlink:href="#DejaVuSans-111"/>
      <use transform="translate(1028.076172 0.015625)" xlink:href="#DejaVuSans-109"/>
      <use transform="translate(1125.488281 0.015625)" xlink:href="#DejaVuSans-101"/>
      <use transform="translate(1187.011719 0.015625)" xlink:href="#DejaVuSans-110"/>
      <use transform="translate(1250.390625 0.015625)" xlink:href="#DejaVuSans-116"/>
      <use transform="translate(1289.599609 0.015625)" xlink:href="#DejaVuSans-32"/>
      <use transform="translate(1321.386719 0.015625)" xlink:href="#DejaVuSans-40"/>
      <use transform="translate(1360.400391 0.015625)" xlink:href="#DejaVuSans-Oblique-101"/>
      <use transform="translate(1421.923828 0.015625)" xlink:href="#DejaVuSans-Oblique-97"/>
      <use transform="translate(1483.203125 -16.390625)scale(0.7)" xlink:href="#DejaVuSans-48"/>
      <use transform="translate(1530.473633 0.015625)" xlink:href="#DejaVuSans-41"/>
     </g>
    </g>
   </g>
   <g id="line2d_21">
    <path clip-path="url(#p63721e4b39)" d="M 66.264207 177.89428 
L 76.202929 176.128568 
L 79.515837 175.661888 
L 82.828744 175.36322 
L 89.454559 175.010776 
L 92.767467 174.613777 
L 99.393281 173.444346 
L 125.896541 169.593454 
L 139.148171 167.559389 
L 149.086894 165.869742 
L 159.025616 163.990334 
L 168.964338 161.886037 
L 178.903061 159.52766 
L 188.841783 156.890944 
L 198.780506 153.956125 
L 208.719228 150.706095 
L 218.657951 147.131544 
L 228.596673 143.230954 
L 238.535395 139.034567 
L 271.66447 124.599946 
L 281.603193 120.673719 
L 291.541915 117.042877 
L 301.480637 113.721982 
L 311.41936 110.726976 
L 321.358082 108.069546 
L 331.296805 105.737828 
L 341.235527 103.707499 
L 351.17425 101.948137 
L 361.112972 100.426042 
L 371.051694 99.108253 
L 384.303324 97.6191 
L 397.554954 96.380085 
L 410.806584 95.341354 
L 427.371122 94.26488 
L 447.248566 93.223118 
L 470.438919 92.261012 
L 496.942179 91.398621 
L 530.071253 90.56902 
L 569.826143 89.816451 
L 619.519755 89.118417 
L 682.464997 88.47802 
L 761.974777 87.910692 
L 831.545834 87.555452 
L 831.545834 87.555452 
" style="fill:none;stroke:#ff7f0e;stroke-linecap:square;stroke-width:1.5;"/>
   </g>
   <g id="line2d_22">
    <path clip-path="url(#p63721e4b39)" d="M 66.264207 281.64722 
L 69.577114 277.021728 
L 72.890022 280.319418 
L 76.202929 285.16 
L 79.515837 253.782968 
L 82.828744 181.380116 
L 86.141652 123.867257 
L 89.454559 104.153297 
L 92.767467 97.825208 
L 96.080374 92.057325 
L 99.393281 87.450226 
L 102.706189 83.974727 
L 106.019096 80.874197 
L 109.332004 77.941961 
L 112.644911 75.247433 
L 115.957819 72.765351 
L 119.270726 70.441254 
L 125.896541 66.19162 
L 132.522356 62.420059 
L 139.148171 59.076714 
L 145.773986 56.136742 
L 152.399801 53.569393 
L 159.025616 51.346025 
L 165.651431 49.443539 
L 172.277246 47.838517 
L 178.903061 46.507818 
L 185.528876 45.430628 
L 192.154691 44.588043 
L 198.780506 43.961365 
L 205.406321 43.53422 
L 212.032136 43.296676 
L 218.657951 43.24 
L 225.283766 43.360915 
L 231.90958 43.663909 
L 238.535395 44.157578 
L 245.16121 44.852758 
L 251.787025 45.736881 
L 261.725748 47.341322 
L 308.106452 55.44676 
L 327.983897 58.601669 
L 347.861342 61.543838 
L 367.738787 64.245184 
L 387.616232 66.684601 
L 407.493677 68.856591 
L 427.371122 70.77079 
L 447.248566 72.447575 
L 467.126011 73.910807 
L 490.316364 75.381449 
L 513.506716 76.634586 
L 540.009976 77.845336 
L 569.826143 78.97733 
L 602.955218 80.009829 
L 642.710107 81.010984 
L 689.090812 81.937721 
L 738.784424 82.69342 
L 814.981296 83.591253 
L 831.545834 83.758644 
L 831.545834 83.758644 
" style="fill:none;stroke:#2ca02c;stroke-linecap:square;stroke-width:1.5;"/>
   </g>
   <g id="line2d_23">
    <path clip-path="url(#p63721e4b39)" d="M 66.264207 282.890375 
L 69.577114 280.426376 
L 72.890022 276.820517 
L 76.202929 272.060629 
L 79.515837 264.898462 
L 82.828744 254.41525 
L 86.141652 240.626191 
L 89.454559 225.428614 
L 92.767467 208.725342 
L 99.393281 172.65427 
L 106.019096 136.11809 
L 109.332004 118.833433 
L 112.644911 102.821917 
L 115.957819 88.546683 
L 119.270726 76.470869 
L 122.583634 67.057614 
L 125.896541 60.770059 
L 129.209449 58.007456 
L 135.835264 55.253099 
L 142.461079 52.823697 
L 149.086894 50.707462 
L 155.712709 48.892604 
L 162.338524 47.367336 
L 168.964338 46.119869 
L 175.590153 45.13887 
L 182.215968 44.411711 
L 188.841783 43.920973 
L 195.467598 43.657111 
L 202.093413 43.616349 
L 208.719228 43.797162 
L 215.345043 44.18149 
L 221.970858 44.771748 
L 231.90958 45.945706 
L 245.16121 47.834539 
L 274.977378 52.40497 
L 318.045175 59.037128 
L 341.235527 62.32389 
L 361.112972 64.89594 
L 380.990417 67.225677 
L 400.867862 69.301777 
L 420.745307 71.147533 
L 440.622751 72.777611 
L 460.500196 74.206682 
L 483.690549 75.639449 
L 506.880901 76.857363 
L 533.384161 78.018439 
L 563.200328 79.079359 
L 596.329403 80.02355 
L 639.3972 81.012358 
L 695.716627 82.103393 
L 748.723147 82.863036 
L 828.232926 83.732652 
L 831.545834 83.763013 
L 831.545834 83.763013 
" style="fill:none;stroke:#d62728;stroke-linecap:square;stroke-width:1.5;"/>
   </g>
   <g id="line2d_24">
    <path clip-path="url(#p63721e4b39)" d="M 66.264207 246.480638 
L 69.577114 220.042077 
L 76.202929 155.503613 
L 79.515837 127.743725 
L 82.828744 110.116012 
L 86.141652 102.13432 
L 89.454559 99.745633 
L 92.767467 99.112683 
L 96.080374 98.790814 
L 102.706189 98.480797 
L 112.644911 98.339331 
L 129.209449 98.417988 
L 145.773986 98.744519 
L 165.651431 99.391446 
L 215.345043 101.207546 
L 225.283766 101.248074 
L 235.222488 101.049337 
L 248.474118 100.495514 
L 331.296805 96.367428 
L 371.051694 94.820811 
L 414.119492 93.372862 
L 457.187289 92.13832 
L 503.567993 91.039537 
L 549.948698 90.157071 
L 602.955218 89.379387 
L 665.90046 88.697295 
L 742.097332 88.108843 
L 831.545834 87.623881 
L 831.545834 87.623881 
" style="fill:none;stroke:#9467bd;stroke-linecap:square;stroke-width:1.5;"/>
   </g>
   <g id="patch_3">
    <path d="M 59.713281 297.256 
L 59.713281 31.144 
" style="fill:none;stroke:#000000;stroke-linecap:square;stroke-linejoin:miter;stroke-width:0.8;"/>
   </g>
   <g id="patch_4">
    <path d="M 829.753281 297.256 
L 829.753281 31.144 
" style="fill:none;stroke:#000000;stroke-linecap:square;stroke-linejoin:miter;stroke-width:0.8;"/>
   </g>
   <g id="patch_5">
    <path d="M 59.713281 297.256 
L 829.753281 297.256 
" style="fill:none;stroke:#000000;stroke-linecap:square;stroke-linejoin:miter;stroke-width:0.8;"/>
   </g>
   <g id="patch_6">
    <path d="M 59.713281 31.144 
L 829.753281 31.144 
" style="fill:none;stroke:#000000;stroke-linecap:square;stroke-linejoin:miter;stroke-width:0.8;"/>
   </g>
   <g id="legend_1">
    <g id="patch_7">
     <path d="M 707.192881 290.316 
L 820.037281 290.316 
Q 822.813281 290.316 822.813281 287.54 
L 822.813281 207.43505 
Q 822.813281 204.65905 820.037281 204.65905 
L 707.192881 204.65905 
Q 704.416881 204.65905 704.416881 207.43505 
L 704.416881 287.54 
Q 704.416881 290.316 707.192881 290.316 
z
" style="fill:#ffffff;opacity:0.8;stroke:#cccccc;stroke-linejoin:miter;"/>
    </g>
    <g id="line2d_25">
     <path d="M 709.968881 215.899681 
L 737.728881 215.899681 
" style="fill:none;stroke:#ff7f0e;stroke-linecap:square;stroke-width:1.5;"/>
    </g>
    <g id="line2d_26"/>
    <g id="text_13">
     <!-- $a^3\Sigma\rightarrow b^3\Pi$ -->
     <g transform="translate(748.832881 220.757681)scale(0.1388 -0.1388)">
      <defs>
       <path d="M 40.578125 39.3125 
Q 47.65625 37.796875 51.625 33 
Q 55.609375 28.21875 55.609375 21.1875 
Q 55.609375 10.40625 48.1875 4.484375 
Q 40.765625 -1.421875 27.09375 -1.421875 
Q 22.515625 -1.421875 17.65625 -0.515625 
Q 12.796875 0.390625 7.625 2.203125 
L 7.625 11.71875 
Q 11.71875 9.328125 16.59375 8.109375 
Q 21.484375 6.890625 26.8125 6.890625 
Q 36.078125 6.890625 40.9375 10.546875 
Q 45.796875 14.203125 45.796875 21.1875 
Q 45.796875 27.640625 41.28125 31.265625 
Q 36.765625 34.90625 28.71875 34.90625 
L 20.21875 34.90625 
L 20.21875 43.015625 
L 29.109375 43.015625 
Q 36.375 43.015625 40.234375 45.921875 
Q 44.09375 48.828125 44.09375 54.296875 
Q 44.09375 59.90625 40.109375 62.90625 
Q 36.140625 65.921875 28.71875 65.921875 
Q 24.65625 65.921875 20.015625 65.03125 
Q 15.375 64.15625 9.8125 62.3125 
L 9.8125 71.09375 
Q 15.4375 72.65625 20.34375 73.4375 
Q 25.25 74.21875 29.59375 74.21875 
Q 40.828125 74.21875 47.359375 69.109375 
Q 53.90625 64.015625 53.90625 55.328125 
Q 53.90625 49.265625 50.4375 45.09375 
Q 46.96875 40.921875 40.578125 39.3125 
z
" id="DejaVuSans-51"/>
       <path d="M 21.140625 8.296875 
L 56.78125 8.296875 
L 56.78125 0 
L 9.8125 0 
L 9.8125 8.296875 
L 33.203125 38.765625 
L 9.8125 64.59375 
L 9.8125 72.90625 
L 55.90625 72.90625 
L 55.90625 64.59375 
L 21.140625 64.59375 
L 44.53125 38.96875 
z
" id="DejaVuSans-931"/>
       <path d="M 78.90625 33.546875 
L 78.90625 29.15625 
L 59.71875 9.96875 
L 53.859375 15.828125 
L 65.234375 27.203125 
L 5.71875 27.203125 
L 5.71875 35.5 
L 65.234375 35.5 
L 53.859375 46.875 
L 59.71875 52.734375 
z
" id="DejaVuSans-8594"/>
       <path d="M 49.515625 33.40625 
Q 49.515625 40.484375 46.265625 44.484375 
Q 43.015625 48.484375 37.3125 48.484375 
Q 33.15625 48.484375 29.515625 46.453125 
Q 25.875 44.4375 23.1875 40.578125 
Q 20.359375 36.53125 18.71875 31.171875 
Q 17.09375 25.828125 17.09375 20.515625 
Q 17.09375 13.765625 20.28125 9.9375 
Q 23.484375 6.109375 29.109375 6.109375 
Q 33.34375 6.109375 36.953125 8.078125 
Q 40.578125 10.0625 43.3125 13.921875 
Q 46.09375 17.921875 47.796875 23.234375 
Q 49.515625 28.5625 49.515625 33.40625 
z
M 21.578125 46.390625 
Q 24.90625 50.875 29.90625 53.4375 
Q 34.90625 56 40.375 56 
Q 48.78125 56 53.734375 50.328125 
Q 58.6875 44.671875 58.6875 35.015625 
Q 58.6875 27.09375 55.78125 19.671875 
Q 52.875 12.25 47.515625 6.5 
Q 44 2.6875 39.40625 0.625 
Q 34.8125 -1.421875 29.78125 -1.421875 
Q 24.46875 -1.421875 20.5625 1.015625 
Q 16.65625 3.46875 14.203125 8.296875 
L 12.59375 0 
L 3.609375 0 
L 18.40625 75.984375 
L 27.390625 75.984375 
z
" id="DejaVuSans-Oblique-98"/>
       <path d="M 65.375 72.90625 
L 65.375 0 
L 55.515625 0 
L 55.515625 64.59375 
L 19.671875 64.59375 
L 19.671875 0 
L 9.8125 0 
L 9.8125 72.90625 
z
" id="DejaVuSans-928"/>
      </defs>
      <use transform="translate(0 0.765625)" xlink:href="#DejaVuSans-Oblique-97"/>
      <use transform="translate(65.929193 39.046875)scale(0.7)" xlink:href="#DejaVuSans-51"/>
      <use transform="translate(113.199701 0.765625)" xlink:href="#DejaVuSans-931"/>
      <use transform="translate(195.865716 0.765625)" xlink:href="#DejaVuSans-8594"/>
      <use transform="translate(299.137201 0.765625)" xlink:href="#DejaVuSans-Oblique-98"/>
      <use transform="translate(370.061471 39.046875)scale(0.7)" xlink:href="#DejaVuSans-51"/>
      <use transform="translate(417.331979 0.765625)" xlink:href="#DejaVuSans-928"/>
     </g>
    </g>
    <g id="line2d_27">
     <path d="M 709.968881 236.272919 
L 737.728881 236.272919 
" style="fill:none;stroke:#2ca02c;stroke-linecap:square;stroke-width:1.5;"/>
    </g>
    <g id="line2d_28"/>
    <g id="text_14">
     <!-- $a^3\Sigma\rightarrow b^3\Pi$ -->
     <g transform="translate(748.832881 241.130919)scale(0.1388 -0.1388)">
      <use transform="translate(0 0.765625)" xlink:href="#DejaVuSans-Oblique-97"/>
      <use transform="translate(65.929193 39.046875)scale(0.7)" xlink:href="#DejaVuSans-51"/>
      <use transform="translate(113.199701 0.765625)" xlink:href="#DejaVuSans-931"/>
      <use transform="translate(195.865716 0.765625)" xlink:href="#DejaVuSans-8594"/>
      <use transform="translate(299.137201 0.765625)" xlink:href="#DejaVuSans-Oblique-98"/>
      <use transform="translate(370.061471 39.046875)scale(0.7)" xlink:href="#DejaVuSans-51"/>
      <use transform="translate(417.331979 0.765625)" xlink:href="#DejaVuSans-928"/>
     </g>
    </g>
    <g id="line2d_29">
     <path d="M 709.968881 256.646156 
L 737.728881 256.646156 
" style="fill:none;stroke:#d62728;stroke-linecap:square;stroke-width:1.5;"/>
    </g>
    <g id="line2d_30"/>
    <g id="text_15">
     <!-- $a^3\Sigma\rightarrow b^3\Pi$ -->
     <g transform="translate(748.832881 261.504156)scale(0.1388 -0.1388)">
      <use transform="translate(0 0.765625)" xlink:href="#DejaVuSans-Oblique-97"/>
      <use transform="translate(65.929193 39.046875)scale(0.7)" xlink:href="#DejaVuSans-51"/>
      <use transform="translate(113.199701 0.765625)" xlink:href="#DejaVuSans-931"/>
      <use transform="translate(195.865716 0.765625)" xlink:href="#DejaVuSans-8594"/>
      <use transform="translate(299.137201 0.765625)" xlink:href="#DejaVuSans-Oblique-98"/>
      <use transform="translate(370.061471 39.046875)scale(0.7)" xlink:href="#DejaVuSans-51"/>
      <use transform="translate(417.331979 0.765625)" xlink:href="#DejaVuSans-928"/>
     </g>
    </g>
    <g id="line2d_31">
     <path d="M 709.968881 277.019394 
L 737.728881 277.019394 
" style="fill:none;stroke:#9467bd;stroke-linecap:square;stroke-width:1.5;"/>
    </g>
    <g id="line2d_32"/>
    <g id="text_16">
     <!-- $a^3\Sigma\rightarrow b^3\Pi$ -->
     <g transform="translate(748.832881 281.877394)scale(0.1388 -0.1388)">
      <use transform="translate(0 0.765625)" xlink:href="#DejaVuSans-Oblique-97"/>
      <use transform="translate(65.929193 39.046875)scale(0.7)" xlink:href="#DejaVuSans-51"/>
      <use transform="translate(113.199701 0.765625)" xlink:href="#DejaVuSans-931"/>
      <use transform="translate(195.865716 0.765625)" xlink:href="#DejaVuSans-8594"/>
      <use transform="translate(299.137201 0.765625)" xlink:href="#DejaVuSans-Oblique-98"/>
      <use transform="translate(370.061471 39.046875)scale(0.7)" xlink:href="#DejaVuSans-51"/>
      <use transform="translate(417.331979 0.765625)" xlink:href="#DejaVuSans-928"/>
     </g>
    </g>
   </g>
  </g>
 </g>
 <defs>
  <clipPath id="p63721e4b39">
   <rect height="266.112" width="770.04" x="59.713281" y="31.144"/>
  </clipPath>
 </defs>
</svg>
