<?xml version="1.0" encoding="utf-8" standalone="no"?>
<!DOCTYPE svg PUBLIC "-//W3C//DTD SVG 1.1//EN"
  "http://www.w3.org/Graphics/SVG/1.1/DTD/svg11.dtd">
<!-- Created with matplotlib (https://matplotlib.org/) -->
<svg height="205.230024pt" version="1.1" viewBox="0 0 440.77 205.230024" width="440.77pt" xmlns="http://www.w3.org/2000/svg" xmlns:xlink="http://www.w3.org/1999/xlink">
 <defs>
  <style type="text/css">*{stroke-linecap:butt;stroke-linejoin:round;}</style>
 </defs>
 <g id="figure_1">
  <g id="patch_1">
   <path d="M 0 205.230024 
L 440.77 205.230024 
L 440.77 -0 
L 0 -0 
z
" style="fill:none;"/>
  </g>
  <g id="axes_1">
   <g id="patch_2">
    <path d="M 76.45 153.156587 
L 433.57 153.156587 
L 433.57 9.012587 
L 76.45 9.012587 
z
" style="fill:none;"/>
   </g>
   <g id="matplotlib.axis_1">
    <g id="xtick_1">
     <g id="line2d_1">
      <path clip-path="url(#pe8290c170f)" d="M 143.12352 153.156587 
L 143.12352 9.012587 
" style="fill:none;stroke:#b0b0b0;stroke-linecap:square;stroke-width:0.8;"/>
     </g>
     <g id="line2d_2">
      <defs>
       <path d="M 0 0 
L 0 3.5 
" id="m005f0a59be" style="stroke:#000000;stroke-width:0.8;"/>
      </defs>
      <g>
       <use style="stroke:#000000;stroke-width:0.8;" x="143.12352" xlink:href="#m005f0a59be" y="153.156587"/>
      </g>
     </g>
     <g id="text_1">
      <!-- 10 -->
      <g transform="translate(133.57977 171.554243)scale(0.15 -0.15)">
       <defs>
        <path d="M 12.40625 8.296875 
L 28.515625 8.296875 
L 28.515625 63.921875 
L 10.984375 60.40625 
L 10.984375 69.390625 
L 28.421875 72.90625 
L 38.28125 72.90625 
L 38.28125 8.296875 
L 54.390625 8.296875 
L 54.390625 0 
L 12.40625 0 
z
" id="DejaVuSans-49"/>
        <path d="M 31.78125 66.40625 
Q 24.171875 66.40625 20.328125 58.90625 
Q 16.5 51.421875 16.5 36.375 
Q 16.5 21.390625 20.328125 13.890625 
Q 24.171875 6.390625 31.78125 6.390625 
Q 39.453125 6.390625 43.28125 13.890625 
Q 47.125 21.390625 47.125 36.375 
Q 47.125 51.421875 43.28125 58.90625 
Q 39.453125 66.40625 31.78125 66.40625 
z
M 31.78125 74.21875 
Q 44.046875 74.21875 50.515625 64.515625 
Q 56.984375 54.828125 56.984375 36.375 
Q 56.984375 17.96875 50.515625 8.265625 
Q 44.046875 -1.421875 31.78125 -1.421875 
Q 19.53125 -1.421875 13.0625 8.265625 
Q 6.59375 17.96875 6.59375 36.375 
Q 6.59375 54.828125 13.0625 64.515625 
Q 19.53125 74.21875 31.78125 74.21875 
z
" id="DejaVuSans-48"/>
       </defs>
       <use xlink:href="#DejaVuSans-49"/>
       <use x="63.623047" xlink:href="#DejaVuSans-48"/>
      </g>
     </g>
    </g>
    <g id="xtick_2">
     <g id="line2d_3">
      <path clip-path="url(#pe8290c170f)" d="M 260.37514 153.156587 
L 260.37514 9.012587 
" style="fill:none;stroke:#b0b0b0;stroke-linecap:square;stroke-width:0.8;"/>
     </g>
     <g id="line2d_4">
      <g>
       <use style="stroke:#000000;stroke-width:0.8;" x="260.37514" xlink:href="#m005f0a59be" y="153.156587"/>
      </g>
     </g>
     <g id="text_2">
      <!-- 100 -->
      <g transform="translate(246.059515 171.554243)scale(0.15 -0.15)">
       <use xlink:href="#DejaVuSans-49"/>
       <use x="63.623047" xlink:href="#DejaVuSans-48"/>
       <use x="127.246094" xlink:href="#DejaVuSans-48"/>
      </g>
     </g>
    </g>
    <g id="xtick_3">
     <g id="line2d_5">
      <path clip-path="url(#pe8290c170f)" d="M 377.62676 153.156587 
L 377.62676 9.012587 
" style="fill:none;stroke:#b0b0b0;stroke-linecap:square;stroke-width:0.8;"/>
     </g>
     <g id="line2d_6">
      <g>
       <use style="stroke:#000000;stroke-width:0.8;" x="377.62676" xlink:href="#m005f0a59be" y="153.156587"/>
      </g>
     </g>
     <g id="text_3">
      <!-- 1000 -->
      <g transform="translate(358.53926 171.554243)scale(0.15 -0.15)">
       <use xlink:href="#DejaVuSans-49"/>
       <use x="63.623047" xlink:href="#DejaVuSans-48"/>
       <use x="127.246094" xlink:href="#DejaVuSans-48"/>
       <use x="190.869141" xlink:href="#DejaVuSans-48"/>
      </g>
     </g>
    </g>
    <g id="xtick_4">
     <g id="line2d_7">
      <defs>
       <path d="M 0 0 
L 0 2 
" id="m6449f80ab4" style="stroke:#000000;stroke-width:0.6;"/>
      </defs>
      <g>
       <use style="stroke:#000000;stroke-width:0.6;" x="81.81514" xlink:href="#m6449f80ab4" y="153.156587"/>
      </g>
     </g>
    </g>
    <g id="xtick_5">
     <g id="line2d_8">
      <g>
       <use style="stroke:#000000;stroke-width:0.6;" x="96.464409" xlink:href="#m6449f80ab4" y="153.156587"/>
      </g>
     </g>
    </g>
    <g id="xtick_6">
     <g id="line2d_9">
      <g>
       <use style="stroke:#000000;stroke-width:0.6;" x="107.827265" xlink:href="#m6449f80ab4" y="153.156587"/>
      </g>
     </g>
    </g>
    <g id="xtick_7">
     <g id="line2d_10">
      <g>
       <use style="stroke:#000000;stroke-width:0.6;" x="117.111395" xlink:href="#m6449f80ab4" y="153.156587"/>
      </g>
     </g>
    </g>
    <g id="xtick_8">
     <g id="line2d_11">
      <g>
       <use style="stroke:#000000;stroke-width:0.6;" x="124.961014" xlink:href="#m6449f80ab4" y="153.156587"/>
      </g>
     </g>
    </g>
    <g id="xtick_9">
     <g id="line2d_12">
      <g>
       <use style="stroke:#000000;stroke-width:0.6;" x="131.760664" xlink:href="#m6449f80ab4" y="153.156587"/>
      </g>
     </g>
    </g>
    <g id="xtick_10">
     <g id="line2d_13">
      <g>
       <use style="stroke:#000000;stroke-width:0.6;" x="137.75838" xlink:href="#m6449f80ab4" y="153.156587"/>
      </g>
     </g>
    </g>
    <g id="xtick_11">
     <g id="line2d_14">
      <g>
       <use style="stroke:#000000;stroke-width:0.6;" x="178.419775" xlink:href="#m6449f80ab4" y="153.156587"/>
      </g>
     </g>
    </g>
    <g id="xtick_12">
     <g id="line2d_15">
      <g>
       <use style="stroke:#000000;stroke-width:0.6;" x="199.06676" xlink:href="#m6449f80ab4" y="153.156587"/>
      </g>
     </g>
    </g>
    <g id="xtick_13">
     <g id="line2d_16">
      <g>
       <use style="stroke:#000000;stroke-width:0.6;" x="213.716029" xlink:href="#m6449f80ab4" y="153.156587"/>
      </g>
     </g>
    </g>
    <g id="xtick_14">
     <g id="line2d_17">
      <g>
       <use style="stroke:#000000;stroke-width:0.6;" x="225.078885" xlink:href="#m6449f80ab4" y="153.156587"/>
      </g>
     </g>
    </g>
    <g id="xtick_15">
     <g id="line2d_18">
      <g>
       <use style="stroke:#000000;stroke-width:0.6;" x="234.363015" xlink:href="#m6449f80ab4" y="153.156587"/>
      </g>
     </g>
    </g>
    <g id="xtick_16">
     <g id="line2d_19">
      <g>
       <use style="stroke:#000000;stroke-width:0.6;" x="242.212634" xlink:href="#m6449f80ab4" y="153.156587"/>
      </g>
     </g>
    </g>
    <g id="xtick_17">
     <g id="line2d_20">
      <g>
       <use style="stroke:#000000;stroke-width:0.6;" x="249.012284" xlink:href="#m6449f80ab4" y="153.156587"/>
      </g>
     </g>
    </g>
    <g id="xtick_18">
     <g id="line2d_21">
      <g>
       <use style="stroke:#000000;stroke-width:0.6;" x="255.01" xlink:href="#m6449f80ab4" y="153.156587"/>
      </g>
     </g>
    </g>
    <g id="xtick_19">
     <g id="line2d_22">
      <g>
       <use style="stroke:#000000;stroke-width:0.6;" x="295.671395" xlink:href="#m6449f80ab4" y="153.156587"/>
      </g>
     </g>
    </g>
    <g id="xtick_20">
     <g id="line2d_23">
      <g>
       <use style="stroke:#000000;stroke-width:0.6;" x="316.31838" xlink:href="#m6449f80ab4" y="153.156587"/>
      </g>
     </g>
    </g>
    <g id="xtick_21">
     <g id="line2d_24">
      <g>
       <use style="stroke:#000000;stroke-width:0.6;" x="330.967649" xlink:href="#m6449f80ab4" y="153.156587"/>
      </g>
     </g>
    </g>
    <g id="xtick_22">
     <g id="line2d_25">
      <g>
       <use style="stroke:#000000;stroke-width:0.6;" x="342.330505" xlink:href="#m6449f80ab4" y="153.156587"/>
      </g>
     </g>
    </g>
    <g id="xtick_23">
     <g id="line2d_26">
      <g>
       <use style="stroke:#000000;stroke-width:0.6;" x="351.614635" xlink:href="#m6449f80ab4" y="153.156587"/>
      </g>
     </g>
    </g>
    <g id="xtick_24">
     <g id="line2d_27">
      <g>
       <use style="stroke:#000000;stroke-width:0.6;" x="359.464254" xlink:href="#m6449f80ab4" y="153.156587"/>
      </g>
     </g>
    </g>
    <g id="xtick_25">
     <g id="line2d_28">
      <g>
       <use style="stroke:#000000;stroke-width:0.6;" x="366.263904" xlink:href="#m6449f80ab4" y="153.156587"/>
      </g>
     </g>
    </g>
    <g id="xtick_26">
     <g id="line2d_29">
      <g>
       <use style="stroke:#000000;stroke-width:0.6;" x="372.26162" xlink:href="#m6449f80ab4" y="153.156587"/>
      </g>
     </g>
    </g>
    <g id="xtick_27">
     <g id="line2d_30">
      <g>
       <use style="stroke:#000000;stroke-width:0.6;" x="412.923015" xlink:href="#m6449f80ab4" y="153.156587"/>
      </g>
     </g>
    </g>
    <g id="xtick_28">
     <g id="line2d_31">
      <g>
       <use style="stroke:#000000;stroke-width:0.6;" x="433.57" xlink:href="#m6449f80ab4" y="153.156587"/>
      </g>
     </g>
    </g>
    <g id="text_4">
     <!-- R (Angstroms) -->
     <g transform="translate(183.469375 193.870649)scale(0.2 -0.2)">
      <defs>
       <path d="M 44.390625 34.1875 
Q 47.5625 33.109375 50.5625 29.59375 
Q 53.5625 26.078125 56.59375 19.921875 
L 66.609375 0 
L 56 0 
L 46.6875 18.703125 
Q 43.0625 26.03125 39.671875 28.421875 
Q 36.28125 30.8125 30.421875 30.8125 
L 19.671875 30.8125 
L 19.671875 0 
L 9.8125 0 
L 9.8125 72.90625 
L 32.078125 72.90625 
Q 44.578125 72.90625 50.734375 67.671875 
Q 56.890625 62.453125 56.890625 51.90625 
Q 56.890625 45.015625 53.6875 40.46875 
Q 50.484375 35.9375 44.390625 34.1875 
z
M 19.671875 64.796875 
L 19.671875 38.921875 
L 32.078125 38.921875 
Q 39.203125 38.921875 42.84375 42.21875 
Q 46.484375 45.515625 46.484375 51.90625 
Q 46.484375 58.296875 42.84375 61.546875 
Q 39.203125 64.796875 32.078125 64.796875 
z
" id="DejaVuSans-82"/>
       <path id="DejaVuSans-32"/>
       <path d="M 31 75.875 
Q 24.46875 64.65625 21.28125 53.65625 
Q 18.109375 42.671875 18.109375 31.390625 
Q 18.109375 20.125 21.3125 9.0625 
Q 24.515625 -2 31 -13.1875 
L 23.1875 -13.1875 
Q 15.875 -1.703125 12.234375 9.375 
Q 8.59375 20.453125 8.59375 31.390625 
Q 8.59375 42.28125 12.203125 53.3125 
Q 15.828125 64.359375 23.1875 75.875 
z
" id="DejaVuSans-40"/>
       <path d="M 34.1875 63.1875 
L 20.796875 26.90625 
L 47.609375 26.90625 
z
M 28.609375 72.90625 
L 39.796875 72.90625 
L 67.578125 0 
L 57.328125 0 
L 50.6875 18.703125 
L 17.828125 18.703125 
L 11.1875 0 
L 0.78125 0 
z
" id="DejaVuSans-65"/>
       <path d="M 54.890625 33.015625 
L 54.890625 0 
L 45.90625 0 
L 45.90625 32.71875 
Q 45.90625 40.484375 42.875 44.328125 
Q 39.84375 48.1875 33.796875 48.1875 
Q 26.515625 48.1875 22.3125 43.546875 
Q 18.109375 38.921875 18.109375 30.90625 
L 18.109375 0 
L 9.078125 0 
L 9.078125 54.6875 
L 18.109375 54.6875 
L 18.109375 46.1875 
Q 21.34375 51.125 25.703125 53.5625 
Q 30.078125 56 35.796875 56 
Q 45.21875 56 50.046875 50.171875 
Q 54.890625 44.34375 54.890625 33.015625 
z
" id="DejaVuSans-110"/>
       <path d="M 45.40625 27.984375 
Q 45.40625 37.75 41.375 43.109375 
Q 37.359375 48.484375 30.078125 48.484375 
Q 22.859375 48.484375 18.828125 43.109375 
Q 14.796875 37.75 14.796875 27.984375 
Q 14.796875 18.265625 18.828125 12.890625 
Q 22.859375 7.515625 30.078125 7.515625 
Q 37.359375 7.515625 41.375 12.890625 
Q 45.40625 18.265625 45.40625 27.984375 
z
M 54.390625 6.78125 
Q 54.390625 -7.171875 48.1875 -13.984375 
Q 42 -20.796875 29.203125 -20.796875 
Q 24.46875 -20.796875 20.265625 -20.09375 
Q 16.0625 -19.390625 12.109375 -17.921875 
L 12.109375 -9.1875 
Q 16.0625 -11.328125 19.921875 -12.34375 
Q 23.78125 -13.375 27.78125 -13.375 
Q 36.625 -13.375 41.015625 -8.765625 
Q 45.40625 -4.15625 45.40625 5.171875 
L 45.40625 9.625 
Q 42.625 4.78125 38.28125 2.390625 
Q 33.9375 0 27.875 0 
Q 17.828125 0 11.671875 7.65625 
Q 5.515625 15.328125 5.515625 27.984375 
Q 5.515625 40.671875 11.671875 48.328125 
Q 17.828125 56 27.875 56 
Q 33.9375 56 38.28125 53.609375 
Q 42.625 51.21875 45.40625 46.390625 
L 45.40625 54.6875 
L 54.390625 54.6875 
z
" id="DejaVuSans-103"/>
       <path d="M 44.28125 53.078125 
L 44.28125 44.578125 
Q 40.484375 46.53125 36.375 47.5 
Q 32.28125 48.484375 27.875 48.484375 
Q 21.1875 48.484375 17.84375 46.4375 
Q 14.5 44.390625 14.5 40.28125 
Q 14.5 37.15625 16.890625 35.375 
Q 19.28125 33.59375 26.515625 31.984375 
L 29.59375 31.296875 
Q 39.15625 29.25 43.1875 25.515625 
Q 47.21875 21.78125 47.21875 15.09375 
Q 47.21875 7.46875 41.1875 3.015625 
Q 35.15625 -1.421875 24.609375 -1.421875 
Q 20.21875 -1.421875 15.453125 -0.5625 
Q 10.6875 0.296875 5.421875 2 
L 5.421875 11.28125 
Q 10.40625 8.6875 15.234375 7.390625 
Q 20.0625 6.109375 24.8125 6.109375 
Q 31.15625 6.109375 34.5625 8.28125 
Q 37.984375 10.453125 37.984375 14.40625 
Q 37.984375 18.0625 35.515625 20.015625 
Q 33.0625 21.96875 24.703125 23.78125 
L 21.578125 24.515625 
Q 13.234375 26.265625 9.515625 29.90625 
Q 5.8125 33.546875 5.8125 39.890625 
Q 5.8125 47.609375 11.28125 51.796875 
Q 16.75 56 26.8125 56 
Q 31.78125 56 36.171875 55.265625 
Q 40.578125 54.546875 44.28125 53.078125 
z
" id="DejaVuSans-115"/>
       <path d="M 18.3125 70.21875 
L 18.3125 54.6875 
L 36.8125 54.6875 
L 36.8125 47.703125 
L 18.3125 47.703125 
L 18.3125 18.015625 
Q 18.3125 11.328125 20.140625 9.421875 
Q 21.96875 7.515625 27.59375 7.515625 
L 36.8125 7.515625 
L 36.8125 0 
L 27.59375 0 
Q 17.1875 0 13.234375 3.875 
Q 9.28125 7.765625 9.28125 18.015625 
L 9.28125 47.703125 
L 2.6875 47.703125 
L 2.6875 54.6875 
L 9.28125 54.6875 
L 9.28125 70.21875 
z
" id="DejaVuSans-116"/>
       <path d="M 41.109375 46.296875 
Q 39.59375 47.171875 37.8125 47.578125 
Q 36.03125 48 33.890625 48 
Q 26.265625 48 22.1875 43.046875 
Q 18.109375 38.09375 18.109375 28.8125 
L 18.109375 0 
L 9.078125 0 
L 9.078125 54.6875 
L 18.109375 54.6875 
L 18.109375 46.1875 
Q 20.953125 51.171875 25.484375 53.578125 
Q 30.03125 56 36.53125 56 
Q 37.453125 56 38.578125 55.875 
Q 39.703125 55.765625 41.0625 55.515625 
z
" id="DejaVuSans-114"/>
       <path d="M 30.609375 48.390625 
Q 23.390625 48.390625 19.1875 42.75 
Q 14.984375 37.109375 14.984375 27.296875 
Q 14.984375 17.484375 19.15625 11.84375 
Q 23.34375 6.203125 30.609375 6.203125 
Q 37.796875 6.203125 41.984375 11.859375 
Q 46.1875 17.53125 46.1875 27.296875 
Q 46.1875 37.015625 41.984375 42.703125 
Q 37.796875 48.390625 30.609375 48.390625 
z
M 30.609375 56 
Q 42.328125 56 49.015625 48.375 
Q 55.71875 40.765625 55.71875 27.296875 
Q 55.71875 13.875 49.015625 6.21875 
Q 42.328125 -1.421875 30.609375 -1.421875 
Q 18.84375 -1.421875 12.171875 6.21875 
Q 5.515625 13.875 5.515625 27.296875 
Q 5.515625 40.765625 12.171875 48.375 
Q 18.84375 56 30.609375 56 
z
" id="DejaVuSans-111"/>
       <path d="M 52 44.1875 
Q 55.375 50.25 60.0625 53.125 
Q 64.75 56 71.09375 56 
Q 79.640625 56 84.28125 50.015625 
Q 88.921875 44.046875 88.921875 33.015625 
L 88.921875 0 
L 79.890625 0 
L 79.890625 32.71875 
Q 79.890625 40.578125 77.09375 44.375 
Q 74.3125 48.1875 68.609375 48.1875 
Q 61.625 48.1875 57.5625 43.546875 
Q 53.515625 38.921875 53.515625 30.90625 
L 53.515625 0 
L 44.484375 0 
L 44.484375 32.71875 
Q 44.484375 40.625 41.703125 44.40625 
Q 38.921875 48.1875 33.109375 48.1875 
Q 26.21875 48.1875 22.15625 43.53125 
Q 18.109375 38.875 18.109375 30.90625 
L 18.109375 0 
L 9.078125 0 
L 9.078125 54.6875 
L 18.109375 54.6875 
L 18.109375 46.1875 
Q 21.1875 51.21875 25.484375 53.609375 
Q 29.78125 56 35.6875 56 
Q 41.65625 56 45.828125 52.96875 
Q 50 49.953125 52 44.1875 
z
" id="DejaVuSans-109"/>
       <path d="M 8.015625 75.875 
L 15.828125 75.875 
Q 23.140625 64.359375 26.78125 53.3125 
Q 30.421875 42.28125 30.421875 31.390625 
Q 30.421875 20.453125 26.78125 9.375 
Q 23.140625 -1.703125 15.828125 -13.1875 
L 8.015625 -13.1875 
Q 14.5 -2 17.703125 9.0625 
Q 20.90625 20.125 20.90625 31.390625 
Q 20.90625 42.671875 17.703125 53.65625 
Q 14.5 64.65625 8.015625 75.875 
z
" id="DejaVuSans-41"/>
      </defs>
      <use xlink:href="#DejaVuSans-82"/>
      <use x="69.482422" xlink:href="#DejaVuSans-32"/>
      <use x="101.269531" xlink:href="#DejaVuSans-40"/>
      <use x="140.283203" xlink:href="#DejaVuSans-65"/>
      <use x="208.691406" xlink:href="#DejaVuSans-110"/>
      <use x="272.070312" xlink:href="#DejaVuSans-103"/>
      <use x="335.546875" xlink:href="#DejaVuSans-115"/>
      <use x="387.646484" xlink:href="#DejaVuSans-116"/>
      <use x="426.855469" xlink:href="#DejaVuSans-114"/>
      <use x="465.71875" xlink:href="#DejaVuSans-111"/>
      <use x="526.900391" xlink:href="#DejaVuSans-109"/>
      <use x="624.3125" xlink:href="#DejaVuSans-115"/>
      <use x="676.412109" xlink:href="#DejaVuSans-41"/>
     </g>
    </g>
   </g>
   <g id="matplotlib.axis_2">
    <g id="ytick_1">
     <g id="line2d_32">
      <path clip-path="url(#pe8290c170f)" d="M 76.45 109.231216 
L 433.57 109.231216 
" style="fill:none;stroke:#b0b0b0;stroke-linecap:square;stroke-width:0.8;"/>
     </g>
     <g id="line2d_33">
      <defs>
       <path d="M 0 0 
L -3.5 0 
" id="mc3ce260a5b" style="stroke:#000000;stroke-width:0.8;"/>
      </defs>
      <g>
       <use style="stroke:#000000;stroke-width:0.8;" x="76.45" xlink:href="#mc3ce260a5b" y="109.231216"/>
      </g>
     </g>
     <g id="text_5">
      <!-- $\mathdefault{10^{-1}}$ -->
      <g transform="translate(34.2 114.930044)scale(0.15 -0.15)">
       <defs>
        <path d="M 10.59375 35.5 
L 73.1875 35.5 
L 73.1875 27.203125 
L 10.59375 27.203125 
z
" id="DejaVuSans-8722"/>
       </defs>
       <use transform="translate(0 0.684375)" xlink:href="#DejaVuSans-49"/>
       <use transform="translate(63.623047 0.684375)" xlink:href="#DejaVuSans-48"/>
       <use transform="translate(128.203125 38.965625)scale(0.7)" xlink:href="#DejaVuSans-8722"/>
       <use transform="translate(186.855469 38.965625)scale(0.7)" xlink:href="#DejaVuSans-49"/>
      </g>
     </g>
    </g>
    <g id="ytick_2">
     <g id="line2d_34">
      <path clip-path="url(#pe8290c170f)" d="M 76.45 61.065022 
L 433.57 61.065022 
" style="fill:none;stroke:#b0b0b0;stroke-linecap:square;stroke-width:0.8;"/>
     </g>
     <g id="line2d_35">
      <g>
       <use style="stroke:#000000;stroke-width:0.8;" x="76.45" xlink:href="#mc3ce260a5b" y="61.065022"/>
      </g>
     </g>
     <g id="text_6">
      <!-- $\mathdefault{10^{1}}$ -->
      <g transform="translate(43.05 66.76385)scale(0.15 -0.15)">
       <use transform="translate(0 0.684375)" xlink:href="#DejaVuSans-49"/>
       <use transform="translate(63.623047 0.684375)" xlink:href="#DejaVuSans-48"/>
       <use transform="translate(128.203125 38.965625)scale(0.7)" xlink:href="#DejaVuSans-49"/>
      </g>
     </g>
    </g>
    <g id="ytick_3">
     <g id="line2d_36">
      <path clip-path="url(#pe8290c170f)" d="M 76.45 12.898828 
L 433.57 12.898828 
" style="fill:none;stroke:#b0b0b0;stroke-linecap:square;stroke-width:0.8;"/>
     </g>
     <g id="line2d_37">
      <g>
       <use style="stroke:#000000;stroke-width:0.8;" x="76.45" xlink:href="#mc3ce260a5b" y="12.898828"/>
      </g>
     </g>
     <g id="text_7">
      <!-- $\mathdefault{10^{3}}$ -->
      <g transform="translate(43.05 18.597656)scale(0.15 -0.15)">
       <defs>
        <path d="M 40.578125 39.3125 
Q 47.65625 37.796875 51.625 33 
Q 55.609375 28.21875 55.609375 21.1875 
Q 55.609375 10.40625 48.1875 4.484375 
Q 40.765625 -1.421875 27.09375 -1.421875 
Q 22.515625 -1.421875 17.65625 -0.515625 
Q 12.796875 0.390625 7.625 2.203125 
L 7.625 11.71875 
Q 11.71875 9.328125 16.59375 8.109375 
Q 21.484375 6.890625 26.8125 6.890625 
Q 36.078125 6.890625 40.9375 10.546875 
Q 45.796875 14.203125 45.796875 21.1875 
Q 45.796875 27.640625 41.28125 31.265625 
Q 36.765625 34.90625 28.71875 34.90625 
L 20.21875 34.90625 
L 20.21875 43.015625 
L 29.109375 43.015625 
Q 36.375 43.015625 40.234375 45.921875 
Q 44.09375 48.828125 44.09375 54.296875 
Q 44.09375 59.90625 40.109375 62.90625 
Q 36.140625 65.921875 28.71875 65.921875 
Q 24.65625 65.921875 20.015625 65.03125 
Q 15.375 64.15625 9.8125 62.3125 
L 9.8125 71.09375 
Q 15.4375 72.65625 20.34375 73.4375 
Q 25.25 74.21875 29.59375 74.21875 
Q 40.828125 74.21875 47.359375 69.109375 
Q 53.90625 64.015625 53.90625 55.328125 
Q 53.90625 49.265625 50.4375 45.09375 
Q 46.96875 40.921875 40.578125 39.3125 
z
" id="DejaVuSans-51"/>
       </defs>
       <use transform="translate(0 0.765625)" xlink:href="#DejaVuSans-49"/>
       <use transform="translate(63.623047 0.765625)" xlink:href="#DejaVuSans-48"/>
       <use transform="translate(128.203125 39.046875)scale(0.7)" xlink:href="#DejaVuSans-51"/>
      </g>
     </g>
    </g>
    <g id="text_8">
     <!-- $\left|\psi(R)\right|^2$ -->
     <g transform="translate(25.4 114.084587)rotate(-90)scale(0.2 -0.2)">
      <defs>
       <path d="M 21 76.421875 
L 21 -23.578125 
L 12.703125 -23.578125 
L 12.703125 76.421875 
z
" id="DejaVuSans-124"/>
       <path d="M 24.859375 -1.21875 
Q 13.921875 0.59375 9.625 5.328125 
Q 4.34375 11.140625 6.640625 23 
L 12.796875 54.6875 
L 21.875 54.6875 
L 15.765625 23.34375 
Q 14.0625 14.40625 17.484375 10.6875 
Q 20.515625 7.46875 26.421875 6.78125 
L 35.6875 54.6875 
L 44.625 54.6875 
L 35.359375 6.84375 
Q 41.890625 7.515625 45.75 10.75 
Q 50.734375 14.84375 52.390625 23.390625 
L 58.453125 54.6875 
L 67.53125 54.6875 
L 61.375 23.046875 
Q 58.984375 10.75 51.5625 5.375 
Q 44.875 0.53125 33.796875 -1.171875 
L 29.984375 -20.796875 
L 21.046875 -20.796875 
z
" id="DejaVuSans-Oblique-968"/>
       <path d="M 25.203125 64.796875 
L 20.21875 38.921875 
L 32.90625 38.921875 
Q 40.375 38.921875 44.984375 43.046875 
Q 49.609375 47.171875 49.609375 53.8125 
Q 49.609375 59.125 46.5 61.953125 
Q 43.40625 64.796875 37.59375 64.796875 
z
M 43.3125 35.015625 
Q 46.4375 34.28125 48.515625 31.390625 
Q 50.59375 28.515625 53.328125 19.921875 
L 59.515625 0 
L 49.125 0 
L 43.40625 18.703125 
Q 41.21875 25.921875 38.328125 28.359375 
Q 35.453125 30.8125 29.5 30.8125 
L 18.609375 30.8125 
L 12.59375 0 
L 2.6875 0 
L 16.890625 72.90625 
L 39.109375 72.90625 
Q 49.21875 72.90625 54.609375 68.328125 
Q 60.015625 63.765625 60.015625 55.171875 
Q 60.015625 47.5625 55.421875 41.984375 
Q 50.828125 36.421875 43.3125 35.015625 
z
" id="DejaVuSans-Oblique-82"/>
       <path d="M 19.1875 8.296875 
L 53.609375 8.296875 
L 53.609375 0 
L 7.328125 0 
L 7.328125 8.296875 
Q 12.9375 14.109375 22.625 23.890625 
Q 32.328125 33.6875 34.8125 36.53125 
Q 39.546875 41.84375 41.421875 45.53125 
Q 43.3125 49.21875 43.3125 52.78125 
Q 43.3125 58.59375 39.234375 62.25 
Q 35.15625 65.921875 28.609375 65.921875 
Q 23.96875 65.921875 18.8125 64.3125 
Q 13.671875 62.703125 7.8125 59.421875 
L 7.8125 69.390625 
Q 13.765625 71.78125 18.9375 73 
Q 24.125 74.21875 28.421875 74.21875 
Q 39.75 74.21875 46.484375 68.546875 
Q 53.21875 62.890625 53.21875 53.421875 
Q 53.21875 48.921875 51.53125 44.890625 
Q 49.859375 40.875 45.40625 35.40625 
Q 44.1875 33.984375 37.640625 27.21875 
Q 31.109375 20.453125 19.1875 8.296875 
z
" id="DejaVuSans-50"/>
      </defs>
      <use transform="translate(0 0.765625)" xlink:href="#DejaVuSans-124"/>
      <use transform="translate(33.691406 0.765625)" xlink:href="#DejaVuSans-Oblique-968"/>
      <use transform="translate(99.658203 0.765625)" xlink:href="#DejaVuSans-40"/>
      <use transform="translate(138.671875 0.765625)" xlink:href="#DejaVuSans-Oblique-82"/>
      <use transform="translate(208.154297 0.765625)" xlink:href="#DejaVuSans-41"/>
      <use transform="translate(247.167969 0.765625)" xlink:href="#DejaVuSans-124"/>
      <use transform="translate(281.816406 39.046875)scale(0.7)" xlink:href="#DejaVuSans-50"/>
     </g>
    </g>
   </g>
   <g id="line2d_38">
    <path clip-path="url(#pe8290c170f)" d="M 76.800857 206.230024 
L 77.569204 161.17165 
L 78.483443 120.063699 
L 79.02421 102.984455 
L 79.559294 92.627957 
L 79.736413 90.997359 
L 79.912919 90.504879 
L 80.088814 91.407457 
L 80.264104 94.157885 
L 80.438793 99.69455 
L 80.612885 110.637887 
L 80.786383 144.629176 
L 81.131616 104.107615 
L 81.303359 97.288289 
L 81.474525 95.031472 
L 81.645117 96.610266 
L 81.81514 103.018239 
L 82.153492 136.788026 
L 82.321828 107.690415 
L 82.48961 98.886117 
L 82.656841 96.766639 
L 82.823524 100.155926 
L 82.989664 111.940178 
L 83.155263 194.27084 
L 83.320325 111.278567 
L 83.484854 100.206115 
L 83.648854 97.834513 
L 83.812327 102.284005 
L 84.137706 133.039531 
L 84.29962 105.902132 
L 84.46102 98.929775 
L 84.62191 100.101606 
L 84.782294 110.87164 
L 84.942174 188.47606 
L 85.101553 110.073347 
L 85.260435 100.116472 
L 85.418824 99.991211 
L 85.57672 109.748561 
L 85.734129 190.212323 
L 85.891053 110.503315 
L 86.047495 100.361727 
L 86.203457 100.768181 
L 86.358944 112.465101 
L 86.513957 150.446109 
L 86.668499 107.697097 
L 86.822574 100.001593 
L 86.976184 102.737923 
L 87.282022 125.552282 
L 87.434254 103.872024 
L 87.586033 100.138373 
L 87.73736 107.314877 
L 87.88824 149.531327 
L 88.188664 101.016996 
L 88.338214 102.289282 
L 88.636003 127.831295 
L 88.784246 104.255017 
L 88.93206 100.609201 
L 89.079446 108.947269 
L 89.226406 192.193462 
L 89.372944 109.556481 
L 89.519061 100.790557 
L 89.664759 104.411384 
L 89.810043 129.103096 
L 90.243422 102.131278 
L 90.530305 129.000808 
L 90.673144 104.404262 
L 90.815582 101.120515 
L 90.957623 111.054556 
L 91.099269 153.275519 
L 91.240522 107.322717 
L 91.381385 100.896562 
L 91.521859 107.37391 
L 91.661946 154.544132 
L 91.94097 101.19398 
L 92.079911 105.000857 
L 92.218473 132.98385 
L 92.494472 101.858786 
L 92.631913 103.422308 
L 92.768984 123.663128 
L 92.905687 120.294877 
L 93.042023 102.809791 
L 93.177996 102.365173 
L 93.448857 126.942479 
L 93.583749 104.015866 
L 93.718285 101.674352 
L 93.852466 113.871583 
L 93.986294 136.464466 
L 94.119772 105.489365 
L 94.252901 101.262106 
L 94.385683 110.788041 
L 94.518119 154.189534 
L 94.650212 107.28618 
L 94.781963 101.086854 
L 94.913374 108.319128 
L 95.044446 176.535812 
L 95.175183 109.516206 
L 95.305584 101.139798 
L 95.435652 106.279831 
L 95.565389 142.870261 
L 95.823876 101.441337 
L 95.952629 104.574681 
L 96.081057 130.263075 
L 96.336945 102.045898 
L 96.464409 103.163725 
L 96.591555 122.208676 
L 96.718383 121.63922 
L 96.844897 103.045299 
L 96.971097 102.04874 
L 97.222563 130.343227 
L 97.472793 101.267966 
L 97.597449 111.5463 
L 97.7218 148.787327 
L 97.969595 100.895619 
L 98.093041 107.767059 
L 98.216189 160.046377 
L 98.461596 101.055217 
L 98.583857 104.767973 
L 98.705825 131.21617 
L 98.948889 101.936603 
L 99.069987 102.522811 
L 99.311323 125.986427 
L 99.55152 101.090696 
L 99.671195 111.332131 
L 99.790589 152.344153 
L 100.028542 100.619297 
L 100.147102 106.055562 
L 100.265388 139.581646 
L 100.501137 101.380922 
L 100.618603 102.550937 
L 100.852727 126.101354 
L 101.085778 100.668075 
L 101.201906 109.479083 
L 101.313874 206.230024 
M 101.321644 206.230024 
L 101.548707 100.560697 
L 101.663784 103.69841 
L 101.778602 124.944831 
L 101.893161 120.514655 
L 102.12151 100.696711 
L 102.235302 110.49269 
L 102.34884 168.133111 
L 102.575159 100.323276 
L 102.687943 103.306157 
L 102.800477 122.966102 
L 102.912763 122.615825 
L 103.136595 100.163835 
L 103.248143 107.976459 
L 103.359448 153.306737 
L 103.581329 100.689313 
L 103.691909 101.372038 
L 103.912349 136.140745 
L 104.13184 99.643405 
L 104.241231 103.217028 
L 104.350388 121.628949 
L 104.459312 120.738521 
L 104.676462 99.186808 
L 104.784692 104.773981 
L 104.892691 123.904488 
L 105.215322 98.611244 
L 105.322413 104.917849 
L 105.429279 118.26626 
L 105.748539 97.509641 
L 105.960272 111.798582 
L 106.27623 96.125982 
L 106.485784 107.757425 
L 106.798508 95.235803 
L 107.005929 106.943108 
L 107.109324 103.857247 
L 107.315485 95.553379 
L 107.418253 99.699595 
L 107.62317 110.132233 
L 107.827265 97.162178 
L 107.929007 100.285855 
L 108.131883 129.749624 
L 108.333953 99.030254 
L 108.434689 99.248642 
L 108.535225 107.528655 
L 108.635564 131.164777 
L 108.835649 100.003324 
L 108.935398 96.772358 
L 109.034952 99.69371 
L 109.233477 111.978735 
L 109.431232 95.988266 
L 109.529822 95.674572 
L 109.726431 109.832195 
L 109.824452 108.564306 
L 110.019929 96.066993 
L 110.117387 97.646947 
L 110.214659 105.811385 
L 110.311745 125.041125 
L 110.601898 97.350576 
L 110.698249 99.468398 
L 110.794419 109.001358 
L 110.890407 131.1808 
L 111.081842 99.698754 
L 111.177291 95.796607 
L 111.272561 97.072179 
L 111.462567 112.103245 
L 111.746255 94.853782 
L 111.840467 95.646568 
L 112.122063 114.742366 
L 112.308931 97.162837 
L 112.402109 96.393482 
L 112.495117 100.718008 
L 112.587955 113.373767 
L 112.680625 152.668753 
L 112.865459 99.507128 
L 112.957625 95.566965 
L 113.049624 96.256456 
L 113.32463 111.735669 
L 113.598158 93.852013 
L 113.689009 95.750388 
L 113.960592 114.823459 
L 114.140846 97.054533 
L 114.230734 95.221545 
L 114.320464 97.431498 
L 114.410036 104.799831 
L 114.588709 126.322518 
L 114.766757 97.259615 
L 114.855549 94.197067 
L 114.944185 94.795743 
L 115.120997 106.803528 
L 115.209173 112.513659 
L 115.472789 93.907932 
L 115.560359 93.353506 
L 115.647778 96.05571 
L 115.909139 123.648175 
L 116.169166 94.731224 
L 116.255547 94.522577 
L 116.341782 97.60006 
L 116.513815 117.153069 
L 116.599614 115.907485 
L 116.856147 92.84925 
L 116.941372 92.304557 
L 117.026454 94.442915 
L 117.280851 114.636965 
L 117.618083 93.05036 
L 117.702043 94.161351 
L 117.869548 106.98707 
L 117.953095 126.866995 
L 118.036505 125.627244 
L 118.285918 93.314158 
L 118.368785 91.790384 
L 118.451517 92.589538 
L 118.61658 101.500105 
L 118.781109 111.134548 
L 119.108581 91.632493 
L 119.190121 92.10536 
L 119.352811 100.612871 
L 119.433961 111.908786 
L 119.514982 146.973256 
L 119.757274 96.885473 
L 119.918165 91.18977 
L 119.99842 91.489985 
L 120.158551 98.005461 
L 120.31818 111.111237 
L 120.397808 108.907646 
L 120.635946 92.185814 
L 120.794088 90.462722 
L 120.95174 95.977656 
L 121.108906 115.791299 
L 121.187308 156.851307 
L 121.34375 103.813416 
L 121.577515 90.38202 
L 121.655198 89.936221 
L 121.732764 90.987849 
L 121.887541 97.956943 
L 122.04185 110.301172 
L 122.118829 109.29416 
L 122.425587 90.2245 
L 122.501989 89.181208 
L 122.578276 89.458622 
L 122.730509 94.388624 
L 122.882287 109.392265 
L 123.033615 134.534098 
L 123.259767 94.6671 
L 123.484919 88.248916 
L 123.559748 88.62854 
L 123.709079 92.907948 
L 124.006433 110.603008 
L 124.3757 89.123843 
L 124.449234 88.169031 
L 124.522661 88.220536 
L 124.669198 91.477334 
L 124.815315 100.457122 
L 125.033708 122.552836 
L 125.251167 95.046012 
L 125.467702 86.959513 
L 125.539676 86.309304 
L 125.611549 86.495613 
L 125.754991 89.445364 
L 125.969398 102.760209 
L 126.111837 118.037048 
L 126.67764 86.452633 
L 126.747925 86.597232 
L 126.888205 89.047641 
L 127.097904 99.230134 
L 127.306742 109.47737 
L 127.721867 86.735577 
L 127.928168 84.946949 
L 128.065238 86.743858 
L 128.270155 95.202381 
L 128.40631 108.576089 
L 128.542101 142.891667 
L 128.745112 99.756933 
L 129.014539 85.981865 
L 129.215679 83.463883 
L 129.282549 83.612916 
L 129.416027 85.350674 
L 129.61559 92.235126 
L 129.946466 115.244578 
L 130.012384 109.64272 
L 130.340701 87.874713 
L 130.601839 83.202041 
L 130.666914 83.076883 
L 130.796817 83.949544 
L 130.991051 88.248072 
L 131.248883 100.924886 
L 131.377311 106.983863 
L 131.441404 106.124188 
L 131.951263 83.871307 
L 132.141152 81.824514 
L 132.204291 81.751543 
L 132.330335 82.489155 
L 132.518818 85.989797 
L 132.769048 96.931192 
L 133.018054 113.824745 
L 133.69661 81.145957 
L 133.880112 79.772023 
L 133.941132 79.779407 
L 134.062955 80.478057 
L 134.245143 83.374871 
L 134.487052 92.010996 
L 134.667733 106.15376 
L 134.847775 142.709295 
L 135.086844 98.054205 
L 135.384111 83.915092 
L 135.679653 78.747319 
L 135.856159 78.040227 
L 135.97349 78.420346 
L 136.148981 80.297326 
L 136.382033 85.739576 
L 136.614023 96.75648 
L 136.787325 114.196037 
L 136.902532 126.690734 
L 137.246599 91.68551 
L 137.588357 80.502043 
L 137.871414 76.989365 
L 138.040496 76.50869 
L 138.152906 76.78992 
L 138.321057 78.120473 
L 138.544398 81.788648 
L 138.822204 90.602383 
L 139.208604 111.775612 
L 139.263565 110.015692 
L 139.755567 84.219174 
L 140.080946 77.50931 
L 140.350517 75.153471 
L 140.511576 74.810024 
L 140.618667 74.989838 
L 140.778883 75.870138 
L 141.044793 79.090704 
L 141.362064 86.655539 
L 141.834293 105.428257 
L 141.938641 103.51951 
L 142.560277 80.31721 
L 142.919424 74.865444 
L 143.225262 72.958384 
L 143.377494 72.773502 
L 143.47873 72.916078 
L 143.680601 73.839024 
L 143.931818 76.256258 
L 144.231653 81.372243 
L 144.579243 91.582452 
L 144.924476 102.090826 
L 145.022686 100.538806 
L 145.898153 75.717896 
L 146.282469 71.74192 
L 146.568815 70.488806 
L 146.758822 70.350157 
L 146.900863 70.592842 
L 147.136722 71.660376 
L 147.418317 74.107794 
L 147.744889 78.882841 
L 148.115568 87.80059 
L 148.575153 99.940319 
L 148.666575 98.84419 
L 149.030628 87.293367 
L 149.482065 76.745798 
L 149.929534 70.965071 
L 150.328923 68.305139 
L 150.637407 67.493552 
L 150.812848 67.46767 
L 150.987686 67.74763 
L 151.248824 68.744771 
L 151.594937 71.222634 
L 151.981523 75.878757 
L 152.365197 83.239795 
L 152.998297 98.5395 
L 153.040225 98.37522 
L 153.165803 96.202145 
L 154.118413 73.706485 
L 154.608442 68.232246 
L 155.053529 65.3888 
L 155.41482 64.211218 
L 155.694062 63.905441 
L 155.892588 63.992254 
L 156.129801 64.424765 
L 156.444377 65.5655 
L 156.834883 67.967485 
L 157.261009 72.099805 
L 157.721842 79.055831 
L 158.178542 89.794356 
L 158.556021 98.186524 
L 158.593616 98.255879 
L 158.631183 98.100291 
L 158.781173 95.581703 
L 159.745488 73.607478 
L 160.293628 67.105182 
L 160.835931 63.059083 
L 161.336922 60.767648 
L 161.762454 59.68174 
L 162.114368 59.306439 
L 162.359269 59.307323 
L 162.63772 59.564195 
L 162.983657 60.26453 
L 163.395703 61.675532 
L 163.872247 64.18046 
L 164.377929 68.09534 
L 164.878638 73.734545 
L 165.374472 82.004476 
L 166.157899 97.896611 
L 166.222643 97.577382 
L 166.384146 94.88027 
L 167.437406 72.979929 
L 168.065303 65.79641 
L 168.716366 60.781483 
L 169.389619 57.225337 
L 170.054088 54.849736 
L 170.680366 53.396025 
L 171.240437 52.624363 
L 171.707344 52.309025 
L 172.141216 52.255729 
L 172.571422 52.410951 
L 173.054635 52.810819 
L 173.673239 53.637948 
L 174.449838 55.098023 
L 175.646771 57.916269 
L 176.763637 60.360889 
L 177.33903 61.144394 
L 177.753451 61.39374 
L 178.113324 61.375408 
L 178.419775 61.192773 
L 178.926463 60.598039 
L 179.92496 58.728953 
L 181.86507 54.773576 
L 182.808092 53.339906 
L 183.733967 52.363505 
L 184.643308 51.828477 
L 185.536695 51.707222 
L 186.414677 51.972179 
L 187.277778 52.608508 
L 188.126493 53.609194 
L 188.961294 54.982669 
L 189.782631 56.753595 
L 190.590929 58.969276 
L 191.386597 61.710851 
L 192.170024 65.114119 
L 192.94158 69.416739 
L 193.70162 75.068541 
L 194.450483 83.065735 
L 194.820824 88.680605 
L 195.188492 96.407591 
L 195.553523 108.718322 
L 195.915957 136.149245 
L 196.633177 100.552482 
L 197.340434 85.1408 
L 198.038003 76.409343 
L 198.726145 70.336951 
L 199.74123 63.7553 
L 200.736474 58.897788 
L 201.71264 55.090931 
L 202.985749 51.082448 
L 204.227804 47.905554 
L 205.738946 44.736923 
L 207.206533 42.202034 
L 208.913566 39.756137 
L 210.565227 37.78581 
L 212.426803 35.92722 
L 214.474183 34.230095 
L 216.683183 32.717143 
L 219.030222 31.391719 
L 221.710932 30.152946 
L 224.669873 29.046065 
L 228.046039 28.033007 
L 232.107169 27.070469 
L 236.685581 26.215216 
L 242.647246 25.337019 
L 252.099395 24.232839 
L 286.914116 20.526397 
L 303.753269 18.360847 
L 320.362947 15.956944 
L 347.626344 11.926715 
L 356.514265 10.838581 
L 365.752123 10.023757 
L 371.909612 9.754101 
L 377.840183 9.784343 
L 382.015077 10.023281 
L 386.304722 10.49954 
L 390.916247 11.325943 
L 394.905792 12.355307 
L 398.192205 13.460666 
L 401.801464 14.985433 
L 405.094608 16.701916 
L 407.427575 18.129625 
L 410.573045 20.367126 
L 413.941382 23.20836 
L 419.024731 28.504929 
L 422.810374 33.359673 
L 424.985795 36.542385 
L 427.734973 41.002717 
L 431.512486 47.938299 
L 433.57 52.069974 
L 433.57 52.069974 
" style="fill:none;stroke:#ff7f0e;stroke-linecap:square;stroke-width:1.5;"/>
   </g>
   <g id="line2d_39">
    <path clip-path="url(#pe8290c170f)" d="M 103.012432 206.230024 
L 103.912349 177.740412 
L 104.784692 156.214142 
L 105.535921 142.719573 
L 106.065809 136.311238 
L 106.485784 133.351824 
L 106.69448 132.695795 
L 106.798508 132.599039 
L 106.902324 132.670391 
L 107.109324 133.372418 
L 107.315485 134.948377 
L 107.62317 139.523157 
L 107.929007 148.57551 
L 108.131883 160.354295 
L 108.233018 171.097356 
L 108.333953 195.312281 
L 108.434689 191.550097 
L 108.635564 159.646925 
L 108.935398 144.757701 
L 109.233477 138.366252 
L 109.529822 136.302884 
L 109.628221 136.416798 
L 109.824452 137.886445 
L 110.019929 141.300607 
L 110.214659 147.513562 
L 110.408646 159.172303 
L 110.505364 170.148733 
L 110.601898 196.125742 
L 110.698249 187.881226 
L 110.890407 157.624948 
L 111.177291 143.507342 
L 111.462567 138.148474 
L 111.651868 137.336641 
L 111.746255 137.663107 
L 111.934505 139.877138 
L 112.122063 144.677421 
L 112.308931 153.760964 
L 112.495117 175.064178 
L 112.546739 206.230024 
M 112.631462 206.230024 
L 112.773125 163.043707 
L 113.049624 145.201155 
L 113.32463 138.829361 
L 113.507145 137.709496 
L 113.598158 137.941648 
L 113.779697 140.057729 
L 113.960592 144.877078 
L 114.140846 154.169696 
L 114.320464 176.680618 
L 114.351445 206.230024 
M 114.46806 206.230024 
L 114.588709 161.935267 
L 114.855549 144.77646 
L 115.120997 138.707092 
L 115.297197 137.776903 
L 115.385069 138.11267 
L 115.560359 140.475728 
L 115.735048 145.66084 
L 115.909139 155.696448 
L 116.082638 181.975896 
L 116.168247 206.230024 
M 116.169817 206.230024 
L 116.341782 159.894424 
L 116.599614 144.099173 
L 116.856147 138.438726 
L 117.026454 137.657718 
L 117.111395 138.047345 
L 117.280851 140.486104 
L 117.533984 149.851724 
L 117.702043 164.588736 
L 117.860739 206.230024 
M 117.876212 206.230024 
L 118.036505 160.318555 
L 118.285918 144.282023 
L 118.534116 138.38254 
L 118.698911 137.369264 
L 118.781109 137.605881 
L 118.945108 139.616744 
L 119.190121 147.632124 
L 119.352811 159.465134 
L 119.433961 170.822713 
L 119.514982 199.303728 
L 119.918165 146.365095 
L 120.238428 137.849265 
L 120.397808 136.984047 
L 120.477311 137.240291 
L 120.635946 139.180766 
L 120.872975 146.665131 
L 121.030384 157.278023 
L 121.187308 185.81726 
L 121.265589 200.179004 
L 121.499712 152.878885 
L 121.810211 139.570607 
L 122.04185 136.612514 
L 122.118829 136.508377 
L 122.272439 137.556182 
L 122.501989 142.748403 
L 122.730509 155.372782 
L 122.882287 177.729153 
L 122.902852 206.230024 
M 123.013226 206.230024 
L 123.109111 163.630901 
L 123.409979 142.711864 
L 123.709079 136.460792 
L 123.857973 135.926964 
L 124.006433 136.890876 
L 124.228315 141.521534 
L 124.449234 152.235684 
L 124.595982 168.354977 
L 124.742309 199.296602 
L 124.961014 153.681334 
L 125.251167 139.834912 
L 125.539676 135.431094 
L 125.611549 135.232963 
L 125.68332 135.360647 
L 125.82656 136.613661 
L 126.040667 141.393037 
L 126.253878 151.751458 
L 126.395524 166.527667 
L 126.513076 206.230024 
M 126.556761 206.230024 
L 126.747925 155.625045 
L 127.0281 140.590438 
L 127.306742 135.181573 
L 127.445494 134.459616 
L 127.514728 134.524231 
L 127.652915 135.504857 
L 127.859494 139.366032 
L 128.065238 147.373038 
L 128.270155 165.507883 
L 128.359045 206.230024 
M 128.453875 206.230024 
L 128.542101 165.833605 
L 128.812602 144.105628 
L 129.14872 135.147868 
L 129.349332 133.602958 
L 129.416027 133.576756 
L 129.549156 134.236328 
L 129.748198 137.148441 
L 130.012384 146.049366 
L 130.209628 161.16565 
L 130.406111 200.373185 
L 130.601839 155.786977 
L 130.926389 138.960252 
L 131.248883 133.243016 
L 131.441404 132.558289 
L 131.569348 133.083432 
L 131.760664 135.422646 
L 132.014638 142.291458 
L 132.204291 152.511813 
L 132.39324 178.18999 
L 132.44069 206.230024 
M 132.476067 206.230024 
L 132.644087 160.74015 
L 132.893703 143.271655 
L 133.204013 134.46732 
L 133.450907 131.738008 
L 133.573907 131.396581 
L 133.69661 131.682561 
L 133.880112 133.319544 
L 134.123757 138.182069 
L 134.366242 147.960396 
L 134.54735 163.432354 
L 134.727818 202.350958 
L 134.907647 157.908383 
L 135.205959 140.337669 
L 135.561642 132.23826 
L 135.797391 130.286539 
L 135.914858 130.085985 
L 136.032054 130.371923 
L 136.207344 131.736029 
L 136.44013 135.556568 
L 136.671856 142.640697 
L 136.902532 156.63555 
L 137.01748 171.667635 
L 137.102108 206.230024 
M 137.158408 206.230024 
L 137.303719 160.930482 
L 137.588357 141.956849 
L 137.927837 132.730951 
L 138.265068 129.037989 
L 138.43285 128.581264 
L 138.544398 128.735666 
L 138.711264 129.657497 
L 138.932904 132.29067 
L 139.208604 138.534078 
L 139.48282 150.910865 
L 139.646643 166.965361 
L 139.809941 201.887341 
L 140.02686 155.180812 
L 140.350517 138.52409 
L 140.725534 130.310056 
L 141.044793 127.354883 
L 141.256526 126.846011 
L 141.362064 126.98705 
L 141.519961 127.691063 
L 141.782039 130.277773 
L 142.094763 136.369626 
L 142.353907 145.727114 
L 142.560277 160.330455 
L 142.714508 192.769484 
L 142.738182 206.230024 
M 142.787238 206.230024 
L 142.919424 163.900855 
L 143.225262 142.463616 
L 143.579765 132.189492 
L 143.931818 127.121104 
L 144.231653 125.168031 
L 144.430566 124.829878 
L 144.529732 124.928868 
L 144.727487 125.661405 
L 144.973605 127.634278 
L 145.267385 131.86599 
L 145.55948 139.109898 
L 145.849908 152.787753 
L 146.042612 175.03669 
L 146.10599 206.230024 
M 146.173443 206.230024 
L 146.282469 167.93818 
L 146.568815 145.00039 
L 146.948122 132.797835 
L 147.371493 126.083212 
L 147.744889 123.235533 
L 148.023151 122.472404 
L 148.161713 122.480568 
L 148.345879 122.882441 
L 148.575153 124.029441 
L 148.894413 126.966166 
L 149.256847 132.816767 
L 149.571874 141.637712 
L 149.840354 155.896764 
L 150.018558 179.437968 
L 150.073545 206.230024 
M 150.138685 206.230024 
L 150.284701 163.494745 
L 150.593452 143.015744 
L 150.987686 131.559974 
L 151.422175 124.823374 
L 151.852987 121.220234 
L 152.195032 119.860036 
L 152.450066 119.574434 
L 152.619382 119.710277 
L 152.830239 120.241995 
L 153.123978 121.68591 
L 153.499171 124.896079 
L 153.871619 130.109209 
L 154.241363 138.652238 
L 154.527097 150.35055 
L 154.730215 167.263018 
L 154.851699 196.676213 
L 154.856894 206.230024 
M 154.926793 206.230024 
L 155.053529 166.972674 
L 155.334754 146.106778 
L 155.73383 133.207963 
L 156.208628 124.954232 
L 156.718045 119.868708 
L 157.183796 117.271065 
L 157.568694 116.23453 
L 157.836402 116.031386 
L 158.026763 116.134084 
L 158.29208 116.618235 
L 158.631183 117.835585 
L 159.042598 120.316587 
L 159.487656 124.556505 
L 159.928858 131.155924 
L 160.293628 139.94553 
L 160.583575 152.051384 
L 160.799957 171.235466 
L 160.910542 206.230024 
M 160.976266 206.230024 
L 161.087043 170.916763 
L 161.372519 148.157405 
L 161.762454 134.911514 
L 162.254455 125.691639 
L 162.810983 119.367856 
L 163.361493 115.426057 
L 163.906116 113.022875 
L 164.377929 111.871563 
L 164.745596 111.492669 
L 165.011333 111.483066 
L 165.308639 111.729292 
L 165.669671 112.39608 
L 166.093071 113.715623 
L 166.577275 116.020571 
L 167.088735 119.587939 
L 167.595108 124.721694 
L 168.065303 131.829264 
L 168.469322 141.531625 
L 168.77794 154.678272 
L 168.992864 174.857483 
L 169.09099 206.230024 
M 169.156588 206.230024 
L 169.328781 165.573501 
L 169.632249 146.548826 
L 170.054088 134.02263 
L 170.561667 125.210356 
L 171.152413 118.559641 
L 171.794415 113.644566 
L 172.485671 110.003523 
L 173.139434 107.655811 
L 173.757014 106.192329 
L 174.312025 105.401825 
L 174.779074 105.081293 
L 175.214771 105.048428 
L 175.646771 105.261634 
L 176.101791 105.749121 
L 176.631954 106.665296 
L 177.234896 108.192788 
L 177.882269 110.48349 
L 178.419775 113.000355 
L 178.926463 116.022973 
L 179.428159 119.848484 
L 179.92496 124.822445 
L 180.416961 131.660571 
L 180.904254 142.221125 
L 181.386928 165.158118 
L 181.86507 165.10597 
L 182.338764 142.198111 
L 182.808092 131.623668 
L 183.273134 124.741951 
L 184.190667 115.728819 
L 185.091961 109.833303 
L 185.977578 105.612811 
L 186.848056 102.456383 
L 187.703904 100.044959 
L 188.545605 98.190163 
L 189.373618 96.769816 
L 190.188384 95.701504 
L 190.990317 94.924922 
L 191.779817 94.397738 
L 192.557263 94.086842 
L 193.323018 93.968039 
L 194.077428 94.021651 
L 194.820824 94.2344 
L 195.915957 94.83 
L 196.988033 95.73829 
L 198.038003 96.951864 
L 199.06676 98.477218 
L 200.075144 100.335779 
L 201.063947 102.568512 
L 202.033914 105.242902 
L 202.985749 108.470134 
L 203.920119 112.436074 
L 204.837653 117.473799 
L 205.440284 121.734191 
L 206.035866 127.142532 
L 206.624564 134.510384 
L 207.206533 146.047246 
L 207.495042 155.666623 
L 208.067202 192.907041 
L 208.350889 161.603566 
L 208.913566 142.014842 
L 209.470093 132.095798 
L 210.293643 122.739147 
L 211.104086 116.335538 
L 212.164994 110.086959 
L 213.204249 105.339927 
L 214.474183 100.681921 
L 215.713216 96.947339 
L 217.161325 93.28224 
L 218.800327 89.784249 
L 220.611068 86.499658 
L 222.574033 83.442536 
L 224.669873 80.609515 
L 226.879841 77.986296 
L 229.373683 75.368042 
L 232.107169 72.814591 
L 235.204715 70.225368 
L 238.751332 67.557176 
L 242.791296 64.801818 
L 247.461248 61.890163 
L 252.931273 58.743017 
L 259.553804 55.194953 
L 267.845072 51.023818 
L 276.997108 46.651672 
L 289.622731 40.890562 
L 303.926767 34.64686 
L 316.011929 29.585746 
L 340.52686 20.083085 
L 350.603195 16.628152 
L 357.066268 14.625992 
L 363.94592 12.738161 
L 368.383352 11.686459 
L 372.633683 10.827421 
L 377.340797 10.077127 
L 382.489377 9.54649 
L 386.681224 9.382601 
L 389.725691 9.440302 
L 392.734798 9.66405 
L 395.840162 10.090553 
L 399.222186 10.810789 
L 402.161292 11.680872 
L 405.538051 12.998243 
L 408.870435 14.674713 
L 411.982515 16.622476 
L 414.472675 18.477869 
L 416.747617 20.426676 
L 419.087932 22.705506 
L 422.062661 26.038868 
L 424.485094 29.141511 
L 429.109594 36.099211 
L 431.896325 40.942365 
L 433.57 44.052058 
L 433.57 44.052058 
" style="fill:none;stroke:#2ca02c;stroke-linecap:square;stroke-width:1.5;"/>
   </g>
   <g id="line2d_40">
    <path clip-path="url(#pe8290c170f)" d="M 77.916465 206.230024 
L 78.483443 182.38084 
L 79.02421 165.300987 
L 79.559294 154.943881 
L 79.736413 153.312681 
L 79.912919 152.819708 
L 80.088814 153.721589 
L 80.264104 156.470762 
L 80.438793 162.006203 
L 80.612885 172.945077 
L 80.782942 206.230024 
M 80.791181 206.230024 
L 81.131616 166.426996 
L 81.303359 159.60499 
L 81.474525 157.346285 
L 81.645117 158.923451 
L 81.81514 165.328189 
L 82.153492 199.136633 
L 82.321828 170.012286 
L 82.48961 161.203808 
L 82.656841 159.080991 
L 82.823524 162.467335 
L 82.989664 174.245006 
L 83.053524 206.230024 
M 83.255893 206.230024 
L 83.320325 173.603583 
L 83.484854 162.524213 
L 83.648854 160.148738 
L 83.812327 164.594146 
L 84.137706 195.387913 
L 84.29962 168.224002 
L 84.46102 161.245732 
L 84.62191 162.413806 
L 84.782294 173.176068 
L 84.849923 206.230024 
M 85.033229 206.230024 
L 85.101553 172.398192 
L 85.260435 162.434101 
L 85.418824 162.303884 
L 85.57672 172.052831 
L 85.644065 206.230024 
M 85.824797 206.230024 
L 85.891053 172.82918 
L 86.047495 162.67938 
L 86.203457 163.08038 
L 86.358944 174.767257 
L 86.486994 206.230024 
M 86.537859 206.230024 
L 86.668499 170.020675 
L 86.822574 162.318273 
L 86.976184 165.047993 
L 87.282022 187.895508 
L 87.434254 166.193051 
L 87.586033 162.452062 
L 87.73736 169.620712 
L 87.868474 206.230024 
M 87.910495 206.230024 
L 88.188664 163.334107 
L 88.338214 164.599975 
L 88.636003 190.181036 
L 88.784246 166.576355 
L 88.93206 162.922742 
L 89.079446 171.250401 
L 89.141787 206.230024 
M 89.311434 206.230024 
L 89.372944 171.8835 
L 89.519061 163.106705 
L 89.664759 166.719203 
L 89.810043 191.3784 
L 90.243422 164.442077 
L 90.530305 191.356866 
L 90.673144 166.726346 
L 90.815582 163.433471 
L 90.957623 173.354404 
L 91.067513 206.230024 
M 91.128391 206.230024 
L 91.240522 169.648345 
L 91.381385 163.211943 
L 91.521859 169.678082 
L 91.630739 206.230024 
M 91.695589 206.230024 
L 91.94097 163.510871 
L 92.079911 167.307705 
L 92.218473 195.24343 
L 92.494472 164.177561 
L 92.631913 165.731013 
L 92.768984 185.943097 
L 92.905687 182.638888 
L 93.042023 165.130039 
L 93.177996 164.675212 
L 93.448857 189.300691 
L 93.583749 166.338099 
L 93.718285 163.986124 
L 93.852466 176.165644 
L 93.986294 198.851455 
L 94.119772 167.81399 
L 94.252901 163.575622 
L 94.385683 173.085683 
L 94.486372 206.230024 
M 94.547448 206.230024 
L 94.650212 169.61331 
L 94.781963 163.401483 
L 94.913374 170.620067 
L 94.982305 206.230024 
M 95.107571 206.230024 
L 95.175183 171.846795 
L 95.305584 163.455474 
L 95.435652 168.58287 
L 95.565389 205.078232 
L 95.823876 163.759241 
L 95.952629 166.880073 
L 96.081057 192.519496 
L 96.336945 164.365641 
L 96.464409 165.471153 
L 96.591555 184.48412 
L 96.718383 183.992404 
L 96.844897 165.367556 
L 96.971097 164.358313 
L 97.222563 192.720967 
L 97.472793 163.579776 
L 97.597449 173.839682 
L 97.705078 206.230024 
M 97.736658 206.230024 
L 97.969595 163.210484 
L 98.093041 170.06623 
L 98.17866 206.230024 
M 98.2557 206.230024 
L 98.461596 163.372924 
L 98.583857 167.071375 
L 98.705825 193.460314 
L 98.948889 164.257465 
L 99.069987 164.83031 
L 99.311323 188.357101 
L 99.55152 163.402225 
L 99.671195 173.623302 
L 99.765576 206.230024 
M 99.81336 206.230024 
L 100.028542 162.934456 
L 100.147102 168.354977 
L 100.265388 201.779858 
L 100.501137 163.701369 
L 100.618603 164.857167 
L 100.852727 188.477285 
L 101.085778 162.980017 
L 101.201906 171.771289 
L 101.24332 206.230024 
M 101.391876 206.230024 
L 101.548707 162.878135 
L 101.663784 165.999874 
L 101.778602 187.180418 
L 101.893161 182.858025 
L 102.12151 162.999655 
L 102.235302 172.750806 
L 102.311373 206.230024 
M 102.384842 206.230024 
L 102.575159 162.598241 
L 102.687943 165.522884 
L 102.800477 184.416044 
L 102.912763 183.841105 
L 103.136595 162.181545 
L 103.248143 169.404214 
L 103.359448 191.158693 
L 103.581329 161.830556 
L 103.691909 161.988343 
L 103.912349 174.398834 
L 104.13184 157.816314 
L 104.241231 158.824681 
L 104.350388 162.47549 
L 104.459312 160.056892 
L 104.676462 151.33109 
L 104.892691 151.343981 
L 105.322413 142.740673 
L 105.429279 141.81868 
L 105.854515 135.661026 
L 106.065809 133.596508 
L 106.27623 131.485771 
L 106.798508 129.586074 
L 107.212508 131.056335 
L 107.418253 133.171582 
L 107.929007 144.280829 
L 108.233018 161.655924 
L 108.333953 160.841132 
L 108.434689 160.86267 
L 108.535225 161.458837 
L 109.233477 135.845111 
L 109.529822 133.029145 
L 109.726431 134.377089 
L 110.019929 137.489242 
L 110.214659 144.097413 
L 110.505364 158.20604 
L 110.698249 160.782276 
L 110.794419 160.640988 
L 111.272561 137.456554 
L 111.651868 134.22012 
L 111.746255 134.163475 
L 111.934505 136.755128 
L 112.402109 151.688976 
L 112.680625 175.861902 
L 112.957625 143.803063 
L 113.233126 137.637142 
L 113.507145 134.308081 
L 113.598158 134.291532 
L 113.779697 136.97306 
L 114.230734 151.386518 
L 114.499451 171.065623 
L 114.766757 143.791665 
L 115.032668 136.724652 
L 115.297197 135.033337 
L 115.385069 134.854644 
L 115.472789 135.208866 
L 115.647778 138.620227 
L 115.909139 152.874269 
L 116.082638 159.077551 
L 116.427871 148.526129 
L 116.856147 134.611009 
L 116.941372 133.963258 
L 117.026454 134.112778 
L 117.196193 136.284528 
L 117.533984 143.934468 
L 117.702043 151.662588 
L 117.953095 169.001963 
L 118.202916 143.354908 
L 118.451517 135.643239 
L 118.61658 134.697798 
L 118.698911 134.788443 
L 118.863175 135.486818 
L 119.02691 137.208977 
L 119.190121 141.63076 
L 119.352811 152.293437 
L 119.433961 163.513873 
L 119.514982 193.0458 
L 119.837783 144.131486 
L 120.078548 136.715961 
L 120.31818 134.666328 
L 120.477311 134.327192 
L 120.55669 134.518127 
L 120.715078 136.238501 
L 120.872975 140.954034 
L 121.030384 151.485655 
L 121.187308 182.440974 
L 121.265589 178.809545 
L 121.499712 145.332331 
L 121.732764 136.936027 
L 121.964754 134.390759 
L 122.118829 133.951913 
L 122.195692 133.988439 
L 122.349071 134.808211 
L 122.501989 137.298607 
L 122.654449 142.751497 
L 122.806455 154.27718 
L 122.958008 192.107015 
L 123.033615 175.024497 
L 123.259767 144.147386 
L 123.559748 134.048853 
L 123.709079 132.892438 
L 123.783581 132.879587 
L 123.932257 133.648429 
L 124.228315 137.397971 
L 124.449234 142.884875 
L 124.815315 158.532215 
L 124.888217 155.911998 
L 125.323448 134.120683 
L 125.539676 131.027382 
L 125.611549 130.887289 
L 125.754991 131.834528 
L 125.969398 136.313467 
L 126.4662 152.128961 
L 126.67764 146.045126 
L 127.097904 135.536888 
L 127.445494 131.598606 
L 127.583868 131.270054 
L 127.721867 131.88276 
L 127.928168 135.131678 
L 128.133636 142.720087 
L 128.338278 160.215348 
L 128.474251 174.07505 
L 128.812602 139.752904 
L 129.081674 131.336848 
L 129.282549 129.24545 
L 129.349332 129.141486 
L 129.482635 129.740405 
L 129.681937 132.622704 
L 129.946466 140.348319 
L 130.275207 150.59274 
L 130.406111 148.30632 
L 130.926389 133.886751 
L 131.248883 130.530855 
L 131.441404 130.014637 
L 131.569348 130.226887 
L 131.760664 131.422735 
L 132.014638 134.941042 
L 132.330335 143.044343 
L 132.581491 148.471634 
L 132.644087 148.026793 
L 132.831414 142.683134 
L 133.265849 130.526047 
L 133.573907 127.182144 
L 133.69661 126.974378 
L 133.819018 127.407433 
L 134.00208 129.356044 
L 134.245143 135.0156 
L 134.487052 146.818439 
L 134.667733 166.68712 
L 134.727818 175.899375 
L 134.787831 173.190261 
L 135.086844 141.531166 
L 135.384111 130.557982 
L 135.679653 125.963613 
L 135.856159 125.098185 
L 135.914858 125.080082 
L 136.032054 125.440344 
L 136.207344 126.993335 
L 136.44013 131.23793 
L 136.729623 141.790887 
L 137.074857 164.400315 
L 137.132169 161.390586 
L 137.531557 136.013252 
L 137.871414 127.556667 
L 138.152906 124.608245 
L 138.321057 124.085555 
L 138.43285 124.196069 
L 138.600081 125.031645 
L 138.822204 127.434582 
L 139.153583 134.206214 
L 139.646643 147.619797 
L 139.701134 147.335402 
L 139.864258 143.311838 
L 140.40426 128.741608 
L 140.778883 124.244295 
L 141.044793 123.134669 
L 141.15077 123.108619 
L 141.309322 123.49244 
L 141.519961 124.781658 
L 141.834293 128.402787 
L 142.611739 140.176787 
L 142.663149 139.951447 
L 142.817069 138.061168 
L 143.730943 123.786897 
L 144.081956 121.880388 
L 144.281454 121.626211 
L 144.430566 121.805642 
L 144.628705 122.522229 
L 144.924476 124.597331 
L 145.364936 129.730154 
L 145.849908 135.317236 
L 145.946351 135.592399 
L 145.994504 135.55916 
L 146.13869 134.80411 
L 146.425844 131.348975 
L 147.136722 122.756666 
L 147.558533 120.221036 
L 147.837812 119.590192 
L 148.023151 119.604281 
L 148.207817 119.949999 
L 148.483567 121.069937 
L 148.848927 123.617504 
L 149.884964 131.841613 
L 149.974066 131.706391 
L 150.151803 130.787256 
L 150.549459 126.888474 
L 151.248824 120.30452 
L 151.724126 117.787597 
L 152.067034 116.98358 
L 152.280186 116.886582 
L 152.492448 117.085918 
L 152.746001 117.699796 
L 153.123978 119.342524 
L 153.623623 122.662562 
L 154.364017 127.624924 
L 154.567786 128.01242 
L 154.689657 127.896264 
L 154.892129 127.151115 
L 155.254563 124.620081 
L 156.326639 116.666671 
L 156.834883 114.545819 
L 157.222417 113.717229 
L 157.491947 113.521838 
L 157.721842 113.592699 
L 157.988748 113.939282 
L 158.32987 114.7807 
L 158.781173 116.527492 
L 159.524569 120.488232 
L 160.11157 123.150489 
L 160.36627 123.573726 
L 160.511243 123.52931 
L 160.691881 123.181406 
L 160.979575 122.047161 
L 161.550133 118.639047 
L 162.533479 113.021372 
L 163.155749 110.693792 
L 163.66856 109.554323 
L 164.075123 109.127144 
L 164.411463 109.077349 
L 164.712281 109.257606 
L 165.077551 109.752738 
L 165.538683 110.791683 
L 166.125495 112.717474 
L 167.877745 118.959655 
L 168.096495 119.042703 
L 168.28325 118.877788 
L 168.562104 118.243458 
L 168.992864 116.534639 
L 170.024072 111.108984 
L 171.005368 106.605073 
L 171.794415 103.983518 
L 172.485671 102.407682 
L 173.082917 101.547157 
L 173.617311 101.146555 
L 174.090746 101.068627 
L 174.55982 101.242596 
L 175.079016 101.723217 
L 175.646771 102.595984 
L 176.287977 104.030741 
L 176.999812 106.209708 
L 177.779241 109.344155 
L 178.419775 112.500212 
L 179.92496 120.265999 
L 180.416961 121.312123 
L 180.904254 120.727213 
L 181.386928 118.768404 
L 183.733967 105.887535 
L 184.643308 102.194492 
L 185.536695 99.321382 
L 186.414677 97.09772 
L 187.277778 95.393943 
L 188.126493 94.113426 
L 188.961294 93.18481 
L 189.782631 92.556354 
L 190.590929 92.187864 
L 191.386597 92.049368 
L 192.170024 92.118794 
L 192.94158 92.379462 
L 193.70162 92.820024 
L 194.820824 93.802611 
L 195.915957 95.165249 
L 196.988033 96.921517 
L 198.038003 99.106252 
L 199.06676 101.787701 
L 200.075144 105.084529 
L 201.063947 109.200511 
L 202.033914 114.51388 
L 202.670444 119.079647 
L 203.299115 124.975888 
L 203.920119 133.20817 
L 204.533642 146.463173 
L 205.13986 165.005045 
L 206.035866 138.404638 
L 206.624564 128.389193 
L 207.206533 121.589328 
L 208.067202 114.321541 
L 208.913566 108.978259 
L 210.020604 103.548872 
L 211.104086 99.316517 
L 212.426803 95.098417 
L 213.716029 91.683166 
L 215.221215 88.313266 
L 216.922815 85.088255 
L 218.800327 82.058513 
L 220.832949 79.242428 
L 223.000159 76.638619 
L 225.484638 74.035974 
L 228.237835 71.510524 
L 231.212212 69.099007 
L 234.532471 66.696257 
L 238.282004 64.252275 
L 242.791296 61.585005 
L 248.113264 58.70105 
L 254.555339 55.462933 
L 263.053239 51.454653 
L 275.126151 46.056245 
L 289.794474 39.761047 
L 308.440463 32.052235 
L 322.421602 26.507704 
L 337.078399 21.017481 
L 345.393647 18.122728 
L 352.037224 15.971806 
L 361.53134 13.238777 
L 367.297243 11.837129 
L 372.046162 10.871443 
L 376.929472 10.095351 
L 380.823982 9.66405 
L 384.245316 9.445864 
L 388.416075 9.416284 
L 392.438719 9.673727 
L 395.597439 10.103835 
L 398.130964 10.612906 
L 401.687304 11.605551 
L 404.214095 12.531139 
L 406.776773 13.678796 
L 408.870435 14.787115 
L 412.044722 16.791368 
L 414.660033 18.765647 
L 417.185039 20.978005 
L 420.177017 24.026544 
L 422.511761 26.755753 
L 426.263468 31.838861 
L 428.662975 35.562054 
L 431.885799 41.131939 
L 433.57 44.268121 
L 433.57 44.268121 
" style="fill:none;stroke:#d62728;stroke-dasharray:5.55,2.4;stroke-dashoffset:0;stroke-width:1.5;"/>
   </g>
   <g id="line2d_41">
    <path clip-path="url(#pe8290c170f)" d="M 260.37514 153.156587 
L 260.37514 9.012587 
" style="fill:none;stroke:#1f77b4;stroke-dasharray:11.1,4.8;stroke-dashoffset:0;stroke-width:3;"/>
   </g>
   <g id="patch_3">
    <path d="M 76.45 153.156587 
L 76.45 9.012587 
" style="fill:none;stroke:#000000;stroke-linecap:square;stroke-linejoin:miter;stroke-width:0.8;"/>
   </g>
   <g id="patch_4">
    <path d="M 433.57 153.156587 
L 433.57 9.012587 
" style="fill:none;stroke:#000000;stroke-linecap:square;stroke-linejoin:miter;stroke-width:0.8;"/>
   </g>
   <g id="patch_5">
    <path d="M 76.45 153.156587 
L 433.57 153.156587 
" style="fill:none;stroke:#000000;stroke-linecap:square;stroke-linejoin:miter;stroke-width:0.8;"/>
   </g>
   <g id="patch_6">
    <path d="M 76.45 9.012587 
L 433.57 9.012587 
" style="fill:none;stroke:#000000;stroke-linecap:square;stroke-linejoin:miter;stroke-width:0.8;"/>
   </g>
   <g id="legend_1">
    <g id="patch_7">
     <path d="M 273.405644 146.216587 
L 423.854 146.216587 
Q 426.63 146.216587 426.63 143.440587 
L 426.63 83.708874 
Q 426.63 80.932874 423.854 80.932874 
L 273.405644 80.932874 
Q 270.629644 80.932874 270.629644 83.708874 
L 270.629644 143.440587 
Q 270.629644 146.216587 273.405644 146.216587 
z
" style="fill:#ffffff;opacity:0.8;stroke:#cccccc;stroke-linejoin:miter;"/>
    </g>
    <g id="line2d_42">
     <path d="M 276.181644 92.173506 
L 303.941644 92.173506 
" style="fill:none;stroke:#ff7f0e;stroke-linecap:square;stroke-width:1.5;"/>
    </g>
    <g id="line2d_43"/>
    <g id="text_9">
     <!-- Na(2,2) Cs(3,3) -->
     <g transform="translate(315.045644 97.031506)scale(0.1388 -0.1388)">
      <defs>
       <path d="M 9.8125 72.90625 
L 23.09375 72.90625 
L 55.421875 11.921875 
L 55.421875 72.90625 
L 64.984375 72.90625 
L 64.984375 0 
L 51.703125 0 
L 19.390625 60.984375 
L 19.390625 0 
L 9.8125 0 
z
" id="DejaVuSans-78"/>
       <path d="M 34.28125 27.484375 
Q 23.390625 27.484375 19.1875 25 
Q 14.984375 22.515625 14.984375 16.5 
Q 14.984375 11.71875 18.140625 8.90625 
Q 21.296875 6.109375 26.703125 6.109375 
Q 34.1875 6.109375 38.703125 11.40625 
Q 43.21875 16.703125 43.21875 25.484375 
L 43.21875 27.484375 
z
M 52.203125 31.203125 
L 52.203125 0 
L 43.21875 0 
L 43.21875 8.296875 
Q 40.140625 3.328125 35.546875 0.953125 
Q 30.953125 -1.421875 24.3125 -1.421875 
Q 15.921875 -1.421875 10.953125 3.296875 
Q 6 8.015625 6 15.921875 
Q 6 25.140625 12.171875 29.828125 
Q 18.359375 34.515625 30.609375 34.515625 
L 43.21875 34.515625 
L 43.21875 35.40625 
Q 43.21875 41.609375 39.140625 45 
Q 35.0625 48.390625 27.6875 48.390625 
Q 23 48.390625 18.546875 47.265625 
Q 14.109375 46.140625 10.015625 43.890625 
L 10.015625 52.203125 
Q 14.9375 54.109375 19.578125 55.046875 
Q 24.21875 56 28.609375 56 
Q 40.484375 56 46.34375 49.84375 
Q 52.203125 43.703125 52.203125 31.203125 
z
" id="DejaVuSans-97"/>
       <path d="M 11.71875 12.40625 
L 22.015625 12.40625 
L 22.015625 4 
L 14.015625 -11.625 
L 7.71875 -11.625 
L 11.71875 4 
z
" id="DejaVuSans-44"/>
       <path d="M 64.40625 67.28125 
L 64.40625 56.890625 
Q 59.421875 61.53125 53.78125 63.8125 
Q 48.140625 66.109375 41.796875 66.109375 
Q 29.296875 66.109375 22.65625 58.46875 
Q 16.015625 50.828125 16.015625 36.375 
Q 16.015625 21.96875 22.65625 14.328125 
Q 29.296875 6.6875 41.796875 6.6875 
Q 48.140625 6.6875 53.78125 8.984375 
Q 59.421875 11.28125 64.40625 15.921875 
L 64.40625 5.609375 
Q 59.234375 2.09375 53.4375 0.328125 
Q 47.65625 -1.421875 41.21875 -1.421875 
Q 24.65625 -1.421875 15.125 8.703125 
Q 5.609375 18.84375 5.609375 36.375 
Q 5.609375 53.953125 15.125 64.078125 
Q 24.65625 74.21875 41.21875 74.21875 
Q 47.75 74.21875 53.53125 72.484375 
Q 59.328125 70.75 64.40625 67.28125 
z
" id="DejaVuSans-67"/>
      </defs>
      <use xlink:href="#DejaVuSans-78"/>
      <use x="74.804688" xlink:href="#DejaVuSans-97"/>
      <use x="136.083984" xlink:href="#DejaVuSans-40"/>
      <use x="175.097656" xlink:href="#DejaVuSans-50"/>
      <use x="238.720703" xlink:href="#DejaVuSans-44"/>
      <use x="270.507812" xlink:href="#DejaVuSans-50"/>
      <use x="334.130859" xlink:href="#DejaVuSans-41"/>
      <use x="373.144531" xlink:href="#DejaVuSans-32"/>
      <use x="404.931641" xlink:href="#DejaVuSans-67"/>
      <use x="474.755859" xlink:href="#DejaVuSans-115"/>
      <use x="526.855469" xlink:href="#DejaVuSans-40"/>
      <use x="565.869141" xlink:href="#DejaVuSans-51"/>
      <use x="629.492188" xlink:href="#DejaVuSans-44"/>
      <use x="661.279297" xlink:href="#DejaVuSans-51"/>
      <use x="724.902344" xlink:href="#DejaVuSans-41"/>
     </g>
    </g>
    <g id="line2d_44">
     <path d="M 276.181644 112.546743 
L 303.941644 112.546743 
" style="fill:none;stroke:#2ca02c;stroke-linecap:square;stroke-width:1.5;"/>
    </g>
    <g id="line2d_45"/>
    <g id="text_10">
     <!-- Na(2,2) Cs(4,4) -->
     <g transform="translate(315.045644 117.404743)scale(0.1388 -0.1388)">
      <defs>
       <path d="M 37.796875 64.3125 
L 12.890625 25.390625 
L 37.796875 25.390625 
z
M 35.203125 72.90625 
L 47.609375 72.90625 
L 47.609375 25.390625 
L 58.015625 25.390625 
L 58.015625 17.1875 
L 47.609375 17.1875 
L 47.609375 0 
L 37.796875 0 
L 37.796875 17.1875 
L 4.890625 17.1875 
L 4.890625 26.703125 
z
" id="DejaVuSans-52"/>
      </defs>
      <use xlink:href="#DejaVuSans-78"/>
      <use x="74.804688" xlink:href="#DejaVuSans-97"/>
      <use x="136.083984" xlink:href="#DejaVuSans-40"/>
      <use x="175.097656" xlink:href="#DejaVuSans-50"/>
      <use x="238.720703" xlink:href="#DejaVuSans-44"/>
      <use x="270.507812" xlink:href="#DejaVuSans-50"/>
      <use x="334.130859" xlink:href="#DejaVuSans-41"/>
      <use x="373.144531" xlink:href="#DejaVuSans-32"/>
      <use x="404.931641" xlink:href="#DejaVuSans-67"/>
      <use x="474.755859" xlink:href="#DejaVuSans-115"/>
      <use x="526.855469" xlink:href="#DejaVuSans-40"/>
      <use x="565.869141" xlink:href="#DejaVuSans-52"/>
      <use x="629.492188" xlink:href="#DejaVuSans-44"/>
      <use x="661.279297" xlink:href="#DejaVuSans-52"/>
      <use x="724.902344" xlink:href="#DejaVuSans-41"/>
     </g>
    </g>
    <g id="line2d_46">
     <path d="M 276.181644 132.919981 
L 303.941644 132.919981 
" style="fill:none;stroke:#d62728;stroke-dasharray:5.55,2.4;stroke-dashoffset:0;stroke-width:1.5;"/>
    </g>
    <g id="line2d_47"/>
    <g id="text_11">
     <!-- Na(1,1) Cs(3,3) -->
     <g transform="translate(315.045644 137.777981)scale(0.1388 -0.1388)">
      <use xlink:href="#DejaVuSans-78"/>
      <use x="74.804688" xlink:href="#DejaVuSans-97"/>
      <use x="136.083984" xlink:href="#DejaVuSans-40"/>
      <use x="175.097656" xlink:href="#DejaVuSans-49"/>
      <use x="238.720703" xlink:href="#DejaVuSans-44"/>
      <use x="270.507812" xlink:href="#DejaVuSans-49"/>
      <use x="334.130859" xlink:href="#DejaVuSans-41"/>
      <use x="373.144531" xlink:href="#DejaVuSans-32"/>
      <use x="404.931641" xlink:href="#DejaVuSans-67"/>
      <use x="474.755859" xlink:href="#DejaVuSans-115"/>
      <use x="526.855469" xlink:href="#DejaVuSans-40"/>
      <use x="565.869141" xlink:href="#DejaVuSans-51"/>
      <use x="629.492188" xlink:href="#DejaVuSans-44"/>
      <use x="661.279297" xlink:href="#DejaVuSans-51"/>
      <use x="724.902344" xlink:href="#DejaVuSans-41"/>
     </g>
    </g>
   </g>
  </g>
 </g>
 <defs>
  <clipPath id="pe8290c170f">
   <rect height="144.144" width="357.12" x="76.45" y="9.012587"/>
  </clipPath>
 </defs>
</svg>
