<?xml version="1.0" encoding="utf-8" standalone="no"?>
<!DOCTYPE svg PUBLIC "-//W3C//DTD SVG 1.1//EN"
  "http://www.w3.org/Graphics/SVG/1.1/DTD/svg11.dtd">
<!-- Created with matplotlib (https://matplotlib.org/) -->
<svg height="325.385437pt" version="1.1" viewBox="0 0 424.875406 325.385437" width="424.875406pt" xmlns="http://www.w3.org/2000/svg" xmlns:xlink="http://www.w3.org/1999/xlink">
 <defs>
  <style type="text/css">*{stroke-linecap:butt;stroke-linejoin:round;}</style>
 </defs>
 <g id="figure_1">
  <g id="patch_1">
   <path d="M 0 325.385437 
L 424.875406 325.385437 
L 424.875406 0 
L 0 0 
z
" style="fill:none;"/>
  </g>
  <g id="axes_1">
   <g id="patch_2">
    <path d="M 50.74375 273.312 
L 407.86375 273.312 
L 407.86375 7.2 
L 50.74375 7.2 
z
" style="fill:none;"/>
   </g>
   <g id="matplotlib.axis_1">
    <g id="xtick_1">
     <g id="line2d_1">
      <path clip-path="url(#p788de6a001)" d="M 50.74375 273.312 
L 50.74375 7.2 
" style="fill:none;stroke:#b0b0b0;stroke-linecap:square;stroke-width:0.8;"/>
     </g>
     <g id="line2d_2">
      <defs>
       <path d="M 0 0 
L 0 3.5 
" id="m005f0a59be" style="stroke:#000000;stroke-width:0.8;"/>
      </defs>
      <g>
       <use style="stroke:#000000;stroke-width:0.8;" x="50.74375" xlink:href="#m005f0a59be" y="273.312"/>
      </g>
     </g>
     <g id="text_1">
      <!-- 0 -->
      <g transform="translate(45.971875 291.709656)scale(0.15 -0.15)">
       <defs>
        <path d="M 31.78125 66.40625 
Q 24.171875 66.40625 20.328125 58.90625 
Q 16.5 51.421875 16.5 36.375 
Q 16.5 21.390625 20.328125 13.890625 
Q 24.171875 6.390625 31.78125 6.390625 
Q 39.453125 6.390625 43.28125 13.890625 
Q 47.125 21.390625 47.125 36.375 
Q 47.125 51.421875 43.28125 58.90625 
Q 39.453125 66.40625 31.78125 66.40625 
z
M 31.78125 74.21875 
Q 44.046875 74.21875 50.515625 64.515625 
Q 56.984375 54.828125 56.984375 36.375 
Q 56.984375 17.96875 50.515625 8.265625 
Q 44.046875 -1.421875 31.78125 -1.421875 
Q 19.53125 -1.421875 13.0625 8.265625 
Q 6.59375 17.96875 6.59375 36.375 
Q 6.59375 54.828125 13.0625 64.515625 
Q 19.53125 74.21875 31.78125 74.21875 
z
" id="DejaVuSans-48"/>
       </defs>
       <use xlink:href="#DejaVuSans-48"/>
      </g>
     </g>
    </g>
    <g id="xtick_2">
     <g id="line2d_3">
      <path clip-path="url(#p788de6a001)" d="M 108.717776 273.312 
L 108.717776 7.2 
" style="fill:none;stroke:#b0b0b0;stroke-linecap:square;stroke-width:0.8;"/>
     </g>
     <g id="line2d_4">
      <g>
       <use style="stroke:#000000;stroke-width:0.8;" x="108.717776" xlink:href="#m005f0a59be" y="273.312"/>
      </g>
     </g>
     <g id="text_2">
      <!-- 500 -->
      <g transform="translate(94.402151 291.709656)scale(0.15 -0.15)">
       <defs>
        <path d="M 10.796875 72.90625 
L 49.515625 72.90625 
L 49.515625 64.59375 
L 19.828125 64.59375 
L 19.828125 46.734375 
Q 21.96875 47.46875 24.109375 47.828125 
Q 26.265625 48.1875 28.421875 48.1875 
Q 40.625 48.1875 47.75 41.5 
Q 54.890625 34.8125 54.890625 23.390625 
Q 54.890625 11.625 47.5625 5.09375 
Q 40.234375 -1.421875 26.90625 -1.421875 
Q 22.3125 -1.421875 17.546875 -0.640625 
Q 12.796875 0.140625 7.71875 1.703125 
L 7.71875 11.625 
Q 12.109375 9.234375 16.796875 8.0625 
Q 21.484375 6.890625 26.703125 6.890625 
Q 35.15625 6.890625 40.078125 11.328125 
Q 45.015625 15.765625 45.015625 23.390625 
Q 45.015625 31 40.078125 35.4375 
Q 35.15625 39.890625 26.703125 39.890625 
Q 22.75 39.890625 18.8125 39.015625 
Q 14.890625 38.140625 10.796875 36.28125 
z
" id="DejaVuSans-53"/>
       </defs>
       <use xlink:href="#DejaVuSans-53"/>
       <use x="63.623047" xlink:href="#DejaVuSans-48"/>
       <use x="127.246094" xlink:href="#DejaVuSans-48"/>
      </g>
     </g>
    </g>
    <g id="xtick_3">
     <g id="line2d_5">
      <path clip-path="url(#p788de6a001)" d="M 166.691802 273.312 
L 166.691802 7.2 
" style="fill:none;stroke:#b0b0b0;stroke-linecap:square;stroke-width:0.8;"/>
     </g>
     <g id="line2d_6">
      <g>
       <use style="stroke:#000000;stroke-width:0.8;" x="166.691802" xlink:href="#m005f0a59be" y="273.312"/>
      </g>
     </g>
     <g id="text_3">
      <!-- 1000 -->
      <g transform="translate(147.604302 291.709656)scale(0.15 -0.15)">
       <defs>
        <path d="M 12.40625 8.296875 
L 28.515625 8.296875 
L 28.515625 63.921875 
L 10.984375 60.40625 
L 10.984375 69.390625 
L 28.421875 72.90625 
L 38.28125 72.90625 
L 38.28125 8.296875 
L 54.390625 8.296875 
L 54.390625 0 
L 12.40625 0 
z
" id="DejaVuSans-49"/>
       </defs>
       <use xlink:href="#DejaVuSans-49"/>
       <use x="63.623047" xlink:href="#DejaVuSans-48"/>
       <use x="127.246094" xlink:href="#DejaVuSans-48"/>
       <use x="190.869141" xlink:href="#DejaVuSans-48"/>
      </g>
     </g>
    </g>
    <g id="xtick_4">
     <g id="line2d_7">
      <path clip-path="url(#p788de6a001)" d="M 224.665828 273.312 
L 224.665828 7.2 
" style="fill:none;stroke:#b0b0b0;stroke-linecap:square;stroke-width:0.8;"/>
     </g>
     <g id="line2d_8">
      <g>
       <use style="stroke:#000000;stroke-width:0.8;" x="224.665828" xlink:href="#m005f0a59be" y="273.312"/>
      </g>
     </g>
     <g id="text_4">
      <!-- 1500 -->
      <g transform="translate(205.578328 291.709656)scale(0.15 -0.15)">
       <use xlink:href="#DejaVuSans-49"/>
       <use x="63.623047" xlink:href="#DejaVuSans-53"/>
       <use x="127.246094" xlink:href="#DejaVuSans-48"/>
       <use x="190.869141" xlink:href="#DejaVuSans-48"/>
      </g>
     </g>
    </g>
    <g id="xtick_5">
     <g id="line2d_9">
      <path clip-path="url(#p788de6a001)" d="M 282.639854 273.312 
L 282.639854 7.2 
" style="fill:none;stroke:#b0b0b0;stroke-linecap:square;stroke-width:0.8;"/>
     </g>
     <g id="line2d_10">
      <g>
       <use style="stroke:#000000;stroke-width:0.8;" x="282.639854" xlink:href="#m005f0a59be" y="273.312"/>
      </g>
     </g>
     <g id="text_5">
      <!-- 2000 -->
      <g transform="translate(263.552354 291.709656)scale(0.15 -0.15)">
       <defs>
        <path d="M 19.1875 8.296875 
L 53.609375 8.296875 
L 53.609375 0 
L 7.328125 0 
L 7.328125 8.296875 
Q 12.9375 14.109375 22.625 23.890625 
Q 32.328125 33.6875 34.8125 36.53125 
Q 39.546875 41.84375 41.421875 45.53125 
Q 43.3125 49.21875 43.3125 52.78125 
Q 43.3125 58.59375 39.234375 62.25 
Q 35.15625 65.921875 28.609375 65.921875 
Q 23.96875 65.921875 18.8125 64.3125 
Q 13.671875 62.703125 7.8125 59.421875 
L 7.8125 69.390625 
Q 13.765625 71.78125 18.9375 73 
Q 24.125 74.21875 28.421875 74.21875 
Q 39.75 74.21875 46.484375 68.546875 
Q 53.21875 62.890625 53.21875 53.421875 
Q 53.21875 48.921875 51.53125 44.890625 
Q 49.859375 40.875 45.40625 35.40625 
Q 44.1875 33.984375 37.640625 27.21875 
Q 31.109375 20.453125 19.1875 8.296875 
z
" id="DejaVuSans-50"/>
       </defs>
       <use xlink:href="#DejaVuSans-50"/>
       <use x="63.623047" xlink:href="#DejaVuSans-48"/>
       <use x="127.246094" xlink:href="#DejaVuSans-48"/>
       <use x="190.869141" xlink:href="#DejaVuSans-48"/>
      </g>
     </g>
    </g>
    <g id="xtick_6">
     <g id="line2d_11">
      <path clip-path="url(#p788de6a001)" d="M 340.61388 273.312 
L 340.61388 7.2 
" style="fill:none;stroke:#b0b0b0;stroke-linecap:square;stroke-width:0.8;"/>
     </g>
     <g id="line2d_12">
      <g>
       <use style="stroke:#000000;stroke-width:0.8;" x="340.61388" xlink:href="#m005f0a59be" y="273.312"/>
      </g>
     </g>
     <g id="text_6">
      <!-- 2500 -->
      <g transform="translate(321.52638 291.709656)scale(0.15 -0.15)">
       <use xlink:href="#DejaVuSans-50"/>
       <use x="63.623047" xlink:href="#DejaVuSans-53"/>
       <use x="127.246094" xlink:href="#DejaVuSans-48"/>
       <use x="190.869141" xlink:href="#DejaVuSans-48"/>
      </g>
     </g>
    </g>
    <g id="xtick_7">
     <g id="line2d_13">
      <path clip-path="url(#p788de6a001)" d="M 398.587906 273.312 
L 398.587906 7.2 
" style="fill:none;stroke:#b0b0b0;stroke-linecap:square;stroke-width:0.8;"/>
     </g>
     <g id="line2d_14">
      <g>
       <use style="stroke:#000000;stroke-width:0.8;" x="398.587906" xlink:href="#m005f0a59be" y="273.312"/>
      </g>
     </g>
     <g id="text_7">
      <!-- 3000 -->
      <g transform="translate(379.500406 291.709656)scale(0.15 -0.15)">
       <defs>
        <path d="M 40.578125 39.3125 
Q 47.65625 37.796875 51.625 33 
Q 55.609375 28.21875 55.609375 21.1875 
Q 55.609375 10.40625 48.1875 4.484375 
Q 40.765625 -1.421875 27.09375 -1.421875 
Q 22.515625 -1.421875 17.65625 -0.515625 
Q 12.796875 0.390625 7.625 2.203125 
L 7.625 11.71875 
Q 11.71875 9.328125 16.59375 8.109375 
Q 21.484375 6.890625 26.8125 6.890625 
Q 36.078125 6.890625 40.9375 10.546875 
Q 45.796875 14.203125 45.796875 21.1875 
Q 45.796875 27.640625 41.28125 31.265625 
Q 36.765625 34.90625 28.71875 34.90625 
L 20.21875 34.90625 
L 20.21875 43.015625 
L 29.109375 43.015625 
Q 36.375 43.015625 40.234375 45.921875 
Q 44.09375 48.828125 44.09375 54.296875 
Q 44.09375 59.90625 40.109375 62.90625 
Q 36.140625 65.921875 28.71875 65.921875 
Q 24.65625 65.921875 20.015625 65.03125 
Q 15.375 64.15625 9.8125 62.3125 
L 9.8125 71.09375 
Q 15.4375 72.65625 20.34375 73.4375 
Q 25.25 74.21875 29.59375 74.21875 
Q 40.828125 74.21875 47.359375 69.109375 
Q 53.90625 64.015625 53.90625 55.328125 
Q 53.90625 49.265625 50.4375 45.09375 
Q 46.96875 40.921875 40.578125 39.3125 
z
" id="DejaVuSans-51"/>
       </defs>
       <use xlink:href="#DejaVuSans-51"/>
       <use x="63.623047" xlink:href="#DejaVuSans-48"/>
       <use x="127.246094" xlink:href="#DejaVuSans-48"/>
       <use x="190.869141" xlink:href="#DejaVuSans-48"/>
      </g>
     </g>
    </g>
    <g id="text_8">
     <!-- R (Angstroms) -->
     <g transform="translate(157.763125 314.026062)scale(0.2 -0.2)">
      <defs>
       <path d="M 44.390625 34.1875 
Q 47.5625 33.109375 50.5625 29.59375 
Q 53.5625 26.078125 56.59375 19.921875 
L 66.609375 0 
L 56 0 
L 46.6875 18.703125 
Q 43.0625 26.03125 39.671875 28.421875 
Q 36.28125 30.8125 30.421875 30.8125 
L 19.671875 30.8125 
L 19.671875 0 
L 9.8125 0 
L 9.8125 72.90625 
L 32.078125 72.90625 
Q 44.578125 72.90625 50.734375 67.671875 
Q 56.890625 62.453125 56.890625 51.90625 
Q 56.890625 45.015625 53.6875 40.46875 
Q 50.484375 35.9375 44.390625 34.1875 
z
M 19.671875 64.796875 
L 19.671875 38.921875 
L 32.078125 38.921875 
Q 39.203125 38.921875 42.84375 42.21875 
Q 46.484375 45.515625 46.484375 51.90625 
Q 46.484375 58.296875 42.84375 61.546875 
Q 39.203125 64.796875 32.078125 64.796875 
z
" id="DejaVuSans-82"/>
       <path id="DejaVuSans-32"/>
       <path d="M 31 75.875 
Q 24.46875 64.65625 21.28125 53.65625 
Q 18.109375 42.671875 18.109375 31.390625 
Q 18.109375 20.125 21.3125 9.0625 
Q 24.515625 -2 31 -13.1875 
L 23.1875 -13.1875 
Q 15.875 -1.703125 12.234375 9.375 
Q 8.59375 20.453125 8.59375 31.390625 
Q 8.59375 42.28125 12.203125 53.3125 
Q 15.828125 64.359375 23.1875 75.875 
z
" id="DejaVuSans-40"/>
       <path d="M 34.1875 63.1875 
L 20.796875 26.90625 
L 47.609375 26.90625 
z
M 28.609375 72.90625 
L 39.796875 72.90625 
L 67.578125 0 
L 57.328125 0 
L 50.6875 18.703125 
L 17.828125 18.703125 
L 11.1875 0 
L 0.78125 0 
z
" id="DejaVuSans-65"/>
       <path d="M 54.890625 33.015625 
L 54.890625 0 
L 45.90625 0 
L 45.90625 32.71875 
Q 45.90625 40.484375 42.875 44.328125 
Q 39.84375 48.1875 33.796875 48.1875 
Q 26.515625 48.1875 22.3125 43.546875 
Q 18.109375 38.921875 18.109375 30.90625 
L 18.109375 0 
L 9.078125 0 
L 9.078125 54.6875 
L 18.109375 54.6875 
L 18.109375 46.1875 
Q 21.34375 51.125 25.703125 53.5625 
Q 30.078125 56 35.796875 56 
Q 45.21875 56 50.046875 50.171875 
Q 54.890625 44.34375 54.890625 33.015625 
z
" id="DejaVuSans-110"/>
       <path d="M 45.40625 27.984375 
Q 45.40625 37.75 41.375 43.109375 
Q 37.359375 48.484375 30.078125 48.484375 
Q 22.859375 48.484375 18.828125 43.109375 
Q 14.796875 37.75 14.796875 27.984375 
Q 14.796875 18.265625 18.828125 12.890625 
Q 22.859375 7.515625 30.078125 7.515625 
Q 37.359375 7.515625 41.375 12.890625 
Q 45.40625 18.265625 45.40625 27.984375 
z
M 54.390625 6.78125 
Q 54.390625 -7.171875 48.1875 -13.984375 
Q 42 -20.796875 29.203125 -20.796875 
Q 24.46875 -20.796875 20.265625 -20.09375 
Q 16.0625 -19.390625 12.109375 -17.921875 
L 12.109375 -9.1875 
Q 16.0625 -11.328125 19.921875 -12.34375 
Q 23.78125 -13.375 27.78125 -13.375 
Q 36.625 -13.375 41.015625 -8.765625 
Q 45.40625 -4.15625 45.40625 5.171875 
L 45.40625 9.625 
Q 42.625 4.78125 38.28125 2.390625 
Q 33.9375 0 27.875 0 
Q 17.828125 0 11.671875 7.65625 
Q 5.515625 15.328125 5.515625 27.984375 
Q 5.515625 40.671875 11.671875 48.328125 
Q 17.828125 56 27.875 56 
Q 33.9375 56 38.28125 53.609375 
Q 42.625 51.21875 45.40625 46.390625 
L 45.40625 54.6875 
L 54.390625 54.6875 
z
" id="DejaVuSans-103"/>
       <path d="M 44.28125 53.078125 
L 44.28125 44.578125 
Q 40.484375 46.53125 36.375 47.5 
Q 32.28125 48.484375 27.875 48.484375 
Q 21.1875 48.484375 17.84375 46.4375 
Q 14.5 44.390625 14.5 40.28125 
Q 14.5 37.15625 16.890625 35.375 
Q 19.28125 33.59375 26.515625 31.984375 
L 29.59375 31.296875 
Q 39.15625 29.25 43.1875 25.515625 
Q 47.21875 21.78125 47.21875 15.09375 
Q 47.21875 7.46875 41.1875 3.015625 
Q 35.15625 -1.421875 24.609375 -1.421875 
Q 20.21875 -1.421875 15.453125 -0.5625 
Q 10.6875 0.296875 5.421875 2 
L 5.421875 11.28125 
Q 10.40625 8.6875 15.234375 7.390625 
Q 20.0625 6.109375 24.8125 6.109375 
Q 31.15625 6.109375 34.5625 8.28125 
Q 37.984375 10.453125 37.984375 14.40625 
Q 37.984375 18.0625 35.515625 20.015625 
Q 33.0625 21.96875 24.703125 23.78125 
L 21.578125 24.515625 
Q 13.234375 26.265625 9.515625 29.90625 
Q 5.8125 33.546875 5.8125 39.890625 
Q 5.8125 47.609375 11.28125 51.796875 
Q 16.75 56 26.8125 56 
Q 31.78125 56 36.171875 55.265625 
Q 40.578125 54.546875 44.28125 53.078125 
z
" id="DejaVuSans-115"/>
       <path d="M 18.3125 70.21875 
L 18.3125 54.6875 
L 36.8125 54.6875 
L 36.8125 47.703125 
L 18.3125 47.703125 
L 18.3125 18.015625 
Q 18.3125 11.328125 20.140625 9.421875 
Q 21.96875 7.515625 27.59375 7.515625 
L 36.8125 7.515625 
L 36.8125 0 
L 27.59375 0 
Q 17.1875 0 13.234375 3.875 
Q 9.28125 7.765625 9.28125 18.015625 
L 9.28125 47.703125 
L 2.6875 47.703125 
L 2.6875 54.6875 
L 9.28125 54.6875 
L 9.28125 70.21875 
z
" id="DejaVuSans-116"/>
       <path d="M 41.109375 46.296875 
Q 39.59375 47.171875 37.8125 47.578125 
Q 36.03125 48 33.890625 48 
Q 26.265625 48 22.1875 43.046875 
Q 18.109375 38.09375 18.109375 28.8125 
L 18.109375 0 
L 9.078125 0 
L 9.078125 54.6875 
L 18.109375 54.6875 
L 18.109375 46.1875 
Q 20.953125 51.171875 25.484375 53.578125 
Q 30.03125 56 36.53125 56 
Q 37.453125 56 38.578125 55.875 
Q 39.703125 55.765625 41.0625 55.515625 
z
" id="DejaVuSans-114"/>
       <path d="M 30.609375 48.390625 
Q 23.390625 48.390625 19.1875 42.75 
Q 14.984375 37.109375 14.984375 27.296875 
Q 14.984375 17.484375 19.15625 11.84375 
Q 23.34375 6.203125 30.609375 6.203125 
Q 37.796875 6.203125 41.984375 11.859375 
Q 46.1875 17.53125 46.1875 27.296875 
Q 46.1875 37.015625 41.984375 42.703125 
Q 37.796875 48.390625 30.609375 48.390625 
z
M 30.609375 56 
Q 42.328125 56 49.015625 48.375 
Q 55.71875 40.765625 55.71875 27.296875 
Q 55.71875 13.875 49.015625 6.21875 
Q 42.328125 -1.421875 30.609375 -1.421875 
Q 18.84375 -1.421875 12.171875 6.21875 
Q 5.515625 13.875 5.515625 27.296875 
Q 5.515625 40.765625 12.171875 48.375 
Q 18.84375 56 30.609375 56 
z
" id="DejaVuSans-111"/>
       <path d="M 52 44.1875 
Q 55.375 50.25 60.0625 53.125 
Q 64.75 56 71.09375 56 
Q 79.640625 56 84.28125 50.015625 
Q 88.921875 44.046875 88.921875 33.015625 
L 88.921875 0 
L 79.890625 0 
L 79.890625 32.71875 
Q 79.890625 40.578125 77.09375 44.375 
Q 74.3125 48.1875 68.609375 48.1875 
Q 61.625 48.1875 57.5625 43.546875 
Q 53.515625 38.921875 53.515625 30.90625 
L 53.515625 0 
L 44.484375 0 
L 44.484375 32.71875 
Q 44.484375 40.625 41.703125 44.40625 
Q 38.921875 48.1875 33.109375 48.1875 
Q 26.21875 48.1875 22.15625 43.53125 
Q 18.109375 38.875 18.109375 30.90625 
L 18.109375 0 
L 9.078125 0 
L 9.078125 54.6875 
L 18.109375 54.6875 
L 18.109375 46.1875 
Q 21.1875 51.21875 25.484375 53.609375 
Q 29.78125 56 35.6875 56 
Q 41.65625 56 45.828125 52.96875 
Q 50 49.953125 52 44.1875 
z
" id="DejaVuSans-109"/>
       <path d="M 8.015625 75.875 
L 15.828125 75.875 
Q 23.140625 64.359375 26.78125 53.3125 
Q 30.421875 42.28125 30.421875 31.390625 
Q 30.421875 20.453125 26.78125 9.375 
Q 23.140625 -1.703125 15.828125 -13.1875 
L 8.015625 -13.1875 
Q 14.5 -2 17.703125 9.0625 
Q 20.90625 20.125 20.90625 31.390625 
Q 20.90625 42.671875 17.703125 53.65625 
Q 14.5 64.65625 8.015625 75.875 
z
" id="DejaVuSans-41"/>
      </defs>
      <use xlink:href="#DejaVuSans-82"/>
      <use x="69.482422" xlink:href="#DejaVuSans-32"/>
      <use x="101.269531" xlink:href="#DejaVuSans-40"/>
      <use x="140.283203" xlink:href="#DejaVuSans-65"/>
      <use x="208.691406" xlink:href="#DejaVuSans-110"/>
      <use x="272.070312" xlink:href="#DejaVuSans-103"/>
      <use x="335.546875" xlink:href="#DejaVuSans-115"/>
      <use x="387.646484" xlink:href="#DejaVuSans-116"/>
      <use x="426.855469" xlink:href="#DejaVuSans-114"/>
      <use x="465.71875" xlink:href="#DejaVuSans-111"/>
      <use x="526.900391" xlink:href="#DejaVuSans-109"/>
      <use x="624.3125" xlink:href="#DejaVuSans-115"/>
      <use x="676.412109" xlink:href="#DejaVuSans-41"/>
     </g>
    </g>
   </g>
   <g id="matplotlib.axis_2">
    <g id="ytick_1">
     <g id="line2d_15">
      <path clip-path="url(#p788de6a001)" d="M 50.74375 273.312 
L 407.86375 273.312 
" style="fill:none;stroke:#b0b0b0;stroke-linecap:square;stroke-width:0.8;"/>
     </g>
     <g id="line2d_16">
      <defs>
       <path d="M 0 0 
L -3.5 0 
" id="mc3ce260a5b" style="stroke:#000000;stroke-width:0.8;"/>
      </defs>
      <g>
       <use style="stroke:#000000;stroke-width:0.8;" x="50.74375" xlink:href="#mc3ce260a5b" y="273.312"/>
      </g>
     </g>
     <g id="text_9">
      <!-- 0 -->
      <g transform="translate(34.2 279.010828)scale(0.15 -0.15)">
       <use xlink:href="#DejaVuSans-48"/>
      </g>
     </g>
    </g>
    <g id="ytick_2">
     <g id="line2d_17">
      <path clip-path="url(#p788de6a001)" d="M 50.74375 236.858301 
L 407.86375 236.858301 
" style="fill:none;stroke:#b0b0b0;stroke-linecap:square;stroke-width:0.8;"/>
     </g>
     <g id="line2d_18">
      <g>
       <use style="stroke:#000000;stroke-width:0.8;" x="50.74375" xlink:href="#mc3ce260a5b" y="236.858301"/>
      </g>
     </g>
     <g id="text_10">
      <!-- 1 -->
      <g transform="translate(34.2 242.557129)scale(0.15 -0.15)">
       <use xlink:href="#DejaVuSans-49"/>
      </g>
     </g>
    </g>
    <g id="ytick_3">
     <g id="line2d_19">
      <path clip-path="url(#p788de6a001)" d="M 50.74375 200.404603 
L 407.86375 200.404603 
" style="fill:none;stroke:#b0b0b0;stroke-linecap:square;stroke-width:0.8;"/>
     </g>
     <g id="line2d_20">
      <g>
       <use style="stroke:#000000;stroke-width:0.8;" x="50.74375" xlink:href="#mc3ce260a5b" y="200.404603"/>
      </g>
     </g>
     <g id="text_11">
      <!-- 2 -->
      <g transform="translate(34.2 206.103431)scale(0.15 -0.15)">
       <use xlink:href="#DejaVuSans-50"/>
      </g>
     </g>
    </g>
    <g id="ytick_4">
     <g id="line2d_21">
      <path clip-path="url(#p788de6a001)" d="M 50.74375 163.950904 
L 407.86375 163.950904 
" style="fill:none;stroke:#b0b0b0;stroke-linecap:square;stroke-width:0.8;"/>
     </g>
     <g id="line2d_22">
      <g>
       <use style="stroke:#000000;stroke-width:0.8;" x="50.74375" xlink:href="#mc3ce260a5b" y="163.950904"/>
      </g>
     </g>
     <g id="text_12">
      <!-- 3 -->
      <g transform="translate(34.2 169.649732)scale(0.15 -0.15)">
       <use xlink:href="#DejaVuSans-51"/>
      </g>
     </g>
    </g>
    <g id="ytick_5">
     <g id="line2d_23">
      <path clip-path="url(#p788de6a001)" d="M 50.74375 127.497205 
L 407.86375 127.497205 
" style="fill:none;stroke:#b0b0b0;stroke-linecap:square;stroke-width:0.8;"/>
     </g>
     <g id="line2d_24">
      <g>
       <use style="stroke:#000000;stroke-width:0.8;" x="50.74375" xlink:href="#mc3ce260a5b" y="127.497205"/>
      </g>
     </g>
     <g id="text_13">
      <!-- 4 -->
      <g transform="translate(34.2 133.196034)scale(0.15 -0.15)">
       <defs>
        <path d="M 37.796875 64.3125 
L 12.890625 25.390625 
L 37.796875 25.390625 
z
M 35.203125 72.90625 
L 47.609375 72.90625 
L 47.609375 25.390625 
L 58.015625 25.390625 
L 58.015625 17.1875 
L 47.609375 17.1875 
L 47.609375 0 
L 37.796875 0 
L 37.796875 17.1875 
L 4.890625 17.1875 
L 4.890625 26.703125 
z
" id="DejaVuSans-52"/>
       </defs>
       <use xlink:href="#DejaVuSans-52"/>
      </g>
     </g>
    </g>
    <g id="ytick_6">
     <g id="line2d_25">
      <path clip-path="url(#p788de6a001)" d="M 50.74375 91.043507 
L 407.86375 91.043507 
" style="fill:none;stroke:#b0b0b0;stroke-linecap:square;stroke-width:0.8;"/>
     </g>
     <g id="line2d_26">
      <g>
       <use style="stroke:#000000;stroke-width:0.8;" x="50.74375" xlink:href="#mc3ce260a5b" y="91.043507"/>
      </g>
     </g>
     <g id="text_14">
      <!-- 5 -->
      <g transform="translate(34.2 96.742335)scale(0.15 -0.15)">
       <use xlink:href="#DejaVuSans-53"/>
      </g>
     </g>
    </g>
    <g id="ytick_7">
     <g id="line2d_27">
      <path clip-path="url(#p788de6a001)" d="M 50.74375 54.589808 
L 407.86375 54.589808 
" style="fill:none;stroke:#b0b0b0;stroke-linecap:square;stroke-width:0.8;"/>
     </g>
     <g id="line2d_28">
      <g>
       <use style="stroke:#000000;stroke-width:0.8;" x="50.74375" xlink:href="#mc3ce260a5b" y="54.589808"/>
      </g>
     </g>
     <g id="text_15">
      <!-- 6 -->
      <g transform="translate(34.2 60.288636)scale(0.15 -0.15)">
       <defs>
        <path d="M 33.015625 40.375 
Q 26.375 40.375 22.484375 35.828125 
Q 18.609375 31.296875 18.609375 23.390625 
Q 18.609375 15.53125 22.484375 10.953125 
Q 26.375 6.390625 33.015625 6.390625 
Q 39.65625 6.390625 43.53125 10.953125 
Q 47.40625 15.53125 47.40625 23.390625 
Q 47.40625 31.296875 43.53125 35.828125 
Q 39.65625 40.375 33.015625 40.375 
z
M 52.59375 71.296875 
L 52.59375 62.3125 
Q 48.875 64.0625 45.09375 64.984375 
Q 41.3125 65.921875 37.59375 65.921875 
Q 27.828125 65.921875 22.671875 59.328125 
Q 17.53125 52.734375 16.796875 39.40625 
Q 19.671875 43.65625 24.015625 45.921875 
Q 28.375 48.1875 33.59375 48.1875 
Q 44.578125 48.1875 50.953125 41.515625 
Q 57.328125 34.859375 57.328125 23.390625 
Q 57.328125 12.15625 50.6875 5.359375 
Q 44.046875 -1.421875 33.015625 -1.421875 
Q 20.359375 -1.421875 13.671875 8.265625 
Q 6.984375 17.96875 6.984375 36.375 
Q 6.984375 53.65625 15.1875 63.9375 
Q 23.390625 74.21875 37.203125 74.21875 
Q 40.921875 74.21875 44.703125 73.484375 
Q 48.484375 72.75 52.59375 71.296875 
z
" id="DejaVuSans-54"/>
       </defs>
       <use xlink:href="#DejaVuSans-54"/>
      </g>
     </g>
    </g>
    <g id="ytick_8">
     <g id="line2d_29">
      <path clip-path="url(#p788de6a001)" d="M 50.74375 18.13611 
L 407.86375 18.13611 
" style="fill:none;stroke:#b0b0b0;stroke-linecap:square;stroke-width:0.8;"/>
     </g>
     <g id="line2d_30">
      <g>
       <use style="stroke:#000000;stroke-width:0.8;" x="50.74375" xlink:href="#mc3ce260a5b" y="18.13611"/>
      </g>
     </g>
     <g id="text_16">
      <!-- 7 -->
      <g transform="translate(34.2 23.834938)scale(0.15 -0.15)">
       <defs>
        <path d="M 8.203125 72.90625 
L 55.078125 72.90625 
L 55.078125 68.703125 
L 28.609375 0 
L 18.3125 0 
L 43.21875 64.59375 
L 8.203125 64.59375 
z
" id="DejaVuSans-55"/>
       </defs>
       <use xlink:href="#DejaVuSans-55"/>
      </g>
     </g>
    </g>
    <g id="text_17">
     <!-- $\left|\psi(R)\right|^2$ -->
     <g transform="translate(25.4 173.256)rotate(-90)scale(0.2 -0.2)">
      <defs>
       <path d="M 21 76.421875 
L 21 -23.578125 
L 12.703125 -23.578125 
L 12.703125 76.421875 
z
" id="DejaVuSans-124"/>
       <path d="M 24.859375 -1.21875 
Q 13.921875 0.59375 9.625 5.328125 
Q 4.34375 11.140625 6.640625 23 
L 12.796875 54.6875 
L 21.875 54.6875 
L 15.765625 23.34375 
Q 14.0625 14.40625 17.484375 10.6875 
Q 20.515625 7.46875 26.421875 6.78125 
L 35.6875 54.6875 
L 44.625 54.6875 
L 35.359375 6.84375 
Q 41.890625 7.515625 45.75 10.75 
Q 50.734375 14.84375 52.390625 23.390625 
L 58.453125 54.6875 
L 67.53125 54.6875 
L 61.375 23.046875 
Q 58.984375 10.75 51.5625 5.375 
Q 44.875 0.53125 33.796875 -1.171875 
L 29.984375 -20.796875 
L 21.046875 -20.796875 
z
" id="DejaVuSans-Oblique-968"/>
       <path d="M 25.203125 64.796875 
L 20.21875 38.921875 
L 32.90625 38.921875 
Q 40.375 38.921875 44.984375 43.046875 
Q 49.609375 47.171875 49.609375 53.8125 
Q 49.609375 59.125 46.5 61.953125 
Q 43.40625 64.796875 37.59375 64.796875 
z
M 43.3125 35.015625 
Q 46.4375 34.28125 48.515625 31.390625 
Q 50.59375 28.515625 53.328125 19.921875 
L 59.515625 0 
L 49.125 0 
L 43.40625 18.703125 
Q 41.21875 25.921875 38.328125 28.359375 
Q 35.453125 30.8125 29.5 30.8125 
L 18.609375 30.8125 
L 12.59375 0 
L 2.6875 0 
L 16.890625 72.90625 
L 39.109375 72.90625 
Q 49.21875 72.90625 54.609375 68.328125 
Q 60.015625 63.765625 60.015625 55.171875 
Q 60.015625 47.5625 55.421875 41.984375 
Q 50.828125 36.421875 43.3125 35.015625 
z
" id="DejaVuSans-Oblique-82"/>
      </defs>
      <use transform="translate(0 0.765625)" xlink:href="#DejaVuSans-124"/>
      <use transform="translate(33.691406 0.765625)" xlink:href="#DejaVuSans-Oblique-968"/>
      <use transform="translate(99.658203 0.765625)" xlink:href="#DejaVuSans-40"/>
      <use transform="translate(138.671875 0.765625)" xlink:href="#DejaVuSans-Oblique-82"/>
      <use transform="translate(208.154297 0.765625)" xlink:href="#DejaVuSans-41"/>
      <use transform="translate(247.167969 0.765625)" xlink:href="#DejaVuSans-124"/>
      <use transform="translate(281.816406 39.046875)scale(0.7)" xlink:href="#DejaVuSans-50"/>
     </g>
    </g>
   </g>
   <g id="line2d_31">
    <path clip-path="url(#p788de6a001)" d="M 51.022025 273.312 
L 55.822275 273.20495 
L 57.167272 272.805986 
L 58.952872 272.036886 
L 60.87761 270.964601 
L 62.825537 269.625802 
L 64.866223 267.947474 
L 67.022856 265.865968 
L 69.434576 263.167665 
L 71.915864 259.99036 
L 74.188446 256.732858 
L 76.530597 253.03864 
L 79.243781 248.347049 
L 82.072914 243.005489 
L 85.087563 236.840075 
L 90.397984 224.886907 
L 93.783667 216.619208 
L 98.050555 205.588319 
L 103.314597 191.207335 
L 111.083116 168.894026 
L 120.521288 141.054336 
L 123.675075 131.798742 
L 127.570929 120.512677 
L 135.409018 98.665975 
L 140.696249 84.850023 
L 145.102275 74.067019 
L 148.97494 65.219707 
L 152.476571 57.779507 
L 155.792685 51.254295 
L 158.900093 45.629489 
L 161.845173 40.75563 
L 164.743875 36.403058 
L 167.549818 32.622809 
L 170.332571 29.298232 
L 173.068945 26.451198 
L 175.75894 24.063481 
L 178.472124 22.069464 
L 181.254877 20.450919 
L 183.944872 19.302628 
L 186.774005 18.526164 
L 189.603137 18.19079 
L 192.571407 18.300151 
L 195.562867 18.879765 
L 198.670275 19.969731 
L 201.963199 21.642955 
L 205.372072 23.917666 
L 208.920082 26.844898 
L 212.769558 30.625147 
L 216.943688 35.382354 
L 221.419282 41.185783 
L 226.590566 48.6916 
L 232.643054 58.410156 
L 240.411573 72.062066 
L 253.328186 96.664667 
L 256.644301 103.189879 
L 259.311106 108.457439 
L 263.183771 116.120006 
L 265.943334 121.562543 
L 269.097121 127.756027 
L 273.34082 135.998208 
L 275.404695 139.96437 
L 285.283469 158.362552 
L 290.454753 167.523367 
L 291.938888 170.086062 
L 296.507241 177.766856 
L 307.731012 195.206305 
L 315.545911 206.073153 
L 324.914514 217.680011 
L 333.610618 227.085065 
L 343.350254 236.121937 
L 353.69282 244.111858 
L 358.632207 247.39342 
L 363.362888 250.237538 
L 368.487792 253.010935 
L 374.053298 255.686272 
L 378.505703 257.594259 
L 383.352332 259.45522 
L 388.662753 261.257491 
L 394.576103 263.001071 
L 398.587906 264.040731 
L 398.587906 264.040731 
" style="fill:none;stroke:#2ca02c;stroke-linecap:square;stroke-width:1.5;"/>
   </g>
   <g id="line2d_32">
    <path clip-path="url(#p788de6a001)" d="M 51.022025 273.312 
L 51.50321 273.201494 
L 51.604085 273.126192 
L 51.52524 273.310378 
L 51.608722 273.211607 
L 51.61452 273.31127 
L 51.710757 273.007251 
L 51.711916 273.007466 
L 51.76989 273.308566 
L 51.79308 272.895662 
L 51.831343 273.050758 
L 51.909028 272.716966 
L 51.874244 273.285781 
L 51.935696 273.195053 
L 51.944972 273.275925 
L 51.987873 272.560726 
L 52.044687 273.182352 
L 52.089907 272.321334 
L 52.1502 273.260557 
L 52.152519 273.260538 
L 52.165273 273.150492 
L 52.229045 271.922458 
L 52.287019 272.962876 
L 52.314846 273.259948 
L 52.365863 272.35509 
L 52.431954 271.150332 
L 52.488768 272.014795 
L 52.566453 273.258129 
L 52.620949 272.544139 
L 52.790233 269.077538 
L 52.854005 269.572944 
L 53.039521 271.54888 
L 53.085901 271.406091 
L 53.410555 268.852619 
L 53.503314 269.220801 
L 53.827968 272.491792 
L 54.013485 273.31061 
L 54.036675 273.303044 
L 54.129433 273.022569 
L 54.31495 271.365336 
L 54.662794 265.553924 
L 56.10055 239.221959 
L 56.796238 231.291822 
L 57.538306 225.31706 
L 58.303563 220.78222 
L 59.231147 216.557237 
L 60.321059 212.558266 
L 62.03709 207.27248 
L 65.167688 198.742314 
L 68.182337 190.861024 
L 75.046462 172.831025 
L 77.179906 167.16612 
L 92.99522 125.215204 
L 104.520456 96.526143 
L 109.111999 85.983733 
L 114.074576 75.328317 
L 118.341464 66.860123 
L 122.330077 59.573029 
L 125.947656 53.536296 
L 129.495667 48.163021 
L 132.88135 43.562564 
L 136.127895 39.654728 
L 139.397631 36.220789 
L 142.551418 33.395628 
L 145.705205 31.0553 
L 148.905371 29.17429 
L 152.059158 27.807276 
L 155.259324 26.91416 
L 158.552249 26.505879 
L 161.937932 26.61524 
L 165.369994 27.264116 
L 168.941194 28.499896 
L 172.697911 30.391843 
L 176.663334 33.016509 
L 180.767895 36.381186 
L 185.26668 40.773856 
L 190.159688 46.322109 
L 195.655625 53.408708 
L 202.032768 62.620558 
L 210.125942 75.54704 
L 222.601953 97.339061 
L 226.080394 103.663777 
L 228.237028 107.611713 
L 233.45469 117.217262 
L 235.379428 120.764207 
L 240.272436 129.757335 
L 242.521828 133.865667 
L 245.768373 139.752939 
L 249.270005 146.02662 
L 251.33388 149.682926 
L 262.186618 168.230568 
L 266.128851 174.631838 
L 267.705745 177.139852 
L 273.572716 186.158497 
L 277.027968 191.236498 
L 278.512103 193.365394 
L 283.961662 200.885792 
L 287.208207 205.143584 
L 288.576394 206.889716 
L 293.747677 213.218078 
L 296.507241 216.418713 
L 297.875428 217.964349 
L 303.580072 224.077635 
L 305.899033 226.414317 
L 307.26722 227.755813 
L 313.853069 233.818063 
L 315.847376 235.524096 
L 317.215563 236.665097 
L 325.007272 242.649336 
L 328.995885 245.397216 
L 333.842514 248.464794 
L 339.060176 251.452175 
L 343.211116 253.60987 
L 349.194036 256.401858 
L 355.756695 259.067353 
L 360.974358 260.918107 
L 366.934088 262.768861 
L 371.456062 264.003548 
L 376.186742 265.153298 
L 384.256727 266.815951 
L 390.378784 267.858162 
L 397.567563 268.875949 
L 398.587906 269.004631 
L 398.587906 269.004631 
" style="fill:none;stroke:#ff7f0e;stroke-linecap:square;stroke-width:1.5;"/>
   </g>
   <g id="line2d_33">
    <path clip-path="url(#p788de6a001)" d="M 51.022025 273.312 
L 55.428051 273.20257 
L 56.587532 272.784624 
L 58.442701 271.866793 
L 60.529766 270.585154 
L 62.570451 269.06806 
L 64.773464 267.123985 
L 66.721392 265.136894 
L 68.947594 262.559253 
L 71.452072 259.273681 
L 73.771033 255.876925 
L 76.414649 251.602 
L 79.174212 246.700435 
L 82.072914 241.092763 
L 85.180321 234.590881 
L 89.284882 225.291543 
L 92.99522 216.258316 
L 97.308488 205.110775 
L 102.688477 190.419935 
L 110.758462 167.253609 
L 118.689308 143.915951 
L 121.912664 134.463507 
L 125.901277 122.900394 
L 134.272727 99.544509 
L 139.559958 85.728558 
L 144.058742 74.71225 
L 147.931407 65.864937 
L 151.502607 58.271632 
L 154.795532 51.79381 
L 157.926129 46.125259 
L 160.917589 41.171202 
L 163.81629 36.81863 
L 166.645423 33.005573 
L 169.428176 29.680996 
L 172.16455 26.833962 
L 174.900924 24.4025 
L 177.614108 22.408483 
L 180.396862 20.789939 
L 183.110046 19.630711 
L 185.939179 18.854247 
L 188.791501 18.515228 
L 191.736581 18.624589 
L 194.77442 19.211494 
L 197.881828 20.301459 
L 201.197942 21.98562 
L 204.583625 24.245749 
L 208.201205 27.227662 
L 212.05068 31.007911 
L 216.20162 35.739601 
L 220.769973 41.659681 
L 225.918067 49.13269 
L 232.040124 58.960607 
L 239.901402 72.772913 
L 253.142669 97.987936 
L 256.366025 104.323589 
L 259.125589 109.766126 
L 262.719979 116.860016 
L 265.641869 122.608764 
L 268.58695 128.37574 
L 273.549527 137.973998 
L 275.427885 141.561042 
L 283.938472 157.378302 
L 287.903895 164.453965 
L 289.619927 167.454105 
L 295.486898 177.380447 
L 306.919376 195.147979 
L 314.687895 205.94921 
L 324.126067 217.643557 
L 332.798981 227.023093 
L 342.608186 236.125582 
L 352.927563 244.096183 
L 357.86695 247.378839 
L 362.62082 250.237538 
L 366.493485 252.362059 
L 371.873475 255.028283 
L 376.256311 256.972723 
L 380.963802 258.850818 
L 388.24534 261.365758 
L 393.857225 263.014559 
L 398.587906 264.23029 
L 398.587906 264.23029 
" style="fill:none;stroke:#d62728;stroke-dasharray:5.55,2.4;stroke-dashoffset:0;stroke-width:1.5;"/>
   </g>
   <g id="line2d_34">
    <path clip-path="url(#p788de6a001)" d="M 62.338555 273.312 
L 62.338555 7.2 
" style="fill:none;stroke:#1f77b4;stroke-dasharray:11.1,4.8;stroke-dashoffset:0;stroke-width:3;"/>
   </g>
   <g id="patch_3">
    <path d="M 50.74375 273.312 
L 50.74375 7.2 
" style="fill:none;stroke:#000000;stroke-linecap:square;stroke-linejoin:miter;stroke-width:0.8;"/>
   </g>
   <g id="patch_4">
    <path d="M 407.86375 273.312 
L 407.86375 7.2 
" style="fill:none;stroke:#000000;stroke-linecap:square;stroke-linejoin:miter;stroke-width:0.8;"/>
   </g>
   <g id="patch_5">
    <path d="M 50.74375 273.312 
L 407.86375 273.312 
" style="fill:none;stroke:#000000;stroke-linecap:square;stroke-linejoin:miter;stroke-width:0.8;"/>
   </g>
   <g id="patch_6">
    <path d="M 50.74375 7.2 
L 407.86375 7.2 
" style="fill:none;stroke:#000000;stroke-linecap:square;stroke-linejoin:miter;stroke-width:0.8;"/>
   </g>
   <g id="legend_1">
    <g id="patch_7">
     <path d="M 247.699394 79.423712 
L 398.14775 79.423712 
Q 400.92375 79.423712 400.92375 76.647712 
L 400.92375 16.916 
Q 400.92375 14.14 398.14775 14.14 
L 247.699394 14.14 
Q 244.923394 14.14 244.923394 16.916 
L 244.923394 76.647712 
Q 244.923394 79.423712 247.699394 79.423712 
z
" style="fill:#ffffff;opacity:0.8;stroke:#cccccc;stroke-linejoin:miter;"/>
    </g>
    <g id="line2d_35">
     <path d="M 250.475394 25.380631 
L 278.235394 25.380631 
" style="fill:none;stroke:#2ca02c;stroke-linecap:square;stroke-width:1.5;"/>
    </g>
    <g id="line2d_36"/>
    <g id="text_18">
     <!-- Na(2,2) Cs(4,4) -->
     <g transform="translate(289.339394 30.238631)scale(0.1388 -0.1388)">
      <defs>
       <path d="M 9.8125 72.90625 
L 23.09375 72.90625 
L 55.421875 11.921875 
L 55.421875 72.90625 
L 64.984375 72.90625 
L 64.984375 0 
L 51.703125 0 
L 19.390625 60.984375 
L 19.390625 0 
L 9.8125 0 
z
" id="DejaVuSans-78"/>
       <path d="M 34.28125 27.484375 
Q 23.390625 27.484375 19.1875 25 
Q 14.984375 22.515625 14.984375 16.5 
Q 14.984375 11.71875 18.140625 8.90625 
Q 21.296875 6.109375 26.703125 6.109375 
Q 34.1875 6.109375 38.703125 11.40625 
Q 43.21875 16.703125 43.21875 25.484375 
L 43.21875 27.484375 
z
M 52.203125 31.203125 
L 52.203125 0 
L 43.21875 0 
L 43.21875 8.296875 
Q 40.140625 3.328125 35.546875 0.953125 
Q 30.953125 -1.421875 24.3125 -1.421875 
Q 15.921875 -1.421875 10.953125 3.296875 
Q 6 8.015625 6 15.921875 
Q 6 25.140625 12.171875 29.828125 
Q 18.359375 34.515625 30.609375 34.515625 
L 43.21875 34.515625 
L 43.21875 35.40625 
Q 43.21875 41.609375 39.140625 45 
Q 35.0625 48.390625 27.6875 48.390625 
Q 23 48.390625 18.546875 47.265625 
Q 14.109375 46.140625 10.015625 43.890625 
L 10.015625 52.203125 
Q 14.9375 54.109375 19.578125 55.046875 
Q 24.21875 56 28.609375 56 
Q 40.484375 56 46.34375 49.84375 
Q 52.203125 43.703125 52.203125 31.203125 
z
" id="DejaVuSans-97"/>
       <path d="M 11.71875 12.40625 
L 22.015625 12.40625 
L 22.015625 4 
L 14.015625 -11.625 
L 7.71875 -11.625 
L 11.71875 4 
z
" id="DejaVuSans-44"/>
       <path d="M 64.40625 67.28125 
L 64.40625 56.890625 
Q 59.421875 61.53125 53.78125 63.8125 
Q 48.140625 66.109375 41.796875 66.109375 
Q 29.296875 66.109375 22.65625 58.46875 
Q 16.015625 50.828125 16.015625 36.375 
Q 16.015625 21.96875 22.65625 14.328125 
Q 29.296875 6.6875 41.796875 6.6875 
Q 48.140625 6.6875 53.78125 8.984375 
Q 59.421875 11.28125 64.40625 15.921875 
L 64.40625 5.609375 
Q 59.234375 2.09375 53.4375 0.328125 
Q 47.65625 -1.421875 41.21875 -1.421875 
Q 24.65625 -1.421875 15.125 8.703125 
Q 5.609375 18.84375 5.609375 36.375 
Q 5.609375 53.953125 15.125 64.078125 
Q 24.65625 74.21875 41.21875 74.21875 
Q 47.75 74.21875 53.53125 72.484375 
Q 59.328125 70.75 64.40625 67.28125 
z
" id="DejaVuSans-67"/>
      </defs>
      <use xlink:href="#DejaVuSans-78"/>
      <use x="74.804688" xlink:href="#DejaVuSans-97"/>
      <use x="136.083984" xlink:href="#DejaVuSans-40"/>
      <use x="175.097656" xlink:href="#DejaVuSans-50"/>
      <use x="238.720703" xlink:href="#DejaVuSans-44"/>
      <use x="270.507812" xlink:href="#DejaVuSans-50"/>
      <use x="334.130859" xlink:href="#DejaVuSans-41"/>
      <use x="373.144531" xlink:href="#DejaVuSans-32"/>
      <use x="404.931641" xlink:href="#DejaVuSans-67"/>
      <use x="474.755859" xlink:href="#DejaVuSans-115"/>
      <use x="526.855469" xlink:href="#DejaVuSans-40"/>
      <use x="565.869141" xlink:href="#DejaVuSans-52"/>
      <use x="629.492188" xlink:href="#DejaVuSans-44"/>
      <use x="661.279297" xlink:href="#DejaVuSans-52"/>
      <use x="724.902344" xlink:href="#DejaVuSans-41"/>
     </g>
    </g>
    <g id="line2d_37">
     <path d="M 250.475394 45.753869 
L 278.235394 45.753869 
" style="fill:none;stroke:#ff7f0e;stroke-linecap:square;stroke-width:1.5;"/>
    </g>
    <g id="line2d_38"/>
    <g id="text_19">
     <!-- Na(2,2) Cs(3,3) -->
     <g transform="translate(289.339394 50.611869)scale(0.1388 -0.1388)">
      <use xlink:href="#DejaVuSans-78"/>
      <use x="74.804688" xlink:href="#DejaVuSans-97"/>
      <use x="136.083984" xlink:href="#DejaVuSans-40"/>
      <use x="175.097656" xlink:href="#DejaVuSans-50"/>
      <use x="238.720703" xlink:href="#DejaVuSans-44"/>
      <use x="270.507812" xlink:href="#DejaVuSans-50"/>
      <use x="334.130859" xlink:href="#DejaVuSans-41"/>
      <use x="373.144531" xlink:href="#DejaVuSans-32"/>
      <use x="404.931641" xlink:href="#DejaVuSans-67"/>
      <use x="474.755859" xlink:href="#DejaVuSans-115"/>
      <use x="526.855469" xlink:href="#DejaVuSans-40"/>
      <use x="565.869141" xlink:href="#DejaVuSans-51"/>
      <use x="629.492188" xlink:href="#DejaVuSans-44"/>
      <use x="661.279297" xlink:href="#DejaVuSans-51"/>
      <use x="724.902344" xlink:href="#DejaVuSans-41"/>
     </g>
    </g>
    <g id="line2d_39">
     <path d="M 250.475394 66.127106 
L 278.235394 66.127106 
" style="fill:none;stroke:#d62728;stroke-dasharray:5.55,2.4;stroke-dashoffset:0;stroke-width:1.5;"/>
    </g>
    <g id="line2d_40"/>
    <g id="text_20">
     <!-- Na(1,1) Cs(3,3) -->
     <g transform="translate(289.339394 70.985106)scale(0.1388 -0.1388)">
      <use xlink:href="#DejaVuSans-78"/>
      <use x="74.804688" xlink:href="#DejaVuSans-97"/>
      <use x="136.083984" xlink:href="#DejaVuSans-40"/>
      <use x="175.097656" xlink:href="#DejaVuSans-49"/>
      <use x="238.720703" xlink:href="#DejaVuSans-44"/>
      <use x="270.507812" xlink:href="#DejaVuSans-49"/>
      <use x="334.130859" xlink:href="#DejaVuSans-41"/>
      <use x="373.144531" xlink:href="#DejaVuSans-32"/>
      <use x="404.931641" xlink:href="#DejaVuSans-67"/>
      <use x="474.755859" xlink:href="#DejaVuSans-115"/>
      <use x="526.855469" xlink:href="#DejaVuSans-40"/>
      <use x="565.869141" xlink:href="#DejaVuSans-51"/>
      <use x="629.492188" xlink:href="#DejaVuSans-44"/>
      <use x="661.279297" xlink:href="#DejaVuSans-51"/>
      <use x="724.902344" xlink:href="#DejaVuSans-41"/>
     </g>
    </g>
   </g>
  </g>
 </g>
 <defs>
  <clipPath id="p788de6a001">
   <rect height="266.112" width="357.12" x="50.74375" y="7.2"/>
  </clipPath>
 </defs>
</svg>
